<?xml version="1.0" encoding="UTF-8" standalone="no"?>
<!DOCTYPE svg PUBLIC "-//W3C//DTD SVG 1.1//EN"
 "http://www.w3.org/Graphics/SVG/1.1/DTD/svg11.dtd">
<!-- Generated by graphviz version 2.40.1 (20161225.0304)
 -->
<!-- Title: twoDegreesRelationshipsDiagram Pages: 1 -->
<svg width="1057pt" height="402pt"
 viewBox="0.00 0.00 1057.00 401.70" xmlns="http://www.w3.org/2000/svg" xmlns:xlink="http://www.w3.org/1999/xlink">
<g id="graph0" class="graph" transform="scale(1 1) rotate(0) translate(4 397.7)">
<title>twoDegreesRelationshipsDiagram</title>
<polygon fill="#ffffff" stroke="transparent" points="-4,4 -4,-397.7 1053,-397.7 1053,4 -4,4"/>
<text text-anchor="middle" x="72.4936" y="-7.3" font-family="Helvetica,sans-Serif" font-size="11.00" fill="#000000">Generated by SchemaSpy</text>
<!-- chats -->
<g id="node1" class="node">
<title>chats</title>
<g id="a_node1"><a xlink:href="../../tables/chats.html" xlink:title="chats" target="_top">
<polygon fill="#ffffff" stroke="transparent" points="588.5,-218.7 588.5,-279.7 668.5,-279.7 668.5,-218.7 588.5,-218.7"/>
<polygon fill="#f5f5f5" stroke="transparent" points="588.5,-256.2 588.5,-279.2 668.5,-279.2 668.5,-256.2 588.5,-256.2"/>
<polygon fill="none" stroke="#000000" points="588.5,-256.2 588.5,-279.2 668.5,-279.2 668.5,-256.2 588.5,-256.2"/>
<text text-anchor="start" x="593.5" y="-264.8" font-family="Helvetica,sans-Serif" font-weight="bold" font-size="11.00" fill="#000000">chats</text>
<text text-anchor="start" x="633.5437" y="-264.3" font-family="Helvetica,sans-Serif" font-size="11.00" fill="#000000">[table]</text>
<polygon fill="none" stroke="#000000" points="588.5,-237.2 588.5,-256.2 668.5,-256.2 668.5,-237.2 588.5,-237.2"/>
<text text-anchor="start" x="591.5" y="-243.3" font-family="Helvetica,sans-Serif" font-size="11.00" fill="#000000">...</text>
<polygon fill="#ffffff" stroke="transparent" points="588.5,-218.2 588.5,-237.2 609.5,-237.2 609.5,-218.2 588.5,-218.2"/>
<polygon fill="none" stroke="#000000" points="588.5,-218.2 588.5,-237.2 609.5,-237.2 609.5,-218.2 588.5,-218.2"/>
<text text-anchor="start" x="591.2026" y="-224.3" font-family="Helvetica,sans-Serif" font-size="11.00" fill="#000000">&lt; 1</text>
<polygon fill="#ffffff" stroke="transparent" points="609.5,-218.2 609.5,-237.2 647.5,-237.2 647.5,-218.2 609.5,-218.2"/>
<polygon fill="none" stroke="#000000" points="609.5,-218.2 609.5,-237.2 647.5,-237.2 647.5,-218.2 609.5,-218.2"/>
<text text-anchor="start" x="612.3053" y="-224.3" font-family="Helvetica,sans-Serif" font-size="11.00" fill="#000000">0 rows</text>
<polygon fill="#ffffff" stroke="transparent" points="647.5,-218.2 647.5,-237.2 668.5,-237.2 668.5,-218.2 647.5,-218.2"/>
<polygon fill="none" stroke="#000000" points="647.5,-218.2 647.5,-237.2 668.5,-237.2 668.5,-218.2 647.5,-218.2"/>
<text text-anchor="start" x="650.2026" y="-224.3" font-family="Helvetica,sans-Serif" font-size="11.00" fill="#000000">1 &gt;</text>
</a>
</g>
</g>
<!-- patients -->
<g id="node2" class="node">
<title>patients</title>
<g id="a_node2"><a xlink:href="../../tables/patients.html" xlink:title="patients" target="_top">
<polygon fill="#ffffff" stroke="transparent" points="406,-131.7 406,-280.7 530,-280.7 530,-131.7 406,-131.7"/>
<polygon fill="#f5f5f5" stroke="transparent" points="406,-257.2 406,-280.2 530,-280.2 530,-257.2 406,-257.2"/>
<polygon fill="none" stroke="#000000" points="406,-257.2 406,-280.2 530,-280.2 530,-257.2 406,-257.2"/>
<text text-anchor="start" x="411" y="-265.8" font-family="Helvetica,sans-Serif" font-weight="bold" font-size="11.00" fill="#000000">patients</text>
<text text-anchor="start" x="495.0437" y="-265.3" font-family="Helvetica,sans-Serif" font-size="11.00" fill="#000000">[table]</text>
<polygon fill="none" stroke="#000000" points="406,-235.2 406,-257.2 530,-257.2 530,-235.2 406,-235.2"/>
<image xlink:href="../../images/primaryKeys.png" width="11px" height="12px" preserveAspectRatio="xMinYMin meet" x="411" y="-252.2"/>
<text text-anchor="start" x="426" y="-242.3" font-family="Helvetica,sans-Serif" font-size="11.00" fill="#000000">id_patient</text>
<polygon fill="#ffffff" stroke="transparent" points="406,-213.2 406,-235.2 530,-235.2 530,-213.2 406,-213.2"/>
<polygon fill="none" stroke="#000000" points="406,-213.2 406,-235.2 530,-235.2 530,-213.2 406,-213.2"/>
<text text-anchor="start" x="426" y="-220.3" font-family="Helvetica,sans-Serif" font-size="11.00" fill="#000000">service_id</text>
<polygon fill="none" stroke="#000000" points="406,-191.2 406,-213.2 530,-213.2 530,-191.2 406,-191.2"/>
<image xlink:href="../../images/foreignKeys.png" width="11px" height="12px" preserveAspectRatio="xMinYMin meet" x="411" y="-208.2"/>
<text text-anchor="start" x="426" y="-198.3" font-family="Helvetica,sans-Serif" font-size="11.00" fill="#000000">name</text>
<polygon fill="none" stroke="#000000" points="406,-169.2 406,-191.2 530,-191.2 530,-169.2 406,-169.2"/>
<image xlink:href="../../images/foreignKeys.png" width="11px" height="12px" preserveAspectRatio="xMinYMin meet" x="411" y="-186.2"/>
<text text-anchor="start" x="426" y="-176.3" font-family="Helvetica,sans-Serif" font-size="11.00" fill="#000000">id_cid</text>
<polygon fill="none" stroke="#000000" points="406,-150.2 406,-169.2 530,-169.2 530,-150.2 406,-150.2"/>
<text text-anchor="start" x="409" y="-156.3" font-family="Helvetica,sans-Serif" font-size="11.00" fill="#000000">...</text>
<polygon fill="#ffffff" stroke="transparent" points="406,-131.2 406,-150.2 449,-150.2 449,-131.2 406,-131.2"/>
<polygon fill="none" stroke="#000000" points="406,-131.2 406,-150.2 449,-150.2 449,-131.2 406,-131.2"/>
<text text-anchor="start" x="409" y="-137.3" font-family="Helvetica,sans-Serif" font-size="11.00" fill="#000000">&lt; 1</text>
<polygon fill="#ffffff" stroke="transparent" points="449,-131.2 449,-150.2 498,-150.2 498,-131.2 449,-131.2"/>
<polygon fill="none" stroke="#000000" points="449,-131.2 449,-150.2 498,-150.2 498,-131.2 449,-131.2"/>
<text text-anchor="start" x="462.6105" y="-137.3" font-family="Helvetica,sans-Serif" font-size="11.00" fill="#000000">0 rows</text>
<polygon fill="#ffffff" stroke="transparent" points="498,-131.2 498,-150.2 530,-150.2 530,-131.2 498,-131.2"/>
<polygon fill="none" stroke="#000000" points="498,-131.2 498,-150.2 530,-150.2 530,-131.2 498,-131.2"/>
<text text-anchor="start" x="511.4053" y="-137.3" font-family="Helvetica,sans-Serif" font-size="11.00" fill="#000000">5 &gt;</text>
</a>
</g>
</g>
<!-- chats&#45;&gt;patients -->
<g id="edge1" class="edge">
<title>chats:w&#45;&gt;patients:e</title>
<path fill="none" stroke="#000000" d="M573.8286,-246.2C558.7231,-246.2 550.3125,-246.2 530,-246.2"/>
<polygon fill="#000000" stroke="#000000" points="580.5,-246.2001 588.5,-249.8 584.5,-246.2 588.5,-246.2 588.5,-246.2 588.5,-246.2 584.5,-246.2 588.5,-242.6 580.5,-246.2001 580.5,-246.2001"/>
<ellipse fill="none" stroke="#000000" cx="577.3" cy="-246.2001" rx="3.2" ry="3.2"/>
</g>
<!-- cid -->
<g id="node3" class="node">
<title>cid</title>
<g id="a_node3"><a xlink:href="../../tables/cid.html" xlink:title="cid" target="_top">
<polygon fill="#ffffff" stroke="transparent" points="176,-38.2 176,-216.2 357,-216.2 357,-38.2 176,-38.2"/>
<polygon fill="#f5f5f5" stroke="transparent" points="178.5,-191.2 178.5,-214.2 355.5,-214.2 355.5,-191.2 178.5,-191.2"/>
<polygon fill="none" stroke="#000000" points="178.5,-191.2 178.5,-214.2 355.5,-214.2 355.5,-191.2 178.5,-191.2"/>
<text text-anchor="start" x="182.9721" y="-199.8" font-family="Helvetica,sans-Serif" font-weight="bold" font-size="11.00" fill="#000000">cid</text>
<text text-anchor="start" x="320.5437" y="-199.3" font-family="Helvetica,sans-Serif" font-size="11.00" fill="#000000">[table]</text>
<polygon fill="none" stroke="#000000" points="178.5,-169.2 178.5,-191.2 263.5,-191.2 263.5,-169.2 178.5,-169.2"/>
<image xlink:href="../../images/primaryKeys.png" width="11px" height="12px" preserveAspectRatio="xMinYMin meet" x="183.5" y="-186.2"/>
<text text-anchor="start" x="198.5" y="-176.3" font-family="Helvetica,sans-Serif" font-size="11.00" fill="#000000">id_cid</text>
<polygon fill="none" stroke="#000000" points="263.5,-169.2 263.5,-191.2 355.5,-191.2 355.5,-169.2 263.5,-169.2"/>
<text text-anchor="start" x="266.5" y="-176.9" font-family="Helvetica,sans-Serif" font-size="11.00" fill="#000000">serial[10]</text>
<polygon fill="#ffffff" stroke="transparent" points="178.5,-147.2 178.5,-169.2 263.5,-169.2 263.5,-147.2 178.5,-147.2"/>
<polygon fill="none" stroke="#000000" points="178.5,-147.2 178.5,-169.2 263.5,-169.2 263.5,-147.2 178.5,-147.2"/>
<text text-anchor="start" x="198.5" y="-154.3" font-family="Helvetica,sans-Serif" font-size="11.00" fill="#000000">cid_code</text>
<polygon fill="none" stroke="#000000" points="263.5,-147.2 263.5,-169.2 355.5,-169.2 355.5,-147.2 263.5,-147.2"/>
<text text-anchor="start" x="266.5" y="-154.9" font-family="Helvetica,sans-Serif" font-size="11.00" fill="#000000">varchar[10]</text>
<polygon fill="none" stroke="#000000" points="178.5,-125.2 178.5,-147.2 263.5,-147.2 263.5,-125.2 178.5,-125.2"/>
<text text-anchor="start" x="198.5" y="-132.3" font-family="Helvetica,sans-Serif" font-size="11.00" fill="#000000">description</text>
<polygon fill="none" stroke="#000000" points="263.5,-125.2 263.5,-147.2 355.5,-147.2 355.5,-125.2 263.5,-125.2"/>
<text text-anchor="start" x="266.5" y="-132.9" font-family="Helvetica,sans-Serif" font-size="11.00" fill="#000000">varchar[255]</text>
<polygon fill="none" stroke="#000000" points="178.5,-103.2 178.5,-125.2 263.5,-125.2 263.5,-103.2 178.5,-103.2"/>
<image xlink:href="../../images/foreignKeys.png" width="11px" height="12px" preserveAspectRatio="xMinYMin meet" x="183.5" y="-120.2"/>
<text text-anchor="start" x="198.5" y="-110.3" font-family="Helvetica,sans-Serif" font-size="11.00" fill="#000000">id_label</text>
<polygon fill="none" stroke="#000000" points="263.5,-103.2 263.5,-125.2 355.5,-125.2 355.5,-103.2 263.5,-103.2"/>
<text text-anchor="start" x="266.5" y="-110.9" font-family="Helvetica,sans-Serif" font-size="11.00" fill="#000000">int4[10]</text>
<polygon fill="none" stroke="#000000" points="178.5,-81.2 178.5,-103.2 263.5,-103.2 263.5,-81.2 178.5,-81.2"/>
<text text-anchor="start" x="198.5" y="-88.3" font-family="Helvetica,sans-Serif" font-size="11.00" fill="#000000">createdAt</text>
<polygon fill="none" stroke="#000000" points="263.5,-81.2 263.5,-103.2 355.5,-103.2 355.5,-81.2 263.5,-81.2"/>
<text text-anchor="start" x="266.1023" y="-88.9" font-family="Helvetica,sans-Serif" font-size="11.00" fill="#000000">timestamptz[35,6]</text>
<polygon fill="none" stroke="#000000" points="178.5,-59.2 178.5,-81.2 263.5,-81.2 263.5,-59.2 178.5,-59.2"/>
<text text-anchor="start" x="198.5" y="-66.3" font-family="Helvetica,sans-Serif" font-size="11.00" fill="#000000">updatedAt</text>
<polygon fill="none" stroke="#000000" points="263.5,-59.2 263.5,-81.2 355.5,-81.2 355.5,-59.2 263.5,-59.2"/>
<text text-anchor="start" x="266.1023" y="-66.9" font-family="Helvetica,sans-Serif" font-size="11.00" fill="#000000">timestamptz[35,6]</text>
<polygon fill="#ffffff" stroke="transparent" points="178.5,-40.2 178.5,-59.2 209.5,-59.2 209.5,-40.2 178.5,-40.2"/>
<polygon fill="none" stroke="#000000" points="178.5,-40.2 178.5,-59.2 209.5,-59.2 209.5,-40.2 178.5,-40.2"/>
<text text-anchor="start" x="181.5" y="-46.3" font-family="Helvetica,sans-Serif" font-size="11.00" fill="#000000">&lt; 1</text>
<polygon fill="#ffffff" stroke="transparent" points="209.5,-40.2 209.5,-59.2 263.5,-59.2 263.5,-40.2 209.5,-40.2"/>
<polygon fill="none" stroke="#000000" points="209.5,-40.2 209.5,-59.2 263.5,-59.2 263.5,-40.2 209.5,-40.2"/>
<text text-anchor="start" x="221.9956" y="-46.3" font-family="Helvetica,sans-Serif" font-size="11.00" fill="#000000">88 rows</text>
<polygon fill="#ffffff" stroke="transparent" points="263.5,-40.2 263.5,-59.2 355.5,-59.2 355.5,-40.2 263.5,-40.2"/>
<polygon fill="none" stroke="#000000" points="263.5,-40.2 263.5,-59.2 355.5,-59.2 355.5,-40.2 263.5,-40.2"/>
<text text-anchor="start" x="336.9053" y="-46.3" font-family="Helvetica,sans-Serif" font-size="11.00" fill="#000000">1 &gt;</text>
<polygon fill="none" stroke="#000000" stroke-width="2" points="177,-39.2 177,-215.2 356,-215.2 356,-39.2 177,-39.2"/>
</a>
</g>
</g>
<!-- patients&#45;&gt;cid -->
<g id="edge8" class="edge">
<title>patients:w&#45;&gt;cid:e</title>
<path fill="none" stroke="#000000" d="M391.4203,-180.2C379.5435,-180.2 372.158,-180.2 355.5,-180.2"/>
<polygon fill="#000000" stroke="#000000" points="398,-180.2001 406,-183.8 402,-180.2 406,-180.2 406,-180.2 406,-180.2 402,-180.2 406,-176.6 398,-180.2001 398,-180.2001"/>
<ellipse fill="none" stroke="#000000" cx="394.8" cy="-180.2001" rx="3.2" ry="3.2"/>
</g>
<!-- patient_labels -->
<g id="node4" class="node">
<title>patient_labels</title>
<g id="a_node4"><a xlink:href="../../tables/patient_labels.html" xlink:title="patient_labels" target="_top">
<polygon fill="#ffffff" stroke="transparent" points="8,-65.7 8,-148.7 127,-148.7 127,-65.7 8,-65.7"/>
<polygon fill="#f5f5f5" stroke="transparent" points="8.5,-125.2 8.5,-148.2 127.5,-148.2 127.5,-125.2 8.5,-125.2"/>
<polygon fill="none" stroke="#000000" points="8.5,-125.2 8.5,-148.2 127.5,-148.2 127.5,-125.2 8.5,-125.2"/>
<text text-anchor="start" x="13.5" y="-133.8" font-family="Helvetica,sans-Serif" font-weight="bold" font-size="11.00" fill="#000000">patient_labels</text>
<text text-anchor="start" x="93.0219" y="-133.3" font-family="Helvetica,sans-Serif" font-size="11.00" fill="#000000">[table]</text>
<polygon fill="none" stroke="#000000" points="8.5,-103.2 8.5,-125.2 127.5,-125.2 127.5,-103.2 8.5,-103.2"/>
<image xlink:href="../../images/primaryKeys.png" width="11px" height="12px" preserveAspectRatio="xMinYMin meet" x="13.5" y="-120.2"/>
<text text-anchor="start" x="32.5" y="-110.3" font-family="Helvetica,sans-Serif" font-size="11.00" fill="#000000">id_patient_label</text>
<polygon fill="none" stroke="#000000" points="8.5,-84.2 8.5,-103.2 127.5,-103.2 127.5,-84.2 8.5,-84.2"/>
<text text-anchor="start" x="11.5" y="-90.3" font-family="Helvetica,sans-Serif" font-size="11.00" fill="#000000">...</text>
<polygon fill="#ffffff" stroke="transparent" points="8.5,-65.2 8.5,-84.2 44.5,-84.2 44.5,-65.2 8.5,-65.2"/>
<polygon fill="none" stroke="#000000" points="8.5,-65.2 8.5,-84.2 44.5,-84.2 44.5,-65.2 8.5,-65.2"/>
<text text-anchor="start" x="11.5" y="-71.3" font-family="Helvetica,sans-Serif" font-size="11.00" fill="#000000"> &#160;</text>
<polygon fill="#ffffff" stroke="transparent" points="44.5,-65.2 44.5,-84.2 94.5,-84.2 94.5,-65.2 44.5,-65.2"/>
<polygon fill="none" stroke="#000000" points="44.5,-65.2 44.5,-84.2 94.5,-84.2 94.5,-65.2 44.5,-65.2"/>
<text text-anchor="start" x="59.1105" y="-71.3" font-family="Helvetica,sans-Serif" font-size="11.00" fill="#000000">0 rows</text>
<polygon fill="#ffffff" stroke="transparent" points="94.5,-65.2 94.5,-84.2 127.5,-84.2 127.5,-65.2 94.5,-65.2"/>
<polygon fill="none" stroke="#000000" points="94.5,-65.2 94.5,-84.2 127.5,-84.2 127.5,-65.2 94.5,-65.2"/>
<text text-anchor="start" x="108.9053" y="-71.3" font-family="Helvetica,sans-Serif" font-size="11.00" fill="#000000">1 &gt;</text>
</a>
</g>
</g>
<!-- cid&#45;&gt;patient_labels -->
<g id="edge2" class="edge">
<title>cid:w&#45;&gt;patient_labels:e</title>
<path fill="none" stroke="#000000" d="M163.776,-114.2C151.7815,-114.2 144.3229,-114.2 127.5,-114.2"/>
<polygon fill="#000000" stroke="#000000" points="170.5,-114.2001 178.5,-117.8 174.5,-114.2 178.5,-114.2 178.5,-114.2 178.5,-114.2 174.5,-114.2 178.5,-110.6 170.5,-114.2001 170.5,-114.2001"/>
<ellipse fill="none" stroke="#000000" cx="167.3" cy="-114.2001" rx="3.2" ry="3.2"/>
</g>
<!-- device -->
<g id="node5" class="node">
<title>device</title>
<g id="a_node5"><a xlink:href="../../tables/device.html" xlink:title="device" target="_top">
<polygon fill="#ffffff" stroke="transparent" points="590.5,-328.7 590.5,-389.7 666.5,-389.7 666.5,-328.7 590.5,-328.7"/>
<polygon fill="#f5f5f5" stroke="transparent" points="590.5,-366.2 590.5,-389.2 666.5,-389.2 666.5,-366.2 590.5,-366.2"/>
<polygon fill="none" stroke="#000000" points="590.5,-366.2 590.5,-389.2 666.5,-389.2 666.5,-366.2 590.5,-366.2"/>
<text text-anchor="start" x="595.5" y="-374.8" font-family="Helvetica,sans-Serif" font-weight="bold" font-size="11.00" fill="#000000">device</text>
<text text-anchor="start" x="632.0219" y="-374.3" font-family="Helvetica,sans-Serif" font-size="11.00" fill="#000000">[table]</text>
<polygon fill="none" stroke="#000000" points="590.5,-347.2 590.5,-366.2 666.5,-366.2 666.5,-347.2 590.5,-347.2"/>
<text text-anchor="start" x="593.5" y="-353.3" font-family="Helvetica,sans-Serif" font-size="11.00" fill="#000000">...</text>
<polygon fill="#ffffff" stroke="transparent" points="590.5,-328.2 590.5,-347.2 613.5,-347.2 613.5,-328.2 590.5,-328.2"/>
<polygon fill="none" stroke="#000000" points="590.5,-328.2 590.5,-347.2 613.5,-347.2 613.5,-328.2 590.5,-328.2"/>
<text text-anchor="start" x="593.5" y="-334.3" font-family="Helvetica,sans-Serif" font-size="11.00" fill="#000000">&lt; 1</text>
<polygon fill="#ffffff" stroke="transparent" points="613.5,-328.2 613.5,-347.2 652.5,-347.2 652.5,-328.2 613.5,-328.2"/>
<polygon fill="none" stroke="#000000" points="613.5,-328.2 613.5,-347.2 652.5,-347.2 652.5,-328.2 613.5,-328.2"/>
<text text-anchor="start" x="617.1105" y="-334.3" font-family="Helvetica,sans-Serif" font-size="11.00" fill="#000000">0 rows</text>
<polygon fill="#ffffff" stroke="transparent" points="652.5,-328.2 652.5,-347.2 666.5,-347.2 666.5,-328.2 652.5,-328.2"/>
<polygon fill="none" stroke="#000000" points="652.5,-328.2 652.5,-347.2 666.5,-347.2 666.5,-328.2 652.5,-328.2"/>
<text text-anchor="start" x="657.3862" y="-334.3" font-family="Helvetica,sans-Serif" font-size="11.00" fill="#000000"> &#160;</text>
</a>
</g>
</g>
<!-- device&#45;&gt;patients -->
<g id="edge3" class="edge">
<title>device:w&#45;&gt;patients:e</title>
<path fill="none" stroke="#000000" d="M576.1621,-352.7873C544.2926,-334.2205 579.9108,-246.2 530,-246.2"/>
<polygon fill="#000000" stroke="#000000" points="582.7174,-354.3476 589.6664,-359.7022 586.6087,-355.2738 590.5,-356.2 590.5,-356.2 590.5,-356.2 586.6087,-355.2738 591.3336,-352.6978 582.7174,-354.3476 582.7174,-354.3476"/>
<ellipse fill="none" stroke="#000000" cx="579.6044" cy="-353.6066" rx="3.2" ry="3.2"/>
</g>
<!-- message_notifications -->
<g id="node6" class="node">
<title>message_notifications</title>
<g id="a_node6"><a xlink:href="../../tables/message_notifications.html" xlink:title="message_notifications" target="_top">
<polygon fill="#ffffff" stroke="transparent" points="873,-247.7 873,-308.7 1041,-308.7 1041,-247.7 873,-247.7"/>
<polygon fill="#f5f5f5" stroke="transparent" points="873,-285.2 873,-308.2 1041,-308.2 1041,-285.2 873,-285.2"/>
<polygon fill="none" stroke="#000000" points="873,-285.2 873,-308.2 1041,-308.2 1041,-285.2 873,-285.2"/>
<text text-anchor="start" x="878" y="-293.8" font-family="Helvetica,sans-Serif" font-weight="bold" font-size="11.00" fill="#000000">message_notifications</text>
<text text-anchor="start" x="1006.5219" y="-293.3" font-family="Helvetica,sans-Serif" font-size="11.00" fill="#000000">[table]</text>
<polygon fill="none" stroke="#000000" points="873,-266.2 873,-285.2 1041,-285.2 1041,-266.2 873,-266.2"/>
<text text-anchor="start" x="876" y="-272.3" font-family="Helvetica,sans-Serif" font-size="11.00" fill="#000000">...</text>
<polygon fill="#ffffff" stroke="transparent" points="873,-247.2 873,-266.2 942,-266.2 942,-247.2 873,-247.2"/>
<polygon fill="none" stroke="#000000" points="873,-247.2 873,-266.2 942,-266.2 942,-247.2 873,-247.2"/>
<text text-anchor="start" x="876" y="-253.3" font-family="Helvetica,sans-Serif" font-size="11.00" fill="#000000">&lt; 2</text>
<polygon fill="#ffffff" stroke="transparent" points="942,-247.2 942,-266.2 1004,-266.2 1004,-247.2 942,-247.2"/>
<polygon fill="none" stroke="#000000" points="942,-247.2 942,-266.2 1004,-266.2 1004,-247.2 942,-247.2"/>
<text text-anchor="start" x="968.6105" y="-253.3" font-family="Helvetica,sans-Serif" font-size="11.00" fill="#000000">0 rows</text>
<polygon fill="#ffffff" stroke="transparent" points="1004,-247.2 1004,-266.2 1041,-266.2 1041,-247.2 1004,-247.2"/>
<polygon fill="none" stroke="#000000" points="1004,-247.2 1004,-266.2 1041,-266.2 1041,-247.2 1004,-247.2"/>
<text text-anchor="start" x="1031.8862" y="-253.3" font-family="Helvetica,sans-Serif" font-size="11.00" fill="#000000"> &#160;</text>
</a>
</g>
</g>
<!-- message_notifications&#45;&gt;patients -->
<g id="edge5" class="edge">
<title>message_notifications:w&#45;&gt;patients:e</title>
<path fill="none" stroke="#000000" d="M858.741,-277.9972C850.4173,-281.6556 845.1353,-287.8726 832,-290.2 717.7791,-310.4381 677.3703,-336.4747 571,-290.2 546.4894,-279.537 556.7296,-246.2 530,-246.2"/>
<polygon fill="#000000" stroke="#000000" points="865.1496,-276.74 873.693,-278.7327 869.0748,-275.97 873,-275.2 873,-275.2 873,-275.2 869.0748,-275.97 872.307,-271.6673 865.1496,-276.74 865.1496,-276.74"/>
<ellipse fill="none" stroke="#000000" cx="862.0095" cy="-277.3561" rx="3.2" ry="3.2"/>
</g>
<!-- messages -->
<g id="node7" class="node">
<title>messages</title>
<g id="a_node7"><a xlink:href="../../tables/messages.html" xlink:title="messages" target="_top">
<polygon fill="#ffffff" stroke="transparent" points="727,-218.7 727,-279.7 824,-279.7 824,-218.7 727,-218.7"/>
<polygon fill="#f5f5f5" stroke="transparent" points="727.5,-256.2 727.5,-279.2 824.5,-279.2 824.5,-256.2 727.5,-256.2"/>
<polygon fill="none" stroke="#000000" points="727.5,-256.2 727.5,-279.2 824.5,-279.2 824.5,-256.2 727.5,-256.2"/>
<text text-anchor="start" x="732.5" y="-264.8" font-family="Helvetica,sans-Serif" font-weight="bold" font-size="11.00" fill="#000000">messages</text>
<text text-anchor="start" x="790.0219" y="-264.3" font-family="Helvetica,sans-Serif" font-size="11.00" fill="#000000">[table]</text>
<polygon fill="none" stroke="#000000" points="727.5,-237.2 727.5,-256.2 824.5,-256.2 824.5,-237.2 727.5,-237.2"/>
<text text-anchor="start" x="730.5" y="-243.3" font-family="Helvetica,sans-Serif" font-size="11.00" fill="#000000">...</text>
<polygon fill="#ffffff" stroke="transparent" points="727.5,-218.2 727.5,-237.2 756.5,-237.2 756.5,-218.2 727.5,-218.2"/>
<polygon fill="none" stroke="#000000" points="727.5,-218.2 727.5,-237.2 756.5,-237.2 756.5,-218.2 727.5,-218.2"/>
<text text-anchor="start" x="730.5" y="-224.3" font-family="Helvetica,sans-Serif" font-size="11.00" fill="#000000">&lt; 3</text>
<polygon fill="#ffffff" stroke="transparent" points="756.5,-218.2 756.5,-237.2 798.5,-237.2 798.5,-218.2 756.5,-218.2"/>
<polygon fill="none" stroke="#000000" points="756.5,-218.2 756.5,-237.2 798.5,-237.2 798.5,-218.2 756.5,-218.2"/>
<text text-anchor="start" x="763.1105" y="-224.3" font-family="Helvetica,sans-Serif" font-size="11.00" fill="#000000">0 rows</text>
<polygon fill="#ffffff" stroke="transparent" points="798.5,-218.2 798.5,-237.2 824.5,-237.2 824.5,-218.2 798.5,-218.2"/>
<polygon fill="none" stroke="#000000" points="798.5,-218.2 798.5,-237.2 824.5,-237.2 824.5,-218.2 798.5,-218.2"/>
<text text-anchor="start" x="805.9053" y="-224.3" font-family="Helvetica,sans-Serif" font-size="11.00" fill="#000000">1 &gt;</text>
</a>
</g>
</g>
<!-- message_notifications&#45;&gt;messages -->
<g id="edge4" class="edge">
<title>message_notifications:w&#45;&gt;messages:e</title>
<path fill="none" stroke="#000000" d="M859.0737,-271.1677C847.2213,-263.1993 843.7287,-246.2 824.5,-246.2"/>
<polygon fill="#000000" stroke="#000000" points="865.3156,-272.975 871.9987,-278.658 869.1578,-274.0875 873,-275.2 873,-275.2 873,-275.2 869.1578,-274.0875 874.0013,-271.742 865.3156,-272.975 865.3156,-272.975"/>
<ellipse fill="none" stroke="#000000" cx="862.2419" cy="-272.085" rx="3.2" ry="3.2"/>
</g>
<!-- messages&#45;&gt;chats -->
<g id="edge6" class="edge">
<title>messages:w&#45;&gt;chats:e</title>
<path fill="none" stroke="#000000" d="M712.7032,-246.2C697.4686,-246.2 688.9861,-246.2 668.5,-246.2"/>
<polygon fill="#000000" stroke="#000000" points="719.5,-246.2001 727.5,-249.8 723.5,-246.2 727.5,-246.2 727.5,-246.2 727.5,-246.2 723.5,-246.2 727.5,-242.6 719.5,-246.2001 719.5,-246.2001"/>
<ellipse fill="none" stroke="#000000" cx="716.3" cy="-246.2001" rx="3.2" ry="3.2"/>
</g>
<!-- messages&#45;&gt;patients -->
<g id="edge7" class="edge">
<title>messages:w&#45;&gt;patients:e</title>
<path fill="none" stroke="#000000" d="M713.7431,-241.5365C704.0176,-232.9724 703.4824,-214.9949 686,-208.2 638.3607,-189.684 618.5832,-189.5403 571,-208.2 547.8697,-217.2705 554.8452,-246.2 530,-246.2"/>
<polygon fill="#000000" stroke="#000000" points="719.9235,-243.6316 726.3442,-249.6094 723.7117,-244.9158 727.5,-246.2 727.5,-246.2 727.5,-246.2 723.7117,-244.9158 728.6558,-242.7906 719.9235,-243.6316 719.9235,-243.6316"/>
<ellipse fill="none" stroke="#000000" cx="716.8929" cy="-242.6042" rx="3.2" ry="3.2"/>
</g>
<!-- responses -->
<g id="node8" class="node">
<title>responses</title>
<g id="a_node8"><a xlink:href="../../tables/responses.html" xlink:title="responses" target="_top">
<polygon fill="#ffffff" stroke="transparent" points="579,-108.7 579,-169.7 678,-169.7 678,-108.7 579,-108.7"/>
<polygon fill="#f5f5f5" stroke="transparent" points="579.5,-146.2 579.5,-169.2 678.5,-169.2 678.5,-146.2 579.5,-146.2"/>
<polygon fill="none" stroke="#000000" points="579.5,-146.2 579.5,-169.2 678.5,-169.2 678.5,-146.2 579.5,-146.2"/>
<text text-anchor="start" x="584.5" y="-154.8" font-family="Helvetica,sans-Serif" font-weight="bold" font-size="11.00" fill="#000000">responses</text>
<text text-anchor="start" x="644.0219" y="-154.3" font-family="Helvetica,sans-Serif" font-size="11.00" fill="#000000">[table]</text>
<polygon fill="none" stroke="#000000" points="579.5,-127.2 579.5,-146.2 678.5,-146.2 678.5,-127.2 579.5,-127.2"/>
<text text-anchor="start" x="582.5" y="-133.3" font-family="Helvetica,sans-Serif" font-size="11.00" fill="#000000">...</text>
<polygon fill="#ffffff" stroke="transparent" points="579.5,-108.2 579.5,-127.2 609.5,-127.2 609.5,-108.2 579.5,-108.2"/>
<polygon fill="none" stroke="#000000" points="579.5,-108.2 579.5,-127.2 609.5,-127.2 609.5,-108.2 579.5,-108.2"/>
<text text-anchor="start" x="582.5" y="-114.3" font-family="Helvetica,sans-Serif" font-size="11.00" fill="#000000">&lt; 3</text>
<polygon fill="#ffffff" stroke="transparent" points="609.5,-108.2 609.5,-127.2 652.5,-127.2 652.5,-108.2 609.5,-108.2"/>
<polygon fill="none" stroke="#000000" points="609.5,-108.2 609.5,-127.2 652.5,-127.2 652.5,-108.2 609.5,-108.2"/>
<text text-anchor="start" x="617.1105" y="-114.3" font-family="Helvetica,sans-Serif" font-size="11.00" fill="#000000">0 rows</text>
<polygon fill="#ffffff" stroke="transparent" points="652.5,-108.2 652.5,-127.2 678.5,-127.2 678.5,-108.2 652.5,-108.2"/>
<polygon fill="none" stroke="#000000" points="652.5,-108.2 652.5,-127.2 678.5,-127.2 678.5,-108.2 652.5,-108.2"/>
<text text-anchor="start" x="659.9053" y="-114.3" font-family="Helvetica,sans-Serif" font-size="11.00" fill="#000000">1 &gt;</text>
</a>
</g>
</g>
<!-- responses&#45;&gt;patients -->
<g id="edge9" class="edge">
<title>responses:w&#45;&gt;patients:e</title>
<path fill="none" stroke="#000000" d="M565.2431,-140.115C537.538,-159.7103 577.5377,-246.2 530,-246.2"/>
<polygon fill="#000000" stroke="#000000" points="571.7856,-138.3184 580.4533,-139.6715 575.6428,-137.2592 579.5,-136.2 579.5,-136.2 579.5,-136.2 575.6428,-137.2592 578.5467,-132.7285 571.7856,-138.3184 571.7856,-138.3184"/>
<ellipse fill="none" stroke="#000000" cx="568.6998" cy="-139.1658" rx="3.2" ry="3.2"/>
</g>
</g>
</svg>
