<?xml version="1.0" encoding="UTF-8" standalone="no"?>
<!DOCTYPE svg PUBLIC "-//W3C//DTD SVG 1.1//EN"
 "http://www.w3.org/Graphics/SVG/1.1/DTD/svg11.dtd">
<!-- Generated by graphviz version 2.40.1 (20161225.0304)
 -->
<!-- Title: oneDegreeRelationshipsDiagram Pages: 1 -->
<svg width="546pt" height="293pt"
 viewBox="0.00 0.00 546.00 292.70" xmlns="http://www.w3.org/2000/svg" xmlns:xlink="http://www.w3.org/1999/xlink">
<g id="graph0" class="graph" transform="scale(1 1) rotate(0) translate(4 288.7)">
<title>oneDegreeRelationshipsDiagram</title>
<polygon fill="#ffffff" stroke="transparent" points="-4,4 -4,-288.7 542,-288.7 542,4 -4,4"/>
<text text-anchor="middle" x="72.4936" y="-7.3" font-family="Helvetica,sans-Serif" font-size="11.00" fill="#000000">Generated by SchemaSpy</text>
<!-- cid -->
<g id="node1" class="node">
<title>cid</title>
<g id="a_node1"><a xlink:href="../../tables/cid.html" xlink:title="cid" target="_top">
<polygon fill="#ffffff" stroke="transparent" points="176,-38.2 176,-216.2 357,-216.2 357,-38.2 176,-38.2"/>
<polygon fill="#f5f5f5" stroke="transparent" points="178.5,-191.2 178.5,-214.2 355.5,-214.2 355.5,-191.2 178.5,-191.2"/>
<polygon fill="none" stroke="#000000" points="178.5,-191.2 178.5,-214.2 355.5,-214.2 355.5,-191.2 178.5,-191.2"/>
<text text-anchor="start" x="182.9721" y="-199.8" font-family="Helvetica,sans-Serif" font-weight="bold" font-size="11.00" fill="#000000">cid</text>
<text text-anchor="start" x="320.5437" y="-199.3" font-family="Helvetica,sans-Serif" font-size="11.00" fill="#000000">[table]</text>
<polygon fill="none" stroke="#000000" points="178.5,-169.2 178.5,-191.2 263.5,-191.2 263.5,-169.2 178.5,-169.2"/>
<image xlink:href="../../images/primaryKeys.png" width="11px" height="12px" preserveAspectRatio="xMinYMin meet" x="183.5" y="-186.2"/>
<text text-anchor="start" x="198.5" y="-176.3" font-family="Helvetica,sans-Serif" font-size="11.00" fill="#000000">id_cid</text>
<polygon fill="none" stroke="#000000" points="263.5,-169.2 263.5,-191.2 355.5,-191.2 355.5,-169.2 263.5,-169.2"/>
<text text-anchor="start" x="266.5" y="-176.9" font-family="Helvetica,sans-Serif" font-size="11.00" fill="#000000">serial[10]</text>
<polygon fill="#ffffff" stroke="transparent" points="178.5,-147.2 178.5,-169.2 263.5,-169.2 263.5,-147.2 178.5,-147.2"/>
<polygon fill="none" stroke="#000000" points="178.5,-147.2 178.5,-169.2 263.5,-169.2 263.5,-147.2 178.5,-147.2"/>
<text text-anchor="start" x="198.5" y="-154.3" font-family="Helvetica,sans-Serif" font-size="11.00" fill="#000000">cid_code</text>
<polygon fill="none" stroke="#000000" points="263.5,-147.2 263.5,-169.2 355.5,-169.2 355.5,-147.2 263.5,-147.2"/>
<text text-anchor="start" x="266.5" y="-154.9" font-family="Helvetica,sans-Serif" font-size="11.00" fill="#000000">varchar[10]</text>
<polygon fill="none" stroke="#000000" points="178.5,-125.2 178.5,-147.2 263.5,-147.2 263.5,-125.2 178.5,-125.2"/>
<text text-anchor="start" x="198.5" y="-132.3" font-family="Helvetica,sans-Serif" font-size="11.00" fill="#000000">description</text>
<polygon fill="none" stroke="#000000" points="263.5,-125.2 263.5,-147.2 355.5,-147.2 355.5,-125.2 263.5,-125.2"/>
<text text-anchor="start" x="266.5" y="-132.9" font-family="Helvetica,sans-Serif" font-size="11.00" fill="#000000">varchar[255]</text>
<polygon fill="none" stroke="#000000" points="178.5,-103.2 178.5,-125.2 263.5,-125.2 263.5,-103.2 178.5,-103.2"/>
<image xlink:href="../../images/foreignKeys.png" width="11px" height="12px" preserveAspectRatio="xMinYMin meet" x="183.5" y="-120.2"/>
<text text-anchor="start" x="198.5" y="-110.3" font-family="Helvetica,sans-Serif" font-size="11.00" fill="#000000">id_label</text>
<polygon fill="none" stroke="#000000" points="263.5,-103.2 263.5,-125.2 355.5,-125.2 355.5,-103.2 263.5,-103.2"/>
<text text-anchor="start" x="266.5" y="-110.9" font-family="Helvetica,sans-Serif" font-size="11.00" fill="#000000">int4[10]</text>
<polygon fill="none" stroke="#000000" points="178.5,-81.2 178.5,-103.2 263.5,-103.2 263.5,-81.2 178.5,-81.2"/>
<text text-anchor="start" x="198.5" y="-88.3" font-family="Helvetica,sans-Serif" font-size="11.00" fill="#000000">createdAt</text>
<polygon fill="none" stroke="#000000" points="263.5,-81.2 263.5,-103.2 355.5,-103.2 355.5,-81.2 263.5,-81.2"/>
<text text-anchor="start" x="266.1023" y="-88.9" font-family="Helvetica,sans-Serif" font-size="11.00" fill="#000000">timestamptz[35,6]</text>
<polygon fill="none" stroke="#000000" points="178.5,-59.2 178.5,-81.2 263.5,-81.2 263.5,-59.2 178.5,-59.2"/>
<text text-anchor="start" x="198.5" y="-66.3" font-family="Helvetica,sans-Serif" font-size="11.00" fill="#000000">updatedAt</text>
<polygon fill="none" stroke="#000000" points="263.5,-59.2 263.5,-81.2 355.5,-81.2 355.5,-59.2 263.5,-59.2"/>
<text text-anchor="start" x="266.1023" y="-66.9" font-family="Helvetica,sans-Serif" font-size="11.00" fill="#000000">timestamptz[35,6]</text>
<polygon fill="#ffffff" stroke="transparent" points="178.5,-40.2 178.5,-59.2 209.5,-59.2 209.5,-40.2 178.5,-40.2"/>
<polygon fill="none" stroke="#000000" points="178.5,-40.2 178.5,-59.2 209.5,-59.2 209.5,-40.2 178.5,-40.2"/>
<text text-anchor="start" x="181.5" y="-46.3" font-family="Helvetica,sans-Serif" font-size="11.00" fill="#000000">&lt; 1</text>
<polygon fill="#ffffff" stroke="transparent" points="209.5,-40.2 209.5,-59.2 263.5,-59.2 263.5,-40.2 209.5,-40.2"/>
<polygon fill="none" stroke="#000000" points="209.5,-40.2 209.5,-59.2 263.5,-59.2 263.5,-40.2 209.5,-40.2"/>
<text text-anchor="start" x="221.9956" y="-46.3" font-family="Helvetica,sans-Serif" font-size="11.00" fill="#000000">88 rows</text>
<polygon fill="#ffffff" stroke="transparent" points="263.5,-40.2 263.5,-59.2 355.5,-59.2 355.5,-40.2 263.5,-40.2"/>
<polygon fill="none" stroke="#000000" points="263.5,-40.2 263.5,-59.2 355.5,-59.2 355.5,-40.2 263.5,-40.2"/>
<text text-anchor="start" x="336.9053" y="-46.3" font-family="Helvetica,sans-Serif" font-size="11.00" fill="#000000">1 &gt;</text>
<polygon fill="none" stroke="#000000" stroke-width="2" points="177,-39.2 177,-215.2 356,-215.2 356,-39.2 177,-39.2"/>
</a>
</g>
</g>
<!-- patient_labels -->
<g id="node2" class="node">
<title>patient_labels</title>
<g id="a_node2"><a xlink:href="../../tables/patient_labels.html" xlink:title="patient_labels" target="_top">
<polygon fill="#ffffff" stroke="transparent" points="8,-65.7 8,-148.7 127,-148.7 127,-65.7 8,-65.7"/>
<polygon fill="#f5f5f5" stroke="transparent" points="8.5,-125.2 8.5,-148.2 127.5,-148.2 127.5,-125.2 8.5,-125.2"/>
<polygon fill="none" stroke="#000000" points="8.5,-125.2 8.5,-148.2 127.5,-148.2 127.5,-125.2 8.5,-125.2"/>
<text text-anchor="start" x="13.5" y="-133.8" font-family="Helvetica,sans-Serif" font-weight="bold" font-size="11.00" fill="#000000">patient_labels</text>
<text text-anchor="start" x="93.0219" y="-133.3" font-family="Helvetica,sans-Serif" font-size="11.00" fill="#000000">[table]</text>
<polygon fill="none" stroke="#000000" points="8.5,-103.2 8.5,-125.2 127.5,-125.2 127.5,-103.2 8.5,-103.2"/>
<image xlink:href="../../images/primaryKeys.png" width="11px" height="12px" preserveAspectRatio="xMinYMin meet" x="13.5" y="-120.2"/>
<text text-anchor="start" x="32.5" y="-110.3" font-family="Helvetica,sans-Serif" font-size="11.00" fill="#000000">id_patient_label</text>
<polygon fill="none" stroke="#000000" points="8.5,-84.2 8.5,-103.2 127.5,-103.2 127.5,-84.2 8.5,-84.2"/>
<text text-anchor="start" x="11.5" y="-90.3" font-family="Helvetica,sans-Serif" font-size="11.00" fill="#000000">...</text>
<polygon fill="#ffffff" stroke="transparent" points="8.5,-65.2 8.5,-84.2 44.5,-84.2 44.5,-65.2 8.5,-65.2"/>
<polygon fill="none" stroke="#000000" points="8.5,-65.2 8.5,-84.2 44.5,-84.2 44.5,-65.2 8.5,-65.2"/>
<text text-anchor="start" x="11.5" y="-71.3" font-family="Helvetica,sans-Serif" font-size="11.00" fill="#000000"> &#160;</text>
<polygon fill="#ffffff" stroke="transparent" points="44.5,-65.2 44.5,-84.2 94.5,-84.2 94.5,-65.2 44.5,-65.2"/>
<polygon fill="none" stroke="#000000" points="44.5,-65.2 44.5,-84.2 94.5,-84.2 94.5,-65.2 44.5,-65.2"/>
<text text-anchor="start" x="59.1105" y="-71.3" font-family="Helvetica,sans-Serif" font-size="11.00" fill="#000000">0 rows</text>
<polygon fill="#ffffff" stroke="transparent" points="94.5,-65.2 94.5,-84.2 127.5,-84.2 127.5,-65.2 94.5,-65.2"/>
<polygon fill="none" stroke="#000000" points="94.5,-65.2 94.5,-84.2 127.5,-84.2 127.5,-65.2 94.5,-65.2"/>
<text text-anchor="start" x="108.9053" y="-71.3" font-family="Helvetica,sans-Serif" font-size="11.00" fill="#000000">1 &gt;</text>
</a>
</g>
</g>
<!-- cid&#45;&gt;patient_labels -->
<g id="edge1" class="edge">
<title>cid:w&#45;&gt;patient_labels:e</title>
<path fill="none" stroke="#000000" d="M163.776,-114.2C151.7815,-114.2 144.3229,-114.2 127.5,-114.2"/>
<polygon fill="#000000" stroke="#000000" points="170.5,-114.2001 178.5,-117.8 174.5,-114.2 178.5,-114.2 178.5,-114.2 178.5,-114.2 174.5,-114.2 178.5,-110.6 170.5,-114.2001 170.5,-114.2001"/>
<ellipse fill="none" stroke="#000000" cx="167.3" cy="-114.2001" rx="3.2" ry="3.2"/>
</g>
<!-- patients -->
<g id="node3" class="node">
<title>patients</title>
<g id="a_node3"><a xlink:href="../../tables/patients.html" xlink:title="patients" target="_top">
<polygon fill="#ffffff" stroke="transparent" points="406,-131.7 406,-280.7 530,-280.7 530,-131.7 406,-131.7"/>
<polygon fill="#f5f5f5" stroke="transparent" points="406,-257.2 406,-280.2 530,-280.2 530,-257.2 406,-257.2"/>
<polygon fill="none" stroke="#000000" points="406,-257.2 406,-280.2 530,-280.2 530,-257.2 406,-257.2"/>
<text text-anchor="start" x="411" y="-265.8" font-family="Helvetica,sans-Serif" font-weight="bold" font-size="11.00" fill="#000000">patients</text>
<text text-anchor="start" x="495.0437" y="-265.3" font-family="Helvetica,sans-Serif" font-size="11.00" fill="#000000">[table]</text>
<polygon fill="none" stroke="#000000" points="406,-235.2 406,-257.2 530,-257.2 530,-235.2 406,-235.2"/>
<image xlink:href="../../images/primaryKeys.png" width="11px" height="12px" preserveAspectRatio="xMinYMin meet" x="411" y="-252.2"/>
<text text-anchor="start" x="426" y="-242.3" font-family="Helvetica,sans-Serif" font-size="11.00" fill="#000000">id_patient</text>
<polygon fill="#ffffff" stroke="transparent" points="406,-213.2 406,-235.2 530,-235.2 530,-213.2 406,-213.2"/>
<polygon fill="none" stroke="#000000" points="406,-213.2 406,-235.2 530,-235.2 530,-213.2 406,-213.2"/>
<text text-anchor="start" x="426" y="-220.3" font-family="Helvetica,sans-Serif" font-size="11.00" fill="#000000">service_id</text>
<polygon fill="none" stroke="#000000" points="406,-191.2 406,-213.2 530,-213.2 530,-191.2 406,-191.2"/>
<image xlink:href="../../images/foreignKeys.png" width="11px" height="12px" preserveAspectRatio="xMinYMin meet" x="411" y="-208.2"/>
<text text-anchor="start" x="426" y="-198.3" font-family="Helvetica,sans-Serif" font-size="11.00" fill="#000000">name</text>
<polygon fill="none" stroke="#000000" points="406,-169.2 406,-191.2 530,-191.2 530,-169.2 406,-169.2"/>
<image xlink:href="../../images/foreignKeys.png" width="11px" height="12px" preserveAspectRatio="xMinYMin meet" x="411" y="-186.2"/>
<text text-anchor="start" x="426" y="-176.3" font-family="Helvetica,sans-Serif" font-size="11.00" fill="#000000">id_cid</text>
<polygon fill="none" stroke="#000000" points="406,-150.2 406,-169.2 530,-169.2 530,-150.2 406,-150.2"/>
<text text-anchor="start" x="409" y="-156.3" font-family="Helvetica,sans-Serif" font-size="11.00" fill="#000000">...</text>
<polygon fill="#ffffff" stroke="transparent" points="406,-131.2 406,-150.2 449,-150.2 449,-131.2 406,-131.2"/>
<polygon fill="none" stroke="#000000" points="406,-131.2 406,-150.2 449,-150.2 449,-131.2 406,-131.2"/>
<text text-anchor="start" x="409" y="-137.3" font-family="Helvetica,sans-Serif" font-size="11.00" fill="#000000">&lt; 1</text>
<polygon fill="#ffffff" stroke="transparent" points="449,-131.2 449,-150.2 498,-150.2 498,-131.2 449,-131.2"/>
<polygon fill="none" stroke="#000000" points="449,-131.2 449,-150.2 498,-150.2 498,-131.2 449,-131.2"/>
<text text-anchor="start" x="462.6105" y="-137.3" font-family="Helvetica,sans-Serif" font-size="11.00" fill="#000000">0 rows</text>
<polygon fill="#ffffff" stroke="transparent" points="498,-131.2 498,-150.2 530,-150.2 530,-131.2 498,-131.2"/>
<polygon fill="none" stroke="#000000" points="498,-131.2 498,-150.2 530,-150.2 530,-131.2 498,-131.2"/>
<text text-anchor="start" x="511.4053" y="-137.3" font-family="Helvetica,sans-Serif" font-size="11.00" fill="#000000">5 &gt;</text>
</a>
</g>
</g>
<!-- patients&#45;&gt;cid -->
<g id="edge2" class="edge">
<title>patients:w&#45;&gt;cid:e</title>
<path fill="none" stroke="#000000" d="M391.4203,-180.2C379.5435,-180.2 372.158,-180.2 355.5,-180.2"/>
<polygon fill="#000000" stroke="#000000" points="398,-180.2001 406,-183.8 402,-180.2 406,-180.2 406,-180.2 406,-180.2 402,-180.2 406,-176.6 398,-180.2001 398,-180.2001"/>
<ellipse fill="none" stroke="#000000" cx="394.8" cy="-180.2001" rx="3.2" ry="3.2"/>
</g>
</g>
</svg>
