<?xml version="1.0" encoding="UTF-8" standalone="no"?>
<!DOCTYPE svg PUBLIC "-//W3C//DTD SVG 1.1//EN"
 "http://www.w3.org/Graphics/SVG/1.1/DTD/svg11.dtd">
<!-- Generated by graphviz version 2.40.1 (20161225.0304)
 -->
<!-- Title: oneDegreeRelationshipsDiagram Pages: 1 -->
<svg width="891pt" height="367pt"
 viewBox="0.00 0.00 891.00 367.26" xmlns="http://www.w3.org/2000/svg" xmlns:xlink="http://www.w3.org/1999/xlink">
<g id="graph0" class="graph" transform="scale(1 1) rotate(0) translate(4 363.2638)">
<title>oneDegreeRelationshipsDiagram</title>
<polygon fill="#ffffff" stroke="transparent" points="-4,4 -4,-363.2638 887,-363.2638 887,4 -4,4"/>
<text text-anchor="middle" x="72.4936" y="-7.3" font-family="Helvetica,sans-Serif" font-size="11.00" fill="#000000">Generated by SchemaSpy</text>
<!-- chats -->
<g id="node1" class="node">
<title>chats</title>
<g id="a_node1"><a xlink:href="../../tables/chats.html" xlink:title="chats" target="_top">
<polygon fill="#ffffff" stroke="transparent" points="181,-250.2638 181,-355.2638 261,-355.2638 261,-250.2638 181,-250.2638"/>
<polygon fill="#f5f5f5" stroke="transparent" points="181,-331.7638 181,-354.7638 261,-354.7638 261,-331.7638 181,-331.7638"/>
<polygon fill="none" stroke="#000000" points="181,-331.7638 181,-354.7638 261,-354.7638 261,-331.7638 181,-331.7638"/>
<text text-anchor="start" x="186" y="-340.3638" font-family="Helvetica,sans-Serif" font-weight="bold" font-size="11.00" fill="#000000">chats</text>
<text text-anchor="start" x="226.0437" y="-339.8638" font-family="Helvetica,sans-Serif" font-size="11.00" fill="#000000">[table]</text>
<polygon fill="none" stroke="#000000" points="181,-309.7638 181,-331.7638 261,-331.7638 261,-309.7638 181,-309.7638"/>
<image xlink:href="../../images/primaryKeys.png" width="11px" height="12px" preserveAspectRatio="xMinYMin meet" x="186" y="-326.764"/>
<text text-anchor="start" x="201" y="-316.8638" font-family="Helvetica,sans-Serif" font-size="11.00" fill="#000000">id_chat</text>
<polygon fill="none" stroke="#000000" points="181,-287.7638 181,-309.7638 261,-309.7638 261,-287.7638 181,-287.7638"/>
<image xlink:href="../../images/foreignKeys.png" width="11px" height="12px" preserveAspectRatio="xMinYMin meet" x="186" y="-304.764"/>
<text text-anchor="start" x="201" y="-294.8638" font-family="Helvetica,sans-Serif" font-size="11.00" fill="#000000">patient_id</text>
<polygon fill="none" stroke="#000000" points="181,-268.7638 181,-287.7638 261,-287.7638 261,-268.7638 181,-268.7638"/>
<text text-anchor="start" x="184" y="-274.8638" font-family="Helvetica,sans-Serif" font-size="11.00" fill="#000000">...</text>
<polygon fill="#ffffff" stroke="transparent" points="181,-249.7638 181,-268.7638 202,-268.7638 202,-249.7638 181,-249.7638"/>
<polygon fill="none" stroke="#000000" points="181,-249.7638 181,-268.7638 202,-268.7638 202,-249.7638 181,-249.7638"/>
<text text-anchor="start" x="183.7027" y="-255.8638" font-family="Helvetica,sans-Serif" font-size="11.00" fill="#000000">&lt; 1</text>
<polygon fill="#ffffff" stroke="transparent" points="202,-249.7638 202,-268.7638 240,-268.7638 240,-249.7638 202,-249.7638"/>
<polygon fill="none" stroke="#000000" points="202,-249.7638 202,-268.7638 240,-268.7638 240,-249.7638 202,-249.7638"/>
<text text-anchor="start" x="204.8053" y="-255.8638" font-family="Helvetica,sans-Serif" font-size="11.00" fill="#000000">0 rows</text>
<polygon fill="#ffffff" stroke="transparent" points="240,-249.7638 240,-268.7638 261,-268.7638 261,-249.7638 240,-249.7638"/>
<polygon fill="none" stroke="#000000" points="240,-249.7638 240,-268.7638 261,-268.7638 261,-249.7638 240,-249.7638"/>
<text text-anchor="start" x="242.7027" y="-255.8638" font-family="Helvetica,sans-Serif" font-size="11.00" fill="#000000">1 &gt;</text>
</a>
</g>
</g>
<!-- patients -->
<g id="node2" class="node">
<title>patients</title>
<g id="a_node2"><a xlink:href="../../tables/patients.html" xlink:title="patients" target="_top">
<polygon fill="#ffffff" stroke="transparent" points="8,-111.2638 8,-260.2638 132,-260.2638 132,-111.2638 8,-111.2638"/>
<polygon fill="#f5f5f5" stroke="transparent" points="8,-236.7638 8,-259.7638 132,-259.7638 132,-236.7638 8,-236.7638"/>
<polygon fill="none" stroke="#000000" points="8,-236.7638 8,-259.7638 132,-259.7638 132,-236.7638 8,-236.7638"/>
<text text-anchor="start" x="13" y="-245.3638" font-family="Helvetica,sans-Serif" font-weight="bold" font-size="11.00" fill="#000000">patients</text>
<text text-anchor="start" x="97.0437" y="-244.8638" font-family="Helvetica,sans-Serif" font-size="11.00" fill="#000000">[table]</text>
<polygon fill="none" stroke="#000000" points="8,-214.7638 8,-236.7638 132,-236.7638 132,-214.7638 8,-214.7638"/>
<image xlink:href="../../images/primaryKeys.png" width="11px" height="12px" preserveAspectRatio="xMinYMin meet" x="13" y="-231.764"/>
<text text-anchor="start" x="28" y="-221.8638" font-family="Helvetica,sans-Serif" font-size="11.00" fill="#000000">id_patient</text>
<polygon fill="#ffffff" stroke="transparent" points="8,-192.7638 8,-214.7638 132,-214.7638 132,-192.7638 8,-192.7638"/>
<polygon fill="none" stroke="#000000" points="8,-192.7638 8,-214.7638 132,-214.7638 132,-192.7638 8,-192.7638"/>
<text text-anchor="start" x="28" y="-199.8638" font-family="Helvetica,sans-Serif" font-size="11.00" fill="#000000">service_id</text>
<polygon fill="none" stroke="#000000" points="8,-170.7638 8,-192.7638 132,-192.7638 132,-170.7638 8,-170.7638"/>
<image xlink:href="../../images/foreignKeys.png" width="11px" height="12px" preserveAspectRatio="xMinYMin meet" x="13" y="-187.764"/>
<text text-anchor="start" x="28" y="-177.8638" font-family="Helvetica,sans-Serif" font-size="11.00" fill="#000000">name</text>
<polygon fill="none" stroke="#000000" points="8,-148.7638 8,-170.7638 132,-170.7638 132,-148.7638 8,-148.7638"/>
<image xlink:href="../../images/foreignKeys.png" width="11px" height="12px" preserveAspectRatio="xMinYMin meet" x="13" y="-165.764"/>
<text text-anchor="start" x="28" y="-155.8638" font-family="Helvetica,sans-Serif" font-size="11.00" fill="#000000">id_cid</text>
<polygon fill="none" stroke="#000000" points="8,-129.7638 8,-148.7638 132,-148.7638 132,-129.7638 8,-129.7638"/>
<text text-anchor="start" x="11" y="-135.8638" font-family="Helvetica,sans-Serif" font-size="11.00" fill="#000000">...</text>
<polygon fill="#ffffff" stroke="transparent" points="8,-110.7638 8,-129.7638 51,-129.7638 51,-110.7638 8,-110.7638"/>
<polygon fill="none" stroke="#000000" points="8,-110.7638 8,-129.7638 51,-129.7638 51,-110.7638 8,-110.7638"/>
<text text-anchor="start" x="11" y="-116.8638" font-family="Helvetica,sans-Serif" font-size="11.00" fill="#000000">&lt; 1</text>
<polygon fill="#ffffff" stroke="transparent" points="51,-110.7638 51,-129.7638 100,-129.7638 100,-110.7638 51,-110.7638"/>
<polygon fill="none" stroke="#000000" points="51,-110.7638 51,-129.7638 100,-129.7638 100,-110.7638 51,-110.7638"/>
<text text-anchor="start" x="64.6105" y="-116.8638" font-family="Helvetica,sans-Serif" font-size="11.00" fill="#000000">0 rows</text>
<polygon fill="#ffffff" stroke="transparent" points="100,-110.7638 100,-129.7638 132,-129.7638 132,-110.7638 100,-110.7638"/>
<polygon fill="none" stroke="#000000" points="100,-110.7638 100,-129.7638 132,-129.7638 132,-110.7638 100,-110.7638"/>
<text text-anchor="start" x="113.4053" y="-116.8638" font-family="Helvetica,sans-Serif" font-size="11.00" fill="#000000">5 &gt;</text>
</a>
</g>
</g>
<!-- chats&#45;&gt;patients -->
<g id="edge1" class="edge">
<title>chats:w&#45;&gt;patients:e</title>
<path fill="none" stroke="#000000" d="M167.1598,-293.9741C149.3684,-277.7335 164.9702,-225.7638 132,-225.7638"/>
<polygon fill="#000000" stroke="#000000" points="173.4399,-296.1474 179.8226,-302.1658 177.22,-297.4556 181,-298.7638 181,-298.7638 181,-298.7638 177.22,-297.4556 182.1774,-295.3618 173.4399,-296.1474 173.4399,-296.1474"/>
<ellipse fill="none" stroke="#000000" cx="170.4159" cy="-295.1009" rx="3.2" ry="3.2"/>
</g>
<!-- message_notifications -->
<g id="node3" class="node">
<title>message_notifications</title>
<g id="a_node3"><a xlink:href="../../tables/message_notifications.html" xlink:title="message_notifications" target="_top">
<polygon fill="#ffffff" stroke="transparent" points="707,-122.2638 707,-249.2638 875,-249.2638 875,-122.2638 707,-122.2638"/>
<polygon fill="#f5f5f5" stroke="transparent" points="707,-225.7638 707,-248.7638 875,-248.7638 875,-225.7638 707,-225.7638"/>
<polygon fill="none" stroke="#000000" points="707,-225.7638 707,-248.7638 875,-248.7638 875,-225.7638 707,-225.7638"/>
<text text-anchor="start" x="712" y="-234.3638" font-family="Helvetica,sans-Serif" font-weight="bold" font-size="11.00" fill="#000000">message_notifications</text>
<text text-anchor="start" x="840.5219" y="-233.8638" font-family="Helvetica,sans-Serif" font-size="11.00" fill="#000000">[table]</text>
<polygon fill="none" stroke="#000000" points="707,-203.7638 707,-225.7638 875,-225.7638 875,-203.7638 707,-203.7638"/>
<image xlink:href="../../images/primaryKeys.png" width="11px" height="12px" preserveAspectRatio="xMinYMin meet" x="712" y="-220.764"/>
<text text-anchor="start" x="736" y="-210.8638" font-family="Helvetica,sans-Serif" font-size="11.00" fill="#000000">id_notification</text>
<polygon fill="none" stroke="#000000" points="707,-181.7638 707,-203.7638 875,-203.7638 875,-181.7638 707,-181.7638"/>
<image xlink:href="../../images/foreignKeys.png" width="11px" height="12px" preserveAspectRatio="xMinYMin meet" x="712" y="-198.764"/>
<text text-anchor="start" x="736" y="-188.8638" font-family="Helvetica,sans-Serif" font-size="11.00" fill="#000000">message_id</text>
<polygon fill="none" stroke="#000000" points="707,-159.7638 707,-181.7638 875,-181.7638 875,-159.7638 707,-159.7638"/>
<image xlink:href="../../images/foreignKeys.png" width="11px" height="12px" preserveAspectRatio="xMinYMin meet" x="712" y="-176.764"/>
<text text-anchor="start" x="736" y="-166.8638" font-family="Helvetica,sans-Serif" font-size="11.00" fill="#000000">recipient_patient_id</text>
<polygon fill="none" stroke="#000000" points="707,-140.7638 707,-159.7638 875,-159.7638 875,-140.7638 707,-140.7638"/>
<text text-anchor="start" x="710" y="-146.8638" font-family="Helvetica,sans-Serif" font-size="11.00" fill="#000000">...</text>
<polygon fill="#ffffff" stroke="transparent" points="707,-121.7638 707,-140.7638 776,-140.7638 776,-121.7638 707,-121.7638"/>
<polygon fill="none" stroke="#000000" points="707,-121.7638 707,-140.7638 776,-140.7638 776,-121.7638 707,-121.7638"/>
<text text-anchor="start" x="710" y="-127.8638" font-family="Helvetica,sans-Serif" font-size="11.00" fill="#000000">&lt; 2</text>
<polygon fill="#ffffff" stroke="transparent" points="776,-121.7638 776,-140.7638 838,-140.7638 838,-121.7638 776,-121.7638"/>
<polygon fill="none" stroke="#000000" points="776,-121.7638 776,-140.7638 838,-140.7638 838,-121.7638 776,-121.7638"/>
<text text-anchor="start" x="802.6105" y="-127.8638" font-family="Helvetica,sans-Serif" font-size="11.00" fill="#000000">0 rows</text>
<polygon fill="#ffffff" stroke="transparent" points="838,-121.7638 838,-140.7638 875,-140.7638 875,-121.7638 838,-121.7638"/>
<polygon fill="none" stroke="#000000" points="838,-121.7638 838,-140.7638 875,-140.7638 875,-121.7638 838,-121.7638"/>
<text text-anchor="start" x="865.8862" y="-127.8638" font-family="Helvetica,sans-Serif" font-size="11.00" fill="#000000"> &#160;</text>
</a>
</g>
</g>
<!-- message_notifications&#45;&gt;patients -->
<g id="edge3" class="edge">
<title>message_notifications:w&#45;&gt;patients:e</title>
<path fill="none" stroke="#000000" d="M692.7626,-167.0602C672.2944,-152.5994 698.2677,-99.7106 666,-78.7638 574.0992,-19.1058 258.8767,-17.7195 173,-85.7638 122.1828,-126.0287 196.8356,-225.7638 132,-225.7638"/>
<polygon fill="#000000" stroke="#000000" points="699.2577,-168.7497 706.0937,-174.2478 703.1288,-169.7568 707,-170.7638 707,-170.7638 707,-170.7638 703.1288,-169.7568 707.9063,-167.2797 699.2577,-168.7497 699.2577,-168.7497"/>
<ellipse fill="none" stroke="#000000" cx="696.1607" cy="-167.9441" rx="3.2" ry="3.2"/>
</g>
<!-- messages -->
<g id="node4" class="node">
<title>messages</title>
<g id="a_node4"><a xlink:href="../../tables/messages.html" xlink:title="messages" target="_top">
<polygon fill="#ffffff" stroke="transparent" points="310,-89.7638 310,-333.7638 658,-333.7638 658,-89.7638 310,-89.7638"/>
<polygon fill="#f5f5f5" stroke="transparent" points="312,-308.7638 312,-331.7638 656,-331.7638 656,-308.7638 312,-308.7638"/>
<polygon fill="none" stroke="#000000" points="312,-308.7638 312,-331.7638 656,-331.7638 656,-308.7638 312,-308.7638"/>
<text text-anchor="start" x="317" y="-317.3638" font-family="Helvetica,sans-Serif" font-weight="bold" font-size="11.00" fill="#000000">messages</text>
<text text-anchor="start" x="621.0437" y="-316.8638" font-family="Helvetica,sans-Serif" font-size="11.00" fill="#000000">[table]</text>
<polygon fill="none" stroke="#000000" points="312,-286.7638 312,-308.7638 435,-308.7638 435,-286.7638 312,-286.7638"/>
<image xlink:href="../../images/primaryKeys.png" width="11px" height="12px" preserveAspectRatio="xMinYMin meet" x="317" y="-303.764"/>
<text text-anchor="start" x="332" y="-293.8638" font-family="Helvetica,sans-Serif" font-size="11.00" fill="#000000">id_message</text>
<polygon fill="none" stroke="#000000" points="435,-286.7638 435,-308.7638 656,-308.7638 656,-286.7638 435,-286.7638"/>
<text text-anchor="start" x="438" y="-294.4638" font-family="Helvetica,sans-Serif" font-size="11.00" fill="#000000">serial[10]</text>
<polygon fill="none" stroke="#000000" points="312,-264.7638 312,-286.7638 435,-286.7638 435,-264.7638 312,-264.7638"/>
<image xlink:href="../../images/foreignKeys.png" width="11px" height="12px" preserveAspectRatio="xMinYMin meet" x="317" y="-281.764"/>
<text text-anchor="start" x="332" y="-271.8638" font-family="Helvetica,sans-Serif" font-size="11.00" fill="#000000">chat_id</text>
<polygon fill="none" stroke="#000000" points="435,-264.7638 435,-286.7638 656,-286.7638 656,-264.7638 435,-264.7638"/>
<text text-anchor="start" x="438" y="-272.4638" font-family="Helvetica,sans-Serif" font-size="11.00" fill="#000000">int4[10]</text>
<polygon fill="none" stroke="#000000" points="312,-242.7638 312,-264.7638 435,-264.7638 435,-242.7638 312,-242.7638"/>
<text text-anchor="start" x="332" y="-249.8638" font-family="Helvetica,sans-Serif" font-size="11.00" fill="#000000">sender_role</text>
<polygon fill="none" stroke="#000000" points="435,-242.7638 435,-264.7638 656,-264.7638 656,-242.7638 435,-242.7638"/>
<text text-anchor="start" x="437.9052" y="-250.4638" font-family="Helvetica,sans-Serif" font-size="11.00" fill="#000000">enum_messages_sender_role[2147483647]</text>
<polygon fill="none" stroke="#000000" points="312,-220.7638 312,-242.7638 435,-242.7638 435,-220.7638 312,-220.7638"/>
<image xlink:href="../../images/foreignKeys.png" width="11px" height="12px" preserveAspectRatio="xMinYMin meet" x="317" y="-237.764"/>
<text text-anchor="start" x="332" y="-227.8638" font-family="Helvetica,sans-Serif" font-size="11.00" fill="#000000">sender_patient_id</text>
<polygon fill="none" stroke="#000000" points="435,-220.7638 435,-242.7638 656,-242.7638 656,-220.7638 435,-220.7638"/>
<text text-anchor="start" x="438" y="-228.4638" font-family="Helvetica,sans-Serif" font-size="11.00" fill="#000000">int4[10]</text>
<polygon fill="none" stroke="#000000" points="312,-198.7638 312,-220.7638 435,-220.7638 435,-198.7638 312,-198.7638"/>
<image xlink:href="../../images/foreignKeys.png" width="11px" height="12px" preserveAspectRatio="xMinYMin meet" x="317" y="-215.764"/>
<text text-anchor="start" x="332" y="-205.8638" font-family="Helvetica,sans-Serif" font-size="11.00" fill="#000000">sender_staff_id</text>
<polygon fill="none" stroke="#000000" points="435,-198.7638 435,-220.7638 656,-220.7638 656,-198.7638 435,-198.7638"/>
<text text-anchor="start" x="438" y="-206.4638" font-family="Helvetica,sans-Serif" font-size="11.00" fill="#000000">int4[10]</text>
<polygon fill="none" stroke="#000000" points="312,-176.7638 312,-198.7638 435,-198.7638 435,-176.7638 312,-176.7638"/>
<text text-anchor="start" x="332" y="-183.8638" font-family="Helvetica,sans-Serif" font-size="11.00" fill="#000000">content</text>
<polygon fill="none" stroke="#000000" points="435,-176.7638 435,-198.7638 656,-198.7638 656,-176.7638 435,-176.7638"/>
<text text-anchor="start" x="438" y="-184.4638" font-family="Helvetica,sans-Serif" font-size="11.00" fill="#000000">text[2147483647]</text>
<polygon fill="none" stroke="#000000" points="312,-154.7638 312,-176.7638 435,-176.7638 435,-154.7638 312,-154.7638"/>
<text text-anchor="start" x="332" y="-161.8638" font-family="Helvetica,sans-Serif" font-size="11.00" fill="#000000">status</text>
<polygon fill="none" stroke="#000000" points="435,-154.7638 435,-176.7638 656,-176.7638 656,-154.7638 435,-154.7638"/>
<text text-anchor="start" x="438" y="-162.4638" font-family="Helvetica,sans-Serif" font-size="11.00" fill="#000000">enum_messages_status[2147483647]</text>
<polygon fill="none" stroke="#000000" points="312,-132.7638 312,-154.7638 435,-154.7638 435,-132.7638 312,-132.7638"/>
<text text-anchor="start" x="332" y="-139.8638" font-family="Helvetica,sans-Serif" font-size="11.00" fill="#000000">createdAt</text>
<polygon fill="none" stroke="#000000" points="435,-132.7638 435,-154.7638 656,-154.7638 656,-132.7638 435,-132.7638"/>
<text text-anchor="start" x="438" y="-140.4638" font-family="Helvetica,sans-Serif" font-size="11.00" fill="#000000">timestamptz[35,6]</text>
<polygon fill="none" stroke="#000000" points="312,-110.7638 312,-132.7638 435,-132.7638 435,-110.7638 312,-110.7638"/>
<text text-anchor="start" x="332" y="-117.8638" font-family="Helvetica,sans-Serif" font-size="11.00" fill="#000000">updatedAt</text>
<polygon fill="none" stroke="#000000" points="435,-110.7638 435,-132.7638 656,-132.7638 656,-110.7638 435,-110.7638"/>
<text text-anchor="start" x="438" y="-118.4638" font-family="Helvetica,sans-Serif" font-size="11.00" fill="#000000">timestamptz[35,6]</text>
<polygon fill="#ffffff" stroke="transparent" points="312,-91.7638 312,-110.7638 365,-110.7638 365,-91.7638 312,-91.7638"/>
<polygon fill="none" stroke="#000000" points="312,-91.7638 312,-110.7638 365,-110.7638 365,-91.7638 312,-91.7638"/>
<text text-anchor="start" x="315" y="-97.8638" font-family="Helvetica,sans-Serif" font-size="11.00" fill="#000000">&lt; 3</text>
<polygon fill="#ffffff" stroke="transparent" points="365,-91.7638 365,-110.7638 435,-110.7638 435,-91.7638 365,-91.7638"/>
<polygon fill="none" stroke="#000000" points="365,-91.7638 365,-110.7638 435,-110.7638 435,-91.7638 365,-91.7638"/>
<text text-anchor="start" x="399.6105" y="-97.8638" font-family="Helvetica,sans-Serif" font-size="11.00" fill="#000000">0 rows</text>
<polygon fill="#ffffff" stroke="transparent" points="435,-91.7638 435,-110.7638 656,-110.7638 656,-91.7638 435,-91.7638"/>
<polygon fill="none" stroke="#000000" points="435,-91.7638 435,-110.7638 656,-110.7638 656,-91.7638 435,-91.7638"/>
<text text-anchor="start" x="637.4053" y="-97.8638" font-family="Helvetica,sans-Serif" font-size="11.00" fill="#000000">1 &gt;</text>
<polygon fill="none" stroke="#000000" stroke-width="2" points="311,-90.7638 311,-332.7638 657,-332.7638 657,-90.7638 311,-90.7638"/>
</a>
</g>
</g>
<!-- message_notifications&#45;&gt;messages -->
<g id="edge2" class="edge">
<title>message_notifications:w&#45;&gt;messages:e</title>
<path fill="none" stroke="#000000" d="M693.0931,-196.5008C665.7305,-215.2054 702.0031,-297.7638 656,-297.7638"/>
<polygon fill="#000000" stroke="#000000" points="699.2741,-194.8399 707.9343,-196.2405 703.137,-193.8018 707,-192.7638 707,-192.7638 707,-192.7638 703.137,-193.8018 706.0657,-189.2871 699.2741,-194.8399 699.2741,-194.8399"/>
<ellipse fill="none" stroke="#000000" cx="696.1837" cy="-195.6704" rx="3.2" ry="3.2"/>
</g>
<!-- messages&#45;&gt;chats -->
<g id="edge4" class="edge">
<title>messages:w&#45;&gt;chats:e</title>
<path fill="none" stroke="#000000" d="M298.2382,-280.2431C283.9517,-291.6253 285.3247,-320.7638 261,-320.7638"/>
<polygon fill="#000000" stroke="#000000" points="304.3928,-278.2399 313.1142,-279.187 308.1964,-277.0018 312,-275.7638 312,-275.7638 312,-275.7638 308.1964,-277.0018 310.8858,-272.3406 304.3928,-278.2399 304.3928,-278.2399"/>
<ellipse fill="none" stroke="#000000" cx="301.3499" cy="-279.2303" rx="3.2" ry="3.2"/>
</g>
<!-- messages&#45;&gt;patients -->
<g id="edge5" class="edge">
<title>messages:w&#45;&gt;patients:e</title>
<path fill="none" stroke="#000000" d="M297.2399,-231.6922C229.1391,-231.0153 206.8853,-225.7638 132,-225.7638"/>
<polygon fill="#000000" stroke="#000000" points="304.0001,-231.725 311.9825,-235.3638 308,-231.7444 312,-231.7638 312,-231.7638 312,-231.7638 308,-231.7444 312.0175,-228.1638 304.0001,-231.725 304.0001,-231.725"/>
<ellipse fill="none" stroke="#000000" cx="300.8001" cy="-231.7094" rx="3.2" ry="3.2"/>
</g>
<!-- users -->
<g id="node5" class="node">
<title>users</title>
<g id="a_node5"><a xlink:href="../../tables/users.html" xlink:title="users" target="_top">
<polygon fill="#ffffff" stroke="transparent" points="181,-96.2638 181,-201.2638 261,-201.2638 261,-96.2638 181,-96.2638"/>
<polygon fill="#f5f5f5" stroke="transparent" points="181,-177.7638 181,-200.7638 261,-200.7638 261,-177.7638 181,-177.7638"/>
<polygon fill="none" stroke="#000000" points="181,-177.7638 181,-200.7638 261,-200.7638 261,-177.7638 181,-177.7638"/>
<text text-anchor="start" x="186" y="-186.3638" font-family="Helvetica,sans-Serif" font-weight="bold" font-size="11.00" fill="#000000">users</text>
<text text-anchor="start" x="226.0437" y="-185.8638" font-family="Helvetica,sans-Serif" font-size="11.00" fill="#000000">[table]</text>
<polygon fill="none" stroke="#000000" points="181,-155.7638 181,-177.7638 261,-177.7638 261,-155.7638 181,-155.7638"/>
<image xlink:href="../../images/primaryKeys.png" width="11px" height="12px" preserveAspectRatio="xMinYMin meet" x="186" y="-172.764"/>
<text text-anchor="start" x="201" y="-162.8638" font-family="Helvetica,sans-Serif" font-size="11.00" fill="#000000">id_user</text>
<polygon fill="#ffffff" stroke="transparent" points="181,-133.7638 181,-155.7638 261,-155.7638 261,-133.7638 181,-133.7638"/>
<polygon fill="none" stroke="#000000" points="181,-133.7638 181,-155.7638 261,-155.7638 261,-133.7638 181,-133.7638"/>
<text text-anchor="start" x="201" y="-140.8638" font-family="Helvetica,sans-Serif" font-size="11.00" fill="#000000">username</text>
<polygon fill="none" stroke="#000000" points="181,-114.7638 181,-133.7638 261,-133.7638 261,-114.7638 181,-114.7638"/>
<text text-anchor="start" x="184" y="-120.8638" font-family="Helvetica,sans-Serif" font-size="11.00" fill="#000000">...</text>
<polygon fill="#ffffff" stroke="transparent" points="181,-95.7638 181,-114.7638 197,-114.7638 197,-95.7638 181,-95.7638"/>
<polygon fill="none" stroke="#000000" points="181,-95.7638 181,-114.7638 197,-114.7638 197,-95.7638 181,-95.7638"/>
<text text-anchor="start" x="184" y="-101.8638" font-family="Helvetica,sans-Serif" font-size="11.00" fill="#000000"> &#160;</text>
<polygon fill="#ffffff" stroke="transparent" points="197,-95.7638 197,-114.7638 237,-114.7638 237,-95.7638 197,-95.7638"/>
<polygon fill="none" stroke="#000000" points="197,-95.7638 197,-114.7638 237,-114.7638 237,-95.7638 197,-95.7638"/>
<text text-anchor="start" x="201.6105" y="-101.8638" font-family="Helvetica,sans-Serif" font-size="11.00" fill="#000000">0 rows</text>
<polygon fill="#ffffff" stroke="transparent" points="237,-95.7638 237,-114.7638 261,-114.7638 261,-95.7638 237,-95.7638"/>
<polygon fill="none" stroke="#000000" points="237,-95.7638 237,-114.7638 261,-114.7638 261,-95.7638 237,-95.7638"/>
<text text-anchor="start" x="242.4053" y="-101.8638" font-family="Helvetica,sans-Serif" font-size="11.00" fill="#000000">4 &gt;</text>
</a>
</g>
</g>
<!-- messages&#45;&gt;users -->
<g id="edge6" class="edge">
<title>messages:w&#45;&gt;users:e</title>
<path fill="none" stroke="#000000" d="M297.9939,-205.162C284.1566,-194.0692 284.6259,-166.7638 261,-166.7638"/>
<polygon fill="#000000" stroke="#000000" points="304.3997,-207.2667 310.8763,-213.1839 308.1999,-208.5152 312,-209.7638 312,-209.7638 312,-209.7638 308.1999,-208.5152 313.1237,-206.3437 304.3997,-207.2667 304.3997,-207.2667"/>
<ellipse fill="none" stroke="#000000" cx="301.3596" cy="-206.2678" rx="3.2" ry="3.2"/>
</g>
</g>
</svg>
