<?xml version="1.0" encoding="UTF-8" standalone="no"?>
<!DOCTYPE svg PUBLIC "-//W3C//DTD SVG 1.1//EN"
 "http://www.w3.org/Graphics/SVG/1.1/DTD/svg11.dtd">
<!-- Generated by graphviz version 2.40.1 (20161225.0304)
 -->
<!-- Title: oneDegreeRelationshipsDiagram Pages: 1 -->
<svg width="931pt" height="646pt"
 viewBox="0.00 0.00 931.00 645.70" xmlns="http://www.w3.org/2000/svg" xmlns:xlink="http://www.w3.org/1999/xlink">
<g id="graph0" class="graph" transform="scale(1 1) rotate(0) translate(4 641.7)">
<title>oneDegreeRelationshipsDiagram</title>
<polygon fill="#ffffff" stroke="transparent" points="-4,4 -4,-641.7 927,-641.7 927,4 -4,4"/>
<text text-anchor="middle" x="72.4936" y="-7.3" font-family="Helvetica,sans-Serif" font-size="11.00" fill="#000000">Generated by SchemaSpy</text>
<!-- chats -->
<g id="node1" class="node">
<title>chats</title>
<g id="a_node1"><a xlink:href="../../tables/chats.html" xlink:title="chats" target="_top">
<polygon fill="#ffffff" stroke="transparent" points="429,-380.7 429,-485.7 509,-485.7 509,-380.7 429,-380.7"/>
<polygon fill="#f5f5f5" stroke="transparent" points="429,-462.2 429,-485.2 509,-485.2 509,-462.2 429,-462.2"/>
<polygon fill="none" stroke="#000000" points="429,-462.2 429,-485.2 509,-485.2 509,-462.2 429,-462.2"/>
<text text-anchor="start" x="434" y="-470.8" font-family="Helvetica,sans-Serif" font-weight="bold" font-size="11.00" fill="#000000">chats</text>
<text text-anchor="start" x="474.0437" y="-470.3" font-family="Helvetica,sans-Serif" font-size="11.00" fill="#000000">[table]</text>
<polygon fill="none" stroke="#000000" points="429,-440.2 429,-462.2 509,-462.2 509,-440.2 429,-440.2"/>
<image xlink:href="../../images/primaryKeys.png" width="11px" height="12px" preserveAspectRatio="xMinYMin meet" x="434" y="-457.2"/>
<text text-anchor="start" x="449" y="-447.3" font-family="Helvetica,sans-Serif" font-size="11.00" fill="#000000">id_chat</text>
<polygon fill="none" stroke="#000000" points="429,-418.2 429,-440.2 509,-440.2 509,-418.2 429,-418.2"/>
<image xlink:href="../../images/foreignKeys.png" width="11px" height="12px" preserveAspectRatio="xMinYMin meet" x="434" y="-435.2"/>
<text text-anchor="start" x="449" y="-425.3" font-family="Helvetica,sans-Serif" font-size="11.00" fill="#000000">patient_id</text>
<polygon fill="none" stroke="#000000" points="429,-399.2 429,-418.2 509,-418.2 509,-399.2 429,-399.2"/>
<text text-anchor="start" x="432" y="-405.3" font-family="Helvetica,sans-Serif" font-size="11.00" fill="#000000">...</text>
<polygon fill="#ffffff" stroke="transparent" points="429,-380.2 429,-399.2 450,-399.2 450,-380.2 429,-380.2"/>
<polygon fill="none" stroke="#000000" points="429,-380.2 429,-399.2 450,-399.2 450,-380.2 429,-380.2"/>
<text text-anchor="start" x="431.7027" y="-386.3" font-family="Helvetica,sans-Serif" font-size="11.00" fill="#000000">&lt; 1</text>
<polygon fill="#ffffff" stroke="transparent" points="450,-380.2 450,-399.2 488,-399.2 488,-380.2 450,-380.2"/>
<polygon fill="none" stroke="#000000" points="450,-380.2 450,-399.2 488,-399.2 488,-380.2 450,-380.2"/>
<text text-anchor="start" x="452.8053" y="-386.3" font-family="Helvetica,sans-Serif" font-size="11.00" fill="#000000">0 rows</text>
<polygon fill="#ffffff" stroke="transparent" points="488,-380.2 488,-399.2 509,-399.2 509,-380.2 488,-380.2"/>
<polygon fill="none" stroke="#000000" points="488,-380.2 488,-399.2 509,-399.2 509,-380.2 488,-380.2"/>
<text text-anchor="start" x="490.7027" y="-386.3" font-family="Helvetica,sans-Serif" font-size="11.00" fill="#000000">1 &gt;</text>
</a>
</g>
</g>
<!-- patients -->
<g id="node2" class="node">
<title>patients</title>
<g id="a_node2"><a xlink:href="../../tables/patients.html" xlink:title="patients" target="_top">
<polygon fill="#ffffff" stroke="transparent" points="143,-38.2 143,-392.2 363,-392.2 363,-38.2 143,-38.2"/>
<polygon fill="#f5f5f5" stroke="transparent" points="145,-367.2 145,-390.2 361,-390.2 361,-367.2 145,-367.2"/>
<polygon fill="none" stroke="#000000" points="145,-367.2 145,-390.2 361,-390.2 361,-367.2 145,-367.2"/>
<text text-anchor="start" x="150" y="-375.8" font-family="Helvetica,sans-Serif" font-weight="bold" font-size="11.00" fill="#000000">patients</text>
<text text-anchor="start" x="326.0437" y="-375.3" font-family="Helvetica,sans-Serif" font-size="11.00" fill="#000000">[table]</text>
<polygon fill="none" stroke="#000000" points="145,-345.2 145,-367.2 269,-367.2 269,-345.2 145,-345.2"/>
<image xlink:href="../../images/primaryKeys.png" width="11px" height="12px" preserveAspectRatio="xMinYMin meet" x="150" y="-362.2"/>
<text text-anchor="start" x="165" y="-352.3" font-family="Helvetica,sans-Serif" font-size="11.00" fill="#000000">id_patient</text>
<polygon fill="none" stroke="#000000" points="269,-345.2 269,-367.2 361,-367.2 361,-345.2 269,-345.2"/>
<text text-anchor="start" x="272" y="-352.9" font-family="Helvetica,sans-Serif" font-size="11.00" fill="#000000">serial[10]</text>
<polygon fill="#ffffff" stroke="transparent" points="145,-323.2 145,-345.2 269,-345.2 269,-323.2 145,-323.2"/>
<polygon fill="none" stroke="#000000" points="145,-323.2 145,-345.2 269,-345.2 269,-323.2 145,-323.2"/>
<text text-anchor="start" x="165" y="-330.3" font-family="Helvetica,sans-Serif" font-size="11.00" fill="#000000">service_id</text>
<polygon fill="none" stroke="#000000" points="269,-323.2 269,-345.2 361,-345.2 361,-323.2 269,-323.2"/>
<text text-anchor="start" x="272" y="-330.9" font-family="Helvetica,sans-Serif" font-size="11.00" fill="#000000">int4[10]</text>
<polygon fill="none" stroke="#000000" points="145,-301.2 145,-323.2 269,-323.2 269,-301.2 145,-301.2"/>
<text text-anchor="start" x="165" y="-308.3" font-family="Helvetica,sans-Serif" font-size="11.00" fill="#000000">cpf</text>
<polygon fill="none" stroke="#000000" points="269,-301.2 269,-323.2 361,-323.2 361,-301.2 269,-301.2"/>
<text text-anchor="start" x="272" y="-308.9" font-family="Helvetica,sans-Serif" font-size="11.00" fill="#000000">varchar[11]</text>
<polygon fill="none" stroke="#000000" points="145,-279.2 145,-301.2 269,-301.2 269,-279.2 145,-279.2"/>
<text text-anchor="start" x="165" y="-286.3" font-family="Helvetica,sans-Serif" font-size="11.00" fill="#000000">cdPhysicalPerson</text>
<polygon fill="none" stroke="#000000" points="269,-279.2 269,-301.2 361,-301.2 361,-279.2 269,-279.2"/>
<text text-anchor="start" x="272" y="-286.9" font-family="Helvetica,sans-Serif" font-size="11.00" fill="#000000">int4[10]</text>
<polygon fill="none" stroke="#000000" points="145,-257.2 145,-279.2 269,-279.2 269,-257.2 145,-257.2"/>
<image xlink:href="../../images/foreignKeys.png" width="11px" height="12px" preserveAspectRatio="xMinYMin meet" x="150" y="-274.2"/>
<text text-anchor="start" x="165" y="-264.3" font-family="Helvetica,sans-Serif" font-size="11.00" fill="#000000">name</text>
<polygon fill="none" stroke="#000000" points="269,-257.2 269,-279.2 361,-279.2 361,-257.2 269,-257.2"/>
<text text-anchor="start" x="272" y="-264.9" font-family="Helvetica,sans-Serif" font-size="11.00" fill="#000000">varchar[255]</text>
<polygon fill="none" stroke="#000000" points="145,-235.2 145,-257.2 269,-257.2 269,-235.2 145,-235.2"/>
<text text-anchor="start" x="165" y="-242.3" font-family="Helvetica,sans-Serif" font-size="11.00" fill="#000000">birth_date</text>
<polygon fill="none" stroke="#000000" points="269,-235.2 269,-257.2 361,-257.2 361,-235.2 269,-235.2"/>
<text text-anchor="start" x="271.6023" y="-242.9" font-family="Helvetica,sans-Serif" font-size="11.00" fill="#000000">timestamptz[35,6]</text>
<polygon fill="none" stroke="#000000" points="145,-213.2 145,-235.2 269,-235.2 269,-213.2 145,-213.2"/>
<text text-anchor="start" x="165" y="-220.3" font-family="Helvetica,sans-Serif" font-size="11.00" fill="#000000">entry_date</text>
<polygon fill="none" stroke="#000000" points="269,-213.2 269,-235.2 361,-235.2 361,-213.2 269,-213.2"/>
<text text-anchor="start" x="271.6023" y="-220.9" font-family="Helvetica,sans-Serif" font-size="11.00" fill="#000000">timestamptz[35,6]</text>
<polygon fill="none" stroke="#000000" points="145,-191.2 145,-213.2 269,-213.2 269,-191.2 145,-191.2"/>
<image xlink:href="../../images/foreignKeys.png" width="11px" height="12px" preserveAspectRatio="xMinYMin meet" x="150" y="-208.2"/>
<text text-anchor="start" x="165" y="-198.3" font-family="Helvetica,sans-Serif" font-size="11.00" fill="#000000">id_cid</text>
<polygon fill="none" stroke="#000000" points="269,-191.2 269,-213.2 361,-213.2 361,-191.2 269,-191.2"/>
<text text-anchor="start" x="272" y="-198.9" font-family="Helvetica,sans-Serif" font-size="11.00" fill="#000000">int4[10]</text>
<polygon fill="none" stroke="#000000" points="145,-169.2 145,-191.2 269,-191.2 269,-169.2 145,-169.2"/>
<text text-anchor="start" x="165" y="-176.3" font-family="Helvetica,sans-Serif" font-size="11.00" fill="#000000">department</text>
<polygon fill="none" stroke="#000000" points="269,-169.2 269,-191.2 361,-191.2 361,-169.2 269,-169.2"/>
<text text-anchor="start" x="272" y="-176.9" font-family="Helvetica,sans-Serif" font-size="11.00" fill="#000000">varchar[255]</text>
<polygon fill="none" stroke="#000000" points="145,-147.2 145,-169.2 269,-169.2 269,-147.2 145,-147.2"/>
<text text-anchor="start" x="165" y="-154.3" font-family="Helvetica,sans-Serif" font-size="11.00" fill="#000000">doctor</text>
<polygon fill="none" stroke="#000000" points="269,-147.2 269,-169.2 361,-169.2 361,-147.2 269,-147.2"/>
<text text-anchor="start" x="272" y="-154.9" font-family="Helvetica,sans-Serif" font-size="11.00" fill="#000000">varchar[255]</text>
<polygon fill="none" stroke="#000000" points="145,-125.2 145,-147.2 269,-147.2 269,-125.2 145,-125.2"/>
<text text-anchor="start" x="165" y="-132.3" font-family="Helvetica,sans-Serif" font-size="11.00" fill="#000000">gender</text>
<polygon fill="none" stroke="#000000" points="269,-125.2 269,-147.2 361,-147.2 361,-125.2 269,-125.2"/>
<text text-anchor="start" x="272" y="-132.9" font-family="Helvetica,sans-Serif" font-size="11.00" fill="#000000">bpchar[1]</text>
<polygon fill="none" stroke="#000000" points="145,-103.2 145,-125.2 269,-125.2 269,-103.2 145,-103.2"/>
<text text-anchor="start" x="165" y="-110.3" font-family="Helvetica,sans-Serif" font-size="11.00" fill="#000000">active</text>
<polygon fill="none" stroke="#000000" points="269,-103.2 269,-125.2 361,-125.2 361,-103.2 269,-103.2"/>
<text text-anchor="start" x="272" y="-110.9" font-family="Helvetica,sans-Serif" font-size="11.00" fill="#000000">bool[1]</text>
<polygon fill="none" stroke="#000000" points="145,-81.2 145,-103.2 269,-103.2 269,-81.2 145,-81.2"/>
<text text-anchor="start" x="165" y="-88.3" font-family="Helvetica,sans-Serif" font-size="11.00" fill="#000000">createdAt</text>
<polygon fill="none" stroke="#000000" points="269,-81.2 269,-103.2 361,-103.2 361,-81.2 269,-81.2"/>
<text text-anchor="start" x="271.6023" y="-88.9" font-family="Helvetica,sans-Serif" font-size="11.00" fill="#000000">timestamptz[35,6]</text>
<polygon fill="none" stroke="#000000" points="145,-59.2 145,-81.2 269,-81.2 269,-59.2 145,-59.2"/>
<text text-anchor="start" x="165" y="-66.3" font-family="Helvetica,sans-Serif" font-size="11.00" fill="#000000">updatedAt</text>
<polygon fill="none" stroke="#000000" points="269,-59.2 269,-81.2 361,-81.2 361,-59.2 269,-59.2"/>
<text text-anchor="start" x="271.6023" y="-66.9" font-family="Helvetica,sans-Serif" font-size="11.00" fill="#000000">timestamptz[35,6]</text>
<polygon fill="#ffffff" stroke="transparent" points="145,-40.2 145,-59.2 198,-59.2 198,-40.2 145,-40.2"/>
<polygon fill="none" stroke="#000000" points="145,-40.2 145,-59.2 198,-59.2 198,-40.2 145,-40.2"/>
<text text-anchor="start" x="148" y="-46.3" font-family="Helvetica,sans-Serif" font-size="11.00" fill="#000000">&lt; 1</text>
<polygon fill="#ffffff" stroke="transparent" points="198,-40.2 198,-59.2 269,-59.2 269,-40.2 198,-40.2"/>
<polygon fill="none" stroke="#000000" points="198,-40.2 198,-59.2 269,-59.2 269,-40.2 198,-40.2"/>
<text text-anchor="start" x="233.6105" y="-46.3" font-family="Helvetica,sans-Serif" font-size="11.00" fill="#000000">0 rows</text>
<polygon fill="#ffffff" stroke="transparent" points="269,-40.2 269,-59.2 361,-59.2 361,-40.2 269,-40.2"/>
<polygon fill="none" stroke="#000000" points="269,-40.2 269,-59.2 361,-59.2 361,-40.2 269,-40.2"/>
<text text-anchor="start" x="342.4053" y="-46.3" font-family="Helvetica,sans-Serif" font-size="11.00" fill="#000000">5 &gt;</text>
<polygon fill="none" stroke="#000000" stroke-width="2" points="144,-39.2 144,-391.2 362,-391.2 362,-39.2 144,-39.2"/>
</a>
</g>
</g>
<!-- chats&#45;&gt;patients -->
<g id="edge1" class="edge">
<title>chats:w&#45;&gt;patients:e</title>
<path fill="none" stroke="#000000" d="M414.8157,-425.8736C388.9112,-411.5927 399.6242,-356.2 361,-356.2"/>
<polygon fill="#000000" stroke="#000000" points="421.2113,-427.3734 428.178,-432.7049 425.1056,-428.2867 429,-429.2 429,-429.2 429,-429.2 425.1056,-428.2867 429.822,-425.6951 421.2113,-427.3734 421.2113,-427.3734"/>
<ellipse fill="none" stroke="#000000" cx="418.0958" cy="-426.6428" rx="3.2" ry="3.2"/>
</g>
<!-- cid -->
<g id="node6" class="node">
<title>cid</title>
<g id="a_node6"><a xlink:href="../../tables/cid.html" xlink:title="cid" target="_top">
<polygon fill="#ffffff" stroke="transparent" points="8,-109.7 8,-236.7 94,-236.7 94,-109.7 8,-109.7"/>
<polygon fill="#f5f5f5" stroke="transparent" points="8,-213.2 8,-236.2 94,-236.2 94,-213.2 8,-213.2"/>
<polygon fill="none" stroke="#000000" points="8,-213.2 8,-236.2 94,-236.2 94,-213.2 8,-213.2"/>
<text text-anchor="start" x="12.4721" y="-221.8" font-family="Helvetica,sans-Serif" font-weight="bold" font-size="11.00" fill="#000000">cid</text>
<text text-anchor="start" x="59.0437" y="-221.3" font-family="Helvetica,sans-Serif" font-size="11.00" fill="#000000">[table]</text>
<polygon fill="none" stroke="#000000" points="8,-191.2 8,-213.2 94,-213.2 94,-191.2 8,-191.2"/>
<image xlink:href="../../images/primaryKeys.png" width="11px" height="12px" preserveAspectRatio="xMinYMin meet" x="13" y="-208.2"/>
<text text-anchor="start" x="29" y="-198.3" font-family="Helvetica,sans-Serif" font-size="11.00" fill="#000000">id_cid</text>
<polygon fill="#ffffff" stroke="transparent" points="8,-169.2 8,-191.2 94,-191.2 94,-169.2 8,-169.2"/>
<polygon fill="none" stroke="#000000" points="8,-169.2 8,-191.2 94,-191.2 94,-169.2 8,-169.2"/>
<text text-anchor="start" x="29" y="-176.3" font-family="Helvetica,sans-Serif" font-size="11.00" fill="#000000">cid_code</text>
<polygon fill="none" stroke="#000000" points="8,-147.2 8,-169.2 94,-169.2 94,-147.2 8,-147.2"/>
<image xlink:href="../../images/foreignKeys.png" width="11px" height="12px" preserveAspectRatio="xMinYMin meet" x="13" y="-164.2"/>
<text text-anchor="start" x="29" y="-154.3" font-family="Helvetica,sans-Serif" font-size="11.00" fill="#000000">id_label</text>
<polygon fill="none" stroke="#000000" points="8,-128.2 8,-147.2 94,-147.2 94,-128.2 8,-128.2"/>
<text text-anchor="start" x="11" y="-134.3" font-family="Helvetica,sans-Serif" font-size="11.00" fill="#000000">...</text>
<polygon fill="#ffffff" stroke="transparent" points="8,-109.2 8,-128.2 29,-128.2 29,-109.2 8,-109.2"/>
<polygon fill="none" stroke="#000000" points="8,-109.2 8,-128.2 29,-128.2 29,-109.2 8,-109.2"/>
<text text-anchor="start" x="10.7027" y="-115.3" font-family="Helvetica,sans-Serif" font-size="11.00" fill="#000000">&lt; 1</text>
<polygon fill="#ffffff" stroke="transparent" points="29,-109.2 29,-128.2 73,-128.2 73,-109.2 29,-109.2"/>
<polygon fill="none" stroke="#000000" points="29,-109.2 29,-128.2 73,-128.2 73,-109.2 29,-109.2"/>
<text text-anchor="start" x="31.7478" y="-115.3" font-family="Helvetica,sans-Serif" font-size="11.00" fill="#000000">88 rows</text>
<polygon fill="#ffffff" stroke="transparent" points="73,-109.2 73,-128.2 94,-128.2 94,-109.2 73,-109.2"/>
<polygon fill="none" stroke="#000000" points="73,-109.2 73,-128.2 94,-128.2 94,-109.2 73,-109.2"/>
<text text-anchor="start" x="75.7027" y="-115.3" font-family="Helvetica,sans-Serif" font-size="11.00" fill="#000000">1 &gt;</text>
</a>
</g>
</g>
<!-- patients&#45;&gt;cid -->
<g id="edge7" class="edge">
<title>patients:w&#45;&gt;cid:e</title>
<path fill="none" stroke="#000000" d="M130.276,-202.2C118.2815,-202.2 110.8229,-202.2 94,-202.2"/>
<polygon fill="#000000" stroke="#000000" points="137,-202.2001 145,-205.8 141,-202.2 145,-202.2 145,-202.2 145,-202.2 141,-202.2 145,-198.6 137,-202.2001 137,-202.2001"/>
<ellipse fill="none" stroke="#000000" cx="133.8" cy="-202.2001" rx="3.2" ry="3.2"/>
</g>
<!-- device -->
<g id="node3" class="node">
<title>device</title>
<g id="a_node3"><a xlink:href="../../tables/device.html" xlink:title="device" target="_top">
<polygon fill="#ffffff" stroke="transparent" points="412,-506.7 412,-633.7 526,-633.7 526,-506.7 412,-506.7"/>
<polygon fill="#f5f5f5" stroke="transparent" points="412,-610.2 412,-633.2 526,-633.2 526,-610.2 412,-610.2"/>
<polygon fill="none" stroke="#000000" points="412,-610.2 412,-633.2 526,-633.2 526,-610.2 412,-610.2"/>
<text text-anchor="start" x="417" y="-618.8" font-family="Helvetica,sans-Serif" font-weight="bold" font-size="11.00" fill="#000000">device</text>
<text text-anchor="start" x="491.0437" y="-618.3" font-family="Helvetica,sans-Serif" font-size="11.00" fill="#000000">[table]</text>
<polygon fill="none" stroke="#000000" points="412,-588.2 412,-610.2 526,-610.2 526,-588.2 412,-588.2"/>
<image xlink:href="../../images/primaryKeys.png" width="11px" height="12px" preserveAspectRatio="xMinYMin meet" x="417" y="-605.2"/>
<text text-anchor="start" x="432" y="-595.3" font-family="Helvetica,sans-Serif" font-size="11.00" fill="#000000">id_device_token</text>
<polygon fill="none" stroke="#000000" points="412,-566.2 412,-588.2 526,-588.2 526,-566.2 412,-566.2"/>
<image xlink:href="../../images/foreignKeys.png" width="11px" height="12px" preserveAspectRatio="xMinYMin meet" x="417" y="-583.2"/>
<text text-anchor="start" x="432" y="-573.3" font-family="Helvetica,sans-Serif" font-size="11.00" fill="#000000">patient_id</text>
<polygon fill="#ffffff" stroke="transparent" points="412,-544.2 412,-566.2 526,-566.2 526,-544.2 412,-544.2"/>
<polygon fill="none" stroke="#000000" points="412,-544.2 412,-566.2 526,-566.2 526,-544.2 412,-544.2"/>
<text text-anchor="start" x="432" y="-551.3" font-family="Helvetica,sans-Serif" font-size="11.00" fill="#000000">token</text>
<polygon fill="none" stroke="#000000" points="412,-525.2 412,-544.2 526,-544.2 526,-525.2 412,-525.2"/>
<text text-anchor="start" x="415" y="-531.3" font-family="Helvetica,sans-Serif" font-size="11.00" fill="#000000">...</text>
<polygon fill="#ffffff" stroke="transparent" points="412,-506.2 412,-525.2 454,-525.2 454,-506.2 412,-506.2"/>
<polygon fill="none" stroke="#000000" points="412,-506.2 412,-525.2 454,-525.2 454,-506.2 412,-506.2"/>
<text text-anchor="start" x="415" y="-512.3" font-family="Helvetica,sans-Serif" font-size="11.00" fill="#000000">&lt; 1</text>
<polygon fill="#ffffff" stroke="transparent" points="454,-506.2 454,-525.2 503,-525.2 503,-506.2 454,-506.2"/>
<polygon fill="none" stroke="#000000" points="454,-506.2 454,-525.2 503,-525.2 503,-506.2 454,-506.2"/>
<text text-anchor="start" x="467.6105" y="-512.3" font-family="Helvetica,sans-Serif" font-size="11.00" fill="#000000">0 rows</text>
<polygon fill="#ffffff" stroke="transparent" points="503,-506.2 503,-525.2 526,-525.2 526,-506.2 503,-506.2"/>
<polygon fill="none" stroke="#000000" points="503,-506.2 503,-525.2 526,-525.2 526,-506.2 503,-506.2"/>
<text text-anchor="start" x="516.8862" y="-512.3" font-family="Helvetica,sans-Serif" font-size="11.00" fill="#000000"> &#160;</text>
</a>
</g>
</g>
<!-- device&#45;&gt;patients -->
<g id="edge2" class="edge">
<title>device:w&#45;&gt;patients:e</title>
<path fill="none" stroke="#000000" d="M397.6354,-575.2894C326.9171,-553.6891 456.291,-356.2 361,-356.2"/>
<polygon fill="#000000" stroke="#000000" points="404.0698,-576.1452 411.5253,-580.7686 408.0349,-576.6726 412,-577.2 412,-577.2 412,-577.2 408.0349,-576.6726 412.4747,-573.6314 404.0698,-576.1452 404.0698,-576.1452"/>
<ellipse fill="none" stroke="#000000" cx="400.8978" cy="-575.7233" rx="3.2" ry="3.2"/>
</g>
<!-- message_notifications -->
<g id="node4" class="node">
<title>message_notifications</title>
<g id="a_node4"><a xlink:href="../../tables/message_notifications.html" xlink:title="message_notifications" target="_top">
<polygon fill="#ffffff" stroke="transparent" points="747,-338.7 747,-465.7 915,-465.7 915,-338.7 747,-338.7"/>
<polygon fill="#f5f5f5" stroke="transparent" points="747,-442.2 747,-465.2 915,-465.2 915,-442.2 747,-442.2"/>
<polygon fill="none" stroke="#000000" points="747,-442.2 747,-465.2 915,-465.2 915,-442.2 747,-442.2"/>
<text text-anchor="start" x="752" y="-450.8" font-family="Helvetica,sans-Serif" font-weight="bold" font-size="11.00" fill="#000000">message_notifications</text>
<text text-anchor="start" x="880.5219" y="-450.3" font-family="Helvetica,sans-Serif" font-size="11.00" fill="#000000">[table]</text>
<polygon fill="none" stroke="#000000" points="747,-420.2 747,-442.2 915,-442.2 915,-420.2 747,-420.2"/>
<image xlink:href="../../images/primaryKeys.png" width="11px" height="12px" preserveAspectRatio="xMinYMin meet" x="752" y="-437.2"/>
<text text-anchor="start" x="776" y="-427.3" font-family="Helvetica,sans-Serif" font-size="11.00" fill="#000000">id_notification</text>
<polygon fill="none" stroke="#000000" points="747,-398.2 747,-420.2 915,-420.2 915,-398.2 747,-398.2"/>
<image xlink:href="../../images/foreignKeys.png" width="11px" height="12px" preserveAspectRatio="xMinYMin meet" x="752" y="-415.2"/>
<text text-anchor="start" x="776" y="-405.3" font-family="Helvetica,sans-Serif" font-size="11.00" fill="#000000">message_id</text>
<polygon fill="none" stroke="#000000" points="747,-376.2 747,-398.2 915,-398.2 915,-376.2 747,-376.2"/>
<image xlink:href="../../images/foreignKeys.png" width="11px" height="12px" preserveAspectRatio="xMinYMin meet" x="752" y="-393.2"/>
<text text-anchor="start" x="776" y="-383.3" font-family="Helvetica,sans-Serif" font-size="11.00" fill="#000000">recipient_patient_id</text>
<polygon fill="none" stroke="#000000" points="747,-357.2 747,-376.2 915,-376.2 915,-357.2 747,-357.2"/>
<text text-anchor="start" x="750" y="-363.3" font-family="Helvetica,sans-Serif" font-size="11.00" fill="#000000">...</text>
<polygon fill="#ffffff" stroke="transparent" points="747,-338.2 747,-357.2 816,-357.2 816,-338.2 747,-338.2"/>
<polygon fill="none" stroke="#000000" points="747,-338.2 747,-357.2 816,-357.2 816,-338.2 747,-338.2"/>
<text text-anchor="start" x="750" y="-344.3" font-family="Helvetica,sans-Serif" font-size="11.00" fill="#000000">&lt; 2</text>
<polygon fill="#ffffff" stroke="transparent" points="816,-338.2 816,-357.2 878,-357.2 878,-338.2 816,-338.2"/>
<polygon fill="none" stroke="#000000" points="816,-338.2 816,-357.2 878,-357.2 878,-338.2 816,-338.2"/>
<text text-anchor="start" x="842.6105" y="-344.3" font-family="Helvetica,sans-Serif" font-size="11.00" fill="#000000">0 rows</text>
<polygon fill="#ffffff" stroke="transparent" points="878,-338.2 878,-357.2 915,-357.2 915,-338.2 878,-338.2"/>
<polygon fill="none" stroke="#000000" points="878,-338.2 878,-357.2 915,-357.2 915,-338.2 878,-338.2"/>
<text text-anchor="start" x="905.8862" y="-344.3" font-family="Helvetica,sans-Serif" font-size="11.00" fill="#000000"> &#160;</text>
</a>
</g>
</g>
<!-- message_notifications&#45;&gt;patients -->
<g id="edge4" class="edge">
<title>message_notifications:w&#45;&gt;patients:e</title>
<path fill="none" stroke="#000000" d="M733.3748,-382.4273C723.1616,-372.8188 724.7659,-351.3638 706,-343.2 696.2411,-338.9545 415.7641,-343.6458 404,-345.2 384.4434,-347.7838 380.7265,-356.2 361,-356.2"/>
<polygon fill="#000000" stroke="#000000" points="739.4498,-384.5553 745.8099,-390.5976 743.2249,-385.8776 747,-387.2 747,-387.2 747,-387.2 743.2249,-385.8776 748.1901,-383.8024 739.4498,-384.5553 739.4498,-384.5553"/>
<ellipse fill="none" stroke="#000000" cx="736.4297" cy="-383.4974" rx="3.2" ry="3.2"/>
</g>
<!-- messages -->
<g id="node5" class="node">
<title>messages</title>
<g id="a_node5"><a xlink:href="../../tables/messages.html" xlink:title="messages" target="_top">
<polygon fill="#ffffff" stroke="transparent" points="575,-353.7 575,-502.7 698,-502.7 698,-353.7 575,-353.7"/>
<polygon fill="#f5f5f5" stroke="transparent" points="575.5,-479.2 575.5,-502.2 698.5,-502.2 698.5,-479.2 575.5,-479.2"/>
<polygon fill="none" stroke="#000000" points="575.5,-479.2 575.5,-502.2 698.5,-502.2 698.5,-479.2 575.5,-479.2"/>
<text text-anchor="start" x="580.5" y="-487.8" font-family="Helvetica,sans-Serif" font-weight="bold" font-size="11.00" fill="#000000">messages</text>
<text text-anchor="start" x="663.5437" y="-487.3" font-family="Helvetica,sans-Serif" font-size="11.00" fill="#000000">[table]</text>
<polygon fill="none" stroke="#000000" points="575.5,-457.2 575.5,-479.2 698.5,-479.2 698.5,-457.2 575.5,-457.2"/>
<image xlink:href="../../images/primaryKeys.png" width="11px" height="12px" preserveAspectRatio="xMinYMin meet" x="580.5" y="-474.2"/>
<text text-anchor="start" x="595.5" y="-464.3" font-family="Helvetica,sans-Serif" font-size="11.00" fill="#000000">id_message</text>
<polygon fill="none" stroke="#000000" points="575.5,-435.2 575.5,-457.2 698.5,-457.2 698.5,-435.2 575.5,-435.2"/>
<image xlink:href="../../images/foreignKeys.png" width="11px" height="12px" preserveAspectRatio="xMinYMin meet" x="580.5" y="-452.2"/>
<text text-anchor="start" x="595.5" y="-442.3" font-family="Helvetica,sans-Serif" font-size="11.00" fill="#000000">chat_id</text>
<polygon fill="none" stroke="#000000" points="575.5,-413.2 575.5,-435.2 698.5,-435.2 698.5,-413.2 575.5,-413.2"/>
<image xlink:href="../../images/foreignKeys.png" width="11px" height="12px" preserveAspectRatio="xMinYMin meet" x="580.5" y="-430.2"/>
<text text-anchor="start" x="595.5" y="-420.3" font-family="Helvetica,sans-Serif" font-size="11.00" fill="#000000">sender_patient_id</text>
<polygon fill="none" stroke="#000000" points="575.5,-391.2 575.5,-413.2 698.5,-413.2 698.5,-391.2 575.5,-391.2"/>
<image xlink:href="../../images/foreignKeys.png" width="11px" height="12px" preserveAspectRatio="xMinYMin meet" x="580.5" y="-408.2"/>
<text text-anchor="start" x="595.5" y="-398.3" font-family="Helvetica,sans-Serif" font-size="11.00" fill="#000000">sender_staff_id</text>
<polygon fill="none" stroke="#000000" points="575.5,-372.2 575.5,-391.2 698.5,-391.2 698.5,-372.2 575.5,-372.2"/>
<text text-anchor="start" x="578.5" y="-378.3" font-family="Helvetica,sans-Serif" font-size="11.00" fill="#000000">...</text>
<polygon fill="#ffffff" stroke="transparent" points="575.5,-353.2 575.5,-372.2 617.5,-372.2 617.5,-353.2 575.5,-353.2"/>
<polygon fill="none" stroke="#000000" points="575.5,-353.2 575.5,-372.2 617.5,-372.2 617.5,-353.2 575.5,-353.2"/>
<text text-anchor="start" x="578.5" y="-359.3" font-family="Helvetica,sans-Serif" font-size="11.00" fill="#000000">&lt; 3</text>
<polygon fill="#ffffff" stroke="transparent" points="617.5,-353.2 617.5,-372.2 666.5,-372.2 666.5,-353.2 617.5,-353.2"/>
<polygon fill="none" stroke="#000000" points="617.5,-353.2 617.5,-372.2 666.5,-372.2 666.5,-353.2 617.5,-353.2"/>
<text text-anchor="start" x="631.1105" y="-359.3" font-family="Helvetica,sans-Serif" font-size="11.00" fill="#000000">0 rows</text>
<polygon fill="#ffffff" stroke="transparent" points="666.5,-353.2 666.5,-372.2 698.5,-372.2 698.5,-353.2 666.5,-353.2"/>
<polygon fill="none" stroke="#000000" points="666.5,-353.2 666.5,-372.2 698.5,-372.2 698.5,-353.2 666.5,-353.2"/>
<text text-anchor="start" x="679.9053" y="-359.3" font-family="Helvetica,sans-Serif" font-size="11.00" fill="#000000">1 &gt;</text>
</a>
</g>
</g>
<!-- message_notifications&#45;&gt;messages -->
<g id="edge3" class="edge">
<title>message_notifications:w&#45;&gt;messages:e</title>
<path fill="none" stroke="#000000" d="M733.2489,-414.2303C718.3013,-428.4982 726.3453,-468.2 698.5,-468.2"/>
<polygon fill="#000000" stroke="#000000" points="739.4869,-411.9484 748.2368,-412.5809 743.2435,-410.5742 747,-409.2 747,-409.2 747,-409.2 743.2435,-410.5742 745.7632,-405.8191 739.4869,-411.9484 739.4869,-411.9484"/>
<ellipse fill="none" stroke="#000000" cx="736.4817" cy="-413.0478" rx="3.2" ry="3.2"/>
</g>
<!-- messages&#45;&gt;chats -->
<g id="edge5" class="edge">
<title>messages:w&#45;&gt;chats:e</title>
<path fill="none" stroke="#000000" d="M560.8968,-446.6614C542.3647,-447.8992 533.0817,-451.2 509,-451.2"/>
<polygon fill="#000000" stroke="#000000" points="567.504,-446.4527 575.6137,-449.7982 571.502,-446.3264 575.5,-446.2 575.5,-446.2 575.5,-446.2 571.502,-446.3264 575.3863,-442.6018 567.504,-446.4527 567.504,-446.4527"/>
<ellipse fill="none" stroke="#000000" cx="564.3056" cy="-446.5538" rx="3.2" ry="3.2"/>
</g>
<!-- messages&#45;&gt;patients -->
<g id="edge6" class="edge">
<title>messages:w&#45;&gt;patients:e</title>
<path fill="none" stroke="#000000" d="M561.6142,-419.5288C549.8443,-408.6358 554.9813,-381.6117 534,-370.2 466.2347,-333.3424 438.1402,-356.2 361,-356.2"/>
<polygon fill="#000000" stroke="#000000" points="567.9175,-421.6492 574.3521,-427.6121 571.7088,-422.9246 575.5,-424.2 575.5,-424.2 575.5,-424.2 571.7088,-422.9246 576.6479,-420.7879 567.9175,-421.6492 567.9175,-421.6492"/>
<ellipse fill="none" stroke="#000000" cx="564.8846" cy="-420.6289" rx="3.2" ry="3.2"/>
</g>
<!-- responses -->
<g id="node7" class="node">
<title>responses</title>
<g id="a_node7"><a xlink:href="../../tables/responses.html" xlink:title="responses" target="_top">
<polygon fill="#ffffff" stroke="transparent" points="419.5,-155.7 419.5,-304.7 518.5,-304.7 518.5,-155.7 419.5,-155.7"/>
<polygon fill="#f5f5f5" stroke="transparent" points="420,-281.2 420,-304.2 519,-304.2 519,-281.2 420,-281.2"/>
<polygon fill="none" stroke="#000000" points="420,-281.2 420,-304.2 519,-304.2 519,-281.2 420,-281.2"/>
<text text-anchor="start" x="425" y="-289.8" font-family="Helvetica,sans-Serif" font-weight="bold" font-size="11.00" fill="#000000">responses</text>
<text text-anchor="start" x="484.5219" y="-289.3" font-family="Helvetica,sans-Serif" font-size="11.00" fill="#000000">[table]</text>
<polygon fill="none" stroke="#000000" points="420,-259.2 420,-281.2 519,-281.2 519,-259.2 420,-259.2"/>
<image xlink:href="../../images/primaryKeys.png" width="11px" height="12px" preserveAspectRatio="xMinYMin meet" x="425" y="-276.2"/>
<text text-anchor="start" x="441" y="-266.3" font-family="Helvetica,sans-Serif" font-size="11.00" fill="#000000">id_responses</text>
<polygon fill="none" stroke="#000000" points="420,-237.2 420,-259.2 519,-259.2 519,-237.2 420,-237.2"/>
<image xlink:href="../../images/foreignKeys.png" width="11px" height="12px" preserveAspectRatio="xMinYMin meet" x="425" y="-254.2"/>
<text text-anchor="start" x="441" y="-244.3" font-family="Helvetica,sans-Serif" font-size="11.00" fill="#000000">formId</text>
<polygon fill="none" stroke="#000000" points="420,-215.2 420,-237.2 519,-237.2 519,-215.2 420,-215.2"/>
<image xlink:href="../../images/foreignKeys.png" width="11px" height="12px" preserveAspectRatio="xMinYMin meet" x="425" y="-232.2"/>
<text text-anchor="start" x="441" y="-222.3" font-family="Helvetica,sans-Serif" font-size="11.00" fill="#000000">submittedBy</text>
<polygon fill="none" stroke="#000000" points="420,-193.2 420,-215.2 519,-215.2 519,-193.2 420,-193.2"/>
<image xlink:href="../../images/foreignKeys.png" width="11px" height="12px" preserveAspectRatio="xMinYMin meet" x="425" y="-210.2"/>
<text text-anchor="start" x="441" y="-200.3" font-family="Helvetica,sans-Serif" font-size="11.00" fill="#000000">assignedBy</text>
<polygon fill="none" stroke="#000000" points="420,-174.2 420,-193.2 519,-193.2 519,-174.2 420,-174.2"/>
<text text-anchor="start" x="423" y="-180.3" font-family="Helvetica,sans-Serif" font-size="11.00" fill="#000000">...</text>
<polygon fill="#ffffff" stroke="transparent" points="420,-155.2 420,-174.2 450,-174.2 450,-155.2 420,-155.2"/>
<polygon fill="none" stroke="#000000" points="420,-155.2 420,-174.2 450,-174.2 450,-155.2 420,-155.2"/>
<text text-anchor="start" x="423" y="-161.3" font-family="Helvetica,sans-Serif" font-size="11.00" fill="#000000">&lt; 3</text>
<polygon fill="#ffffff" stroke="transparent" points="450,-155.2 450,-174.2 493,-174.2 493,-155.2 450,-155.2"/>
<polygon fill="none" stroke="#000000" points="450,-155.2 450,-174.2 493,-174.2 493,-155.2 450,-155.2"/>
<text text-anchor="start" x="457.6105" y="-161.3" font-family="Helvetica,sans-Serif" font-size="11.00" fill="#000000">0 rows</text>
<polygon fill="#ffffff" stroke="transparent" points="493,-155.2 493,-174.2 519,-174.2 519,-155.2 493,-155.2"/>
<polygon fill="none" stroke="#000000" points="493,-155.2 493,-174.2 519,-174.2 519,-155.2 493,-155.2"/>
<text text-anchor="start" x="500.4053" y="-161.3" font-family="Helvetica,sans-Serif" font-size="11.00" fill="#000000">1 &gt;</text>
</a>
</g>
</g>
<!-- responses&#45;&gt;patients -->
<g id="edge8" class="edge">
<title>responses:w&#45;&gt;patients:e</title>
<path fill="none" stroke="#000000" d="M405.8885,-229.1595C367.6907,-248.51 418.7492,-356.2 361,-356.2"/>
<polygon fill="#000000" stroke="#000000" points="412.1703,-227.8421 420.7389,-229.7234 416.0852,-227.021 420,-226.2 420,-226.2 420,-226.2 416.0852,-227.021 419.2611,-222.6766 412.1703,-227.8421 412.1703,-227.8421"/>
<ellipse fill="none" stroke="#000000" cx="409.0385" cy="-228.4989" rx="3.2" ry="3.2"/>
</g>
</g>
</svg>
