<?xml version="1.0" encoding="UTF-8" standalone="no"?>
<!DOCTYPE svg PUBLIC "-//W3C//DTD SVG 1.1//EN"
 "http://www.w3.org/Graphics/SVG/1.1/DTD/svg11.dtd">
<!-- Generated by graphviz version 2.40.1 (20161225.0304)
 -->
<!-- Title: oneDegreeRelationshipsDiagram Pages: 1 -->
<svg width="405pt" height="325pt"
 viewBox="0.00 0.00 405.00 325.20" xmlns="http://www.w3.org/2000/svg" xmlns:xlink="http://www.w3.org/1999/xlink">
<g id="graph0" class="graph" transform="scale(1 1) rotate(0) translate(4 321.2)">
<title>oneDegreeRelationshipsDiagram</title>
<polygon fill="#ffffff" stroke="transparent" points="-4,4 -4,-321.2 401,-321.2 401,4 -4,4"/>
<text text-anchor="middle" x="72.4936" y="-7.3" font-family="Helvetica,sans-Serif" font-size="11.00" fill="#000000">Generated by SchemaSpy</text>
<!-- question_responses -->
<g id="node1" class="node">
<title>question_responses</title>
<g id="a_node1"><a xlink:href="../../tables/question_responses.html" xlink:title="question_responses" target="_top">
<polygon fill="#ffffff" stroke="transparent" points="156,-62.7 156,-262.7 389,-262.7 389,-62.7 156,-62.7"/>
<polygon fill="#f5f5f5" stroke="transparent" points="158.5,-237.7 158.5,-260.7 387.5,-260.7 387.5,-237.7 158.5,-237.7"/>
<polygon fill="none" stroke="#000000" points="158.5,-237.7 158.5,-260.7 387.5,-260.7 387.5,-237.7 158.5,-237.7"/>
<text text-anchor="start" x="163.5" y="-246.3" font-family="Helvetica,sans-Serif" font-weight="bold" font-size="11.00" fill="#000000">question_responses</text>
<text text-anchor="start" x="352.5437" y="-245.8" font-family="Helvetica,sans-Serif" font-size="11.00" fill="#000000">[table]</text>
<polygon fill="none" stroke="#000000" points="158.5,-215.7 158.5,-237.7 295.5,-237.7 295.5,-215.7 158.5,-215.7"/>
<image xlink:href="../../images/primaryKeys.png" width="11px" height="12px" preserveAspectRatio="xMinYMin meet" x="163.5" y="-232.7"/>
<text text-anchor="start" x="178.5" y="-222.8" font-family="Helvetica,sans-Serif" font-size="11.00" fill="#000000">id_qresponse</text>
<polygon fill="none" stroke="#000000" points="295.5,-215.7 295.5,-237.7 387.5,-237.7 387.5,-215.7 295.5,-215.7"/>
<text text-anchor="start" x="298.5" y="-223.4" font-family="Helvetica,sans-Serif" font-size="11.00" fill="#000000">serial[10]</text>
<polygon fill="none" stroke="#000000" points="158.5,-193.7 158.5,-215.7 295.5,-215.7 295.5,-193.7 158.5,-193.7"/>
<image xlink:href="../../images/foreignKeys.png" width="11px" height="12px" preserveAspectRatio="xMinYMin meet" x="163.5" y="-210.7"/>
<text text-anchor="start" x="178.5" y="-200.8" font-family="Helvetica,sans-Serif" font-size="11.00" fill="#000000">id_responses</text>
<polygon fill="none" stroke="#000000" points="295.5,-193.7 295.5,-215.7 387.5,-215.7 387.5,-193.7 295.5,-193.7"/>
<text text-anchor="start" x="298.5" y="-201.4" font-family="Helvetica,sans-Serif" font-size="11.00" fill="#000000">int4[10]</text>
<polygon fill="none" stroke="#000000" points="158.5,-171.7 158.5,-193.7 295.5,-193.7 295.5,-171.7 158.5,-171.7"/>
<image xlink:href="../../images/foreignKeys.png" width="11px" height="12px" preserveAspectRatio="xMinYMin meet" x="163.5" y="-188.7"/>
<text text-anchor="start" x="178.5" y="-178.8" font-family="Helvetica,sans-Serif" font-size="11.00" fill="#000000">questionId</text>
<polygon fill="none" stroke="#000000" points="295.5,-171.7 295.5,-193.7 387.5,-193.7 387.5,-171.7 295.5,-171.7"/>
<text text-anchor="start" x="298.5" y="-179.4" font-family="Helvetica,sans-Serif" font-size="11.00" fill="#000000">int4[10]</text>
<polygon fill="none" stroke="#000000" points="158.5,-149.7 158.5,-171.7 295.5,-171.7 295.5,-149.7 158.5,-149.7"/>
<text text-anchor="start" x="178.5" y="-156.8" font-family="Helvetica,sans-Serif" font-size="11.00" fill="#000000">selectedOptions</text>
<polygon fill="none" stroke="#000000" points="295.5,-149.7 295.5,-171.7 387.5,-171.7 387.5,-149.7 295.5,-149.7"/>
<text text-anchor="start" x="298.5" y="-157.4" font-family="Helvetica,sans-Serif" font-size="11.00" fill="#000000">_int4[10]</text>
<polygon fill="none" stroke="#000000" points="158.5,-127.7 158.5,-149.7 295.5,-149.7 295.5,-127.7 158.5,-127.7"/>
<text text-anchor="start" x="178.5" y="-134.8" font-family="Helvetica,sans-Serif" font-size="11.00" fill="#000000">textAnswer</text>
<polygon fill="none" stroke="#000000" points="295.5,-127.7 295.5,-149.7 387.5,-149.7 387.5,-127.7 295.5,-127.7"/>
<text text-anchor="start" x="298.5" y="-135.4" font-family="Helvetica,sans-Serif" font-size="11.00" fill="#000000">text[2147483647]</text>
<polygon fill="none" stroke="#000000" points="158.5,-105.7 158.5,-127.7 295.5,-127.7 295.5,-105.7 158.5,-105.7"/>
<text text-anchor="start" x="178.5" y="-112.8" font-family="Helvetica,sans-Serif" font-size="11.00" fill="#000000">createdAt</text>
<polygon fill="none" stroke="#000000" points="295.5,-105.7 295.5,-127.7 387.5,-127.7 387.5,-105.7 295.5,-105.7"/>
<text text-anchor="start" x="298.1023" y="-113.4" font-family="Helvetica,sans-Serif" font-size="11.00" fill="#000000">timestamptz[35,6]</text>
<polygon fill="none" stroke="#000000" points="158.5,-83.7 158.5,-105.7 295.5,-105.7 295.5,-83.7 158.5,-83.7"/>
<text text-anchor="start" x="178.5" y="-90.8" font-family="Helvetica,sans-Serif" font-size="11.00" fill="#000000">updatedAt</text>
<polygon fill="none" stroke="#000000" points="295.5,-83.7 295.5,-105.7 387.5,-105.7 387.5,-83.7 295.5,-83.7"/>
<text text-anchor="start" x="298.1023" y="-91.4" font-family="Helvetica,sans-Serif" font-size="11.00" fill="#000000">timestamptz[35,6]</text>
<polygon fill="#ffffff" stroke="transparent" points="158.5,-64.7 158.5,-83.7 218.5,-83.7 218.5,-64.7 158.5,-64.7"/>
<polygon fill="none" stroke="#000000" points="158.5,-64.7 158.5,-83.7 218.5,-83.7 218.5,-64.7 158.5,-64.7"/>
<text text-anchor="start" x="161.5" y="-70.8" font-family="Helvetica,sans-Serif" font-size="11.00" fill="#000000">&lt; 2</text>
<polygon fill="#ffffff" stroke="transparent" points="218.5,-64.7 218.5,-83.7 295.5,-83.7 295.5,-64.7 218.5,-64.7"/>
<polygon fill="none" stroke="#000000" points="218.5,-64.7 218.5,-83.7 295.5,-83.7 295.5,-64.7 218.5,-64.7"/>
<text text-anchor="start" x="260.1105" y="-70.8" font-family="Helvetica,sans-Serif" font-size="11.00" fill="#000000">0 rows</text>
<polygon fill="#ffffff" stroke="transparent" points="295.5,-64.7 295.5,-83.7 387.5,-83.7 387.5,-64.7 295.5,-64.7"/>
<polygon fill="none" stroke="#000000" points="295.5,-64.7 295.5,-83.7 387.5,-83.7 387.5,-64.7 295.5,-64.7"/>
<text text-anchor="start" x="368.9053" y="-70.8" font-family="Helvetica,sans-Serif" font-size="11.00" fill="#000000">0 &gt;</text>
<polygon fill="none" stroke="#000000" stroke-width="2" points="157,-63.7 157,-261.7 388,-261.7 388,-63.7 157,-63.7"/>
</a>
</g>
</g>
<!-- responses -->
<g id="node2" class="node">
<title>responses</title>
<g id="a_node2"><a xlink:href="../../tables/responses.html" xlink:title="responses" target="_top">
<polygon fill="#ffffff" stroke="transparent" points="8,-164.2 8,-313.2 107,-313.2 107,-164.2 8,-164.2"/>
<polygon fill="#f5f5f5" stroke="transparent" points="8.5,-289.7 8.5,-312.7 107.5,-312.7 107.5,-289.7 8.5,-289.7"/>
<polygon fill="none" stroke="#000000" points="8.5,-289.7 8.5,-312.7 107.5,-312.7 107.5,-289.7 8.5,-289.7"/>
<text text-anchor="start" x="13.5" y="-298.3" font-family="Helvetica,sans-Serif" font-weight="bold" font-size="11.00" fill="#000000">responses</text>
<text text-anchor="start" x="73.0219" y="-297.8" font-family="Helvetica,sans-Serif" font-size="11.00" fill="#000000">[table]</text>
<polygon fill="none" stroke="#000000" points="8.5,-267.7 8.5,-289.7 107.5,-289.7 107.5,-267.7 8.5,-267.7"/>
<image xlink:href="../../images/primaryKeys.png" width="11px" height="12px" preserveAspectRatio="xMinYMin meet" x="13.5" y="-284.7"/>
<text text-anchor="start" x="29.5" y="-274.8" font-family="Helvetica,sans-Serif" font-size="11.00" fill="#000000">id_responses</text>
<polygon fill="none" stroke="#000000" points="8.5,-245.7 8.5,-267.7 107.5,-267.7 107.5,-245.7 8.5,-245.7"/>
<image xlink:href="../../images/foreignKeys.png" width="11px" height="12px" preserveAspectRatio="xMinYMin meet" x="13.5" y="-262.7"/>
<text text-anchor="start" x="29.5" y="-252.8" font-family="Helvetica,sans-Serif" font-size="11.00" fill="#000000">formId</text>
<polygon fill="none" stroke="#000000" points="8.5,-223.7 8.5,-245.7 107.5,-245.7 107.5,-223.7 8.5,-223.7"/>
<image xlink:href="../../images/foreignKeys.png" width="11px" height="12px" preserveAspectRatio="xMinYMin meet" x="13.5" y="-240.7"/>
<text text-anchor="start" x="29.5" y="-230.8" font-family="Helvetica,sans-Serif" font-size="11.00" fill="#000000">submittedBy</text>
<polygon fill="none" stroke="#000000" points="8.5,-201.7 8.5,-223.7 107.5,-223.7 107.5,-201.7 8.5,-201.7"/>
<image xlink:href="../../images/foreignKeys.png" width="11px" height="12px" preserveAspectRatio="xMinYMin meet" x="13.5" y="-218.7"/>
<text text-anchor="start" x="29.5" y="-208.8" font-family="Helvetica,sans-Serif" font-size="11.00" fill="#000000">assignedBy</text>
<polygon fill="none" stroke="#000000" points="8.5,-182.7 8.5,-201.7 107.5,-201.7 107.5,-182.7 8.5,-182.7"/>
<text text-anchor="start" x="11.5" y="-188.8" font-family="Helvetica,sans-Serif" font-size="11.00" fill="#000000">...</text>
<polygon fill="#ffffff" stroke="transparent" points="8.5,-163.7 8.5,-182.7 38.5,-182.7 38.5,-163.7 8.5,-163.7"/>
<polygon fill="none" stroke="#000000" points="8.5,-163.7 8.5,-182.7 38.5,-182.7 38.5,-163.7 8.5,-163.7"/>
<text text-anchor="start" x="11.5" y="-169.8" font-family="Helvetica,sans-Serif" font-size="11.00" fill="#000000">&lt; 3</text>
<polygon fill="#ffffff" stroke="transparent" points="38.5,-163.7 38.5,-182.7 81.5,-182.7 81.5,-163.7 38.5,-163.7"/>
<polygon fill="none" stroke="#000000" points="38.5,-163.7 38.5,-182.7 81.5,-182.7 81.5,-163.7 38.5,-163.7"/>
<text text-anchor="start" x="46.1105" y="-169.8" font-family="Helvetica,sans-Serif" font-size="11.00" fill="#000000">0 rows</text>
<polygon fill="#ffffff" stroke="transparent" points="81.5,-163.7 81.5,-182.7 107.5,-182.7 107.5,-163.7 81.5,-163.7"/>
<polygon fill="none" stroke="#000000" points="81.5,-163.7 81.5,-182.7 107.5,-182.7 107.5,-163.7 81.5,-163.7"/>
<text text-anchor="start" x="88.9053" y="-169.8" font-family="Helvetica,sans-Serif" font-size="11.00" fill="#000000">1 &gt;</text>
</a>
</g>
</g>
<!-- question_responses&#45;&gt;responses -->
<g id="edge1" class="edge">
<title>question_responses:w&#45;&gt;responses:e</title>
<path fill="none" stroke="#000000" d="M144.5503,-209.329C125.7607,-225.5294 141.3581,-278.7 107.5,-278.7"/>
<polygon fill="#000000" stroke="#000000" points="150.9071,-207.2196 159.6338,-208.1168 154.7036,-205.9598 158.5,-204.7 158.5,-204.7 158.5,-204.7 154.7036,-205.9598 157.3662,-201.2832 150.9071,-207.2196 150.9071,-207.2196"/>
<ellipse fill="none" stroke="#000000" cx="147.87" cy="-208.2275" rx="3.2" ry="3.2"/>
</g>
<!-- questions -->
<g id="node3" class="node">
<title>questions</title>
<g id="a_node3"><a xlink:href="../../tables/questions.html" xlink:title="questions" target="_top">
<polygon fill="#ffffff" stroke="transparent" points="10,-38.2 10,-143.2 105,-143.2 105,-38.2 10,-38.2"/>
<polygon fill="#f5f5f5" stroke="transparent" points="10.5,-119.7 10.5,-142.7 105.5,-142.7 105.5,-119.7 10.5,-119.7"/>
<polygon fill="none" stroke="#000000" points="10.5,-119.7 10.5,-142.7 105.5,-142.7 105.5,-119.7 10.5,-119.7"/>
<text text-anchor="start" x="15.5" y="-128.3" font-family="Helvetica,sans-Serif" font-weight="bold" font-size="11.00" fill="#000000">questions</text>
<text text-anchor="start" x="71.0219" y="-127.8" font-family="Helvetica,sans-Serif" font-size="11.00" fill="#000000">[table]</text>
<polygon fill="none" stroke="#000000" points="10.5,-97.7 10.5,-119.7 105.5,-119.7 105.5,-97.7 10.5,-97.7"/>
<image xlink:href="../../images/primaryKeys.png" width="11px" height="12px" preserveAspectRatio="xMinYMin meet" x="15.5" y="-114.7"/>
<text text-anchor="start" x="30.5" y="-104.8" font-family="Helvetica,sans-Serif" font-size="11.00" fill="#000000">id_questions</text>
<polygon fill="none" stroke="#000000" points="10.5,-75.7 10.5,-97.7 105.5,-97.7 105.5,-75.7 10.5,-75.7"/>
<image xlink:href="../../images/foreignKeys.png" width="11px" height="12px" preserveAspectRatio="xMinYMin meet" x="15.5" y="-92.7"/>
<text text-anchor="start" x="30.5" y="-82.8" font-family="Helvetica,sans-Serif" font-size="11.00" fill="#000000">formId</text>
<polygon fill="none" stroke="#000000" points="10.5,-56.7 10.5,-75.7 105.5,-75.7 105.5,-56.7 10.5,-56.7"/>
<text text-anchor="start" x="13.5" y="-62.8" font-family="Helvetica,sans-Serif" font-size="11.00" fill="#000000">...</text>
<polygon fill="#ffffff" stroke="transparent" points="10.5,-37.7 10.5,-56.7 38.5,-56.7 38.5,-37.7 10.5,-37.7"/>
<polygon fill="none" stroke="#000000" points="10.5,-37.7 10.5,-56.7 38.5,-56.7 38.5,-37.7 10.5,-37.7"/>
<text text-anchor="start" x="13.5" y="-43.8" font-family="Helvetica,sans-Serif" font-size="11.00" fill="#000000">&lt; 1</text>
<polygon fill="#ffffff" stroke="transparent" points="38.5,-37.7 38.5,-56.7 80.5,-56.7 80.5,-37.7 38.5,-37.7"/>
<polygon fill="none" stroke="#000000" points="38.5,-37.7 38.5,-56.7 80.5,-56.7 80.5,-37.7 38.5,-37.7"/>
<text text-anchor="start" x="45.1105" y="-43.8" font-family="Helvetica,sans-Serif" font-size="11.00" fill="#000000">0 rows</text>
<polygon fill="#ffffff" stroke="transparent" points="80.5,-37.7 80.5,-56.7 105.5,-56.7 105.5,-37.7 80.5,-37.7"/>
<polygon fill="none" stroke="#000000" points="80.5,-37.7 80.5,-56.7 105.5,-56.7 105.5,-37.7 80.5,-37.7"/>
<text text-anchor="start" x="86.9053" y="-43.8" font-family="Helvetica,sans-Serif" font-size="11.00" fill="#000000">2 &gt;</text>
</a>
</g>
</g>
<!-- question_responses&#45;&gt;questions -->
<g id="edge2" class="edge">
<title>question_responses:w&#45;&gt;questions:e</title>
<path fill="none" stroke="#000000" d="M144.5569,-178.2926C124.8248,-162.3617 139.9493,-108.7 105.5,-108.7"/>
<polygon fill="#000000" stroke="#000000" points="150.872,-180.2888 157.4149,-186.1326 154.686,-181.4944 158.5,-182.7 158.5,-182.7 158.5,-182.7 154.686,-181.4944 159.5851,-179.2674 150.872,-180.2888 150.872,-180.2888"/>
<ellipse fill="none" stroke="#000000" cx="147.8208" cy="-179.3243" rx="3.2" ry="3.2"/>
</g>
</g>
</svg>
