<?xml version="1.0" encoding="UTF-8" standalone="no"?>
<!DOCTYPE svg PUBLIC "-//W3C//DTD SVG 1.1//EN"
 "http://www.w3.org/Graphics/SVG/1.1/DTD/svg11.dtd">
<!-- Generated by graphviz version 2.40.1 (20161225.0304)
 -->
<!-- Title: twoDegreesRelationshipsDiagram Pages: 1 -->
<svg width="539pt" height="343pt"
 viewBox="0.00 0.00 539.00 342.70" xmlns="http://www.w3.org/2000/svg" xmlns:xlink="http://www.w3.org/1999/xlink">
<g id="graph0" class="graph" transform="scale(1 1) rotate(0) translate(4 338.7)">
<title>twoDegreesRelationshipsDiagram</title>
<polygon fill="#ffffff" stroke="transparent" points="-4,4 -4,-338.7 535,-338.7 535,4 -4,4"/>
<text text-anchor="middle" x="72.4936" y="-7.3" font-family="Helvetica,sans-Serif" font-size="11.00" fill="#000000">Generated by SchemaSpy</text>
<!-- options -->
<g id="node1" class="node">
<title>options</title>
<g id="a_node1"><a xlink:href="../../tables/options.html" xlink:title="options" target="_top">
<polygon fill="#ffffff" stroke="transparent" points="365.5,-268.7 365.5,-329.7 447.5,-329.7 447.5,-268.7 365.5,-268.7"/>
<polygon fill="#f5f5f5" stroke="transparent" points="365.5,-306.2 365.5,-329.2 447.5,-329.2 447.5,-306.2 365.5,-306.2"/>
<polygon fill="none" stroke="#000000" points="365.5,-306.2 365.5,-329.2 447.5,-329.2 447.5,-306.2 365.5,-306.2"/>
<text text-anchor="start" x="370.5" y="-314.8" font-family="Helvetica,sans-Serif" font-weight="bold" font-size="11.00" fill="#000000">options</text>
<text text-anchor="start" x="413.0219" y="-314.3" font-family="Helvetica,sans-Serif" font-size="11.00" fill="#000000">[table]</text>
<polygon fill="none" stroke="#000000" points="365.5,-287.2 365.5,-306.2 447.5,-306.2 447.5,-287.2 365.5,-287.2"/>
<text text-anchor="start" x="368.5" y="-293.3" font-family="Helvetica,sans-Serif" font-size="11.00" fill="#000000">...</text>
<polygon fill="#ffffff" stroke="transparent" points="365.5,-268.2 365.5,-287.2 391.5,-287.2 391.5,-268.2 365.5,-268.2"/>
<polygon fill="none" stroke="#000000" points="365.5,-268.2 365.5,-287.2 391.5,-287.2 391.5,-268.2 365.5,-268.2"/>
<text text-anchor="start" x="368.5" y="-274.3" font-family="Helvetica,sans-Serif" font-size="11.00" fill="#000000">&lt; 1</text>
<polygon fill="#ffffff" stroke="transparent" points="391.5,-268.2 391.5,-287.2 432.5,-287.2 432.5,-268.2 391.5,-268.2"/>
<polygon fill="none" stroke="#000000" points="391.5,-268.2 391.5,-287.2 432.5,-287.2 432.5,-268.2 391.5,-268.2"/>
<text text-anchor="start" x="397.1105" y="-274.3" font-family="Helvetica,sans-Serif" font-size="11.00" fill="#000000">0 rows</text>
<polygon fill="#ffffff" stroke="transparent" points="432.5,-268.2 432.5,-287.2 447.5,-287.2 447.5,-268.2 432.5,-268.2"/>
<polygon fill="none" stroke="#000000" points="432.5,-268.2 432.5,-287.2 447.5,-287.2 447.5,-268.2 432.5,-268.2"/>
<text text-anchor="start" x="438.3862" y="-274.3" font-family="Helvetica,sans-Serif" font-size="11.00" fill="#000000"> &#160;</text>
</a>
</g>
</g>
<!-- questions -->
<g id="node2" class="node">
<title>questions</title>
<g id="a_node2"><a xlink:href="../../tables/questions.html" xlink:title="questions" target="_top">
<polygon fill="#ffffff" stroke="transparent" points="144,-225.7 144,-330.7 239,-330.7 239,-225.7 144,-225.7"/>
<polygon fill="#f5f5f5" stroke="transparent" points="144.5,-307.2 144.5,-330.2 239.5,-330.2 239.5,-307.2 144.5,-307.2"/>
<polygon fill="none" stroke="#000000" points="144.5,-307.2 144.5,-330.2 239.5,-330.2 239.5,-307.2 144.5,-307.2"/>
<text text-anchor="start" x="149.5" y="-315.8" font-family="Helvetica,sans-Serif" font-weight="bold" font-size="11.00" fill="#000000">questions</text>
<text text-anchor="start" x="205.0219" y="-315.3" font-family="Helvetica,sans-Serif" font-size="11.00" fill="#000000">[table]</text>
<polygon fill="none" stroke="#000000" points="144.5,-285.2 144.5,-307.2 239.5,-307.2 239.5,-285.2 144.5,-285.2"/>
<image xlink:href="../../images/primaryKeys.png" width="11px" height="12px" preserveAspectRatio="xMinYMin meet" x="149.5" y="-302.2"/>
<text text-anchor="start" x="164.5" y="-292.3" font-family="Helvetica,sans-Serif" font-size="11.00" fill="#000000">id_questions</text>
<polygon fill="none" stroke="#000000" points="144.5,-263.2 144.5,-285.2 239.5,-285.2 239.5,-263.2 144.5,-263.2"/>
<image xlink:href="../../images/foreignKeys.png" width="11px" height="12px" preserveAspectRatio="xMinYMin meet" x="149.5" y="-280.2"/>
<text text-anchor="start" x="164.5" y="-270.3" font-family="Helvetica,sans-Serif" font-size="11.00" fill="#000000">formId</text>
<polygon fill="none" stroke="#000000" points="144.5,-244.2 144.5,-263.2 239.5,-263.2 239.5,-244.2 144.5,-244.2"/>
<text text-anchor="start" x="147.5" y="-250.3" font-family="Helvetica,sans-Serif" font-size="11.00" fill="#000000">...</text>
<polygon fill="#ffffff" stroke="transparent" points="144.5,-225.2 144.5,-244.2 172.5,-244.2 172.5,-225.2 144.5,-225.2"/>
<polygon fill="none" stroke="#000000" points="144.5,-225.2 144.5,-244.2 172.5,-244.2 172.5,-225.2 144.5,-225.2"/>
<text text-anchor="start" x="147.5" y="-231.3" font-family="Helvetica,sans-Serif" font-size="11.00" fill="#000000">&lt; 1</text>
<polygon fill="#ffffff" stroke="transparent" points="172.5,-225.2 172.5,-244.2 214.5,-244.2 214.5,-225.2 172.5,-225.2"/>
<polygon fill="none" stroke="#000000" points="172.5,-225.2 172.5,-244.2 214.5,-244.2 214.5,-225.2 172.5,-225.2"/>
<text text-anchor="start" x="179.1105" y="-231.3" font-family="Helvetica,sans-Serif" font-size="11.00" fill="#000000">0 rows</text>
<polygon fill="#ffffff" stroke="transparent" points="214.5,-225.2 214.5,-244.2 239.5,-244.2 239.5,-225.2 214.5,-225.2"/>
<polygon fill="none" stroke="#000000" points="214.5,-225.2 214.5,-244.2 239.5,-244.2 239.5,-225.2 214.5,-225.2"/>
<text text-anchor="start" x="220.9053" y="-231.3" font-family="Helvetica,sans-Serif" font-size="11.00" fill="#000000">2 &gt;</text>
</a>
</g>
</g>
<!-- options&#45;&gt;questions -->
<g id="edge1" class="edge">
<title>options:w&#45;&gt;questions:e</title>
<path fill="none" stroke="#000000" d="M351.0749,-296.2C306.5758,-296.2 290.3594,-296.2 239.5,-296.2"/>
<polygon fill="#000000" stroke="#000000" points="357.5,-296.2001 365.5,-299.8 361.5,-296.2 365.5,-296.2 365.5,-296.2 365.5,-296.2 361.5,-296.2 365.5,-292.6 357.5,-296.2001 357.5,-296.2001"/>
<ellipse fill="none" stroke="#000000" cx="354.3" cy="-296.2001" rx="3.2" ry="3.2"/>
</g>
<!-- forms -->
<g id="node5" class="node">
<title>forms</title>
<g id="a_node5"><a xlink:href="../../tables/forms.html" xlink:title="forms" target="_top">
<polygon fill="#ffffff" stroke="transparent" points="14.5,-228.7 14.5,-289.7 86.5,-289.7 86.5,-228.7 14.5,-228.7"/>
<polygon fill="#f5f5f5" stroke="transparent" points="14.5,-266.2 14.5,-289.2 86.5,-289.2 86.5,-266.2 14.5,-266.2"/>
<polygon fill="none" stroke="#000000" points="14.5,-266.2 14.5,-289.2 86.5,-289.2 86.5,-266.2 14.5,-266.2"/>
<text text-anchor="start" x="19.5" y="-274.8" font-family="Helvetica,sans-Serif" font-weight="bold" font-size="11.00" fill="#000000">forms</text>
<text text-anchor="start" x="52.0219" y="-274.3" font-family="Helvetica,sans-Serif" font-size="11.00" fill="#000000">[table]</text>
<polygon fill="none" stroke="#000000" points="14.5,-247.2 14.5,-266.2 86.5,-266.2 86.5,-247.2 14.5,-247.2"/>
<text text-anchor="start" x="17.5" y="-253.3" font-family="Helvetica,sans-Serif" font-size="11.00" fill="#000000">...</text>
<polygon fill="#ffffff" stroke="transparent" points="14.5,-228.2 14.5,-247.2 26.5,-247.2 26.5,-228.2 14.5,-228.2"/>
<polygon fill="none" stroke="#000000" points="14.5,-228.2 14.5,-247.2 26.5,-247.2 26.5,-228.2 14.5,-228.2"/>
<text text-anchor="start" x="17.4431" y="-234.3" font-family="Helvetica,sans-Serif" font-size="11.00" fill="#000000"> &#160;</text>
<polygon fill="#ffffff" stroke="transparent" points="26.5,-228.2 26.5,-247.2 64.5,-247.2 64.5,-228.2 26.5,-228.2"/>
<polygon fill="none" stroke="#000000" points="26.5,-228.2 26.5,-247.2 64.5,-247.2 64.5,-228.2 26.5,-228.2"/>
<text text-anchor="start" x="29.3053" y="-234.3" font-family="Helvetica,sans-Serif" font-size="11.00" fill="#000000">0 rows</text>
<polygon fill="#ffffff" stroke="transparent" points="64.5,-228.2 64.5,-247.2 86.5,-247.2 86.5,-228.2 64.5,-228.2"/>
<polygon fill="none" stroke="#000000" points="64.5,-228.2 64.5,-247.2 86.5,-247.2 86.5,-228.2 64.5,-228.2"/>
<text text-anchor="start" x="67.9053" y="-234.3" font-family="Helvetica,sans-Serif" font-size="11.00" fill="#000000">2 &gt;</text>
</a>
</g>
</g>
<!-- questions&#45;&gt;forms -->
<g id="edge4" class="edge">
<title>questions:w&#45;&gt;forms:e</title>
<path fill="none" stroke="#000000" d="M130.0552,-272.1352C114.7918,-267.4072 107.7973,-256.2 86.5,-256.2"/>
<polygon fill="#000000" stroke="#000000" points="136.5805,-273.0679 143.9906,-277.7638 140.5403,-273.6339 144.5,-274.2 144.5,-274.2 144.5,-274.2 140.5403,-273.6339 145.0094,-270.6362 136.5805,-273.0679 136.5805,-273.0679"/>
<ellipse fill="none" stroke="#000000" cx="133.4127" cy="-272.6151" rx="3.2" ry="3.2"/>
</g>
<!-- question_responses -->
<g id="node3" class="node">
<title>question_responses</title>
<g id="a_node3"><a xlink:href="../../tables/question_responses.html" xlink:title="question_responses" target="_top">
<polygon fill="#ffffff" stroke="transparent" points="290,-38.2 290,-238.2 523,-238.2 523,-38.2 290,-38.2"/>
<polygon fill="#f5f5f5" stroke="transparent" points="292.5,-213.2 292.5,-236.2 521.5,-236.2 521.5,-213.2 292.5,-213.2"/>
<polygon fill="none" stroke="#000000" points="292.5,-213.2 292.5,-236.2 521.5,-236.2 521.5,-213.2 292.5,-213.2"/>
<text text-anchor="start" x="297.5" y="-221.8" font-family="Helvetica,sans-Serif" font-weight="bold" font-size="11.00" fill="#000000">question_responses</text>
<text text-anchor="start" x="486.5437" y="-221.3" font-family="Helvetica,sans-Serif" font-size="11.00" fill="#000000">[table]</text>
<polygon fill="none" stroke="#000000" points="292.5,-191.2 292.5,-213.2 429.5,-213.2 429.5,-191.2 292.5,-191.2"/>
<image xlink:href="../../images/primaryKeys.png" width="11px" height="12px" preserveAspectRatio="xMinYMin meet" x="297.5" y="-208.2"/>
<text text-anchor="start" x="312.5" y="-198.3" font-family="Helvetica,sans-Serif" font-size="11.00" fill="#000000">id_qresponse</text>
<polygon fill="none" stroke="#000000" points="429.5,-191.2 429.5,-213.2 521.5,-213.2 521.5,-191.2 429.5,-191.2"/>
<text text-anchor="start" x="432.5" y="-198.9" font-family="Helvetica,sans-Serif" font-size="11.00" fill="#000000">serial[10]</text>
<polygon fill="none" stroke="#000000" points="292.5,-169.2 292.5,-191.2 429.5,-191.2 429.5,-169.2 292.5,-169.2"/>
<image xlink:href="../../images/foreignKeys.png" width="11px" height="12px" preserveAspectRatio="xMinYMin meet" x="297.5" y="-186.2"/>
<text text-anchor="start" x="312.5" y="-176.3" font-family="Helvetica,sans-Serif" font-size="11.00" fill="#000000">id_responses</text>
<polygon fill="none" stroke="#000000" points="429.5,-169.2 429.5,-191.2 521.5,-191.2 521.5,-169.2 429.5,-169.2"/>
<text text-anchor="start" x="432.5" y="-176.9" font-family="Helvetica,sans-Serif" font-size="11.00" fill="#000000">int4[10]</text>
<polygon fill="none" stroke="#000000" points="292.5,-147.2 292.5,-169.2 429.5,-169.2 429.5,-147.2 292.5,-147.2"/>
<image xlink:href="../../images/foreignKeys.png" width="11px" height="12px" preserveAspectRatio="xMinYMin meet" x="297.5" y="-164.2"/>
<text text-anchor="start" x="312.5" y="-154.3" font-family="Helvetica,sans-Serif" font-size="11.00" fill="#000000">questionId</text>
<polygon fill="none" stroke="#000000" points="429.5,-147.2 429.5,-169.2 521.5,-169.2 521.5,-147.2 429.5,-147.2"/>
<text text-anchor="start" x="432.5" y="-154.9" font-family="Helvetica,sans-Serif" font-size="11.00" fill="#000000">int4[10]</text>
<polygon fill="none" stroke="#000000" points="292.5,-125.2 292.5,-147.2 429.5,-147.2 429.5,-125.2 292.5,-125.2"/>
<text text-anchor="start" x="312.5" y="-132.3" font-family="Helvetica,sans-Serif" font-size="11.00" fill="#000000">selectedOptions</text>
<polygon fill="none" stroke="#000000" points="429.5,-125.2 429.5,-147.2 521.5,-147.2 521.5,-125.2 429.5,-125.2"/>
<text text-anchor="start" x="432.5" y="-132.9" font-family="Helvetica,sans-Serif" font-size="11.00" fill="#000000">_int4[10]</text>
<polygon fill="none" stroke="#000000" points="292.5,-103.2 292.5,-125.2 429.5,-125.2 429.5,-103.2 292.5,-103.2"/>
<text text-anchor="start" x="312.5" y="-110.3" font-family="Helvetica,sans-Serif" font-size="11.00" fill="#000000">textAnswer</text>
<polygon fill="none" stroke="#000000" points="429.5,-103.2 429.5,-125.2 521.5,-125.2 521.5,-103.2 429.5,-103.2"/>
<text text-anchor="start" x="432.5" y="-110.9" font-family="Helvetica,sans-Serif" font-size="11.00" fill="#000000">text[2147483647]</text>
<polygon fill="none" stroke="#000000" points="292.5,-81.2 292.5,-103.2 429.5,-103.2 429.5,-81.2 292.5,-81.2"/>
<text text-anchor="start" x="312.5" y="-88.3" font-family="Helvetica,sans-Serif" font-size="11.00" fill="#000000">createdAt</text>
<polygon fill="none" stroke="#000000" points="429.5,-81.2 429.5,-103.2 521.5,-103.2 521.5,-81.2 429.5,-81.2"/>
<text text-anchor="start" x="432.1023" y="-88.9" font-family="Helvetica,sans-Serif" font-size="11.00" fill="#000000">timestamptz[35,6]</text>
<polygon fill="none" stroke="#000000" points="292.5,-59.2 292.5,-81.2 429.5,-81.2 429.5,-59.2 292.5,-59.2"/>
<text text-anchor="start" x="312.5" y="-66.3" font-family="Helvetica,sans-Serif" font-size="11.00" fill="#000000">updatedAt</text>
<polygon fill="none" stroke="#000000" points="429.5,-59.2 429.5,-81.2 521.5,-81.2 521.5,-59.2 429.5,-59.2"/>
<text text-anchor="start" x="432.1023" y="-66.9" font-family="Helvetica,sans-Serif" font-size="11.00" fill="#000000">timestamptz[35,6]</text>
<polygon fill="#ffffff" stroke="transparent" points="292.5,-40.2 292.5,-59.2 352.5,-59.2 352.5,-40.2 292.5,-40.2"/>
<polygon fill="none" stroke="#000000" points="292.5,-40.2 292.5,-59.2 352.5,-59.2 352.5,-40.2 292.5,-40.2"/>
<text text-anchor="start" x="295.5" y="-46.3" font-family="Helvetica,sans-Serif" font-size="11.00" fill="#000000">&lt; 2</text>
<polygon fill="#ffffff" stroke="transparent" points="352.5,-40.2 352.5,-59.2 429.5,-59.2 429.5,-40.2 352.5,-40.2"/>
<polygon fill="none" stroke="#000000" points="352.5,-40.2 352.5,-59.2 429.5,-59.2 429.5,-40.2 352.5,-40.2"/>
<text text-anchor="start" x="394.1105" y="-46.3" font-family="Helvetica,sans-Serif" font-size="11.00" fill="#000000">0 rows</text>
<polygon fill="#ffffff" stroke="transparent" points="429.5,-40.2 429.5,-59.2 521.5,-59.2 521.5,-40.2 429.5,-40.2"/>
<polygon fill="none" stroke="#000000" points="429.5,-40.2 429.5,-59.2 521.5,-59.2 521.5,-40.2 429.5,-40.2"/>
<text text-anchor="start" x="502.9053" y="-46.3" font-family="Helvetica,sans-Serif" font-size="11.00" fill="#000000">0 &gt;</text>
<polygon fill="none" stroke="#000000" stroke-width="2" points="291,-39.2 291,-237.2 522,-237.2 522,-39.2 291,-39.2"/>
</a>
</g>
</g>
<!-- question_responses&#45;&gt;questions -->
<g id="edge3" class="edge">
<title>question_responses:w&#45;&gt;questions:e</title>
<path fill="none" stroke="#000000" d="M278.072,-161.3416C239.7236,-181.883 299.2983,-296.2 239.5,-296.2"/>
<polygon fill="#000000" stroke="#000000" points="284.6832,-159.9021 293.266,-161.7176 288.5916,-159.0511 292.5,-158.2 292.5,-158.2 292.5,-158.2 288.5916,-159.0511 291.734,-154.6824 284.6832,-159.9021 284.6832,-159.9021"/>
<ellipse fill="none" stroke="#000000" cx="281.5564" cy="-160.583" rx="3.2" ry="3.2"/>
</g>
<!-- responses -->
<g id="node4" class="node">
<title>responses</title>
<g id="a_node4"><a xlink:href="../../tables/responses.html" xlink:title="responses" target="_top">
<polygon fill="#ffffff" stroke="transparent" points="142,-55.7 142,-204.7 241,-204.7 241,-55.7 142,-55.7"/>
<polygon fill="#f5f5f5" stroke="transparent" points="142.5,-181.2 142.5,-204.2 241.5,-204.2 241.5,-181.2 142.5,-181.2"/>
<polygon fill="none" stroke="#000000" points="142.5,-181.2 142.5,-204.2 241.5,-204.2 241.5,-181.2 142.5,-181.2"/>
<text text-anchor="start" x="147.5" y="-189.8" font-family="Helvetica,sans-Serif" font-weight="bold" font-size="11.00" fill="#000000">responses</text>
<text text-anchor="start" x="207.0219" y="-189.3" font-family="Helvetica,sans-Serif" font-size="11.00" fill="#000000">[table]</text>
<polygon fill="none" stroke="#000000" points="142.5,-159.2 142.5,-181.2 241.5,-181.2 241.5,-159.2 142.5,-159.2"/>
<image xlink:href="../../images/primaryKeys.png" width="11px" height="12px" preserveAspectRatio="xMinYMin meet" x="147.5" y="-176.2"/>
<text text-anchor="start" x="163.5" y="-166.3" font-family="Helvetica,sans-Serif" font-size="11.00" fill="#000000">id_responses</text>
<polygon fill="none" stroke="#000000" points="142.5,-137.2 142.5,-159.2 241.5,-159.2 241.5,-137.2 142.5,-137.2"/>
<image xlink:href="../../images/foreignKeys.png" width="11px" height="12px" preserveAspectRatio="xMinYMin meet" x="147.5" y="-154.2"/>
<text text-anchor="start" x="163.5" y="-144.3" font-family="Helvetica,sans-Serif" font-size="11.00" fill="#000000">formId</text>
<polygon fill="none" stroke="#000000" points="142.5,-115.2 142.5,-137.2 241.5,-137.2 241.5,-115.2 142.5,-115.2"/>
<image xlink:href="../../images/foreignKeys.png" width="11px" height="12px" preserveAspectRatio="xMinYMin meet" x="147.5" y="-132.2"/>
<text text-anchor="start" x="163.5" y="-122.3" font-family="Helvetica,sans-Serif" font-size="11.00" fill="#000000">submittedBy</text>
<polygon fill="none" stroke="#000000" points="142.5,-93.2 142.5,-115.2 241.5,-115.2 241.5,-93.2 142.5,-93.2"/>
<image xlink:href="../../images/foreignKeys.png" width="11px" height="12px" preserveAspectRatio="xMinYMin meet" x="147.5" y="-110.2"/>
<text text-anchor="start" x="163.5" y="-100.3" font-family="Helvetica,sans-Serif" font-size="11.00" fill="#000000">assignedBy</text>
<polygon fill="none" stroke="#000000" points="142.5,-74.2 142.5,-93.2 241.5,-93.2 241.5,-74.2 142.5,-74.2"/>
<text text-anchor="start" x="145.5" y="-80.3" font-family="Helvetica,sans-Serif" font-size="11.00" fill="#000000">...</text>
<polygon fill="#ffffff" stroke="transparent" points="142.5,-55.2 142.5,-74.2 172.5,-74.2 172.5,-55.2 142.5,-55.2"/>
<polygon fill="none" stroke="#000000" points="142.5,-55.2 142.5,-74.2 172.5,-74.2 172.5,-55.2 142.5,-55.2"/>
<text text-anchor="start" x="145.5" y="-61.3" font-family="Helvetica,sans-Serif" font-size="11.00" fill="#000000">&lt; 3</text>
<polygon fill="#ffffff" stroke="transparent" points="172.5,-55.2 172.5,-74.2 215.5,-74.2 215.5,-55.2 172.5,-55.2"/>
<polygon fill="none" stroke="#000000" points="172.5,-55.2 172.5,-74.2 215.5,-74.2 215.5,-55.2 172.5,-55.2"/>
<text text-anchor="start" x="180.1105" y="-61.3" font-family="Helvetica,sans-Serif" font-size="11.00" fill="#000000">0 rows</text>
<polygon fill="#ffffff" stroke="transparent" points="215.5,-55.2 215.5,-74.2 241.5,-74.2 241.5,-55.2 215.5,-55.2"/>
<polygon fill="none" stroke="#000000" points="215.5,-55.2 215.5,-74.2 241.5,-74.2 241.5,-55.2 215.5,-55.2"/>
<text text-anchor="start" x="222.9053" y="-61.3" font-family="Helvetica,sans-Serif" font-size="11.00" fill="#000000">1 &gt;</text>
</a>
</g>
</g>
<!-- question_responses&#45;&gt;responses -->
<g id="edge2" class="edge">
<title>question_responses:w&#45;&gt;responses:e</title>
<path fill="none" stroke="#000000" d="M278.0349,-178.6375C265.8566,-175.825 258.8237,-170.2 241.5,-170.2"/>
<polygon fill="#000000" stroke="#000000" points="284.5463,-179.3408 292.1134,-183.7792 288.5231,-179.7704 292.5,-180.2 292.5,-180.2 292.5,-180.2 288.5231,-179.7704 292.8866,-176.6208 284.5463,-179.3408 284.5463,-179.3408"/>
<ellipse fill="none" stroke="#000000" cx="281.3648" cy="-178.9971" rx="3.2" ry="3.2"/>
</g>
<!-- responses&#45;&gt;forms -->
<g id="edge6" class="edge">
<title>responses:w&#45;&gt;forms:e</title>
<path fill="none" stroke="#000000" d="M128.2923,-151.7934C98.5656,-170.533 134.6552,-256.2 86.5,-256.2"/>
<polygon fill="#000000" stroke="#000000" points="134.7442,-150.1616 143.3827,-151.6901 138.6221,-149.1808 142.5,-148.2 142.5,-148.2 142.5,-148.2 138.6221,-149.1808 141.6173,-144.7099 134.7442,-150.1616 134.7442,-150.1616"/>
<ellipse fill="none" stroke="#000000" cx="131.6419" cy="-150.9462" rx="3.2" ry="3.2"/>
</g>
<!-- users -->
<g id="node6" class="node">
<title>users</title>
<g id="a_node6"><a xlink:href="../../tables/users.html" xlink:title="users" target="_top">
<polygon fill="#ffffff" stroke="transparent" points="15,-46.7 15,-107.7 86,-107.7 86,-46.7 15,-46.7"/>
<polygon fill="#f5f5f5" stroke="transparent" points="15.5,-84.2 15.5,-107.2 86.5,-107.2 86.5,-84.2 15.5,-84.2"/>
<polygon fill="none" stroke="#000000" points="15.5,-84.2 15.5,-107.2 86.5,-107.2 86.5,-84.2 15.5,-84.2"/>
<text text-anchor="start" x="20.5" y="-92.8" font-family="Helvetica,sans-Serif" font-weight="bold" font-size="11.00" fill="#000000">users</text>
<text text-anchor="start" x="52.0219" y="-92.3" font-family="Helvetica,sans-Serif" font-size="11.00" fill="#000000">[table]</text>
<polygon fill="none" stroke="#000000" points="15.5,-65.2 15.5,-84.2 86.5,-84.2 86.5,-65.2 15.5,-65.2"/>
<text text-anchor="start" x="18.5" y="-71.3" font-family="Helvetica,sans-Serif" font-size="11.00" fill="#000000">...</text>
<polygon fill="#ffffff" stroke="transparent" points="15.5,-46.2 15.5,-65.2 27.5,-65.2 27.5,-46.2 15.5,-46.2"/>
<polygon fill="none" stroke="#000000" points="15.5,-46.2 15.5,-65.2 27.5,-65.2 27.5,-46.2 15.5,-46.2"/>
<text text-anchor="start" x="18.4431" y="-52.3" font-family="Helvetica,sans-Serif" font-size="11.00" fill="#000000"> &#160;</text>
<polygon fill="#ffffff" stroke="transparent" points="27.5,-46.2 27.5,-65.2 65.5,-65.2 65.5,-46.2 27.5,-46.2"/>
<polygon fill="none" stroke="#000000" points="27.5,-46.2 27.5,-65.2 65.5,-65.2 65.5,-46.2 27.5,-46.2"/>
<text text-anchor="start" x="30.3053" y="-52.3" font-family="Helvetica,sans-Serif" font-size="11.00" fill="#000000">0 rows</text>
<polygon fill="#ffffff" stroke="transparent" points="65.5,-46.2 65.5,-65.2 86.5,-65.2 86.5,-46.2 65.5,-46.2"/>
<polygon fill="none" stroke="#000000" points="65.5,-46.2 65.5,-65.2 86.5,-65.2 86.5,-46.2 65.5,-46.2"/>
<text text-anchor="start" x="68.2027" y="-52.3" font-family="Helvetica,sans-Serif" font-size="11.00" fill="#000000">4 &gt;</text>
</a>
</g>
</g>
<!-- responses&#45;&gt;users -->
<g id="edge5" class="edge">
<title>responses:w&#45;&gt;users:e</title>
<path fill="none" stroke="#000000" d="M128.3661,-100.9895C113.2715,-93.2503 109,-74.2 86.5,-74.2"/>
<polygon fill="#000000" stroke="#000000" points="134.6987,-102.4279 141.7026,-107.7106 138.5994,-103.3139 142.5,-104.2 142.5,-104.2 142.5,-104.2 138.5994,-103.3139 143.2974,-100.6894 134.6987,-102.4279 134.6987,-102.4279"/>
<ellipse fill="none" stroke="#000000" cx="131.5782" cy="-101.719" rx="3.2" ry="3.2"/>
</g>
<!-- patients -->
<g id="node7" class="node">
<title>patients</title>
<g id="a_node7"><a xlink:href="../../tables/patients.html" xlink:title="patients" target="_top">
<polygon fill="#ffffff" stroke="transparent" points="8,-128.7 8,-189.7 93,-189.7 93,-128.7 8,-128.7"/>
<polygon fill="#f5f5f5" stroke="transparent" points="8.5,-166.2 8.5,-189.2 93.5,-189.2 93.5,-166.2 8.5,-166.2"/>
<polygon fill="none" stroke="#000000" points="8.5,-166.2 8.5,-189.2 93.5,-189.2 93.5,-166.2 8.5,-166.2"/>
<text text-anchor="start" x="13.5" y="-174.8" font-family="Helvetica,sans-Serif" font-weight="bold" font-size="11.00" fill="#000000">patients</text>
<text text-anchor="start" x="59.0219" y="-174.3" font-family="Helvetica,sans-Serif" font-size="11.00" fill="#000000">[table]</text>
<polygon fill="none" stroke="#000000" points="8.5,-147.2 8.5,-166.2 93.5,-166.2 93.5,-147.2 8.5,-147.2"/>
<text text-anchor="start" x="11.5" y="-153.3" font-family="Helvetica,sans-Serif" font-size="11.00" fill="#000000">...</text>
<polygon fill="#ffffff" stroke="transparent" points="8.5,-128.2 8.5,-147.2 31.5,-147.2 31.5,-128.2 8.5,-128.2"/>
<polygon fill="none" stroke="#000000" points="8.5,-128.2 8.5,-147.2 31.5,-147.2 31.5,-128.2 8.5,-128.2"/>
<text text-anchor="start" x="11.5" y="-134.3" font-family="Helvetica,sans-Serif" font-size="11.00" fill="#000000">&lt; 1</text>
<polygon fill="#ffffff" stroke="transparent" points="31.5,-128.2 31.5,-147.2 70.5,-147.2 70.5,-128.2 31.5,-128.2"/>
<polygon fill="none" stroke="#000000" points="31.5,-128.2 31.5,-147.2 70.5,-147.2 70.5,-128.2 31.5,-128.2"/>
<text text-anchor="start" x="35.1105" y="-134.3" font-family="Helvetica,sans-Serif" font-size="11.00" fill="#000000">0 rows</text>
<polygon fill="#ffffff" stroke="transparent" points="70.5,-128.2 70.5,-147.2 93.5,-147.2 93.5,-128.2 70.5,-128.2"/>
<polygon fill="none" stroke="#000000" points="70.5,-128.2 70.5,-147.2 93.5,-147.2 93.5,-128.2 70.5,-128.2"/>
<text text-anchor="start" x="74.9053" y="-134.3" font-family="Helvetica,sans-Serif" font-size="11.00" fill="#000000">5 &gt;</text>
</a>
</g>
</g>
<!-- responses&#45;&gt;patients -->
<g id="edge7" class="edge">
<title>responses:w&#45;&gt;patients:e</title>
<path fill="none" stroke="#000000" d="M128.384,-130.3714C116.4189,-138.6146 113.0504,-156.2 93.5,-156.2"/>
<polygon fill="#000000" stroke="#000000" points="134.828,-128.4672 143.5202,-129.6524 138.664,-127.3336 142.5,-126.2 142.5,-126.2 142.5,-126.2 138.664,-127.3336 141.4798,-122.7476 134.828,-128.4672 134.828,-128.4672"/>
<ellipse fill="none" stroke="#000000" cx="131.7591" cy="-129.374" rx="3.2" ry="3.2"/>
</g>
</g>
</svg>
