<?xml version="1.0" encoding="UTF-8" standalone="no"?>
<!DOCTYPE svg PUBLIC "-//W3C//DTD SVG 1.1//EN"
 "http://www.w3.org/Graphics/SVG/1.1/DTD/svg11.dtd">
<!-- Generated by graphviz version 2.40.1 (20161225.0304)
 -->
<!-- Title: oneDegreeRelationshipsDiagram Pages: 1 -->
<svg width="372pt" height="517pt"
 viewBox="0.00 0.00 372.00 517.20" xmlns="http://www.w3.org/2000/svg" xmlns:xlink="http://www.w3.org/1999/xlink">
<g id="graph0" class="graph" transform="scale(1 1) rotate(0) translate(4 513.2)">
<title>oneDegreeRelationshipsDiagram</title>
<polygon fill="#ffffff" stroke="transparent" points="-4,4 -4,-513.2 368,-513.2 368,4 -4,4"/>
<text text-anchor="middle" x="72.4936" y="-7.3" font-family="Helvetica,sans-Serif" font-size="11.00" fill="#000000">Generated by SchemaSpy</text>
<!-- faqs -->
<g id="node1" class="node">
<title>faqs</title>
<g id="a_node1"><a xlink:href="../../tables/faqs.html" xlink:title="faqs" target="_top">
<polygon fill="#ffffff" stroke="transparent" points="250.5,-378.2 250.5,-505.2 338.5,-505.2 338.5,-378.2 250.5,-378.2"/>
<polygon fill="#f5f5f5" stroke="transparent" points="250.5,-481.7 250.5,-504.7 338.5,-504.7 338.5,-481.7 250.5,-481.7"/>
<polygon fill="none" stroke="#000000" points="250.5,-481.7 250.5,-504.7 338.5,-504.7 338.5,-481.7 250.5,-481.7"/>
<text text-anchor="start" x="255.1067" y="-490.3" font-family="Helvetica,sans-Serif" font-weight="bold" font-size="11.00" fill="#000000">faqs</text>
<text text-anchor="start" x="303.5437" y="-489.8" font-family="Helvetica,sans-Serif" font-size="11.00" fill="#000000">[table]</text>
<polygon fill="none" stroke="#000000" points="250.5,-459.7 250.5,-481.7 338.5,-481.7 338.5,-459.7 250.5,-459.7"/>
<image xlink:href="../../images/primaryKeys.png" width="11px" height="12px" preserveAspectRatio="xMinYMin meet" x="255.5" y="-476.7"/>
<text text-anchor="start" x="270.5" y="-466.8" font-family="Helvetica,sans-Serif" font-size="11.00" fill="#000000">id_faq</text>
<polygon fill="none" stroke="#000000" points="250.5,-437.7 250.5,-459.7 338.5,-459.7 338.5,-437.7 250.5,-437.7"/>
<image xlink:href="../../images/foreignKeys.png" width="11px" height="12px" preserveAspectRatio="xMinYMin meet" x="255.5" y="-454.7"/>
<text text-anchor="start" x="270.5" y="-444.8" font-family="Helvetica,sans-Serif" font-size="11.00" fill="#000000">created_by</text>
<polygon fill="none" stroke="#000000" points="250.5,-415.7 250.5,-437.7 338.5,-437.7 338.5,-415.7 250.5,-415.7"/>
<image xlink:href="../../images/foreignKeys.png" width="11px" height="12px" preserveAspectRatio="xMinYMin meet" x="255.5" y="-432.7"/>
<text text-anchor="start" x="270.5" y="-422.8" font-family="Helvetica,sans-Serif" font-size="11.00" fill="#000000">updated_by</text>
<polygon fill="none" stroke="#000000" points="250.5,-396.7 250.5,-415.7 338.5,-415.7 338.5,-396.7 250.5,-396.7"/>
<text text-anchor="start" x="253.5" y="-402.8" font-family="Helvetica,sans-Serif" font-size="11.00" fill="#000000">...</text>
<polygon fill="#ffffff" stroke="transparent" points="250.5,-377.7 250.5,-396.7 279.5,-396.7 279.5,-377.7 250.5,-377.7"/>
<polygon fill="none" stroke="#000000" points="250.5,-377.7 250.5,-396.7 279.5,-396.7 279.5,-377.7 250.5,-377.7"/>
<text text-anchor="start" x="253.5" y="-383.8" font-family="Helvetica,sans-Serif" font-size="11.00" fill="#000000">&lt; 2</text>
<polygon fill="#ffffff" stroke="transparent" points="279.5,-377.7 279.5,-396.7 321.5,-396.7 321.5,-377.7 279.5,-377.7"/>
<polygon fill="none" stroke="#000000" points="279.5,-377.7 279.5,-396.7 321.5,-396.7 321.5,-377.7 279.5,-377.7"/>
<text text-anchor="start" x="286.1105" y="-383.8" font-family="Helvetica,sans-Serif" font-size="11.00" fill="#000000">0 rows</text>
<polygon fill="#ffffff" stroke="transparent" points="321.5,-377.7 321.5,-396.7 338.5,-396.7 338.5,-377.7 321.5,-377.7"/>
<polygon fill="none" stroke="#000000" points="321.5,-377.7 321.5,-396.7 338.5,-396.7 338.5,-377.7 321.5,-377.7"/>
<text text-anchor="start" x="329.3862" y="-383.8" font-family="Helvetica,sans-Serif" font-size="11.00" fill="#000000"> &#160;</text>
</a>
</g>
</g>
<!-- users -->
<g id="node2" class="node">
<title>users</title>
<g id="a_node2"><a xlink:href="../../tables/users.html" xlink:title="users" target="_top">
<polygon fill="#ffffff" stroke="transparent" points="8,-221.7 8,-377.7 184,-377.7 184,-221.7 8,-221.7"/>
<polygon fill="#f5f5f5" stroke="transparent" points="10,-352.7 10,-375.7 182,-375.7 182,-352.7 10,-352.7"/>
<polygon fill="none" stroke="#000000" points="10,-352.7 10,-375.7 182,-375.7 182,-352.7 10,-352.7"/>
<text text-anchor="start" x="15" y="-361.3" font-family="Helvetica,sans-Serif" font-weight="bold" font-size="11.00" fill="#000000">users</text>
<text text-anchor="start" x="147.0437" y="-360.8" font-family="Helvetica,sans-Serif" font-size="11.00" fill="#000000">[table]</text>
<polygon fill="none" stroke="#000000" points="10,-330.7 10,-352.7 90,-352.7 90,-330.7 10,-330.7"/>
<image xlink:href="../../images/primaryKeys.png" width="11px" height="12px" preserveAspectRatio="xMinYMin meet" x="15" y="-347.7"/>
<text text-anchor="start" x="30" y="-337.8" font-family="Helvetica,sans-Serif" font-size="11.00" fill="#000000">id_user</text>
<polygon fill="none" stroke="#000000" points="90,-330.7 90,-352.7 182,-352.7 182,-330.7 90,-330.7"/>
<text text-anchor="start" x="93" y="-338.4" font-family="Helvetica,sans-Serif" font-size="11.00" fill="#000000">serial[10]</text>
<polygon fill="#ffffff" stroke="transparent" points="10,-308.7 10,-330.7 90,-330.7 90,-308.7 10,-308.7"/>
<polygon fill="none" stroke="#000000" points="10,-308.7 10,-330.7 90,-330.7 90,-308.7 10,-308.7"/>
<text text-anchor="start" x="30" y="-315.8" font-family="Helvetica,sans-Serif" font-size="11.00" fill="#000000">username</text>
<polygon fill="none" stroke="#000000" points="90,-308.7 90,-330.7 182,-330.7 182,-308.7 90,-308.7"/>
<text text-anchor="start" x="93" y="-316.4" font-family="Helvetica,sans-Serif" font-size="11.00" fill="#000000">varchar[255]</text>
<polygon fill="none" stroke="#000000" points="10,-286.7 10,-308.7 90,-308.7 90,-286.7 10,-286.7"/>
<text text-anchor="start" x="30" y="-293.8" font-family="Helvetica,sans-Serif" font-size="11.00" fill="#000000">password</text>
<polygon fill="none" stroke="#000000" points="90,-286.7 90,-308.7 182,-308.7 182,-286.7 90,-286.7"/>
<text text-anchor="start" x="93" y="-294.4" font-family="Helvetica,sans-Serif" font-size="11.00" fill="#000000">varchar[255]</text>
<polygon fill="none" stroke="#000000" points="10,-264.7 10,-286.7 90,-286.7 90,-264.7 10,-264.7"/>
<text text-anchor="start" x="30" y="-271.8" font-family="Helvetica,sans-Serif" font-size="11.00" fill="#000000">createdAt</text>
<polygon fill="none" stroke="#000000" points="90,-264.7 90,-286.7 182,-286.7 182,-264.7 90,-264.7"/>
<text text-anchor="start" x="92.6023" y="-272.4" font-family="Helvetica,sans-Serif" font-size="11.00" fill="#000000">timestamptz[35,6]</text>
<polygon fill="none" stroke="#000000" points="10,-242.7 10,-264.7 90,-264.7 90,-242.7 10,-242.7"/>
<text text-anchor="start" x="30" y="-249.8" font-family="Helvetica,sans-Serif" font-size="11.00" fill="#000000">updatedAt</text>
<polygon fill="none" stroke="#000000" points="90,-242.7 90,-264.7 182,-264.7 182,-242.7 90,-242.7"/>
<text text-anchor="start" x="92.6023" y="-250.4" font-family="Helvetica,sans-Serif" font-size="11.00" fill="#000000">timestamptz[35,6]</text>
<polygon fill="#ffffff" stroke="transparent" points="10,-223.7 10,-242.7 41,-242.7 41,-223.7 10,-223.7"/>
<polygon fill="none" stroke="#000000" points="10,-223.7 10,-242.7 41,-242.7 41,-223.7 10,-223.7"/>
<text text-anchor="start" x="13" y="-229.8" font-family="Helvetica,sans-Serif" font-size="11.00" fill="#000000">&lt; 0</text>
<polygon fill="#ffffff" stroke="transparent" points="41,-223.7 41,-242.7 90,-242.7 90,-223.7 41,-223.7"/>
<polygon fill="none" stroke="#000000" points="41,-223.7 41,-242.7 90,-242.7 90,-223.7 41,-223.7"/>
<text text-anchor="start" x="54.6105" y="-229.8" font-family="Helvetica,sans-Serif" font-size="11.00" fill="#000000">0 rows</text>
<polygon fill="#ffffff" stroke="transparent" points="90,-223.7 90,-242.7 182,-242.7 182,-223.7 90,-223.7"/>
<polygon fill="none" stroke="#000000" points="90,-223.7 90,-242.7 182,-242.7 182,-223.7 90,-223.7"/>
<text text-anchor="start" x="163.4053" y="-229.8" font-family="Helvetica,sans-Serif" font-size="11.00" fill="#000000">4 &gt;</text>
<polygon fill="none" stroke="#000000" stroke-width="2" points="9,-222.7 9,-376.7 183,-376.7 183,-222.7 9,-222.7"/>
</a>
</g>
</g>
<!-- faqs&#45;&gt;users -->
<g id="edge1" class="edge">
<title>faqs:w&#45;&gt;users:e</title>
<path fill="none" stroke="#000000" d="M236.2064,-445.6131C202.0186,-428.0693 232.7311,-341.7 182,-341.7"/>
<polygon fill="#000000" stroke="#000000" points="242.6803,-447.0112 249.74,-452.2189 246.5901,-447.8556 250.5,-448.7 250.5,-448.7 250.5,-448.7 246.5901,-447.8556 251.26,-445.1811 242.6803,-447.0112 242.6803,-447.0112"/>
<ellipse fill="none" stroke="#000000" cx="239.5524" cy="-446.3356" rx="3.2" ry="3.2"/>
</g>
<!-- faqs&#45;&gt;users -->
<g id="edge2" class="edge">
<title>faqs:w&#45;&gt;users:e</title>
<path fill="none" stroke="#000000" d="M236.3693,-423.4717C207.6118,-407.9454 224.8326,-341.7 182,-341.7"/>
<polygon fill="#000000" stroke="#000000" points="242.7009,-424.9182 249.6982,-430.2096 246.6005,-425.8091 250.5,-426.7 250.5,-426.7 250.5,-426.7 246.6005,-425.8091 251.3018,-423.1904 242.7009,-424.9182 242.7009,-424.9182"/>
<ellipse fill="none" stroke="#000000" cx="239.5813" cy="-424.2054" rx="3.2" ry="3.2"/>
</g>
<!-- messages -->
<g id="node3" class="node">
<title>messages</title>
<g id="a_node3"><a xlink:href="../../tables/messages.html" xlink:title="messages" target="_top">
<polygon fill="#ffffff" stroke="transparent" points="233,-208.2 233,-357.2 356,-357.2 356,-208.2 233,-208.2"/>
<polygon fill="#f5f5f5" stroke="transparent" points="233.5,-333.7 233.5,-356.7 356.5,-356.7 356.5,-333.7 233.5,-333.7"/>
<polygon fill="none" stroke="#000000" points="233.5,-333.7 233.5,-356.7 356.5,-356.7 356.5,-333.7 233.5,-333.7"/>
<text text-anchor="start" x="238.5" y="-342.3" font-family="Helvetica,sans-Serif" font-weight="bold" font-size="11.00" fill="#000000">messages</text>
<text text-anchor="start" x="321.5437" y="-341.8" font-family="Helvetica,sans-Serif" font-size="11.00" fill="#000000">[table]</text>
<polygon fill="none" stroke="#000000" points="233.5,-311.7 233.5,-333.7 356.5,-333.7 356.5,-311.7 233.5,-311.7"/>
<image xlink:href="../../images/primaryKeys.png" width="11px" height="12px" preserveAspectRatio="xMinYMin meet" x="238.5" y="-328.7"/>
<text text-anchor="start" x="253.5" y="-318.8" font-family="Helvetica,sans-Serif" font-size="11.00" fill="#000000">id_message</text>
<polygon fill="none" stroke="#000000" points="233.5,-289.7 233.5,-311.7 356.5,-311.7 356.5,-289.7 233.5,-289.7"/>
<image xlink:href="../../images/foreignKeys.png" width="11px" height="12px" preserveAspectRatio="xMinYMin meet" x="238.5" y="-306.7"/>
<text text-anchor="start" x="253.5" y="-296.8" font-family="Helvetica,sans-Serif" font-size="11.00" fill="#000000">chat_id</text>
<polygon fill="none" stroke="#000000" points="233.5,-267.7 233.5,-289.7 356.5,-289.7 356.5,-267.7 233.5,-267.7"/>
<image xlink:href="../../images/foreignKeys.png" width="11px" height="12px" preserveAspectRatio="xMinYMin meet" x="238.5" y="-284.7"/>
<text text-anchor="start" x="253.5" y="-274.8" font-family="Helvetica,sans-Serif" font-size="11.00" fill="#000000">sender_patient_id</text>
<polygon fill="none" stroke="#000000" points="233.5,-245.7 233.5,-267.7 356.5,-267.7 356.5,-245.7 233.5,-245.7"/>
<image xlink:href="../../images/foreignKeys.png" width="11px" height="12px" preserveAspectRatio="xMinYMin meet" x="238.5" y="-262.7"/>
<text text-anchor="start" x="253.5" y="-252.8" font-family="Helvetica,sans-Serif" font-size="11.00" fill="#000000">sender_staff_id</text>
<polygon fill="none" stroke="#000000" points="233.5,-226.7 233.5,-245.7 356.5,-245.7 356.5,-226.7 233.5,-226.7"/>
<text text-anchor="start" x="236.5" y="-232.8" font-family="Helvetica,sans-Serif" font-size="11.00" fill="#000000">...</text>
<polygon fill="#ffffff" stroke="transparent" points="233.5,-207.7 233.5,-226.7 275.5,-226.7 275.5,-207.7 233.5,-207.7"/>
<polygon fill="none" stroke="#000000" points="233.5,-207.7 233.5,-226.7 275.5,-226.7 275.5,-207.7 233.5,-207.7"/>
<text text-anchor="start" x="236.5" y="-213.8" font-family="Helvetica,sans-Serif" font-size="11.00" fill="#000000">&lt; 3</text>
<polygon fill="#ffffff" stroke="transparent" points="275.5,-207.7 275.5,-226.7 324.5,-226.7 324.5,-207.7 275.5,-207.7"/>
<polygon fill="none" stroke="#000000" points="275.5,-207.7 275.5,-226.7 324.5,-226.7 324.5,-207.7 275.5,-207.7"/>
<text text-anchor="start" x="289.1105" y="-213.8" font-family="Helvetica,sans-Serif" font-size="11.00" fill="#000000">0 rows</text>
<polygon fill="#ffffff" stroke="transparent" points="324.5,-207.7 324.5,-226.7 356.5,-226.7 356.5,-207.7 324.5,-207.7"/>
<polygon fill="none" stroke="#000000" points="324.5,-207.7 324.5,-226.7 356.5,-226.7 356.5,-207.7 324.5,-207.7"/>
<text text-anchor="start" x="337.9053" y="-213.8" font-family="Helvetica,sans-Serif" font-size="11.00" fill="#000000">1 &gt;</text>
</a>
</g>
</g>
<!-- messages&#45;&gt;users -->
<g id="edge3" class="edge">
<title>messages:w&#45;&gt;users:e</title>
<path fill="none" stroke="#000000" d="M219.5119,-261.032C197.8888,-278.3534 220.1318,-341.7 182,-341.7"/>
<polygon fill="#000000" stroke="#000000" points="225.8581,-259.0667 234.565,-260.1389 229.679,-257.8833 233.5,-256.7 233.5,-256.7 233.5,-256.7 229.679,-257.8833 232.435,-253.2611 225.8581,-259.0667 225.8581,-259.0667"/>
<ellipse fill="none" stroke="#000000" cx="222.8013" cy="-260.0134" rx="3.2" ry="3.2"/>
</g>
<!-- responses -->
<g id="node4" class="node">
<title>responses</title>
<g id="a_node4"><a xlink:href="../../tables/responses.html" xlink:title="responses" target="_top">
<polygon fill="#ffffff" stroke="transparent" points="245,-38.2 245,-187.2 344,-187.2 344,-38.2 245,-38.2"/>
<polygon fill="#f5f5f5" stroke="transparent" points="245.5,-163.7 245.5,-186.7 344.5,-186.7 344.5,-163.7 245.5,-163.7"/>
<polygon fill="none" stroke="#000000" points="245.5,-163.7 245.5,-186.7 344.5,-186.7 344.5,-163.7 245.5,-163.7"/>
<text text-anchor="start" x="250.5" y="-172.3" font-family="Helvetica,sans-Serif" font-weight="bold" font-size="11.00" fill="#000000">responses</text>
<text text-anchor="start" x="310.0219" y="-171.8" font-family="Helvetica,sans-Serif" font-size="11.00" fill="#000000">[table]</text>
<polygon fill="none" stroke="#000000" points="245.5,-141.7 245.5,-163.7 344.5,-163.7 344.5,-141.7 245.5,-141.7"/>
<image xlink:href="../../images/primaryKeys.png" width="11px" height="12px" preserveAspectRatio="xMinYMin meet" x="250.5" y="-158.7"/>
<text text-anchor="start" x="266.5" y="-148.8" font-family="Helvetica,sans-Serif" font-size="11.00" fill="#000000">id_responses</text>
<polygon fill="none" stroke="#000000" points="245.5,-119.7 245.5,-141.7 344.5,-141.7 344.5,-119.7 245.5,-119.7"/>
<image xlink:href="../../images/foreignKeys.png" width="11px" height="12px" preserveAspectRatio="xMinYMin meet" x="250.5" y="-136.7"/>
<text text-anchor="start" x="266.5" y="-126.8" font-family="Helvetica,sans-Serif" font-size="11.00" fill="#000000">formId</text>
<polygon fill="none" stroke="#000000" points="245.5,-97.7 245.5,-119.7 344.5,-119.7 344.5,-97.7 245.5,-97.7"/>
<image xlink:href="../../images/foreignKeys.png" width="11px" height="12px" preserveAspectRatio="xMinYMin meet" x="250.5" y="-114.7"/>
<text text-anchor="start" x="266.5" y="-104.8" font-family="Helvetica,sans-Serif" font-size="11.00" fill="#000000">submittedBy</text>
<polygon fill="none" stroke="#000000" points="245.5,-75.7 245.5,-97.7 344.5,-97.7 344.5,-75.7 245.5,-75.7"/>
<image xlink:href="../../images/foreignKeys.png" width="11px" height="12px" preserveAspectRatio="xMinYMin meet" x="250.5" y="-92.7"/>
<text text-anchor="start" x="266.5" y="-82.8" font-family="Helvetica,sans-Serif" font-size="11.00" fill="#000000">assignedBy</text>
<polygon fill="none" stroke="#000000" points="245.5,-56.7 245.5,-75.7 344.5,-75.7 344.5,-56.7 245.5,-56.7"/>
<text text-anchor="start" x="248.5" y="-62.8" font-family="Helvetica,sans-Serif" font-size="11.00" fill="#000000">...</text>
<polygon fill="#ffffff" stroke="transparent" points="245.5,-37.7 245.5,-56.7 275.5,-56.7 275.5,-37.7 245.5,-37.7"/>
<polygon fill="none" stroke="#000000" points="245.5,-37.7 245.5,-56.7 275.5,-56.7 275.5,-37.7 245.5,-37.7"/>
<text text-anchor="start" x="248.5" y="-43.8" font-family="Helvetica,sans-Serif" font-size="11.00" fill="#000000">&lt; 3</text>
<polygon fill="#ffffff" stroke="transparent" points="275.5,-37.7 275.5,-56.7 318.5,-56.7 318.5,-37.7 275.5,-37.7"/>
<polygon fill="none" stroke="#000000" points="275.5,-37.7 275.5,-56.7 318.5,-56.7 318.5,-37.7 275.5,-37.7"/>
<text text-anchor="start" x="283.1105" y="-43.8" font-family="Helvetica,sans-Serif" font-size="11.00" fill="#000000">0 rows</text>
<polygon fill="#ffffff" stroke="transparent" points="318.5,-37.7 318.5,-56.7 344.5,-56.7 344.5,-37.7 318.5,-37.7"/>
<polygon fill="none" stroke="#000000" points="318.5,-37.7 318.5,-56.7 344.5,-56.7 344.5,-37.7 318.5,-37.7"/>
<text text-anchor="start" x="325.9053" y="-43.8" font-family="Helvetica,sans-Serif" font-size="11.00" fill="#000000">1 &gt;</text>
</a>
</g>
</g>
<!-- responses&#45;&gt;users -->
<g id="edge4" class="edge">
<title>responses:w&#45;&gt;users:e</title>
<path fill="none" stroke="#000000" d="M232.3028,-92.5051C195.7776,-130.462 235.1506,-341.7 182,-341.7"/>
<polygon fill="#000000" stroke="#000000" points="238.1771,-89.9212 246.9495,-89.9953 241.8386,-88.3106 245.5,-86.7 245.5,-86.7 245.5,-86.7 241.8386,-88.3106 244.0505,-83.4047 238.1771,-89.9212 238.1771,-89.9212"/>
<ellipse fill="none" stroke="#000000" cx="235.248" cy="-91.2097" rx="3.2" ry="3.2"/>
</g>
</g>
</svg>
