<?xml version="1.0" encoding="UTF-8" standalone="no"?>
<!DOCTYPE svg PUBLIC "-//W3C//DTD SVG 1.1//EN"
 "http://www.w3.org/Graphics/SVG/1.1/DTD/svg11.dtd">
<!-- Generated by graphviz version 2.40.1 (20161225.0304)
 -->
<!-- Title: twoDegreesRelationshipsDiagram Pages: 1 -->
<svg width="723pt" height="540pt"
 viewBox="0.00 0.00 723.00 539.54" xmlns="http://www.w3.org/2000/svg" xmlns:xlink="http://www.w3.org/1999/xlink">
<g id="graph0" class="graph" transform="scale(1 1) rotate(0) translate(4 535.5352)">
<title>twoDegreesRelationshipsDiagram</title>
<polygon fill="#ffffff" stroke="transparent" points="-4,4 -4,-535.5352 719,-535.5352 719,4 -4,4"/>
<text text-anchor="middle" x="72.4936" y="-7.3" font-family="Helvetica,sans-Serif" font-size="11.00" fill="#000000">Generated by SchemaSpy</text>
<!-- chats -->
<g id="node1" class="node">
<title>chats</title>
<g id="a_node1"><a xlink:href="../../tables/chats.html" xlink:title="chats" target="_top">
<polygon fill="#ffffff" stroke="transparent" points="190,-288.5352 190,-349.5352 270,-349.5352 270,-288.5352 190,-288.5352"/>
<polygon fill="#f5f5f5" stroke="transparent" points="190,-326.0352 190,-349.0352 270,-349.0352 270,-326.0352 190,-326.0352"/>
<polygon fill="none" stroke="#000000" points="190,-326.0352 190,-349.0352 270,-349.0352 270,-326.0352 190,-326.0352"/>
<text text-anchor="start" x="195" y="-334.6352" font-family="Helvetica,sans-Serif" font-weight="bold" font-size="11.00" fill="#000000">chats</text>
<text text-anchor="start" x="235.0437" y="-334.1352" font-family="Helvetica,sans-Serif" font-size="11.00" fill="#000000">[table]</text>
<polygon fill="none" stroke="#000000" points="190,-307.0352 190,-326.0352 270,-326.0352 270,-307.0352 190,-307.0352"/>
<text text-anchor="start" x="193" y="-313.1352" font-family="Helvetica,sans-Serif" font-size="11.00" fill="#000000">...</text>
<polygon fill="#ffffff" stroke="transparent" points="190,-288.0352 190,-307.0352 211,-307.0352 211,-288.0352 190,-288.0352"/>
<polygon fill="none" stroke="#000000" points="190,-288.0352 190,-307.0352 211,-307.0352 211,-288.0352 190,-288.0352"/>
<text text-anchor="start" x="192.7027" y="-294.1352" font-family="Helvetica,sans-Serif" font-size="11.00" fill="#000000">&lt; 1</text>
<polygon fill="#ffffff" stroke="transparent" points="211,-288.0352 211,-307.0352 249,-307.0352 249,-288.0352 211,-288.0352"/>
<polygon fill="none" stroke="#000000" points="211,-288.0352 211,-307.0352 249,-307.0352 249,-288.0352 211,-288.0352"/>
<text text-anchor="start" x="213.8053" y="-294.1352" font-family="Helvetica,sans-Serif" font-size="11.00" fill="#000000">0 rows</text>
<polygon fill="#ffffff" stroke="transparent" points="249,-288.0352 249,-307.0352 270,-307.0352 270,-288.0352 249,-288.0352"/>
<polygon fill="none" stroke="#000000" points="249,-288.0352 249,-307.0352 270,-307.0352 270,-288.0352 249,-288.0352"/>
<text text-anchor="start" x="251.7027" y="-294.1352" font-family="Helvetica,sans-Serif" font-size="11.00" fill="#000000">1 &gt;</text>
</a>
</g>
</g>
<!-- patients -->
<g id="node2" class="node">
<title>patients</title>
<g id="a_node2"><a xlink:href="../../tables/patients.html" xlink:title="patients" target="_top">
<polygon fill="#ffffff" stroke="transparent" points="8,-262.5352 8,-323.5352 93,-323.5352 93,-262.5352 8,-262.5352"/>
<polygon fill="#f5f5f5" stroke="transparent" points="8.5,-300.0352 8.5,-323.0352 93.5,-323.0352 93.5,-300.0352 8.5,-300.0352"/>
<polygon fill="none" stroke="#000000" points="8.5,-300.0352 8.5,-323.0352 93.5,-323.0352 93.5,-300.0352 8.5,-300.0352"/>
<text text-anchor="start" x="13.5" y="-308.6352" font-family="Helvetica,sans-Serif" font-weight="bold" font-size="11.00" fill="#000000">patients</text>
<text text-anchor="start" x="59.0219" y="-308.1352" font-family="Helvetica,sans-Serif" font-size="11.00" fill="#000000">[table]</text>
<polygon fill="none" stroke="#000000" points="8.5,-281.0352 8.5,-300.0352 93.5,-300.0352 93.5,-281.0352 8.5,-281.0352"/>
<text text-anchor="start" x="11.5" y="-287.1352" font-family="Helvetica,sans-Serif" font-size="11.00" fill="#000000">...</text>
<polygon fill="#ffffff" stroke="transparent" points="8.5,-262.0352 8.5,-281.0352 31.5,-281.0352 31.5,-262.0352 8.5,-262.0352"/>
<polygon fill="none" stroke="#000000" points="8.5,-262.0352 8.5,-281.0352 31.5,-281.0352 31.5,-262.0352 8.5,-262.0352"/>
<text text-anchor="start" x="11.5" y="-268.1352" font-family="Helvetica,sans-Serif" font-size="11.00" fill="#000000">&lt; 1</text>
<polygon fill="#ffffff" stroke="transparent" points="31.5,-262.0352 31.5,-281.0352 70.5,-281.0352 70.5,-262.0352 31.5,-262.0352"/>
<polygon fill="none" stroke="#000000" points="31.5,-262.0352 31.5,-281.0352 70.5,-281.0352 70.5,-262.0352 31.5,-262.0352"/>
<text text-anchor="start" x="35.1105" y="-268.1352" font-family="Helvetica,sans-Serif" font-size="11.00" fill="#000000">0 rows</text>
<polygon fill="#ffffff" stroke="transparent" points="70.5,-262.0352 70.5,-281.0352 93.5,-281.0352 93.5,-262.0352 70.5,-262.0352"/>
<polygon fill="none" stroke="#000000" points="70.5,-262.0352 70.5,-281.0352 93.5,-281.0352 93.5,-262.0352 70.5,-262.0352"/>
<text text-anchor="start" x="74.9053" y="-268.1352" font-family="Helvetica,sans-Serif" font-size="11.00" fill="#000000">5 &gt;</text>
</a>
</g>
</g>
<!-- chats&#45;&gt;patients -->
<g id="edge1" class="edge">
<title>chats:w&#45;&gt;patients:e</title>
<path fill="none" stroke="#000000" d="M175.35,-314.9837C143.1867,-310.1196 132.5395,-290.0352 93.5,-290.0352"/>
<polygon fill="#000000" stroke="#000000" points="182.0205,-315.4624 189.7423,-319.6259 186.0103,-315.7488 190,-316.0352 190,-316.0352 190,-316.0352 186.0103,-315.7488 190.2577,-312.4444 182.0205,-315.4624 182.0205,-315.4624"/>
<ellipse fill="none" stroke="#000000" cx="178.8287" cy="-315.2333" rx="3.2" ry="3.2"/>
</g>
<!-- faqs -->
<g id="node3" class="node">
<title>faqs</title>
<g id="a_node3"><a xlink:href="../../tables/faqs.html" xlink:title="faqs" target="_top">
<polygon fill="#ffffff" stroke="transparent" points="384.5,-60.5352 384.5,-187.5352 472.5,-187.5352 472.5,-60.5352 384.5,-60.5352"/>
<polygon fill="#f5f5f5" stroke="transparent" points="384.5,-164.0352 384.5,-187.0352 472.5,-187.0352 472.5,-164.0352 384.5,-164.0352"/>
<polygon fill="none" stroke="#000000" points="384.5,-164.0352 384.5,-187.0352 472.5,-187.0352 472.5,-164.0352 384.5,-164.0352"/>
<text text-anchor="start" x="389.1067" y="-172.6352" font-family="Helvetica,sans-Serif" font-weight="bold" font-size="11.00" fill="#000000">faqs</text>
<text text-anchor="start" x="437.5437" y="-172.1352" font-family="Helvetica,sans-Serif" font-size="11.00" fill="#000000">[table]</text>
<polygon fill="none" stroke="#000000" points="384.5,-142.0352 384.5,-164.0352 472.5,-164.0352 472.5,-142.0352 384.5,-142.0352"/>
<image xlink:href="../../images/primaryKeys.png" width="11px" height="12px" preserveAspectRatio="xMinYMin meet" x="389.5" y="-159.035"/>
<text text-anchor="start" x="404.5" y="-149.1352" font-family="Helvetica,sans-Serif" font-size="11.00" fill="#000000">id_faq</text>
<polygon fill="none" stroke="#000000" points="384.5,-120.0352 384.5,-142.0352 472.5,-142.0352 472.5,-120.0352 384.5,-120.0352"/>
<image xlink:href="../../images/foreignKeys.png" width="11px" height="12px" preserveAspectRatio="xMinYMin meet" x="389.5" y="-137.035"/>
<text text-anchor="start" x="404.5" y="-127.1352" font-family="Helvetica,sans-Serif" font-size="11.00" fill="#000000">created_by</text>
<polygon fill="none" stroke="#000000" points="384.5,-98.0352 384.5,-120.0352 472.5,-120.0352 472.5,-98.0352 384.5,-98.0352"/>
<image xlink:href="../../images/foreignKeys.png" width="11px" height="12px" preserveAspectRatio="xMinYMin meet" x="389.5" y="-115.035"/>
<text text-anchor="start" x="404.5" y="-105.1352" font-family="Helvetica,sans-Serif" font-size="11.00" fill="#000000">updated_by</text>
<polygon fill="none" stroke="#000000" points="384.5,-79.0352 384.5,-98.0352 472.5,-98.0352 472.5,-79.0352 384.5,-79.0352"/>
<text text-anchor="start" x="387.5" y="-85.1352" font-family="Helvetica,sans-Serif" font-size="11.00" fill="#000000">...</text>
<polygon fill="#ffffff" stroke="transparent" points="384.5,-60.0352 384.5,-79.0352 413.5,-79.0352 413.5,-60.0352 384.5,-60.0352"/>
<polygon fill="none" stroke="#000000" points="384.5,-60.0352 384.5,-79.0352 413.5,-79.0352 413.5,-60.0352 384.5,-60.0352"/>
<text text-anchor="start" x="387.5" y="-66.1352" font-family="Helvetica,sans-Serif" font-size="11.00" fill="#000000">&lt; 2</text>
<polygon fill="#ffffff" stroke="transparent" points="413.5,-60.0352 413.5,-79.0352 455.5,-79.0352 455.5,-60.0352 413.5,-60.0352"/>
<polygon fill="none" stroke="#000000" points="413.5,-60.0352 413.5,-79.0352 455.5,-79.0352 455.5,-60.0352 413.5,-60.0352"/>
<text text-anchor="start" x="420.1105" y="-66.1352" font-family="Helvetica,sans-Serif" font-size="11.00" fill="#000000">0 rows</text>
<polygon fill="#ffffff" stroke="transparent" points="455.5,-60.0352 455.5,-79.0352 472.5,-79.0352 472.5,-60.0352 455.5,-60.0352"/>
<polygon fill="none" stroke="#000000" points="455.5,-60.0352 455.5,-79.0352 472.5,-79.0352 472.5,-60.0352 455.5,-60.0352"/>
<text text-anchor="start" x="463.3862" y="-66.1352" font-family="Helvetica,sans-Serif" font-size="11.00" fill="#000000"> &#160;</text>
</a>
</g>
</g>
<!-- users -->
<g id="node4" class="node">
<title>users</title>
<g id="a_node4"><a xlink:href="../../tables/users.html" xlink:title="users" target="_top">
<polygon fill="#ffffff" stroke="transparent" points="142,-80.0352 142,-236.0352 318,-236.0352 318,-80.0352 142,-80.0352"/>
<polygon fill="#f5f5f5" stroke="transparent" points="144,-211.0352 144,-234.0352 316,-234.0352 316,-211.0352 144,-211.0352"/>
<polygon fill="none" stroke="#000000" points="144,-211.0352 144,-234.0352 316,-234.0352 316,-211.0352 144,-211.0352"/>
<text text-anchor="start" x="149" y="-219.6352" font-family="Helvetica,sans-Serif" font-weight="bold" font-size="11.00" fill="#000000">users</text>
<text text-anchor="start" x="281.0437" y="-219.1352" font-family="Helvetica,sans-Serif" font-size="11.00" fill="#000000">[table]</text>
<polygon fill="none" stroke="#000000" points="144,-189.0352 144,-211.0352 224,-211.0352 224,-189.0352 144,-189.0352"/>
<image xlink:href="../../images/primaryKeys.png" width="11px" height="12px" preserveAspectRatio="xMinYMin meet" x="149" y="-206.035"/>
<text text-anchor="start" x="164" y="-196.1352" font-family="Helvetica,sans-Serif" font-size="11.00" fill="#000000">id_user</text>
<polygon fill="none" stroke="#000000" points="224,-189.0352 224,-211.0352 316,-211.0352 316,-189.0352 224,-189.0352"/>
<text text-anchor="start" x="227" y="-196.7352" font-family="Helvetica,sans-Serif" font-size="11.00" fill="#000000">serial[10]</text>
<polygon fill="#ffffff" stroke="transparent" points="144,-167.0352 144,-189.0352 224,-189.0352 224,-167.0352 144,-167.0352"/>
<polygon fill="none" stroke="#000000" points="144,-167.0352 144,-189.0352 224,-189.0352 224,-167.0352 144,-167.0352"/>
<text text-anchor="start" x="164" y="-174.1352" font-family="Helvetica,sans-Serif" font-size="11.00" fill="#000000">username</text>
<polygon fill="none" stroke="#000000" points="224,-167.0352 224,-189.0352 316,-189.0352 316,-167.0352 224,-167.0352"/>
<text text-anchor="start" x="227" y="-174.7352" font-family="Helvetica,sans-Serif" font-size="11.00" fill="#000000">varchar[255]</text>
<polygon fill="none" stroke="#000000" points="144,-145.0352 144,-167.0352 224,-167.0352 224,-145.0352 144,-145.0352"/>
<text text-anchor="start" x="164" y="-152.1352" font-family="Helvetica,sans-Serif" font-size="11.00" fill="#000000">password</text>
<polygon fill="none" stroke="#000000" points="224,-145.0352 224,-167.0352 316,-167.0352 316,-145.0352 224,-145.0352"/>
<text text-anchor="start" x="227" y="-152.7352" font-family="Helvetica,sans-Serif" font-size="11.00" fill="#000000">varchar[255]</text>
<polygon fill="none" stroke="#000000" points="144,-123.0352 144,-145.0352 224,-145.0352 224,-123.0352 144,-123.0352"/>
<text text-anchor="start" x="164" y="-130.1352" font-family="Helvetica,sans-Serif" font-size="11.00" fill="#000000">createdAt</text>
<polygon fill="none" stroke="#000000" points="224,-123.0352 224,-145.0352 316,-145.0352 316,-123.0352 224,-123.0352"/>
<text text-anchor="start" x="226.6023" y="-130.7352" font-family="Helvetica,sans-Serif" font-size="11.00" fill="#000000">timestamptz[35,6]</text>
<polygon fill="none" stroke="#000000" points="144,-101.0352 144,-123.0352 224,-123.0352 224,-101.0352 144,-101.0352"/>
<text text-anchor="start" x="164" y="-108.1352" font-family="Helvetica,sans-Serif" font-size="11.00" fill="#000000">updatedAt</text>
<polygon fill="none" stroke="#000000" points="224,-101.0352 224,-123.0352 316,-123.0352 316,-101.0352 224,-101.0352"/>
<text text-anchor="start" x="226.6023" y="-108.7352" font-family="Helvetica,sans-Serif" font-size="11.00" fill="#000000">timestamptz[35,6]</text>
<polygon fill="#ffffff" stroke="transparent" points="144,-82.0352 144,-101.0352 175,-101.0352 175,-82.0352 144,-82.0352"/>
<polygon fill="none" stroke="#000000" points="144,-82.0352 144,-101.0352 175,-101.0352 175,-82.0352 144,-82.0352"/>
<text text-anchor="start" x="147" y="-88.1352" font-family="Helvetica,sans-Serif" font-size="11.00" fill="#000000">&lt; 0</text>
<polygon fill="#ffffff" stroke="transparent" points="175,-82.0352 175,-101.0352 224,-101.0352 224,-82.0352 175,-82.0352"/>
<polygon fill="none" stroke="#000000" points="175,-82.0352 175,-101.0352 224,-101.0352 224,-82.0352 175,-82.0352"/>
<text text-anchor="start" x="188.6105" y="-88.1352" font-family="Helvetica,sans-Serif" font-size="11.00" fill="#000000">0 rows</text>
<polygon fill="#ffffff" stroke="transparent" points="224,-82.0352 224,-101.0352 316,-101.0352 316,-82.0352 224,-82.0352"/>
<polygon fill="none" stroke="#000000" points="224,-82.0352 224,-101.0352 316,-101.0352 316,-82.0352 224,-82.0352"/>
<text text-anchor="start" x="297.4053" y="-88.1352" font-family="Helvetica,sans-Serif" font-size="11.00" fill="#000000">4 &gt;</text>
<polygon fill="none" stroke="#000000" stroke-width="2" points="143,-81.0352 143,-235.0352 317,-235.0352 317,-81.0352 143,-81.0352"/>
</a>
</g>
</g>
<!-- faqs&#45;&gt;users -->
<g id="edge2" class="edge">
<title>faqs:w&#45;&gt;users:e</title>
<path fill="none" stroke="#000000" d="M370.2313,-134.3632C344.9705,-148.1462 353.4732,-200.0352 316,-200.0352"/>
<polygon fill="#000000" stroke="#000000" points="376.7091,-132.8524 385.3177,-134.5411 380.6046,-131.9438 384.5,-131.0352 384.5,-131.0352 384.5,-131.0352 380.6046,-131.9438 383.6823,-127.5293 376.7091,-132.8524 376.7091,-132.8524"/>
<ellipse fill="none" stroke="#000000" cx="373.5927" cy="-133.5792" rx="3.2" ry="3.2"/>
</g>
<!-- faqs&#45;&gt;users -->
<g id="edge3" class="edge">
<title>faqs:w&#45;&gt;users:e</title>
<path fill="none" stroke="#000000" d="M370.2634,-112.2739C340.2266,-128.4846 360.8877,-200.0352 316,-200.0352"/>
<polygon fill="#000000" stroke="#000000" points="376.6993,-110.8098 385.2986,-112.5455 380.5997,-109.9225 384.5,-109.0352 384.5,-109.0352 384.5,-109.0352 380.5997,-109.9225 383.7014,-105.5249 376.6993,-110.8098 376.6993,-110.8098"/>
<ellipse fill="none" stroke="#000000" cx="373.579" cy="-111.5197" rx="3.2" ry="3.2"/>
</g>
<!-- message_notifications -->
<g id="node5" class="node">
<title>message_notifications</title>
<g id="a_node5"><a xlink:href="../../tables/message_notifications.html" xlink:title="message_notifications" target="_top">
<polygon fill="#ffffff" stroke="transparent" points="539,-151.5352 539,-212.5352 707,-212.5352 707,-151.5352 539,-151.5352"/>
<polygon fill="#f5f5f5" stroke="transparent" points="539,-189.0352 539,-212.0352 707,-212.0352 707,-189.0352 539,-189.0352"/>
<polygon fill="none" stroke="#000000" points="539,-189.0352 539,-212.0352 707,-212.0352 707,-189.0352 539,-189.0352"/>
<text text-anchor="start" x="544" y="-197.6352" font-family="Helvetica,sans-Serif" font-weight="bold" font-size="11.00" fill="#000000">message_notifications</text>
<text text-anchor="start" x="672.5219" y="-197.1352" font-family="Helvetica,sans-Serif" font-size="11.00" fill="#000000">[table]</text>
<polygon fill="none" stroke="#000000" points="539,-170.0352 539,-189.0352 707,-189.0352 707,-170.0352 539,-170.0352"/>
<text text-anchor="start" x="542" y="-176.1352" font-family="Helvetica,sans-Serif" font-size="11.00" fill="#000000">...</text>
<polygon fill="#ffffff" stroke="transparent" points="539,-151.0352 539,-170.0352 608,-170.0352 608,-151.0352 539,-151.0352"/>
<polygon fill="none" stroke="#000000" points="539,-151.0352 539,-170.0352 608,-170.0352 608,-151.0352 539,-151.0352"/>
<text text-anchor="start" x="542" y="-157.1352" font-family="Helvetica,sans-Serif" font-size="11.00" fill="#000000">&lt; 2</text>
<polygon fill="#ffffff" stroke="transparent" points="608,-151.0352 608,-170.0352 670,-170.0352 670,-151.0352 608,-151.0352"/>
<polygon fill="none" stroke="#000000" points="608,-151.0352 608,-170.0352 670,-170.0352 670,-151.0352 608,-151.0352"/>
<text text-anchor="start" x="634.6105" y="-157.1352" font-family="Helvetica,sans-Serif" font-size="11.00" fill="#000000">0 rows</text>
<polygon fill="#ffffff" stroke="transparent" points="670,-151.0352 670,-170.0352 707,-170.0352 707,-151.0352 670,-151.0352"/>
<polygon fill="none" stroke="#000000" points="670,-151.0352 670,-170.0352 707,-170.0352 707,-151.0352 670,-151.0352"/>
<text text-anchor="start" x="697.8862" y="-157.1352" font-family="Helvetica,sans-Serif" font-size="11.00" fill="#000000"> &#160;</text>
</a>
</g>
</g>
<!-- message_notifications&#45;&gt;patients -->
<g id="edge5" class="edge">
<title>message_notifications:w&#45;&gt;patients:e</title>
<path fill="none" stroke="#000000" d="M524.8063,-176.5017C490.9574,-161.3296 541.8143,-82.0838 498,-50.0352 451.5844,-16.0839 161.1333,-44.414 134,-69.0352 60.0495,-136.139 193.3579,-290.0352 93.5,-290.0352"/>
<polygon fill="#000000" stroke="#000000" points="531.1245,-177.6294 538.3674,-182.5792 535.0622,-178.3323 539,-179.0352 539,-179.0352 539,-179.0352 535.0622,-178.3323 539.6326,-175.4912 531.1245,-177.6294 531.1245,-177.6294"/>
<ellipse fill="none" stroke="#000000" cx="527.9743" cy="-177.0671" rx="3.2" ry="3.2"/>
</g>
<!-- messages -->
<g id="node6" class="node">
<title>messages</title>
<g id="a_node6"><a xlink:href="../../tables/messages.html" xlink:title="messages" target="_top">
<polygon fill="#ffffff" stroke="transparent" points="367,-208.5352 367,-357.5352 490,-357.5352 490,-208.5352 367,-208.5352"/>
<polygon fill="#f5f5f5" stroke="transparent" points="367.5,-334.0352 367.5,-357.0352 490.5,-357.0352 490.5,-334.0352 367.5,-334.0352"/>
<polygon fill="none" stroke="#000000" points="367.5,-334.0352 367.5,-357.0352 490.5,-357.0352 490.5,-334.0352 367.5,-334.0352"/>
<text text-anchor="start" x="372.5" y="-342.6352" font-family="Helvetica,sans-Serif" font-weight="bold" font-size="11.00" fill="#000000">messages</text>
<text text-anchor="start" x="455.5437" y="-342.1352" font-family="Helvetica,sans-Serif" font-size="11.00" fill="#000000">[table]</text>
<polygon fill="none" stroke="#000000" points="367.5,-312.0352 367.5,-334.0352 490.5,-334.0352 490.5,-312.0352 367.5,-312.0352"/>
<image xlink:href="../../images/primaryKeys.png" width="11px" height="12px" preserveAspectRatio="xMinYMin meet" x="372.5" y="-329.035"/>
<text text-anchor="start" x="387.5" y="-319.1352" font-family="Helvetica,sans-Serif" font-size="11.00" fill="#000000">id_message</text>
<polygon fill="none" stroke="#000000" points="367.5,-290.0352 367.5,-312.0352 490.5,-312.0352 490.5,-290.0352 367.5,-290.0352"/>
<image xlink:href="../../images/foreignKeys.png" width="11px" height="12px" preserveAspectRatio="xMinYMin meet" x="372.5" y="-307.035"/>
<text text-anchor="start" x="387.5" y="-297.1352" font-family="Helvetica,sans-Serif" font-size="11.00" fill="#000000">chat_id</text>
<polygon fill="none" stroke="#000000" points="367.5,-268.0352 367.5,-290.0352 490.5,-290.0352 490.5,-268.0352 367.5,-268.0352"/>
<image xlink:href="../../images/foreignKeys.png" width="11px" height="12px" preserveAspectRatio="xMinYMin meet" x="372.5" y="-285.035"/>
<text text-anchor="start" x="387.5" y="-275.1352" font-family="Helvetica,sans-Serif" font-size="11.00" fill="#000000">sender_patient_id</text>
<polygon fill="none" stroke="#000000" points="367.5,-246.0352 367.5,-268.0352 490.5,-268.0352 490.5,-246.0352 367.5,-246.0352"/>
<image xlink:href="../../images/foreignKeys.png" width="11px" height="12px" preserveAspectRatio="xMinYMin meet" x="372.5" y="-263.035"/>
<text text-anchor="start" x="387.5" y="-253.1352" font-family="Helvetica,sans-Serif" font-size="11.00" fill="#000000">sender_staff_id</text>
<polygon fill="none" stroke="#000000" points="367.5,-227.0352 367.5,-246.0352 490.5,-246.0352 490.5,-227.0352 367.5,-227.0352"/>
<text text-anchor="start" x="370.5" y="-233.1352" font-family="Helvetica,sans-Serif" font-size="11.00" fill="#000000">...</text>
<polygon fill="#ffffff" stroke="transparent" points="367.5,-208.0352 367.5,-227.0352 409.5,-227.0352 409.5,-208.0352 367.5,-208.0352"/>
<polygon fill="none" stroke="#000000" points="367.5,-208.0352 367.5,-227.0352 409.5,-227.0352 409.5,-208.0352 367.5,-208.0352"/>
<text text-anchor="start" x="370.5" y="-214.1352" font-family="Helvetica,sans-Serif" font-size="11.00" fill="#000000">&lt; 3</text>
<polygon fill="#ffffff" stroke="transparent" points="409.5,-208.0352 409.5,-227.0352 458.5,-227.0352 458.5,-208.0352 409.5,-208.0352"/>
<polygon fill="none" stroke="#000000" points="409.5,-208.0352 409.5,-227.0352 458.5,-227.0352 458.5,-208.0352 409.5,-208.0352"/>
<text text-anchor="start" x="423.1105" y="-214.1352" font-family="Helvetica,sans-Serif" font-size="11.00" fill="#000000">0 rows</text>
<polygon fill="#ffffff" stroke="transparent" points="458.5,-208.0352 458.5,-227.0352 490.5,-227.0352 490.5,-208.0352 458.5,-208.0352"/>
<polygon fill="none" stroke="#000000" points="458.5,-208.0352 458.5,-227.0352 490.5,-227.0352 490.5,-208.0352 458.5,-208.0352"/>
<text text-anchor="start" x="471.9053" y="-214.1352" font-family="Helvetica,sans-Serif" font-size="11.00" fill="#000000">1 &gt;</text>
</a>
</g>
</g>
<!-- message_notifications&#45;&gt;messages -->
<g id="edge4" class="edge">
<title>message_notifications:w&#45;&gt;messages:e</title>
<path fill="none" stroke="#000000" d="M524.8078,-182.0428C485.2078,-202.7217 552.2289,-323.0352 490.5,-323.0352"/>
<polygon fill="#000000" stroke="#000000" points="531.1738,-180.6938 539.7464,-182.557 535.0869,-179.8645 539,-179.0352 539,-179.0352 539,-179.0352 535.0869,-179.8645 538.2536,-175.5134 531.1738,-180.6938 531.1738,-180.6938"/>
<ellipse fill="none" stroke="#000000" cx="528.0433" cy="-181.3572" rx="3.2" ry="3.2"/>
</g>
<!-- messages&#45;&gt;chats -->
<g id="edge6" class="edge">
<title>messages:w&#45;&gt;chats:e</title>
<path fill="none" stroke="#000000" d="M352.9487,-301.6418C320.7811,-304.448 308.534,-316.0352 270,-316.0352"/>
<polygon fill="#000000" stroke="#000000" points="359.5069,-301.3684 367.65,-304.6321 363.5035,-301.2018 367.5,-301.0352 367.5,-301.0352 367.5,-301.0352 363.5035,-301.2018 367.35,-297.4383 359.5069,-301.3684 359.5069,-301.3684"/>
<ellipse fill="none" stroke="#000000" cx="356.3097" cy="-301.5017" rx="3.2" ry="3.2"/>
</g>
<!-- messages&#45;&gt;patients -->
<g id="edge7" class="edge">
<title>messages:w&#45;&gt;patients:e</title>
<path fill="none" stroke="#000000" d="M352.833,-278.8311C344.5395,-278.5846 338.3951,-278.1845 326,-278.0352 240.6729,-277.0073 218.4498,-265.7873 134,-278.0352 115.4209,-280.7297 112.2735,-290.0352 93.5,-290.0352"/>
<polygon fill="#000000" stroke="#000000" points="359.5008,-278.9238 367.4499,-282.6348 363.5004,-278.9795 367.5,-279.0352 367.5,-279.0352 367.5,-279.0352 363.5004,-278.9795 367.5501,-275.4355 359.5008,-278.9238 359.5008,-278.9238"/>
<ellipse fill="none" stroke="#000000" cx="356.3011" cy="-278.8793" rx="3.2" ry="3.2"/>
</g>
<!-- messages&#45;&gt;users -->
<g id="edge8" class="edge">
<title>messages:w&#45;&gt;users:e</title>
<path fill="none" stroke="#000000" d="M353.4372,-252.1754C337.7455,-238.3912 344.0071,-200.0352 316,-200.0352"/>
<polygon fill="#000000" stroke="#000000" points="359.9388,-254.4221 366.3241,-260.4377 363.7194,-255.7287 367.5,-257.0352 367.5,-257.0352 367.5,-257.0352 363.7194,-255.7287 368.6759,-253.6326 359.9388,-254.4221 359.9388,-254.4221"/>
<ellipse fill="none" stroke="#000000" cx="356.9143" cy="-253.3769" rx="3.2" ry="3.2"/>
</g>
<!-- question_responses -->
<g id="node7" class="node">
<title>question_responses</title>
<g id="a_node7"><a xlink:href="../../tables/question_responses.html" xlink:title="question_responses" target="_top">
<polygon fill="#ffffff" stroke="transparent" points="545.5,-465.5352 545.5,-526.5352 700.5,-526.5352 700.5,-465.5352 545.5,-465.5352"/>
<polygon fill="#f5f5f5" stroke="transparent" points="546,-503.0352 546,-526.0352 701,-526.0352 701,-503.0352 546,-503.0352"/>
<polygon fill="none" stroke="#000000" points="546,-503.0352 546,-526.0352 701,-526.0352 701,-503.0352 546,-503.0352"/>
<text text-anchor="start" x="551" y="-511.6352" font-family="Helvetica,sans-Serif" font-weight="bold" font-size="11.00" fill="#000000">question_responses</text>
<text text-anchor="start" x="666.5219" y="-511.1352" font-family="Helvetica,sans-Serif" font-size="11.00" fill="#000000">[table]</text>
<polygon fill="none" stroke="#000000" points="546,-484.0352 546,-503.0352 701,-503.0352 701,-484.0352 546,-484.0352"/>
<text text-anchor="start" x="549" y="-490.1352" font-family="Helvetica,sans-Serif" font-size="11.00" fill="#000000">...</text>
<polygon fill="#ffffff" stroke="transparent" points="546,-465.0352 546,-484.0352 609,-484.0352 609,-465.0352 546,-465.0352"/>
<polygon fill="none" stroke="#000000" points="546,-465.0352 546,-484.0352 609,-484.0352 609,-465.0352 546,-465.0352"/>
<text text-anchor="start" x="549" y="-471.1352" font-family="Helvetica,sans-Serif" font-size="11.00" fill="#000000">&lt; 2</text>
<polygon fill="#ffffff" stroke="transparent" points="609,-465.0352 609,-484.0352 668,-484.0352 668,-465.0352 609,-465.0352"/>
<polygon fill="none" stroke="#000000" points="609,-465.0352 609,-484.0352 668,-484.0352 668,-465.0352 609,-465.0352"/>
<text text-anchor="start" x="632.6105" y="-471.1352" font-family="Helvetica,sans-Serif" font-size="11.00" fill="#000000">0 rows</text>
<polygon fill="#ffffff" stroke="transparent" points="668,-465.0352 668,-484.0352 701,-484.0352 701,-465.0352 668,-465.0352"/>
<polygon fill="none" stroke="#000000" points="668,-465.0352 668,-484.0352 701,-484.0352 701,-465.0352 668,-465.0352"/>
<text text-anchor="start" x="691.8862" y="-471.1352" font-family="Helvetica,sans-Serif" font-size="11.00" fill="#000000"> &#160;</text>
</a>
</g>
</g>
<!-- responses -->
<g id="node8" class="node">
<title>responses</title>
<g id="a_node8"><a xlink:href="../../tables/responses.html" xlink:title="responses" target="_top">
<polygon fill="#ffffff" stroke="transparent" points="379,-378.5352 379,-527.5352 478,-527.5352 478,-378.5352 379,-378.5352"/>
<polygon fill="#f5f5f5" stroke="transparent" points="379.5,-504.0352 379.5,-527.0352 478.5,-527.0352 478.5,-504.0352 379.5,-504.0352"/>
<polygon fill="none" stroke="#000000" points="379.5,-504.0352 379.5,-527.0352 478.5,-527.0352 478.5,-504.0352 379.5,-504.0352"/>
<text text-anchor="start" x="384.5" y="-512.6352" font-family="Helvetica,sans-Serif" font-weight="bold" font-size="11.00" fill="#000000">responses</text>
<text text-anchor="start" x="444.0219" y="-512.1352" font-family="Helvetica,sans-Serif" font-size="11.00" fill="#000000">[table]</text>
<polygon fill="none" stroke="#000000" points="379.5,-482.0352 379.5,-504.0352 478.5,-504.0352 478.5,-482.0352 379.5,-482.0352"/>
<image xlink:href="../../images/primaryKeys.png" width="11px" height="12px" preserveAspectRatio="xMinYMin meet" x="384.5" y="-499.035"/>
<text text-anchor="start" x="400.5" y="-489.1352" font-family="Helvetica,sans-Serif" font-size="11.00" fill="#000000">id_responses</text>
<polygon fill="none" stroke="#000000" points="379.5,-460.0352 379.5,-482.0352 478.5,-482.0352 478.5,-460.0352 379.5,-460.0352"/>
<image xlink:href="../../images/foreignKeys.png" width="11px" height="12px" preserveAspectRatio="xMinYMin meet" x="384.5" y="-477.035"/>
<text text-anchor="start" x="400.5" y="-467.1352" font-family="Helvetica,sans-Serif" font-size="11.00" fill="#000000">formId</text>
<polygon fill="none" stroke="#000000" points="379.5,-438.0352 379.5,-460.0352 478.5,-460.0352 478.5,-438.0352 379.5,-438.0352"/>
<image xlink:href="../../images/foreignKeys.png" width="11px" height="12px" preserveAspectRatio="xMinYMin meet" x="384.5" y="-455.035"/>
<text text-anchor="start" x="400.5" y="-445.1352" font-family="Helvetica,sans-Serif" font-size="11.00" fill="#000000">submittedBy</text>
<polygon fill="none" stroke="#000000" points="379.5,-416.0352 379.5,-438.0352 478.5,-438.0352 478.5,-416.0352 379.5,-416.0352"/>
<image xlink:href="../../images/foreignKeys.png" width="11px" height="12px" preserveAspectRatio="xMinYMin meet" x="384.5" y="-433.035"/>
<text text-anchor="start" x="400.5" y="-423.1352" font-family="Helvetica,sans-Serif" font-size="11.00" fill="#000000">assignedBy</text>
<polygon fill="none" stroke="#000000" points="379.5,-397.0352 379.5,-416.0352 478.5,-416.0352 478.5,-397.0352 379.5,-397.0352"/>
<text text-anchor="start" x="382.5" y="-403.1352" font-family="Helvetica,sans-Serif" font-size="11.00" fill="#000000">...</text>
<polygon fill="#ffffff" stroke="transparent" points="379.5,-378.0352 379.5,-397.0352 409.5,-397.0352 409.5,-378.0352 379.5,-378.0352"/>
<polygon fill="none" stroke="#000000" points="379.5,-378.0352 379.5,-397.0352 409.5,-397.0352 409.5,-378.0352 379.5,-378.0352"/>
<text text-anchor="start" x="382.5" y="-384.1352" font-family="Helvetica,sans-Serif" font-size="11.00" fill="#000000">&lt; 3</text>
<polygon fill="#ffffff" stroke="transparent" points="409.5,-378.0352 409.5,-397.0352 452.5,-397.0352 452.5,-378.0352 409.5,-378.0352"/>
<polygon fill="none" stroke="#000000" points="409.5,-378.0352 409.5,-397.0352 452.5,-397.0352 452.5,-378.0352 409.5,-378.0352"/>
<text text-anchor="start" x="417.1105" y="-384.1352" font-family="Helvetica,sans-Serif" font-size="11.00" fill="#000000">0 rows</text>
<polygon fill="#ffffff" stroke="transparent" points="452.5,-378.0352 452.5,-397.0352 478.5,-397.0352 478.5,-378.0352 452.5,-378.0352"/>
<polygon fill="none" stroke="#000000" points="452.5,-378.0352 452.5,-397.0352 478.5,-397.0352 478.5,-378.0352 452.5,-378.0352"/>
<text text-anchor="start" x="459.9053" y="-384.1352" font-family="Helvetica,sans-Serif" font-size="11.00" fill="#000000">1 &gt;</text>
</a>
</g>
</g>
<!-- question_responses&#45;&gt;responses -->
<g id="edge9" class="edge">
<title>question_responses:w&#45;&gt;responses:e</title>
<path fill="none" stroke="#000000" d="M531.4733,-493.0352C512.4877,-493.0352 502.9922,-493.0352 478.5,-493.0352"/>
<polygon fill="#000000" stroke="#000000" points="538,-493.0352 546,-496.6352 542,-493.0352 546,-493.0352 546,-493.0352 546,-493.0352 542,-493.0352 546,-489.4352 538,-493.0352 538,-493.0352"/>
<ellipse fill="none" stroke="#000000" cx="534.8" cy="-493.0353" rx="3.2" ry="3.2"/>
</g>
<!-- responses&#45;&gt;patients -->
<g id="edge12" class="edge">
<title>responses:w&#45;&gt;patients:e</title>
<path fill="none" stroke="#000000" d="M365.2422,-445.5929C313.2869,-430.213 143.7331,-368.1841 134,-360.0352 106.4407,-336.9616 129.443,-290.0352 93.5,-290.0352"/>
<polygon fill="#000000" stroke="#000000" points="371.7234,-447.1577 378.6551,-452.5346 375.6117,-448.0964 379.5,-449.0352 379.5,-449.0352 379.5,-449.0352 375.6117,-448.0964 380.3449,-445.5357 371.7234,-447.1577 371.7234,-447.1577"/>
<ellipse fill="none" stroke="#000000" cx="368.6128" cy="-446.4066" rx="3.2" ry="3.2"/>
</g>
<!-- responses&#45;&gt;users -->
<g id="edge10" class="edge">
<title>responses:w&#45;&gt;users:e</title>
<path fill="none" stroke="#000000" d="M364.945,-425.208C289.4416,-403.725 415.2374,-200.0352 316,-200.0352"/>
<polygon fill="#000000" stroke="#000000" points="371.5623,-426.0386 379.0516,-430.6071 375.5312,-426.5369 379.5,-427.0352 379.5,-427.0352 379.5,-427.0352 375.5312,-426.5369 379.9484,-423.4632 371.5623,-426.0386 371.5623,-426.0386"/>
<ellipse fill="none" stroke="#000000" cx="368.3872" cy="-425.64" rx="3.2" ry="3.2"/>
</g>
<!-- forms -->
<g id="node9" class="node">
<title>forms</title>
<g id="a_node9"><a xlink:href="../../tables/forms.html" xlink:title="forms" target="_top">
<polygon fill="#ffffff" stroke="transparent" points="194,-443.5352 194,-504.5352 266,-504.5352 266,-443.5352 194,-443.5352"/>
<polygon fill="#f5f5f5" stroke="transparent" points="194,-481.0352 194,-504.0352 266,-504.0352 266,-481.0352 194,-481.0352"/>
<polygon fill="none" stroke="#000000" points="194,-481.0352 194,-504.0352 266,-504.0352 266,-481.0352 194,-481.0352"/>
<text text-anchor="start" x="199" y="-489.6352" font-family="Helvetica,sans-Serif" font-weight="bold" font-size="11.00" fill="#000000">forms</text>
<text text-anchor="start" x="231.5219" y="-489.1352" font-family="Helvetica,sans-Serif" font-size="11.00" fill="#000000">[table]</text>
<polygon fill="none" stroke="#000000" points="194,-462.0352 194,-481.0352 266,-481.0352 266,-462.0352 194,-462.0352"/>
<text text-anchor="start" x="197" y="-468.1352" font-family="Helvetica,sans-Serif" font-size="11.00" fill="#000000">...</text>
<polygon fill="#ffffff" stroke="transparent" points="194,-443.0352 194,-462.0352 206,-462.0352 206,-443.0352 194,-443.0352"/>
<polygon fill="none" stroke="#000000" points="194,-443.0352 194,-462.0352 206,-462.0352 206,-443.0352 194,-443.0352"/>
<text text-anchor="start" x="196.9431" y="-449.1352" font-family="Helvetica,sans-Serif" font-size="11.00" fill="#000000"> &#160;</text>
<polygon fill="#ffffff" stroke="transparent" points="206,-443.0352 206,-462.0352 244,-462.0352 244,-443.0352 206,-443.0352"/>
<polygon fill="none" stroke="#000000" points="206,-443.0352 206,-462.0352 244,-462.0352 244,-443.0352 206,-443.0352"/>
<text text-anchor="start" x="208.8053" y="-449.1352" font-family="Helvetica,sans-Serif" font-size="11.00" fill="#000000">0 rows</text>
<polygon fill="#ffffff" stroke="transparent" points="244,-443.0352 244,-462.0352 266,-462.0352 266,-443.0352 244,-443.0352"/>
<polygon fill="none" stroke="#000000" points="244,-443.0352 244,-462.0352 266,-462.0352 266,-443.0352 244,-443.0352"/>
<text text-anchor="start" x="247.4053" y="-449.1352" font-family="Helvetica,sans-Serif" font-size="11.00" fill="#000000">2 &gt;</text>
</a>
</g>
</g>
<!-- responses&#45;&gt;forms -->
<g id="edge11" class="edge">
<title>responses:w&#45;&gt;forms:e</title>
<path fill="none" stroke="#000000" d="M364.9669,-471.0352C326.0393,-471.0352 311.2227,-471.0352 266,-471.0352"/>
<polygon fill="#000000" stroke="#000000" points="371.5,-471.0352 379.5,-474.6352 375.5,-471.0352 379.5,-471.0352 379.5,-471.0352 379.5,-471.0352 375.5,-471.0352 379.5,-467.4352 371.5,-471.0352 371.5,-471.0352"/>
<ellipse fill="none" stroke="#000000" cx="368.3" cy="-471.0353" rx="3.2" ry="3.2"/>
</g>
</g>
</svg>
