<?xml version="1.0" encoding="UTF-8" standalone="no"?>
<!DOCTYPE svg PUBLIC "-//W3C//DTD SVG 1.1//EN"
 "http://www.w3.org/Graphics/SVG/1.1/DTD/svg11.dtd">
<!-- Generated by graphviz version 2.40.1 (20161225.0304)
 -->
<!-- Title: twoDegreesRelationshipsDiagram Pages: 1 -->
<svg width="816pt" height="388pt"
 viewBox="0.00 0.00 816.00 387.70" xmlns="http://www.w3.org/2000/svg" xmlns:xlink="http://www.w3.org/1999/xlink">
<g id="graph0" class="graph" transform="scale(1 1) rotate(0) translate(4 383.7)">
<title>twoDegreesRelationshipsDiagram</title>
<polygon fill="#ffffff" stroke="transparent" points="-4,4 -4,-383.7 812,-383.7 812,4 -4,4"/>
<text text-anchor="middle" x="72.4936" y="-7.3" font-family="Helvetica,sans-Serif" font-size="11.00" fill="#000000">Generated by SchemaSpy</text>
<!-- chats -->
<g id="node1" class="node">
<title>chats</title>
<g id="a_node1"><a xlink:href="../../tables/chats.html" xlink:title="chats" target="_top">
<polygon fill="#ffffff" stroke="transparent" points="277,-314.7 277,-375.7 357,-375.7 357,-314.7 277,-314.7"/>
<polygon fill="#f5f5f5" stroke="transparent" points="277,-352.2 277,-375.2 357,-375.2 357,-352.2 277,-352.2"/>
<polygon fill="none" stroke="#000000" points="277,-352.2 277,-375.2 357,-375.2 357,-352.2 277,-352.2"/>
<text text-anchor="start" x="282" y="-360.8" font-family="Helvetica,sans-Serif" font-weight="bold" font-size="11.00" fill="#000000">chats</text>
<text text-anchor="start" x="322.0437" y="-360.3" font-family="Helvetica,sans-Serif" font-size="11.00" fill="#000000">[table]</text>
<polygon fill="none" stroke="#000000" points="277,-333.2 277,-352.2 357,-352.2 357,-333.2 277,-333.2"/>
<text text-anchor="start" x="280" y="-339.3" font-family="Helvetica,sans-Serif" font-size="11.00" fill="#000000">...</text>
<polygon fill="#ffffff" stroke="transparent" points="277,-314.2 277,-333.2 298,-333.2 298,-314.2 277,-314.2"/>
<polygon fill="none" stroke="#000000" points="277,-314.2 277,-333.2 298,-333.2 298,-314.2 277,-314.2"/>
<text text-anchor="start" x="279.7027" y="-320.3" font-family="Helvetica,sans-Serif" font-size="11.00" fill="#000000">&lt; 1</text>
<polygon fill="#ffffff" stroke="transparent" points="298,-314.2 298,-333.2 336,-333.2 336,-314.2 298,-314.2"/>
<polygon fill="none" stroke="#000000" points="298,-314.2 298,-333.2 336,-333.2 336,-314.2 298,-314.2"/>
<text text-anchor="start" x="300.8053" y="-320.3" font-family="Helvetica,sans-Serif" font-size="11.00" fill="#000000">0 rows</text>
<polygon fill="#ffffff" stroke="transparent" points="336,-314.2 336,-333.2 357,-333.2 357,-314.2 336,-314.2"/>
<polygon fill="none" stroke="#000000" points="336,-314.2 336,-333.2 357,-333.2 357,-314.2 336,-314.2"/>
<text text-anchor="start" x="338.7027" y="-320.3" font-family="Helvetica,sans-Serif" font-size="11.00" fill="#000000">1 &gt;</text>
</a>
</g>
</g>
<!-- patients -->
<g id="node2" class="node">
<title>patients</title>
<g id="a_node2"><a xlink:href="../../tables/patients.html" xlink:title="patients" target="_top">
<polygon fill="#ffffff" stroke="transparent" points="143,-119.7 143,-180.7 228,-180.7 228,-119.7 143,-119.7"/>
<polygon fill="#f5f5f5" stroke="transparent" points="143.5,-157.2 143.5,-180.2 228.5,-180.2 228.5,-157.2 143.5,-157.2"/>
<polygon fill="none" stroke="#000000" points="143.5,-157.2 143.5,-180.2 228.5,-180.2 228.5,-157.2 143.5,-157.2"/>
<text text-anchor="start" x="148.5" y="-165.8" font-family="Helvetica,sans-Serif" font-weight="bold" font-size="11.00" fill="#000000">patients</text>
<text text-anchor="start" x="194.0219" y="-165.3" font-family="Helvetica,sans-Serif" font-size="11.00" fill="#000000">[table]</text>
<polygon fill="none" stroke="#000000" points="143.5,-138.2 143.5,-157.2 228.5,-157.2 228.5,-138.2 143.5,-138.2"/>
<text text-anchor="start" x="146.5" y="-144.3" font-family="Helvetica,sans-Serif" font-size="11.00" fill="#000000">...</text>
<polygon fill="#ffffff" stroke="transparent" points="143.5,-119.2 143.5,-138.2 166.5,-138.2 166.5,-119.2 143.5,-119.2"/>
<polygon fill="none" stroke="#000000" points="143.5,-119.2 143.5,-138.2 166.5,-138.2 166.5,-119.2 143.5,-119.2"/>
<text text-anchor="start" x="146.5" y="-125.3" font-family="Helvetica,sans-Serif" font-size="11.00" fill="#000000">&lt; 1</text>
<polygon fill="#ffffff" stroke="transparent" points="166.5,-119.2 166.5,-138.2 205.5,-138.2 205.5,-119.2 166.5,-119.2"/>
<polygon fill="none" stroke="#000000" points="166.5,-119.2 166.5,-138.2 205.5,-138.2 205.5,-119.2 166.5,-119.2"/>
<text text-anchor="start" x="170.1105" y="-125.3" font-family="Helvetica,sans-Serif" font-size="11.00" fill="#000000">0 rows</text>
<polygon fill="#ffffff" stroke="transparent" points="205.5,-119.2 205.5,-138.2 228.5,-138.2 228.5,-119.2 205.5,-119.2"/>
<polygon fill="none" stroke="#000000" points="205.5,-119.2 205.5,-138.2 228.5,-138.2 228.5,-119.2 205.5,-119.2"/>
<text text-anchor="start" x="209.9053" y="-125.3" font-family="Helvetica,sans-Serif" font-size="11.00" fill="#000000">5 &gt;</text>
</a>
</g>
</g>
<!-- chats&#45;&gt;patients -->
<g id="edge1" class="edge">
<title>chats:w&#45;&gt;patients:e</title>
<path fill="none" stroke="#000000" d="M263.4031,-337.1555C234.1575,-315.954 207.7118,-232.9505 194.4565,-184.9698"/>
<polygon fill="#000000" stroke="#000000" points="269.4996,-339.4173 275.7478,-345.5752 273.2498,-340.8086 277,-342.2 277,-342.2 277,-342.2 273.2498,-340.8086 278.2522,-338.8248 269.4996,-339.4173 269.4996,-339.4173"/>
<ellipse fill="none" stroke="#000000" cx="266.4994" cy="-338.3042" rx="3.2" ry="3.2"/>
</g>
<!-- cid -->
<g id="node7" class="node">
<title>cid</title>
<g id="a_node7"><a xlink:href="../../tables/cid.html" xlink:title="cid" target="_top">
<polygon fill="#ffffff" stroke="transparent" points="8,-122.7 8,-183.7 94,-183.7 94,-122.7 8,-122.7"/>
<polygon fill="#f5f5f5" stroke="transparent" points="8,-160.2 8,-183.2 94,-183.2 94,-160.2 8,-160.2"/>
<polygon fill="none" stroke="#000000" points="8,-160.2 8,-183.2 94,-183.2 94,-160.2 8,-160.2"/>
<text text-anchor="start" x="12.4721" y="-168.8" font-family="Helvetica,sans-Serif" font-weight="bold" font-size="11.00" fill="#000000">cid</text>
<text text-anchor="start" x="59.0437" y="-168.3" font-family="Helvetica,sans-Serif" font-size="11.00" fill="#000000">[table]</text>
<polygon fill="none" stroke="#000000" points="8,-141.2 8,-160.2 94,-160.2 94,-141.2 8,-141.2"/>
<text text-anchor="start" x="11" y="-147.3" font-family="Helvetica,sans-Serif" font-size="11.00" fill="#000000">...</text>
<polygon fill="#ffffff" stroke="transparent" points="8,-122.2 8,-141.2 29,-141.2 29,-122.2 8,-122.2"/>
<polygon fill="none" stroke="#000000" points="8,-122.2 8,-141.2 29,-141.2 29,-122.2 8,-122.2"/>
<text text-anchor="start" x="10.7027" y="-128.3" font-family="Helvetica,sans-Serif" font-size="11.00" fill="#000000">&lt; 1</text>
<polygon fill="#ffffff" stroke="transparent" points="29,-122.2 29,-141.2 73,-141.2 73,-122.2 29,-122.2"/>
<polygon fill="none" stroke="#000000" points="29,-122.2 29,-141.2 73,-141.2 73,-122.2 29,-122.2"/>
<text text-anchor="start" x="31.7478" y="-128.3" font-family="Helvetica,sans-Serif" font-size="11.00" fill="#000000">88 rows</text>
<polygon fill="#ffffff" stroke="transparent" points="73,-122.2 73,-141.2 94,-141.2 94,-122.2 73,-122.2"/>
<polygon fill="none" stroke="#000000" points="73,-122.2 73,-141.2 94,-141.2 94,-122.2 73,-122.2"/>
<text text-anchor="start" x="75.7027" y="-128.3" font-family="Helvetica,sans-Serif" font-size="11.00" fill="#000000">1 &gt;</text>
</a>
</g>
</g>
<!-- patients&#45;&gt;cid -->
<g id="edge8" class="edge">
<title>patients:w&#45;&gt;cid:e</title>
<path fill="none" stroke="#000000" d="M120.1089,-150.2C111.3317,-150.2 102.4466,-150.2 94,-150.2"/>
<polygon fill="#000000" stroke="#000000" points="126.6818,-150.2001 134.6819,-153.8 130.6818,-150.2 134.6818,-150.2 134.6818,-150.2 134.6818,-150.2 130.6818,-150.2 134.6818,-146.6 126.6818,-150.2001 126.6818,-150.2001"/>
<ellipse fill="none" stroke="#000000" cx="123.4818" cy="-150.2001" rx="3.2" ry="3.2"/>
</g>
<!-- device -->
<g id="node3" class="node">
<title>device</title>
<g id="a_node3"><a xlink:href="../../tables/device.html" xlink:title="device" target="_top">
<polygon fill="#ffffff" stroke="transparent" points="279,-122.7 279,-183.7 355,-183.7 355,-122.7 279,-122.7"/>
<polygon fill="#f5f5f5" stroke="transparent" points="279,-160.2 279,-183.2 355,-183.2 355,-160.2 279,-160.2"/>
<polygon fill="none" stroke="#000000" points="279,-160.2 279,-183.2 355,-183.2 355,-160.2 279,-160.2"/>
<text text-anchor="start" x="284" y="-168.8" font-family="Helvetica,sans-Serif" font-weight="bold" font-size="11.00" fill="#000000">device</text>
<text text-anchor="start" x="320.5219" y="-168.3" font-family="Helvetica,sans-Serif" font-size="11.00" fill="#000000">[table]</text>
<polygon fill="none" stroke="#000000" points="279,-141.2 279,-160.2 355,-160.2 355,-141.2 279,-141.2"/>
<text text-anchor="start" x="282" y="-147.3" font-family="Helvetica,sans-Serif" font-size="11.00" fill="#000000">...</text>
<polygon fill="#ffffff" stroke="transparent" points="279,-122.2 279,-141.2 302,-141.2 302,-122.2 279,-122.2"/>
<polygon fill="none" stroke="#000000" points="279,-122.2 279,-141.2 302,-141.2 302,-122.2 279,-122.2"/>
<text text-anchor="start" x="282" y="-128.3" font-family="Helvetica,sans-Serif" font-size="11.00" fill="#000000">&lt; 1</text>
<polygon fill="#ffffff" stroke="transparent" points="302,-122.2 302,-141.2 341,-141.2 341,-122.2 302,-122.2"/>
<polygon fill="none" stroke="#000000" points="302,-122.2 302,-141.2 341,-141.2 341,-122.2 302,-122.2"/>
<text text-anchor="start" x="305.6105" y="-128.3" font-family="Helvetica,sans-Serif" font-size="11.00" fill="#000000">0 rows</text>
<polygon fill="#ffffff" stroke="transparent" points="341,-122.2 341,-141.2 355,-141.2 355,-122.2 341,-122.2"/>
<polygon fill="none" stroke="#000000" points="341,-122.2 341,-141.2 355,-141.2 355,-122.2 341,-122.2"/>
<text text-anchor="start" x="345.8862" y="-128.3" font-family="Helvetica,sans-Serif" font-size="11.00" fill="#000000"> &#160;</text>
</a>
</g>
</g>
<!-- device&#45;&gt;patients -->
<g id="edge2" class="edge">
<title>device:w&#45;&gt;patients:e</title>
<path fill="none" stroke="#000000" d="M264.4578,-150.2C255.0632,-150.2 245.5131,-150.2 236.4525,-150.2"/>
<polygon fill="#000000" stroke="#000000" points="271,-150.2001 279,-153.8 275,-150.2 279,-150.2 279,-150.2 279,-150.2 275,-150.2 279,-146.6 271,-150.2001 271,-150.2001"/>
<ellipse fill="none" stroke="#000000" cx="267.8" cy="-150.2001" rx="3.2" ry="3.2"/>
</g>
<!-- message_notifications -->
<g id="node4" class="node">
<title>message_notifications</title>
<g id="a_node4"><a xlink:href="../../tables/message_notifications.html" xlink:title="message_notifications" target="_top">
<polygon fill="#ffffff" stroke="transparent" points="554,-38.2 554,-238.2 800,-238.2 800,-38.2 554,-38.2"/>
<polygon fill="#f5f5f5" stroke="transparent" points="556,-213.2 556,-236.2 798,-236.2 798,-213.2 556,-213.2"/>
<polygon fill="none" stroke="#000000" points="556,-213.2 556,-236.2 798,-236.2 798,-213.2 556,-213.2"/>
<text text-anchor="start" x="561" y="-221.8" font-family="Helvetica,sans-Serif" font-weight="bold" font-size="11.00" fill="#000000">message_notifications</text>
<text text-anchor="start" x="763.0437" y="-221.3" font-family="Helvetica,sans-Serif" font-size="11.00" fill="#000000">[table]</text>
<polygon fill="none" stroke="#000000" points="556,-191.2 556,-213.2 706,-213.2 706,-191.2 556,-191.2"/>
<image xlink:href="../../images/primaryKeys.png" width="11px" height="12px" preserveAspectRatio="xMinYMin meet" x="561" y="-208.2"/>
<text text-anchor="start" x="576" y="-198.3" font-family="Helvetica,sans-Serif" font-size="11.00" fill="#000000">id_notification</text>
<polygon fill="none" stroke="#000000" points="706,-191.2 706,-213.2 798,-213.2 798,-191.2 706,-191.2"/>
<text text-anchor="start" x="709" y="-198.9" font-family="Helvetica,sans-Serif" font-size="11.00" fill="#000000">serial[10]</text>
<polygon fill="none" stroke="#000000" points="556,-169.2 556,-191.2 706,-191.2 706,-169.2 556,-169.2"/>
<image xlink:href="../../images/foreignKeys.png" width="11px" height="12px" preserveAspectRatio="xMinYMin meet" x="561" y="-186.2"/>
<text text-anchor="start" x="576" y="-176.3" font-family="Helvetica,sans-Serif" font-size="11.00" fill="#000000">message_id</text>
<polygon fill="none" stroke="#000000" points="706,-169.2 706,-191.2 798,-191.2 798,-169.2 706,-169.2"/>
<text text-anchor="start" x="709" y="-176.9" font-family="Helvetica,sans-Serif" font-size="11.00" fill="#000000">int4[10]</text>
<polygon fill="none" stroke="#000000" points="556,-147.2 556,-169.2 706,-169.2 706,-147.2 556,-147.2"/>
<image xlink:href="../../images/foreignKeys.png" width="11px" height="12px" preserveAspectRatio="xMinYMin meet" x="561" y="-164.2"/>
<text text-anchor="start" x="576" y="-154.3" font-family="Helvetica,sans-Serif" font-size="11.00" fill="#000000">recipient_patient_id</text>
<polygon fill="none" stroke="#000000" points="706,-147.2 706,-169.2 798,-169.2 798,-147.2 706,-147.2"/>
<text text-anchor="start" x="709" y="-154.9" font-family="Helvetica,sans-Serif" font-size="11.00" fill="#000000">int4[10]</text>
<polygon fill="none" stroke="#000000" points="556,-125.2 556,-147.2 706,-147.2 706,-125.2 556,-125.2"/>
<text text-anchor="start" x="576" y="-132.3" font-family="Helvetica,sans-Serif" font-size="11.00" fill="#000000">sent</text>
<polygon fill="none" stroke="#000000" points="706,-125.2 706,-147.2 798,-147.2 798,-125.2 706,-125.2"/>
<text text-anchor="start" x="709" y="-132.9" font-family="Helvetica,sans-Serif" font-size="11.00" fill="#000000">bool[1]</text>
<polygon fill="none" stroke="#000000" points="556,-103.2 556,-125.2 706,-125.2 706,-103.2 556,-103.2"/>
<text text-anchor="start" x="576" y="-110.3" font-family="Helvetica,sans-Serif" font-size="11.00" fill="#000000">sent_at</text>
<polygon fill="none" stroke="#000000" points="706,-103.2 706,-125.2 798,-125.2 798,-103.2 706,-103.2"/>
<text text-anchor="start" x="708.6023" y="-110.9" font-family="Helvetica,sans-Serif" font-size="11.00" fill="#000000">timestamptz[35,6]</text>
<polygon fill="none" stroke="#000000" points="556,-81.2 556,-103.2 706,-103.2 706,-81.2 556,-81.2"/>
<text text-anchor="start" x="576" y="-88.3" font-family="Helvetica,sans-Serif" font-size="11.00" fill="#000000">createdAt</text>
<polygon fill="none" stroke="#000000" points="706,-81.2 706,-103.2 798,-103.2 798,-81.2 706,-81.2"/>
<text text-anchor="start" x="708.6023" y="-88.9" font-family="Helvetica,sans-Serif" font-size="11.00" fill="#000000">timestamptz[35,6]</text>
<polygon fill="none" stroke="#000000" points="556,-59.2 556,-81.2 706,-81.2 706,-59.2 556,-59.2"/>
<text text-anchor="start" x="576" y="-66.3" font-family="Helvetica,sans-Serif" font-size="11.00" fill="#000000">updatedAt</text>
<polygon fill="none" stroke="#000000" points="706,-59.2 706,-81.2 798,-81.2 798,-59.2 706,-59.2"/>
<text text-anchor="start" x="708.6023" y="-66.9" font-family="Helvetica,sans-Serif" font-size="11.00" fill="#000000">timestamptz[35,6]</text>
<polygon fill="#ffffff" stroke="transparent" points="556,-40.2 556,-59.2 622,-59.2 622,-40.2 556,-40.2"/>
<polygon fill="none" stroke="#000000" points="556,-40.2 556,-59.2 622,-59.2 622,-40.2 556,-40.2"/>
<text text-anchor="start" x="559" y="-46.3" font-family="Helvetica,sans-Serif" font-size="11.00" fill="#000000">&lt; 2</text>
<polygon fill="#ffffff" stroke="transparent" points="622,-40.2 622,-59.2 706,-59.2 706,-40.2 622,-40.2"/>
<polygon fill="none" stroke="#000000" points="622,-40.2 622,-59.2 706,-59.2 706,-40.2 622,-40.2"/>
<text text-anchor="start" x="670.6105" y="-46.3" font-family="Helvetica,sans-Serif" font-size="11.00" fill="#000000">0 rows</text>
<polygon fill="#ffffff" stroke="transparent" points="706,-40.2 706,-59.2 798,-59.2 798,-40.2 706,-40.2"/>
<polygon fill="none" stroke="#000000" points="706,-40.2 706,-59.2 798,-59.2 798,-40.2 706,-40.2"/>
<text text-anchor="start" x="779.4053" y="-46.3" font-family="Helvetica,sans-Serif" font-size="11.00" fill="#000000">0 &gt;</text>
<polygon fill="none" stroke="#000000" stroke-width="2" points="555,-39.2 555,-237.2 799,-237.2 799,-39.2 555,-39.2"/>
</a>
</g>
</g>
<!-- message_notifications&#45;&gt;patients -->
<g id="edge4" class="edge">
<title>message_notifications:w&#45;&gt;patients:e</title>
<path fill="none" stroke="#000000" d="M541.5918,-156.3639C532.3179,-153.6655 526.4665,-148.4848 513,-144.2 447.3608,-123.3149 433.1013,-108.5394 365,-98.2 322.8167,-91.7956 310.0228,-86.4707 269,-98.2 255.8642,-101.9558 242.7839,-108.4424 231.0074,-115.5862"/>
<polygon fill="#000000" stroke="#000000" points="548.0642,-157.1886 555.5449,-161.7711 552.0321,-157.6943 556,-158.2 556,-158.2 556,-158.2 552.0321,-157.6943 556.4551,-154.6289 548.0642,-157.1886 548.0642,-157.1886"/>
<ellipse fill="none" stroke="#000000" cx="544.8899" cy="-156.7841" rx="3.2" ry="3.2"/>
</g>
<!-- messages -->
<g id="node5" class="node">
<title>messages</title>
<g id="a_node5"><a xlink:href="../../tables/messages.html" xlink:title="messages" target="_top">
<polygon fill="#ffffff" stroke="transparent" points="407,-265.7 407,-326.7 504,-326.7 504,-265.7 407,-265.7"/>
<polygon fill="#f5f5f5" stroke="transparent" points="407.5,-303.2 407.5,-326.2 504.5,-326.2 504.5,-303.2 407.5,-303.2"/>
<polygon fill="none" stroke="#000000" points="407.5,-303.2 407.5,-326.2 504.5,-326.2 504.5,-303.2 407.5,-303.2"/>
<text text-anchor="start" x="412.5" y="-311.8" font-family="Helvetica,sans-Serif" font-weight="bold" font-size="11.00" fill="#000000">messages</text>
<text text-anchor="start" x="470.0219" y="-311.3" font-family="Helvetica,sans-Serif" font-size="11.00" fill="#000000">[table]</text>
<polygon fill="none" stroke="#000000" points="407.5,-284.2 407.5,-303.2 504.5,-303.2 504.5,-284.2 407.5,-284.2"/>
<text text-anchor="start" x="410.5" y="-290.3" font-family="Helvetica,sans-Serif" font-size="11.00" fill="#000000">...</text>
<polygon fill="#ffffff" stroke="transparent" points="407.5,-265.2 407.5,-284.2 436.5,-284.2 436.5,-265.2 407.5,-265.2"/>
<polygon fill="none" stroke="#000000" points="407.5,-265.2 407.5,-284.2 436.5,-284.2 436.5,-265.2 407.5,-265.2"/>
<text text-anchor="start" x="410.5" y="-271.3" font-family="Helvetica,sans-Serif" font-size="11.00" fill="#000000">&lt; 3</text>
<polygon fill="#ffffff" stroke="transparent" points="436.5,-265.2 436.5,-284.2 478.5,-284.2 478.5,-265.2 436.5,-265.2"/>
<polygon fill="none" stroke="#000000" points="436.5,-265.2 436.5,-284.2 478.5,-284.2 478.5,-265.2 436.5,-265.2"/>
<text text-anchor="start" x="443.1105" y="-271.3" font-family="Helvetica,sans-Serif" font-size="11.00" fill="#000000">0 rows</text>
<polygon fill="#ffffff" stroke="transparent" points="478.5,-265.2 478.5,-284.2 504.5,-284.2 504.5,-265.2 478.5,-265.2"/>
<polygon fill="none" stroke="#000000" points="478.5,-265.2 478.5,-284.2 504.5,-284.2 504.5,-265.2 478.5,-265.2"/>
<text text-anchor="start" x="485.9053" y="-271.3" font-family="Helvetica,sans-Serif" font-size="11.00" fill="#000000">1 &gt;</text>
</a>
</g>
</g>
<!-- message_notifications&#45;&gt;messages -->
<g id="edge3" class="edge">
<title>message_notifications:w&#45;&gt;messages:e</title>
<path fill="none" stroke="#000000" d="M545.7084,-190.2834C531.3906,-205.9748 505.0984,-236.971 484.5786,-261.3962"/>
<polygon fill="#000000" stroke="#000000" points="550.2856,-185.7988 558.5195,-182.7715 553.1428,-182.9994 556,-180.2 556,-180.2 556,-180.2 553.1428,-182.9994 553.4805,-177.6285 550.2856,-185.7988 550.2856,-185.7988"/>
<ellipse fill="none" stroke="#000000" cx="547.9999" cy="-188.0383" rx="3.2" ry="3.2"/>
</g>
<!-- messages&#45;&gt;chats -->
<g id="edge5" class="edge">
<title>messages:w&#45;&gt;chats:e</title>
<path fill="none" stroke="#000000" d="M389.5542,-336.1752C379.0115,-339.834 367.9577,-342.2 357,-342.2"/>
<polygon fill="#000000" stroke="#000000" points="395.6514,-333.7099 404.4176,-334.0484 399.3597,-332.2104 403.0681,-330.7109 403.0681,-330.7109 403.0681,-330.7109 399.3597,-332.2104 401.7185,-327.3734 395.6514,-333.7099 395.6514,-333.7099"/>
<ellipse fill="none" stroke="#000000" cx="392.6848" cy="-334.9094" rx="3.2" ry="3.2"/>
</g>
<!-- messages&#45;&gt;patients -->
<g id="edge6" class="edge">
<title>messages:w&#45;&gt;patients:e</title>
<path fill="none" stroke="#000000" d="M500.4653,-250.3835C535.1864,-207.165 350.4974,-319.9605 269,-276.2 233.2793,-257.0196 210.2613,-215.0974 197.624,-184.8696"/>
<polygon fill="#000000" stroke="#000000" points="495.9206,-255.3164 487.8524,-258.7607 493.2103,-258.2582 490.5,-261.2 490.5,-261.2 490.5,-261.2 493.2103,-258.2582 493.1476,-263.6393 495.9206,-255.3164 495.9206,-255.3164"/>
<ellipse fill="none" stroke="#000000" cx="498.0889" cy="-252.9629" rx="3.2" ry="3.2"/>
</g>
<!-- users -->
<g id="node6" class="node">
<title>users</title>
<g id="a_node6"><a xlink:href="../../tables/users.html" xlink:title="users" target="_top">
<polygon fill="#ffffff" stroke="transparent" points="281.5,-204.7 281.5,-265.7 352.5,-265.7 352.5,-204.7 281.5,-204.7"/>
<polygon fill="#f5f5f5" stroke="transparent" points="282,-242.2 282,-265.2 353,-265.2 353,-242.2 282,-242.2"/>
<polygon fill="none" stroke="#000000" points="282,-242.2 282,-265.2 353,-265.2 353,-242.2 282,-242.2"/>
<text text-anchor="start" x="287" y="-250.8" font-family="Helvetica,sans-Serif" font-weight="bold" font-size="11.00" fill="#000000">users</text>
<text text-anchor="start" x="318.5219" y="-250.3" font-family="Helvetica,sans-Serif" font-size="11.00" fill="#000000">[table]</text>
<polygon fill="none" stroke="#000000" points="282,-223.2 282,-242.2 353,-242.2 353,-223.2 282,-223.2"/>
<text text-anchor="start" x="285" y="-229.3" font-family="Helvetica,sans-Serif" font-size="11.00" fill="#000000">...</text>
<polygon fill="#ffffff" stroke="transparent" points="282,-204.2 282,-223.2 294,-223.2 294,-204.2 282,-204.2"/>
<polygon fill="none" stroke="#000000" points="282,-204.2 282,-223.2 294,-223.2 294,-204.2 282,-204.2"/>
<text text-anchor="start" x="284.9431" y="-210.3" font-family="Helvetica,sans-Serif" font-size="11.00" fill="#000000"> &#160;</text>
<polygon fill="#ffffff" stroke="transparent" points="294,-204.2 294,-223.2 332,-223.2 332,-204.2 294,-204.2"/>
<polygon fill="none" stroke="#000000" points="294,-204.2 294,-223.2 332,-223.2 332,-204.2 294,-204.2"/>
<text text-anchor="start" x="296.8053" y="-210.3" font-family="Helvetica,sans-Serif" font-size="11.00" fill="#000000">0 rows</text>
<polygon fill="#ffffff" stroke="transparent" points="332,-204.2 332,-223.2 353,-223.2 353,-204.2 332,-204.2"/>
<polygon fill="none" stroke="#000000" points="332,-204.2 332,-223.2 353,-223.2 353,-204.2 332,-204.2"/>
<text text-anchor="start" x="334.7027" y="-210.3" font-family="Helvetica,sans-Serif" font-size="11.00" fill="#000000">4 &gt;</text>
</a>
</g>
</g>
<!-- messages&#45;&gt;users -->
<g id="edge7" class="edge">
<title>messages:w&#45;&gt;users:e</title>
<path fill="none" stroke="#000000" d="M499.131,-249.502C511.0341,-219.9608 409.1124,-232.2 353,-232.2"/>
<polygon fill="#000000" stroke="#000000" points="495.2497,-254.7625 487.6031,-259.0627 492.8748,-257.9813 490.5,-261.2 490.5,-261.2 490.5,-261.2 492.8748,-257.9813 493.3969,-263.3373 495.2497,-254.7625 495.2497,-254.7625"/>
<ellipse fill="none" stroke="#000000" cx="497.1495" cy="-252.1875" rx="3.2" ry="3.2"/>
</g>
<!-- responses -->
<g id="node8" class="node">
<title>responses</title>
<g id="a_node8"><a xlink:href="../../tables/responses.html" xlink:title="responses" target="_top">
<polygon fill="#ffffff" stroke="transparent" points="406,-154.7 406,-215.7 505,-215.7 505,-154.7 406,-154.7"/>
<polygon fill="#f5f5f5" stroke="transparent" points="406.5,-192.2 406.5,-215.2 505.5,-215.2 505.5,-192.2 406.5,-192.2"/>
<polygon fill="none" stroke="#000000" points="406.5,-192.2 406.5,-215.2 505.5,-215.2 505.5,-192.2 406.5,-192.2"/>
<text text-anchor="start" x="411.5" y="-200.8" font-family="Helvetica,sans-Serif" font-weight="bold" font-size="11.00" fill="#000000">responses</text>
<text text-anchor="start" x="471.0219" y="-200.3" font-family="Helvetica,sans-Serif" font-size="11.00" fill="#000000">[table]</text>
<polygon fill="none" stroke="#000000" points="406.5,-173.2 406.5,-192.2 505.5,-192.2 505.5,-173.2 406.5,-173.2"/>
<text text-anchor="start" x="409.5" y="-179.3" font-family="Helvetica,sans-Serif" font-size="11.00" fill="#000000">...</text>
<polygon fill="#ffffff" stroke="transparent" points="406.5,-154.2 406.5,-173.2 436.5,-173.2 436.5,-154.2 406.5,-154.2"/>
<polygon fill="none" stroke="#000000" points="406.5,-154.2 406.5,-173.2 436.5,-173.2 436.5,-154.2 406.5,-154.2"/>
<text text-anchor="start" x="409.5" y="-160.3" font-family="Helvetica,sans-Serif" font-size="11.00" fill="#000000">&lt; 3</text>
<polygon fill="#ffffff" stroke="transparent" points="436.5,-154.2 436.5,-173.2 479.5,-173.2 479.5,-154.2 436.5,-154.2"/>
<polygon fill="none" stroke="#000000" points="436.5,-154.2 436.5,-173.2 479.5,-173.2 479.5,-154.2 436.5,-154.2"/>
<text text-anchor="start" x="444.1105" y="-160.3" font-family="Helvetica,sans-Serif" font-size="11.00" fill="#000000">0 rows</text>
<polygon fill="#ffffff" stroke="transparent" points="479.5,-154.2 479.5,-173.2 505.5,-173.2 505.5,-154.2 479.5,-154.2"/>
<polygon fill="none" stroke="#000000" points="479.5,-154.2 479.5,-173.2 505.5,-173.2 505.5,-154.2 479.5,-154.2"/>
<text text-anchor="start" x="486.9053" y="-160.3" font-family="Helvetica,sans-Serif" font-size="11.00" fill="#000000">1 &gt;</text>
</a>
</g>
</g>
<!-- responses&#45;&gt;patients -->
<g id="edge10" class="edge">
<title>responses:w&#45;&gt;patients:e</title>
<path fill="none" stroke="#000000" d="M392.3393,-177.6543C377.8526,-164.5816 390.7792,-126.8857 365,-112.2 325.2824,-89.5739 273.6907,-104.2539 236.0168,-121.5257"/>
<polygon fill="#000000" stroke="#000000" points="398.8828,-179.7548 405.3997,-185.6277 402.6914,-180.9774 406.5,-182.2 406.5,-182.2 406.5,-182.2 402.6914,-180.9774 407.6003,-178.7723 398.8828,-179.7548 398.8828,-179.7548"/>
<ellipse fill="none" stroke="#000000" cx="395.836" cy="-178.7767" rx="3.2" ry="3.2"/>
</g>
<!-- responses&#45;&gt;users -->
<g id="edge9" class="edge">
<title>responses:w&#45;&gt;users:e</title>
<path fill="none" stroke="#000000" d="M392.719,-186.463C376.695,-198.5544 379.6975,-232.2 353,-232.2"/>
<polygon fill="#000000" stroke="#000000" points="398.8573,-184.5642 407.5639,-185.6392 402.6787,-183.3821 406.5,-182.2 406.5,-182.2 406.5,-182.2 402.6787,-183.3821 405.4361,-178.7608 398.8573,-184.5642 398.8573,-184.5642"/>
<ellipse fill="none" stroke="#000000" cx="395.8002" cy="-185.5099" rx="3.2" ry="3.2"/>
</g>
</g>
</svg>
