<?xml version="1.0" encoding="UTF-8" standalone="no"?>
<!DOCTYPE svg PUBLIC "-//W3C//DTD SVG 1.1//EN"
 "http://www.w3.org/Graphics/SVG/1.1/DTD/svg11.dtd">
<!-- Generated by graphviz version 2.40.1 (20161225.0304)
 -->
<!-- Title: oneDegreeRelationshipsDiagramImplied Pages: 1 -->
<svg width="615pt" height="291pt"
 viewBox="0.00 0.00 615.00 291.20" xmlns="http://www.w3.org/2000/svg" xmlns:xlink="http://www.w3.org/1999/xlink">
<g id="graph0" class="graph" transform="scale(1 1) rotate(0) translate(4 287.2)">
<title>oneDegreeRelationshipsDiagramImplied</title>
<polygon fill="#ffffff" stroke="transparent" points="-4,4 -4,-287.2 611,-287.2 611,4 -4,4"/>
<text text-anchor="middle" x="72.4936" y="-7.3" font-family="Helvetica,sans-Serif" font-size="11.00" fill="#000000">Generated by SchemaSpy</text>
<!-- message_notifications -->
<g id="node1" class="node">
<title>message_notifications</title>
<g id="a_node1"><a xlink:href="../../tables/message_notifications.html" xlink:title="message_notifications" target="_top">
<polygon fill="#ffffff" stroke="transparent" points="353,-43.7 353,-243.7 599,-243.7 599,-43.7 353,-43.7"/>
<polygon fill="#f5f5f5" stroke="transparent" points="355,-218.7 355,-241.7 597,-241.7 597,-218.7 355,-218.7"/>
<polygon fill="none" stroke="#000000" points="355,-218.7 355,-241.7 597,-241.7 597,-218.7 355,-218.7"/>
<text text-anchor="start" x="360" y="-227.3" font-family="Helvetica,sans-Serif" font-weight="bold" font-size="11.00" fill="#000000">message_notifications</text>
<text text-anchor="start" x="562.0437" y="-226.8" font-family="Helvetica,sans-Serif" font-size="11.00" fill="#000000">[table]</text>
<polygon fill="none" stroke="#000000" points="355,-196.7 355,-218.7 505,-218.7 505,-196.7 355,-196.7"/>
<image xlink:href="../../images/primaryKeys.png" width="11px" height="12px" preserveAspectRatio="xMinYMin meet" x="360" y="-213.7"/>
<text text-anchor="start" x="375" y="-203.8" font-family="Helvetica,sans-Serif" font-size="11.00" fill="#000000">id_notification</text>
<polygon fill="none" stroke="#000000" points="505,-196.7 505,-218.7 597,-218.7 597,-196.7 505,-196.7"/>
<text text-anchor="start" x="508" y="-204.4" font-family="Helvetica,sans-Serif" font-size="11.00" fill="#000000">serial[10]</text>
<polygon fill="none" stroke="#000000" points="355,-174.7 355,-196.7 505,-196.7 505,-174.7 355,-174.7"/>
<image xlink:href="../../images/foreignKeys.png" width="11px" height="12px" preserveAspectRatio="xMinYMin meet" x="360" y="-191.7"/>
<text text-anchor="start" x="375" y="-181.8" font-family="Helvetica,sans-Serif" font-size="11.00" fill="#000000">message_id</text>
<polygon fill="none" stroke="#000000" points="505,-174.7 505,-196.7 597,-196.7 597,-174.7 505,-174.7"/>
<text text-anchor="start" x="508" y="-182.4" font-family="Helvetica,sans-Serif" font-size="11.00" fill="#000000">int4[10]</text>
<polygon fill="none" stroke="#000000" points="355,-152.7 355,-174.7 505,-174.7 505,-152.7 355,-152.7"/>
<image xlink:href="../../images/foreignKeys.png" width="11px" height="12px" preserveAspectRatio="xMinYMin meet" x="360" y="-169.7"/>
<text text-anchor="start" x="375" y="-159.8" font-family="Helvetica,sans-Serif" font-size="11.00" fill="#000000">recipient_patient_id</text>
<polygon fill="none" stroke="#000000" points="505,-152.7 505,-174.7 597,-174.7 597,-152.7 505,-152.7"/>
<text text-anchor="start" x="508" y="-160.4" font-family="Helvetica,sans-Serif" font-size="11.00" fill="#000000">int4[10]</text>
<polygon fill="none" stroke="#000000" points="355,-130.7 355,-152.7 505,-152.7 505,-130.7 355,-130.7"/>
<text text-anchor="start" x="375" y="-137.8" font-family="Helvetica,sans-Serif" font-size="11.00" fill="#000000">sent</text>
<polygon fill="none" stroke="#000000" points="505,-130.7 505,-152.7 597,-152.7 597,-130.7 505,-130.7"/>
<text text-anchor="start" x="508" y="-138.4" font-family="Helvetica,sans-Serif" font-size="11.00" fill="#000000">bool[1]</text>
<polygon fill="none" stroke="#000000" points="355,-108.7 355,-130.7 505,-130.7 505,-108.7 355,-108.7"/>
<text text-anchor="start" x="375" y="-115.8" font-family="Helvetica,sans-Serif" font-size="11.00" fill="#000000">sent_at</text>
<polygon fill="none" stroke="#000000" points="505,-108.7 505,-130.7 597,-130.7 597,-108.7 505,-108.7"/>
<text text-anchor="start" x="507.6023" y="-116.4" font-family="Helvetica,sans-Serif" font-size="11.00" fill="#000000">timestamptz[35,6]</text>
<polygon fill="none" stroke="#000000" points="355,-86.7 355,-108.7 505,-108.7 505,-86.7 355,-86.7"/>
<text text-anchor="start" x="375" y="-93.8" font-family="Helvetica,sans-Serif" font-size="11.00" fill="#000000">createdAt</text>
<polygon fill="none" stroke="#000000" points="505,-86.7 505,-108.7 597,-108.7 597,-86.7 505,-86.7"/>
<text text-anchor="start" x="507.6023" y="-94.4" font-family="Helvetica,sans-Serif" font-size="11.00" fill="#000000">timestamptz[35,6]</text>
<polygon fill="none" stroke="#000000" points="355,-64.7 355,-86.7 505,-86.7 505,-64.7 355,-64.7"/>
<text text-anchor="start" x="375" y="-71.8" font-family="Helvetica,sans-Serif" font-size="11.00" fill="#000000">updatedAt</text>
<polygon fill="none" stroke="#000000" points="505,-64.7 505,-86.7 597,-86.7 597,-64.7 505,-64.7"/>
<text text-anchor="start" x="507.6023" y="-72.4" font-family="Helvetica,sans-Serif" font-size="11.00" fill="#000000">timestamptz[35,6]</text>
<polygon fill="#ffffff" stroke="transparent" points="355,-45.7 355,-64.7 421,-64.7 421,-45.7 355,-45.7"/>
<polygon fill="none" stroke="#000000" points="355,-45.7 355,-64.7 421,-64.7 421,-45.7 355,-45.7"/>
<text text-anchor="start" x="358" y="-51.8" font-family="Helvetica,sans-Serif" font-size="11.00" fill="#000000">&lt; 2</text>
<polygon fill="#ffffff" stroke="transparent" points="421,-45.7 421,-64.7 505,-64.7 505,-45.7 421,-45.7"/>
<polygon fill="none" stroke="#000000" points="421,-45.7 421,-64.7 505,-64.7 505,-45.7 421,-45.7"/>
<text text-anchor="start" x="469.6105" y="-51.8" font-family="Helvetica,sans-Serif" font-size="11.00" fill="#000000">0 rows</text>
<polygon fill="#ffffff" stroke="transparent" points="505,-45.7 505,-64.7 597,-64.7 597,-45.7 505,-45.7"/>
<polygon fill="none" stroke="#000000" points="505,-45.7 505,-64.7 597,-64.7 597,-45.7 505,-45.7"/>
<text text-anchor="start" x="578.4053" y="-51.8" font-family="Helvetica,sans-Serif" font-size="11.00" fill="#000000">0 &gt;</text>
<polygon fill="none" stroke="#000000" stroke-width="2" points="354,-44.7 354,-242.7 598,-242.7 598,-44.7 354,-44.7"/>
</a>
</g>
</g>
<!-- messages -->
<g id="node2" class="node">
<title>messages</title>
<g id="a_node2"><a xlink:href="../../tables/messages.html" xlink:title="messages" target="_top">
<polygon fill="#ffffff" stroke="transparent" points="181,-130.2 181,-279.2 304,-279.2 304,-130.2 181,-130.2"/>
<polygon fill="#f5f5f5" stroke="transparent" points="181.5,-255.7 181.5,-278.7 304.5,-278.7 304.5,-255.7 181.5,-255.7"/>
<polygon fill="none" stroke="#000000" points="181.5,-255.7 181.5,-278.7 304.5,-278.7 304.5,-255.7 181.5,-255.7"/>
<text text-anchor="start" x="186.5" y="-264.3" font-family="Helvetica,sans-Serif" font-weight="bold" font-size="11.00" fill="#000000">messages</text>
<text text-anchor="start" x="269.5437" y="-263.8" font-family="Helvetica,sans-Serif" font-size="11.00" fill="#000000">[table]</text>
<polygon fill="none" stroke="#000000" points="181.5,-233.7 181.5,-255.7 304.5,-255.7 304.5,-233.7 181.5,-233.7"/>
<image xlink:href="../../images/primaryKeys.png" width="11px" height="12px" preserveAspectRatio="xMinYMin meet" x="186.5" y="-250.7"/>
<text text-anchor="start" x="201.5" y="-240.8" font-family="Helvetica,sans-Serif" font-size="11.00" fill="#000000">id_message</text>
<polygon fill="none" stroke="#000000" points="181.5,-211.7 181.5,-233.7 304.5,-233.7 304.5,-211.7 181.5,-211.7"/>
<image xlink:href="../../images/foreignKeys.png" width="11px" height="12px" preserveAspectRatio="xMinYMin meet" x="186.5" y="-228.7"/>
<text text-anchor="start" x="201.5" y="-218.8" font-family="Helvetica,sans-Serif" font-size="11.00" fill="#000000">chat_id</text>
<polygon fill="none" stroke="#000000" points="181.5,-189.7 181.5,-211.7 304.5,-211.7 304.5,-189.7 181.5,-189.7"/>
<image xlink:href="../../images/foreignKeys.png" width="11px" height="12px" preserveAspectRatio="xMinYMin meet" x="186.5" y="-206.7"/>
<text text-anchor="start" x="201.5" y="-196.8" font-family="Helvetica,sans-Serif" font-size="11.00" fill="#000000">sender_patient_id</text>
<polygon fill="none" stroke="#000000" points="181.5,-167.7 181.5,-189.7 304.5,-189.7 304.5,-167.7 181.5,-167.7"/>
<image xlink:href="../../images/foreignKeys.png" width="11px" height="12px" preserveAspectRatio="xMinYMin meet" x="186.5" y="-184.7"/>
<text text-anchor="start" x="201.5" y="-174.8" font-family="Helvetica,sans-Serif" font-size="11.00" fill="#000000">sender_staff_id</text>
<polygon fill="none" stroke="#000000" points="181.5,-148.7 181.5,-167.7 304.5,-167.7 304.5,-148.7 181.5,-148.7"/>
<text text-anchor="start" x="184.5" y="-154.8" font-family="Helvetica,sans-Serif" font-size="11.00" fill="#000000">...</text>
<polygon fill="#ffffff" stroke="transparent" points="181.5,-129.7 181.5,-148.7 223.5,-148.7 223.5,-129.7 181.5,-129.7"/>
<polygon fill="none" stroke="#000000" points="181.5,-129.7 181.5,-148.7 223.5,-148.7 223.5,-129.7 181.5,-129.7"/>
<text text-anchor="start" x="184.5" y="-135.8" font-family="Helvetica,sans-Serif" font-size="11.00" fill="#000000">&lt; 3</text>
<polygon fill="#ffffff" stroke="transparent" points="223.5,-129.7 223.5,-148.7 272.5,-148.7 272.5,-129.7 223.5,-129.7"/>
<polygon fill="none" stroke="#000000" points="223.5,-129.7 223.5,-148.7 272.5,-148.7 272.5,-129.7 223.5,-129.7"/>
<text text-anchor="start" x="237.1105" y="-135.8" font-family="Helvetica,sans-Serif" font-size="11.00" fill="#000000">0 rows</text>
<polygon fill="#ffffff" stroke="transparent" points="272.5,-129.7 272.5,-148.7 304.5,-148.7 304.5,-129.7 272.5,-129.7"/>
<polygon fill="none" stroke="#000000" points="272.5,-129.7 272.5,-148.7 304.5,-148.7 304.5,-129.7 272.5,-129.7"/>
<text text-anchor="start" x="285.9053" y="-135.8" font-family="Helvetica,sans-Serif" font-size="11.00" fill="#000000">1 &gt;</text>
</a>
</g>
</g>
<!-- message_notifications&#45;&gt;messages -->
<g id="edge1" class="edge">
<title>message_notifications:w&#45;&gt;messages:e</title>
<path fill="none" stroke="#000000" d="M340.9165,-190.7303C325.4311,-204.9982 332.814,-244.7 304.5,-244.7"/>
<polygon fill="#000000" stroke="#000000" points="347.4661,-188.391 356.2109,-189.0902 351.2331,-187.0455 355,-185.7 355,-185.7 355,-185.7 351.2331,-187.0455 353.7891,-182.3098 347.4661,-188.391 347.4661,-188.391"/>
<ellipse fill="none" stroke="#000000" cx="344.4526" cy="-189.4674" rx="3.2" ry="3.2"/>
</g>
<!-- patients -->
<g id="node3" class="node">
<title>patients</title>
<g id="a_node3"><a xlink:href="../../tables/patients.html" xlink:title="patients" target="_top">
<polygon fill="#ffffff" stroke="transparent" points="8,-38.2 8,-187.2 132,-187.2 132,-38.2 8,-38.2"/>
<polygon fill="#f5f5f5" stroke="transparent" points="8,-163.7 8,-186.7 132,-186.7 132,-163.7 8,-163.7"/>
<polygon fill="none" stroke="#000000" points="8,-163.7 8,-186.7 132,-186.7 132,-163.7 8,-163.7"/>
<text text-anchor="start" x="13" y="-172.3" font-family="Helvetica,sans-Serif" font-weight="bold" font-size="11.00" fill="#000000">patients</text>
<text text-anchor="start" x="97.0437" y="-171.8" font-family="Helvetica,sans-Serif" font-size="11.00" fill="#000000">[table]</text>
<polygon fill="none" stroke="#000000" points="8,-141.7 8,-163.7 132,-163.7 132,-141.7 8,-141.7"/>
<image xlink:href="../../images/primaryKeys.png" width="11px" height="12px" preserveAspectRatio="xMinYMin meet" x="13" y="-158.7"/>
<text text-anchor="start" x="28" y="-148.8" font-family="Helvetica,sans-Serif" font-size="11.00" fill="#000000">id_patient</text>
<polygon fill="#ffffff" stroke="transparent" points="8,-119.7 8,-141.7 132,-141.7 132,-119.7 8,-119.7"/>
<polygon fill="none" stroke="#000000" points="8,-119.7 8,-141.7 132,-141.7 132,-119.7 8,-119.7"/>
<text text-anchor="start" x="28" y="-126.8" font-family="Helvetica,sans-Serif" font-size="11.00" fill="#000000">service_id</text>
<polygon fill="none" stroke="#000000" points="8,-97.7 8,-119.7 132,-119.7 132,-97.7 8,-97.7"/>
<image xlink:href="../../images/foreignKeys.png" width="11px" height="12px" preserveAspectRatio="xMinYMin meet" x="13" y="-114.7"/>
<text text-anchor="start" x="28" y="-104.8" font-family="Helvetica,sans-Serif" font-size="11.00" fill="#000000">name</text>
<polygon fill="none" stroke="#000000" points="8,-75.7 8,-97.7 132,-97.7 132,-75.7 8,-75.7"/>
<image xlink:href="../../images/foreignKeys.png" width="11px" height="12px" preserveAspectRatio="xMinYMin meet" x="13" y="-92.7"/>
<text text-anchor="start" x="28" y="-82.8" font-family="Helvetica,sans-Serif" font-size="11.00" fill="#000000">id_cid</text>
<polygon fill="none" stroke="#000000" points="8,-56.7 8,-75.7 132,-75.7 132,-56.7 8,-56.7"/>
<text text-anchor="start" x="11" y="-62.8" font-family="Helvetica,sans-Serif" font-size="11.00" fill="#000000">...</text>
<polygon fill="#ffffff" stroke="transparent" points="8,-37.7 8,-56.7 51,-56.7 51,-37.7 8,-37.7"/>
<polygon fill="none" stroke="#000000" points="8,-37.7 8,-56.7 51,-56.7 51,-37.7 8,-37.7"/>
<text text-anchor="start" x="11" y="-43.8" font-family="Helvetica,sans-Serif" font-size="11.00" fill="#000000">&lt; 1</text>
<polygon fill="#ffffff" stroke="transparent" points="51,-37.7 51,-56.7 100,-56.7 100,-37.7 51,-37.7"/>
<polygon fill="none" stroke="#000000" points="51,-37.7 51,-56.7 100,-56.7 100,-37.7 51,-37.7"/>
<text text-anchor="start" x="64.6105" y="-43.8" font-family="Helvetica,sans-Serif" font-size="11.00" fill="#000000">0 rows</text>
<polygon fill="#ffffff" stroke="transparent" points="100,-37.7 100,-56.7 132,-56.7 132,-37.7 100,-37.7"/>
<polygon fill="none" stroke="#000000" points="100,-37.7 100,-56.7 132,-56.7 132,-37.7 100,-37.7"/>
<text text-anchor="start" x="113.4053" y="-43.8" font-family="Helvetica,sans-Serif" font-size="11.00" fill="#000000">5 &gt;</text>
</a>
</g>
</g>
<!-- message_notifications&#45;&gt;patients -->
<g id="edge2" class="edge">
<title>message_notifications:w&#45;&gt;patients:e</title>
<path fill="none" stroke="#000000" d="M341.2625,-159.2113C330.1981,-149.7391 331.4917,-127.9053 312,-119.7 255.0616,-95.7311 231.2649,-99.1647 173,-119.7 150.9387,-127.4755 155.3915,-152.7 132,-152.7"/>
<polygon fill="#000000" stroke="#000000" points="347.3956,-161.2153 353.8819,-167.122 351.1978,-162.4576 355,-163.7 355,-163.7 355,-163.7 351.1978,-162.4576 356.1181,-160.278 347.3956,-161.2153 347.3956,-161.2153"/>
<ellipse fill="none" stroke="#000000" cx="344.3539" cy="-160.2214" rx="3.2" ry="3.2"/>
</g>
<!-- messages&#45;&gt;patients -->
<g id="edge3" class="edge">
<title>messages:w&#45;&gt;patients:e</title>
<path fill="none" stroke="#000000" d="M167.7679,-195.9221C153.8417,-183.7811 156.6596,-152.7 132,-152.7"/>
<polygon fill="#000000" stroke="#000000" points="173.9443,-198.071 180.317,-204.1001 177.7221,-199.3855 181.5,-200.7 181.5,-200.7 181.5,-200.7 177.7221,-199.3855 182.683,-197.2999 173.9443,-198.071 173.9443,-198.071"/>
<ellipse fill="none" stroke="#000000" cx="170.922" cy="-197.0195" rx="3.2" ry="3.2"/>
</g>
</g>
</svg>
