<?xml version="1.0" encoding="UTF-8" standalone="no"?>
<!DOCTYPE svg PUBLIC "-//W3C//DTD SVG 1.1//EN"
 "http://www.w3.org/Graphics/SVG/1.1/DTD/svg11.dtd">
<!-- Generated by graphviz version 2.40.1 (20161225.0304)
 -->
<!-- Title: twoDegreesRelationshipsDiagram Pages: 1 -->
<svg width="641pt" height="378pt"
 viewBox="0.00 0.00 641.00 377.70" xmlns="http://www.w3.org/2000/svg" xmlns:xlink="http://www.w3.org/1999/xlink">
<g id="graph0" class="graph" transform="scale(1 1) rotate(0) translate(4 373.7)">
<title>twoDegreesRelationshipsDiagram</title>
<polygon fill="#ffffff" stroke="transparent" points="-4,4 -4,-373.7 637,-373.7 637,4 -4,4"/>
<text text-anchor="middle" x="72.4936" y="-7.3" font-family="Helvetica,sans-Serif" font-size="11.00" fill="#000000">Generated by SchemaSpy</text>
<!-- options -->
<g id="node1" class="node">
<title>options</title>
<g id="a_node1"><a xlink:href="../../tables/options.html" xlink:title="options" target="_top">
<polygon fill="#ffffff" stroke="transparent" points="506.5,-112.7 506.5,-217.7 588.5,-217.7 588.5,-112.7 506.5,-112.7"/>
<polygon fill="#f5f5f5" stroke="transparent" points="506.5,-194.2 506.5,-217.2 588.5,-217.2 588.5,-194.2 506.5,-194.2"/>
<polygon fill="none" stroke="#000000" points="506.5,-194.2 506.5,-217.2 588.5,-217.2 588.5,-194.2 506.5,-194.2"/>
<text text-anchor="start" x="511.5" y="-202.8" font-family="Helvetica,sans-Serif" font-weight="bold" font-size="11.00" fill="#000000">options</text>
<text text-anchor="start" x="554.0219" y="-202.3" font-family="Helvetica,sans-Serif" font-size="11.00" fill="#000000">[table]</text>
<polygon fill="none" stroke="#000000" points="506.5,-172.2 506.5,-194.2 588.5,-194.2 588.5,-172.2 506.5,-172.2"/>
<image xlink:href="../../images/primaryKeys.png" width="11px" height="12px" preserveAspectRatio="xMinYMin meet" x="511.5" y="-189.2"/>
<text text-anchor="start" x="527.5" y="-179.3" font-family="Helvetica,sans-Serif" font-size="11.00" fill="#000000">id_options</text>
<polygon fill="none" stroke="#000000" points="506.5,-150.2 506.5,-172.2 588.5,-172.2 588.5,-150.2 506.5,-150.2"/>
<image xlink:href="../../images/foreignKeys.png" width="11px" height="12px" preserveAspectRatio="xMinYMin meet" x="511.5" y="-167.2"/>
<text text-anchor="start" x="527.5" y="-157.3" font-family="Helvetica,sans-Serif" font-size="11.00" fill="#000000">questionId</text>
<polygon fill="none" stroke="#000000" points="506.5,-131.2 506.5,-150.2 588.5,-150.2 588.5,-131.2 506.5,-131.2"/>
<text text-anchor="start" x="509.5" y="-137.3" font-family="Helvetica,sans-Serif" font-size="11.00" fill="#000000">...</text>
<polygon fill="#ffffff" stroke="transparent" points="506.5,-112.2 506.5,-131.2 532.5,-131.2 532.5,-112.2 506.5,-112.2"/>
<polygon fill="none" stroke="#000000" points="506.5,-112.2 506.5,-131.2 532.5,-131.2 532.5,-112.2 506.5,-112.2"/>
<text text-anchor="start" x="509.5" y="-118.3" font-family="Helvetica,sans-Serif" font-size="11.00" fill="#000000">&lt; 1</text>
<polygon fill="#ffffff" stroke="transparent" points="532.5,-112.2 532.5,-131.2 573.5,-131.2 573.5,-112.2 532.5,-112.2"/>
<polygon fill="none" stroke="#000000" points="532.5,-112.2 532.5,-131.2 573.5,-131.2 573.5,-112.2 532.5,-112.2"/>
<text text-anchor="start" x="538.1105" y="-118.3" font-family="Helvetica,sans-Serif" font-size="11.00" fill="#000000">0 rows</text>
<polygon fill="#ffffff" stroke="transparent" points="573.5,-112.2 573.5,-131.2 588.5,-131.2 588.5,-112.2 573.5,-112.2"/>
<polygon fill="none" stroke="#000000" points="573.5,-112.2 573.5,-131.2 588.5,-131.2 588.5,-112.2 573.5,-112.2"/>
<text text-anchor="start" x="579.3862" y="-118.3" font-family="Helvetica,sans-Serif" font-size="11.00" fill="#000000"> &#160;</text>
</a>
</g>
</g>
<!-- questions -->
<g id="node2" class="node">
<title>questions</title>
<g id="a_node2"><a xlink:href="../../tables/questions.html" xlink:title="questions" target="_top">
<polygon fill="#ffffff" stroke="transparent" points="142,-38.2 142,-260.2 421,-260.2 421,-38.2 142,-38.2"/>
<polygon fill="#f5f5f5" stroke="transparent" points="144.5,-235.2 144.5,-258.2 419.5,-258.2 419.5,-235.2 144.5,-235.2"/>
<polygon fill="none" stroke="#000000" points="144.5,-235.2 144.5,-258.2 419.5,-258.2 419.5,-235.2 144.5,-235.2"/>
<text text-anchor="start" x="149.5" y="-243.8" font-family="Helvetica,sans-Serif" font-weight="bold" font-size="11.00" fill="#000000">questions</text>
<text text-anchor="start" x="384.5437" y="-243.3" font-family="Helvetica,sans-Serif" font-size="11.00" fill="#000000">[table]</text>
<polygon fill="none" stroke="#000000" points="144.5,-213.2 144.5,-235.2 239.5,-235.2 239.5,-213.2 144.5,-213.2"/>
<image xlink:href="../../images/primaryKeys.png" width="11px" height="12px" preserveAspectRatio="xMinYMin meet" x="149.5" y="-230.2"/>
<text text-anchor="start" x="164.5" y="-220.3" font-family="Helvetica,sans-Serif" font-size="11.00" fill="#000000">id_questions</text>
<polygon fill="none" stroke="#000000" points="239.5,-213.2 239.5,-235.2 419.5,-235.2 419.5,-213.2 239.5,-213.2"/>
<text text-anchor="start" x="242.5" y="-220.9" font-family="Helvetica,sans-Serif" font-size="11.00" fill="#000000">serial[10]</text>
<polygon fill="none" stroke="#000000" points="144.5,-191.2 144.5,-213.2 239.5,-213.2 239.5,-191.2 144.5,-191.2"/>
<image xlink:href="../../images/foreignKeys.png" width="11px" height="12px" preserveAspectRatio="xMinYMin meet" x="149.5" y="-208.2"/>
<text text-anchor="start" x="164.5" y="-198.3" font-family="Helvetica,sans-Serif" font-size="11.00" fill="#000000">formId</text>
<polygon fill="none" stroke="#000000" points="239.5,-191.2 239.5,-213.2 419.5,-213.2 419.5,-191.2 239.5,-191.2"/>
<text text-anchor="start" x="242.5" y="-198.9" font-family="Helvetica,sans-Serif" font-size="11.00" fill="#000000">int4[10]</text>
<polygon fill="none" stroke="#000000" points="144.5,-169.2 144.5,-191.2 239.5,-191.2 239.5,-169.2 144.5,-169.2"/>
<text text-anchor="start" x="164.5" y="-176.3" font-family="Helvetica,sans-Serif" font-size="11.00" fill="#000000">title</text>
<polygon fill="none" stroke="#000000" points="239.5,-169.2 239.5,-191.2 419.5,-191.2 419.5,-169.2 239.5,-169.2"/>
<text text-anchor="start" x="242.5" y="-176.9" font-family="Helvetica,sans-Serif" font-size="11.00" fill="#000000">varchar[255]</text>
<polygon fill="none" stroke="#000000" points="144.5,-147.2 144.5,-169.2 239.5,-169.2 239.5,-147.2 144.5,-147.2"/>
<text text-anchor="start" x="164.5" y="-154.3" font-family="Helvetica,sans-Serif" font-size="11.00" fill="#000000">type</text>
<polygon fill="none" stroke="#000000" points="239.5,-147.2 239.5,-169.2 419.5,-169.2 419.5,-147.2 239.5,-147.2"/>
<text text-anchor="start" x="242.0709" y="-154.9" font-family="Helvetica,sans-Serif" font-size="11.00" fill="#000000">enum_questions_type[2147483647]</text>
<polygon fill="none" stroke="#000000" points="144.5,-125.2 144.5,-147.2 239.5,-147.2 239.5,-125.2 144.5,-125.2"/>
<text text-anchor="start" x="164.5" y="-132.3" font-family="Helvetica,sans-Serif" font-size="11.00" fill="#000000">required</text>
<polygon fill="none" stroke="#000000" points="239.5,-125.2 239.5,-147.2 419.5,-147.2 419.5,-125.2 239.5,-125.2"/>
<text text-anchor="start" x="242.5" y="-132.9" font-family="Helvetica,sans-Serif" font-size="11.00" fill="#000000">bool[1]</text>
<polygon fill="none" stroke="#000000" points="144.5,-103.2 144.5,-125.2 239.5,-125.2 239.5,-103.2 144.5,-103.2"/>
<text text-anchor="start" x="164.5" y="-110.3" font-family="Helvetica,sans-Serif" font-size="11.00" fill="#000000">order</text>
<polygon fill="none" stroke="#000000" points="239.5,-103.2 239.5,-125.2 419.5,-125.2 419.5,-103.2 239.5,-103.2"/>
<text text-anchor="start" x="242.5" y="-110.9" font-family="Helvetica,sans-Serif" font-size="11.00" fill="#000000">int4[10]</text>
<polygon fill="none" stroke="#000000" points="144.5,-81.2 144.5,-103.2 239.5,-103.2 239.5,-81.2 144.5,-81.2"/>
<text text-anchor="start" x="164.5" y="-88.3" font-family="Helvetica,sans-Serif" font-size="11.00" fill="#000000">createdAt</text>
<polygon fill="none" stroke="#000000" points="239.5,-81.2 239.5,-103.2 419.5,-103.2 419.5,-81.2 239.5,-81.2"/>
<text text-anchor="start" x="242.5" y="-88.9" font-family="Helvetica,sans-Serif" font-size="11.00" fill="#000000">timestamptz[35,6]</text>
<polygon fill="none" stroke="#000000" points="144.5,-59.2 144.5,-81.2 239.5,-81.2 239.5,-59.2 144.5,-59.2"/>
<text text-anchor="start" x="164.5" y="-66.3" font-family="Helvetica,sans-Serif" font-size="11.00" fill="#000000">updatedAt</text>
<polygon fill="none" stroke="#000000" points="239.5,-59.2 239.5,-81.2 419.5,-81.2 419.5,-59.2 239.5,-59.2"/>
<text text-anchor="start" x="242.5" y="-66.9" font-family="Helvetica,sans-Serif" font-size="11.00" fill="#000000">timestamptz[35,6]</text>
<polygon fill="#ffffff" stroke="transparent" points="144.5,-40.2 144.5,-59.2 183.5,-59.2 183.5,-40.2 144.5,-40.2"/>
<polygon fill="none" stroke="#000000" points="144.5,-40.2 144.5,-59.2 183.5,-59.2 183.5,-40.2 144.5,-40.2"/>
<text text-anchor="start" x="147.5" y="-46.3" font-family="Helvetica,sans-Serif" font-size="11.00" fill="#000000">&lt; 1</text>
<polygon fill="#ffffff" stroke="transparent" points="183.5,-40.2 183.5,-59.2 239.5,-59.2 239.5,-40.2 183.5,-40.2"/>
<polygon fill="none" stroke="#000000" points="183.5,-40.2 183.5,-59.2 239.5,-59.2 239.5,-40.2 183.5,-40.2"/>
<text text-anchor="start" x="204.1105" y="-46.3" font-family="Helvetica,sans-Serif" font-size="11.00" fill="#000000">0 rows</text>
<polygon fill="#ffffff" stroke="transparent" points="239.5,-40.2 239.5,-59.2 419.5,-59.2 419.5,-40.2 239.5,-40.2"/>
<polygon fill="none" stroke="#000000" points="239.5,-40.2 239.5,-59.2 419.5,-59.2 419.5,-40.2 239.5,-40.2"/>
<text text-anchor="start" x="400.9053" y="-46.3" font-family="Helvetica,sans-Serif" font-size="11.00" fill="#000000">2 &gt;</text>
<polygon fill="none" stroke="#000000" stroke-width="2" points="143,-39.2 143,-259.2 420,-259.2 420,-39.2 143,-39.2"/>
</a>
</g>
</g>
<!-- options&#45;&gt;questions -->
<g id="edge1" class="edge">
<title>options:w&#45;&gt;questions:e</title>
<path fill="none" stroke="#000000" d="M491.8516,-163.5927C459.9754,-175.1005 461.6455,-224.2 419.5,-224.2"/>
<polygon fill="#000000" stroke="#000000" points="498.6046,-162.4897 507.0804,-164.7529 502.5523,-161.8449 506.5,-161.2 506.5,-161.2 506.5,-161.2 502.5523,-161.8449 505.9196,-157.6471 498.6046,-162.4897 498.6046,-162.4897"/>
<ellipse fill="none" stroke="#000000" cx="495.4465" cy="-163.0056" rx="3.2" ry="3.2"/>
</g>
<!-- forms -->
<g id="node5" class="node">
<title>forms</title>
<g id="a_node5"><a xlink:href="../../tables/forms.html" xlink:title="forms" target="_top">
<polygon fill="#ffffff" stroke="transparent" points="8,-206.7 8,-289.7 93,-289.7 93,-206.7 8,-206.7"/>
<polygon fill="#f5f5f5" stroke="transparent" points="8.5,-266.2 8.5,-289.2 93.5,-289.2 93.5,-266.2 8.5,-266.2"/>
<polygon fill="none" stroke="#000000" points="8.5,-266.2 8.5,-289.2 93.5,-289.2 93.5,-266.2 8.5,-266.2"/>
<text text-anchor="start" x="13.5" y="-274.8" font-family="Helvetica,sans-Serif" font-weight="bold" font-size="11.00" fill="#000000">forms</text>
<text text-anchor="start" x="58.5437" y="-274.3" font-family="Helvetica,sans-Serif" font-size="11.00" fill="#000000">[table]</text>
<polygon fill="none" stroke="#000000" points="8.5,-244.2 8.5,-266.2 93.5,-266.2 93.5,-244.2 8.5,-244.2"/>
<image xlink:href="../../images/primaryKeys.png" width="11px" height="12px" preserveAspectRatio="xMinYMin meet" x="13.5" y="-261.2"/>
<text text-anchor="start" x="28.5" y="-251.3" font-family="Helvetica,sans-Serif" font-size="11.00" fill="#000000">id_forms</text>
<polygon fill="none" stroke="#000000" points="8.5,-225.2 8.5,-244.2 93.5,-244.2 93.5,-225.2 8.5,-225.2"/>
<text text-anchor="start" x="11.5" y="-231.3" font-family="Helvetica,sans-Serif" font-size="11.00" fill="#000000">...</text>
<polygon fill="#ffffff" stroke="transparent" points="8.5,-206.2 8.5,-225.2 27.5,-225.2 27.5,-206.2 8.5,-206.2"/>
<polygon fill="none" stroke="#000000" points="8.5,-206.2 8.5,-225.2 27.5,-225.2 27.5,-206.2 8.5,-206.2"/>
<text text-anchor="start" x="11.5" y="-212.3" font-family="Helvetica,sans-Serif" font-size="11.00" fill="#000000"> &#160;</text>
<polygon fill="#ffffff" stroke="transparent" points="27.5,-206.2 27.5,-225.2 68.5,-225.2 68.5,-206.2 27.5,-206.2"/>
<polygon fill="none" stroke="#000000" points="27.5,-206.2 27.5,-225.2 68.5,-225.2 68.5,-206.2 27.5,-206.2"/>
<text text-anchor="start" x="33.1105" y="-212.3" font-family="Helvetica,sans-Serif" font-size="11.00" fill="#000000">0 rows</text>
<polygon fill="#ffffff" stroke="transparent" points="68.5,-206.2 68.5,-225.2 93.5,-225.2 93.5,-206.2 68.5,-206.2"/>
<polygon fill="none" stroke="#000000" points="68.5,-206.2 68.5,-225.2 93.5,-225.2 93.5,-206.2 68.5,-206.2"/>
<text text-anchor="start" x="74.9053" y="-212.3" font-family="Helvetica,sans-Serif" font-size="11.00" fill="#000000">2 &gt;</text>
</a>
</g>
</g>
<!-- questions&#45;&gt;forms -->
<g id="edge4" class="edge">
<title>questions:w&#45;&gt;forms:e</title>
<path fill="none" stroke="#000000" d="M130.4557,-207.0911C115.5477,-220.2117 120.0607,-255.2 93.5,-255.2"/>
<polygon fill="#000000" stroke="#000000" points="136.945,-204.8311 145.684,-205.5997 140.7225,-203.5156 144.5,-202.2 144.5,-202.2 144.5,-202.2 140.7225,-203.5156 143.316,-198.8003 136.945,-204.8311 136.945,-204.8311"/>
<ellipse fill="none" stroke="#000000" cx="133.9231" cy="-205.8836" rx="3.2" ry="3.2"/>
</g>
<!-- question_responses -->
<g id="node3" class="node">
<title>question_responses</title>
<g id="a_node3"><a xlink:href="../../tables/question_responses.html" xlink:title="question_responses" target="_top">
<polygon fill="#ffffff" stroke="transparent" points="470,-238.7 470,-365.7 625,-365.7 625,-238.7 470,-238.7"/>
<polygon fill="#f5f5f5" stroke="transparent" points="470.5,-342.2 470.5,-365.2 625.5,-365.2 625.5,-342.2 470.5,-342.2"/>
<polygon fill="none" stroke="#000000" points="470.5,-342.2 470.5,-365.2 625.5,-365.2 625.5,-342.2 470.5,-342.2"/>
<text text-anchor="start" x="475.5" y="-350.8" font-family="Helvetica,sans-Serif" font-weight="bold" font-size="11.00" fill="#000000">question_responses</text>
<text text-anchor="start" x="591.0219" y="-350.3" font-family="Helvetica,sans-Serif" font-size="11.00" fill="#000000">[table]</text>
<polygon fill="none" stroke="#000000" points="470.5,-320.2 470.5,-342.2 625.5,-342.2 625.5,-320.2 470.5,-320.2"/>
<image xlink:href="../../images/primaryKeys.png" width="11px" height="12px" preserveAspectRatio="xMinYMin meet" x="475.5" y="-337.2"/>
<text text-anchor="start" x="499.5" y="-327.3" font-family="Helvetica,sans-Serif" font-size="11.00" fill="#000000">id_qresponse</text>
<polygon fill="none" stroke="#000000" points="470.5,-298.2 470.5,-320.2 625.5,-320.2 625.5,-298.2 470.5,-298.2"/>
<image xlink:href="../../images/foreignKeys.png" width="11px" height="12px" preserveAspectRatio="xMinYMin meet" x="475.5" y="-315.2"/>
<text text-anchor="start" x="499.5" y="-305.3" font-family="Helvetica,sans-Serif" font-size="11.00" fill="#000000">id_responses</text>
<polygon fill="none" stroke="#000000" points="470.5,-276.2 470.5,-298.2 625.5,-298.2 625.5,-276.2 470.5,-276.2"/>
<image xlink:href="../../images/foreignKeys.png" width="11px" height="12px" preserveAspectRatio="xMinYMin meet" x="475.5" y="-293.2"/>
<text text-anchor="start" x="499.5" y="-283.3" font-family="Helvetica,sans-Serif" font-size="11.00" fill="#000000">questionId</text>
<polygon fill="none" stroke="#000000" points="470.5,-257.2 470.5,-276.2 625.5,-276.2 625.5,-257.2 470.5,-257.2"/>
<text text-anchor="start" x="473.5" y="-263.3" font-family="Helvetica,sans-Serif" font-size="11.00" fill="#000000">...</text>
<polygon fill="#ffffff" stroke="transparent" points="470.5,-238.2 470.5,-257.2 533.5,-257.2 533.5,-238.2 470.5,-238.2"/>
<polygon fill="none" stroke="#000000" points="470.5,-238.2 470.5,-257.2 533.5,-257.2 533.5,-238.2 470.5,-238.2"/>
<text text-anchor="start" x="473.5" y="-244.3" font-family="Helvetica,sans-Serif" font-size="11.00" fill="#000000">&lt; 2</text>
<polygon fill="#ffffff" stroke="transparent" points="533.5,-238.2 533.5,-257.2 592.5,-257.2 592.5,-238.2 533.5,-238.2"/>
<polygon fill="none" stroke="#000000" points="533.5,-238.2 533.5,-257.2 592.5,-257.2 592.5,-238.2 533.5,-238.2"/>
<text text-anchor="start" x="557.1105" y="-244.3" font-family="Helvetica,sans-Serif" font-size="11.00" fill="#000000">0 rows</text>
<polygon fill="#ffffff" stroke="transparent" points="592.5,-238.2 592.5,-257.2 625.5,-257.2 625.5,-238.2 592.5,-238.2"/>
<polygon fill="none" stroke="#000000" points="592.5,-238.2 592.5,-257.2 625.5,-257.2 625.5,-238.2 592.5,-238.2"/>
<text text-anchor="start" x="616.3862" y="-244.3" font-family="Helvetica,sans-Serif" font-size="11.00" fill="#000000"> &#160;</text>
</a>
</g>
</g>
<!-- question_responses&#45;&gt;questions -->
<g id="edge3" class="edge">
<title>question_responses:w&#45;&gt;questions:e</title>
<path fill="none" stroke="#000000" d="M456.4033,-282.2565C440.025,-267.4048 449.3329,-224.2 419.5,-224.2"/>
<polygon fill="#000000" stroke="#000000" points="462.9507,-284.5526 469.3087,-290.5972 466.7254,-285.8763 470.5,-287.2 470.5,-287.2 470.5,-287.2 466.7254,-285.8763 471.6913,-283.8028 462.9507,-284.5526 462.9507,-284.5526"/>
<ellipse fill="none" stroke="#000000" cx="459.931" cy="-283.4936" rx="3.2" ry="3.2"/>
</g>
<!-- responses -->
<g id="node4" class="node">
<title>responses</title>
<g id="a_node4"><a xlink:href="../../tables/responses.html" xlink:title="responses" target="_top">
<polygon fill="#ffffff" stroke="transparent" points="232,-281.7 232,-342.7 331,-342.7 331,-281.7 232,-281.7"/>
<polygon fill="#f5f5f5" stroke="transparent" points="232.5,-319.2 232.5,-342.2 331.5,-342.2 331.5,-319.2 232.5,-319.2"/>
<polygon fill="none" stroke="#000000" points="232.5,-319.2 232.5,-342.2 331.5,-342.2 331.5,-319.2 232.5,-319.2"/>
<text text-anchor="start" x="237.5" y="-327.8" font-family="Helvetica,sans-Serif" font-weight="bold" font-size="11.00" fill="#000000">responses</text>
<text text-anchor="start" x="297.0219" y="-327.3" font-family="Helvetica,sans-Serif" font-size="11.00" fill="#000000">[table]</text>
<polygon fill="none" stroke="#000000" points="232.5,-300.2 232.5,-319.2 331.5,-319.2 331.5,-300.2 232.5,-300.2"/>
<text text-anchor="start" x="235.5" y="-306.3" font-family="Helvetica,sans-Serif" font-size="11.00" fill="#000000">...</text>
<polygon fill="#ffffff" stroke="transparent" points="232.5,-281.2 232.5,-300.2 262.5,-300.2 262.5,-281.2 232.5,-281.2"/>
<polygon fill="none" stroke="#000000" points="232.5,-281.2 232.5,-300.2 262.5,-300.2 262.5,-281.2 232.5,-281.2"/>
<text text-anchor="start" x="235.5" y="-287.3" font-family="Helvetica,sans-Serif" font-size="11.00" fill="#000000">&lt; 3</text>
<polygon fill="#ffffff" stroke="transparent" points="262.5,-281.2 262.5,-300.2 305.5,-300.2 305.5,-281.2 262.5,-281.2"/>
<polygon fill="none" stroke="#000000" points="262.5,-281.2 262.5,-300.2 305.5,-300.2 305.5,-281.2 262.5,-281.2"/>
<text text-anchor="start" x="270.1105" y="-287.3" font-family="Helvetica,sans-Serif" font-size="11.00" fill="#000000">0 rows</text>
<polygon fill="#ffffff" stroke="transparent" points="305.5,-281.2 305.5,-300.2 331.5,-300.2 331.5,-281.2 305.5,-281.2"/>
<polygon fill="none" stroke="#000000" points="305.5,-281.2 305.5,-300.2 331.5,-300.2 331.5,-281.2 305.5,-281.2"/>
<text text-anchor="start" x="312.9053" y="-287.3" font-family="Helvetica,sans-Serif" font-size="11.00" fill="#000000">1 &gt;</text>
</a>
</g>
</g>
<!-- question_responses&#45;&gt;responses -->
<g id="edge2" class="edge">
<title>question_responses:w&#45;&gt;responses:e</title>
<path fill="none" stroke="#000000" d="M455.8604,-309.2C405.8012,-309.2 388.0894,-309.2 331.5,-309.2"/>
<polygon fill="#000000" stroke="#000000" points="462.5,-309.2001 470.5,-312.8 466.5,-309.2 470.5,-309.2 470.5,-309.2 470.5,-309.2 466.5,-309.2 470.5,-305.6 462.5,-309.2001 462.5,-309.2001"/>
<ellipse fill="none" stroke="#000000" cx="459.3" cy="-309.2001" rx="3.2" ry="3.2"/>
</g>
<!-- responses&#45;&gt;forms -->
<g id="edge5" class="edge">
<title>responses:w&#45;&gt;forms:e</title>
<path fill="none" stroke="#000000" d="M217.9483,-308.4301C183.3349,-304.5066 172.758,-286.3318 134,-271.2 115.9715,-264.1614 112.8538,-255.2 93.5,-255.2"/>
<polygon fill="#000000" stroke="#000000" points="224.5112,-308.7773 232.3098,-312.795 228.5056,-308.9886 232.5,-309.2 232.5,-309.2 232.5,-309.2 228.5056,-308.9886 232.6902,-305.605 224.5112,-308.7773 224.5112,-308.7773"/>
<ellipse fill="none" stroke="#000000" cx="221.3156" cy="-308.6082" rx="3.2" ry="3.2"/>
</g>
</g>
</svg>
