<?xml version="1.0" encoding="UTF-8" standalone="no"?>
<!DOCTYPE svg PUBLIC "-//W3C//DTD SVG 1.1//EN"
 "http://www.w3.org/Graphics/SVG/1.1/DTD/svg11.dtd">
<!-- Generated by graphviz version 2.40.1 (20161225.0304)
 -->
<!-- Title: orphans Pages: 1 -->
<svg width="234pt" height="902pt"
 viewBox="0.00 0.00 234.00 902.00" xmlns="http://www.w3.org/2000/svg" xmlns:xlink="http://www.w3.org/1999/xlink">
<g id="graph0" class="graph" transform="scale(1 1) rotate(0) translate(4 898)">
<title>orphans</title>
<polygon fill="#ffffff" stroke="transparent" points="-4,4 -4,-898 230,-898 230,4 -4,4"/>
<!-- device_tokens -->
<g id="node1" class="node">
<title>device_tokens</title>
<g id="a_node1"><a xlink:href="../../tables/device_tokens.html" xlink:title="device_tokens" target="_top">
<polygon fill="#ffffff" stroke="transparent" points="8,-4 8,-182 218,-182 218,-4 8,-4"/>
<polygon fill="#f5f5f5" stroke="transparent" points="10,-157 10,-180 216,-180 216,-157 10,-157"/>
<polygon fill="none" stroke="#000000" points="10,-157 10,-180 216,-180 216,-157 10,-157"/>
<text text-anchor="start" x="15" y="-165.6" font-family="Helvetica,sans-Serif" font-weight="bold" font-size="11.00" fill="#000000">device_tokens</text>
<text text-anchor="start" x="181.0437" y="-165.1" font-family="Helvetica,sans-Serif" font-size="11.00" fill="#000000">[table]</text>
<polygon fill="none" stroke="#000000" points="10,-135 10,-157 124,-157 124,-135 10,-135"/>
<image xlink:href="../../images/primaryKeys.png" width="11px" height="12px" preserveAspectRatio="xMinYMin meet" x="15" y="-152"/>
<text text-anchor="start" x="30" y="-142.1" font-family="Helvetica,sans-Serif" font-size="11.00" fill="#000000">id_device_token</text>
<polygon fill="none" stroke="#000000" points="124,-135 124,-157 216,-157 216,-135 124,-135"/>
<text text-anchor="start" x="127" y="-142.7" font-family="Helvetica,sans-Serif" font-size="11.00" fill="#000000">serial[10]</text>
<polygon fill="none" stroke="#000000" points="10,-113 10,-135 124,-135 124,-113 10,-113"/>
<text text-anchor="start" x="30" y="-120.1" font-family="Helvetica,sans-Serif" font-size="11.00" fill="#000000">patient_id</text>
<polygon fill="none" stroke="#000000" points="124,-113 124,-135 216,-135 216,-113 124,-113"/>
<text text-anchor="start" x="127" y="-120.7" font-family="Helvetica,sans-Serif" font-size="11.00" fill="#000000">int4[10]</text>
<polygon fill="#ffffff" stroke="transparent" points="10,-91 10,-113 124,-113 124,-91 10,-91"/>
<polygon fill="none" stroke="#000000" points="10,-91 10,-113 124,-113 124,-91 10,-91"/>
<text text-anchor="start" x="30" y="-98.1" font-family="Helvetica,sans-Serif" font-size="11.00" fill="#000000">token</text>
<polygon fill="none" stroke="#000000" points="124,-91 124,-113 216,-113 216,-91 124,-91"/>
<text text-anchor="start" x="127" y="-98.7" font-family="Helvetica,sans-Serif" font-size="11.00" fill="#000000">varchar[255]</text>
<polygon fill="none" stroke="#000000" points="10,-69 10,-91 124,-91 124,-69 10,-69"/>
<text text-anchor="start" x="30" y="-76.1" font-family="Helvetica,sans-Serif" font-size="11.00" fill="#000000">platform</text>
<polygon fill="none" stroke="#000000" points="124,-69 124,-91 216,-91 216,-69 124,-69"/>
<text text-anchor="start" x="127" y="-76.7" font-family="Helvetica,sans-Serif" font-size="11.00" fill="#000000">varchar[255]</text>
<polygon fill="none" stroke="#000000" points="10,-47 10,-69 124,-69 124,-47 10,-47"/>
<text text-anchor="start" x="30" y="-54.1" font-family="Helvetica,sans-Serif" font-size="11.00" fill="#000000">createdAt</text>
<polygon fill="none" stroke="#000000" points="124,-47 124,-69 216,-69 216,-47 124,-47"/>
<text text-anchor="start" x="126.6023" y="-54.7" font-family="Helvetica,sans-Serif" font-size="11.00" fill="#000000">timestamptz[35,6]</text>
<polygon fill="none" stroke="#000000" points="10,-25 10,-47 124,-47 124,-25 10,-25"/>
<text text-anchor="start" x="30" y="-32.1" font-family="Helvetica,sans-Serif" font-size="11.00" fill="#000000">updatedAt</text>
<polygon fill="none" stroke="#000000" points="124,-25 124,-47 216,-47 216,-25 124,-25"/>
<text text-anchor="start" x="126.6023" y="-32.7" font-family="Helvetica,sans-Serif" font-size="11.00" fill="#000000">timestamptz[35,6]</text>
<polygon fill="#ffffff" stroke="transparent" points="10,-6 10,-25 58,-25 58,-6 10,-6"/>
<polygon fill="none" stroke="#000000" points="10,-6 10,-25 58,-25 58,-6 10,-6"/>
<text text-anchor="start" x="13" y="-12.1" font-family="Helvetica,sans-Serif" font-size="11.00" fill="#000000">&lt; 0</text>
<polygon fill="#ffffff" stroke="transparent" points="58,-6 58,-25 124,-25 124,-6 58,-6"/>
<polygon fill="none" stroke="#000000" points="58,-6 58,-25 124,-25 124,-6 58,-6"/>
<text text-anchor="start" x="88.6105" y="-12.1" font-family="Helvetica,sans-Serif" font-size="11.00" fill="#000000">0 rows</text>
<polygon fill="#ffffff" stroke="transparent" points="124,-6 124,-25 216,-25 216,-6 124,-6"/>
<polygon fill="none" stroke="#000000" points="124,-6 124,-25 216,-25 216,-6 124,-6"/>
<text text-anchor="start" x="197.4053" y="-12.1" font-family="Helvetica,sans-Serif" font-size="11.00" fill="#000000">0 &gt;</text>
<polygon fill="none" stroke="#000000" stroke-width="2" points="9,-5 9,-181 217,-181 217,-5 9,-5"/>
</a>
</g>
</g>
<!-- manuals -->
<g id="node2" class="node">
<title>manuals</title>
<g id="a_node2"><a xlink:href="../../tables/manuals.html" xlink:title="manuals" target="_top">
<polygon fill="#ffffff" stroke="transparent" points="25,-203 25,-381 201,-381 201,-203 25,-203"/>
<polygon fill="#f5f5f5" stroke="transparent" points="27,-356 27,-379 199,-379 199,-356 27,-356"/>
<polygon fill="none" stroke="#000000" points="27,-356 27,-379 199,-379 199,-356 27,-356"/>
<text text-anchor="start" x="32" y="-364.6" font-family="Helvetica,sans-Serif" font-weight="bold" font-size="11.00" fill="#000000">manuals</text>
<text text-anchor="start" x="164.0437" y="-364.1" font-family="Helvetica,sans-Serif" font-size="11.00" fill="#000000">[table]</text>
<polygon fill="none" stroke="#000000" points="27,-334 27,-356 107,-356 107,-334 27,-334"/>
<image xlink:href="../../images/primaryKeys.png" width="11px" height="12px" preserveAspectRatio="xMinYMin meet" x="32" y="-351"/>
<text text-anchor="start" x="47" y="-341.1" font-family="Helvetica,sans-Serif" font-size="11.00" fill="#000000">id_manual</text>
<polygon fill="none" stroke="#000000" points="107,-334 107,-356 199,-356 199,-334 107,-334"/>
<text text-anchor="start" x="110" y="-341.7" font-family="Helvetica,sans-Serif" font-size="11.00" fill="#000000">serial[10]</text>
<polygon fill="none" stroke="#000000" points="27,-312 27,-334 107,-334 107,-312 27,-312"/>
<text text-anchor="start" x="47" y="-319.1" font-family="Helvetica,sans-Serif" font-size="11.00" fill="#000000">title</text>
<polygon fill="none" stroke="#000000" points="107,-312 107,-334 199,-334 199,-312 107,-312"/>
<text text-anchor="start" x="110" y="-319.7" font-family="Helvetica,sans-Serif" font-size="11.00" fill="#000000">varchar[255]</text>
<polygon fill="#ffffff" stroke="transparent" points="27,-290 27,-312 107,-312 107,-290 27,-290"/>
<polygon fill="none" stroke="#000000" points="27,-290 27,-312 107,-312 107,-290 27,-290"/>
<text text-anchor="start" x="47" y="-297.1" font-family="Helvetica,sans-Serif" font-size="11.00" fill="#000000">url</text>
<polygon fill="none" stroke="#000000" points="107,-290 107,-312 199,-312 199,-290 107,-290"/>
<text text-anchor="start" x="110" y="-297.7" font-family="Helvetica,sans-Serif" font-size="11.00" fill="#000000">text[2147483647]</text>
<polygon fill="none" stroke="#000000" points="27,-268 27,-290 107,-290 107,-268 27,-268"/>
<text text-anchor="start" x="47" y="-275.1" font-family="Helvetica,sans-Serif" font-size="11.00" fill="#000000">type</text>
<polygon fill="none" stroke="#000000" points="107,-268 107,-290 199,-290 199,-268 107,-268"/>
<text text-anchor="start" x="110" y="-275.7" font-family="Helvetica,sans-Serif" font-size="11.00" fill="#000000">varchar[255]</text>
<polygon fill="none" stroke="#000000" points="27,-246 27,-268 107,-268 107,-246 27,-246"/>
<text text-anchor="start" x="47" y="-253.1" font-family="Helvetica,sans-Serif" font-size="11.00" fill="#000000">createdAt</text>
<polygon fill="none" stroke="#000000" points="107,-246 107,-268 199,-268 199,-246 107,-246"/>
<text text-anchor="start" x="109.6023" y="-253.7" font-family="Helvetica,sans-Serif" font-size="11.00" fill="#000000">timestamptz[35,6]</text>
<polygon fill="none" stroke="#000000" points="27,-224 27,-246 107,-246 107,-224 27,-224"/>
<text text-anchor="start" x="47" y="-231.1" font-family="Helvetica,sans-Serif" font-size="11.00" fill="#000000">updatedAt</text>
<polygon fill="none" stroke="#000000" points="107,-224 107,-246 199,-246 199,-224 107,-224"/>
<text text-anchor="start" x="109.6023" y="-231.7" font-family="Helvetica,sans-Serif" font-size="11.00" fill="#000000">timestamptz[35,6]</text>
<polygon fill="#ffffff" stroke="transparent" points="27,-205 27,-224 58,-224 58,-205 27,-205"/>
<polygon fill="none" stroke="#000000" points="27,-205 27,-224 58,-224 58,-205 27,-205"/>
<text text-anchor="start" x="30" y="-211.1" font-family="Helvetica,sans-Serif" font-size="11.00" fill="#000000">&lt; 0</text>
<polygon fill="#ffffff" stroke="transparent" points="58,-205 58,-224 107,-224 107,-205 58,-205"/>
<polygon fill="none" stroke="#000000" points="58,-205 58,-224 107,-224 107,-205 58,-205"/>
<text text-anchor="start" x="71.6105" y="-211.1" font-family="Helvetica,sans-Serif" font-size="11.00" fill="#000000">0 rows</text>
<polygon fill="#ffffff" stroke="transparent" points="107,-205 107,-224 199,-224 199,-205 107,-205"/>
<polygon fill="none" stroke="#000000" points="107,-205 107,-224 199,-224 199,-205 107,-205"/>
<text text-anchor="start" x="180.4053" y="-211.1" font-family="Helvetica,sans-Serif" font-size="11.00" fill="#000000">0 &gt;</text>
<polygon fill="none" stroke="#000000" stroke-width="2" points="26,-204 26,-380 200,-380 200,-204 26,-204"/>
</a>
</g>
</g>
<!-- news -->
<g id="node3" class="node">
<title>news</title>
<g id="a_node3"><a xlink:href="../../tables/news.html" xlink:title="news" target="_top">
<polygon fill="#ffffff" stroke="transparent" points="25,-402 25,-580 201,-580 201,-402 25,-402"/>
<polygon fill="#f5f5f5" stroke="transparent" points="27,-555 27,-578 199,-578 199,-555 27,-555"/>
<polygon fill="none" stroke="#000000" points="27,-555 27,-578 199,-578 199,-555 27,-555"/>
<text text-anchor="start" x="32" y="-563.6" font-family="Helvetica,sans-Serif" font-weight="bold" font-size="11.00" fill="#000000">news</text>
<text text-anchor="start" x="164.0437" y="-563.1" font-family="Helvetica,sans-Serif" font-size="11.00" fill="#000000">[table]</text>
<polygon fill="none" stroke="#000000" points="27,-533 27,-555 107,-555 107,-533 27,-533"/>
<image xlink:href="../../images/primaryKeys.png" width="11px" height="12px" preserveAspectRatio="xMinYMin meet" x="32" y="-550"/>
<text text-anchor="start" x="47" y="-540.1" font-family="Helvetica,sans-Serif" font-size="11.00" fill="#000000">id_news</text>
<polygon fill="none" stroke="#000000" points="107,-533 107,-555 199,-555 199,-533 107,-533"/>
<text text-anchor="start" x="110" y="-540.7" font-family="Helvetica,sans-Serif" font-size="11.00" fill="#000000">serial[10]</text>
<polygon fill="none" stroke="#000000" points="27,-511 27,-533 107,-533 107,-511 27,-511"/>
<text text-anchor="start" x="47" y="-518.1" font-family="Helvetica,sans-Serif" font-size="11.00" fill="#000000">title</text>
<polygon fill="none" stroke="#000000" points="107,-511 107,-533 199,-533 199,-511 107,-511"/>
<text text-anchor="start" x="110" y="-518.7" font-family="Helvetica,sans-Serif" font-size="11.00" fill="#000000">varchar[255]</text>
<polygon fill="#ffffff" stroke="transparent" points="27,-489 27,-511 107,-511 107,-489 27,-489"/>
<polygon fill="none" stroke="#000000" points="27,-489 27,-511 107,-511 107,-489 27,-489"/>
<text text-anchor="start" x="47" y="-496.1" font-family="Helvetica,sans-Serif" font-size="11.00" fill="#000000">url</text>
<polygon fill="none" stroke="#000000" points="107,-489 107,-511 199,-511 199,-489 107,-489"/>
<text text-anchor="start" x="110" y="-496.7" font-family="Helvetica,sans-Serif" font-size="11.00" fill="#000000">text[2147483647]</text>
<polygon fill="none" stroke="#000000" points="27,-467 27,-489 107,-489 107,-467 27,-467"/>
<text text-anchor="start" x="47" y="-474.1" font-family="Helvetica,sans-Serif" font-size="11.00" fill="#000000">thumbnail</text>
<polygon fill="none" stroke="#000000" points="107,-467 107,-489 199,-489 199,-467 107,-467"/>
<text text-anchor="start" x="110" y="-474.7" font-family="Helvetica,sans-Serif" font-size="11.00" fill="#000000">text[2147483647]</text>
<polygon fill="none" stroke="#000000" points="27,-445 27,-467 107,-467 107,-445 27,-445"/>
<text text-anchor="start" x="47" y="-452.1" font-family="Helvetica,sans-Serif" font-size="11.00" fill="#000000">createdAt</text>
<polygon fill="none" stroke="#000000" points="107,-445 107,-467 199,-467 199,-445 107,-445"/>
<text text-anchor="start" x="109.6023" y="-452.7" font-family="Helvetica,sans-Serif" font-size="11.00" fill="#000000">timestamptz[35,6]</text>
<polygon fill="none" stroke="#000000" points="27,-423 27,-445 107,-445 107,-423 27,-423"/>
<text text-anchor="start" x="47" y="-430.1" font-family="Helvetica,sans-Serif" font-size="11.00" fill="#000000">updatedAt</text>
<polygon fill="none" stroke="#000000" points="107,-423 107,-445 199,-445 199,-423 107,-423"/>
<text text-anchor="start" x="109.6023" y="-430.7" font-family="Helvetica,sans-Serif" font-size="11.00" fill="#000000">timestamptz[35,6]</text>
<polygon fill="#ffffff" stroke="transparent" points="27,-404 27,-423 58,-423 58,-404 27,-404"/>
<polygon fill="none" stroke="#000000" points="27,-404 27,-423 58,-423 58,-404 27,-404"/>
<text text-anchor="start" x="30" y="-410.1" font-family="Helvetica,sans-Serif" font-size="11.00" fill="#000000">&lt; 0</text>
<polygon fill="#ffffff" stroke="transparent" points="58,-404 58,-423 107,-423 107,-404 58,-404"/>
<polygon fill="none" stroke="#000000" points="58,-404 58,-423 107,-423 107,-404 58,-404"/>
<text text-anchor="start" x="71.6105" y="-410.1" font-family="Helvetica,sans-Serif" font-size="11.00" fill="#000000">0 rows</text>
<polygon fill="#ffffff" stroke="transparent" points="107,-404 107,-423 199,-423 199,-404 107,-404"/>
<polygon fill="none" stroke="#000000" points="107,-404 107,-423 199,-423 199,-404 107,-404"/>
<text text-anchor="start" x="180.4053" y="-410.1" font-family="Helvetica,sans-Serif" font-size="11.00" fill="#000000">0 &gt;</text>
<polygon fill="none" stroke="#000000" stroke-width="2" points="26,-403 26,-579 200,-579 200,-403 26,-403"/>
</a>
</g>
</g>
<!-- SequelizeMeta -->
<g id="node4" class="node">
<title>SequelizeMeta</title>
<g id="a_node4"><a xlink:href="../../tables/SequelizeMeta.html" xlink:title="SequelizeMeta" target="_top">
<polygon fill="#ffffff" stroke="transparent" points="26,-601 26,-669 200,-669 200,-601 26,-601"/>
<polygon fill="#f5f5f5" stroke="transparent" points="28,-644 28,-667 198,-667 198,-644 28,-644"/>
<polygon fill="none" stroke="#000000" points="28,-644 28,-667 198,-667 198,-644 28,-644"/>
<text text-anchor="start" x="33" y="-652.6" font-family="Helvetica,sans-Serif" font-weight="bold" font-size="11.00" fill="#000000">SequelizeMeta</text>
<text text-anchor="start" x="163.0437" y="-652.1" font-family="Helvetica,sans-Serif" font-size="11.00" fill="#000000">[table]</text>
<polygon fill="none" stroke="#000000" points="28,-622 28,-644 131,-644 131,-622 28,-622"/>
<image xlink:href="../../images/primaryKeys.png" width="11px" height="12px" preserveAspectRatio="xMinYMin meet" x="33" y="-639"/>
<text text-anchor="start" x="48" y="-629.1" font-family="Helvetica,sans-Serif" font-size="11.00" fill="#000000">name</text>
<polygon fill="none" stroke="#000000" points="131,-622 131,-644 198,-644 198,-622 131,-622"/>
<text text-anchor="start" x="133.9365" y="-629.7" font-family="Helvetica,sans-Serif" font-size="11.00" fill="#000000">varchar[255]</text>
<polygon fill="#ffffff" stroke="transparent" points="28,-603 28,-622 68,-622 68,-603 28,-603"/>
<polygon fill="none" stroke="#000000" points="28,-603 28,-622 68,-622 68,-603 28,-603"/>
<text text-anchor="start" x="31" y="-609.1" font-family="Helvetica,sans-Serif" font-size="11.00" fill="#000000">&lt; 0</text>
<polygon fill="#ffffff" stroke="transparent" points="68,-603 68,-622 131,-622 131,-603 68,-603"/>
<polygon fill="none" stroke="#000000" points="68,-603 68,-622 131,-622 131,-603 68,-603"/>
<text text-anchor="start" x="89.4956" y="-609.1" font-family="Helvetica,sans-Serif" font-size="11.00" fill="#000000">17 rows</text>
<polygon fill="#ffffff" stroke="transparent" points="131,-603 131,-622 198,-622 198,-603 131,-603"/>
<polygon fill="none" stroke="#000000" points="131,-603 131,-622 198,-622 198,-603 131,-603"/>
<text text-anchor="start" x="179.4053" y="-609.1" font-family="Helvetica,sans-Serif" font-size="11.00" fill="#000000">0 &gt;</text>
<polygon fill="none" stroke="#000000" stroke-width="2" points="27,-602 27,-668 199,-668 199,-602 27,-602"/>
</a>
</g>
</g>
<!-- videos -->
<g id="node5" class="node">
<title>videos</title>
<g id="a_node5"><a xlink:href="../../tables/videos.html" xlink:title="videos" target="_top">
<polygon fill="#ffffff" stroke="transparent" points="18.5,-690 18.5,-890 207.5,-890 207.5,-690 18.5,-690"/>
<polygon fill="#f5f5f5" stroke="transparent" points="21,-865 21,-888 206,-888 206,-865 21,-865"/>
<polygon fill="none" stroke="#000000" points="21,-865 21,-888 206,-888 206,-865 21,-865"/>
<text text-anchor="start" x="26" y="-873.6" font-family="Helvetica,sans-Serif" font-weight="bold" font-size="11.00" fill="#000000">videos</text>
<text text-anchor="start" x="171.0437" y="-873.1" font-family="Helvetica,sans-Serif" font-size="11.00" fill="#000000">[table]</text>
<polygon fill="none" stroke="#000000" points="21,-843 21,-865 106,-865 106,-843 21,-843"/>
<image xlink:href="../../images/primaryKeys.png" width="11px" height="12px" preserveAspectRatio="xMinYMin meet" x="26" y="-860"/>
<text text-anchor="start" x="41" y="-850.1" font-family="Helvetica,sans-Serif" font-size="11.00" fill="#000000">id_video</text>
<polygon fill="none" stroke="#000000" points="106,-843 106,-865 206,-865 206,-843 106,-843"/>
<text text-anchor="start" x="109" y="-850.7" font-family="Helvetica,sans-Serif" font-size="11.00" fill="#000000">serial[10]</text>
<polygon fill="#ffffff" stroke="transparent" points="21,-821 21,-843 106,-843 106,-821 21,-821"/>
<polygon fill="none" stroke="#000000" points="21,-821 21,-843 106,-843 106,-821 21,-821"/>
<text text-anchor="start" x="41" y="-828.1" font-family="Helvetica,sans-Serif" font-size="11.00" fill="#000000">youtube_id</text>
<polygon fill="none" stroke="#000000" points="106,-821 106,-843 206,-843 206,-821 106,-821"/>
<text text-anchor="start" x="109" y="-828.7" font-family="Helvetica,sans-Serif" font-size="11.00" fill="#000000">varchar[32]</text>
<polygon fill="none" stroke="#000000" points="21,-799 21,-821 106,-821 106,-799 21,-799"/>
<text text-anchor="start" x="41" y="-806.1" font-family="Helvetica,sans-Serif" font-size="11.00" fill="#000000">title</text>
<polygon fill="none" stroke="#000000" points="106,-799 106,-821 206,-821 206,-799 106,-799"/>
<text text-anchor="start" x="109" y="-806.7" font-family="Helvetica,sans-Serif" font-size="11.00" fill="#000000">varchar[255]</text>
<polygon fill="none" stroke="#000000" points="21,-777 21,-799 106,-799 106,-777 21,-777"/>
<text text-anchor="start" x="41" y="-784.1" font-family="Helvetica,sans-Serif" font-size="11.00" fill="#000000">url</text>
<polygon fill="none" stroke="#000000" points="106,-777 106,-799 206,-799 206,-777 106,-777"/>
<text text-anchor="start" x="109" y="-784.7" font-family="Helvetica,sans-Serif" font-size="11.00" fill="#000000">varchar[255]</text>
<polygon fill="none" stroke="#000000" points="21,-755 21,-777 106,-777 106,-755 21,-755"/>
<text text-anchor="start" x="41" y="-762.1" font-family="Helvetica,sans-Serif" font-size="11.00" fill="#000000">thumbnail</text>
<polygon fill="none" stroke="#000000" points="106,-755 106,-777 206,-777 206,-755 106,-755"/>
<text text-anchor="start" x="108.9178" y="-762.7" font-family="Helvetica,sans-Serif" font-size="11.00" fill="#000000">bytea[2147483647]</text>
<polygon fill="none" stroke="#000000" points="21,-733 21,-755 106,-755 106,-733 21,-733"/>
<text text-anchor="start" x="41" y="-740.1" font-family="Helvetica,sans-Serif" font-size="11.00" fill="#000000">createdAt</text>
<polygon fill="none" stroke="#000000" points="106,-733 106,-755 206,-755 206,-733 106,-733"/>
<text text-anchor="start" x="109" y="-740.7" font-family="Helvetica,sans-Serif" font-size="11.00" fill="#000000">timestamptz[35,6]</text>
<polygon fill="none" stroke="#000000" points="21,-711 21,-733 106,-733 106,-711 21,-711"/>
<text text-anchor="start" x="41" y="-718.1" font-family="Helvetica,sans-Serif" font-size="11.00" fill="#000000">updatedAt</text>
<polygon fill="none" stroke="#000000" points="106,-711 106,-733 206,-733 206,-711 106,-711"/>
<text text-anchor="start" x="109" y="-718.7" font-family="Helvetica,sans-Serif" font-size="11.00" fill="#000000">timestamptz[35,6]</text>
<polygon fill="#ffffff" stroke="transparent" points="21,-692 21,-711 55,-711 55,-692 21,-692"/>
<polygon fill="none" stroke="#000000" points="21,-692 21,-711 55,-711 55,-692 21,-692"/>
<text text-anchor="start" x="24" y="-698.1" font-family="Helvetica,sans-Serif" font-size="11.00" fill="#000000">&lt; 0</text>
<polygon fill="#ffffff" stroke="transparent" points="55,-692 55,-711 106,-711 106,-692 55,-692"/>
<polygon fill="none" stroke="#000000" points="55,-692 55,-711 106,-711 106,-692 55,-692"/>
<text text-anchor="start" x="70.6105" y="-698.1" font-family="Helvetica,sans-Serif" font-size="11.00" fill="#000000">0 rows</text>
<polygon fill="#ffffff" stroke="transparent" points="106,-692 106,-711 206,-711 206,-692 106,-692"/>
<polygon fill="none" stroke="#000000" points="106,-692 106,-711 206,-711 206,-692 106,-692"/>
<text text-anchor="start" x="187.4053" y="-698.1" font-family="Helvetica,sans-Serif" font-size="11.00" fill="#000000">0 &gt;</text>
<polygon fill="none" stroke="#000000" stroke-width="2" points="19.5,-691 19.5,-889 206.5,-889 206.5,-691 19.5,-691"/>
</a>
</g>
</g>
</g>
</svg>
