<?xml version="1.0" encoding="UTF-8" standalone="no"?>
<!DOCTYPE svg PUBLIC "-//W3C//DTD SVG 1.1//EN"
 "http://www.w3.org/Graphics/SVG/1.1/DTD/svg11.dtd">
<!-- Generated by graphviz version 2.40.1 (20161225.0304)
 -->
<!-- Title: twoDegreesRelationshipsDiagram Pages: 1 -->
<svg width="834pt" height="434pt"
 viewBox="0.00 0.00 834.00 433.56" xmlns="http://www.w3.org/2000/svg" xmlns:xlink="http://www.w3.org/1999/xlink">
<g id="graph0" class="graph" transform="scale(1 1) rotate(0) translate(4 429.5648)">
<title>twoDegreesRelationshipsDiagram</title>
<polygon fill="#ffffff" stroke="transparent" points="-4,4 -4,-429.5648 830,-429.5648 830,4 -4,4"/>
<text text-anchor="middle" x="72.4936" y="-7.3" font-family="Helvetica,sans-Serif" font-size="11.00" fill="#000000">Generated by SchemaSpy</text>
<!-- chats -->
<g id="node1" class="node">
<title>chats</title>
<g id="a_node1"><a xlink:href="../../tables/chats.html" xlink:title="chats" target="_top">
<polygon fill="#ffffff" stroke="transparent" points="277,-178.0648 277,-312.0648 453,-312.0648 453,-178.0648 277,-178.0648"/>
<polygon fill="#f5f5f5" stroke="transparent" points="279,-287.0648 279,-310.0648 451,-310.0648 451,-287.0648 279,-287.0648"/>
<polygon fill="none" stroke="#000000" points="279,-287.0648 279,-310.0648 451,-310.0648 451,-287.0648 279,-287.0648"/>
<text text-anchor="start" x="284" y="-295.6648" font-family="Helvetica,sans-Serif" font-weight="bold" font-size="11.00" fill="#000000">chats</text>
<text text-anchor="start" x="416.0437" y="-295.1648" font-family="Helvetica,sans-Serif" font-size="11.00" fill="#000000">[table]</text>
<polygon fill="none" stroke="#000000" points="279,-265.0648 279,-287.0648 359,-287.0648 359,-265.0648 279,-265.0648"/>
<image xlink:href="../../images/primaryKeys.png" width="11px" height="12px" preserveAspectRatio="xMinYMin meet" x="284" y="-282.065"/>
<text text-anchor="start" x="299" y="-272.1648" font-family="Helvetica,sans-Serif" font-size="11.00" fill="#000000">id_chat</text>
<polygon fill="none" stroke="#000000" points="359,-265.0648 359,-287.0648 451,-287.0648 451,-265.0648 359,-265.0648"/>
<text text-anchor="start" x="362" y="-272.7648" font-family="Helvetica,sans-Serif" font-size="11.00" fill="#000000">serial[10]</text>
<polygon fill="none" stroke="#000000" points="279,-243.0648 279,-265.0648 359,-265.0648 359,-243.0648 279,-243.0648"/>
<image xlink:href="../../images/foreignKeys.png" width="11px" height="12px" preserveAspectRatio="xMinYMin meet" x="284" y="-260.065"/>
<text text-anchor="start" x="299" y="-250.1648" font-family="Helvetica,sans-Serif" font-size="11.00" fill="#000000">patient_id</text>
<polygon fill="none" stroke="#000000" points="359,-243.0648 359,-265.0648 451,-265.0648 451,-243.0648 359,-243.0648"/>
<text text-anchor="start" x="362" y="-250.7648" font-family="Helvetica,sans-Serif" font-size="11.00" fill="#000000">int4[10]</text>
<polygon fill="none" stroke="#000000" points="279,-221.0648 279,-243.0648 359,-243.0648 359,-221.0648 279,-221.0648"/>
<text text-anchor="start" x="299" y="-228.1648" font-family="Helvetica,sans-Serif" font-size="11.00" fill="#000000">createdAt</text>
<polygon fill="none" stroke="#000000" points="359,-221.0648 359,-243.0648 451,-243.0648 451,-221.0648 359,-221.0648"/>
<text text-anchor="start" x="361.6023" y="-228.7648" font-family="Helvetica,sans-Serif" font-size="11.00" fill="#000000">timestamptz[35,6]</text>
<polygon fill="none" stroke="#000000" points="279,-199.0648 279,-221.0648 359,-221.0648 359,-199.0648 279,-199.0648"/>
<text text-anchor="start" x="299" y="-206.1648" font-family="Helvetica,sans-Serif" font-size="11.00" fill="#000000">updatedAt</text>
<polygon fill="none" stroke="#000000" points="359,-199.0648 359,-221.0648 451,-221.0648 451,-199.0648 359,-199.0648"/>
<text text-anchor="start" x="361.6023" y="-206.7648" font-family="Helvetica,sans-Serif" font-size="11.00" fill="#000000">timestamptz[35,6]</text>
<polygon fill="#ffffff" stroke="transparent" points="279,-180.0648 279,-199.0648 310,-199.0648 310,-180.0648 279,-180.0648"/>
<polygon fill="none" stroke="#000000" points="279,-180.0648 279,-199.0648 310,-199.0648 310,-180.0648 279,-180.0648"/>
<text text-anchor="start" x="282" y="-186.1648" font-family="Helvetica,sans-Serif" font-size="11.00" fill="#000000">&lt; 1</text>
<polygon fill="#ffffff" stroke="transparent" points="310,-180.0648 310,-199.0648 359,-199.0648 359,-180.0648 310,-180.0648"/>
<polygon fill="none" stroke="#000000" points="310,-180.0648 310,-199.0648 359,-199.0648 359,-180.0648 310,-180.0648"/>
<text text-anchor="start" x="323.6105" y="-186.1648" font-family="Helvetica,sans-Serif" font-size="11.00" fill="#000000">0 rows</text>
<polygon fill="#ffffff" stroke="transparent" points="359,-180.0648 359,-199.0648 451,-199.0648 451,-180.0648 359,-180.0648"/>
<polygon fill="none" stroke="#000000" points="359,-180.0648 359,-199.0648 451,-199.0648 451,-180.0648 359,-180.0648"/>
<text text-anchor="start" x="432.4053" y="-186.1648" font-family="Helvetica,sans-Serif" font-size="11.00" fill="#000000">1 &gt;</text>
<polygon fill="none" stroke="#000000" stroke-width="2" points="278,-179.0648 278,-311.0648 452,-311.0648 452,-179.0648 278,-179.0648"/>
</a>
</g>
</g>
<!-- patients -->
<g id="node2" class="node">
<title>patients</title>
<g id="a_node2"><a xlink:href="../../tables/patients.html" xlink:title="patients" target="_top">
<polygon fill="#ffffff" stroke="transparent" points="143,-223.5648 143,-284.5648 228,-284.5648 228,-223.5648 143,-223.5648"/>
<polygon fill="#f5f5f5" stroke="transparent" points="143.5,-261.0648 143.5,-284.0648 228.5,-284.0648 228.5,-261.0648 143.5,-261.0648"/>
<polygon fill="none" stroke="#000000" points="143.5,-261.0648 143.5,-284.0648 228.5,-284.0648 228.5,-261.0648 143.5,-261.0648"/>
<text text-anchor="start" x="148.5" y="-269.6648" font-family="Helvetica,sans-Serif" font-weight="bold" font-size="11.00" fill="#000000">patients</text>
<text text-anchor="start" x="194.0219" y="-269.1648" font-family="Helvetica,sans-Serif" font-size="11.00" fill="#000000">[table]</text>
<polygon fill="none" stroke="#000000" points="143.5,-242.0648 143.5,-261.0648 228.5,-261.0648 228.5,-242.0648 143.5,-242.0648"/>
<text text-anchor="start" x="146.5" y="-248.1648" font-family="Helvetica,sans-Serif" font-size="11.00" fill="#000000">...</text>
<polygon fill="#ffffff" stroke="transparent" points="143.5,-223.0648 143.5,-242.0648 166.5,-242.0648 166.5,-223.0648 143.5,-223.0648"/>
<polygon fill="none" stroke="#000000" points="143.5,-223.0648 143.5,-242.0648 166.5,-242.0648 166.5,-223.0648 143.5,-223.0648"/>
<text text-anchor="start" x="146.5" y="-229.1648" font-family="Helvetica,sans-Serif" font-size="11.00" fill="#000000">&lt; 1</text>
<polygon fill="#ffffff" stroke="transparent" points="166.5,-223.0648 166.5,-242.0648 205.5,-242.0648 205.5,-223.0648 166.5,-223.0648"/>
<polygon fill="none" stroke="#000000" points="166.5,-223.0648 166.5,-242.0648 205.5,-242.0648 205.5,-223.0648 166.5,-223.0648"/>
<text text-anchor="start" x="170.1105" y="-229.1648" font-family="Helvetica,sans-Serif" font-size="11.00" fill="#000000">0 rows</text>
<polygon fill="#ffffff" stroke="transparent" points="205.5,-223.0648 205.5,-242.0648 228.5,-242.0648 228.5,-223.0648 205.5,-223.0648"/>
<polygon fill="none" stroke="#000000" points="205.5,-223.0648 205.5,-242.0648 228.5,-242.0648 228.5,-223.0648 205.5,-223.0648"/>
<text text-anchor="start" x="209.9053" y="-229.1648" font-family="Helvetica,sans-Serif" font-size="11.00" fill="#000000">5 &gt;</text>
</a>
</g>
</g>
<!-- chats&#45;&gt;patients -->
<g id="edge1" class="edge">
<title>chats:w&#45;&gt;patients:e</title>
<path fill="none" stroke="#000000" d="M264.4578,-254.0648C255.0632,-254.0648 245.5131,-254.0648 236.4525,-254.0648"/>
<polygon fill="#000000" stroke="#000000" points="271,-254.0649 279,-257.6648 275,-254.0649 279,-254.0648 279,-254.0648 279,-254.0648 275,-254.0649 279,-250.4648 271,-254.0649 271,-254.0649"/>
<ellipse fill="none" stroke="#000000" cx="267.8" cy="-254.0649" rx="3.2" ry="3.2"/>
</g>
<!-- cid -->
<g id="node7" class="node">
<title>cid</title>
<g id="a_node7"><a xlink:href="../../tables/cid.html" xlink:title="cid" target="_top">
<polygon fill="#ffffff" stroke="transparent" points="8,-226.5648 8,-287.5648 94,-287.5648 94,-226.5648 8,-226.5648"/>
<polygon fill="#f5f5f5" stroke="transparent" points="8,-264.0648 8,-287.0648 94,-287.0648 94,-264.0648 8,-264.0648"/>
<polygon fill="none" stroke="#000000" points="8,-264.0648 8,-287.0648 94,-287.0648 94,-264.0648 8,-264.0648"/>
<text text-anchor="start" x="12.4721" y="-272.6648" font-family="Helvetica,sans-Serif" font-weight="bold" font-size="11.00" fill="#000000">cid</text>
<text text-anchor="start" x="59.0437" y="-272.1648" font-family="Helvetica,sans-Serif" font-size="11.00" fill="#000000">[table]</text>
<polygon fill="none" stroke="#000000" points="8,-245.0648 8,-264.0648 94,-264.0648 94,-245.0648 8,-245.0648"/>
<text text-anchor="start" x="11" y="-251.1648" font-family="Helvetica,sans-Serif" font-size="11.00" fill="#000000">...</text>
<polygon fill="#ffffff" stroke="transparent" points="8,-226.0648 8,-245.0648 29,-245.0648 29,-226.0648 8,-226.0648"/>
<polygon fill="none" stroke="#000000" points="8,-226.0648 8,-245.0648 29,-245.0648 29,-226.0648 8,-226.0648"/>
<text text-anchor="start" x="10.7027" y="-232.1648" font-family="Helvetica,sans-Serif" font-size="11.00" fill="#000000">&lt; 1</text>
<polygon fill="#ffffff" stroke="transparent" points="29,-226.0648 29,-245.0648 73,-245.0648 73,-226.0648 29,-226.0648"/>
<polygon fill="none" stroke="#000000" points="29,-226.0648 29,-245.0648 73,-245.0648 73,-226.0648 29,-226.0648"/>
<text text-anchor="start" x="31.7478" y="-232.1648" font-family="Helvetica,sans-Serif" font-size="11.00" fill="#000000">88 rows</text>
<polygon fill="#ffffff" stroke="transparent" points="73,-226.0648 73,-245.0648 94,-245.0648 94,-226.0648 73,-226.0648"/>
<polygon fill="none" stroke="#000000" points="73,-226.0648 73,-245.0648 94,-245.0648 94,-226.0648 73,-226.0648"/>
<text text-anchor="start" x="75.7027" y="-232.1648" font-family="Helvetica,sans-Serif" font-size="11.00" fill="#000000">1 &gt;</text>
</a>
</g>
</g>
<!-- patients&#45;&gt;cid -->
<g id="edge8" class="edge">
<title>patients:w&#45;&gt;cid:e</title>
<path fill="none" stroke="#000000" d="M120.1089,-254.0648C111.3317,-254.0648 102.4466,-254.0648 94,-254.0648"/>
<polygon fill="#000000" stroke="#000000" points="126.6818,-254.0649 134.6819,-257.6648 130.6818,-254.0649 134.6818,-254.0648 134.6818,-254.0648 134.6818,-254.0648 130.6818,-254.0649 134.6818,-250.4648 126.6818,-254.0649 126.6818,-254.0649"/>
<ellipse fill="none" stroke="#000000" cx="123.4818" cy="-254.0649" rx="3.2" ry="3.2"/>
</g>
<!-- device -->
<g id="node3" class="node">
<title>device</title>
<g id="a_node3"><a xlink:href="../../tables/device.html" xlink:title="device" target="_top">
<polygon fill="#ffffff" stroke="transparent" points="327,-360.5648 327,-421.5648 403,-421.5648 403,-360.5648 327,-360.5648"/>
<polygon fill="#f5f5f5" stroke="transparent" points="327,-398.0648 327,-421.0648 403,-421.0648 403,-398.0648 327,-398.0648"/>
<polygon fill="none" stroke="#000000" points="327,-398.0648 327,-421.0648 403,-421.0648 403,-398.0648 327,-398.0648"/>
<text text-anchor="start" x="332" y="-406.6648" font-family="Helvetica,sans-Serif" font-weight="bold" font-size="11.00" fill="#000000">device</text>
<text text-anchor="start" x="368.5219" y="-406.1648" font-family="Helvetica,sans-Serif" font-size="11.00" fill="#000000">[table]</text>
<polygon fill="none" stroke="#000000" points="327,-379.0648 327,-398.0648 403,-398.0648 403,-379.0648 327,-379.0648"/>
<text text-anchor="start" x="330" y="-385.1648" font-family="Helvetica,sans-Serif" font-size="11.00" fill="#000000">...</text>
<polygon fill="#ffffff" stroke="transparent" points="327,-360.0648 327,-379.0648 350,-379.0648 350,-360.0648 327,-360.0648"/>
<polygon fill="none" stroke="#000000" points="327,-360.0648 327,-379.0648 350,-379.0648 350,-360.0648 327,-360.0648"/>
<text text-anchor="start" x="330" y="-366.1648" font-family="Helvetica,sans-Serif" font-size="11.00" fill="#000000">&lt; 1</text>
<polygon fill="#ffffff" stroke="transparent" points="350,-360.0648 350,-379.0648 389,-379.0648 389,-360.0648 350,-360.0648"/>
<polygon fill="none" stroke="#000000" points="350,-360.0648 350,-379.0648 389,-379.0648 389,-360.0648 350,-360.0648"/>
<text text-anchor="start" x="353.6105" y="-366.1648" font-family="Helvetica,sans-Serif" font-size="11.00" fill="#000000">0 rows</text>
<polygon fill="#ffffff" stroke="transparent" points="389,-360.0648 389,-379.0648 403,-379.0648 403,-360.0648 389,-360.0648"/>
<polygon fill="none" stroke="#000000" points="389,-360.0648 389,-379.0648 403,-379.0648 403,-360.0648 389,-360.0648"/>
<text text-anchor="start" x="393.8862" y="-366.1648" font-family="Helvetica,sans-Serif" font-size="11.00" fill="#000000"> &#160;</text>
</a>
</g>
</g>
<!-- device&#45;&gt;patients -->
<g id="edge2" class="edge">
<title>device:w&#45;&gt;patients:e</title>
<path fill="none" stroke="#000000" d="M312.4023,-386.7909C261.7897,-377.937 223.5002,-324.8644 202.8051,-288.5732"/>
<polygon fill="#000000" stroke="#000000" points="319.0303,-387.3693 326.687,-391.6512 323.0151,-387.717 327,-388.0648 327,-388.0648 327,-388.0648 323.0151,-387.717 327.313,-384.4785 319.0303,-387.3693 319.0303,-387.3693"/>
<ellipse fill="none" stroke="#000000" cx="315.8424" cy="-387.091" rx="3.2" ry="3.2"/>
</g>
<!-- message_notifications -->
<g id="node4" class="node">
<title>message_notifications</title>
<g id="a_node4"><a xlink:href="../../tables/message_notifications.html" xlink:title="message_notifications" target="_top">
<polygon fill="#ffffff" stroke="transparent" points="650,-271.5648 650,-332.5648 818,-332.5648 818,-271.5648 650,-271.5648"/>
<polygon fill="#f5f5f5" stroke="transparent" points="650,-309.0648 650,-332.0648 818,-332.0648 818,-309.0648 650,-309.0648"/>
<polygon fill="none" stroke="#000000" points="650,-309.0648 650,-332.0648 818,-332.0648 818,-309.0648 650,-309.0648"/>
<text text-anchor="start" x="655" y="-317.6648" font-family="Helvetica,sans-Serif" font-weight="bold" font-size="11.00" fill="#000000">message_notifications</text>
<text text-anchor="start" x="783.5219" y="-317.1648" font-family="Helvetica,sans-Serif" font-size="11.00" fill="#000000">[table]</text>
<polygon fill="none" stroke="#000000" points="650,-290.0648 650,-309.0648 818,-309.0648 818,-290.0648 650,-290.0648"/>
<text text-anchor="start" x="653" y="-296.1648" font-family="Helvetica,sans-Serif" font-size="11.00" fill="#000000">...</text>
<polygon fill="#ffffff" stroke="transparent" points="650,-271.0648 650,-290.0648 719,-290.0648 719,-271.0648 650,-271.0648"/>
<polygon fill="none" stroke="#000000" points="650,-271.0648 650,-290.0648 719,-290.0648 719,-271.0648 650,-271.0648"/>
<text text-anchor="start" x="653" y="-277.1648" font-family="Helvetica,sans-Serif" font-size="11.00" fill="#000000">&lt; 2</text>
<polygon fill="#ffffff" stroke="transparent" points="719,-271.0648 719,-290.0648 781,-290.0648 781,-271.0648 719,-271.0648"/>
<polygon fill="none" stroke="#000000" points="719,-271.0648 719,-290.0648 781,-290.0648 781,-271.0648 719,-271.0648"/>
<text text-anchor="start" x="745.6105" y="-277.1648" font-family="Helvetica,sans-Serif" font-size="11.00" fill="#000000">0 rows</text>
<polygon fill="#ffffff" stroke="transparent" points="781,-271.0648 781,-290.0648 818,-290.0648 818,-271.0648 781,-271.0648"/>
<polygon fill="none" stroke="#000000" points="781,-271.0648 781,-290.0648 818,-290.0648 818,-271.0648 781,-271.0648"/>
<text text-anchor="start" x="808.8862" y="-277.1648" font-family="Helvetica,sans-Serif" font-size="11.00" fill="#000000"> &#160;</text>
</a>
</g>
</g>
<!-- message_notifications&#45;&gt;patients -->
<g id="edge4" class="edge">
<title>message_notifications:w&#45;&gt;patients:e</title>
<path fill="none" stroke="#000000" d="M635.3858,-299.269C477.2104,-303.7169 423.9767,-378.8118 269,-323.0648 249.3579,-315.9994 231.0509,-302.0887 216.614,-288.5973"/>
<polygon fill="#000000" stroke="#000000" points="642.0008,-299.1766 650.0503,-302.6645 646.0004,-299.1207 650,-299.0648 650,-299.0648 650,-299.0648 646.0004,-299.1207 649.9497,-295.4652 642.0008,-299.1766 642.0008,-299.1766"/>
<ellipse fill="none" stroke="#000000" cx="638.8011" cy="-299.2213" rx="3.2" ry="3.2"/>
</g>
<!-- messages -->
<g id="node5" class="node">
<title>messages</title>
<g id="a_node5"><a xlink:href="../../tables/messages.html" xlink:title="messages" target="_top">
<polygon fill="#ffffff" stroke="transparent" points="503,-195.5648 503,-256.5648 600,-256.5648 600,-195.5648 503,-195.5648"/>
<polygon fill="#f5f5f5" stroke="transparent" points="503.5,-233.0648 503.5,-256.0648 600.5,-256.0648 600.5,-233.0648 503.5,-233.0648"/>
<polygon fill="none" stroke="#000000" points="503.5,-233.0648 503.5,-256.0648 600.5,-256.0648 600.5,-233.0648 503.5,-233.0648"/>
<text text-anchor="start" x="508.5" y="-241.6648" font-family="Helvetica,sans-Serif" font-weight="bold" font-size="11.00" fill="#000000">messages</text>
<text text-anchor="start" x="566.0219" y="-241.1648" font-family="Helvetica,sans-Serif" font-size="11.00" fill="#000000">[table]</text>
<polygon fill="none" stroke="#000000" points="503.5,-214.0648 503.5,-233.0648 600.5,-233.0648 600.5,-214.0648 503.5,-214.0648"/>
<text text-anchor="start" x="506.5" y="-220.1648" font-family="Helvetica,sans-Serif" font-size="11.00" fill="#000000">...</text>
<polygon fill="#ffffff" stroke="transparent" points="503.5,-195.0648 503.5,-214.0648 532.5,-214.0648 532.5,-195.0648 503.5,-195.0648"/>
<polygon fill="none" stroke="#000000" points="503.5,-195.0648 503.5,-214.0648 532.5,-214.0648 532.5,-195.0648 503.5,-195.0648"/>
<text text-anchor="start" x="506.5" y="-201.1648" font-family="Helvetica,sans-Serif" font-size="11.00" fill="#000000">&lt; 3</text>
<polygon fill="#ffffff" stroke="transparent" points="532.5,-195.0648 532.5,-214.0648 574.5,-214.0648 574.5,-195.0648 532.5,-195.0648"/>
<polygon fill="none" stroke="#000000" points="532.5,-195.0648 532.5,-214.0648 574.5,-214.0648 574.5,-195.0648 532.5,-195.0648"/>
<text text-anchor="start" x="539.1105" y="-201.1648" font-family="Helvetica,sans-Serif" font-size="11.00" fill="#000000">0 rows</text>
<polygon fill="#ffffff" stroke="transparent" points="574.5,-195.0648 574.5,-214.0648 600.5,-214.0648 600.5,-195.0648 574.5,-195.0648"/>
<polygon fill="none" stroke="#000000" points="574.5,-195.0648 574.5,-214.0648 600.5,-214.0648 600.5,-195.0648 574.5,-195.0648"/>
<text text-anchor="start" x="581.9053" y="-201.1648" font-family="Helvetica,sans-Serif" font-size="11.00" fill="#000000">1 &gt;</text>
</a>
</g>
</g>
<!-- message_notifications&#45;&gt;messages -->
<g id="edge3" class="edge">
<title>message_notifications:w&#45;&gt;messages:e</title>
<path fill="none" stroke="#000000" d="M635.4668,-297.3744C613.2337,-292.2603 593.4423,-276.3514 578.6664,-260.8545"/>
<polygon fill="#000000" stroke="#000000" points="642.0536,-298.1405 649.5841,-302.6407 646.0268,-298.6027 650,-299.0648 650,-299.0648 650,-299.0648 646.0268,-298.6027 650.4159,-295.4889 642.0536,-298.1405 642.0536,-298.1405"/>
<ellipse fill="none" stroke="#000000" cx="638.875" cy="-297.7708" rx="3.2" ry="3.2"/>
</g>
<!-- messages&#45;&gt;chats -->
<g id="edge5" class="edge">
<title>messages:w&#45;&gt;chats:e</title>
<path fill="none" stroke="#000000" d="M490.7095,-267.0337C478.1017,-272.3904 464.5244,-276.0648 451,-276.0648"/>
<polygon fill="#000000" stroke="#000000" points="496.7529,-264.1249 505.5227,-263.899 500.3571,-262.39 503.9613,-260.6552 503.9613,-260.6552 503.9613,-260.6552 500.3571,-262.39 502.4,-257.4114 496.7529,-264.1249 496.7529,-264.1249"/>
<ellipse fill="none" stroke="#000000" cx="493.8695" cy="-265.5128" rx="3.2" ry="3.2"/>
</g>
<!-- messages&#45;&gt;patients -->
<g id="edge6" class="edge">
<title>messages:w&#45;&gt;patients:e</title>
<path fill="none" stroke="#000000" d="M578.5878,-178.717C530.2878,-158.0631 318.2339,-147.2448 269,-168.0648 244.2746,-178.5207 223.2653,-200.2763 208.5053,-219.2886"/>
<polygon fill="#000000" stroke="#000000" points="582.1838,-184.329 583.4689,-193.0071 584.3419,-187.6969 586.5,-191.0648 586.5,-191.0648 586.5,-191.0648 584.3419,-187.6969 589.5311,-189.1226 582.1838,-184.329 582.1838,-184.329"/>
<ellipse fill="none" stroke="#000000" cx="580.4574" cy="-181.6347" rx="3.2" ry="3.2"/>
</g>
<!-- users -->
<g id="node6" class="node">
<title>users</title>
<g id="a_node6"><a xlink:href="../../tables/users.html" xlink:title="users" target="_top">
<polygon fill="#ffffff" stroke="transparent" points="329.5,-68.5648 329.5,-129.5648 400.5,-129.5648 400.5,-68.5648 329.5,-68.5648"/>
<polygon fill="#f5f5f5" stroke="transparent" points="330,-106.0648 330,-129.0648 401,-129.0648 401,-106.0648 330,-106.0648"/>
<polygon fill="none" stroke="#000000" points="330,-106.0648 330,-129.0648 401,-129.0648 401,-106.0648 330,-106.0648"/>
<text text-anchor="start" x="335" y="-114.6648" font-family="Helvetica,sans-Serif" font-weight="bold" font-size="11.00" fill="#000000">users</text>
<text text-anchor="start" x="366.5219" y="-114.1648" font-family="Helvetica,sans-Serif" font-size="11.00" fill="#000000">[table]</text>
<polygon fill="none" stroke="#000000" points="330,-87.0648 330,-106.0648 401,-106.0648 401,-87.0648 330,-87.0648"/>
<text text-anchor="start" x="333" y="-93.1648" font-family="Helvetica,sans-Serif" font-size="11.00" fill="#000000">...</text>
<polygon fill="#ffffff" stroke="transparent" points="330,-68.0648 330,-87.0648 342,-87.0648 342,-68.0648 330,-68.0648"/>
<polygon fill="none" stroke="#000000" points="330,-68.0648 330,-87.0648 342,-87.0648 342,-68.0648 330,-68.0648"/>
<text text-anchor="start" x="332.9431" y="-74.1648" font-family="Helvetica,sans-Serif" font-size="11.00" fill="#000000"> &#160;</text>
<polygon fill="#ffffff" stroke="transparent" points="342,-68.0648 342,-87.0648 380,-87.0648 380,-68.0648 342,-68.0648"/>
<polygon fill="none" stroke="#000000" points="342,-68.0648 342,-87.0648 380,-87.0648 380,-68.0648 342,-68.0648"/>
<text text-anchor="start" x="344.8053" y="-74.1648" font-family="Helvetica,sans-Serif" font-size="11.00" fill="#000000">0 rows</text>
<polygon fill="#ffffff" stroke="transparent" points="380,-68.0648 380,-87.0648 401,-87.0648 401,-68.0648 380,-68.0648"/>
<polygon fill="none" stroke="#000000" points="380,-68.0648 380,-87.0648 401,-87.0648 401,-68.0648 380,-68.0648"/>
<text text-anchor="start" x="382.7027" y="-74.1648" font-family="Helvetica,sans-Serif" font-size="11.00" fill="#000000">4 &gt;</text>
</a>
</g>
</g>
<!-- messages&#45;&gt;users -->
<g id="edge7" class="edge">
<title>messages:w&#45;&gt;users:e</title>
<path fill="none" stroke="#000000" d="M589.4908,-176.6703C575.7943,-142.8787 441.1626,-96.0648 401,-96.0648"/>
<polygon fill="#000000" stroke="#000000" points="588.1274,-183.2321 582.9753,-190.3325 587.3137,-187.1485 586.5,-191.0648 586.5,-191.0648 586.5,-191.0648 587.3137,-187.1485 590.0247,-191.7972 588.1274,-183.2321 588.1274,-183.2321"/>
<ellipse fill="none" stroke="#000000" cx="588.7784" cy="-180.099" rx="3.2" ry="3.2"/>
</g>
<!-- responses -->
<g id="node8" class="node">
<title>responses</title>
<g id="a_node8"><a xlink:href="../../tables/responses.html" xlink:title="responses" target="_top">
<polygon fill="#ffffff" stroke="transparent" points="502,-42.5648 502,-103.5648 601,-103.5648 601,-42.5648 502,-42.5648"/>
<polygon fill="#f5f5f5" stroke="transparent" points="502.5,-80.0648 502.5,-103.0648 601.5,-103.0648 601.5,-80.0648 502.5,-80.0648"/>
<polygon fill="none" stroke="#000000" points="502.5,-80.0648 502.5,-103.0648 601.5,-103.0648 601.5,-80.0648 502.5,-80.0648"/>
<text text-anchor="start" x="507.5" y="-88.6648" font-family="Helvetica,sans-Serif" font-weight="bold" font-size="11.00" fill="#000000">responses</text>
<text text-anchor="start" x="567.0219" y="-88.1648" font-family="Helvetica,sans-Serif" font-size="11.00" fill="#000000">[table]</text>
<polygon fill="none" stroke="#000000" points="502.5,-61.0648 502.5,-80.0648 601.5,-80.0648 601.5,-61.0648 502.5,-61.0648"/>
<text text-anchor="start" x="505.5" y="-67.1648" font-family="Helvetica,sans-Serif" font-size="11.00" fill="#000000">...</text>
<polygon fill="#ffffff" stroke="transparent" points="502.5,-42.0648 502.5,-61.0648 532.5,-61.0648 532.5,-42.0648 502.5,-42.0648"/>
<polygon fill="none" stroke="#000000" points="502.5,-42.0648 502.5,-61.0648 532.5,-61.0648 532.5,-42.0648 502.5,-42.0648"/>
<text text-anchor="start" x="505.5" y="-48.1648" font-family="Helvetica,sans-Serif" font-size="11.00" fill="#000000">&lt; 3</text>
<polygon fill="#ffffff" stroke="transparent" points="532.5,-42.0648 532.5,-61.0648 575.5,-61.0648 575.5,-42.0648 532.5,-42.0648"/>
<polygon fill="none" stroke="#000000" points="532.5,-42.0648 532.5,-61.0648 575.5,-61.0648 575.5,-42.0648 532.5,-42.0648"/>
<text text-anchor="start" x="540.1105" y="-48.1648" font-family="Helvetica,sans-Serif" font-size="11.00" fill="#000000">0 rows</text>
<polygon fill="#ffffff" stroke="transparent" points="575.5,-42.0648 575.5,-61.0648 601.5,-61.0648 601.5,-42.0648 575.5,-42.0648"/>
<polygon fill="none" stroke="#000000" points="575.5,-42.0648 575.5,-61.0648 601.5,-61.0648 601.5,-42.0648 575.5,-42.0648"/>
<text text-anchor="start" x="582.9053" y="-48.1648" font-family="Helvetica,sans-Serif" font-size="11.00" fill="#000000">1 &gt;</text>
</a>
</g>
</g>
<!-- responses&#45;&gt;patients -->
<g id="edge10" class="edge">
<title>responses:w&#45;&gt;patients:e</title>
<path fill="none" stroke="#000000" d="M488.1959,-67.8241C479.7087,-64.894 474.0695,-59.9165 461,-58.0648 376.5104,-46.0947 340.1891,-11.0128 269,-58.0648 214.5386,-94.0608 195.483,-173.5894 188.8999,-219.5128"/>
<polygon fill="#000000" stroke="#000000" points="494.5964,-68.8267 501.9428,-73.6215 498.5482,-69.4458 502.5,-70.0648 502.5,-70.0648 502.5,-70.0648 498.5482,-69.4458 503.0572,-66.5082 494.5964,-68.8267 494.5964,-68.8267"/>
<ellipse fill="none" stroke="#000000" cx="491.4349" cy="-68.3314" rx="3.2" ry="3.2"/>
</g>
<!-- responses&#45;&gt;users -->
<g id="edge9" class="edge">
<title>responses:w&#45;&gt;users:e</title>
<path fill="none" stroke="#000000" d="M488.0339,-70.9902C453.547,-75.6218 442.2924,-96.0648 401,-96.0648"/>
<polygon fill="#000000" stroke="#000000" points="494.5163,-70.5756 502.7298,-73.6575 498.5082,-70.3202 502.5,-70.0648 502.5,-70.0648 502.5,-70.0648 498.5082,-70.3202 502.2702,-66.4722 494.5163,-70.5756 494.5163,-70.5756"/>
<ellipse fill="none" stroke="#000000" cx="491.3228" cy="-70.7799" rx="3.2" ry="3.2"/>
</g>
</g>
</svg>
