<?xml version="1.0" encoding="UTF-8" standalone="no"?>
<!DOCTYPE svg PUBLIC "-//W3C//DTD SVG 1.1//EN"
 "http://www.w3.org/Graphics/SVG/1.1/DTD/svg11.dtd">
<!-- Generated by graphviz version 2.40.1 (20161225.0304)
 -->
<!-- Title: twoDegreesRelationshipsDiagramImplied Pages: 1 -->
<svg width="869pt" height="434pt"
 viewBox="0.00 0.00 869.00 433.56" xmlns="http://www.w3.org/2000/svg" xmlns:xlink="http://www.w3.org/1999/xlink">
<g id="graph0" class="graph" transform="scale(1 1) rotate(0) translate(4 429.5648)">
<title>twoDegreesRelationshipsDiagramImplied</title>
<polygon fill="#ffffff" stroke="transparent" points="-4,4 -4,-429.5648 865,-429.5648 865,4 -4,4"/>
<text text-anchor="middle" x="72.4936" y="-7.3" font-family="Helvetica,sans-Serif" font-size="11.00" fill="#000000">Generated by SchemaSpy</text>
<!-- chats -->
<g id="node1" class="node">
<title>chats</title>
<g id="a_node1"><a xlink:href="../../tables/chats.html" xlink:title="chats" target="_top">
<polygon fill="#ffffff" stroke="transparent" points="312,-178.0648 312,-312.0648 488,-312.0648 488,-178.0648 312,-178.0648"/>
<polygon fill="#f5f5f5" stroke="transparent" points="314,-287.0648 314,-310.0648 486,-310.0648 486,-287.0648 314,-287.0648"/>
<polygon fill="none" stroke="#000000" points="314,-287.0648 314,-310.0648 486,-310.0648 486,-287.0648 314,-287.0648"/>
<text text-anchor="start" x="319" y="-295.6648" font-family="Helvetica,sans-Serif" font-weight="bold" font-size="11.00" fill="#000000">chats</text>
<text text-anchor="start" x="451.0437" y="-295.1648" font-family="Helvetica,sans-Serif" font-size="11.00" fill="#000000">[table]</text>
<polygon fill="none" stroke="#000000" points="314,-265.0648 314,-287.0648 394,-287.0648 394,-265.0648 314,-265.0648"/>
<image xlink:href="../../images/primaryKeys.png" width="11px" height="12px" preserveAspectRatio="xMinYMin meet" x="319" y="-282.065"/>
<text text-anchor="start" x="334" y="-272.1648" font-family="Helvetica,sans-Serif" font-size="11.00" fill="#000000">id_chat</text>
<polygon fill="none" stroke="#000000" points="394,-265.0648 394,-287.0648 486,-287.0648 486,-265.0648 394,-265.0648"/>
<text text-anchor="start" x="397" y="-272.7648" font-family="Helvetica,sans-Serif" font-size="11.00" fill="#000000">serial[10]</text>
<polygon fill="none" stroke="#000000" points="314,-243.0648 314,-265.0648 394,-265.0648 394,-243.0648 314,-243.0648"/>
<image xlink:href="../../images/foreignKeys.png" width="11px" height="12px" preserveAspectRatio="xMinYMin meet" x="319" y="-260.065"/>
<text text-anchor="start" x="334" y="-250.1648" font-family="Helvetica,sans-Serif" font-size="11.00" fill="#000000">patient_id</text>
<polygon fill="none" stroke="#000000" points="394,-243.0648 394,-265.0648 486,-265.0648 486,-243.0648 394,-243.0648"/>
<text text-anchor="start" x="397" y="-250.7648" font-family="Helvetica,sans-Serif" font-size="11.00" fill="#000000">int4[10]</text>
<polygon fill="none" stroke="#000000" points="314,-221.0648 314,-243.0648 394,-243.0648 394,-221.0648 314,-221.0648"/>
<text text-anchor="start" x="334" y="-228.1648" font-family="Helvetica,sans-Serif" font-size="11.00" fill="#000000">createdAt</text>
<polygon fill="none" stroke="#000000" points="394,-221.0648 394,-243.0648 486,-243.0648 486,-221.0648 394,-221.0648"/>
<text text-anchor="start" x="396.6023" y="-228.7648" font-family="Helvetica,sans-Serif" font-size="11.00" fill="#000000">timestamptz[35,6]</text>
<polygon fill="none" stroke="#000000" points="314,-199.0648 314,-221.0648 394,-221.0648 394,-199.0648 314,-199.0648"/>
<text text-anchor="start" x="334" y="-206.1648" font-family="Helvetica,sans-Serif" font-size="11.00" fill="#000000">updatedAt</text>
<polygon fill="none" stroke="#000000" points="394,-199.0648 394,-221.0648 486,-221.0648 486,-199.0648 394,-199.0648"/>
<text text-anchor="start" x="396.6023" y="-206.7648" font-family="Helvetica,sans-Serif" font-size="11.00" fill="#000000">timestamptz[35,6]</text>
<polygon fill="#ffffff" stroke="transparent" points="314,-180.0648 314,-199.0648 345,-199.0648 345,-180.0648 314,-180.0648"/>
<polygon fill="none" stroke="#000000" points="314,-180.0648 314,-199.0648 345,-199.0648 345,-180.0648 314,-180.0648"/>
<text text-anchor="start" x="317" y="-186.1648" font-family="Helvetica,sans-Serif" font-size="11.00" fill="#000000">&lt; 1</text>
<polygon fill="#ffffff" stroke="transparent" points="345,-180.0648 345,-199.0648 394,-199.0648 394,-180.0648 345,-180.0648"/>
<polygon fill="none" stroke="#000000" points="345,-180.0648 345,-199.0648 394,-199.0648 394,-180.0648 345,-180.0648"/>
<text text-anchor="start" x="358.6105" y="-186.1648" font-family="Helvetica,sans-Serif" font-size="11.00" fill="#000000">0 rows</text>
<polygon fill="#ffffff" stroke="transparent" points="394,-180.0648 394,-199.0648 486,-199.0648 486,-180.0648 394,-180.0648"/>
<polygon fill="none" stroke="#000000" points="394,-180.0648 394,-199.0648 486,-199.0648 486,-180.0648 394,-180.0648"/>
<text text-anchor="start" x="467.4053" y="-186.1648" font-family="Helvetica,sans-Serif" font-size="11.00" fill="#000000">1 &gt;</text>
<polygon fill="none" stroke="#000000" stroke-width="2" points="313,-179.0648 313,-311.0648 487,-311.0648 487,-179.0648 313,-179.0648"/>
</a>
</g>
</g>
<!-- patients -->
<g id="node2" class="node">
<title>patients</title>
<g id="a_node2"><a xlink:href="../../tables/patients.html" xlink:title="patients" target="_top">
<polygon fill="#ffffff" stroke="transparent" points="178,-223.5648 178,-284.5648 263,-284.5648 263,-223.5648 178,-223.5648"/>
<polygon fill="#f5f5f5" stroke="transparent" points="178.5,-261.0648 178.5,-284.0648 263.5,-284.0648 263.5,-261.0648 178.5,-261.0648"/>
<polygon fill="none" stroke="#000000" points="178.5,-261.0648 178.5,-284.0648 263.5,-284.0648 263.5,-261.0648 178.5,-261.0648"/>
<text text-anchor="start" x="183.5" y="-269.6648" font-family="Helvetica,sans-Serif" font-weight="bold" font-size="11.00" fill="#000000">patients</text>
<text text-anchor="start" x="229.0219" y="-269.1648" font-family="Helvetica,sans-Serif" font-size="11.00" fill="#000000">[table]</text>
<polygon fill="none" stroke="#000000" points="178.5,-242.0648 178.5,-261.0648 263.5,-261.0648 263.5,-242.0648 178.5,-242.0648"/>
<text text-anchor="start" x="181.5" y="-248.1648" font-family="Helvetica,sans-Serif" font-size="11.00" fill="#000000">...</text>
<polygon fill="#ffffff" stroke="transparent" points="178.5,-223.0648 178.5,-242.0648 201.5,-242.0648 201.5,-223.0648 178.5,-223.0648"/>
<polygon fill="none" stroke="#000000" points="178.5,-223.0648 178.5,-242.0648 201.5,-242.0648 201.5,-223.0648 178.5,-223.0648"/>
<text text-anchor="start" x="181.5" y="-229.1648" font-family="Helvetica,sans-Serif" font-size="11.00" fill="#000000">&lt; 2</text>
<polygon fill="#ffffff" stroke="transparent" points="201.5,-223.0648 201.5,-242.0648 240.5,-242.0648 240.5,-223.0648 201.5,-223.0648"/>
<polygon fill="none" stroke="#000000" points="201.5,-223.0648 201.5,-242.0648 240.5,-242.0648 240.5,-223.0648 201.5,-223.0648"/>
<text text-anchor="start" x="205.1105" y="-229.1648" font-family="Helvetica,sans-Serif" font-size="11.00" fill="#000000">0 rows</text>
<polygon fill="#ffffff" stroke="transparent" points="240.5,-223.0648 240.5,-242.0648 263.5,-242.0648 263.5,-223.0648 240.5,-223.0648"/>
<polygon fill="none" stroke="#000000" points="240.5,-223.0648 240.5,-242.0648 263.5,-242.0648 263.5,-223.0648 240.5,-223.0648"/>
<text text-anchor="start" x="244.9053" y="-229.1648" font-family="Helvetica,sans-Serif" font-size="11.00" fill="#000000">5 &gt;</text>
</a>
</g>
</g>
<!-- chats&#45;&gt;patients -->
<g id="edge1" class="edge">
<title>chats:w&#45;&gt;patients:e</title>
<path fill="none" stroke="#000000" d="M299.4578,-254.0648C290.0632,-254.0648 280.5131,-254.0648 271.4525,-254.0648"/>
<polygon fill="#000000" stroke="#000000" points="306,-254.0649 314,-257.6648 310,-254.0649 314,-254.0648 314,-254.0648 314,-254.0648 310,-254.0649 314,-250.4648 306,-254.0649 306,-254.0649"/>
<ellipse fill="none" stroke="#000000" cx="302.8" cy="-254.0649" rx="3.2" ry="3.2"/>
</g>
<!-- cid -->
<g id="node7" class="node">
<title>cid</title>
<g id="a_node7"><a xlink:href="../../tables/cid.html" xlink:title="cid" target="_top">
<polygon fill="#ffffff" stroke="transparent" points="25.5,-267.5648 25.5,-328.5648 111.5,-328.5648 111.5,-267.5648 25.5,-267.5648"/>
<polygon fill="#f5f5f5" stroke="transparent" points="25.5,-305.0648 25.5,-328.0648 111.5,-328.0648 111.5,-305.0648 25.5,-305.0648"/>
<polygon fill="none" stroke="#000000" points="25.5,-305.0648 25.5,-328.0648 111.5,-328.0648 111.5,-305.0648 25.5,-305.0648"/>
<text text-anchor="start" x="29.9721" y="-313.6648" font-family="Helvetica,sans-Serif" font-weight="bold" font-size="11.00" fill="#000000">cid</text>
<text text-anchor="start" x="76.5437" y="-313.1648" font-family="Helvetica,sans-Serif" font-size="11.00" fill="#000000">[table]</text>
<polygon fill="none" stroke="#000000" points="25.5,-286.0648 25.5,-305.0648 111.5,-305.0648 111.5,-286.0648 25.5,-286.0648"/>
<text text-anchor="start" x="28.5" y="-292.1648" font-family="Helvetica,sans-Serif" font-size="11.00" fill="#000000">...</text>
<polygon fill="#ffffff" stroke="transparent" points="25.5,-267.0648 25.5,-286.0648 46.5,-286.0648 46.5,-267.0648 25.5,-267.0648"/>
<polygon fill="none" stroke="#000000" points="25.5,-267.0648 25.5,-286.0648 46.5,-286.0648 46.5,-267.0648 25.5,-267.0648"/>
<text text-anchor="start" x="28.2027" y="-273.1648" font-family="Helvetica,sans-Serif" font-size="11.00" fill="#000000">&lt; 1</text>
<polygon fill="#ffffff" stroke="transparent" points="46.5,-267.0648 46.5,-286.0648 90.5,-286.0648 90.5,-267.0648 46.5,-267.0648"/>
<polygon fill="none" stroke="#000000" points="46.5,-267.0648 46.5,-286.0648 90.5,-286.0648 90.5,-267.0648 46.5,-267.0648"/>
<text text-anchor="start" x="49.2478" y="-273.1648" font-family="Helvetica,sans-Serif" font-size="11.00" fill="#000000">88 rows</text>
<polygon fill="#ffffff" stroke="transparent" points="90.5,-267.0648 90.5,-286.0648 111.5,-286.0648 111.5,-267.0648 90.5,-267.0648"/>
<polygon fill="none" stroke="#000000" points="90.5,-267.0648 90.5,-286.0648 111.5,-286.0648 111.5,-267.0648 90.5,-267.0648"/>
<text text-anchor="start" x="93.2027" y="-273.1648" font-family="Helvetica,sans-Serif" font-size="11.00" fill="#000000">1 &gt;</text>
</a>
</g>
</g>
<!-- patients&#45;&gt;cid -->
<g id="edge8" class="edge">
<title>patients:w&#45;&gt;cid:e</title>
<path fill="none" stroke="#000000" d="M155.9524,-286.8664C141.6726,-291.6851 126.3603,-295.0648 111.5,-295.0648"/>
<polygon fill="#000000" stroke="#000000" points="162.3461,-284.459 171.1016,-285.009 166.0896,-283.0494 169.833,-281.6399 169.833,-281.6399 169.833,-281.6399 166.0896,-283.0494 168.5644,-278.2708 162.3461,-284.459 162.3461,-284.459"/>
<ellipse fill="none" stroke="#000000" cx="159.3514" cy="-285.5866" rx="3.2" ry="3.2"/>
</g>
<!-- SequelizeMeta -->
<g id="node8" class="node">
<title>SequelizeMeta</title>
<g id="a_node8"><a xlink:href="../../tables/SequelizeMeta.html" xlink:title="SequelizeMeta" target="_top">
<polygon fill="#ffffff" stroke="transparent" points="8,-185.5648 8,-246.5648 129,-246.5648 129,-185.5648 8,-185.5648"/>
<polygon fill="#f5f5f5" stroke="transparent" points="8.5,-223.0648 8.5,-246.0648 129.5,-246.0648 129.5,-223.0648 8.5,-223.0648"/>
<polygon fill="none" stroke="#000000" points="8.5,-223.0648 8.5,-246.0648 129.5,-246.0648 129.5,-223.0648 8.5,-223.0648"/>
<text text-anchor="start" x="13.5" y="-231.6648" font-family="Helvetica,sans-Serif" font-weight="bold" font-size="11.00" fill="#000000">SequelizeMeta</text>
<text text-anchor="start" x="95.0219" y="-231.1648" font-family="Helvetica,sans-Serif" font-size="11.00" fill="#000000">[table]</text>
<polygon fill="none" stroke="#000000" points="8.5,-204.0648 8.5,-223.0648 129.5,-223.0648 129.5,-204.0648 8.5,-204.0648"/>
<text text-anchor="start" x="11.5" y="-210.1648" font-family="Helvetica,sans-Serif" font-size="11.00" fill="#000000">...</text>
<polygon fill="#ffffff" stroke="transparent" points="8.5,-185.0648 8.5,-204.0648 42.5,-204.0648 42.5,-185.0648 8.5,-185.0648"/>
<polygon fill="none" stroke="#000000" points="8.5,-185.0648 8.5,-204.0648 42.5,-204.0648 42.5,-185.0648 8.5,-185.0648"/>
<text text-anchor="start" x="11.5" y="-191.1648" font-family="Helvetica,sans-Serif" font-size="11.00" fill="#000000"> &#160;</text>
<polygon fill="#ffffff" stroke="transparent" points="42.5,-185.0648 42.5,-204.0648 97.5,-204.0648 97.5,-185.0648 42.5,-185.0648"/>
<polygon fill="none" stroke="#000000" points="42.5,-185.0648 42.5,-204.0648 97.5,-204.0648 97.5,-185.0648 42.5,-185.0648"/>
<text text-anchor="start" x="55.9956" y="-191.1648" font-family="Helvetica,sans-Serif" font-size="11.00" fill="#000000">17 rows</text>
<polygon fill="#ffffff" stroke="transparent" points="97.5,-185.0648 97.5,-204.0648 129.5,-204.0648 129.5,-185.0648 97.5,-185.0648"/>
<polygon fill="none" stroke="#000000" points="97.5,-185.0648 97.5,-204.0648 129.5,-204.0648 129.5,-185.0648 97.5,-185.0648"/>
<text text-anchor="start" x="110.9053" y="-191.1648" font-family="Helvetica,sans-Serif" font-size="11.00" fill="#000000">1 &gt;</text>
</a>
</g>
</g>
<!-- patients&#45;&gt;SequelizeMeta -->
<g id="edge9" class="edge">
<title>patients:w&#45;&gt;SequelizeMeta:e</title>
<path fill="none" stroke="#000000" stroke-dasharray="5,2" d="M156.0117,-217.3329C147.3445,-214.7065 138.3766,-213.0648 129.5,-213.0648"/>
<polygon fill="#000000" stroke="#000000" points="162.268,-219.6208 168.5449,-225.7494 166.0247,-220.9946 169.7814,-222.3684 169.7814,-222.3684 169.7814,-222.3684 166.0247,-220.9946 171.0178,-218.9874 162.268,-219.6208 162.268,-219.6208"/>
<ellipse fill="none" stroke="#000000" cx="159.2626" cy="-218.5217" rx="3.2" ry="3.2"/>
</g>
<!-- device -->
<g id="node3" class="node">
<title>device</title>
<g id="a_node3"><a xlink:href="../../tables/device.html" xlink:title="device" target="_top">
<polygon fill="#ffffff" stroke="transparent" points="362,-360.5648 362,-421.5648 438,-421.5648 438,-360.5648 362,-360.5648"/>
<polygon fill="#f5f5f5" stroke="transparent" points="362,-398.0648 362,-421.0648 438,-421.0648 438,-398.0648 362,-398.0648"/>
<polygon fill="none" stroke="#000000" points="362,-398.0648 362,-421.0648 438,-421.0648 438,-398.0648 362,-398.0648"/>
<text text-anchor="start" x="367" y="-406.6648" font-family="Helvetica,sans-Serif" font-weight="bold" font-size="11.00" fill="#000000">device</text>
<text text-anchor="start" x="403.5219" y="-406.1648" font-family="Helvetica,sans-Serif" font-size="11.00" fill="#000000">[table]</text>
<polygon fill="none" stroke="#000000" points="362,-379.0648 362,-398.0648 438,-398.0648 438,-379.0648 362,-379.0648"/>
<text text-anchor="start" x="365" y="-385.1648" font-family="Helvetica,sans-Serif" font-size="11.00" fill="#000000">...</text>
<polygon fill="#ffffff" stroke="transparent" points="362,-360.0648 362,-379.0648 385,-379.0648 385,-360.0648 362,-360.0648"/>
<polygon fill="none" stroke="#000000" points="362,-360.0648 362,-379.0648 385,-379.0648 385,-360.0648 362,-360.0648"/>
<text text-anchor="start" x="365" y="-366.1648" font-family="Helvetica,sans-Serif" font-size="11.00" fill="#000000">&lt; 1</text>
<polygon fill="#ffffff" stroke="transparent" points="385,-360.0648 385,-379.0648 424,-379.0648 424,-360.0648 385,-360.0648"/>
<polygon fill="none" stroke="#000000" points="385,-360.0648 385,-379.0648 424,-379.0648 424,-360.0648 385,-360.0648"/>
<text text-anchor="start" x="388.6105" y="-366.1648" font-family="Helvetica,sans-Serif" font-size="11.00" fill="#000000">0 rows</text>
<polygon fill="#ffffff" stroke="transparent" points="424,-360.0648 424,-379.0648 438,-379.0648 438,-360.0648 424,-360.0648"/>
<polygon fill="none" stroke="#000000" points="424,-360.0648 424,-379.0648 438,-379.0648 438,-360.0648 424,-360.0648"/>
<text text-anchor="start" x="428.8862" y="-366.1648" font-family="Helvetica,sans-Serif" font-size="11.00" fill="#000000"> &#160;</text>
</a>
</g>
</g>
<!-- device&#45;&gt;patients -->
<g id="edge2" class="edge">
<title>device:w&#45;&gt;patients:e</title>
<path fill="none" stroke="#000000" d="M347.4023,-386.7909C296.7897,-377.937 258.5002,-324.8644 237.8051,-288.5732"/>
<polygon fill="#000000" stroke="#000000" points="354.0303,-387.3693 361.687,-391.6512 358.0151,-387.717 362,-388.0648 362,-388.0648 362,-388.0648 358.0151,-387.717 362.313,-384.4785 354.0303,-387.3693 354.0303,-387.3693"/>
<ellipse fill="none" stroke="#000000" cx="350.8424" cy="-387.091" rx="3.2" ry="3.2"/>
</g>
<!-- message_notifications -->
<g id="node4" class="node">
<title>message_notifications</title>
<g id="a_node4"><a xlink:href="../../tables/message_notifications.html" xlink:title="message_notifications" target="_top">
<polygon fill="#ffffff" stroke="transparent" points="685,-271.5648 685,-332.5648 853,-332.5648 853,-271.5648 685,-271.5648"/>
<polygon fill="#f5f5f5" stroke="transparent" points="685,-309.0648 685,-332.0648 853,-332.0648 853,-309.0648 685,-309.0648"/>
<polygon fill="none" stroke="#000000" points="685,-309.0648 685,-332.0648 853,-332.0648 853,-309.0648 685,-309.0648"/>
<text text-anchor="start" x="690" y="-317.6648" font-family="Helvetica,sans-Serif" font-weight="bold" font-size="11.00" fill="#000000">message_notifications</text>
<text text-anchor="start" x="818.5219" y="-317.1648" font-family="Helvetica,sans-Serif" font-size="11.00" fill="#000000">[table]</text>
<polygon fill="none" stroke="#000000" points="685,-290.0648 685,-309.0648 853,-309.0648 853,-290.0648 685,-290.0648"/>
<text text-anchor="start" x="688" y="-296.1648" font-family="Helvetica,sans-Serif" font-size="11.00" fill="#000000">...</text>
<polygon fill="#ffffff" stroke="transparent" points="685,-271.0648 685,-290.0648 754,-290.0648 754,-271.0648 685,-271.0648"/>
<polygon fill="none" stroke="#000000" points="685,-271.0648 685,-290.0648 754,-290.0648 754,-271.0648 685,-271.0648"/>
<text text-anchor="start" x="688" y="-277.1648" font-family="Helvetica,sans-Serif" font-size="11.00" fill="#000000">&lt; 2</text>
<polygon fill="#ffffff" stroke="transparent" points="754,-271.0648 754,-290.0648 816,-290.0648 816,-271.0648 754,-271.0648"/>
<polygon fill="none" stroke="#000000" points="754,-271.0648 754,-290.0648 816,-290.0648 816,-271.0648 754,-271.0648"/>
<text text-anchor="start" x="780.6105" y="-277.1648" font-family="Helvetica,sans-Serif" font-size="11.00" fill="#000000">0 rows</text>
<polygon fill="#ffffff" stroke="transparent" points="816,-271.0648 816,-290.0648 853,-290.0648 853,-271.0648 816,-271.0648"/>
<polygon fill="none" stroke="#000000" points="816,-271.0648 816,-290.0648 853,-290.0648 853,-271.0648 816,-271.0648"/>
<text text-anchor="start" x="843.8862" y="-277.1648" font-family="Helvetica,sans-Serif" font-size="11.00" fill="#000000"> &#160;</text>
</a>
</g>
</g>
<!-- message_notifications&#45;&gt;patients -->
<g id="edge4" class="edge">
<title>message_notifications:w&#45;&gt;patients:e</title>
<path fill="none" stroke="#000000" d="M670.3858,-299.269C512.2104,-303.7169 458.9767,-378.8118 304,-323.0648 284.3579,-315.9994 266.0509,-302.0887 251.614,-288.5973"/>
<polygon fill="#000000" stroke="#000000" points="677.0008,-299.1766 685.0503,-302.6645 681.0004,-299.1207 685,-299.0648 685,-299.0648 685,-299.0648 681.0004,-299.1207 684.9497,-295.4652 677.0008,-299.1766 677.0008,-299.1766"/>
<ellipse fill="none" stroke="#000000" cx="673.8011" cy="-299.2213" rx="3.2" ry="3.2"/>
</g>
<!-- messages -->
<g id="node5" class="node">
<title>messages</title>
<g id="a_node5"><a xlink:href="../../tables/messages.html" xlink:title="messages" target="_top">
<polygon fill="#ffffff" stroke="transparent" points="538,-195.5648 538,-256.5648 635,-256.5648 635,-195.5648 538,-195.5648"/>
<polygon fill="#f5f5f5" stroke="transparent" points="538.5,-233.0648 538.5,-256.0648 635.5,-256.0648 635.5,-233.0648 538.5,-233.0648"/>
<polygon fill="none" stroke="#000000" points="538.5,-233.0648 538.5,-256.0648 635.5,-256.0648 635.5,-233.0648 538.5,-233.0648"/>
<text text-anchor="start" x="543.5" y="-241.6648" font-family="Helvetica,sans-Serif" font-weight="bold" font-size="11.00" fill="#000000">messages</text>
<text text-anchor="start" x="601.0219" y="-241.1648" font-family="Helvetica,sans-Serif" font-size="11.00" fill="#000000">[table]</text>
<polygon fill="none" stroke="#000000" points="538.5,-214.0648 538.5,-233.0648 635.5,-233.0648 635.5,-214.0648 538.5,-214.0648"/>
<text text-anchor="start" x="541.5" y="-220.1648" font-family="Helvetica,sans-Serif" font-size="11.00" fill="#000000">...</text>
<polygon fill="#ffffff" stroke="transparent" points="538.5,-195.0648 538.5,-214.0648 567.5,-214.0648 567.5,-195.0648 538.5,-195.0648"/>
<polygon fill="none" stroke="#000000" points="538.5,-195.0648 538.5,-214.0648 567.5,-214.0648 567.5,-195.0648 538.5,-195.0648"/>
<text text-anchor="start" x="541.5" y="-201.1648" font-family="Helvetica,sans-Serif" font-size="11.00" fill="#000000">&lt; 3</text>
<polygon fill="#ffffff" stroke="transparent" points="567.5,-195.0648 567.5,-214.0648 609.5,-214.0648 609.5,-195.0648 567.5,-195.0648"/>
<polygon fill="none" stroke="#000000" points="567.5,-195.0648 567.5,-214.0648 609.5,-214.0648 609.5,-195.0648 567.5,-195.0648"/>
<text text-anchor="start" x="574.1105" y="-201.1648" font-family="Helvetica,sans-Serif" font-size="11.00" fill="#000000">0 rows</text>
<polygon fill="#ffffff" stroke="transparent" points="609.5,-195.0648 609.5,-214.0648 635.5,-214.0648 635.5,-195.0648 609.5,-195.0648"/>
<polygon fill="none" stroke="#000000" points="609.5,-195.0648 609.5,-214.0648 635.5,-214.0648 635.5,-195.0648 609.5,-195.0648"/>
<text text-anchor="start" x="616.9053" y="-201.1648" font-family="Helvetica,sans-Serif" font-size="11.00" fill="#000000">1 &gt;</text>
</a>
</g>
</g>
<!-- message_notifications&#45;&gt;messages -->
<g id="edge3" class="edge">
<title>message_notifications:w&#45;&gt;messages:e</title>
<path fill="none" stroke="#000000" d="M670.4668,-297.3744C648.2337,-292.2603 628.4423,-276.3514 613.6664,-260.8545"/>
<polygon fill="#000000" stroke="#000000" points="677.0536,-298.1405 684.5841,-302.6407 681.0268,-298.6027 685,-299.0648 685,-299.0648 685,-299.0648 681.0268,-298.6027 685.4159,-295.4889 677.0536,-298.1405 677.0536,-298.1405"/>
<ellipse fill="none" stroke="#000000" cx="673.875" cy="-297.7708" rx="3.2" ry="3.2"/>
</g>
<!-- messages&#45;&gt;chats -->
<g id="edge5" class="edge">
<title>messages:w&#45;&gt;chats:e</title>
<path fill="none" stroke="#000000" d="M525.7095,-267.0337C513.1017,-272.3904 499.5244,-276.0648 486,-276.0648"/>
<polygon fill="#000000" stroke="#000000" points="531.7529,-264.1249 540.5227,-263.899 535.3571,-262.39 538.9613,-260.6552 538.9613,-260.6552 538.9613,-260.6552 535.3571,-262.39 537.4,-257.4114 531.7529,-264.1249 531.7529,-264.1249"/>
<ellipse fill="none" stroke="#000000" cx="528.8695" cy="-265.5128" rx="3.2" ry="3.2"/>
</g>
<!-- messages&#45;&gt;patients -->
<g id="edge6" class="edge">
<title>messages:w&#45;&gt;patients:e</title>
<path fill="none" stroke="#000000" d="M613.5878,-178.717C565.2878,-158.0631 353.2339,-147.2448 304,-168.0648 279.2746,-178.5207 258.2653,-200.2763 243.5053,-219.2886"/>
<polygon fill="#000000" stroke="#000000" points="617.1838,-184.329 618.4689,-193.0071 619.3419,-187.6969 621.5,-191.0648 621.5,-191.0648 621.5,-191.0648 619.3419,-187.6969 624.5311,-189.1226 617.1838,-184.329 617.1838,-184.329"/>
<ellipse fill="none" stroke="#000000" cx="615.4574" cy="-181.6347" rx="3.2" ry="3.2"/>
</g>
<!-- users -->
<g id="node6" class="node">
<title>users</title>
<g id="a_node6"><a xlink:href="../../tables/users.html" xlink:title="users" target="_top">
<polygon fill="#ffffff" stroke="transparent" points="364.5,-68.5648 364.5,-129.5648 435.5,-129.5648 435.5,-68.5648 364.5,-68.5648"/>
<polygon fill="#f5f5f5" stroke="transparent" points="365,-106.0648 365,-129.0648 436,-129.0648 436,-106.0648 365,-106.0648"/>
<polygon fill="none" stroke="#000000" points="365,-106.0648 365,-129.0648 436,-129.0648 436,-106.0648 365,-106.0648"/>
<text text-anchor="start" x="370" y="-114.6648" font-family="Helvetica,sans-Serif" font-weight="bold" font-size="11.00" fill="#000000">users</text>
<text text-anchor="start" x="401.5219" y="-114.1648" font-family="Helvetica,sans-Serif" font-size="11.00" fill="#000000">[table]</text>
<polygon fill="none" stroke="#000000" points="365,-87.0648 365,-106.0648 436,-106.0648 436,-87.0648 365,-87.0648"/>
<text text-anchor="start" x="368" y="-93.1648" font-family="Helvetica,sans-Serif" font-size="11.00" fill="#000000">...</text>
<polygon fill="#ffffff" stroke="transparent" points="365,-68.0648 365,-87.0648 377,-87.0648 377,-68.0648 365,-68.0648"/>
<polygon fill="none" stroke="#000000" points="365,-68.0648 365,-87.0648 377,-87.0648 377,-68.0648 365,-68.0648"/>
<text text-anchor="start" x="367.9431" y="-74.1648" font-family="Helvetica,sans-Serif" font-size="11.00" fill="#000000"> &#160;</text>
<polygon fill="#ffffff" stroke="transparent" points="377,-68.0648 377,-87.0648 415,-87.0648 415,-68.0648 377,-68.0648"/>
<polygon fill="none" stroke="#000000" points="377,-68.0648 377,-87.0648 415,-87.0648 415,-68.0648 377,-68.0648"/>
<text text-anchor="start" x="379.8053" y="-74.1648" font-family="Helvetica,sans-Serif" font-size="11.00" fill="#000000">0 rows</text>
<polygon fill="#ffffff" stroke="transparent" points="415,-68.0648 415,-87.0648 436,-87.0648 436,-68.0648 415,-68.0648"/>
<polygon fill="none" stroke="#000000" points="415,-68.0648 415,-87.0648 436,-87.0648 436,-68.0648 415,-68.0648"/>
<text text-anchor="start" x="417.7027" y="-74.1648" font-family="Helvetica,sans-Serif" font-size="11.00" fill="#000000">4 &gt;</text>
</a>
</g>
</g>
<!-- messages&#45;&gt;users -->
<g id="edge7" class="edge">
<title>messages:w&#45;&gt;users:e</title>
<path fill="none" stroke="#000000" d="M624.4908,-176.6703C610.7943,-142.8787 476.1626,-96.0648 436,-96.0648"/>
<polygon fill="#000000" stroke="#000000" points="623.1274,-183.2321 617.9753,-190.3325 622.3137,-187.1485 621.5,-191.0648 621.5,-191.0648 621.5,-191.0648 622.3137,-187.1485 625.0247,-191.7972 623.1274,-183.2321 623.1274,-183.2321"/>
<ellipse fill="none" stroke="#000000" cx="623.7784" cy="-180.099" rx="3.2" ry="3.2"/>
</g>
<!-- responses -->
<g id="node9" class="node">
<title>responses</title>
<g id="a_node9"><a xlink:href="../../tables/responses.html" xlink:title="responses" target="_top">
<polygon fill="#ffffff" stroke="transparent" points="537,-42.5648 537,-103.5648 636,-103.5648 636,-42.5648 537,-42.5648"/>
<polygon fill="#f5f5f5" stroke="transparent" points="537.5,-80.0648 537.5,-103.0648 636.5,-103.0648 636.5,-80.0648 537.5,-80.0648"/>
<polygon fill="none" stroke="#000000" points="537.5,-80.0648 537.5,-103.0648 636.5,-103.0648 636.5,-80.0648 537.5,-80.0648"/>
<text text-anchor="start" x="542.5" y="-88.6648" font-family="Helvetica,sans-Serif" font-weight="bold" font-size="11.00" fill="#000000">responses</text>
<text text-anchor="start" x="602.0219" y="-88.1648" font-family="Helvetica,sans-Serif" font-size="11.00" fill="#000000">[table]</text>
<polygon fill="none" stroke="#000000" points="537.5,-61.0648 537.5,-80.0648 636.5,-80.0648 636.5,-61.0648 537.5,-61.0648"/>
<text text-anchor="start" x="540.5" y="-67.1648" font-family="Helvetica,sans-Serif" font-size="11.00" fill="#000000">...</text>
<polygon fill="#ffffff" stroke="transparent" points="537.5,-42.0648 537.5,-61.0648 567.5,-61.0648 567.5,-42.0648 537.5,-42.0648"/>
<polygon fill="none" stroke="#000000" points="537.5,-42.0648 537.5,-61.0648 567.5,-61.0648 567.5,-42.0648 537.5,-42.0648"/>
<text text-anchor="start" x="540.5" y="-48.1648" font-family="Helvetica,sans-Serif" font-size="11.00" fill="#000000">&lt; 3</text>
<polygon fill="#ffffff" stroke="transparent" points="567.5,-42.0648 567.5,-61.0648 610.5,-61.0648 610.5,-42.0648 567.5,-42.0648"/>
<polygon fill="none" stroke="#000000" points="567.5,-42.0648 567.5,-61.0648 610.5,-61.0648 610.5,-42.0648 567.5,-42.0648"/>
<text text-anchor="start" x="575.1105" y="-48.1648" font-family="Helvetica,sans-Serif" font-size="11.00" fill="#000000">0 rows</text>
<polygon fill="#ffffff" stroke="transparent" points="610.5,-42.0648 610.5,-61.0648 636.5,-61.0648 636.5,-42.0648 610.5,-42.0648"/>
<polygon fill="none" stroke="#000000" points="610.5,-42.0648 610.5,-61.0648 636.5,-61.0648 636.5,-42.0648 610.5,-42.0648"/>
<text text-anchor="start" x="617.9053" y="-48.1648" font-family="Helvetica,sans-Serif" font-size="11.00" fill="#000000">1 &gt;</text>
</a>
</g>
</g>
<!-- responses&#45;&gt;patients -->
<g id="edge11" class="edge">
<title>responses:w&#45;&gt;patients:e</title>
<path fill="none" stroke="#000000" d="M523.1959,-67.8241C514.7087,-64.894 509.0695,-59.9165 496,-58.0648 411.5104,-46.0947 375.1891,-11.0128 304,-58.0648 249.5386,-94.0608 230.483,-173.5894 223.8999,-219.5128"/>
<polygon fill="#000000" stroke="#000000" points="529.5964,-68.8267 536.9428,-73.6215 533.5482,-69.4458 537.5,-70.0648 537.5,-70.0648 537.5,-70.0648 533.5482,-69.4458 538.0572,-66.5082 529.5964,-68.8267 529.5964,-68.8267"/>
<ellipse fill="none" stroke="#000000" cx="526.4349" cy="-68.3314" rx="3.2" ry="3.2"/>
</g>
<!-- responses&#45;&gt;users -->
<g id="edge10" class="edge">
<title>responses:w&#45;&gt;users:e</title>
<path fill="none" stroke="#000000" d="M523.0339,-70.9902C488.547,-75.6218 477.2924,-96.0648 436,-96.0648"/>
<polygon fill="#000000" stroke="#000000" points="529.5163,-70.5756 537.7298,-73.6575 533.5082,-70.3202 537.5,-70.0648 537.5,-70.0648 537.5,-70.0648 533.5082,-70.3202 537.2702,-66.4722 529.5163,-70.5756 529.5163,-70.5756"/>
<ellipse fill="none" stroke="#000000" cx="526.3228" cy="-70.7799" rx="3.2" ry="3.2"/>
</g>
</g>
</svg>
