<?xml version="1.0" encoding="UTF-8" standalone="no"?>
<!DOCTYPE svg PUBLIC "-//W3C//DTD SVG 1.1//EN"
 "http://www.w3.org/Graphics/SVG/1.1/DTD/svg11.dtd">
<!-- Generated by graphviz version 2.40.1 (20161225.0304)
 -->
<!-- Title: oneDegreeRelationshipsDiagram Pages: 1 -->
<svg width="545pt" height="273pt"
 viewBox="0.00 0.00 545.00 272.70" xmlns="http://www.w3.org/2000/svg" xmlns:xlink="http://www.w3.org/1999/xlink">
<g id="graph0" class="graph" transform="scale(1 1) rotate(0) translate(4 268.7)">
<title>oneDegreeRelationshipsDiagram</title>
<polygon fill="#ffffff" stroke="transparent" points="-4,4 -4,-268.7 541,-268.7 541,4 -4,4"/>
<text text-anchor="middle" x="72.4936" y="-7.3" font-family="Helvetica,sans-Serif" font-size="11.00" fill="#000000">Generated by SchemaSpy</text>
<!-- chats -->
<g id="node1" class="node">
<title>chats</title>
<g id="a_node1"><a xlink:href="../../tables/chats.html" xlink:title="chats" target="_top">
<polygon fill="#ffffff" stroke="transparent" points="181,-126.7 181,-260.7 357,-260.7 357,-126.7 181,-126.7"/>
<polygon fill="#f5f5f5" stroke="transparent" points="183,-235.7 183,-258.7 355,-258.7 355,-235.7 183,-235.7"/>
<polygon fill="none" stroke="#000000" points="183,-235.7 183,-258.7 355,-258.7 355,-235.7 183,-235.7"/>
<text text-anchor="start" x="188" y="-244.3" font-family="Helvetica,sans-Serif" font-weight="bold" font-size="11.00" fill="#000000">chats</text>
<text text-anchor="start" x="320.0437" y="-243.8" font-family="Helvetica,sans-Serif" font-size="11.00" fill="#000000">[table]</text>
<polygon fill="none" stroke="#000000" points="183,-213.7 183,-235.7 263,-235.7 263,-213.7 183,-213.7"/>
<image xlink:href="../../images/primaryKeys.png" width="11px" height="12px" preserveAspectRatio="xMinYMin meet" x="188" y="-230.7"/>
<text text-anchor="start" x="203" y="-220.8" font-family="Helvetica,sans-Serif" font-size="11.00" fill="#000000">id_chat</text>
<polygon fill="none" stroke="#000000" points="263,-213.7 263,-235.7 355,-235.7 355,-213.7 263,-213.7"/>
<text text-anchor="start" x="266" y="-221.4" font-family="Helvetica,sans-Serif" font-size="11.00" fill="#000000">serial[10]</text>
<polygon fill="none" stroke="#000000" points="183,-191.7 183,-213.7 263,-213.7 263,-191.7 183,-191.7"/>
<image xlink:href="../../images/foreignKeys.png" width="11px" height="12px" preserveAspectRatio="xMinYMin meet" x="188" y="-208.7"/>
<text text-anchor="start" x="203" y="-198.8" font-family="Helvetica,sans-Serif" font-size="11.00" fill="#000000">patient_id</text>
<polygon fill="none" stroke="#000000" points="263,-191.7 263,-213.7 355,-213.7 355,-191.7 263,-191.7"/>
<text text-anchor="start" x="266" y="-199.4" font-family="Helvetica,sans-Serif" font-size="11.00" fill="#000000">int4[10]</text>
<polygon fill="none" stroke="#000000" points="183,-169.7 183,-191.7 263,-191.7 263,-169.7 183,-169.7"/>
<text text-anchor="start" x="203" y="-176.8" font-family="Helvetica,sans-Serif" font-size="11.00" fill="#000000">createdAt</text>
<polygon fill="none" stroke="#000000" points="263,-169.7 263,-191.7 355,-191.7 355,-169.7 263,-169.7"/>
<text text-anchor="start" x="265.6023" y="-177.4" font-family="Helvetica,sans-Serif" font-size="11.00" fill="#000000">timestamptz[35,6]</text>
<polygon fill="none" stroke="#000000" points="183,-147.7 183,-169.7 263,-169.7 263,-147.7 183,-147.7"/>
<text text-anchor="start" x="203" y="-154.8" font-family="Helvetica,sans-Serif" font-size="11.00" fill="#000000">updatedAt</text>
<polygon fill="none" stroke="#000000" points="263,-147.7 263,-169.7 355,-169.7 355,-147.7 263,-147.7"/>
<text text-anchor="start" x="265.6023" y="-155.4" font-family="Helvetica,sans-Serif" font-size="11.00" fill="#000000">timestamptz[35,6]</text>
<polygon fill="#ffffff" stroke="transparent" points="183,-128.7 183,-147.7 214,-147.7 214,-128.7 183,-128.7"/>
<polygon fill="none" stroke="#000000" points="183,-128.7 183,-147.7 214,-147.7 214,-128.7 183,-128.7"/>
<text text-anchor="start" x="186" y="-134.8" font-family="Helvetica,sans-Serif" font-size="11.00" fill="#000000">&lt; 1</text>
<polygon fill="#ffffff" stroke="transparent" points="214,-128.7 214,-147.7 263,-147.7 263,-128.7 214,-128.7"/>
<polygon fill="none" stroke="#000000" points="214,-128.7 214,-147.7 263,-147.7 263,-128.7 214,-128.7"/>
<text text-anchor="start" x="227.6105" y="-134.8" font-family="Helvetica,sans-Serif" font-size="11.00" fill="#000000">0 rows</text>
<polygon fill="#ffffff" stroke="transparent" points="263,-128.7 263,-147.7 355,-147.7 355,-128.7 263,-128.7"/>
<polygon fill="none" stroke="#000000" points="263,-128.7 263,-147.7 355,-147.7 355,-128.7 263,-128.7"/>
<text text-anchor="start" x="336.4053" y="-134.8" font-family="Helvetica,sans-Serif" font-size="11.00" fill="#000000">1 &gt;</text>
<polygon fill="none" stroke="#000000" stroke-width="2" points="182,-127.7 182,-259.7 356,-259.7 356,-127.7 182,-127.7"/>
</a>
</g>
</g>
<!-- patients -->
<g id="node2" class="node">
<title>patients</title>
<g id="a_node2"><a xlink:href="../../tables/patients.html" xlink:title="patients" target="_top">
<polygon fill="#ffffff" stroke="transparent" points="8,-38.2 8,-187.2 132,-187.2 132,-38.2 8,-38.2"/>
<polygon fill="#f5f5f5" stroke="transparent" points="8,-163.7 8,-186.7 132,-186.7 132,-163.7 8,-163.7"/>
<polygon fill="none" stroke="#000000" points="8,-163.7 8,-186.7 132,-186.7 132,-163.7 8,-163.7"/>
<text text-anchor="start" x="13" y="-172.3" font-family="Helvetica,sans-Serif" font-weight="bold" font-size="11.00" fill="#000000">patients</text>
<text text-anchor="start" x="97.0437" y="-171.8" font-family="Helvetica,sans-Serif" font-size="11.00" fill="#000000">[table]</text>
<polygon fill="none" stroke="#000000" points="8,-141.7 8,-163.7 132,-163.7 132,-141.7 8,-141.7"/>
<image xlink:href="../../images/primaryKeys.png" width="11px" height="12px" preserveAspectRatio="xMinYMin meet" x="13" y="-158.7"/>
<text text-anchor="start" x="28" y="-148.8" font-family="Helvetica,sans-Serif" font-size="11.00" fill="#000000">id_patient</text>
<polygon fill="#ffffff" stroke="transparent" points="8,-119.7 8,-141.7 132,-141.7 132,-119.7 8,-119.7"/>
<polygon fill="none" stroke="#000000" points="8,-119.7 8,-141.7 132,-141.7 132,-119.7 8,-119.7"/>
<text text-anchor="start" x="28" y="-126.8" font-family="Helvetica,sans-Serif" font-size="11.00" fill="#000000">service_id</text>
<polygon fill="none" stroke="#000000" points="8,-97.7 8,-119.7 132,-119.7 132,-97.7 8,-97.7"/>
<image xlink:href="../../images/foreignKeys.png" width="11px" height="12px" preserveAspectRatio="xMinYMin meet" x="13" y="-114.7"/>
<text text-anchor="start" x="28" y="-104.8" font-family="Helvetica,sans-Serif" font-size="11.00" fill="#000000">name</text>
<polygon fill="none" stroke="#000000" points="8,-75.7 8,-97.7 132,-97.7 132,-75.7 8,-75.7"/>
<image xlink:href="../../images/foreignKeys.png" width="11px" height="12px" preserveAspectRatio="xMinYMin meet" x="13" y="-92.7"/>
<text text-anchor="start" x="28" y="-82.8" font-family="Helvetica,sans-Serif" font-size="11.00" fill="#000000">id_cid</text>
<polygon fill="none" stroke="#000000" points="8,-56.7 8,-75.7 132,-75.7 132,-56.7 8,-56.7"/>
<text text-anchor="start" x="11" y="-62.8" font-family="Helvetica,sans-Serif" font-size="11.00" fill="#000000">...</text>
<polygon fill="#ffffff" stroke="transparent" points="8,-37.7 8,-56.7 51,-56.7 51,-37.7 8,-37.7"/>
<polygon fill="none" stroke="#000000" points="8,-37.7 8,-56.7 51,-56.7 51,-37.7 8,-37.7"/>
<text text-anchor="start" x="11" y="-43.8" font-family="Helvetica,sans-Serif" font-size="11.00" fill="#000000">&lt; 1</text>
<polygon fill="#ffffff" stroke="transparent" points="51,-37.7 51,-56.7 100,-56.7 100,-37.7 51,-37.7"/>
<polygon fill="none" stroke="#000000" points="51,-37.7 51,-56.7 100,-56.7 100,-37.7 51,-37.7"/>
<text text-anchor="start" x="64.6105" y="-43.8" font-family="Helvetica,sans-Serif" font-size="11.00" fill="#000000">0 rows</text>
<polygon fill="#ffffff" stroke="transparent" points="100,-37.7 100,-56.7 132,-56.7 132,-37.7 100,-37.7"/>
<polygon fill="none" stroke="#000000" points="100,-37.7 100,-56.7 132,-56.7 132,-37.7 100,-37.7"/>
<text text-anchor="start" x="113.4053" y="-43.8" font-family="Helvetica,sans-Serif" font-size="11.00" fill="#000000">5 &gt;</text>
</a>
</g>
</g>
<!-- chats&#45;&gt;patients -->
<g id="edge1" class="edge">
<title>chats:w&#45;&gt;patients:e</title>
<path fill="none" stroke="#000000" d="M169.2263,-198.0857C154.3844,-185.7078 157.791,-152.7 132,-152.7"/>
<polygon fill="#000000" stroke="#000000" points="175.4143,-200.1587 181.8564,-206.1135 179.2072,-201.4294 183,-202.7 183,-202.7 183,-202.7 179.2072,-201.4294 184.1436,-199.2865 175.4143,-200.1587 175.4143,-200.1587"/>
<ellipse fill="none" stroke="#000000" cx="172.3801" cy="-199.1422" rx="3.2" ry="3.2"/>
</g>
<!-- messages -->
<g id="node3" class="node">
<title>messages</title>
<g id="a_node3"><a xlink:href="../../tables/messages.html" xlink:title="messages" target="_top">
<polygon fill="#ffffff" stroke="transparent" points="406,-82.2 406,-231.2 529,-231.2 529,-82.2 406,-82.2"/>
<polygon fill="#f5f5f5" stroke="transparent" points="406.5,-207.7 406.5,-230.7 529.5,-230.7 529.5,-207.7 406.5,-207.7"/>
<polygon fill="none" stroke="#000000" points="406.5,-207.7 406.5,-230.7 529.5,-230.7 529.5,-207.7 406.5,-207.7"/>
<text text-anchor="start" x="411.5" y="-216.3" font-family="Helvetica,sans-Serif" font-weight="bold" font-size="11.00" fill="#000000">messages</text>
<text text-anchor="start" x="494.5437" y="-215.8" font-family="Helvetica,sans-Serif" font-size="11.00" fill="#000000">[table]</text>
<polygon fill="none" stroke="#000000" points="406.5,-185.7 406.5,-207.7 529.5,-207.7 529.5,-185.7 406.5,-185.7"/>
<image xlink:href="../../images/primaryKeys.png" width="11px" height="12px" preserveAspectRatio="xMinYMin meet" x="411.5" y="-202.7"/>
<text text-anchor="start" x="426.5" y="-192.8" font-family="Helvetica,sans-Serif" font-size="11.00" fill="#000000">id_message</text>
<polygon fill="none" stroke="#000000" points="406.5,-163.7 406.5,-185.7 529.5,-185.7 529.5,-163.7 406.5,-163.7"/>
<image xlink:href="../../images/foreignKeys.png" width="11px" height="12px" preserveAspectRatio="xMinYMin meet" x="411.5" y="-180.7"/>
<text text-anchor="start" x="426.5" y="-170.8" font-family="Helvetica,sans-Serif" font-size="11.00" fill="#000000">chat_id</text>
<polygon fill="none" stroke="#000000" points="406.5,-141.7 406.5,-163.7 529.5,-163.7 529.5,-141.7 406.5,-141.7"/>
<image xlink:href="../../images/foreignKeys.png" width="11px" height="12px" preserveAspectRatio="xMinYMin meet" x="411.5" y="-158.7"/>
<text text-anchor="start" x="426.5" y="-148.8" font-family="Helvetica,sans-Serif" font-size="11.00" fill="#000000">sender_patient_id</text>
<polygon fill="none" stroke="#000000" points="406.5,-119.7 406.5,-141.7 529.5,-141.7 529.5,-119.7 406.5,-119.7"/>
<image xlink:href="../../images/foreignKeys.png" width="11px" height="12px" preserveAspectRatio="xMinYMin meet" x="411.5" y="-136.7"/>
<text text-anchor="start" x="426.5" y="-126.8" font-family="Helvetica,sans-Serif" font-size="11.00" fill="#000000">sender_staff_id</text>
<polygon fill="none" stroke="#000000" points="406.5,-100.7 406.5,-119.7 529.5,-119.7 529.5,-100.7 406.5,-100.7"/>
<text text-anchor="start" x="409.5" y="-106.8" font-family="Helvetica,sans-Serif" font-size="11.00" fill="#000000">...</text>
<polygon fill="#ffffff" stroke="transparent" points="406.5,-81.7 406.5,-100.7 448.5,-100.7 448.5,-81.7 406.5,-81.7"/>
<polygon fill="none" stroke="#000000" points="406.5,-81.7 406.5,-100.7 448.5,-100.7 448.5,-81.7 406.5,-81.7"/>
<text text-anchor="start" x="409.5" y="-87.8" font-family="Helvetica,sans-Serif" font-size="11.00" fill="#000000">&lt; 3</text>
<polygon fill="#ffffff" stroke="transparent" points="448.5,-81.7 448.5,-100.7 497.5,-100.7 497.5,-81.7 448.5,-81.7"/>
<polygon fill="none" stroke="#000000" points="448.5,-81.7 448.5,-100.7 497.5,-100.7 497.5,-81.7 448.5,-81.7"/>
<text text-anchor="start" x="462.1105" y="-87.8" font-family="Helvetica,sans-Serif" font-size="11.00" fill="#000000">0 rows</text>
<polygon fill="#ffffff" stroke="transparent" points="497.5,-81.7 497.5,-100.7 529.5,-100.7 529.5,-81.7 497.5,-81.7"/>
<polygon fill="none" stroke="#000000" points="497.5,-81.7 497.5,-100.7 529.5,-100.7 529.5,-81.7 497.5,-81.7"/>
<text text-anchor="start" x="510.9053" y="-87.8" font-family="Helvetica,sans-Serif" font-size="11.00" fill="#000000">1 &gt;</text>
</a>
</g>
</g>
<!-- messages&#45;&gt;chats -->
<g id="edge2" class="edge">
<title>messages:w&#45;&gt;chats:e</title>
<path fill="none" stroke="#000000" d="M392.6347,-179.3143C377.6579,-191.6922 380.9203,-224.7 355,-224.7"/>
<polygon fill="#000000" stroke="#000000" points="398.9093,-177.2262 407.6368,-178.1158 402.7046,-175.9631 406.5,-174.7 406.5,-174.7 406.5,-174.7 402.7046,-175.9631 405.3632,-171.2842 398.9093,-177.2262 398.9093,-177.2262"/>
<ellipse fill="none" stroke="#000000" cx="395.873" cy="-178.2366" rx="3.2" ry="3.2"/>
</g>
<!-- messages&#45;&gt;patients -->
<g id="edge3" class="edge">
<title>messages:w&#45;&gt;patients:e</title>
<path fill="none" stroke="#000000" d="M392.6298,-148.0191C383.1641,-139.7982 381.9778,-123.0377 365,-116.7 285.0552,-86.857 252.8549,-86.6171 173,-116.7 150.3071,-125.2488 156.2497,-152.7 132,-152.7"/>
<polygon fill="#000000" stroke="#000000" points="398.92,-150.1419 405.3488,-156.111 402.71,-151.4209 406.5,-152.7 406.5,-152.7 406.5,-152.7 402.71,-151.4209 407.6512,-149.289 398.92,-150.1419 398.92,-150.1419"/>
<ellipse fill="none" stroke="#000000" cx="395.888" cy="-149.1186" rx="3.2" ry="3.2"/>
</g>
</g>
</svg>
