<?xml version="1.0" encoding="UTF-8" standalone="no"?>
<!DOCTYPE svg PUBLIC "-//W3C//DTD SVG 1.1//EN"
 "http://www.w3.org/Graphics/SVG/1.1/DTD/svg11.dtd">
<!-- Generated by graphviz version 2.40.1 (20161225.0304)
 -->
<!-- Title: twoDegreesRelationshipsDiagramImplied Pages: 1 -->
<svg width="1057pt" height="433pt"
 viewBox="0.00 0.00 1057.00 432.70" xmlns="http://www.w3.org/2000/svg" xmlns:xlink="http://www.w3.org/1999/xlink">
<g id="graph0" class="graph" transform="scale(1 1) rotate(0) translate(4 428.7)">
<title>twoDegreesRelationshipsDiagramImplied</title>
<polygon fill="#ffffff" stroke="transparent" points="-4,4 -4,-428.7 1053,-428.7 1053,4 -4,4"/>
<text text-anchor="middle" x="72.4936" y="-7.3" font-family="Helvetica,sans-Serif" font-size="11.00" fill="#000000">Generated by SchemaSpy</text>
<!-- chats -->
<g id="node1" class="node">
<title>chats</title>
<g id="a_node1"><a xlink:href="../../tables/chats.html" xlink:title="chats" target="_top">
<polygon fill="#ffffff" stroke="transparent" points="588.5,-249.7 588.5,-310.7 668.5,-310.7 668.5,-249.7 588.5,-249.7"/>
<polygon fill="#f5f5f5" stroke="transparent" points="588.5,-287.2 588.5,-310.2 668.5,-310.2 668.5,-287.2 588.5,-287.2"/>
<polygon fill="none" stroke="#000000" points="588.5,-287.2 588.5,-310.2 668.5,-310.2 668.5,-287.2 588.5,-287.2"/>
<text text-anchor="start" x="593.5" y="-295.8" font-family="Helvetica,sans-Serif" font-weight="bold" font-size="11.00" fill="#000000">chats</text>
<text text-anchor="start" x="633.5437" y="-295.3" font-family="Helvetica,sans-Serif" font-size="11.00" fill="#000000">[table]</text>
<polygon fill="none" stroke="#000000" points="588.5,-268.2 588.5,-287.2 668.5,-287.2 668.5,-268.2 588.5,-268.2"/>
<text text-anchor="start" x="591.5" y="-274.3" font-family="Helvetica,sans-Serif" font-size="11.00" fill="#000000">...</text>
<polygon fill="#ffffff" stroke="transparent" points="588.5,-249.2 588.5,-268.2 609.5,-268.2 609.5,-249.2 588.5,-249.2"/>
<polygon fill="none" stroke="#000000" points="588.5,-249.2 588.5,-268.2 609.5,-268.2 609.5,-249.2 588.5,-249.2"/>
<text text-anchor="start" x="591.2026" y="-255.3" font-family="Helvetica,sans-Serif" font-size="11.00" fill="#000000">&lt; 1</text>
<polygon fill="#ffffff" stroke="transparent" points="609.5,-249.2 609.5,-268.2 647.5,-268.2 647.5,-249.2 609.5,-249.2"/>
<polygon fill="none" stroke="#000000" points="609.5,-249.2 609.5,-268.2 647.5,-268.2 647.5,-249.2 609.5,-249.2"/>
<text text-anchor="start" x="612.3053" y="-255.3" font-family="Helvetica,sans-Serif" font-size="11.00" fill="#000000">0 rows</text>
<polygon fill="#ffffff" stroke="transparent" points="647.5,-249.2 647.5,-268.2 668.5,-268.2 668.5,-249.2 647.5,-249.2"/>
<polygon fill="none" stroke="#000000" points="647.5,-249.2 647.5,-268.2 668.5,-268.2 668.5,-249.2 647.5,-249.2"/>
<text text-anchor="start" x="650.2026" y="-255.3" font-family="Helvetica,sans-Serif" font-size="11.00" fill="#000000">1 &gt;</text>
</a>
</g>
</g>
<!-- patients -->
<g id="node2" class="node">
<title>patients</title>
<g id="a_node2"><a xlink:href="../../tables/patients.html" xlink:title="patients" target="_top">
<polygon fill="#ffffff" stroke="transparent" points="406,-162.7 406,-311.7 530,-311.7 530,-162.7 406,-162.7"/>
<polygon fill="#f5f5f5" stroke="transparent" points="406,-288.2 406,-311.2 530,-311.2 530,-288.2 406,-288.2"/>
<polygon fill="none" stroke="#000000" points="406,-288.2 406,-311.2 530,-311.2 530,-288.2 406,-288.2"/>
<text text-anchor="start" x="411" y="-296.8" font-family="Helvetica,sans-Serif" font-weight="bold" font-size="11.00" fill="#000000">patients</text>
<text text-anchor="start" x="495.0437" y="-296.3" font-family="Helvetica,sans-Serif" font-size="11.00" fill="#000000">[table]</text>
<polygon fill="none" stroke="#000000" points="406,-266.2 406,-288.2 530,-288.2 530,-266.2 406,-266.2"/>
<image xlink:href="../../images/primaryKeys.png" width="11px" height="12px" preserveAspectRatio="xMinYMin meet" x="411" y="-283.2"/>
<text text-anchor="start" x="426" y="-273.3" font-family="Helvetica,sans-Serif" font-size="11.00" fill="#000000">id_patient</text>
<polygon fill="#ffffff" stroke="transparent" points="406,-244.2 406,-266.2 530,-266.2 530,-244.2 406,-244.2"/>
<polygon fill="none" stroke="#000000" points="406,-244.2 406,-266.2 530,-266.2 530,-244.2 406,-244.2"/>
<text text-anchor="start" x="426" y="-251.3" font-family="Helvetica,sans-Serif" font-size="11.00" fill="#000000">service_id</text>
<polygon fill="none" stroke="#000000" points="406,-222.2 406,-244.2 530,-244.2 530,-222.2 406,-222.2"/>
<image xlink:href="../../images/foreignKeys.png" width="11px" height="12px" preserveAspectRatio="xMinYMin meet" x="411" y="-239.2"/>
<text text-anchor="start" x="426" y="-229.3" font-family="Helvetica,sans-Serif" font-size="11.00" fill="#000000">name</text>
<polygon fill="none" stroke="#000000" points="406,-200.2 406,-222.2 530,-222.2 530,-200.2 406,-200.2"/>
<image xlink:href="../../images/foreignKeys.png" width="11px" height="12px" preserveAspectRatio="xMinYMin meet" x="411" y="-217.2"/>
<text text-anchor="start" x="426" y="-207.3" font-family="Helvetica,sans-Serif" font-size="11.00" fill="#000000">id_cid</text>
<polygon fill="none" stroke="#000000" points="406,-181.2 406,-200.2 530,-200.2 530,-181.2 406,-181.2"/>
<text text-anchor="start" x="409" y="-187.3" font-family="Helvetica,sans-Serif" font-size="11.00" fill="#000000">...</text>
<polygon fill="#ffffff" stroke="transparent" points="406,-162.2 406,-181.2 449,-181.2 449,-162.2 406,-162.2"/>
<polygon fill="none" stroke="#000000" points="406,-162.2 406,-181.2 449,-181.2 449,-162.2 406,-162.2"/>
<text text-anchor="start" x="409" y="-168.3" font-family="Helvetica,sans-Serif" font-size="11.00" fill="#000000">&lt; 2</text>
<polygon fill="#ffffff" stroke="transparent" points="449,-162.2 449,-181.2 498,-181.2 498,-162.2 449,-162.2"/>
<polygon fill="none" stroke="#000000" points="449,-162.2 449,-181.2 498,-181.2 498,-162.2 449,-162.2"/>
<text text-anchor="start" x="462.6105" y="-168.3" font-family="Helvetica,sans-Serif" font-size="11.00" fill="#000000">0 rows</text>
<polygon fill="#ffffff" stroke="transparent" points="498,-162.2 498,-181.2 530,-181.2 530,-162.2 498,-162.2"/>
<polygon fill="none" stroke="#000000" points="498,-162.2 498,-181.2 530,-181.2 530,-162.2 498,-162.2"/>
<text text-anchor="start" x="511.4053" y="-168.3" font-family="Helvetica,sans-Serif" font-size="11.00" fill="#000000">5 &gt;</text>
</a>
</g>
</g>
<!-- chats&#45;&gt;patients -->
<g id="edge1" class="edge">
<title>chats:w&#45;&gt;patients:e</title>
<path fill="none" stroke="#000000" d="M573.8286,-277.2C558.7231,-277.2 550.3125,-277.2 530,-277.2"/>
<polygon fill="#000000" stroke="#000000" points="580.5,-277.2001 588.5,-280.8 584.5,-277.2 588.5,-277.2 588.5,-277.2 588.5,-277.2 584.5,-277.2 588.5,-273.6 580.5,-277.2001 580.5,-277.2001"/>
<ellipse fill="none" stroke="#000000" cx="577.3" cy="-277.2001" rx="3.2" ry="3.2"/>
</g>
<!-- cid -->
<g id="node3" class="node">
<title>cid</title>
<g id="a_node3"><a xlink:href="../../tables/cid.html" xlink:title="cid" target="_top">
<polygon fill="#ffffff" stroke="transparent" points="176,-38.2 176,-216.2 357,-216.2 357,-38.2 176,-38.2"/>
<polygon fill="#f5f5f5" stroke="transparent" points="178.5,-191.2 178.5,-214.2 355.5,-214.2 355.5,-191.2 178.5,-191.2"/>
<polygon fill="none" stroke="#000000" points="178.5,-191.2 178.5,-214.2 355.5,-214.2 355.5,-191.2 178.5,-191.2"/>
<text text-anchor="start" x="182.9721" y="-199.8" font-family="Helvetica,sans-Serif" font-weight="bold" font-size="11.00" fill="#000000">cid</text>
<text text-anchor="start" x="320.5437" y="-199.3" font-family="Helvetica,sans-Serif" font-size="11.00" fill="#000000">[table]</text>
<polygon fill="none" stroke="#000000" points="178.5,-169.2 178.5,-191.2 263.5,-191.2 263.5,-169.2 178.5,-169.2"/>
<image xlink:href="../../images/primaryKeys.png" width="11px" height="12px" preserveAspectRatio="xMinYMin meet" x="183.5" y="-186.2"/>
<text text-anchor="start" x="198.5" y="-176.3" font-family="Helvetica,sans-Serif" font-size="11.00" fill="#000000">id_cid</text>
<polygon fill="none" stroke="#000000" points="263.5,-169.2 263.5,-191.2 355.5,-191.2 355.5,-169.2 263.5,-169.2"/>
<text text-anchor="start" x="266.5" y="-176.9" font-family="Helvetica,sans-Serif" font-size="11.00" fill="#000000">serial[10]</text>
<polygon fill="#ffffff" stroke="transparent" points="178.5,-147.2 178.5,-169.2 263.5,-169.2 263.5,-147.2 178.5,-147.2"/>
<polygon fill="none" stroke="#000000" points="178.5,-147.2 178.5,-169.2 263.5,-169.2 263.5,-147.2 178.5,-147.2"/>
<text text-anchor="start" x="198.5" y="-154.3" font-family="Helvetica,sans-Serif" font-size="11.00" fill="#000000">cid_code</text>
<polygon fill="none" stroke="#000000" points="263.5,-147.2 263.5,-169.2 355.5,-169.2 355.5,-147.2 263.5,-147.2"/>
<text text-anchor="start" x="266.5" y="-154.9" font-family="Helvetica,sans-Serif" font-size="11.00" fill="#000000">varchar[10]</text>
<polygon fill="none" stroke="#000000" points="178.5,-125.2 178.5,-147.2 263.5,-147.2 263.5,-125.2 178.5,-125.2"/>
<text text-anchor="start" x="198.5" y="-132.3" font-family="Helvetica,sans-Serif" font-size="11.00" fill="#000000">description</text>
<polygon fill="none" stroke="#000000" points="263.5,-125.2 263.5,-147.2 355.5,-147.2 355.5,-125.2 263.5,-125.2"/>
<text text-anchor="start" x="266.5" y="-132.9" font-family="Helvetica,sans-Serif" font-size="11.00" fill="#000000">varchar[255]</text>
<polygon fill="none" stroke="#000000" points="178.5,-103.2 178.5,-125.2 263.5,-125.2 263.5,-103.2 178.5,-103.2"/>
<image xlink:href="../../images/foreignKeys.png" width="11px" height="12px" preserveAspectRatio="xMinYMin meet" x="183.5" y="-120.2"/>
<text text-anchor="start" x="198.5" y="-110.3" font-family="Helvetica,sans-Serif" font-size="11.00" fill="#000000">id_label</text>
<polygon fill="none" stroke="#000000" points="263.5,-103.2 263.5,-125.2 355.5,-125.2 355.5,-103.2 263.5,-103.2"/>
<text text-anchor="start" x="266.5" y="-110.9" font-family="Helvetica,sans-Serif" font-size="11.00" fill="#000000">int4[10]</text>
<polygon fill="none" stroke="#000000" points="178.5,-81.2 178.5,-103.2 263.5,-103.2 263.5,-81.2 178.5,-81.2"/>
<text text-anchor="start" x="198.5" y="-88.3" font-family="Helvetica,sans-Serif" font-size="11.00" fill="#000000">createdAt</text>
<polygon fill="none" stroke="#000000" points="263.5,-81.2 263.5,-103.2 355.5,-103.2 355.5,-81.2 263.5,-81.2"/>
<text text-anchor="start" x="266.1023" y="-88.9" font-family="Helvetica,sans-Serif" font-size="11.00" fill="#000000">timestamptz[35,6]</text>
<polygon fill="none" stroke="#000000" points="178.5,-59.2 178.5,-81.2 263.5,-81.2 263.5,-59.2 178.5,-59.2"/>
<text text-anchor="start" x="198.5" y="-66.3" font-family="Helvetica,sans-Serif" font-size="11.00" fill="#000000">updatedAt</text>
<polygon fill="none" stroke="#000000" points="263.5,-59.2 263.5,-81.2 355.5,-81.2 355.5,-59.2 263.5,-59.2"/>
<text text-anchor="start" x="266.1023" y="-66.9" font-family="Helvetica,sans-Serif" font-size="11.00" fill="#000000">timestamptz[35,6]</text>
<polygon fill="#ffffff" stroke="transparent" points="178.5,-40.2 178.5,-59.2 209.5,-59.2 209.5,-40.2 178.5,-40.2"/>
<polygon fill="none" stroke="#000000" points="178.5,-40.2 178.5,-59.2 209.5,-59.2 209.5,-40.2 178.5,-40.2"/>
<text text-anchor="start" x="181.5" y="-46.3" font-family="Helvetica,sans-Serif" font-size="11.00" fill="#000000">&lt; 1</text>
<polygon fill="#ffffff" stroke="transparent" points="209.5,-40.2 209.5,-59.2 263.5,-59.2 263.5,-40.2 209.5,-40.2"/>
<polygon fill="none" stroke="#000000" points="209.5,-40.2 209.5,-59.2 263.5,-59.2 263.5,-40.2 209.5,-40.2"/>
<text text-anchor="start" x="221.9956" y="-46.3" font-family="Helvetica,sans-Serif" font-size="11.00" fill="#000000">88 rows</text>
<polygon fill="#ffffff" stroke="transparent" points="263.5,-40.2 263.5,-59.2 355.5,-59.2 355.5,-40.2 263.5,-40.2"/>
<polygon fill="none" stroke="#000000" points="263.5,-40.2 263.5,-59.2 355.5,-59.2 355.5,-40.2 263.5,-40.2"/>
<text text-anchor="start" x="336.9053" y="-46.3" font-family="Helvetica,sans-Serif" font-size="11.00" fill="#000000">1 &gt;</text>
<polygon fill="none" stroke="#000000" stroke-width="2" points="177,-39.2 177,-215.2 356,-215.2 356,-39.2 177,-39.2"/>
</a>
</g>
</g>
<!-- patients&#45;&gt;cid -->
<g id="edge8" class="edge">
<title>patients:w&#45;&gt;cid:e</title>
<path fill="none" stroke="#000000" d="M391.8267,-207.1473C379.1849,-198.7444 375.8692,-180.2 355.5,-180.2"/>
<polygon fill="#000000" stroke="#000000" points="398.3083,-209.0006 405.0103,-214.6613 402.1541,-210.1003 406,-211.2 406,-211.2 406,-211.2 402.1541,-210.1003 406.9897,-207.7387 398.3083,-209.0006 398.3083,-209.0006"/>
<ellipse fill="none" stroke="#000000" cx="395.2316" cy="-208.1208" rx="3.2" ry="3.2"/>
</g>
<!-- SequelizeMeta -->
<g id="node8" class="node">
<title>SequelizeMeta</title>
<g id="a_node8"><a xlink:href="../../tables/SequelizeMeta.html" xlink:title="SequelizeMeta" target="_top">
<polygon fill="#ffffff" stroke="transparent" points="206,-237.7 206,-298.7 327,-298.7 327,-237.7 206,-237.7"/>
<polygon fill="#f5f5f5" stroke="transparent" points="206.5,-275.2 206.5,-298.2 327.5,-298.2 327.5,-275.2 206.5,-275.2"/>
<polygon fill="none" stroke="#000000" points="206.5,-275.2 206.5,-298.2 327.5,-298.2 327.5,-275.2 206.5,-275.2"/>
<text text-anchor="start" x="211.5" y="-283.8" font-family="Helvetica,sans-Serif" font-weight="bold" font-size="11.00" fill="#000000">SequelizeMeta</text>
<text text-anchor="start" x="293.0219" y="-283.3" font-family="Helvetica,sans-Serif" font-size="11.00" fill="#000000">[table]</text>
<polygon fill="none" stroke="#000000" points="206.5,-256.2 206.5,-275.2 327.5,-275.2 327.5,-256.2 206.5,-256.2"/>
<text text-anchor="start" x="209.5" y="-262.3" font-family="Helvetica,sans-Serif" font-size="11.00" fill="#000000">...</text>
<polygon fill="#ffffff" stroke="transparent" points="206.5,-237.2 206.5,-256.2 240.5,-256.2 240.5,-237.2 206.5,-237.2"/>
<polygon fill="none" stroke="#000000" points="206.5,-237.2 206.5,-256.2 240.5,-256.2 240.5,-237.2 206.5,-237.2"/>
<text text-anchor="start" x="209.5" y="-243.3" font-family="Helvetica,sans-Serif" font-size="11.00" fill="#000000"> &#160;</text>
<polygon fill="#ffffff" stroke="transparent" points="240.5,-237.2 240.5,-256.2 295.5,-256.2 295.5,-237.2 240.5,-237.2"/>
<polygon fill="none" stroke="#000000" points="240.5,-237.2 240.5,-256.2 295.5,-256.2 295.5,-237.2 240.5,-237.2"/>
<text text-anchor="start" x="253.9956" y="-243.3" font-family="Helvetica,sans-Serif" font-size="11.00" fill="#000000">17 rows</text>
<polygon fill="#ffffff" stroke="transparent" points="295.5,-237.2 295.5,-256.2 327.5,-256.2 327.5,-237.2 295.5,-237.2"/>
<polygon fill="none" stroke="#000000" points="295.5,-237.2 295.5,-256.2 327.5,-256.2 327.5,-237.2 295.5,-237.2"/>
<text text-anchor="start" x="308.9053" y="-243.3" font-family="Helvetica,sans-Serif" font-size="11.00" fill="#000000">1 &gt;</text>
</a>
</g>
</g>
<!-- patients&#45;&gt;SequelizeMeta -->
<g id="edge9" class="edge">
<title>patients:w&#45;&gt;SequelizeMeta:e</title>
<path fill="none" stroke="#000000" stroke-dasharray="5,2" d="M391.6191,-235.0121C366.6926,-241.7815 359.7309,-265.2 327.5,-265.2"/>
<polygon fill="#000000" stroke="#000000" points="398.0628,-234.2002 406.4501,-236.7718 402.0314,-233.7001 406,-233.2 406,-233.2 406,-233.2 402.0314,-233.7001 405.5499,-229.6282 398.0628,-234.2002 398.0628,-234.2002"/>
<ellipse fill="none" stroke="#000000" cx="394.8879" cy="-234.6003" rx="3.2" ry="3.2"/>
</g>
<!-- patient_labels -->
<g id="node4" class="node">
<title>patient_labels</title>
<g id="a_node4"><a xlink:href="../../tables/patient_labels.html" xlink:title="patient_labels" target="_top">
<polygon fill="#ffffff" stroke="transparent" points="8,-65.7 8,-148.7 127,-148.7 127,-65.7 8,-65.7"/>
<polygon fill="#f5f5f5" stroke="transparent" points="8.5,-125.2 8.5,-148.2 127.5,-148.2 127.5,-125.2 8.5,-125.2"/>
<polygon fill="none" stroke="#000000" points="8.5,-125.2 8.5,-148.2 127.5,-148.2 127.5,-125.2 8.5,-125.2"/>
<text text-anchor="start" x="13.5" y="-133.8" font-family="Helvetica,sans-Serif" font-weight="bold" font-size="11.00" fill="#000000">patient_labels</text>
<text text-anchor="start" x="93.0219" y="-133.3" font-family="Helvetica,sans-Serif" font-size="11.00" fill="#000000">[table]</text>
<polygon fill="none" stroke="#000000" points="8.5,-103.2 8.5,-125.2 127.5,-125.2 127.5,-103.2 8.5,-103.2"/>
<image xlink:href="../../images/primaryKeys.png" width="11px" height="12px" preserveAspectRatio="xMinYMin meet" x="13.5" y="-120.2"/>
<text text-anchor="start" x="32.5" y="-110.3" font-family="Helvetica,sans-Serif" font-size="11.00" fill="#000000">id_patient_label</text>
<polygon fill="none" stroke="#000000" points="8.5,-84.2 8.5,-103.2 127.5,-103.2 127.5,-84.2 8.5,-84.2"/>
<text text-anchor="start" x="11.5" y="-90.3" font-family="Helvetica,sans-Serif" font-size="11.00" fill="#000000">...</text>
<polygon fill="#ffffff" stroke="transparent" points="8.5,-65.2 8.5,-84.2 44.5,-84.2 44.5,-65.2 8.5,-65.2"/>
<polygon fill="none" stroke="#000000" points="8.5,-65.2 8.5,-84.2 44.5,-84.2 44.5,-65.2 8.5,-65.2"/>
<text text-anchor="start" x="11.5" y="-71.3" font-family="Helvetica,sans-Serif" font-size="11.00" fill="#000000"> &#160;</text>
<polygon fill="#ffffff" stroke="transparent" points="44.5,-65.2 44.5,-84.2 94.5,-84.2 94.5,-65.2 44.5,-65.2"/>
<polygon fill="none" stroke="#000000" points="44.5,-65.2 44.5,-84.2 94.5,-84.2 94.5,-65.2 44.5,-65.2"/>
<text text-anchor="start" x="59.1105" y="-71.3" font-family="Helvetica,sans-Serif" font-size="11.00" fill="#000000">0 rows</text>
<polygon fill="#ffffff" stroke="transparent" points="94.5,-65.2 94.5,-84.2 127.5,-84.2 127.5,-65.2 94.5,-65.2"/>
<polygon fill="none" stroke="#000000" points="94.5,-65.2 94.5,-84.2 127.5,-84.2 127.5,-65.2 94.5,-65.2"/>
<text text-anchor="start" x="108.9053" y="-71.3" font-family="Helvetica,sans-Serif" font-size="11.00" fill="#000000">1 &gt;</text>
</a>
</g>
</g>
<!-- cid&#45;&gt;patient_labels -->
<g id="edge2" class="edge">
<title>cid:w&#45;&gt;patient_labels:e</title>
<path fill="none" stroke="#000000" d="M163.776,-114.2C151.7815,-114.2 144.3229,-114.2 127.5,-114.2"/>
<polygon fill="#000000" stroke="#000000" points="170.5,-114.2001 178.5,-117.8 174.5,-114.2 178.5,-114.2 178.5,-114.2 178.5,-114.2 174.5,-114.2 178.5,-110.6 170.5,-114.2001 170.5,-114.2001"/>
<ellipse fill="none" stroke="#000000" cx="167.3" cy="-114.2001" rx="3.2" ry="3.2"/>
</g>
<!-- device -->
<g id="node5" class="node">
<title>device</title>
<g id="a_node5"><a xlink:href="../../tables/device.html" xlink:title="device" target="_top">
<polygon fill="#ffffff" stroke="transparent" points="590.5,-359.7 590.5,-420.7 666.5,-420.7 666.5,-359.7 590.5,-359.7"/>
<polygon fill="#f5f5f5" stroke="transparent" points="590.5,-397.2 590.5,-420.2 666.5,-420.2 666.5,-397.2 590.5,-397.2"/>
<polygon fill="none" stroke="#000000" points="590.5,-397.2 590.5,-420.2 666.5,-420.2 666.5,-397.2 590.5,-397.2"/>
<text text-anchor="start" x="595.5" y="-405.8" font-family="Helvetica,sans-Serif" font-weight="bold" font-size="11.00" fill="#000000">device</text>
<text text-anchor="start" x="632.0219" y="-405.3" font-family="Helvetica,sans-Serif" font-size="11.00" fill="#000000">[table]</text>
<polygon fill="none" stroke="#000000" points="590.5,-378.2 590.5,-397.2 666.5,-397.2 666.5,-378.2 590.5,-378.2"/>
<text text-anchor="start" x="593.5" y="-384.3" font-family="Helvetica,sans-Serif" font-size="11.00" fill="#000000">...</text>
<polygon fill="#ffffff" stroke="transparent" points="590.5,-359.2 590.5,-378.2 613.5,-378.2 613.5,-359.2 590.5,-359.2"/>
<polygon fill="none" stroke="#000000" points="590.5,-359.2 590.5,-378.2 613.5,-378.2 613.5,-359.2 590.5,-359.2"/>
<text text-anchor="start" x="593.5" y="-365.3" font-family="Helvetica,sans-Serif" font-size="11.00" fill="#000000">&lt; 1</text>
<polygon fill="#ffffff" stroke="transparent" points="613.5,-359.2 613.5,-378.2 652.5,-378.2 652.5,-359.2 613.5,-359.2"/>
<polygon fill="none" stroke="#000000" points="613.5,-359.2 613.5,-378.2 652.5,-378.2 652.5,-359.2 613.5,-359.2"/>
<text text-anchor="start" x="617.1105" y="-365.3" font-family="Helvetica,sans-Serif" font-size="11.00" fill="#000000">0 rows</text>
<polygon fill="#ffffff" stroke="transparent" points="652.5,-359.2 652.5,-378.2 666.5,-378.2 666.5,-359.2 652.5,-359.2"/>
<polygon fill="none" stroke="#000000" points="652.5,-359.2 652.5,-378.2 666.5,-378.2 666.5,-359.2 652.5,-359.2"/>
<text text-anchor="start" x="657.3862" y="-365.3" font-family="Helvetica,sans-Serif" font-size="11.00" fill="#000000"> &#160;</text>
</a>
</g>
</g>
<!-- device&#45;&gt;patients -->
<g id="edge3" class="edge">
<title>device:w&#45;&gt;patients:e</title>
<path fill="none" stroke="#000000" d="M576.1621,-383.7873C544.2926,-365.2205 579.9108,-277.2 530,-277.2"/>
<polygon fill="#000000" stroke="#000000" points="582.7174,-385.3476 589.6664,-390.7022 586.6087,-386.2738 590.5,-387.2 590.5,-387.2 590.5,-387.2 586.6087,-386.2738 591.3336,-383.6978 582.7174,-385.3476 582.7174,-385.3476"/>
<ellipse fill="none" stroke="#000000" cx="579.6044" cy="-384.6066" rx="3.2" ry="3.2"/>
</g>
<!-- message_notifications -->
<g id="node6" class="node">
<title>message_notifications</title>
<g id="a_node6"><a xlink:href="../../tables/message_notifications.html" xlink:title="message_notifications" target="_top">
<polygon fill="#ffffff" stroke="transparent" points="873,-278.7 873,-339.7 1041,-339.7 1041,-278.7 873,-278.7"/>
<polygon fill="#f5f5f5" stroke="transparent" points="873,-316.2 873,-339.2 1041,-339.2 1041,-316.2 873,-316.2"/>
<polygon fill="none" stroke="#000000" points="873,-316.2 873,-339.2 1041,-339.2 1041,-316.2 873,-316.2"/>
<text text-anchor="start" x="878" y="-324.8" font-family="Helvetica,sans-Serif" font-weight="bold" font-size="11.00" fill="#000000">message_notifications</text>
<text text-anchor="start" x="1006.5219" y="-324.3" font-family="Helvetica,sans-Serif" font-size="11.00" fill="#000000">[table]</text>
<polygon fill="none" stroke="#000000" points="873,-297.2 873,-316.2 1041,-316.2 1041,-297.2 873,-297.2"/>
<text text-anchor="start" x="876" y="-303.3" font-family="Helvetica,sans-Serif" font-size="11.00" fill="#000000">...</text>
<polygon fill="#ffffff" stroke="transparent" points="873,-278.2 873,-297.2 942,-297.2 942,-278.2 873,-278.2"/>
<polygon fill="none" stroke="#000000" points="873,-278.2 873,-297.2 942,-297.2 942,-278.2 873,-278.2"/>
<text text-anchor="start" x="876" y="-284.3" font-family="Helvetica,sans-Serif" font-size="11.00" fill="#000000">&lt; 2</text>
<polygon fill="#ffffff" stroke="transparent" points="942,-278.2 942,-297.2 1004,-297.2 1004,-278.2 942,-278.2"/>
<polygon fill="none" stroke="#000000" points="942,-278.2 942,-297.2 1004,-297.2 1004,-278.2 942,-278.2"/>
<text text-anchor="start" x="968.6105" y="-284.3" font-family="Helvetica,sans-Serif" font-size="11.00" fill="#000000">0 rows</text>
<polygon fill="#ffffff" stroke="transparent" points="1004,-278.2 1004,-297.2 1041,-297.2 1041,-278.2 1004,-278.2"/>
<polygon fill="none" stroke="#000000" points="1004,-278.2 1004,-297.2 1041,-297.2 1041,-278.2 1004,-278.2"/>
<text text-anchor="start" x="1031.8862" y="-284.3" font-family="Helvetica,sans-Serif" font-size="11.00" fill="#000000"> &#160;</text>
</a>
</g>
</g>
<!-- message_notifications&#45;&gt;patients -->
<g id="edge5" class="edge">
<title>message_notifications:w&#45;&gt;patients:e</title>
<path fill="none" stroke="#000000" d="M858.741,-308.9972C850.4173,-312.6556 845.1353,-318.8726 832,-321.2 717.7791,-341.4381 677.3703,-367.4747 571,-321.2 546.4894,-310.537 556.7296,-277.2 530,-277.2"/>
<polygon fill="#000000" stroke="#000000" points="865.1496,-307.74 873.693,-309.7327 869.0748,-306.97 873,-306.2 873,-306.2 873,-306.2 869.0748,-306.97 872.307,-302.6673 865.1496,-307.74 865.1496,-307.74"/>
<ellipse fill="none" stroke="#000000" cx="862.0095" cy="-308.3561" rx="3.2" ry="3.2"/>
</g>
<!-- messages -->
<g id="node7" class="node">
<title>messages</title>
<g id="a_node7"><a xlink:href="../../tables/messages.html" xlink:title="messages" target="_top">
<polygon fill="#ffffff" stroke="transparent" points="727,-249.7 727,-310.7 824,-310.7 824,-249.7 727,-249.7"/>
<polygon fill="#f5f5f5" stroke="transparent" points="727.5,-287.2 727.5,-310.2 824.5,-310.2 824.5,-287.2 727.5,-287.2"/>
<polygon fill="none" stroke="#000000" points="727.5,-287.2 727.5,-310.2 824.5,-310.2 824.5,-287.2 727.5,-287.2"/>
<text text-anchor="start" x="732.5" y="-295.8" font-family="Helvetica,sans-Serif" font-weight="bold" font-size="11.00" fill="#000000">messages</text>
<text text-anchor="start" x="790.0219" y="-295.3" font-family="Helvetica,sans-Serif" font-size="11.00" fill="#000000">[table]</text>
<polygon fill="none" stroke="#000000" points="727.5,-268.2 727.5,-287.2 824.5,-287.2 824.5,-268.2 727.5,-268.2"/>
<text text-anchor="start" x="730.5" y="-274.3" font-family="Helvetica,sans-Serif" font-size="11.00" fill="#000000">...</text>
<polygon fill="#ffffff" stroke="transparent" points="727.5,-249.2 727.5,-268.2 756.5,-268.2 756.5,-249.2 727.5,-249.2"/>
<polygon fill="none" stroke="#000000" points="727.5,-249.2 727.5,-268.2 756.5,-268.2 756.5,-249.2 727.5,-249.2"/>
<text text-anchor="start" x="730.5" y="-255.3" font-family="Helvetica,sans-Serif" font-size="11.00" fill="#000000">&lt; 3</text>
<polygon fill="#ffffff" stroke="transparent" points="756.5,-249.2 756.5,-268.2 798.5,-268.2 798.5,-249.2 756.5,-249.2"/>
<polygon fill="none" stroke="#000000" points="756.5,-249.2 756.5,-268.2 798.5,-268.2 798.5,-249.2 756.5,-249.2"/>
<text text-anchor="start" x="763.1105" y="-255.3" font-family="Helvetica,sans-Serif" font-size="11.00" fill="#000000">0 rows</text>
<polygon fill="#ffffff" stroke="transparent" points="798.5,-249.2 798.5,-268.2 824.5,-268.2 824.5,-249.2 798.5,-249.2"/>
<polygon fill="none" stroke="#000000" points="798.5,-249.2 798.5,-268.2 824.5,-268.2 824.5,-249.2 798.5,-249.2"/>
<text text-anchor="start" x="805.9053" y="-255.3" font-family="Helvetica,sans-Serif" font-size="11.00" fill="#000000">1 &gt;</text>
</a>
</g>
</g>
<!-- message_notifications&#45;&gt;messages -->
<g id="edge4" class="edge">
<title>message_notifications:w&#45;&gt;messages:e</title>
<path fill="none" stroke="#000000" d="M859.0737,-302.1677C847.2213,-294.1993 843.7287,-277.2 824.5,-277.2"/>
<polygon fill="#000000" stroke="#000000" points="865.3156,-303.975 871.9987,-309.658 869.1578,-305.0875 873,-306.2 873,-306.2 873,-306.2 869.1578,-305.0875 874.0013,-302.742 865.3156,-303.975 865.3156,-303.975"/>
<ellipse fill="none" stroke="#000000" cx="862.2419" cy="-303.085" rx="3.2" ry="3.2"/>
</g>
<!-- messages&#45;&gt;chats -->
<g id="edge6" class="edge">
<title>messages:w&#45;&gt;chats:e</title>
<path fill="none" stroke="#000000" d="M712.7032,-277.2C697.4686,-277.2 688.9861,-277.2 668.5,-277.2"/>
<polygon fill="#000000" stroke="#000000" points="719.5,-277.2001 727.5,-280.8 723.5,-277.2 727.5,-277.2 727.5,-277.2 727.5,-277.2 723.5,-277.2 727.5,-273.6 719.5,-277.2001 719.5,-277.2001"/>
<ellipse fill="none" stroke="#000000" cx="716.3" cy="-277.2001" rx="3.2" ry="3.2"/>
</g>
<!-- messages&#45;&gt;patients -->
<g id="edge7" class="edge">
<title>messages:w&#45;&gt;patients:e</title>
<path fill="none" stroke="#000000" d="M713.7431,-272.5365C704.0176,-263.9724 703.4824,-245.9949 686,-239.2 638.3607,-220.684 618.5832,-220.5403 571,-239.2 547.8697,-248.2705 554.8452,-277.2 530,-277.2"/>
<polygon fill="#000000" stroke="#000000" points="719.9235,-274.6316 726.3442,-280.6094 723.7117,-275.9158 727.5,-277.2 727.5,-277.2 727.5,-277.2 723.7117,-275.9158 728.6558,-273.7906 719.9235,-274.6316 719.9235,-274.6316"/>
<ellipse fill="none" stroke="#000000" cx="716.8929" cy="-273.6042" rx="3.2" ry="3.2"/>
</g>
<!-- responses -->
<g id="node9" class="node">
<title>responses</title>
<g id="a_node9"><a xlink:href="../../tables/responses.html" xlink:title="responses" target="_top">
<polygon fill="#ffffff" stroke="transparent" points="579,-139.7 579,-200.7 678,-200.7 678,-139.7 579,-139.7"/>
<polygon fill="#f5f5f5" stroke="transparent" points="579.5,-177.2 579.5,-200.2 678.5,-200.2 678.5,-177.2 579.5,-177.2"/>
<polygon fill="none" stroke="#000000" points="579.5,-177.2 579.5,-200.2 678.5,-200.2 678.5,-177.2 579.5,-177.2"/>
<text text-anchor="start" x="584.5" y="-185.8" font-family="Helvetica,sans-Serif" font-weight="bold" font-size="11.00" fill="#000000">responses</text>
<text text-anchor="start" x="644.0219" y="-185.3" font-family="Helvetica,sans-Serif" font-size="11.00" fill="#000000">[table]</text>
<polygon fill="none" stroke="#000000" points="579.5,-158.2 579.5,-177.2 678.5,-177.2 678.5,-158.2 579.5,-158.2"/>
<text text-anchor="start" x="582.5" y="-164.3" font-family="Helvetica,sans-Serif" font-size="11.00" fill="#000000">...</text>
<polygon fill="#ffffff" stroke="transparent" points="579.5,-139.2 579.5,-158.2 609.5,-158.2 609.5,-139.2 579.5,-139.2"/>
<polygon fill="none" stroke="#000000" points="579.5,-139.2 579.5,-158.2 609.5,-158.2 609.5,-139.2 579.5,-139.2"/>
<text text-anchor="start" x="582.5" y="-145.3" font-family="Helvetica,sans-Serif" font-size="11.00" fill="#000000">&lt; 3</text>
<polygon fill="#ffffff" stroke="transparent" points="609.5,-139.2 609.5,-158.2 652.5,-158.2 652.5,-139.2 609.5,-139.2"/>
<polygon fill="none" stroke="#000000" points="609.5,-139.2 609.5,-158.2 652.5,-158.2 652.5,-139.2 609.5,-139.2"/>
<text text-anchor="start" x="617.1105" y="-145.3" font-family="Helvetica,sans-Serif" font-size="11.00" fill="#000000">0 rows</text>
<polygon fill="#ffffff" stroke="transparent" points="652.5,-139.2 652.5,-158.2 678.5,-158.2 678.5,-139.2 652.5,-139.2"/>
<polygon fill="none" stroke="#000000" points="652.5,-139.2 652.5,-158.2 678.5,-158.2 678.5,-139.2 652.5,-139.2"/>
<text text-anchor="start" x="659.9053" y="-145.3" font-family="Helvetica,sans-Serif" font-size="11.00" fill="#000000">1 &gt;</text>
</a>
</g>
</g>
<!-- responses&#45;&gt;patients -->
<g id="edge10" class="edge">
<title>responses:w&#45;&gt;patients:e</title>
<path fill="none" stroke="#000000" d="M565.2431,-171.115C537.538,-190.7103 577.5377,-277.2 530,-277.2"/>
<polygon fill="#000000" stroke="#000000" points="571.7856,-169.3184 580.4533,-170.6715 575.6428,-168.2592 579.5,-167.2 579.5,-167.2 579.5,-167.2 575.6428,-168.2592 578.5467,-163.7285 571.7856,-169.3184 571.7856,-169.3184"/>
<ellipse fill="none" stroke="#000000" cx="568.6998" cy="-170.1658" rx="3.2" ry="3.2"/>
</g>
</g>
</svg>
