<?xml version="1.0" encoding="UTF-8" standalone="no"?>
<!DOCTYPE svg PUBLIC "-//W3C//DTD SVG 1.1//EN"
 "http://www.w3.org/Graphics/SVG/1.1/DTD/svg11.dtd">
<!-- Generated by graphviz version 2.40.1 (20161225.0304)
 -->
<!-- Title: oneDegreeRelationshipsDiagramImplied Pages: 1 -->
<svg width="407pt" height="228pt"
 viewBox="0.00 0.00 407.00 228.20" xmlns="http://www.w3.org/2000/svg" xmlns:xlink="http://www.w3.org/1999/xlink">
<g id="graph0" class="graph" transform="scale(1 1) rotate(0) translate(4 224.2)">
<title>oneDegreeRelationshipsDiagramImplied</title>
<polygon fill="#ffffff" stroke="transparent" points="-4,4 -4,-224.2 403,-224.2 403,4 -4,4"/>
<text text-anchor="middle" x="72.4936" y="-7.3" font-family="Helvetica,sans-Serif" font-size="11.00" fill="#000000">Generated by SchemaSpy</text>
<!-- device -->
<g id="node1" class="node">
<title>device</title>
<g id="a_node1"><a xlink:href="../../tables/device.html" xlink:title="device" target="_top">
<polygon fill="#ffffff" stroke="transparent" points="181,-38.2 181,-216.2 391,-216.2 391,-38.2 181,-38.2"/>
<polygon fill="#f5f5f5" stroke="transparent" points="183,-191.2 183,-214.2 389,-214.2 389,-191.2 183,-191.2"/>
<polygon fill="none" stroke="#000000" points="183,-191.2 183,-214.2 389,-214.2 389,-191.2 183,-191.2"/>
<text text-anchor="start" x="188" y="-199.8" font-family="Helvetica,sans-Serif" font-weight="bold" font-size="11.00" fill="#000000">device</text>
<text text-anchor="start" x="354.0437" y="-199.3" font-family="Helvetica,sans-Serif" font-size="11.00" fill="#000000">[table]</text>
<polygon fill="none" stroke="#000000" points="183,-169.2 183,-191.2 297,-191.2 297,-169.2 183,-169.2"/>
<image xlink:href="../../images/primaryKeys.png" width="11px" height="12px" preserveAspectRatio="xMinYMin meet" x="188" y="-186.2"/>
<text text-anchor="start" x="203" y="-176.3" font-family="Helvetica,sans-Serif" font-size="11.00" fill="#000000">id_device_token</text>
<polygon fill="none" stroke="#000000" points="297,-169.2 297,-191.2 389,-191.2 389,-169.2 297,-169.2"/>
<text text-anchor="start" x="300" y="-176.9" font-family="Helvetica,sans-Serif" font-size="11.00" fill="#000000">serial[10]</text>
<polygon fill="none" stroke="#000000" points="183,-147.2 183,-169.2 297,-169.2 297,-147.2 183,-147.2"/>
<image xlink:href="../../images/foreignKeys.png" width="11px" height="12px" preserveAspectRatio="xMinYMin meet" x="188" y="-164.2"/>
<text text-anchor="start" x="203" y="-154.3" font-family="Helvetica,sans-Serif" font-size="11.00" fill="#000000">patient_id</text>
<polygon fill="none" stroke="#000000" points="297,-147.2 297,-169.2 389,-169.2 389,-147.2 297,-147.2"/>
<text text-anchor="start" x="300" y="-154.9" font-family="Helvetica,sans-Serif" font-size="11.00" fill="#000000">int4[10]</text>
<polygon fill="#ffffff" stroke="transparent" points="183,-125.2 183,-147.2 297,-147.2 297,-125.2 183,-125.2"/>
<polygon fill="none" stroke="#000000" points="183,-125.2 183,-147.2 297,-147.2 297,-125.2 183,-125.2"/>
<text text-anchor="start" x="203" y="-132.3" font-family="Helvetica,sans-Serif" font-size="11.00" fill="#000000">token</text>
<polygon fill="none" stroke="#000000" points="297,-125.2 297,-147.2 389,-147.2 389,-125.2 297,-125.2"/>
<text text-anchor="start" x="300" y="-132.9" font-family="Helvetica,sans-Serif" font-size="11.00" fill="#000000">varchar[255]</text>
<polygon fill="none" stroke="#000000" points="183,-103.2 183,-125.2 297,-125.2 297,-103.2 183,-103.2"/>
<text text-anchor="start" x="203" y="-110.3" font-family="Helvetica,sans-Serif" font-size="11.00" fill="#000000">platform</text>
<polygon fill="none" stroke="#000000" points="297,-103.2 297,-125.2 389,-125.2 389,-103.2 297,-103.2"/>
<text text-anchor="start" x="300" y="-110.9" font-family="Helvetica,sans-Serif" font-size="11.00" fill="#000000">varchar[255]</text>
<polygon fill="none" stroke="#000000" points="183,-81.2 183,-103.2 297,-103.2 297,-81.2 183,-81.2"/>
<text text-anchor="start" x="203" y="-88.3" font-family="Helvetica,sans-Serif" font-size="11.00" fill="#000000">createdAt</text>
<polygon fill="none" stroke="#000000" points="297,-81.2 297,-103.2 389,-103.2 389,-81.2 297,-81.2"/>
<text text-anchor="start" x="299.6023" y="-88.9" font-family="Helvetica,sans-Serif" font-size="11.00" fill="#000000">timestamptz[35,6]</text>
<polygon fill="none" stroke="#000000" points="183,-59.2 183,-81.2 297,-81.2 297,-59.2 183,-59.2"/>
<text text-anchor="start" x="203" y="-66.3" font-family="Helvetica,sans-Serif" font-size="11.00" fill="#000000">updatedAt</text>
<polygon fill="none" stroke="#000000" points="297,-59.2 297,-81.2 389,-81.2 389,-59.2 297,-59.2"/>
<text text-anchor="start" x="299.6023" y="-66.9" font-family="Helvetica,sans-Serif" font-size="11.00" fill="#000000">timestamptz[35,6]</text>
<polygon fill="#ffffff" stroke="transparent" points="183,-40.2 183,-59.2 231,-59.2 231,-40.2 183,-40.2"/>
<polygon fill="none" stroke="#000000" points="183,-40.2 183,-59.2 231,-59.2 231,-40.2 183,-40.2"/>
<text text-anchor="start" x="186" y="-46.3" font-family="Helvetica,sans-Serif" font-size="11.00" fill="#000000">&lt; 1</text>
<polygon fill="#ffffff" stroke="transparent" points="231,-40.2 231,-59.2 297,-59.2 297,-40.2 231,-40.2"/>
<polygon fill="none" stroke="#000000" points="231,-40.2 231,-59.2 297,-59.2 297,-40.2 231,-40.2"/>
<text text-anchor="start" x="261.6105" y="-46.3" font-family="Helvetica,sans-Serif" font-size="11.00" fill="#000000">0 rows</text>
<polygon fill="#ffffff" stroke="transparent" points="297,-40.2 297,-59.2 389,-59.2 389,-40.2 297,-40.2"/>
<polygon fill="none" stroke="#000000" points="297,-40.2 297,-59.2 389,-59.2 389,-40.2 297,-40.2"/>
<text text-anchor="start" x="370.4053" y="-46.3" font-family="Helvetica,sans-Serif" font-size="11.00" fill="#000000">0 &gt;</text>
<polygon fill="none" stroke="#000000" stroke-width="2" points="182,-39.2 182,-215.2 390,-215.2 390,-39.2 182,-39.2"/>
</a>
</g>
</g>
<!-- patients -->
<g id="node2" class="node">
<title>patients</title>
<g id="a_node2"><a xlink:href="../../tables/patients.html" xlink:title="patients" target="_top">
<polygon fill="#ffffff" stroke="transparent" points="8,-43.7 8,-192.7 132,-192.7 132,-43.7 8,-43.7"/>
<polygon fill="#f5f5f5" stroke="transparent" points="8,-169.2 8,-192.2 132,-192.2 132,-169.2 8,-169.2"/>
<polygon fill="none" stroke="#000000" points="8,-169.2 8,-192.2 132,-192.2 132,-169.2 8,-169.2"/>
<text text-anchor="start" x="13" y="-177.8" font-family="Helvetica,sans-Serif" font-weight="bold" font-size="11.00" fill="#000000">patients</text>
<text text-anchor="start" x="97.0437" y="-177.3" font-family="Helvetica,sans-Serif" font-size="11.00" fill="#000000">[table]</text>
<polygon fill="none" stroke="#000000" points="8,-147.2 8,-169.2 132,-169.2 132,-147.2 8,-147.2"/>
<image xlink:href="../../images/primaryKeys.png" width="11px" height="12px" preserveAspectRatio="xMinYMin meet" x="13" y="-164.2"/>
<text text-anchor="start" x="28" y="-154.3" font-family="Helvetica,sans-Serif" font-size="11.00" fill="#000000">id_patient</text>
<polygon fill="#ffffff" stroke="transparent" points="8,-125.2 8,-147.2 132,-147.2 132,-125.2 8,-125.2"/>
<polygon fill="none" stroke="#000000" points="8,-125.2 8,-147.2 132,-147.2 132,-125.2 8,-125.2"/>
<text text-anchor="start" x="28" y="-132.3" font-family="Helvetica,sans-Serif" font-size="11.00" fill="#000000">service_id</text>
<polygon fill="none" stroke="#000000" points="8,-103.2 8,-125.2 132,-125.2 132,-103.2 8,-103.2"/>
<image xlink:href="../../images/foreignKeys.png" width="11px" height="12px" preserveAspectRatio="xMinYMin meet" x="13" y="-120.2"/>
<text text-anchor="start" x="28" y="-110.3" font-family="Helvetica,sans-Serif" font-size="11.00" fill="#000000">name</text>
<polygon fill="none" stroke="#000000" points="8,-81.2 8,-103.2 132,-103.2 132,-81.2 8,-81.2"/>
<image xlink:href="../../images/foreignKeys.png" width="11px" height="12px" preserveAspectRatio="xMinYMin meet" x="13" y="-98.2"/>
<text text-anchor="start" x="28" y="-88.3" font-family="Helvetica,sans-Serif" font-size="11.00" fill="#000000">id_cid</text>
<polygon fill="none" stroke="#000000" points="8,-62.2 8,-81.2 132,-81.2 132,-62.2 8,-62.2"/>
<text text-anchor="start" x="11" y="-68.3" font-family="Helvetica,sans-Serif" font-size="11.00" fill="#000000">...</text>
<polygon fill="#ffffff" stroke="transparent" points="8,-43.2 8,-62.2 51,-62.2 51,-43.2 8,-43.2"/>
<polygon fill="none" stroke="#000000" points="8,-43.2 8,-62.2 51,-62.2 51,-43.2 8,-43.2"/>
<text text-anchor="start" x="11" y="-49.3" font-family="Helvetica,sans-Serif" font-size="11.00" fill="#000000">&lt; 1</text>
<polygon fill="#ffffff" stroke="transparent" points="51,-43.2 51,-62.2 100,-62.2 100,-43.2 51,-43.2"/>
<polygon fill="none" stroke="#000000" points="51,-43.2 51,-62.2 100,-62.2 100,-43.2 51,-43.2"/>
<text text-anchor="start" x="64.6105" y="-49.3" font-family="Helvetica,sans-Serif" font-size="11.00" fill="#000000">0 rows</text>
<polygon fill="#ffffff" stroke="transparent" points="100,-43.2 100,-62.2 132,-62.2 132,-43.2 100,-43.2"/>
<polygon fill="none" stroke="#000000" points="100,-43.2 100,-62.2 132,-62.2 132,-43.2 100,-43.2"/>
<text text-anchor="start" x="113.4053" y="-49.3" font-family="Helvetica,sans-Serif" font-size="11.00" fill="#000000">5 &gt;</text>
</a>
</g>
</g>
<!-- device&#45;&gt;patients -->
<g id="edge1" class="edge">
<title>device:w&#45;&gt;patients:e</title>
<path fill="none" stroke="#000000" d="M168.276,-158.2C156.2815,-158.2 148.8229,-158.2 132,-158.2"/>
<polygon fill="#000000" stroke="#000000" points="175,-158.2001 183,-161.8 179,-158.2 183,-158.2 183,-158.2 183,-158.2 179,-158.2 183,-154.6 175,-158.2001 175,-158.2001"/>
<ellipse fill="none" stroke="#000000" cx="171.8" cy="-158.2001" rx="3.2" ry="3.2"/>
</g>
</g>
</svg>
