<?xml version="1.0" encoding="UTF-8" standalone="no"?>
<!DOCTYPE svg PUBLIC "-//W3C//DTD SVG 1.1//EN"
 "http://www.w3.org/Graphics/SVG/1.1/DTD/svg11.dtd">
<!-- Generated by graphviz version 2.40.1 (20161225.0304)
 -->
<!-- Title: twoDegreesRelationshipsDiagramImplied Pages: 1 -->
<svg width="940pt" height="448pt"
 viewBox="0.00 0.00 940.00 447.70" xmlns="http://www.w3.org/2000/svg" xmlns:xlink="http://www.w3.org/1999/xlink">
<g id="graph0" class="graph" transform="scale(1 1) rotate(0) translate(4 443.7)">
<title>twoDegreesRelationshipsDiagramImplied</title>
<polygon fill="#ffffff" stroke="transparent" points="-4,4 -4,-443.7 936,-443.7 936,4 -4,4"/>
<text text-anchor="middle" x="72.4936" y="-7.3" font-family="Helvetica,sans-Serif" font-size="11.00" fill="#000000">Generated by SchemaSpy</text>
<!-- chats -->
<g id="node1" class="node">
<title>chats</title>
<g id="a_node1"><a xlink:href="../../tables/chats.html" xlink:title="chats" target="_top">
<polygon fill="#ffffff" stroke="transparent" points="416,-148.2 416,-209.2 496,-209.2 496,-148.2 416,-148.2"/>
<polygon fill="#f5f5f5" stroke="transparent" points="416,-185.7 416,-208.7 496,-208.7 496,-185.7 416,-185.7"/>
<polygon fill="none" stroke="#000000" points="416,-185.7 416,-208.7 496,-208.7 496,-185.7 416,-185.7"/>
<text text-anchor="start" x="421" y="-194.3" font-family="Helvetica,sans-Serif" font-weight="bold" font-size="11.00" fill="#000000">chats</text>
<text text-anchor="start" x="461.0437" y="-193.8" font-family="Helvetica,sans-Serif" font-size="11.00" fill="#000000">[table]</text>
<polygon fill="none" stroke="#000000" points="416,-166.7 416,-185.7 496,-185.7 496,-166.7 416,-166.7"/>
<text text-anchor="start" x="419" y="-172.8" font-family="Helvetica,sans-Serif" font-size="11.00" fill="#000000">...</text>
<polygon fill="#ffffff" stroke="transparent" points="416,-147.7 416,-166.7 437,-166.7 437,-147.7 416,-147.7"/>
<polygon fill="none" stroke="#000000" points="416,-147.7 416,-166.7 437,-166.7 437,-147.7 416,-147.7"/>
<text text-anchor="start" x="418.7027" y="-153.8" font-family="Helvetica,sans-Serif" font-size="11.00" fill="#000000">&lt; 1</text>
<polygon fill="#ffffff" stroke="transparent" points="437,-147.7 437,-166.7 475,-166.7 475,-147.7 437,-147.7"/>
<polygon fill="none" stroke="#000000" points="437,-147.7 437,-166.7 475,-166.7 475,-147.7 437,-147.7"/>
<text text-anchor="start" x="439.8053" y="-153.8" font-family="Helvetica,sans-Serif" font-size="11.00" fill="#000000">0 rows</text>
<polygon fill="#ffffff" stroke="transparent" points="475,-147.7 475,-166.7 496,-166.7 496,-147.7 475,-147.7"/>
<polygon fill="none" stroke="#000000" points="475,-147.7 475,-166.7 496,-166.7 496,-147.7 475,-147.7"/>
<text text-anchor="start" x="477.7027" y="-153.8" font-family="Helvetica,sans-Serif" font-size="11.00" fill="#000000">1 &gt;</text>
</a>
</g>
</g>
<!-- patients -->
<g id="node2" class="node">
<title>patients</title>
<g id="a_node2"><a xlink:href="../../tables/patients.html" xlink:title="patients" target="_top">
<polygon fill="#ffffff" stroke="transparent" points="178,-61.2 178,-210.2 302,-210.2 302,-61.2 178,-61.2"/>
<polygon fill="#f5f5f5" stroke="transparent" points="178,-186.7 178,-209.7 302,-209.7 302,-186.7 178,-186.7"/>
<polygon fill="none" stroke="#000000" points="178,-186.7 178,-209.7 302,-209.7 302,-186.7 178,-186.7"/>
<text text-anchor="start" x="183" y="-195.3" font-family="Helvetica,sans-Serif" font-weight="bold" font-size="11.00" fill="#000000">patients</text>
<text text-anchor="start" x="267.0437" y="-194.8" font-family="Helvetica,sans-Serif" font-size="11.00" fill="#000000">[table]</text>
<polygon fill="none" stroke="#000000" points="178,-164.7 178,-186.7 302,-186.7 302,-164.7 178,-164.7"/>
<image xlink:href="../../images/primaryKeys.png" width="11px" height="12px" preserveAspectRatio="xMinYMin meet" x="183" y="-181.7"/>
<text text-anchor="start" x="198" y="-171.8" font-family="Helvetica,sans-Serif" font-size="11.00" fill="#000000">id_patient</text>
<polygon fill="#ffffff" stroke="transparent" points="178,-142.7 178,-164.7 302,-164.7 302,-142.7 178,-142.7"/>
<polygon fill="none" stroke="#000000" points="178,-142.7 178,-164.7 302,-164.7 302,-142.7 178,-142.7"/>
<text text-anchor="start" x="198" y="-149.8" font-family="Helvetica,sans-Serif" font-size="11.00" fill="#000000">service_id</text>
<polygon fill="none" stroke="#000000" points="178,-120.7 178,-142.7 302,-142.7 302,-120.7 178,-120.7"/>
<image xlink:href="../../images/foreignKeys.png" width="11px" height="12px" preserveAspectRatio="xMinYMin meet" x="183" y="-137.7"/>
<text text-anchor="start" x="198" y="-127.8" font-family="Helvetica,sans-Serif" font-size="11.00" fill="#000000">name</text>
<polygon fill="none" stroke="#000000" points="178,-98.7 178,-120.7 302,-120.7 302,-98.7 178,-98.7"/>
<image xlink:href="../../images/foreignKeys.png" width="11px" height="12px" preserveAspectRatio="xMinYMin meet" x="183" y="-115.7"/>
<text text-anchor="start" x="198" y="-105.8" font-family="Helvetica,sans-Serif" font-size="11.00" fill="#000000">id_cid</text>
<polygon fill="none" stroke="#000000" points="178,-79.7 178,-98.7 302,-98.7 302,-79.7 178,-79.7"/>
<text text-anchor="start" x="181" y="-85.8" font-family="Helvetica,sans-Serif" font-size="11.00" fill="#000000">...</text>
<polygon fill="#ffffff" stroke="transparent" points="178,-60.7 178,-79.7 221,-79.7 221,-60.7 178,-60.7"/>
<polygon fill="none" stroke="#000000" points="178,-60.7 178,-79.7 221,-79.7 221,-60.7 178,-60.7"/>
<text text-anchor="start" x="181" y="-66.8" font-family="Helvetica,sans-Serif" font-size="11.00" fill="#000000">&lt; 2</text>
<polygon fill="#ffffff" stroke="transparent" points="221,-60.7 221,-79.7 270,-79.7 270,-60.7 221,-60.7"/>
<polygon fill="none" stroke="#000000" points="221,-60.7 221,-79.7 270,-79.7 270,-60.7 221,-60.7"/>
<text text-anchor="start" x="234.6105" y="-66.8" font-family="Helvetica,sans-Serif" font-size="11.00" fill="#000000">0 rows</text>
<polygon fill="#ffffff" stroke="transparent" points="270,-60.7 270,-79.7 302,-79.7 302,-60.7 270,-60.7"/>
<polygon fill="none" stroke="#000000" points="270,-60.7 270,-79.7 302,-79.7 302,-60.7 270,-60.7"/>
<text text-anchor="start" x="283.4053" y="-66.8" font-family="Helvetica,sans-Serif" font-size="11.00" fill="#000000">5 &gt;</text>
</a>
</g>
</g>
<!-- chats&#45;&gt;patients -->
<g id="edge1" class="edge">
<title>chats:w&#45;&gt;patients:e</title>
<path fill="none" stroke="#000000" d="M401.4029,-175.7C362.3037,-175.7 347.4219,-175.7 302,-175.7"/>
<polygon fill="#000000" stroke="#000000" points="408,-175.7001 416,-179.3 412,-175.7 416,-175.7 416,-175.7 416,-175.7 412,-175.7 416,-172.1 408,-175.7001 408,-175.7001"/>
<ellipse fill="none" stroke="#000000" cx="404.8" cy="-175.7001" rx="3.2" ry="3.2"/>
</g>
<!-- cid -->
<g id="node6" class="node">
<title>cid</title>
<g id="a_node6"><a xlink:href="../../tables/cid.html" xlink:title="cid" target="_top">
<polygon fill="#ffffff" stroke="transparent" points="25.5,-52.2 25.5,-113.2 111.5,-113.2 111.5,-52.2 25.5,-52.2"/>
<polygon fill="#f5f5f5" stroke="transparent" points="25.5,-89.7 25.5,-112.7 111.5,-112.7 111.5,-89.7 25.5,-89.7"/>
<polygon fill="none" stroke="#000000" points="25.5,-89.7 25.5,-112.7 111.5,-112.7 111.5,-89.7 25.5,-89.7"/>
<text text-anchor="start" x="29.9721" y="-98.3" font-family="Helvetica,sans-Serif" font-weight="bold" font-size="11.00" fill="#000000">cid</text>
<text text-anchor="start" x="76.5437" y="-97.8" font-family="Helvetica,sans-Serif" font-size="11.00" fill="#000000">[table]</text>
<polygon fill="none" stroke="#000000" points="25.5,-70.7 25.5,-89.7 111.5,-89.7 111.5,-70.7 25.5,-70.7"/>
<text text-anchor="start" x="28.5" y="-76.8" font-family="Helvetica,sans-Serif" font-size="11.00" fill="#000000">...</text>
<polygon fill="#ffffff" stroke="transparent" points="25.5,-51.7 25.5,-70.7 46.5,-70.7 46.5,-51.7 25.5,-51.7"/>
<polygon fill="none" stroke="#000000" points="25.5,-51.7 25.5,-70.7 46.5,-70.7 46.5,-51.7 25.5,-51.7"/>
<text text-anchor="start" x="28.2027" y="-57.8" font-family="Helvetica,sans-Serif" font-size="11.00" fill="#000000">&lt; 1</text>
<polygon fill="#ffffff" stroke="transparent" points="46.5,-51.7 46.5,-70.7 90.5,-70.7 90.5,-51.7 46.5,-51.7"/>
<polygon fill="none" stroke="#000000" points="46.5,-51.7 46.5,-70.7 90.5,-70.7 90.5,-51.7 46.5,-51.7"/>
<text text-anchor="start" x="49.2478" y="-57.8" font-family="Helvetica,sans-Serif" font-size="11.00" fill="#000000">88 rows</text>
<polygon fill="#ffffff" stroke="transparent" points="90.5,-51.7 90.5,-70.7 111.5,-70.7 111.5,-51.7 90.5,-51.7"/>
<polygon fill="none" stroke="#000000" points="90.5,-51.7 90.5,-70.7 111.5,-70.7 111.5,-51.7 90.5,-51.7"/>
<text text-anchor="start" x="93.2027" y="-57.8" font-family="Helvetica,sans-Serif" font-size="11.00" fill="#000000">1 &gt;</text>
</a>
</g>
</g>
<!-- patients&#45;&gt;cid -->
<g id="edge7" class="edge">
<title>patients:w&#45;&gt;cid:e</title>
<path fill="none" stroke="#000000" d="M163.696,-107.346C144.0991,-100.2737 138.351,-79.7 111.5,-79.7"/>
<polygon fill="#000000" stroke="#000000" points="170.1062,-108.4008 177.4154,-113.2522 174.0531,-109.0504 178,-109.7 178,-109.7 178,-109.7 174.0531,-109.0504 178.5846,-106.1478 170.1062,-108.4008 170.1062,-108.4008"/>
<ellipse fill="none" stroke="#000000" cx="166.9487" cy="-107.8812" rx="3.2" ry="3.2"/>
</g>
<!-- SequelizeMeta -->
<g id="node7" class="node">
<title>SequelizeMeta</title>
<g id="a_node7"><a xlink:href="../../tables/SequelizeMeta.html" xlink:title="SequelizeMeta" target="_top">
<polygon fill="#ffffff" stroke="transparent" points="8,-134.2 8,-195.2 129,-195.2 129,-134.2 8,-134.2"/>
<polygon fill="#f5f5f5" stroke="transparent" points="8.5,-171.7 8.5,-194.7 129.5,-194.7 129.5,-171.7 8.5,-171.7"/>
<polygon fill="none" stroke="#000000" points="8.5,-171.7 8.5,-194.7 129.5,-194.7 129.5,-171.7 8.5,-171.7"/>
<text text-anchor="start" x="13.5" y="-180.3" font-family="Helvetica,sans-Serif" font-weight="bold" font-size="11.00" fill="#000000">SequelizeMeta</text>
<text text-anchor="start" x="95.0219" y="-179.8" font-family="Helvetica,sans-Serif" font-size="11.00" fill="#000000">[table]</text>
<polygon fill="none" stroke="#000000" points="8.5,-152.7 8.5,-171.7 129.5,-171.7 129.5,-152.7 8.5,-152.7"/>
<text text-anchor="start" x="11.5" y="-158.8" font-family="Helvetica,sans-Serif" font-size="11.00" fill="#000000">...</text>
<polygon fill="#ffffff" stroke="transparent" points="8.5,-133.7 8.5,-152.7 42.5,-152.7 42.5,-133.7 8.5,-133.7"/>
<polygon fill="none" stroke="#000000" points="8.5,-133.7 8.5,-152.7 42.5,-152.7 42.5,-133.7 8.5,-133.7"/>
<text text-anchor="start" x="11.5" y="-139.8" font-family="Helvetica,sans-Serif" font-size="11.00" fill="#000000"> &#160;</text>
<polygon fill="#ffffff" stroke="transparent" points="42.5,-133.7 42.5,-152.7 97.5,-152.7 97.5,-133.7 42.5,-133.7"/>
<polygon fill="none" stroke="#000000" points="42.5,-133.7 42.5,-152.7 97.5,-152.7 97.5,-133.7 42.5,-133.7"/>
<text text-anchor="start" x="55.9956" y="-139.8" font-family="Helvetica,sans-Serif" font-size="11.00" fill="#000000">17 rows</text>
<polygon fill="#ffffff" stroke="transparent" points="97.5,-133.7 97.5,-152.7 129.5,-152.7 129.5,-133.7 97.5,-133.7"/>
<polygon fill="none" stroke="#000000" points="97.5,-133.7 97.5,-152.7 129.5,-152.7 129.5,-133.7 97.5,-133.7"/>
<text text-anchor="start" x="110.9053" y="-139.8" font-family="Helvetica,sans-Serif" font-size="11.00" fill="#000000">1 &gt;</text>
</a>
</g>
</g>
<!-- patients&#45;&gt;SequelizeMeta -->
<g id="edge8" class="edge">
<title>patients:w&#45;&gt;SequelizeMeta:e</title>
<path fill="none" stroke="#000000" stroke-dasharray="5,2" d="M164.0076,-135.8714C152.1688,-144.1146 148.9055,-161.7 129.5,-161.7"/>
<polygon fill="#000000" stroke="#000000" points="170.3334,-133.9856 179.0285,-135.15 174.1667,-132.8428 178,-131.7 178,-131.7 178,-131.7 174.1667,-132.8428 176.9715,-128.25 170.3334,-133.9856 170.3334,-133.9856"/>
<ellipse fill="none" stroke="#000000" cx="167.2668" cy="-134.8998" rx="3.2" ry="3.2"/>
</g>
<!-- device -->
<g id="node3" class="node">
<title>device</title>
<g id="a_node3"><a xlink:href="../../tables/device.html" xlink:title="device" target="_top">
<polygon fill="#ffffff" stroke="transparent" points="351,-257.7 351,-435.7 561,-435.7 561,-257.7 351,-257.7"/>
<polygon fill="#f5f5f5" stroke="transparent" points="353,-410.7 353,-433.7 559,-433.7 559,-410.7 353,-410.7"/>
<polygon fill="none" stroke="#000000" points="353,-410.7 353,-433.7 559,-433.7 559,-410.7 353,-410.7"/>
<text text-anchor="start" x="358" y="-419.3" font-family="Helvetica,sans-Serif" font-weight="bold" font-size="11.00" fill="#000000">device</text>
<text text-anchor="start" x="524.0437" y="-418.8" font-family="Helvetica,sans-Serif" font-size="11.00" fill="#000000">[table]</text>
<polygon fill="none" stroke="#000000" points="353,-388.7 353,-410.7 467,-410.7 467,-388.7 353,-388.7"/>
<image xlink:href="../../images/primaryKeys.png" width="11px" height="12px" preserveAspectRatio="xMinYMin meet" x="358" y="-405.7"/>
<text text-anchor="start" x="373" y="-395.8" font-family="Helvetica,sans-Serif" font-size="11.00" fill="#000000">id_device_token</text>
<polygon fill="none" stroke="#000000" points="467,-388.7 467,-410.7 559,-410.7 559,-388.7 467,-388.7"/>
<text text-anchor="start" x="470" y="-396.4" font-family="Helvetica,sans-Serif" font-size="11.00" fill="#000000">serial[10]</text>
<polygon fill="none" stroke="#000000" points="353,-366.7 353,-388.7 467,-388.7 467,-366.7 353,-366.7"/>
<image xlink:href="../../images/foreignKeys.png" width="11px" height="12px" preserveAspectRatio="xMinYMin meet" x="358" y="-383.7"/>
<text text-anchor="start" x="373" y="-373.8" font-family="Helvetica,sans-Serif" font-size="11.00" fill="#000000">patient_id</text>
<polygon fill="none" stroke="#000000" points="467,-366.7 467,-388.7 559,-388.7 559,-366.7 467,-366.7"/>
<text text-anchor="start" x="470" y="-374.4" font-family="Helvetica,sans-Serif" font-size="11.00" fill="#000000">int4[10]</text>
<polygon fill="#ffffff" stroke="transparent" points="353,-344.7 353,-366.7 467,-366.7 467,-344.7 353,-344.7"/>
<polygon fill="none" stroke="#000000" points="353,-344.7 353,-366.7 467,-366.7 467,-344.7 353,-344.7"/>
<text text-anchor="start" x="373" y="-351.8" font-family="Helvetica,sans-Serif" font-size="11.00" fill="#000000">token</text>
<polygon fill="none" stroke="#000000" points="467,-344.7 467,-366.7 559,-366.7 559,-344.7 467,-344.7"/>
<text text-anchor="start" x="470" y="-352.4" font-family="Helvetica,sans-Serif" font-size="11.00" fill="#000000">varchar[255]</text>
<polygon fill="none" stroke="#000000" points="353,-322.7 353,-344.7 467,-344.7 467,-322.7 353,-322.7"/>
<text text-anchor="start" x="373" y="-329.8" font-family="Helvetica,sans-Serif" font-size="11.00" fill="#000000">platform</text>
<polygon fill="none" stroke="#000000" points="467,-322.7 467,-344.7 559,-344.7 559,-322.7 467,-322.7"/>
<text text-anchor="start" x="470" y="-330.4" font-family="Helvetica,sans-Serif" font-size="11.00" fill="#000000">varchar[255]</text>
<polygon fill="none" stroke="#000000" points="353,-300.7 353,-322.7 467,-322.7 467,-300.7 353,-300.7"/>
<text text-anchor="start" x="373" y="-307.8" font-family="Helvetica,sans-Serif" font-size="11.00" fill="#000000">createdAt</text>
<polygon fill="none" stroke="#000000" points="467,-300.7 467,-322.7 559,-322.7 559,-300.7 467,-300.7"/>
<text text-anchor="start" x="469.6023" y="-308.4" font-family="Helvetica,sans-Serif" font-size="11.00" fill="#000000">timestamptz[35,6]</text>
<polygon fill="none" stroke="#000000" points="353,-278.7 353,-300.7 467,-300.7 467,-278.7 353,-278.7"/>
<text text-anchor="start" x="373" y="-285.8" font-family="Helvetica,sans-Serif" font-size="11.00" fill="#000000">updatedAt</text>
<polygon fill="none" stroke="#000000" points="467,-278.7 467,-300.7 559,-300.7 559,-278.7 467,-278.7"/>
<text text-anchor="start" x="469.6023" y="-286.4" font-family="Helvetica,sans-Serif" font-size="11.00" fill="#000000">timestamptz[35,6]</text>
<polygon fill="#ffffff" stroke="transparent" points="353,-259.7 353,-278.7 401,-278.7 401,-259.7 353,-259.7"/>
<polygon fill="none" stroke="#000000" points="353,-259.7 353,-278.7 401,-278.7 401,-259.7 353,-259.7"/>
<text text-anchor="start" x="356" y="-265.8" font-family="Helvetica,sans-Serif" font-size="11.00" fill="#000000">&lt; 1</text>
<polygon fill="#ffffff" stroke="transparent" points="401,-259.7 401,-278.7 467,-278.7 467,-259.7 401,-259.7"/>
<polygon fill="none" stroke="#000000" points="401,-259.7 401,-278.7 467,-278.7 467,-259.7 401,-259.7"/>
<text text-anchor="start" x="431.6105" y="-265.8" font-family="Helvetica,sans-Serif" font-size="11.00" fill="#000000">0 rows</text>
<polygon fill="#ffffff" stroke="transparent" points="467,-259.7 467,-278.7 559,-278.7 559,-259.7 467,-259.7"/>
<polygon fill="none" stroke="#000000" points="467,-259.7 467,-278.7 559,-278.7 559,-259.7 467,-259.7"/>
<text text-anchor="start" x="540.4053" y="-265.8" font-family="Helvetica,sans-Serif" font-size="11.00" fill="#000000">0 &gt;</text>
<polygon fill="none" stroke="#000000" stroke-width="2" points="352,-258.7 352,-434.7 560,-434.7 560,-258.7 352,-258.7"/>
</a>
</g>
</g>
<!-- device&#45;&gt;patients -->
<g id="edge2" class="edge">
<title>device:w&#45;&gt;patients:e</title>
<path fill="none" stroke="#000000" d="M338.5744,-375.5681C275.8232,-353.9796 388.9886,-175.7 302,-175.7"/>
<polygon fill="#000000" stroke="#000000" points="345.086,-376.5304 352.4737,-381.2613 349.043,-377.1152 353,-377.7 353,-377.7 353,-377.7 349.043,-377.1152 353.5263,-374.1387 345.086,-376.5304 345.086,-376.5304"/>
<ellipse fill="none" stroke="#000000" cx="341.9203" cy="-376.0625" rx="3.2" ry="3.2"/>
</g>
<!-- message_notifications -->
<g id="node4" class="node">
<title>message_notifications</title>
<g id="a_node4"><a xlink:href="../../tables/message_notifications.html" xlink:title="message_notifications" target="_top">
<polygon fill="#ffffff" stroke="transparent" points="756,-177.2 756,-238.2 924,-238.2 924,-177.2 756,-177.2"/>
<polygon fill="#f5f5f5" stroke="transparent" points="756,-214.7 756,-237.7 924,-237.7 924,-214.7 756,-214.7"/>
<polygon fill="none" stroke="#000000" points="756,-214.7 756,-237.7 924,-237.7 924,-214.7 756,-214.7"/>
<text text-anchor="start" x="761" y="-223.3" font-family="Helvetica,sans-Serif" font-weight="bold" font-size="11.00" fill="#000000">message_notifications</text>
<text text-anchor="start" x="889.5219" y="-222.8" font-family="Helvetica,sans-Serif" font-size="11.00" fill="#000000">[table]</text>
<polygon fill="none" stroke="#000000" points="756,-195.7 756,-214.7 924,-214.7 924,-195.7 756,-195.7"/>
<text text-anchor="start" x="759" y="-201.8" font-family="Helvetica,sans-Serif" font-size="11.00" fill="#000000">...</text>
<polygon fill="#ffffff" stroke="transparent" points="756,-176.7 756,-195.7 825,-195.7 825,-176.7 756,-176.7"/>
<polygon fill="none" stroke="#000000" points="756,-176.7 756,-195.7 825,-195.7 825,-176.7 756,-176.7"/>
<text text-anchor="start" x="759" y="-182.8" font-family="Helvetica,sans-Serif" font-size="11.00" fill="#000000">&lt; 2</text>
<polygon fill="#ffffff" stroke="transparent" points="825,-176.7 825,-195.7 887,-195.7 887,-176.7 825,-176.7"/>
<polygon fill="none" stroke="#000000" points="825,-176.7 825,-195.7 887,-195.7 887,-176.7 825,-176.7"/>
<text text-anchor="start" x="851.6105" y="-182.8" font-family="Helvetica,sans-Serif" font-size="11.00" fill="#000000">0 rows</text>
<polygon fill="#ffffff" stroke="transparent" points="887,-176.7 887,-195.7 924,-195.7 924,-176.7 887,-176.7"/>
<polygon fill="none" stroke="#000000" points="887,-176.7 887,-195.7 924,-195.7 924,-176.7 887,-176.7"/>
<text text-anchor="start" x="914.8862" y="-182.8" font-family="Helvetica,sans-Serif" font-size="11.00" fill="#000000"> &#160;</text>
</a>
</g>
</g>
<!-- message_notifications&#45;&gt;patients -->
<g id="edge4" class="edge">
<title>message_notifications:w&#45;&gt;patients:e</title>
<path fill="none" stroke="#000000" d="M741.741,-207.4972C733.4173,-211.1556 728.1353,-217.3726 715,-219.7 633.6012,-234.1226 418.8042,-252.6774 343,-219.7 318.4894,-209.037 328.7296,-175.7 302,-175.7"/>
<polygon fill="#000000" stroke="#000000" points="748.1496,-206.24 756.693,-208.2327 752.0748,-205.47 756,-204.7 756,-204.7 756,-204.7 752.0748,-205.47 755.307,-201.1673 748.1496,-206.24 748.1496,-206.24"/>
<ellipse fill="none" stroke="#000000" cx="745.0095" cy="-206.8561" rx="3.2" ry="3.2"/>
</g>
<!-- messages -->
<g id="node5" class="node">
<title>messages</title>
<g id="a_node5"><a xlink:href="../../tables/messages.html" xlink:title="messages" target="_top">
<polygon fill="#ffffff" stroke="transparent" points="610,-148.2 610,-209.2 707,-209.2 707,-148.2 610,-148.2"/>
<polygon fill="#f5f5f5" stroke="transparent" points="610.5,-185.7 610.5,-208.7 707.5,-208.7 707.5,-185.7 610.5,-185.7"/>
<polygon fill="none" stroke="#000000" points="610.5,-185.7 610.5,-208.7 707.5,-208.7 707.5,-185.7 610.5,-185.7"/>
<text text-anchor="start" x="615.5" y="-194.3" font-family="Helvetica,sans-Serif" font-weight="bold" font-size="11.00" fill="#000000">messages</text>
<text text-anchor="start" x="673.0219" y="-193.8" font-family="Helvetica,sans-Serif" font-size="11.00" fill="#000000">[table]</text>
<polygon fill="none" stroke="#000000" points="610.5,-166.7 610.5,-185.7 707.5,-185.7 707.5,-166.7 610.5,-166.7"/>
<text text-anchor="start" x="613.5" y="-172.8" font-family="Helvetica,sans-Serif" font-size="11.00" fill="#000000">...</text>
<polygon fill="#ffffff" stroke="transparent" points="610.5,-147.7 610.5,-166.7 639.5,-166.7 639.5,-147.7 610.5,-147.7"/>
<polygon fill="none" stroke="#000000" points="610.5,-147.7 610.5,-166.7 639.5,-166.7 639.5,-147.7 610.5,-147.7"/>
<text text-anchor="start" x="613.5" y="-153.8" font-family="Helvetica,sans-Serif" font-size="11.00" fill="#000000">&lt; 3</text>
<polygon fill="#ffffff" stroke="transparent" points="639.5,-147.7 639.5,-166.7 681.5,-166.7 681.5,-147.7 639.5,-147.7"/>
<polygon fill="none" stroke="#000000" points="639.5,-147.7 639.5,-166.7 681.5,-166.7 681.5,-147.7 639.5,-147.7"/>
<text text-anchor="start" x="646.1105" y="-153.8" font-family="Helvetica,sans-Serif" font-size="11.00" fill="#000000">0 rows</text>
<polygon fill="#ffffff" stroke="transparent" points="681.5,-147.7 681.5,-166.7 707.5,-166.7 707.5,-147.7 681.5,-147.7"/>
<polygon fill="none" stroke="#000000" points="681.5,-147.7 681.5,-166.7 707.5,-166.7 707.5,-147.7 681.5,-147.7"/>
<text text-anchor="start" x="688.9053" y="-153.8" font-family="Helvetica,sans-Serif" font-size="11.00" fill="#000000">1 &gt;</text>
</a>
</g>
</g>
<!-- message_notifications&#45;&gt;messages -->
<g id="edge3" class="edge">
<title>message_notifications:w&#45;&gt;messages:e</title>
<path fill="none" stroke="#000000" d="M742.0737,-200.6677C730.2213,-192.6993 726.7287,-175.7 707.5,-175.7"/>
<polygon fill="#000000" stroke="#000000" points="748.3156,-202.475 754.9987,-208.158 752.1578,-203.5875 756,-204.7 756,-204.7 756,-204.7 752.1578,-203.5875 757.0013,-201.242 748.3156,-202.475 748.3156,-202.475"/>
<ellipse fill="none" stroke="#000000" cx="745.2419" cy="-201.585" rx="3.2" ry="3.2"/>
</g>
<!-- messages&#45;&gt;chats -->
<g id="edge5" class="edge">
<title>messages:w&#45;&gt;chats:e</title>
<path fill="none" stroke="#000000" d="M596.0959,-175.7C556.6332,-175.7 541.7205,-175.7 496,-175.7"/>
<polygon fill="#000000" stroke="#000000" points="602.5,-175.7001 610.5,-179.3 606.5,-175.7 610.5,-175.7 610.5,-175.7 610.5,-175.7 606.5,-175.7 610.5,-172.1 602.5,-175.7001 602.5,-175.7001"/>
<ellipse fill="none" stroke="#000000" cx="599.3" cy="-175.7001" rx="3.2" ry="3.2"/>
</g>
<!-- messages&#45;&gt;patients -->
<g id="edge6" class="edge">
<title>messages:w&#45;&gt;patients:e</title>
<path fill="none" stroke="#000000" d="M596.7431,-171.0365C587.0176,-162.4724 586.4824,-144.4949 569,-137.7 475.3784,-101.3121 436.5113,-101.0295 343,-137.7 319.8697,-146.7705 326.8452,-175.7 302,-175.7"/>
<polygon fill="#000000" stroke="#000000" points="602.9235,-173.1316 609.3442,-179.1094 606.7117,-174.4158 610.5,-175.7 610.5,-175.7 610.5,-175.7 606.7117,-174.4158 611.6558,-172.2906 602.9235,-173.1316 602.9235,-173.1316"/>
<ellipse fill="none" stroke="#000000" cx="599.8929" cy="-172.1042" rx="3.2" ry="3.2"/>
</g>
<!-- responses -->
<g id="node8" class="node">
<title>responses</title>
<g id="a_node8"><a xlink:href="../../tables/responses.html" xlink:title="responses" target="_top">
<polygon fill="#ffffff" stroke="transparent" points="406.5,-38.2 406.5,-99.2 505.5,-99.2 505.5,-38.2 406.5,-38.2"/>
<polygon fill="#f5f5f5" stroke="transparent" points="407,-75.7 407,-98.7 506,-98.7 506,-75.7 407,-75.7"/>
<polygon fill="none" stroke="#000000" points="407,-75.7 407,-98.7 506,-98.7 506,-75.7 407,-75.7"/>
<text text-anchor="start" x="412" y="-84.3" font-family="Helvetica,sans-Serif" font-weight="bold" font-size="11.00" fill="#000000">responses</text>
<text text-anchor="start" x="471.5219" y="-83.8" font-family="Helvetica,sans-Serif" font-size="11.00" fill="#000000">[table]</text>
<polygon fill="none" stroke="#000000" points="407,-56.7 407,-75.7 506,-75.7 506,-56.7 407,-56.7"/>
<text text-anchor="start" x="410" y="-62.8" font-family="Helvetica,sans-Serif" font-size="11.00" fill="#000000">...</text>
<polygon fill="#ffffff" stroke="transparent" points="407,-37.7 407,-56.7 437,-56.7 437,-37.7 407,-37.7"/>
<polygon fill="none" stroke="#000000" points="407,-37.7 407,-56.7 437,-56.7 437,-37.7 407,-37.7"/>
<text text-anchor="start" x="410" y="-43.8" font-family="Helvetica,sans-Serif" font-size="11.00" fill="#000000">&lt; 3</text>
<polygon fill="#ffffff" stroke="transparent" points="437,-37.7 437,-56.7 480,-56.7 480,-37.7 437,-37.7"/>
<polygon fill="none" stroke="#000000" points="437,-37.7 437,-56.7 480,-56.7 480,-37.7 437,-37.7"/>
<text text-anchor="start" x="444.6105" y="-43.8" font-family="Helvetica,sans-Serif" font-size="11.00" fill="#000000">0 rows</text>
<polygon fill="#ffffff" stroke="transparent" points="480,-37.7 480,-56.7 506,-56.7 506,-37.7 480,-37.7"/>
<polygon fill="none" stroke="#000000" points="480,-37.7 480,-56.7 506,-56.7 506,-37.7 480,-37.7"/>
<text text-anchor="start" x="487.4053" y="-43.8" font-family="Helvetica,sans-Serif" font-size="11.00" fill="#000000">1 &gt;</text>
</a>
</g>
</g>
<!-- responses&#45;&gt;patients -->
<g id="edge9" class="edge">
<title>responses:w&#45;&gt;patients:e</title>
<path fill="none" stroke="#000000" d="M392.4426,-67.2504C369.6799,-72.7056 363.5758,-91.868 343,-113.7 320.3422,-137.7412 335.0357,-175.7 302,-175.7"/>
<polygon fill="#000000" stroke="#000000" points="399.045,-66.5473 407.3813,-69.2798 403.0225,-66.1236 407,-65.7 407,-65.7 407,-65.7 403.0225,-66.1236 406.6187,-62.1202 399.045,-66.5473 399.045,-66.5473"/>
<ellipse fill="none" stroke="#000000" cx="395.863" cy="-66.8862" rx="3.2" ry="3.2"/>
</g>
</g>
</svg>
