<?xml version="1.0" encoding="UTF-8" standalone="no"?>
<!DOCTYPE svg PUBLIC "-//W3C//DTD SVG 1.1//EN"
 "http://www.w3.org/Graphics/SVG/1.1/DTD/svg11.dtd">
<!-- Generated by graphviz version 2.40.1 (20161225.0304)
 -->
<!-- Title: twoDegreesRelationshipsDiagram Pages: 1 -->
<svg width="905pt" height="448pt"
 viewBox="0.00 0.00 905.00 447.70" xmlns="http://www.w3.org/2000/svg" xmlns:xlink="http://www.w3.org/1999/xlink">
<g id="graph0" class="graph" transform="scale(1 1) rotate(0) translate(4 443.7)">
<title>twoDegreesRelationshipsDiagram</title>
<polygon fill="#ffffff" stroke="transparent" points="-4,4 -4,-443.7 901,-443.7 901,4 -4,4"/>
<text text-anchor="middle" x="72.4936" y="-7.3" font-family="Helvetica,sans-Serif" font-size="11.00" fill="#000000">Generated by SchemaSpy</text>
<!-- chats -->
<g id="node1" class="node">
<title>chats</title>
<g id="a_node1"><a xlink:href="../../tables/chats.html" xlink:title="chats" target="_top">
<polygon fill="#ffffff" stroke="transparent" points="381,-148.2 381,-209.2 461,-209.2 461,-148.2 381,-148.2"/>
<polygon fill="#f5f5f5" stroke="transparent" points="381,-185.7 381,-208.7 461,-208.7 461,-185.7 381,-185.7"/>
<polygon fill="none" stroke="#000000" points="381,-185.7 381,-208.7 461,-208.7 461,-185.7 381,-185.7"/>
<text text-anchor="start" x="386" y="-194.3" font-family="Helvetica,sans-Serif" font-weight="bold" font-size="11.00" fill="#000000">chats</text>
<text text-anchor="start" x="426.0437" y="-193.8" font-family="Helvetica,sans-Serif" font-size="11.00" fill="#000000">[table]</text>
<polygon fill="none" stroke="#000000" points="381,-166.7 381,-185.7 461,-185.7 461,-166.7 381,-166.7"/>
<text text-anchor="start" x="384" y="-172.8" font-family="Helvetica,sans-Serif" font-size="11.00" fill="#000000">...</text>
<polygon fill="#ffffff" stroke="transparent" points="381,-147.7 381,-166.7 402,-166.7 402,-147.7 381,-147.7"/>
<polygon fill="none" stroke="#000000" points="381,-147.7 381,-166.7 402,-166.7 402,-147.7 381,-147.7"/>
<text text-anchor="start" x="383.7027" y="-153.8" font-family="Helvetica,sans-Serif" font-size="11.00" fill="#000000">&lt; 1</text>
<polygon fill="#ffffff" stroke="transparent" points="402,-147.7 402,-166.7 440,-166.7 440,-147.7 402,-147.7"/>
<polygon fill="none" stroke="#000000" points="402,-147.7 402,-166.7 440,-166.7 440,-147.7 402,-147.7"/>
<text text-anchor="start" x="404.8053" y="-153.8" font-family="Helvetica,sans-Serif" font-size="11.00" fill="#000000">0 rows</text>
<polygon fill="#ffffff" stroke="transparent" points="440,-147.7 440,-166.7 461,-166.7 461,-147.7 440,-147.7"/>
<polygon fill="none" stroke="#000000" points="440,-147.7 440,-166.7 461,-166.7 461,-147.7 440,-147.7"/>
<text text-anchor="start" x="442.7027" y="-153.8" font-family="Helvetica,sans-Serif" font-size="11.00" fill="#000000">1 &gt;</text>
</a>
</g>
</g>
<!-- patients -->
<g id="node2" class="node">
<title>patients</title>
<g id="a_node2"><a xlink:href="../../tables/patients.html" xlink:title="patients" target="_top">
<polygon fill="#ffffff" stroke="transparent" points="143,-61.2 143,-210.2 267,-210.2 267,-61.2 143,-61.2"/>
<polygon fill="#f5f5f5" stroke="transparent" points="143,-186.7 143,-209.7 267,-209.7 267,-186.7 143,-186.7"/>
<polygon fill="none" stroke="#000000" points="143,-186.7 143,-209.7 267,-209.7 267,-186.7 143,-186.7"/>
<text text-anchor="start" x="148" y="-195.3" font-family="Helvetica,sans-Serif" font-weight="bold" font-size="11.00" fill="#000000">patients</text>
<text text-anchor="start" x="232.0437" y="-194.8" font-family="Helvetica,sans-Serif" font-size="11.00" fill="#000000">[table]</text>
<polygon fill="none" stroke="#000000" points="143,-164.7 143,-186.7 267,-186.7 267,-164.7 143,-164.7"/>
<image xlink:href="../../images/primaryKeys.png" width="11px" height="12px" preserveAspectRatio="xMinYMin meet" x="148" y="-181.7"/>
<text text-anchor="start" x="163" y="-171.8" font-family="Helvetica,sans-Serif" font-size="11.00" fill="#000000">id_patient</text>
<polygon fill="#ffffff" stroke="transparent" points="143,-142.7 143,-164.7 267,-164.7 267,-142.7 143,-142.7"/>
<polygon fill="none" stroke="#000000" points="143,-142.7 143,-164.7 267,-164.7 267,-142.7 143,-142.7"/>
<text text-anchor="start" x="163" y="-149.8" font-family="Helvetica,sans-Serif" font-size="11.00" fill="#000000">service_id</text>
<polygon fill="none" stroke="#000000" points="143,-120.7 143,-142.7 267,-142.7 267,-120.7 143,-120.7"/>
<image xlink:href="../../images/foreignKeys.png" width="11px" height="12px" preserveAspectRatio="xMinYMin meet" x="148" y="-137.7"/>
<text text-anchor="start" x="163" y="-127.8" font-family="Helvetica,sans-Serif" font-size="11.00" fill="#000000">name</text>
<polygon fill="none" stroke="#000000" points="143,-98.7 143,-120.7 267,-120.7 267,-98.7 143,-98.7"/>
<image xlink:href="../../images/foreignKeys.png" width="11px" height="12px" preserveAspectRatio="xMinYMin meet" x="148" y="-115.7"/>
<text text-anchor="start" x="163" y="-105.8" font-family="Helvetica,sans-Serif" font-size="11.00" fill="#000000">id_cid</text>
<polygon fill="none" stroke="#000000" points="143,-79.7 143,-98.7 267,-98.7 267,-79.7 143,-79.7"/>
<text text-anchor="start" x="146" y="-85.8" font-family="Helvetica,sans-Serif" font-size="11.00" fill="#000000">...</text>
<polygon fill="#ffffff" stroke="transparent" points="143,-60.7 143,-79.7 186,-79.7 186,-60.7 143,-60.7"/>
<polygon fill="none" stroke="#000000" points="143,-60.7 143,-79.7 186,-79.7 186,-60.7 143,-60.7"/>
<text text-anchor="start" x="146" y="-66.8" font-family="Helvetica,sans-Serif" font-size="11.00" fill="#000000">&lt; 1</text>
<polygon fill="#ffffff" stroke="transparent" points="186,-60.7 186,-79.7 235,-79.7 235,-60.7 186,-60.7"/>
<polygon fill="none" stroke="#000000" points="186,-60.7 186,-79.7 235,-79.7 235,-60.7 186,-60.7"/>
<text text-anchor="start" x="199.6105" y="-66.8" font-family="Helvetica,sans-Serif" font-size="11.00" fill="#000000">0 rows</text>
<polygon fill="#ffffff" stroke="transparent" points="235,-60.7 235,-79.7 267,-79.7 267,-60.7 235,-60.7"/>
<polygon fill="none" stroke="#000000" points="235,-60.7 235,-79.7 267,-79.7 267,-60.7 235,-60.7"/>
<text text-anchor="start" x="248.4053" y="-66.8" font-family="Helvetica,sans-Serif" font-size="11.00" fill="#000000">5 &gt;</text>
</a>
</g>
</g>
<!-- chats&#45;&gt;patients -->
<g id="edge1" class="edge">
<title>chats:w&#45;&gt;patients:e</title>
<path fill="none" stroke="#000000" d="M366.4029,-175.7C327.3037,-175.7 312.4219,-175.7 267,-175.7"/>
<polygon fill="#000000" stroke="#000000" points="373,-175.7001 381,-179.3 377,-175.7 381,-175.7 381,-175.7 381,-175.7 377,-175.7 381,-172.1 373,-175.7001 373,-175.7001"/>
<ellipse fill="none" stroke="#000000" cx="369.8" cy="-175.7001" rx="3.2" ry="3.2"/>
</g>
<!-- cid -->
<g id="node6" class="node">
<title>cid</title>
<g id="a_node6"><a xlink:href="../../tables/cid.html" xlink:title="cid" target="_top">
<polygon fill="#ffffff" stroke="transparent" points="8,-82.2 8,-143.2 94,-143.2 94,-82.2 8,-82.2"/>
<polygon fill="#f5f5f5" stroke="transparent" points="8,-119.7 8,-142.7 94,-142.7 94,-119.7 8,-119.7"/>
<polygon fill="none" stroke="#000000" points="8,-119.7 8,-142.7 94,-142.7 94,-119.7 8,-119.7"/>
<text text-anchor="start" x="12.4721" y="-128.3" font-family="Helvetica,sans-Serif" font-weight="bold" font-size="11.00" fill="#000000">cid</text>
<text text-anchor="start" x="59.0437" y="-127.8" font-family="Helvetica,sans-Serif" font-size="11.00" fill="#000000">[table]</text>
<polygon fill="none" stroke="#000000" points="8,-100.7 8,-119.7 94,-119.7 94,-100.7 8,-100.7"/>
<text text-anchor="start" x="11" y="-106.8" font-family="Helvetica,sans-Serif" font-size="11.00" fill="#000000">...</text>
<polygon fill="#ffffff" stroke="transparent" points="8,-81.7 8,-100.7 29,-100.7 29,-81.7 8,-81.7"/>
<polygon fill="none" stroke="#000000" points="8,-81.7 8,-100.7 29,-100.7 29,-81.7 8,-81.7"/>
<text text-anchor="start" x="10.7027" y="-87.8" font-family="Helvetica,sans-Serif" font-size="11.00" fill="#000000">&lt; 1</text>
<polygon fill="#ffffff" stroke="transparent" points="29,-81.7 29,-100.7 73,-100.7 73,-81.7 29,-81.7"/>
<polygon fill="none" stroke="#000000" points="29,-81.7 29,-100.7 73,-100.7 73,-81.7 29,-81.7"/>
<text text-anchor="start" x="31.7478" y="-87.8" font-family="Helvetica,sans-Serif" font-size="11.00" fill="#000000">88 rows</text>
<polygon fill="#ffffff" stroke="transparent" points="73,-81.7 73,-100.7 94,-100.7 94,-81.7 73,-81.7"/>
<polygon fill="none" stroke="#000000" points="73,-81.7 73,-100.7 94,-100.7 94,-81.7 73,-81.7"/>
<text text-anchor="start" x="75.7027" y="-87.8" font-family="Helvetica,sans-Serif" font-size="11.00" fill="#000000">1 &gt;</text>
</a>
</g>
</g>
<!-- patients&#45;&gt;cid -->
<g id="edge7" class="edge">
<title>patients:w&#45;&gt;cid:e</title>
<path fill="none" stroke="#000000" d="M128.4909,-109.7C117.1774,-109.7 109.9931,-109.7 94,-109.7"/>
<polygon fill="#000000" stroke="#000000" points="135,-109.7001 143,-113.3 139,-109.7 143,-109.7 143,-109.7 143,-109.7 139,-109.7 143,-106.1 135,-109.7001 135,-109.7001"/>
<ellipse fill="none" stroke="#000000" cx="131.8" cy="-109.7001" rx="3.2" ry="3.2"/>
</g>
<!-- device -->
<g id="node3" class="node">
<title>device</title>
<g id="a_node3"><a xlink:href="../../tables/device.html" xlink:title="device" target="_top">
<polygon fill="#ffffff" stroke="transparent" points="316,-257.7 316,-435.7 526,-435.7 526,-257.7 316,-257.7"/>
<polygon fill="#f5f5f5" stroke="transparent" points="318,-410.7 318,-433.7 524,-433.7 524,-410.7 318,-410.7"/>
<polygon fill="none" stroke="#000000" points="318,-410.7 318,-433.7 524,-433.7 524,-410.7 318,-410.7"/>
<text text-anchor="start" x="323" y="-419.3" font-family="Helvetica,sans-Serif" font-weight="bold" font-size="11.00" fill="#000000">device</text>
<text text-anchor="start" x="489.0437" y="-418.8" font-family="Helvetica,sans-Serif" font-size="11.00" fill="#000000">[table]</text>
<polygon fill="none" stroke="#000000" points="318,-388.7 318,-410.7 432,-410.7 432,-388.7 318,-388.7"/>
<image xlink:href="../../images/primaryKeys.png" width="11px" height="12px" preserveAspectRatio="xMinYMin meet" x="323" y="-405.7"/>
<text text-anchor="start" x="338" y="-395.8" font-family="Helvetica,sans-Serif" font-size="11.00" fill="#000000">id_device_token</text>
<polygon fill="none" stroke="#000000" points="432,-388.7 432,-410.7 524,-410.7 524,-388.7 432,-388.7"/>
<text text-anchor="start" x="435" y="-396.4" font-family="Helvetica,sans-Serif" font-size="11.00" fill="#000000">serial[10]</text>
<polygon fill="none" stroke="#000000" points="318,-366.7 318,-388.7 432,-388.7 432,-366.7 318,-366.7"/>
<image xlink:href="../../images/foreignKeys.png" width="11px" height="12px" preserveAspectRatio="xMinYMin meet" x="323" y="-383.7"/>
<text text-anchor="start" x="338" y="-373.8" font-family="Helvetica,sans-Serif" font-size="11.00" fill="#000000">patient_id</text>
<polygon fill="none" stroke="#000000" points="432,-366.7 432,-388.7 524,-388.7 524,-366.7 432,-366.7"/>
<text text-anchor="start" x="435" y="-374.4" font-family="Helvetica,sans-Serif" font-size="11.00" fill="#000000">int4[10]</text>
<polygon fill="#ffffff" stroke="transparent" points="318,-344.7 318,-366.7 432,-366.7 432,-344.7 318,-344.7"/>
<polygon fill="none" stroke="#000000" points="318,-344.7 318,-366.7 432,-366.7 432,-344.7 318,-344.7"/>
<text text-anchor="start" x="338" y="-351.8" font-family="Helvetica,sans-Serif" font-size="11.00" fill="#000000">token</text>
<polygon fill="none" stroke="#000000" points="432,-344.7 432,-366.7 524,-366.7 524,-344.7 432,-344.7"/>
<text text-anchor="start" x="435" y="-352.4" font-family="Helvetica,sans-Serif" font-size="11.00" fill="#000000">varchar[255]</text>
<polygon fill="none" stroke="#000000" points="318,-322.7 318,-344.7 432,-344.7 432,-322.7 318,-322.7"/>
<text text-anchor="start" x="338" y="-329.8" font-family="Helvetica,sans-Serif" font-size="11.00" fill="#000000">platform</text>
<polygon fill="none" stroke="#000000" points="432,-322.7 432,-344.7 524,-344.7 524,-322.7 432,-322.7"/>
<text text-anchor="start" x="435" y="-330.4" font-family="Helvetica,sans-Serif" font-size="11.00" fill="#000000">varchar[255]</text>
<polygon fill="none" stroke="#000000" points="318,-300.7 318,-322.7 432,-322.7 432,-300.7 318,-300.7"/>
<text text-anchor="start" x="338" y="-307.8" font-family="Helvetica,sans-Serif" font-size="11.00" fill="#000000">createdAt</text>
<polygon fill="none" stroke="#000000" points="432,-300.7 432,-322.7 524,-322.7 524,-300.7 432,-300.7"/>
<text text-anchor="start" x="434.6023" y="-308.4" font-family="Helvetica,sans-Serif" font-size="11.00" fill="#000000">timestamptz[35,6]</text>
<polygon fill="none" stroke="#000000" points="318,-278.7 318,-300.7 432,-300.7 432,-278.7 318,-278.7"/>
<text text-anchor="start" x="338" y="-285.8" font-family="Helvetica,sans-Serif" font-size="11.00" fill="#000000">updatedAt</text>
<polygon fill="none" stroke="#000000" points="432,-278.7 432,-300.7 524,-300.7 524,-278.7 432,-278.7"/>
<text text-anchor="start" x="434.6023" y="-286.4" font-family="Helvetica,sans-Serif" font-size="11.00" fill="#000000">timestamptz[35,6]</text>
<polygon fill="#ffffff" stroke="transparent" points="318,-259.7 318,-278.7 366,-278.7 366,-259.7 318,-259.7"/>
<polygon fill="none" stroke="#000000" points="318,-259.7 318,-278.7 366,-278.7 366,-259.7 318,-259.7"/>
<text text-anchor="start" x="321" y="-265.8" font-family="Helvetica,sans-Serif" font-size="11.00" fill="#000000">&lt; 1</text>
<polygon fill="#ffffff" stroke="transparent" points="366,-259.7 366,-278.7 432,-278.7 432,-259.7 366,-259.7"/>
<polygon fill="none" stroke="#000000" points="366,-259.7 366,-278.7 432,-278.7 432,-259.7 366,-259.7"/>
<text text-anchor="start" x="396.6105" y="-265.8" font-family="Helvetica,sans-Serif" font-size="11.00" fill="#000000">0 rows</text>
<polygon fill="#ffffff" stroke="transparent" points="432,-259.7 432,-278.7 524,-278.7 524,-259.7 432,-259.7"/>
<polygon fill="none" stroke="#000000" points="432,-259.7 432,-278.7 524,-278.7 524,-259.7 432,-259.7"/>
<text text-anchor="start" x="505.4053" y="-265.8" font-family="Helvetica,sans-Serif" font-size="11.00" fill="#000000">0 &gt;</text>
<polygon fill="none" stroke="#000000" stroke-width="2" points="317,-258.7 317,-434.7 525,-434.7 525,-258.7 317,-258.7"/>
</a>
</g>
</g>
<!-- device&#45;&gt;patients -->
<g id="edge2" class="edge">
<title>device:w&#45;&gt;patients:e</title>
<path fill="none" stroke="#000000" d="M303.5744,-375.5681C240.8232,-353.9796 353.9886,-175.7 267,-175.7"/>
<polygon fill="#000000" stroke="#000000" points="310.086,-376.5304 317.4737,-381.2613 314.043,-377.1152 318,-377.7 318,-377.7 318,-377.7 314.043,-377.1152 318.5263,-374.1387 310.086,-376.5304 310.086,-376.5304"/>
<ellipse fill="none" stroke="#000000" cx="306.9203" cy="-376.0625" rx="3.2" ry="3.2"/>
</g>
<!-- message_notifications -->
<g id="node4" class="node">
<title>message_notifications</title>
<g id="a_node4"><a xlink:href="../../tables/message_notifications.html" xlink:title="message_notifications" target="_top">
<polygon fill="#ffffff" stroke="transparent" points="721,-177.2 721,-238.2 889,-238.2 889,-177.2 721,-177.2"/>
<polygon fill="#f5f5f5" stroke="transparent" points="721,-214.7 721,-237.7 889,-237.7 889,-214.7 721,-214.7"/>
<polygon fill="none" stroke="#000000" points="721,-214.7 721,-237.7 889,-237.7 889,-214.7 721,-214.7"/>
<text text-anchor="start" x="726" y="-223.3" font-family="Helvetica,sans-Serif" font-weight="bold" font-size="11.00" fill="#000000">message_notifications</text>
<text text-anchor="start" x="854.5219" y="-222.8" font-family="Helvetica,sans-Serif" font-size="11.00" fill="#000000">[table]</text>
<polygon fill="none" stroke="#000000" points="721,-195.7 721,-214.7 889,-214.7 889,-195.7 721,-195.7"/>
<text text-anchor="start" x="724" y="-201.8" font-family="Helvetica,sans-Serif" font-size="11.00" fill="#000000">...</text>
<polygon fill="#ffffff" stroke="transparent" points="721,-176.7 721,-195.7 790,-195.7 790,-176.7 721,-176.7"/>
<polygon fill="none" stroke="#000000" points="721,-176.7 721,-195.7 790,-195.7 790,-176.7 721,-176.7"/>
<text text-anchor="start" x="724" y="-182.8" font-family="Helvetica,sans-Serif" font-size="11.00" fill="#000000">&lt; 2</text>
<polygon fill="#ffffff" stroke="transparent" points="790,-176.7 790,-195.7 852,-195.7 852,-176.7 790,-176.7"/>
<polygon fill="none" stroke="#000000" points="790,-176.7 790,-195.7 852,-195.7 852,-176.7 790,-176.7"/>
<text text-anchor="start" x="816.6105" y="-182.8" font-family="Helvetica,sans-Serif" font-size="11.00" fill="#000000">0 rows</text>
<polygon fill="#ffffff" stroke="transparent" points="852,-176.7 852,-195.7 889,-195.7 889,-176.7 852,-176.7"/>
<polygon fill="none" stroke="#000000" points="852,-176.7 852,-195.7 889,-195.7 889,-176.7 852,-176.7"/>
<text text-anchor="start" x="879.8862" y="-182.8" font-family="Helvetica,sans-Serif" font-size="11.00" fill="#000000"> &#160;</text>
</a>
</g>
</g>
<!-- message_notifications&#45;&gt;patients -->
<g id="edge4" class="edge">
<title>message_notifications:w&#45;&gt;patients:e</title>
<path fill="none" stroke="#000000" d="M706.741,-207.4972C698.4173,-211.1556 693.1353,-217.3726 680,-219.7 598.6012,-234.1226 383.8042,-252.6774 308,-219.7 283.4894,-209.037 293.7296,-175.7 267,-175.7"/>
<polygon fill="#000000" stroke="#000000" points="713.1496,-206.24 721.693,-208.2327 717.0748,-205.47 721,-204.7 721,-204.7 721,-204.7 717.0748,-205.47 720.307,-201.1673 713.1496,-206.24 713.1496,-206.24"/>
<ellipse fill="none" stroke="#000000" cx="710.0095" cy="-206.8561" rx="3.2" ry="3.2"/>
</g>
<!-- messages -->
<g id="node5" class="node">
<title>messages</title>
<g id="a_node5"><a xlink:href="../../tables/messages.html" xlink:title="messages" target="_top">
<polygon fill="#ffffff" stroke="transparent" points="575,-148.2 575,-209.2 672,-209.2 672,-148.2 575,-148.2"/>
<polygon fill="#f5f5f5" stroke="transparent" points="575.5,-185.7 575.5,-208.7 672.5,-208.7 672.5,-185.7 575.5,-185.7"/>
<polygon fill="none" stroke="#000000" points="575.5,-185.7 575.5,-208.7 672.5,-208.7 672.5,-185.7 575.5,-185.7"/>
<text text-anchor="start" x="580.5" y="-194.3" font-family="Helvetica,sans-Serif" font-weight="bold" font-size="11.00" fill="#000000">messages</text>
<text text-anchor="start" x="638.0219" y="-193.8" font-family="Helvetica,sans-Serif" font-size="11.00" fill="#000000">[table]</text>
<polygon fill="none" stroke="#000000" points="575.5,-166.7 575.5,-185.7 672.5,-185.7 672.5,-166.7 575.5,-166.7"/>
<text text-anchor="start" x="578.5" y="-172.8" font-family="Helvetica,sans-Serif" font-size="11.00" fill="#000000">...</text>
<polygon fill="#ffffff" stroke="transparent" points="575.5,-147.7 575.5,-166.7 604.5,-166.7 604.5,-147.7 575.5,-147.7"/>
<polygon fill="none" stroke="#000000" points="575.5,-147.7 575.5,-166.7 604.5,-166.7 604.5,-147.7 575.5,-147.7"/>
<text text-anchor="start" x="578.5" y="-153.8" font-family="Helvetica,sans-Serif" font-size="11.00" fill="#000000">&lt; 3</text>
<polygon fill="#ffffff" stroke="transparent" points="604.5,-147.7 604.5,-166.7 646.5,-166.7 646.5,-147.7 604.5,-147.7"/>
<polygon fill="none" stroke="#000000" points="604.5,-147.7 604.5,-166.7 646.5,-166.7 646.5,-147.7 604.5,-147.7"/>
<text text-anchor="start" x="611.1105" y="-153.8" font-family="Helvetica,sans-Serif" font-size="11.00" fill="#000000">0 rows</text>
<polygon fill="#ffffff" stroke="transparent" points="646.5,-147.7 646.5,-166.7 672.5,-166.7 672.5,-147.7 646.5,-147.7"/>
<polygon fill="none" stroke="#000000" points="646.5,-147.7 646.5,-166.7 672.5,-166.7 672.5,-147.7 646.5,-147.7"/>
<text text-anchor="start" x="653.9053" y="-153.8" font-family="Helvetica,sans-Serif" font-size="11.00" fill="#000000">1 &gt;</text>
</a>
</g>
</g>
<!-- message_notifications&#45;&gt;messages -->
<g id="edge3" class="edge">
<title>message_notifications:w&#45;&gt;messages:e</title>
<path fill="none" stroke="#000000" d="M707.0737,-200.6677C695.2213,-192.6993 691.7287,-175.7 672.5,-175.7"/>
<polygon fill="#000000" stroke="#000000" points="713.3156,-202.475 719.9987,-208.158 717.1578,-203.5875 721,-204.7 721,-204.7 721,-204.7 717.1578,-203.5875 722.0013,-201.242 713.3156,-202.475 713.3156,-202.475"/>
<ellipse fill="none" stroke="#000000" cx="710.2419" cy="-201.585" rx="3.2" ry="3.2"/>
</g>
<!-- messages&#45;&gt;chats -->
<g id="edge5" class="edge">
<title>messages:w&#45;&gt;chats:e</title>
<path fill="none" stroke="#000000" d="M561.0959,-175.7C521.6332,-175.7 506.7205,-175.7 461,-175.7"/>
<polygon fill="#000000" stroke="#000000" points="567.5,-175.7001 575.5,-179.3 571.5,-175.7 575.5,-175.7 575.5,-175.7 575.5,-175.7 571.5,-175.7 575.5,-172.1 567.5,-175.7001 567.5,-175.7001"/>
<ellipse fill="none" stroke="#000000" cx="564.3" cy="-175.7001" rx="3.2" ry="3.2"/>
</g>
<!-- messages&#45;&gt;patients -->
<g id="edge6" class="edge">
<title>messages:w&#45;&gt;patients:e</title>
<path fill="none" stroke="#000000" d="M561.7431,-171.0365C552.0176,-162.4724 551.4824,-144.4949 534,-137.7 440.3784,-101.3121 401.5113,-101.0295 308,-137.7 284.8697,-146.7705 291.8452,-175.7 267,-175.7"/>
<polygon fill="#000000" stroke="#000000" points="567.9235,-173.1316 574.3442,-179.1094 571.7117,-174.4158 575.5,-175.7 575.5,-175.7 575.5,-175.7 571.7117,-174.4158 576.6558,-172.2906 567.9235,-173.1316 567.9235,-173.1316"/>
<ellipse fill="none" stroke="#000000" cx="564.8929" cy="-172.1042" rx="3.2" ry="3.2"/>
</g>
<!-- responses -->
<g id="node7" class="node">
<title>responses</title>
<g id="a_node7"><a xlink:href="../../tables/responses.html" xlink:title="responses" target="_top">
<polygon fill="#ffffff" stroke="transparent" points="371.5,-38.2 371.5,-99.2 470.5,-99.2 470.5,-38.2 371.5,-38.2"/>
<polygon fill="#f5f5f5" stroke="transparent" points="372,-75.7 372,-98.7 471,-98.7 471,-75.7 372,-75.7"/>
<polygon fill="none" stroke="#000000" points="372,-75.7 372,-98.7 471,-98.7 471,-75.7 372,-75.7"/>
<text text-anchor="start" x="377" y="-84.3" font-family="Helvetica,sans-Serif" font-weight="bold" font-size="11.00" fill="#000000">responses</text>
<text text-anchor="start" x="436.5219" y="-83.8" font-family="Helvetica,sans-Serif" font-size="11.00" fill="#000000">[table]</text>
<polygon fill="none" stroke="#000000" points="372,-56.7 372,-75.7 471,-75.7 471,-56.7 372,-56.7"/>
<text text-anchor="start" x="375" y="-62.8" font-family="Helvetica,sans-Serif" font-size="11.00" fill="#000000">...</text>
<polygon fill="#ffffff" stroke="transparent" points="372,-37.7 372,-56.7 402,-56.7 402,-37.7 372,-37.7"/>
<polygon fill="none" stroke="#000000" points="372,-37.7 372,-56.7 402,-56.7 402,-37.7 372,-37.7"/>
<text text-anchor="start" x="375" y="-43.8" font-family="Helvetica,sans-Serif" font-size="11.00" fill="#000000">&lt; 3</text>
<polygon fill="#ffffff" stroke="transparent" points="402,-37.7 402,-56.7 445,-56.7 445,-37.7 402,-37.7"/>
<polygon fill="none" stroke="#000000" points="402,-37.7 402,-56.7 445,-56.7 445,-37.7 402,-37.7"/>
<text text-anchor="start" x="409.6105" y="-43.8" font-family="Helvetica,sans-Serif" font-size="11.00" fill="#000000">0 rows</text>
<polygon fill="#ffffff" stroke="transparent" points="445,-37.7 445,-56.7 471,-56.7 471,-37.7 445,-37.7"/>
<polygon fill="none" stroke="#000000" points="445,-37.7 445,-56.7 471,-56.7 471,-37.7 445,-37.7"/>
<text text-anchor="start" x="452.4053" y="-43.8" font-family="Helvetica,sans-Serif" font-size="11.00" fill="#000000">1 &gt;</text>
</a>
</g>
</g>
<!-- responses&#45;&gt;patients -->
<g id="edge8" class="edge">
<title>responses:w&#45;&gt;patients:e</title>
<path fill="none" stroke="#000000" d="M357.4426,-67.2504C334.6799,-72.7056 328.5758,-91.868 308,-113.7 285.3422,-137.7412 300.0357,-175.7 267,-175.7"/>
<polygon fill="#000000" stroke="#000000" points="364.045,-66.5473 372.3813,-69.2798 368.0225,-66.1236 372,-65.7 372,-65.7 372,-65.7 368.0225,-66.1236 371.6187,-62.1202 364.045,-66.5473 364.045,-66.5473"/>
<ellipse fill="none" stroke="#000000" cx="360.863" cy="-66.8862" rx="3.2" ry="3.2"/>
</g>
</g>
</svg>
