<?xml version="1.0" encoding="UTF-8" standalone="no"?>
<!DOCTYPE svg PUBLIC "-//W3C//DTD SVG 1.1//EN"
 "http://www.w3.org/Graphics/SVG/1.1/DTD/svg11.dtd">
<!-- Generated by graphviz version 2.40.1 (20161225.0304)
 -->
<!-- Title: oneDegreeRelationshipsDiagram Pages: 1 -->
<svg width="337pt" height="250pt"
 viewBox="0.00 0.00 337.00 250.20" xmlns="http://www.w3.org/2000/svg" xmlns:xlink="http://www.w3.org/1999/xlink">
<g id="graph0" class="graph" transform="scale(1 1) rotate(0) translate(4 246.2)">
<title>oneDegreeRelationshipsDiagram</title>
<polygon fill="#ffffff" stroke="transparent" points="-4,4 -4,-246.2 333,-246.2 333,4 -4,4"/>
<text text-anchor="middle" x="72.4936" y="-7.3" font-family="Helvetica,sans-Serif" font-size="11.00" fill="#000000">Generated by SchemaSpy</text>
<!-- faqs -->
<g id="node1" class="node">
<title>faqs</title>
<g id="a_node1"><a xlink:href="../../tables/faqs.html" xlink:title="faqs" target="_top">
<polygon fill="#ffffff" stroke="transparent" points="137,-38.2 137,-238.2 321,-238.2 321,-38.2 137,-38.2"/>
<polygon fill="#f5f5f5" stroke="transparent" points="139,-213.2 139,-236.2 319,-236.2 319,-213.2 139,-213.2"/>
<polygon fill="none" stroke="#000000" points="139,-213.2 139,-236.2 319,-236.2 319,-213.2 139,-213.2"/>
<text text-anchor="start" x="143.6067" y="-221.8" font-family="Helvetica,sans-Serif" font-weight="bold" font-size="11.00" fill="#000000">faqs</text>
<text text-anchor="start" x="284.0437" y="-221.3" font-family="Helvetica,sans-Serif" font-size="11.00" fill="#000000">[table]</text>
<polygon fill="none" stroke="#000000" points="139,-191.2 139,-213.2 227,-213.2 227,-191.2 139,-191.2"/>
<image xlink:href="../../images/primaryKeys.png" width="11px" height="12px" preserveAspectRatio="xMinYMin meet" x="144" y="-208.2"/>
<text text-anchor="start" x="159" y="-198.3" font-family="Helvetica,sans-Serif" font-size="11.00" fill="#000000">id_faq</text>
<polygon fill="none" stroke="#000000" points="227,-191.2 227,-213.2 319,-213.2 319,-191.2 227,-191.2"/>
<text text-anchor="start" x="230" y="-198.9" font-family="Helvetica,sans-Serif" font-size="11.00" fill="#000000">serial[10]</text>
<polygon fill="none" stroke="#000000" points="139,-169.2 139,-191.2 227,-191.2 227,-169.2 139,-169.2"/>
<text text-anchor="start" x="159" y="-176.3" font-family="Helvetica,sans-Serif" font-size="11.00" fill="#000000">question</text>
<polygon fill="none" stroke="#000000" points="227,-169.2 227,-191.2 319,-191.2 319,-169.2 227,-169.2"/>
<text text-anchor="start" x="230" y="-176.9" font-family="Helvetica,sans-Serif" font-size="11.00" fill="#000000">varchar[255]</text>
<polygon fill="none" stroke="#000000" points="139,-147.2 139,-169.2 227,-169.2 227,-147.2 139,-147.2"/>
<text text-anchor="start" x="159" y="-154.3" font-family="Helvetica,sans-Serif" font-size="11.00" fill="#000000">answer</text>
<polygon fill="none" stroke="#000000" points="227,-147.2 227,-169.2 319,-169.2 319,-147.2 227,-147.2"/>
<text text-anchor="start" x="230" y="-154.9" font-family="Helvetica,sans-Serif" font-size="11.00" fill="#000000">text[2147483647]</text>
<polygon fill="none" stroke="#000000" points="139,-125.2 139,-147.2 227,-147.2 227,-125.2 139,-125.2"/>
<image xlink:href="../../images/foreignKeys.png" width="11px" height="12px" preserveAspectRatio="xMinYMin meet" x="144" y="-142.2"/>
<text text-anchor="start" x="159" y="-132.3" font-family="Helvetica,sans-Serif" font-size="11.00" fill="#000000">created_by</text>
<polygon fill="none" stroke="#000000" points="227,-125.2 227,-147.2 319,-147.2 319,-125.2 227,-125.2"/>
<text text-anchor="start" x="230" y="-132.9" font-family="Helvetica,sans-Serif" font-size="11.00" fill="#000000">int4[10]</text>
<polygon fill="none" stroke="#000000" points="139,-103.2 139,-125.2 227,-125.2 227,-103.2 139,-103.2"/>
<image xlink:href="../../images/foreignKeys.png" width="11px" height="12px" preserveAspectRatio="xMinYMin meet" x="144" y="-120.2"/>
<text text-anchor="start" x="159" y="-110.3" font-family="Helvetica,sans-Serif" font-size="11.00" fill="#000000">updated_by</text>
<polygon fill="none" stroke="#000000" points="227,-103.2 227,-125.2 319,-125.2 319,-103.2 227,-103.2"/>
<text text-anchor="start" x="230" y="-110.9" font-family="Helvetica,sans-Serif" font-size="11.00" fill="#000000">int4[10]</text>
<polygon fill="none" stroke="#000000" points="139,-81.2 139,-103.2 227,-103.2 227,-81.2 139,-81.2"/>
<text text-anchor="start" x="159" y="-88.3" font-family="Helvetica,sans-Serif" font-size="11.00" fill="#000000">created_at</text>
<polygon fill="none" stroke="#000000" points="227,-81.2 227,-103.2 319,-103.2 319,-81.2 227,-81.2"/>
<text text-anchor="start" x="229.6023" y="-88.9" font-family="Helvetica,sans-Serif" font-size="11.00" fill="#000000">timestamptz[35,6]</text>
<polygon fill="none" stroke="#000000" points="139,-59.2 139,-81.2 227,-81.2 227,-59.2 139,-59.2"/>
<text text-anchor="start" x="159" y="-66.3" font-family="Helvetica,sans-Serif" font-size="11.00" fill="#000000">updated_at</text>
<polygon fill="none" stroke="#000000" points="227,-59.2 227,-81.2 319,-81.2 319,-59.2 227,-59.2"/>
<text text-anchor="start" x="229.6023" y="-66.9" font-family="Helvetica,sans-Serif" font-size="11.00" fill="#000000">timestamptz[35,6]</text>
<polygon fill="#ffffff" stroke="transparent" points="139,-40.2 139,-59.2 174,-59.2 174,-40.2 139,-40.2"/>
<polygon fill="none" stroke="#000000" points="139,-40.2 139,-59.2 174,-59.2 174,-40.2 139,-40.2"/>
<text text-anchor="start" x="142" y="-46.3" font-family="Helvetica,sans-Serif" font-size="11.00" fill="#000000">&lt; 2</text>
<polygon fill="#ffffff" stroke="transparent" points="174,-40.2 174,-59.2 227,-59.2 227,-40.2 174,-40.2"/>
<polygon fill="none" stroke="#000000" points="174,-40.2 174,-59.2 227,-59.2 227,-40.2 174,-40.2"/>
<text text-anchor="start" x="191.6105" y="-46.3" font-family="Helvetica,sans-Serif" font-size="11.00" fill="#000000">0 rows</text>
<polygon fill="#ffffff" stroke="transparent" points="227,-40.2 227,-59.2 319,-59.2 319,-40.2 227,-40.2"/>
<polygon fill="none" stroke="#000000" points="227,-40.2 227,-59.2 319,-59.2 319,-40.2 227,-40.2"/>
<text text-anchor="start" x="300.4053" y="-46.3" font-family="Helvetica,sans-Serif" font-size="11.00" fill="#000000">0 &gt;</text>
<polygon fill="none" stroke="#000000" stroke-width="2" points="138,-39.2 138,-237.2 320,-237.2 320,-39.2 138,-39.2"/>
</a>
</g>
</g>
<!-- users -->
<g id="node2" class="node">
<title>users</title>
<g id="a_node2"><a xlink:href="../../tables/users.html" xlink:title="users" target="_top">
<polygon fill="#ffffff" stroke="transparent" points="8,-54.7 8,-159.7 88,-159.7 88,-54.7 8,-54.7"/>
<polygon fill="#f5f5f5" stroke="transparent" points="8,-136.2 8,-159.2 88,-159.2 88,-136.2 8,-136.2"/>
<polygon fill="none" stroke="#000000" points="8,-136.2 8,-159.2 88,-159.2 88,-136.2 8,-136.2"/>
<text text-anchor="start" x="13" y="-144.8" font-family="Helvetica,sans-Serif" font-weight="bold" font-size="11.00" fill="#000000">users</text>
<text text-anchor="start" x="53.0437" y="-144.3" font-family="Helvetica,sans-Serif" font-size="11.00" fill="#000000">[table]</text>
<polygon fill="none" stroke="#000000" points="8,-114.2 8,-136.2 88,-136.2 88,-114.2 8,-114.2"/>
<image xlink:href="../../images/primaryKeys.png" width="11px" height="12px" preserveAspectRatio="xMinYMin meet" x="13" y="-131.2"/>
<text text-anchor="start" x="28" y="-121.3" font-family="Helvetica,sans-Serif" font-size="11.00" fill="#000000">id_user</text>
<polygon fill="#ffffff" stroke="transparent" points="8,-92.2 8,-114.2 88,-114.2 88,-92.2 8,-92.2"/>
<polygon fill="none" stroke="#000000" points="8,-92.2 8,-114.2 88,-114.2 88,-92.2 8,-92.2"/>
<text text-anchor="start" x="28" y="-99.3" font-family="Helvetica,sans-Serif" font-size="11.00" fill="#000000">username</text>
<polygon fill="none" stroke="#000000" points="8,-73.2 8,-92.2 88,-92.2 88,-73.2 8,-73.2"/>
<text text-anchor="start" x="11" y="-79.3" font-family="Helvetica,sans-Serif" font-size="11.00" fill="#000000">...</text>
<polygon fill="#ffffff" stroke="transparent" points="8,-54.2 8,-73.2 24,-73.2 24,-54.2 8,-54.2"/>
<polygon fill="none" stroke="#000000" points="8,-54.2 8,-73.2 24,-73.2 24,-54.2 8,-54.2"/>
<text text-anchor="start" x="11" y="-60.3" font-family="Helvetica,sans-Serif" font-size="11.00" fill="#000000"> &#160;</text>
<polygon fill="#ffffff" stroke="transparent" points="24,-54.2 24,-73.2 64,-73.2 64,-54.2 24,-54.2"/>
<polygon fill="none" stroke="#000000" points="24,-54.2 24,-73.2 64,-73.2 64,-54.2 24,-54.2"/>
<text text-anchor="start" x="28.6105" y="-60.3" font-family="Helvetica,sans-Serif" font-size="11.00" fill="#000000">0 rows</text>
<polygon fill="#ffffff" stroke="transparent" points="64,-54.2 64,-73.2 88,-73.2 88,-54.2 64,-54.2"/>
<polygon fill="none" stroke="#000000" points="64,-54.2 64,-73.2 88,-73.2 88,-54.2 64,-54.2"/>
<text text-anchor="start" x="69.4053" y="-60.3" font-family="Helvetica,sans-Serif" font-size="11.00" fill="#000000">4 &gt;</text>
</a>
</g>
</g>
<!-- faqs&#45;&gt;users -->
<g id="edge1" class="edge">
<title>faqs:w&#45;&gt;users:e</title>
<path fill="none" stroke="#000000" d="M124.5097,-134.4813C112.3398,-131.3875 105.3909,-125.2 88,-125.2"/>
<polygon fill="#000000" stroke="#000000" points="131.0557,-135.2576 138.5759,-139.7749 135.0278,-135.7288 139,-136.2 139,-136.2 139,-136.2 135.0278,-135.7288 139.4241,-132.6251 131.0557,-135.2576 131.0557,-135.2576"/>
<ellipse fill="none" stroke="#000000" cx="127.878" cy="-134.8807" rx="3.2" ry="3.2"/>
</g>
<!-- faqs&#45;&gt;users -->
<g id="edge2" class="edge">
<title>faqs:w&#45;&gt;users:e</title>
<path fill="none" stroke="#000000" d="M124.5097,-115.9188C112.3398,-119.0125 105.3909,-125.2 88,-125.2"/>
<polygon fill="#000000" stroke="#000000" points="131.0557,-115.1424 139.4241,-117.7749 135.0278,-114.6712 139,-114.2 139,-114.2 139,-114.2 135.0278,-114.6712 138.5759,-110.6251 131.0557,-115.1424 131.0557,-115.1424"/>
<ellipse fill="none" stroke="#000000" cx="127.878" cy="-115.5193" rx="3.2" ry="3.2"/>
</g>
</g>
</svg>
