<?xml version="1.0" encoding="UTF-8" standalone="no"?>
<!DOCTYPE svg PUBLIC "-//W3C//DTD SVG 1.1//EN"
 "http://www.w3.org/Graphics/SVG/1.1/DTD/svg11.dtd">
<!-- Generated by graphviz version 2.40.1 (20161225.0304)
 -->
<!-- Title: twoDegreesRelationshipsDiagram Pages: 1 -->
<svg width="337pt" height="415pt"
 viewBox="0.00 0.00 337.00 414.70" xmlns="http://www.w3.org/2000/svg" xmlns:xlink="http://www.w3.org/1999/xlink">
<g id="graph0" class="graph" transform="scale(1 1) rotate(0) translate(4 410.7)">
<title>twoDegreesRelationshipsDiagram</title>
<polygon fill="#ffffff" stroke="transparent" points="-4,4 -4,-410.7 333,-410.7 333,4 -4,4"/>
<text text-anchor="middle" x="72.4936" y="-7.3" font-family="Helvetica,sans-Serif" font-size="11.00" fill="#000000">Generated by SchemaSpy</text>
<!-- faqs -->
<g id="node1" class="node">
<title>faqs</title>
<g id="a_node1"><a xlink:href="../../tables/faqs.html" xlink:title="faqs" target="_top">
<polygon fill="#ffffff" stroke="transparent" points="137,-202.7 137,-402.7 321,-402.7 321,-202.7 137,-202.7"/>
<polygon fill="#f5f5f5" stroke="transparent" points="139,-377.7 139,-400.7 319,-400.7 319,-377.7 139,-377.7"/>
<polygon fill="none" stroke="#000000" points="139,-377.7 139,-400.7 319,-400.7 319,-377.7 139,-377.7"/>
<text text-anchor="start" x="143.6067" y="-386.3" font-family="Helvetica,sans-Serif" font-weight="bold" font-size="11.00" fill="#000000">faqs</text>
<text text-anchor="start" x="284.0437" y="-385.8" font-family="Helvetica,sans-Serif" font-size="11.00" fill="#000000">[table]</text>
<polygon fill="none" stroke="#000000" points="139,-355.7 139,-377.7 227,-377.7 227,-355.7 139,-355.7"/>
<image xlink:href="../../images/primaryKeys.png" width="11px" height="12px" preserveAspectRatio="xMinYMin meet" x="144" y="-372.7"/>
<text text-anchor="start" x="159" y="-362.8" font-family="Helvetica,sans-Serif" font-size="11.00" fill="#000000">id_faq</text>
<polygon fill="none" stroke="#000000" points="227,-355.7 227,-377.7 319,-377.7 319,-355.7 227,-355.7"/>
<text text-anchor="start" x="230" y="-363.4" font-family="Helvetica,sans-Serif" font-size="11.00" fill="#000000">serial[10]</text>
<polygon fill="none" stroke="#000000" points="139,-333.7 139,-355.7 227,-355.7 227,-333.7 139,-333.7"/>
<text text-anchor="start" x="159" y="-340.8" font-family="Helvetica,sans-Serif" font-size="11.00" fill="#000000">question</text>
<polygon fill="none" stroke="#000000" points="227,-333.7 227,-355.7 319,-355.7 319,-333.7 227,-333.7"/>
<text text-anchor="start" x="230" y="-341.4" font-family="Helvetica,sans-Serif" font-size="11.00" fill="#000000">varchar[255]</text>
<polygon fill="none" stroke="#000000" points="139,-311.7 139,-333.7 227,-333.7 227,-311.7 139,-311.7"/>
<text text-anchor="start" x="159" y="-318.8" font-family="Helvetica,sans-Serif" font-size="11.00" fill="#000000">answer</text>
<polygon fill="none" stroke="#000000" points="227,-311.7 227,-333.7 319,-333.7 319,-311.7 227,-311.7"/>
<text text-anchor="start" x="230" y="-319.4" font-family="Helvetica,sans-Serif" font-size="11.00" fill="#000000">text[2147483647]</text>
<polygon fill="none" stroke="#000000" points="139,-289.7 139,-311.7 227,-311.7 227,-289.7 139,-289.7"/>
<image xlink:href="../../images/foreignKeys.png" width="11px" height="12px" preserveAspectRatio="xMinYMin meet" x="144" y="-306.7"/>
<text text-anchor="start" x="159" y="-296.8" font-family="Helvetica,sans-Serif" font-size="11.00" fill="#000000">created_by</text>
<polygon fill="none" stroke="#000000" points="227,-289.7 227,-311.7 319,-311.7 319,-289.7 227,-289.7"/>
<text text-anchor="start" x="230" y="-297.4" font-family="Helvetica,sans-Serif" font-size="11.00" fill="#000000">int4[10]</text>
<polygon fill="none" stroke="#000000" points="139,-267.7 139,-289.7 227,-289.7 227,-267.7 139,-267.7"/>
<image xlink:href="../../images/foreignKeys.png" width="11px" height="12px" preserveAspectRatio="xMinYMin meet" x="144" y="-284.7"/>
<text text-anchor="start" x="159" y="-274.8" font-family="Helvetica,sans-Serif" font-size="11.00" fill="#000000">updated_by</text>
<polygon fill="none" stroke="#000000" points="227,-267.7 227,-289.7 319,-289.7 319,-267.7 227,-267.7"/>
<text text-anchor="start" x="230" y="-275.4" font-family="Helvetica,sans-Serif" font-size="11.00" fill="#000000">int4[10]</text>
<polygon fill="none" stroke="#000000" points="139,-245.7 139,-267.7 227,-267.7 227,-245.7 139,-245.7"/>
<text text-anchor="start" x="159" y="-252.8" font-family="Helvetica,sans-Serif" font-size="11.00" fill="#000000">created_at</text>
<polygon fill="none" stroke="#000000" points="227,-245.7 227,-267.7 319,-267.7 319,-245.7 227,-245.7"/>
<text text-anchor="start" x="229.6023" y="-253.4" font-family="Helvetica,sans-Serif" font-size="11.00" fill="#000000">timestamptz[35,6]</text>
<polygon fill="none" stroke="#000000" points="139,-223.7 139,-245.7 227,-245.7 227,-223.7 139,-223.7"/>
<text text-anchor="start" x="159" y="-230.8" font-family="Helvetica,sans-Serif" font-size="11.00" fill="#000000">updated_at</text>
<polygon fill="none" stroke="#000000" points="227,-223.7 227,-245.7 319,-245.7 319,-223.7 227,-223.7"/>
<text text-anchor="start" x="229.6023" y="-231.4" font-family="Helvetica,sans-Serif" font-size="11.00" fill="#000000">timestamptz[35,6]</text>
<polygon fill="#ffffff" stroke="transparent" points="139,-204.7 139,-223.7 174,-223.7 174,-204.7 139,-204.7"/>
<polygon fill="none" stroke="#000000" points="139,-204.7 139,-223.7 174,-223.7 174,-204.7 139,-204.7"/>
<text text-anchor="start" x="142" y="-210.8" font-family="Helvetica,sans-Serif" font-size="11.00" fill="#000000">&lt; 2</text>
<polygon fill="#ffffff" stroke="transparent" points="174,-204.7 174,-223.7 227,-223.7 227,-204.7 174,-204.7"/>
<polygon fill="none" stroke="#000000" points="174,-204.7 174,-223.7 227,-223.7 227,-204.7 174,-204.7"/>
<text text-anchor="start" x="191.6105" y="-210.8" font-family="Helvetica,sans-Serif" font-size="11.00" fill="#000000">0 rows</text>
<polygon fill="#ffffff" stroke="transparent" points="227,-204.7 227,-223.7 319,-223.7 319,-204.7 227,-204.7"/>
<polygon fill="none" stroke="#000000" points="227,-204.7 227,-223.7 319,-223.7 319,-204.7 227,-204.7"/>
<text text-anchor="start" x="300.4053" y="-210.8" font-family="Helvetica,sans-Serif" font-size="11.00" fill="#000000">0 &gt;</text>
<polygon fill="none" stroke="#000000" stroke-width="2" points="138,-203.7 138,-401.7 320,-401.7 320,-203.7 138,-203.7"/>
</a>
</g>
</g>
<!-- users -->
<g id="node2" class="node">
<title>users</title>
<g id="a_node2"><a xlink:href="../../tables/users.html" xlink:title="users" target="_top">
<polygon fill="#ffffff" stroke="transparent" points="8,-142.2 8,-247.2 88,-247.2 88,-142.2 8,-142.2"/>
<polygon fill="#f5f5f5" stroke="transparent" points="8,-223.7 8,-246.7 88,-246.7 88,-223.7 8,-223.7"/>
<polygon fill="none" stroke="#000000" points="8,-223.7 8,-246.7 88,-246.7 88,-223.7 8,-223.7"/>
<text text-anchor="start" x="13" y="-232.3" font-family="Helvetica,sans-Serif" font-weight="bold" font-size="11.00" fill="#000000">users</text>
<text text-anchor="start" x="53.0437" y="-231.8" font-family="Helvetica,sans-Serif" font-size="11.00" fill="#000000">[table]</text>
<polygon fill="none" stroke="#000000" points="8,-201.7 8,-223.7 88,-223.7 88,-201.7 8,-201.7"/>
<image xlink:href="../../images/primaryKeys.png" width="11px" height="12px" preserveAspectRatio="xMinYMin meet" x="13" y="-218.7"/>
<text text-anchor="start" x="28" y="-208.8" font-family="Helvetica,sans-Serif" font-size="11.00" fill="#000000">id_user</text>
<polygon fill="#ffffff" stroke="transparent" points="8,-179.7 8,-201.7 88,-201.7 88,-179.7 8,-179.7"/>
<polygon fill="none" stroke="#000000" points="8,-179.7 8,-201.7 88,-201.7 88,-179.7 8,-179.7"/>
<text text-anchor="start" x="28" y="-186.8" font-family="Helvetica,sans-Serif" font-size="11.00" fill="#000000">username</text>
<polygon fill="none" stroke="#000000" points="8,-160.7 8,-179.7 88,-179.7 88,-160.7 8,-160.7"/>
<text text-anchor="start" x="11" y="-166.8" font-family="Helvetica,sans-Serif" font-size="11.00" fill="#000000">...</text>
<polygon fill="#ffffff" stroke="transparent" points="8,-141.7 8,-160.7 24,-160.7 24,-141.7 8,-141.7"/>
<polygon fill="none" stroke="#000000" points="8,-141.7 8,-160.7 24,-160.7 24,-141.7 8,-141.7"/>
<text text-anchor="start" x="11" y="-147.8" font-family="Helvetica,sans-Serif" font-size="11.00" fill="#000000"> &#160;</text>
<polygon fill="#ffffff" stroke="transparent" points="24,-141.7 24,-160.7 64,-160.7 64,-141.7 24,-141.7"/>
<polygon fill="none" stroke="#000000" points="24,-141.7 24,-160.7 64,-160.7 64,-141.7 24,-141.7"/>
<text text-anchor="start" x="28.6105" y="-147.8" font-family="Helvetica,sans-Serif" font-size="11.00" fill="#000000">0 rows</text>
<polygon fill="#ffffff" stroke="transparent" points="64,-141.7 64,-160.7 88,-160.7 88,-141.7 64,-141.7"/>
<polygon fill="none" stroke="#000000" points="64,-141.7 64,-160.7 88,-160.7 88,-141.7 64,-141.7"/>
<text text-anchor="start" x="69.4053" y="-147.8" font-family="Helvetica,sans-Serif" font-size="11.00" fill="#000000">4 &gt;</text>
</a>
</g>
</g>
<!-- faqs&#45;&gt;users -->
<g id="edge1" class="edge">
<title>faqs:w&#45;&gt;users:e</title>
<path fill="none" stroke="#000000" d="M125.0699,-296.4556C102.7709,-278.8772 127.2009,-212.7 88,-212.7"/>
<polygon fill="#000000" stroke="#000000" points="131.3473,-298.3682 137.9507,-304.1437 135.1737,-299.5341 139,-300.7 139,-300.7 139,-300.7 135.1737,-299.5341 140.0493,-297.2563 131.3473,-298.3682 131.3473,-298.3682"/>
<ellipse fill="none" stroke="#000000" cx="128.2863" cy="-297.4355" rx="3.2" ry="3.2"/>
</g>
<!-- faqs&#45;&gt;users -->
<g id="edge2" class="edge">
<title>faqs:w&#45;&gt;users:e</title>
<path fill="none" stroke="#000000" d="M125.0846,-273.9534C107.902,-258.8202 118.9886,-212.7 88,-212.7"/>
<polygon fill="#000000" stroke="#000000" points="131.4284,-276.1173 137.8378,-282.1072 135.2142,-277.4086 139,-278.7 139,-278.7 139,-278.7 135.2142,-277.4086 140.1622,-275.2928 131.4284,-276.1173 131.4284,-276.1173"/>
<ellipse fill="none" stroke="#000000" cx="128.3997" cy="-275.0842" rx="3.2" ry="3.2"/>
</g>
<!-- messages -->
<g id="node3" class="node">
<title>messages</title>
<g id="a_node3"><a xlink:href="../../tables/messages.html" xlink:title="messages" target="_top">
<polygon fill="#ffffff" stroke="transparent" points="180.5,-120.2 180.5,-181.2 277.5,-181.2 277.5,-120.2 180.5,-120.2"/>
<polygon fill="#f5f5f5" stroke="transparent" points="181,-157.7 181,-180.7 278,-180.7 278,-157.7 181,-157.7"/>
<polygon fill="none" stroke="#000000" points="181,-157.7 181,-180.7 278,-180.7 278,-157.7 181,-157.7"/>
<text text-anchor="start" x="186" y="-166.3" font-family="Helvetica,sans-Serif" font-weight="bold" font-size="11.00" fill="#000000">messages</text>
<text text-anchor="start" x="243.5219" y="-165.8" font-family="Helvetica,sans-Serif" font-size="11.00" fill="#000000">[table]</text>
<polygon fill="none" stroke="#000000" points="181,-138.7 181,-157.7 278,-157.7 278,-138.7 181,-138.7"/>
<text text-anchor="start" x="184" y="-144.8" font-family="Helvetica,sans-Serif" font-size="11.00" fill="#000000">...</text>
<polygon fill="#ffffff" stroke="transparent" points="181,-119.7 181,-138.7 210,-138.7 210,-119.7 181,-119.7"/>
<polygon fill="none" stroke="#000000" points="181,-119.7 181,-138.7 210,-138.7 210,-119.7 181,-119.7"/>
<text text-anchor="start" x="184" y="-125.8" font-family="Helvetica,sans-Serif" font-size="11.00" fill="#000000">&lt; 3</text>
<polygon fill="#ffffff" stroke="transparent" points="210,-119.7 210,-138.7 252,-138.7 252,-119.7 210,-119.7"/>
<polygon fill="none" stroke="#000000" points="210,-119.7 210,-138.7 252,-138.7 252,-119.7 210,-119.7"/>
<text text-anchor="start" x="216.6105" y="-125.8" font-family="Helvetica,sans-Serif" font-size="11.00" fill="#000000">0 rows</text>
<polygon fill="#ffffff" stroke="transparent" points="252,-119.7 252,-138.7 278,-138.7 278,-119.7 252,-119.7"/>
<polygon fill="none" stroke="#000000" points="252,-119.7 252,-138.7 278,-138.7 278,-119.7 252,-119.7"/>
<text text-anchor="start" x="259.4053" y="-125.8" font-family="Helvetica,sans-Serif" font-size="11.00" fill="#000000">1 &gt;</text>
</a>
</g>
</g>
<!-- messages&#45;&gt;users -->
<g id="edge3" class="edge">
<title>messages:w&#45;&gt;users:e</title>
<path fill="none" stroke="#000000" d="M166.3925,-149.8627C131.5931,-161.1412 132.9127,-212.7 88,-212.7"/>
<polygon fill="#000000" stroke="#000000" points="173.0863,-148.8717 181.5273,-151.2612 177.0431,-148.2858 181,-147.7 181,-147.7 181,-147.7 177.0431,-148.2858 180.4727,-144.1388 173.0863,-148.8717 173.0863,-148.8717"/>
<ellipse fill="none" stroke="#000000" cx="169.9208" cy="-149.3404" rx="3.2" ry="3.2"/>
</g>
<!-- responses -->
<g id="node4" class="node">
<title>responses</title>
<g id="a_node4"><a xlink:href="../../tables/responses.html" xlink:title="responses" target="_top">
<polygon fill="#ffffff" stroke="transparent" points="179.5,-38.2 179.5,-99.2 278.5,-99.2 278.5,-38.2 179.5,-38.2"/>
<polygon fill="#f5f5f5" stroke="transparent" points="180,-75.7 180,-98.7 279,-98.7 279,-75.7 180,-75.7"/>
<polygon fill="none" stroke="#000000" points="180,-75.7 180,-98.7 279,-98.7 279,-75.7 180,-75.7"/>
<text text-anchor="start" x="185" y="-84.3" font-family="Helvetica,sans-Serif" font-weight="bold" font-size="11.00" fill="#000000">responses</text>
<text text-anchor="start" x="244.5219" y="-83.8" font-family="Helvetica,sans-Serif" font-size="11.00" fill="#000000">[table]</text>
<polygon fill="none" stroke="#000000" points="180,-56.7 180,-75.7 279,-75.7 279,-56.7 180,-56.7"/>
<text text-anchor="start" x="183" y="-62.8" font-family="Helvetica,sans-Serif" font-size="11.00" fill="#000000">...</text>
<polygon fill="#ffffff" stroke="transparent" points="180,-37.7 180,-56.7 210,-56.7 210,-37.7 180,-37.7"/>
<polygon fill="none" stroke="#000000" points="180,-37.7 180,-56.7 210,-56.7 210,-37.7 180,-37.7"/>
<text text-anchor="start" x="183" y="-43.8" font-family="Helvetica,sans-Serif" font-size="11.00" fill="#000000">&lt; 3</text>
<polygon fill="#ffffff" stroke="transparent" points="210,-37.7 210,-56.7 253,-56.7 253,-37.7 210,-37.7"/>
<polygon fill="none" stroke="#000000" points="210,-37.7 210,-56.7 253,-56.7 253,-37.7 210,-37.7"/>
<text text-anchor="start" x="217.6105" y="-43.8" font-family="Helvetica,sans-Serif" font-size="11.00" fill="#000000">0 rows</text>
<polygon fill="#ffffff" stroke="transparent" points="253,-37.7 253,-56.7 279,-56.7 279,-37.7 253,-37.7"/>
<polygon fill="none" stroke="#000000" points="253,-37.7 253,-56.7 279,-56.7 279,-37.7 253,-37.7"/>
<text text-anchor="start" x="260.4053" y="-43.8" font-family="Helvetica,sans-Serif" font-size="11.00" fill="#000000">1 &gt;</text>
</a>
</g>
</g>
<!-- responses&#45;&gt;users -->
<g id="edge4" class="edge">
<title>responses:w&#45;&gt;users:e</title>
<path fill="none" stroke="#000000" d="M165.6651,-67.671C148.1967,-73.2236 143.1108,-89.888 129,-109.7 100.4162,-149.8325 137.2712,-212.7 88,-212.7"/>
<polygon fill="#000000" stroke="#000000" points="172.0746,-66.7898 180.4904,-69.2664 176.0373,-66.2449 180,-65.7 180,-65.7 180,-65.7 176.0373,-66.2449 179.5096,-62.1336 172.0746,-66.7898 172.0746,-66.7898"/>
<ellipse fill="none" stroke="#000000" cx="168.9044" cy="-67.2257" rx="3.2" ry="3.2"/>
</g>
</g>
</svg>
