<?xml version="1.0" encoding="UTF-8" standalone="no"?>
<!DOCTYPE svg PUBLIC "-//W3C//DTD SVG 1.1//EN"
 "http://www.w3.org/Graphics/SVG/1.1/DTD/svg11.dtd">
<!-- Generated by graphviz version 2.40.1 (20161225.0304)
 -->
<!-- Title: twoDegreesRelationshipsDiagram Pages: 1 -->
<svg width="557pt" height="437pt"
 viewBox="0.00 0.00 557.00 436.70" xmlns="http://www.w3.org/2000/svg" xmlns:xlink="http://www.w3.org/1999/xlink">
<g id="graph0" class="graph" transform="scale(1 1) rotate(0) translate(4 432.7)">
<title>twoDegreesRelationshipsDiagram</title>
<polygon fill="#ffffff" stroke="transparent" points="-4,4 -4,-432.7 553,-432.7 553,4 -4,4"/>
<text text-anchor="middle" x="72.4936" y="-7.3" font-family="Helvetica,sans-Serif" font-size="11.00" fill="#000000">Generated by SchemaSpy</text>
<!-- options -->
<g id="node1" class="node">
<title>options</title>
<g id="a_node1"><a xlink:href="../../tables/options.html" xlink:title="options" target="_top">
<polygon fill="#ffffff" stroke="transparent" points="422.5,-359.2 422.5,-420.2 504.5,-420.2 504.5,-359.2 422.5,-359.2"/>
<polygon fill="#f5f5f5" stroke="transparent" points="422.5,-396.7 422.5,-419.7 504.5,-419.7 504.5,-396.7 422.5,-396.7"/>
<polygon fill="none" stroke="#000000" points="422.5,-396.7 422.5,-419.7 504.5,-419.7 504.5,-396.7 422.5,-396.7"/>
<text text-anchor="start" x="427.5" y="-405.3" font-family="Helvetica,sans-Serif" font-weight="bold" font-size="11.00" fill="#000000">options</text>
<text text-anchor="start" x="470.0219" y="-404.8" font-family="Helvetica,sans-Serif" font-size="11.00" fill="#000000">[table]</text>
<polygon fill="none" stroke="#000000" points="422.5,-377.7 422.5,-396.7 504.5,-396.7 504.5,-377.7 422.5,-377.7"/>
<text text-anchor="start" x="425.5" y="-383.8" font-family="Helvetica,sans-Serif" font-size="11.00" fill="#000000">...</text>
<polygon fill="#ffffff" stroke="transparent" points="422.5,-358.7 422.5,-377.7 448.5,-377.7 448.5,-358.7 422.5,-358.7"/>
<polygon fill="none" stroke="#000000" points="422.5,-358.7 422.5,-377.7 448.5,-377.7 448.5,-358.7 422.5,-358.7"/>
<text text-anchor="start" x="425.5" y="-364.8" font-family="Helvetica,sans-Serif" font-size="11.00" fill="#000000">&lt; 1</text>
<polygon fill="#ffffff" stroke="transparent" points="448.5,-358.7 448.5,-377.7 489.5,-377.7 489.5,-358.7 448.5,-358.7"/>
<polygon fill="none" stroke="#000000" points="448.5,-358.7 448.5,-377.7 489.5,-377.7 489.5,-358.7 448.5,-358.7"/>
<text text-anchor="start" x="454.1105" y="-364.8" font-family="Helvetica,sans-Serif" font-size="11.00" fill="#000000">0 rows</text>
<polygon fill="#ffffff" stroke="transparent" points="489.5,-358.7 489.5,-377.7 504.5,-377.7 504.5,-358.7 489.5,-358.7"/>
<polygon fill="none" stroke="#000000" points="489.5,-358.7 489.5,-377.7 504.5,-377.7 504.5,-358.7 489.5,-358.7"/>
<text text-anchor="start" x="495.3862" y="-364.8" font-family="Helvetica,sans-Serif" font-size="11.00" fill="#000000"> &#160;</text>
</a>
</g>
</g>
<!-- questions -->
<g id="node2" class="node">
<title>questions</title>
<g id="a_node2"><a xlink:href="../../tables/questions.html" xlink:title="questions" target="_top">
<polygon fill="#ffffff" stroke="transparent" points="240,-316.2 240,-421.2 335,-421.2 335,-316.2 240,-316.2"/>
<polygon fill="#f5f5f5" stroke="transparent" points="240.5,-397.7 240.5,-420.7 335.5,-420.7 335.5,-397.7 240.5,-397.7"/>
<polygon fill="none" stroke="#000000" points="240.5,-397.7 240.5,-420.7 335.5,-420.7 335.5,-397.7 240.5,-397.7"/>
<text text-anchor="start" x="245.5" y="-406.3" font-family="Helvetica,sans-Serif" font-weight="bold" font-size="11.00" fill="#000000">questions</text>
<text text-anchor="start" x="301.0219" y="-405.8" font-family="Helvetica,sans-Serif" font-size="11.00" fill="#000000">[table]</text>
<polygon fill="none" stroke="#000000" points="240.5,-375.7 240.5,-397.7 335.5,-397.7 335.5,-375.7 240.5,-375.7"/>
<image xlink:href="../../images/primaryKeys.png" width="11px" height="12px" preserveAspectRatio="xMinYMin meet" x="245.5" y="-392.7"/>
<text text-anchor="start" x="260.5" y="-382.8" font-family="Helvetica,sans-Serif" font-size="11.00" fill="#000000">id_questions</text>
<polygon fill="none" stroke="#000000" points="240.5,-353.7 240.5,-375.7 335.5,-375.7 335.5,-353.7 240.5,-353.7"/>
<image xlink:href="../../images/foreignKeys.png" width="11px" height="12px" preserveAspectRatio="xMinYMin meet" x="245.5" y="-370.7"/>
<text text-anchor="start" x="260.5" y="-360.8" font-family="Helvetica,sans-Serif" font-size="11.00" fill="#000000">formId</text>
<polygon fill="none" stroke="#000000" points="240.5,-334.7 240.5,-353.7 335.5,-353.7 335.5,-334.7 240.5,-334.7"/>
<text text-anchor="start" x="243.5" y="-340.8" font-family="Helvetica,sans-Serif" font-size="11.00" fill="#000000">...</text>
<polygon fill="#ffffff" stroke="transparent" points="240.5,-315.7 240.5,-334.7 268.5,-334.7 268.5,-315.7 240.5,-315.7"/>
<polygon fill="none" stroke="#000000" points="240.5,-315.7 240.5,-334.7 268.5,-334.7 268.5,-315.7 240.5,-315.7"/>
<text text-anchor="start" x="243.5" y="-321.8" font-family="Helvetica,sans-Serif" font-size="11.00" fill="#000000">&lt; 1</text>
<polygon fill="#ffffff" stroke="transparent" points="268.5,-315.7 268.5,-334.7 310.5,-334.7 310.5,-315.7 268.5,-315.7"/>
<polygon fill="none" stroke="#000000" points="268.5,-315.7 268.5,-334.7 310.5,-334.7 310.5,-315.7 268.5,-315.7"/>
<text text-anchor="start" x="275.1105" y="-321.8" font-family="Helvetica,sans-Serif" font-size="11.00" fill="#000000">0 rows</text>
<polygon fill="#ffffff" stroke="transparent" points="310.5,-315.7 310.5,-334.7 335.5,-334.7 335.5,-315.7 310.5,-315.7"/>
<polygon fill="none" stroke="#000000" points="310.5,-315.7 310.5,-334.7 335.5,-334.7 335.5,-315.7 310.5,-315.7"/>
<text text-anchor="start" x="316.9053" y="-321.8" font-family="Helvetica,sans-Serif" font-size="11.00" fill="#000000">2 &gt;</text>
</a>
</g>
</g>
<!-- options&#45;&gt;questions -->
<g id="edge1" class="edge">
<title>options:w&#45;&gt;questions:e</title>
<path fill="none" stroke="#000000" d="M407.7467,-386.7C380.5411,-386.7 368.7292,-386.7 335.5,-386.7"/>
<polygon fill="#000000" stroke="#000000" points="414.5,-386.7001 422.5,-390.3 418.5,-386.7 422.5,-386.7 422.5,-386.7 422.5,-386.7 418.5,-386.7 422.5,-383.1 414.5,-386.7001 414.5,-386.7001"/>
<ellipse fill="none" stroke="#000000" cx="411.3" cy="-386.7001" rx="3.2" ry="3.2"/>
</g>
<!-- forms -->
<g id="node5" class="node">
<title>forms</title>
<g id="a_node5"><a xlink:href="../../tables/forms.html" xlink:title="forms" target="_top">
<polygon fill="#ffffff" stroke="transparent" points="8,-202.7 8,-424.7 189,-424.7 189,-202.7 8,-202.7"/>
<polygon fill="#f5f5f5" stroke="transparent" points="10.5,-399.7 10.5,-422.7 187.5,-422.7 187.5,-399.7 10.5,-399.7"/>
<polygon fill="none" stroke="#000000" points="10.5,-399.7 10.5,-422.7 187.5,-422.7 187.5,-399.7 10.5,-399.7"/>
<text text-anchor="start" x="15.5" y="-408.3" font-family="Helvetica,sans-Serif" font-weight="bold" font-size="11.00" fill="#000000">forms</text>
<text text-anchor="start" x="152.5437" y="-407.8" font-family="Helvetica,sans-Serif" font-size="11.00" fill="#000000">[table]</text>
<polygon fill="none" stroke="#000000" points="10.5,-377.7 10.5,-399.7 95.5,-399.7 95.5,-377.7 10.5,-377.7"/>
<image xlink:href="../../images/primaryKeys.png" width="11px" height="12px" preserveAspectRatio="xMinYMin meet" x="15.5" y="-394.7"/>
<text text-anchor="start" x="30.5" y="-384.8" font-family="Helvetica,sans-Serif" font-size="11.00" fill="#000000">id_forms</text>
<polygon fill="none" stroke="#000000" points="95.5,-377.7 95.5,-399.7 187.5,-399.7 187.5,-377.7 95.5,-377.7"/>
<text text-anchor="start" x="98.5" y="-385.4" font-family="Helvetica,sans-Serif" font-size="11.00" fill="#000000">serial[10]</text>
<polygon fill="none" stroke="#000000" points="10.5,-355.7 10.5,-377.7 95.5,-377.7 95.5,-355.7 10.5,-355.7"/>
<text text-anchor="start" x="30.5" y="-362.8" font-family="Helvetica,sans-Serif" font-size="11.00" fill="#000000">title</text>
<polygon fill="none" stroke="#000000" points="95.5,-355.7 95.5,-377.7 187.5,-377.7 187.5,-355.7 95.5,-355.7"/>
<text text-anchor="start" x="98.5" y="-363.4" font-family="Helvetica,sans-Serif" font-size="11.00" fill="#000000">varchar[255]</text>
<polygon fill="none" stroke="#000000" points="10.5,-333.7 10.5,-355.7 95.5,-355.7 95.5,-333.7 10.5,-333.7"/>
<text text-anchor="start" x="30.5" y="-340.8" font-family="Helvetica,sans-Serif" font-size="11.00" fill="#000000">description</text>
<polygon fill="none" stroke="#000000" points="95.5,-333.7 95.5,-355.7 187.5,-355.7 187.5,-333.7 95.5,-333.7"/>
<text text-anchor="start" x="98.5" y="-341.4" font-family="Helvetica,sans-Serif" font-size="11.00" fill="#000000">text[2147483647]</text>
<polygon fill="none" stroke="#000000" points="10.5,-311.7 10.5,-333.7 95.5,-333.7 95.5,-311.7 10.5,-311.7"/>
<text text-anchor="start" x="30.5" y="-318.8" font-family="Helvetica,sans-Serif" font-size="11.00" fill="#000000">isActive</text>
<polygon fill="none" stroke="#000000" points="95.5,-311.7 95.5,-333.7 187.5,-333.7 187.5,-311.7 95.5,-311.7"/>
<text text-anchor="start" x="98.5" y="-319.4" font-family="Helvetica,sans-Serif" font-size="11.00" fill="#000000">bool[1]</text>
<polygon fill="none" stroke="#000000" points="10.5,-289.7 10.5,-311.7 95.5,-311.7 95.5,-289.7 10.5,-289.7"/>
<text text-anchor="start" x="30.5" y="-296.8" font-family="Helvetica,sans-Serif" font-size="11.00" fill="#000000">maxScore</text>
<polygon fill="none" stroke="#000000" points="95.5,-289.7 95.5,-311.7 187.5,-311.7 187.5,-289.7 95.5,-289.7"/>
<text text-anchor="start" x="98.5" y="-297.4" font-family="Helvetica,sans-Serif" font-size="11.00" fill="#000000">int4[10]</text>
<polygon fill="none" stroke="#000000" points="10.5,-267.7 10.5,-289.7 95.5,-289.7 95.5,-267.7 10.5,-267.7"/>
<text text-anchor="start" x="30.5" y="-274.8" font-family="Helvetica,sans-Serif" font-size="11.00" fill="#000000">labels_id</text>
<polygon fill="none" stroke="#000000" points="95.5,-267.7 95.5,-289.7 187.5,-289.7 187.5,-267.7 95.5,-267.7"/>
<text text-anchor="start" x="98.5" y="-275.4" font-family="Helvetica,sans-Serif" font-size="11.00" fill="#000000">_int4[10]</text>
<polygon fill="none" stroke="#000000" points="10.5,-245.7 10.5,-267.7 95.5,-267.7 95.5,-245.7 10.5,-245.7"/>
<text text-anchor="start" x="30.5" y="-252.8" font-family="Helvetica,sans-Serif" font-size="11.00" fill="#000000">createdAt</text>
<polygon fill="none" stroke="#000000" points="95.5,-245.7 95.5,-267.7 187.5,-267.7 187.5,-245.7 95.5,-245.7"/>
<text text-anchor="start" x="98.1023" y="-253.4" font-family="Helvetica,sans-Serif" font-size="11.00" fill="#000000">timestamptz[35,6]</text>
<polygon fill="none" stroke="#000000" points="10.5,-223.7 10.5,-245.7 95.5,-245.7 95.5,-223.7 10.5,-223.7"/>
<text text-anchor="start" x="30.5" y="-230.8" font-family="Helvetica,sans-Serif" font-size="11.00" fill="#000000">updatedAt</text>
<polygon fill="none" stroke="#000000" points="95.5,-223.7 95.5,-245.7 187.5,-245.7 187.5,-223.7 95.5,-223.7"/>
<text text-anchor="start" x="98.1023" y="-231.4" font-family="Helvetica,sans-Serif" font-size="11.00" fill="#000000">timestamptz[35,6]</text>
<polygon fill="#ffffff" stroke="transparent" points="10.5,-204.7 10.5,-223.7 44.5,-223.7 44.5,-204.7 10.5,-204.7"/>
<polygon fill="none" stroke="#000000" points="10.5,-204.7 10.5,-223.7 44.5,-223.7 44.5,-204.7 10.5,-204.7"/>
<text text-anchor="start" x="13.5" y="-210.8" font-family="Helvetica,sans-Serif" font-size="11.00" fill="#000000">&lt; 0</text>
<polygon fill="#ffffff" stroke="transparent" points="44.5,-204.7 44.5,-223.7 95.5,-223.7 95.5,-204.7 44.5,-204.7"/>
<polygon fill="none" stroke="#000000" points="44.5,-204.7 44.5,-223.7 95.5,-223.7 95.5,-204.7 44.5,-204.7"/>
<text text-anchor="start" x="60.1105" y="-210.8" font-family="Helvetica,sans-Serif" font-size="11.00" fill="#000000">0 rows</text>
<polygon fill="#ffffff" stroke="transparent" points="95.5,-204.7 95.5,-223.7 187.5,-223.7 187.5,-204.7 95.5,-204.7"/>
<polygon fill="none" stroke="#000000" points="95.5,-204.7 95.5,-223.7 187.5,-223.7 187.5,-204.7 95.5,-204.7"/>
<text text-anchor="start" x="168.9053" y="-210.8" font-family="Helvetica,sans-Serif" font-size="11.00" fill="#000000">2 &gt;</text>
<polygon fill="none" stroke="#000000" stroke-width="2" points="9,-203.7 9,-423.7 188,-423.7 188,-203.7 9,-203.7"/>
</a>
</g>
</g>
<!-- questions&#45;&gt;forms -->
<g id="edge4" class="edge">
<title>questions:w&#45;&gt;forms:e</title>
<path fill="none" stroke="#000000" d="M226.1372,-367.8376C212.7988,-374.3431 207.4996,-388.7 187.5,-388.7"/>
<polygon fill="#000000" stroke="#000000" points="232.6843,-366.4074 241.2683,-368.2171 236.5922,-365.5537 240.5,-364.7 240.5,-364.7 240.5,-364.7 236.5922,-365.5537 239.7317,-361.1829 232.6843,-366.4074 232.6843,-366.4074"/>
<ellipse fill="none" stroke="#000000" cx="229.558" cy="-367.0904" rx="3.2" ry="3.2"/>
</g>
<!-- question_responses -->
<g id="node3" class="node">
<title>question_responses</title>
<g id="a_node3"><a xlink:href="../../tables/question_responses.html" xlink:title="question_responses" target="_top">
<polygon fill="#ffffff" stroke="transparent" points="386,-255.2 386,-316.2 541,-316.2 541,-255.2 386,-255.2"/>
<polygon fill="#f5f5f5" stroke="transparent" points="386.5,-292.7 386.5,-315.7 541.5,-315.7 541.5,-292.7 386.5,-292.7"/>
<polygon fill="none" stroke="#000000" points="386.5,-292.7 386.5,-315.7 541.5,-315.7 541.5,-292.7 386.5,-292.7"/>
<text text-anchor="start" x="391.5" y="-301.3" font-family="Helvetica,sans-Serif" font-weight="bold" font-size="11.00" fill="#000000">question_responses</text>
<text text-anchor="start" x="507.0219" y="-300.8" font-family="Helvetica,sans-Serif" font-size="11.00" fill="#000000">[table]</text>
<polygon fill="none" stroke="#000000" points="386.5,-273.7 386.5,-292.7 541.5,-292.7 541.5,-273.7 386.5,-273.7"/>
<text text-anchor="start" x="389.5" y="-279.8" font-family="Helvetica,sans-Serif" font-size="11.00" fill="#000000">...</text>
<polygon fill="#ffffff" stroke="transparent" points="386.5,-254.7 386.5,-273.7 449.5,-273.7 449.5,-254.7 386.5,-254.7"/>
<polygon fill="none" stroke="#000000" points="386.5,-254.7 386.5,-273.7 449.5,-273.7 449.5,-254.7 386.5,-254.7"/>
<text text-anchor="start" x="389.5" y="-260.8" font-family="Helvetica,sans-Serif" font-size="11.00" fill="#000000">&lt; 2</text>
<polygon fill="#ffffff" stroke="transparent" points="449.5,-254.7 449.5,-273.7 508.5,-273.7 508.5,-254.7 449.5,-254.7"/>
<polygon fill="none" stroke="#000000" points="449.5,-254.7 449.5,-273.7 508.5,-273.7 508.5,-254.7 449.5,-254.7"/>
<text text-anchor="start" x="473.1105" y="-260.8" font-family="Helvetica,sans-Serif" font-size="11.00" fill="#000000">0 rows</text>
<polygon fill="#ffffff" stroke="transparent" points="508.5,-254.7 508.5,-273.7 541.5,-273.7 541.5,-254.7 508.5,-254.7"/>
<polygon fill="none" stroke="#000000" points="508.5,-254.7 508.5,-273.7 541.5,-273.7 541.5,-254.7 508.5,-254.7"/>
<text text-anchor="start" x="532.3862" y="-260.8" font-family="Helvetica,sans-Serif" font-size="11.00" fill="#000000"> &#160;</text>
</a>
</g>
</g>
<!-- question_responses&#45;&gt;questions -->
<g id="edge3" class="edge">
<title>question_responses:w&#45;&gt;questions:e</title>
<path fill="none" stroke="#000000" d="M372.33,-286.6499C345.7771,-305.6468 380.9479,-386.7 335.5,-386.7"/>
<polygon fill="#000000" stroke="#000000" points="378.7938,-284.8482 387.4667,-286.1678 382.6469,-283.7741 386.5,-282.7 386.5,-282.7 386.5,-282.7 382.6469,-283.7741 385.5333,-279.2322 378.7938,-284.8482 378.7938,-284.8482"/>
<ellipse fill="none" stroke="#000000" cx="375.7113" cy="-285.7074" rx="3.2" ry="3.2"/>
</g>
<!-- responses -->
<g id="node4" class="node">
<title>responses</title>
<g id="a_node4"><a xlink:href="../../tables/responses.html" xlink:title="responses" target="_top">
<polygon fill="#ffffff" stroke="transparent" points="238,-100.2 238,-249.2 337,-249.2 337,-100.2 238,-100.2"/>
<polygon fill="#f5f5f5" stroke="transparent" points="238.5,-225.7 238.5,-248.7 337.5,-248.7 337.5,-225.7 238.5,-225.7"/>
<polygon fill="none" stroke="#000000" points="238.5,-225.7 238.5,-248.7 337.5,-248.7 337.5,-225.7 238.5,-225.7"/>
<text text-anchor="start" x="243.5" y="-234.3" font-family="Helvetica,sans-Serif" font-weight="bold" font-size="11.00" fill="#000000">responses</text>
<text text-anchor="start" x="303.0219" y="-233.8" font-family="Helvetica,sans-Serif" font-size="11.00" fill="#000000">[table]</text>
<polygon fill="none" stroke="#000000" points="238.5,-203.7 238.5,-225.7 337.5,-225.7 337.5,-203.7 238.5,-203.7"/>
<image xlink:href="../../images/primaryKeys.png" width="11px" height="12px" preserveAspectRatio="xMinYMin meet" x="243.5" y="-220.7"/>
<text text-anchor="start" x="259.5" y="-210.8" font-family="Helvetica,sans-Serif" font-size="11.00" fill="#000000">id_responses</text>
<polygon fill="none" stroke="#000000" points="238.5,-181.7 238.5,-203.7 337.5,-203.7 337.5,-181.7 238.5,-181.7"/>
<image xlink:href="../../images/foreignKeys.png" width="11px" height="12px" preserveAspectRatio="xMinYMin meet" x="243.5" y="-198.7"/>
<text text-anchor="start" x="259.5" y="-188.8" font-family="Helvetica,sans-Serif" font-size="11.00" fill="#000000">formId</text>
<polygon fill="none" stroke="#000000" points="238.5,-159.7 238.5,-181.7 337.5,-181.7 337.5,-159.7 238.5,-159.7"/>
<image xlink:href="../../images/foreignKeys.png" width="11px" height="12px" preserveAspectRatio="xMinYMin meet" x="243.5" y="-176.7"/>
<text text-anchor="start" x="259.5" y="-166.8" font-family="Helvetica,sans-Serif" font-size="11.00" fill="#000000">submittedBy</text>
<polygon fill="none" stroke="#000000" points="238.5,-137.7 238.5,-159.7 337.5,-159.7 337.5,-137.7 238.5,-137.7"/>
<image xlink:href="../../images/foreignKeys.png" width="11px" height="12px" preserveAspectRatio="xMinYMin meet" x="243.5" y="-154.7"/>
<text text-anchor="start" x="259.5" y="-144.8" font-family="Helvetica,sans-Serif" font-size="11.00" fill="#000000">assignedBy</text>
<polygon fill="none" stroke="#000000" points="238.5,-118.7 238.5,-137.7 337.5,-137.7 337.5,-118.7 238.5,-118.7"/>
<text text-anchor="start" x="241.5" y="-124.8" font-family="Helvetica,sans-Serif" font-size="11.00" fill="#000000">...</text>
<polygon fill="#ffffff" stroke="transparent" points="238.5,-99.7 238.5,-118.7 268.5,-118.7 268.5,-99.7 238.5,-99.7"/>
<polygon fill="none" stroke="#000000" points="238.5,-99.7 238.5,-118.7 268.5,-118.7 268.5,-99.7 238.5,-99.7"/>
<text text-anchor="start" x="241.5" y="-105.8" font-family="Helvetica,sans-Serif" font-size="11.00" fill="#000000">&lt; 3</text>
<polygon fill="#ffffff" stroke="transparent" points="268.5,-99.7 268.5,-118.7 311.5,-118.7 311.5,-99.7 268.5,-99.7"/>
<polygon fill="none" stroke="#000000" points="268.5,-99.7 268.5,-118.7 311.5,-118.7 311.5,-99.7 268.5,-99.7"/>
<text text-anchor="start" x="276.1105" y="-105.8" font-family="Helvetica,sans-Serif" font-size="11.00" fill="#000000">0 rows</text>
<polygon fill="#ffffff" stroke="transparent" points="311.5,-99.7 311.5,-118.7 337.5,-118.7 337.5,-99.7 311.5,-99.7"/>
<polygon fill="none" stroke="#000000" points="311.5,-99.7 311.5,-118.7 337.5,-118.7 337.5,-99.7 311.5,-99.7"/>
<text text-anchor="start" x="318.9053" y="-105.8" font-family="Helvetica,sans-Serif" font-size="11.00" fill="#000000">1 &gt;</text>
</a>
</g>
</g>
<!-- question_responses&#45;&gt;responses -->
<g id="edge2" class="edge">
<title>question_responses:w&#45;&gt;responses:e</title>
<path fill="none" stroke="#000000" d="M372.6785,-277.8096C355.9277,-262.2178 368.6397,-214.7 337.5,-214.7"/>
<polygon fill="#000000" stroke="#000000" points="378.9582,-280.0315 385.2992,-286.0938 382.7291,-281.3657 386.5,-282.7 386.5,-282.7 386.5,-282.7 382.7291,-281.3657 387.7008,-279.3062 378.9582,-280.0315 378.9582,-280.0315"/>
<ellipse fill="none" stroke="#000000" cx="375.9414" cy="-278.9641" rx="3.2" ry="3.2"/>
</g>
<!-- responses&#45;&gt;forms -->
<g id="edge6" class="edge">
<title>responses:w&#45;&gt;forms:e</title>
<path fill="none" stroke="#000000" d="M224.0827,-194.9012C163.7605,-216.4344 271.8861,-388.7 187.5,-388.7"/>
<polygon fill="#000000" stroke="#000000" points="230.5916,-193.9075 239.0434,-196.2588 234.5458,-193.3037 238.5,-192.7 238.5,-192.7 238.5,-192.7 234.5458,-193.3037 237.9566,-189.1412 230.5916,-193.9075 230.5916,-193.9075"/>
<ellipse fill="none" stroke="#000000" cx="227.4283" cy="-194.3904" rx="3.2" ry="3.2"/>
</g>
<!-- users -->
<g id="node6" class="node">
<title>users</title>
<g id="a_node6"><a xlink:href="../../tables/users.html" xlink:title="users" target="_top">
<polygon fill="#ffffff" stroke="transparent" points="63,-38.2 63,-99.2 134,-99.2 134,-38.2 63,-38.2"/>
<polygon fill="#f5f5f5" stroke="transparent" points="63.5,-75.7 63.5,-98.7 134.5,-98.7 134.5,-75.7 63.5,-75.7"/>
<polygon fill="none" stroke="#000000" points="63.5,-75.7 63.5,-98.7 134.5,-98.7 134.5,-75.7 63.5,-75.7"/>
<text text-anchor="start" x="68.5" y="-84.3" font-family="Helvetica,sans-Serif" font-weight="bold" font-size="11.00" fill="#000000">users</text>
<text text-anchor="start" x="100.0219" y="-83.8" font-family="Helvetica,sans-Serif" font-size="11.00" fill="#000000">[table]</text>
<polygon fill="none" stroke="#000000" points="63.5,-56.7 63.5,-75.7 134.5,-75.7 134.5,-56.7 63.5,-56.7"/>
<text text-anchor="start" x="66.5" y="-62.8" font-family="Helvetica,sans-Serif" font-size="11.00" fill="#000000">...</text>
<polygon fill="#ffffff" stroke="transparent" points="63.5,-37.7 63.5,-56.7 75.5,-56.7 75.5,-37.7 63.5,-37.7"/>
<polygon fill="none" stroke="#000000" points="63.5,-37.7 63.5,-56.7 75.5,-56.7 75.5,-37.7 63.5,-37.7"/>
<text text-anchor="start" x="66.4431" y="-43.8" font-family="Helvetica,sans-Serif" font-size="11.00" fill="#000000"> &#160;</text>
<polygon fill="#ffffff" stroke="transparent" points="75.5,-37.7 75.5,-56.7 113.5,-56.7 113.5,-37.7 75.5,-37.7"/>
<polygon fill="none" stroke="#000000" points="75.5,-37.7 75.5,-56.7 113.5,-56.7 113.5,-37.7 75.5,-37.7"/>
<text text-anchor="start" x="78.3053" y="-43.8" font-family="Helvetica,sans-Serif" font-size="11.00" fill="#000000">0 rows</text>
<polygon fill="#ffffff" stroke="transparent" points="113.5,-37.7 113.5,-56.7 134.5,-56.7 134.5,-37.7 113.5,-37.7"/>
<polygon fill="none" stroke="#000000" points="113.5,-37.7 113.5,-56.7 134.5,-56.7 134.5,-37.7 113.5,-37.7"/>
<text text-anchor="start" x="116.2027" y="-43.8" font-family="Helvetica,sans-Serif" font-size="11.00" fill="#000000">4 &gt;</text>
</a>
</g>
</g>
<!-- responses&#45;&gt;users -->
<g id="edge5" class="edge">
<title>responses:w&#45;&gt;users:e</title>
<path fill="none" stroke="#000000" d="M224.4317,-145.0779C213.4986,-137.9669 211.8677,-121.8186 197,-109.7 170.6682,-88.237 168.4709,-65.7 134.5,-65.7"/>
<polygon fill="#000000" stroke="#000000" points="230.7527,-146.7053 237.6024,-152.1863 234.6263,-147.7026 238.5,-148.7 238.5,-148.7 238.5,-148.7 234.6263,-147.7026 239.3976,-145.2137 230.7527,-146.7053 230.7527,-146.7053"/>
<ellipse fill="none" stroke="#000000" cx="227.6537" cy="-145.9074" rx="3.2" ry="3.2"/>
</g>
<!-- patients -->
<g id="node7" class="node">
<title>patients</title>
<g id="a_node7"><a xlink:href="../../tables/patients.html" xlink:title="patients" target="_top">
<polygon fill="#ffffff" stroke="transparent" points="56,-120.2 56,-181.2 141,-181.2 141,-120.2 56,-120.2"/>
<polygon fill="#f5f5f5" stroke="transparent" points="56.5,-157.7 56.5,-180.7 141.5,-180.7 141.5,-157.7 56.5,-157.7"/>
<polygon fill="none" stroke="#000000" points="56.5,-157.7 56.5,-180.7 141.5,-180.7 141.5,-157.7 56.5,-157.7"/>
<text text-anchor="start" x="61.5" y="-166.3" font-family="Helvetica,sans-Serif" font-weight="bold" font-size="11.00" fill="#000000">patients</text>
<text text-anchor="start" x="107.0219" y="-165.8" font-family="Helvetica,sans-Serif" font-size="11.00" fill="#000000">[table]</text>
<polygon fill="none" stroke="#000000" points="56.5,-138.7 56.5,-157.7 141.5,-157.7 141.5,-138.7 56.5,-138.7"/>
<text text-anchor="start" x="59.5" y="-144.8" font-family="Helvetica,sans-Serif" font-size="11.00" fill="#000000">...</text>
<polygon fill="#ffffff" stroke="transparent" points="56.5,-119.7 56.5,-138.7 79.5,-138.7 79.5,-119.7 56.5,-119.7"/>
<polygon fill="none" stroke="#000000" points="56.5,-119.7 56.5,-138.7 79.5,-138.7 79.5,-119.7 56.5,-119.7"/>
<text text-anchor="start" x="59.5" y="-125.8" font-family="Helvetica,sans-Serif" font-size="11.00" fill="#000000">&lt; 1</text>
<polygon fill="#ffffff" stroke="transparent" points="79.5,-119.7 79.5,-138.7 118.5,-138.7 118.5,-119.7 79.5,-119.7"/>
<polygon fill="none" stroke="#000000" points="79.5,-119.7 79.5,-138.7 118.5,-138.7 118.5,-119.7 79.5,-119.7"/>
<text text-anchor="start" x="83.1105" y="-125.8" font-family="Helvetica,sans-Serif" font-size="11.00" fill="#000000">0 rows</text>
<polygon fill="#ffffff" stroke="transparent" points="118.5,-119.7 118.5,-138.7 141.5,-138.7 141.5,-119.7 118.5,-119.7"/>
<polygon fill="none" stroke="#000000" points="118.5,-119.7 118.5,-138.7 141.5,-138.7 141.5,-119.7 118.5,-119.7"/>
<text text-anchor="start" x="122.9053" y="-125.8" font-family="Helvetica,sans-Serif" font-size="11.00" fill="#000000">5 &gt;</text>
</a>
</g>
</g>
<!-- responses&#45;&gt;patients -->
<g id="edge7" class="edge">
<title>responses:w&#45;&gt;patients:e</title>
<path fill="none" stroke="#000000" d="M223.8569,-169.7699C191.6356,-165.467 180.4412,-147.7 141.5,-147.7"/>
<polygon fill="#000000" stroke="#000000" points="230.5161,-170.1928 238.2718,-174.2928 234.508,-170.4464 238.5,-170.7 238.5,-170.7 238.5,-170.7 234.508,-170.4464 238.7282,-167.1072 230.5161,-170.1928 230.5161,-170.1928"/>
<ellipse fill="none" stroke="#000000" cx="227.3225" cy="-169.9899" rx="3.2" ry="3.2"/>
</g>
</g>
</svg>
