<?xml version="1.0" encoding="UTF-8" standalone="no"?>
<!DOCTYPE svg PUBLIC "-//W3C//DTD SVG 1.1//EN"
 "http://www.w3.org/Graphics/SVG/1.1/DTD/svg11.dtd">
<!-- Generated by graphviz version 2.40.1 (20161225.0304)
 -->
<!-- Title: oneDegreeRelationshipsDiagram Pages: 1 -->
<svg width="353pt" height="356pt"
 viewBox="0.00 0.00 353.00 355.70" xmlns="http://www.w3.org/2000/svg" xmlns:xlink="http://www.w3.org/1999/xlink">
<g id="graph0" class="graph" transform="scale(1 1) rotate(0) translate(4 351.7)">
<title>oneDegreeRelationshipsDiagram</title>
<polygon fill="#ffffff" stroke="transparent" points="-4,4 -4,-351.7 349,-351.7 349,4 -4,4"/>
<text text-anchor="middle" x="72.4936" y="-7.3" font-family="Helvetica,sans-Serif" font-size="11.00" fill="#000000">Generated by SchemaSpy</text>
<!-- questions -->
<g id="node1" class="node">
<title>questions</title>
<g id="a_node1"><a xlink:href="../../tables/questions.html" xlink:title="questions" target="_top">
<polygon fill="#ffffff" stroke="transparent" points="240,-238.7 240,-343.7 335,-343.7 335,-238.7 240,-238.7"/>
<polygon fill="#f5f5f5" stroke="transparent" points="240.5,-320.2 240.5,-343.2 335.5,-343.2 335.5,-320.2 240.5,-320.2"/>
<polygon fill="none" stroke="#000000" points="240.5,-320.2 240.5,-343.2 335.5,-343.2 335.5,-320.2 240.5,-320.2"/>
<text text-anchor="start" x="245.5" y="-328.8" font-family="Helvetica,sans-Serif" font-weight="bold" font-size="11.00" fill="#000000">questions</text>
<text text-anchor="start" x="301.0219" y="-328.3" font-family="Helvetica,sans-Serif" font-size="11.00" fill="#000000">[table]</text>
<polygon fill="none" stroke="#000000" points="240.5,-298.2 240.5,-320.2 335.5,-320.2 335.5,-298.2 240.5,-298.2"/>
<image xlink:href="../../images/primaryKeys.png" width="11px" height="12px" preserveAspectRatio="xMinYMin meet" x="245.5" y="-315.2"/>
<text text-anchor="start" x="260.5" y="-305.3" font-family="Helvetica,sans-Serif" font-size="11.00" fill="#000000">id_questions</text>
<polygon fill="none" stroke="#000000" points="240.5,-276.2 240.5,-298.2 335.5,-298.2 335.5,-276.2 240.5,-276.2"/>
<image xlink:href="../../images/foreignKeys.png" width="11px" height="12px" preserveAspectRatio="xMinYMin meet" x="245.5" y="-293.2"/>
<text text-anchor="start" x="260.5" y="-283.3" font-family="Helvetica,sans-Serif" font-size="11.00" fill="#000000">formId</text>
<polygon fill="none" stroke="#000000" points="240.5,-257.2 240.5,-276.2 335.5,-276.2 335.5,-257.2 240.5,-257.2"/>
<text text-anchor="start" x="243.5" y="-263.3" font-family="Helvetica,sans-Serif" font-size="11.00" fill="#000000">...</text>
<polygon fill="#ffffff" stroke="transparent" points="240.5,-238.2 240.5,-257.2 268.5,-257.2 268.5,-238.2 240.5,-238.2"/>
<polygon fill="none" stroke="#000000" points="240.5,-238.2 240.5,-257.2 268.5,-257.2 268.5,-238.2 240.5,-238.2"/>
<text text-anchor="start" x="243.5" y="-244.3" font-family="Helvetica,sans-Serif" font-size="11.00" fill="#000000">&lt; 1</text>
<polygon fill="#ffffff" stroke="transparent" points="268.5,-238.2 268.5,-257.2 310.5,-257.2 310.5,-238.2 268.5,-238.2"/>
<polygon fill="none" stroke="#000000" points="268.5,-238.2 268.5,-257.2 310.5,-257.2 310.5,-238.2 268.5,-238.2"/>
<text text-anchor="start" x="275.1105" y="-244.3" font-family="Helvetica,sans-Serif" font-size="11.00" fill="#000000">0 rows</text>
<polygon fill="#ffffff" stroke="transparent" points="310.5,-238.2 310.5,-257.2 335.5,-257.2 335.5,-238.2 310.5,-238.2"/>
<polygon fill="none" stroke="#000000" points="310.5,-238.2 310.5,-257.2 335.5,-257.2 335.5,-238.2 310.5,-238.2"/>
<text text-anchor="start" x="316.9053" y="-244.3" font-family="Helvetica,sans-Serif" font-size="11.00" fill="#000000">2 &gt;</text>
</a>
</g>
</g>
<!-- forms -->
<g id="node2" class="node">
<title>forms</title>
<g id="a_node2"><a xlink:href="../../tables/forms.html" xlink:title="forms" target="_top">
<polygon fill="#ffffff" stroke="transparent" points="8,-38.2 8,-260.2 189,-260.2 189,-38.2 8,-38.2"/>
<polygon fill="#f5f5f5" stroke="transparent" points="10.5,-235.2 10.5,-258.2 187.5,-258.2 187.5,-235.2 10.5,-235.2"/>
<polygon fill="none" stroke="#000000" points="10.5,-235.2 10.5,-258.2 187.5,-258.2 187.5,-235.2 10.5,-235.2"/>
<text text-anchor="start" x="15.5" y="-243.8" font-family="Helvetica,sans-Serif" font-weight="bold" font-size="11.00" fill="#000000">forms</text>
<text text-anchor="start" x="152.5437" y="-243.3" font-family="Helvetica,sans-Serif" font-size="11.00" fill="#000000">[table]</text>
<polygon fill="none" stroke="#000000" points="10.5,-213.2 10.5,-235.2 95.5,-235.2 95.5,-213.2 10.5,-213.2"/>
<image xlink:href="../../images/primaryKeys.png" width="11px" height="12px" preserveAspectRatio="xMinYMin meet" x="15.5" y="-230.2"/>
<text text-anchor="start" x="30.5" y="-220.3" font-family="Helvetica,sans-Serif" font-size="11.00" fill="#000000">id_forms</text>
<polygon fill="none" stroke="#000000" points="95.5,-213.2 95.5,-235.2 187.5,-235.2 187.5,-213.2 95.5,-213.2"/>
<text text-anchor="start" x="98.5" y="-220.9" font-family="Helvetica,sans-Serif" font-size="11.00" fill="#000000">serial[10]</text>
<polygon fill="none" stroke="#000000" points="10.5,-191.2 10.5,-213.2 95.5,-213.2 95.5,-191.2 10.5,-191.2"/>
<text text-anchor="start" x="30.5" y="-198.3" font-family="Helvetica,sans-Serif" font-size="11.00" fill="#000000">title</text>
<polygon fill="none" stroke="#000000" points="95.5,-191.2 95.5,-213.2 187.5,-213.2 187.5,-191.2 95.5,-191.2"/>
<text text-anchor="start" x="98.5" y="-198.9" font-family="Helvetica,sans-Serif" font-size="11.00" fill="#000000">varchar[255]</text>
<polygon fill="none" stroke="#000000" points="10.5,-169.2 10.5,-191.2 95.5,-191.2 95.5,-169.2 10.5,-169.2"/>
<text text-anchor="start" x="30.5" y="-176.3" font-family="Helvetica,sans-Serif" font-size="11.00" fill="#000000">description</text>
<polygon fill="none" stroke="#000000" points="95.5,-169.2 95.5,-191.2 187.5,-191.2 187.5,-169.2 95.5,-169.2"/>
<text text-anchor="start" x="98.5" y="-176.9" font-family="Helvetica,sans-Serif" font-size="11.00" fill="#000000">text[2147483647]</text>
<polygon fill="none" stroke="#000000" points="10.5,-147.2 10.5,-169.2 95.5,-169.2 95.5,-147.2 10.5,-147.2"/>
<text text-anchor="start" x="30.5" y="-154.3" font-family="Helvetica,sans-Serif" font-size="11.00" fill="#000000">isActive</text>
<polygon fill="none" stroke="#000000" points="95.5,-147.2 95.5,-169.2 187.5,-169.2 187.5,-147.2 95.5,-147.2"/>
<text text-anchor="start" x="98.5" y="-154.9" font-family="Helvetica,sans-Serif" font-size="11.00" fill="#000000">bool[1]</text>
<polygon fill="none" stroke="#000000" points="10.5,-125.2 10.5,-147.2 95.5,-147.2 95.5,-125.2 10.5,-125.2"/>
<text text-anchor="start" x="30.5" y="-132.3" font-family="Helvetica,sans-Serif" font-size="11.00" fill="#000000">maxScore</text>
<polygon fill="none" stroke="#000000" points="95.5,-125.2 95.5,-147.2 187.5,-147.2 187.5,-125.2 95.5,-125.2"/>
<text text-anchor="start" x="98.5" y="-132.9" font-family="Helvetica,sans-Serif" font-size="11.00" fill="#000000">int4[10]</text>
<polygon fill="none" stroke="#000000" points="10.5,-103.2 10.5,-125.2 95.5,-125.2 95.5,-103.2 10.5,-103.2"/>
<text text-anchor="start" x="30.5" y="-110.3" font-family="Helvetica,sans-Serif" font-size="11.00" fill="#000000">labels_id</text>
<polygon fill="none" stroke="#000000" points="95.5,-103.2 95.5,-125.2 187.5,-125.2 187.5,-103.2 95.5,-103.2"/>
<text text-anchor="start" x="98.5" y="-110.9" font-family="Helvetica,sans-Serif" font-size="11.00" fill="#000000">_int4[10]</text>
<polygon fill="none" stroke="#000000" points="10.5,-81.2 10.5,-103.2 95.5,-103.2 95.5,-81.2 10.5,-81.2"/>
<text text-anchor="start" x="30.5" y="-88.3" font-family="Helvetica,sans-Serif" font-size="11.00" fill="#000000">createdAt</text>
<polygon fill="none" stroke="#000000" points="95.5,-81.2 95.5,-103.2 187.5,-103.2 187.5,-81.2 95.5,-81.2"/>
<text text-anchor="start" x="98.1023" y="-88.9" font-family="Helvetica,sans-Serif" font-size="11.00" fill="#000000">timestamptz[35,6]</text>
<polygon fill="none" stroke="#000000" points="10.5,-59.2 10.5,-81.2 95.5,-81.2 95.5,-59.2 10.5,-59.2"/>
<text text-anchor="start" x="30.5" y="-66.3" font-family="Helvetica,sans-Serif" font-size="11.00" fill="#000000">updatedAt</text>
<polygon fill="none" stroke="#000000" points="95.5,-59.2 95.5,-81.2 187.5,-81.2 187.5,-59.2 95.5,-59.2"/>
<text text-anchor="start" x="98.1023" y="-66.9" font-family="Helvetica,sans-Serif" font-size="11.00" fill="#000000">timestamptz[35,6]</text>
<polygon fill="#ffffff" stroke="transparent" points="10.5,-40.2 10.5,-59.2 44.5,-59.2 44.5,-40.2 10.5,-40.2"/>
<polygon fill="none" stroke="#000000" points="10.5,-40.2 10.5,-59.2 44.5,-59.2 44.5,-40.2 10.5,-40.2"/>
<text text-anchor="start" x="13.5" y="-46.3" font-family="Helvetica,sans-Serif" font-size="11.00" fill="#000000">&lt; 0</text>
<polygon fill="#ffffff" stroke="transparent" points="44.5,-40.2 44.5,-59.2 95.5,-59.2 95.5,-40.2 44.5,-40.2"/>
<polygon fill="none" stroke="#000000" points="44.5,-40.2 44.5,-59.2 95.5,-59.2 95.5,-40.2 44.5,-40.2"/>
<text text-anchor="start" x="60.1105" y="-46.3" font-family="Helvetica,sans-Serif" font-size="11.00" fill="#000000">0 rows</text>
<polygon fill="#ffffff" stroke="transparent" points="95.5,-40.2 95.5,-59.2 187.5,-59.2 187.5,-40.2 95.5,-40.2"/>
<polygon fill="none" stroke="#000000" points="95.5,-40.2 95.5,-59.2 187.5,-59.2 187.5,-40.2 95.5,-40.2"/>
<text text-anchor="start" x="168.9053" y="-46.3" font-family="Helvetica,sans-Serif" font-size="11.00" fill="#000000">2 &gt;</text>
<polygon fill="none" stroke="#000000" stroke-width="2" points="9,-39.2 9,-259.2 188,-259.2 188,-39.2 9,-39.2"/>
</a>
</g>
</g>
<!-- questions&#45;&gt;forms -->
<g id="edge1" class="edge">
<title>questions:w&#45;&gt;forms:e</title>
<path fill="none" stroke="#000000" d="M226.5735,-282.6692C209.0033,-268.2239 218.0874,-224.2 187.5,-224.2"/>
<polygon fill="#000000" stroke="#000000" points="232.8925,-284.725 239.3862,-290.6234 236.6962,-285.9625 240.5,-287.2 240.5,-287.2 240.5,-287.2 236.6962,-285.9625 241.6138,-283.7766 232.8925,-284.725 232.8925,-284.725"/>
<ellipse fill="none" stroke="#000000" cx="229.8495" cy="-283.7349" rx="3.2" ry="3.2"/>
</g>
<!-- responses -->
<g id="node3" class="node">
<title>responses</title>
<g id="a_node3"><a xlink:href="../../tables/responses.html" xlink:title="responses" target="_top">
<polygon fill="#ffffff" stroke="transparent" points="238,-68.7 238,-217.7 337,-217.7 337,-68.7 238,-68.7"/>
<polygon fill="#f5f5f5" stroke="transparent" points="238.5,-194.2 238.5,-217.2 337.5,-217.2 337.5,-194.2 238.5,-194.2"/>
<polygon fill="none" stroke="#000000" points="238.5,-194.2 238.5,-217.2 337.5,-217.2 337.5,-194.2 238.5,-194.2"/>
<text text-anchor="start" x="243.5" y="-202.8" font-family="Helvetica,sans-Serif" font-weight="bold" font-size="11.00" fill="#000000">responses</text>
<text text-anchor="start" x="303.0219" y="-202.3" font-family="Helvetica,sans-Serif" font-size="11.00" fill="#000000">[table]</text>
<polygon fill="none" stroke="#000000" points="238.5,-172.2 238.5,-194.2 337.5,-194.2 337.5,-172.2 238.5,-172.2"/>
<image xlink:href="../../images/primaryKeys.png" width="11px" height="12px" preserveAspectRatio="xMinYMin meet" x="243.5" y="-189.2"/>
<text text-anchor="start" x="259.5" y="-179.3" font-family="Helvetica,sans-Serif" font-size="11.00" fill="#000000">id_responses</text>
<polygon fill="none" stroke="#000000" points="238.5,-150.2 238.5,-172.2 337.5,-172.2 337.5,-150.2 238.5,-150.2"/>
<image xlink:href="../../images/foreignKeys.png" width="11px" height="12px" preserveAspectRatio="xMinYMin meet" x="243.5" y="-167.2"/>
<text text-anchor="start" x="259.5" y="-157.3" font-family="Helvetica,sans-Serif" font-size="11.00" fill="#000000">formId</text>
<polygon fill="none" stroke="#000000" points="238.5,-128.2 238.5,-150.2 337.5,-150.2 337.5,-128.2 238.5,-128.2"/>
<image xlink:href="../../images/foreignKeys.png" width="11px" height="12px" preserveAspectRatio="xMinYMin meet" x="243.5" y="-145.2"/>
<text text-anchor="start" x="259.5" y="-135.3" font-family="Helvetica,sans-Serif" font-size="11.00" fill="#000000">submittedBy</text>
<polygon fill="none" stroke="#000000" points="238.5,-106.2 238.5,-128.2 337.5,-128.2 337.5,-106.2 238.5,-106.2"/>
<image xlink:href="../../images/foreignKeys.png" width="11px" height="12px" preserveAspectRatio="xMinYMin meet" x="243.5" y="-123.2"/>
<text text-anchor="start" x="259.5" y="-113.3" font-family="Helvetica,sans-Serif" font-size="11.00" fill="#000000">assignedBy</text>
<polygon fill="none" stroke="#000000" points="238.5,-87.2 238.5,-106.2 337.5,-106.2 337.5,-87.2 238.5,-87.2"/>
<text text-anchor="start" x="241.5" y="-93.3" font-family="Helvetica,sans-Serif" font-size="11.00" fill="#000000">...</text>
<polygon fill="#ffffff" stroke="transparent" points="238.5,-68.2 238.5,-87.2 268.5,-87.2 268.5,-68.2 238.5,-68.2"/>
<polygon fill="none" stroke="#000000" points="238.5,-68.2 238.5,-87.2 268.5,-87.2 268.5,-68.2 238.5,-68.2"/>
<text text-anchor="start" x="241.5" y="-74.3" font-family="Helvetica,sans-Serif" font-size="11.00" fill="#000000">&lt; 3</text>
<polygon fill="#ffffff" stroke="transparent" points="268.5,-68.2 268.5,-87.2 311.5,-87.2 311.5,-68.2 268.5,-68.2"/>
<polygon fill="none" stroke="#000000" points="268.5,-68.2 268.5,-87.2 311.5,-87.2 311.5,-68.2 268.5,-68.2"/>
<text text-anchor="start" x="276.1105" y="-74.3" font-family="Helvetica,sans-Serif" font-size="11.00" fill="#000000">0 rows</text>
<polygon fill="#ffffff" stroke="transparent" points="311.5,-68.2 311.5,-87.2 337.5,-87.2 337.5,-68.2 311.5,-68.2"/>
<polygon fill="none" stroke="#000000" points="311.5,-68.2 311.5,-87.2 337.5,-87.2 337.5,-68.2 311.5,-68.2"/>
<text text-anchor="start" x="318.9053" y="-74.3" font-family="Helvetica,sans-Serif" font-size="11.00" fill="#000000">1 &gt;</text>
</a>
</g>
</g>
<!-- responses&#45;&gt;forms -->
<g id="edge2" class="edge">
<title>responses:w&#45;&gt;forms:e</title>
<path fill="none" stroke="#000000" d="M224.4033,-166.1435C208.025,-180.9952 217.3329,-224.2 187.5,-224.2"/>
<polygon fill="#000000" stroke="#000000" points="230.9507,-163.8474 239.6913,-164.5972 234.7254,-162.5237 238.5,-161.2 238.5,-161.2 238.5,-161.2 234.7254,-162.5237 237.3087,-157.8028 230.9507,-163.8474 230.9507,-163.8474"/>
<ellipse fill="none" stroke="#000000" cx="227.931" cy="-164.9064" rx="3.2" ry="3.2"/>
</g>
</g>
</svg>
