<?xml version="1.0" encoding="UTF-8" standalone="no"?>
<!DOCTYPE svg PUBLIC "-//W3C//DTD SVG 1.1//EN"
 "http://www.w3.org/Graphics/SVG/1.1/DTD/svg11.dtd">
<!-- Generated by graphviz version 2.40.1 (20161225.0304)
 -->
<!-- Title: twoDegreesRelationshipsDiagramImplied Pages: 1 -->
<svg width="851pt" height="388pt"
 viewBox="0.00 0.00 851.00 387.70" xmlns="http://www.w3.org/2000/svg" xmlns:xlink="http://www.w3.org/1999/xlink">
<g id="graph0" class="graph" transform="scale(1 1) rotate(0) translate(4 383.7)">
<title>twoDegreesRelationshipsDiagramImplied</title>
<polygon fill="#ffffff" stroke="transparent" points="-4,4 -4,-383.7 847,-383.7 847,4 -4,4"/>
<text text-anchor="middle" x="72.4936" y="-7.3" font-family="Helvetica,sans-Serif" font-size="11.00" fill="#000000">Generated by SchemaSpy</text>
<!-- chats -->
<g id="node1" class="node">
<title>chats</title>
<g id="a_node1"><a xlink:href="../../tables/chats.html" xlink:title="chats" target="_top">
<polygon fill="#ffffff" stroke="transparent" points="312,-314.7 312,-375.7 392,-375.7 392,-314.7 312,-314.7"/>
<polygon fill="#f5f5f5" stroke="transparent" points="312,-352.2 312,-375.2 392,-375.2 392,-352.2 312,-352.2"/>
<polygon fill="none" stroke="#000000" points="312,-352.2 312,-375.2 392,-375.2 392,-352.2 312,-352.2"/>
<text text-anchor="start" x="317" y="-360.8" font-family="Helvetica,sans-Serif" font-weight="bold" font-size="11.00" fill="#000000">chats</text>
<text text-anchor="start" x="357.0437" y="-360.3" font-family="Helvetica,sans-Serif" font-size="11.00" fill="#000000">[table]</text>
<polygon fill="none" stroke="#000000" points="312,-333.2 312,-352.2 392,-352.2 392,-333.2 312,-333.2"/>
<text text-anchor="start" x="315" y="-339.3" font-family="Helvetica,sans-Serif" font-size="11.00" fill="#000000">...</text>
<polygon fill="#ffffff" stroke="transparent" points="312,-314.2 312,-333.2 333,-333.2 333,-314.2 312,-314.2"/>
<polygon fill="none" stroke="#000000" points="312,-314.2 312,-333.2 333,-333.2 333,-314.2 312,-314.2"/>
<text text-anchor="start" x="314.7027" y="-320.3" font-family="Helvetica,sans-Serif" font-size="11.00" fill="#000000">&lt; 1</text>
<polygon fill="#ffffff" stroke="transparent" points="333,-314.2 333,-333.2 371,-333.2 371,-314.2 333,-314.2"/>
<polygon fill="none" stroke="#000000" points="333,-314.2 333,-333.2 371,-333.2 371,-314.2 333,-314.2"/>
<text text-anchor="start" x="335.8053" y="-320.3" font-family="Helvetica,sans-Serif" font-size="11.00" fill="#000000">0 rows</text>
<polygon fill="#ffffff" stroke="transparent" points="371,-314.2 371,-333.2 392,-333.2 392,-314.2 371,-314.2"/>
<polygon fill="none" stroke="#000000" points="371,-314.2 371,-333.2 392,-333.2 392,-314.2 371,-314.2"/>
<text text-anchor="start" x="373.7027" y="-320.3" font-family="Helvetica,sans-Serif" font-size="11.00" fill="#000000">1 &gt;</text>
</a>
</g>
</g>
<!-- patients -->
<g id="node2" class="node">
<title>patients</title>
<g id="a_node2"><a xlink:href="../../tables/patients.html" xlink:title="patients" target="_top">
<polygon fill="#ffffff" stroke="transparent" points="178,-119.7 178,-180.7 263,-180.7 263,-119.7 178,-119.7"/>
<polygon fill="#f5f5f5" stroke="transparent" points="178.5,-157.2 178.5,-180.2 263.5,-180.2 263.5,-157.2 178.5,-157.2"/>
<polygon fill="none" stroke="#000000" points="178.5,-157.2 178.5,-180.2 263.5,-180.2 263.5,-157.2 178.5,-157.2"/>
<text text-anchor="start" x="183.5" y="-165.8" font-family="Helvetica,sans-Serif" font-weight="bold" font-size="11.00" fill="#000000">patients</text>
<text text-anchor="start" x="229.0219" y="-165.3" font-family="Helvetica,sans-Serif" font-size="11.00" fill="#000000">[table]</text>
<polygon fill="none" stroke="#000000" points="178.5,-138.2 178.5,-157.2 263.5,-157.2 263.5,-138.2 178.5,-138.2"/>
<text text-anchor="start" x="181.5" y="-144.3" font-family="Helvetica,sans-Serif" font-size="11.00" fill="#000000">...</text>
<polygon fill="#ffffff" stroke="transparent" points="178.5,-119.2 178.5,-138.2 201.5,-138.2 201.5,-119.2 178.5,-119.2"/>
<polygon fill="none" stroke="#000000" points="178.5,-119.2 178.5,-138.2 201.5,-138.2 201.5,-119.2 178.5,-119.2"/>
<text text-anchor="start" x="181.5" y="-125.3" font-family="Helvetica,sans-Serif" font-size="11.00" fill="#000000">&lt; 2</text>
<polygon fill="#ffffff" stroke="transparent" points="201.5,-119.2 201.5,-138.2 240.5,-138.2 240.5,-119.2 201.5,-119.2"/>
<polygon fill="none" stroke="#000000" points="201.5,-119.2 201.5,-138.2 240.5,-138.2 240.5,-119.2 201.5,-119.2"/>
<text text-anchor="start" x="205.1105" y="-125.3" font-family="Helvetica,sans-Serif" font-size="11.00" fill="#000000">0 rows</text>
<polygon fill="#ffffff" stroke="transparent" points="240.5,-119.2 240.5,-138.2 263.5,-138.2 263.5,-119.2 240.5,-119.2"/>
<polygon fill="none" stroke="#000000" points="240.5,-119.2 240.5,-138.2 263.5,-138.2 263.5,-119.2 240.5,-119.2"/>
<text text-anchor="start" x="244.9053" y="-125.3" font-family="Helvetica,sans-Serif" font-size="11.00" fill="#000000">5 &gt;</text>
</a>
</g>
</g>
<!-- chats&#45;&gt;patients -->
<g id="edge1" class="edge">
<title>chats:w&#45;&gt;patients:e</title>
<path fill="none" stroke="#000000" d="M298.4031,-337.1555C269.1575,-315.954 242.7118,-232.9505 229.4565,-184.9698"/>
<polygon fill="#000000" stroke="#000000" points="304.4996,-339.4173 310.7478,-345.5752 308.2498,-340.8086 312,-342.2 312,-342.2 312,-342.2 308.2498,-340.8086 313.2522,-338.8248 304.4996,-339.4173 304.4996,-339.4173"/>
<ellipse fill="none" stroke="#000000" cx="301.4994" cy="-338.3042" rx="3.2" ry="3.2"/>
</g>
<!-- cid -->
<g id="node7" class="node">
<title>cid</title>
<g id="a_node7"><a xlink:href="../../tables/cid.html" xlink:title="cid" target="_top">
<polygon fill="#ffffff" stroke="transparent" points="25.5,-163.7 25.5,-224.7 111.5,-224.7 111.5,-163.7 25.5,-163.7"/>
<polygon fill="#f5f5f5" stroke="transparent" points="25.5,-201.2 25.5,-224.2 111.5,-224.2 111.5,-201.2 25.5,-201.2"/>
<polygon fill="none" stroke="#000000" points="25.5,-201.2 25.5,-224.2 111.5,-224.2 111.5,-201.2 25.5,-201.2"/>
<text text-anchor="start" x="29.9721" y="-209.8" font-family="Helvetica,sans-Serif" font-weight="bold" font-size="11.00" fill="#000000">cid</text>
<text text-anchor="start" x="76.5437" y="-209.3" font-family="Helvetica,sans-Serif" font-size="11.00" fill="#000000">[table]</text>
<polygon fill="none" stroke="#000000" points="25.5,-182.2 25.5,-201.2 111.5,-201.2 111.5,-182.2 25.5,-182.2"/>
<text text-anchor="start" x="28.5" y="-188.3" font-family="Helvetica,sans-Serif" font-size="11.00" fill="#000000">...</text>
<polygon fill="#ffffff" stroke="transparent" points="25.5,-163.2 25.5,-182.2 46.5,-182.2 46.5,-163.2 25.5,-163.2"/>
<polygon fill="none" stroke="#000000" points="25.5,-163.2 25.5,-182.2 46.5,-182.2 46.5,-163.2 25.5,-163.2"/>
<text text-anchor="start" x="28.2027" y="-169.3" font-family="Helvetica,sans-Serif" font-size="11.00" fill="#000000">&lt; 1</text>
<polygon fill="#ffffff" stroke="transparent" points="46.5,-163.2 46.5,-182.2 90.5,-182.2 90.5,-163.2 46.5,-163.2"/>
<polygon fill="none" stroke="#000000" points="46.5,-163.2 46.5,-182.2 90.5,-182.2 90.5,-163.2 46.5,-163.2"/>
<text text-anchor="start" x="49.2478" y="-169.3" font-family="Helvetica,sans-Serif" font-size="11.00" fill="#000000">88 rows</text>
<polygon fill="#ffffff" stroke="transparent" points="90.5,-163.2 90.5,-182.2 111.5,-182.2 111.5,-163.2 90.5,-163.2"/>
<polygon fill="none" stroke="#000000" points="90.5,-163.2 90.5,-182.2 111.5,-182.2 111.5,-163.2 90.5,-163.2"/>
<text text-anchor="start" x="93.2027" y="-169.3" font-family="Helvetica,sans-Serif" font-size="11.00" fill="#000000">1 &gt;</text>
</a>
</g>
</g>
<!-- patients&#45;&gt;cid -->
<g id="edge8" class="edge">
<title>patients:w&#45;&gt;cid:e</title>
<path fill="none" stroke="#000000" d="M155.9524,-183.0016C141.6726,-187.8203 126.3603,-191.2 111.5,-191.2"/>
<polygon fill="#000000" stroke="#000000" points="162.3461,-180.5941 171.1016,-181.1442 166.0896,-179.1846 169.833,-177.7751 169.833,-177.7751 169.833,-177.7751 166.0896,-179.1846 168.5644,-174.406 162.3461,-180.5941 162.3461,-180.5941"/>
<ellipse fill="none" stroke="#000000" cx="159.3514" cy="-181.7218" rx="3.2" ry="3.2"/>
</g>
<!-- SequelizeMeta -->
<g id="node8" class="node">
<title>SequelizeMeta</title>
<g id="a_node8"><a xlink:href="../../tables/SequelizeMeta.html" xlink:title="SequelizeMeta" target="_top">
<polygon fill="#ffffff" stroke="transparent" points="8,-81.7 8,-142.7 129,-142.7 129,-81.7 8,-81.7"/>
<polygon fill="#f5f5f5" stroke="transparent" points="8.5,-119.2 8.5,-142.2 129.5,-142.2 129.5,-119.2 8.5,-119.2"/>
<polygon fill="none" stroke="#000000" points="8.5,-119.2 8.5,-142.2 129.5,-142.2 129.5,-119.2 8.5,-119.2"/>
<text text-anchor="start" x="13.5" y="-127.8" font-family="Helvetica,sans-Serif" font-weight="bold" font-size="11.00" fill="#000000">SequelizeMeta</text>
<text text-anchor="start" x="95.0219" y="-127.3" font-family="Helvetica,sans-Serif" font-size="11.00" fill="#000000">[table]</text>
<polygon fill="none" stroke="#000000" points="8.5,-100.2 8.5,-119.2 129.5,-119.2 129.5,-100.2 8.5,-100.2"/>
<text text-anchor="start" x="11.5" y="-106.3" font-family="Helvetica,sans-Serif" font-size="11.00" fill="#000000">...</text>
<polygon fill="#ffffff" stroke="transparent" points="8.5,-81.2 8.5,-100.2 42.5,-100.2 42.5,-81.2 8.5,-81.2"/>
<polygon fill="none" stroke="#000000" points="8.5,-81.2 8.5,-100.2 42.5,-100.2 42.5,-81.2 8.5,-81.2"/>
<text text-anchor="start" x="11.5" y="-87.3" font-family="Helvetica,sans-Serif" font-size="11.00" fill="#000000"> &#160;</text>
<polygon fill="#ffffff" stroke="transparent" points="42.5,-81.2 42.5,-100.2 97.5,-100.2 97.5,-81.2 42.5,-81.2"/>
<polygon fill="none" stroke="#000000" points="42.5,-81.2 42.5,-100.2 97.5,-100.2 97.5,-81.2 42.5,-81.2"/>
<text text-anchor="start" x="55.9956" y="-87.3" font-family="Helvetica,sans-Serif" font-size="11.00" fill="#000000">17 rows</text>
<polygon fill="#ffffff" stroke="transparent" points="97.5,-81.2 97.5,-100.2 129.5,-100.2 129.5,-81.2 97.5,-81.2"/>
<polygon fill="none" stroke="#000000" points="97.5,-81.2 97.5,-100.2 129.5,-100.2 129.5,-81.2 97.5,-81.2"/>
<text text-anchor="start" x="110.9053" y="-87.3" font-family="Helvetica,sans-Serif" font-size="11.00" fill="#000000">1 &gt;</text>
</a>
</g>
</g>
<!-- patients&#45;&gt;SequelizeMeta -->
<g id="edge9" class="edge">
<title>patients:w&#45;&gt;SequelizeMeta:e</title>
<path fill="none" stroke="#000000" stroke-dasharray="5,2" d="M156.0117,-113.4681C147.3445,-110.8417 138.3766,-109.2 129.5,-109.2"/>
<polygon fill="#000000" stroke="#000000" points="162.268,-115.7559 168.5449,-121.8846 166.0247,-117.1297 169.7814,-118.5035 169.7814,-118.5035 169.7814,-118.5035 166.0247,-117.1297 171.0178,-115.1225 162.268,-115.7559 162.268,-115.7559"/>
<ellipse fill="none" stroke="#000000" cx="159.2626" cy="-114.6569" rx="3.2" ry="3.2"/>
</g>
<!-- device -->
<g id="node3" class="node">
<title>device</title>
<g id="a_node3"><a xlink:href="../../tables/device.html" xlink:title="device" target="_top">
<polygon fill="#ffffff" stroke="transparent" points="314,-122.7 314,-183.7 390,-183.7 390,-122.7 314,-122.7"/>
<polygon fill="#f5f5f5" stroke="transparent" points="314,-160.2 314,-183.2 390,-183.2 390,-160.2 314,-160.2"/>
<polygon fill="none" stroke="#000000" points="314,-160.2 314,-183.2 390,-183.2 390,-160.2 314,-160.2"/>
<text text-anchor="start" x="319" y="-168.8" font-family="Helvetica,sans-Serif" font-weight="bold" font-size="11.00" fill="#000000">device</text>
<text text-anchor="start" x="355.5219" y="-168.3" font-family="Helvetica,sans-Serif" font-size="11.00" fill="#000000">[table]</text>
<polygon fill="none" stroke="#000000" points="314,-141.2 314,-160.2 390,-160.2 390,-141.2 314,-141.2"/>
<text text-anchor="start" x="317" y="-147.3" font-family="Helvetica,sans-Serif" font-size="11.00" fill="#000000">...</text>
<polygon fill="#ffffff" stroke="transparent" points="314,-122.2 314,-141.2 337,-141.2 337,-122.2 314,-122.2"/>
<polygon fill="none" stroke="#000000" points="314,-122.2 314,-141.2 337,-141.2 337,-122.2 314,-122.2"/>
<text text-anchor="start" x="317" y="-128.3" font-family="Helvetica,sans-Serif" font-size="11.00" fill="#000000">&lt; 1</text>
<polygon fill="#ffffff" stroke="transparent" points="337,-122.2 337,-141.2 376,-141.2 376,-122.2 337,-122.2"/>
<polygon fill="none" stroke="#000000" points="337,-122.2 337,-141.2 376,-141.2 376,-122.2 337,-122.2"/>
<text text-anchor="start" x="340.6105" y="-128.3" font-family="Helvetica,sans-Serif" font-size="11.00" fill="#000000">0 rows</text>
<polygon fill="#ffffff" stroke="transparent" points="376,-122.2 376,-141.2 390,-141.2 390,-122.2 376,-122.2"/>
<polygon fill="none" stroke="#000000" points="376,-122.2 376,-141.2 390,-141.2 390,-122.2 376,-122.2"/>
<text text-anchor="start" x="380.8862" y="-128.3" font-family="Helvetica,sans-Serif" font-size="11.00" fill="#000000"> &#160;</text>
</a>
</g>
</g>
<!-- device&#45;&gt;patients -->
<g id="edge2" class="edge">
<title>device:w&#45;&gt;patients:e</title>
<path fill="none" stroke="#000000" d="M299.4578,-150.2C290.0632,-150.2 280.5131,-150.2 271.4525,-150.2"/>
<polygon fill="#000000" stroke="#000000" points="306,-150.2001 314,-153.8 310,-150.2 314,-150.2 314,-150.2 314,-150.2 310,-150.2 314,-146.6 306,-150.2001 306,-150.2001"/>
<ellipse fill="none" stroke="#000000" cx="302.8" cy="-150.2001" rx="3.2" ry="3.2"/>
</g>
<!-- message_notifications -->
<g id="node4" class="node">
<title>message_notifications</title>
<g id="a_node4"><a xlink:href="../../tables/message_notifications.html" xlink:title="message_notifications" target="_top">
<polygon fill="#ffffff" stroke="transparent" points="589,-38.2 589,-238.2 835,-238.2 835,-38.2 589,-38.2"/>
<polygon fill="#f5f5f5" stroke="transparent" points="591,-213.2 591,-236.2 833,-236.2 833,-213.2 591,-213.2"/>
<polygon fill="none" stroke="#000000" points="591,-213.2 591,-236.2 833,-236.2 833,-213.2 591,-213.2"/>
<text text-anchor="start" x="596" y="-221.8" font-family="Helvetica,sans-Serif" font-weight="bold" font-size="11.00" fill="#000000">message_notifications</text>
<text text-anchor="start" x="798.0437" y="-221.3" font-family="Helvetica,sans-Serif" font-size="11.00" fill="#000000">[table]</text>
<polygon fill="none" stroke="#000000" points="591,-191.2 591,-213.2 741,-213.2 741,-191.2 591,-191.2"/>
<image xlink:href="../../images/primaryKeys.png" width="11px" height="12px" preserveAspectRatio="xMinYMin meet" x="596" y="-208.2"/>
<text text-anchor="start" x="611" y="-198.3" font-family="Helvetica,sans-Serif" font-size="11.00" fill="#000000">id_notification</text>
<polygon fill="none" stroke="#000000" points="741,-191.2 741,-213.2 833,-213.2 833,-191.2 741,-191.2"/>
<text text-anchor="start" x="744" y="-198.9" font-family="Helvetica,sans-Serif" font-size="11.00" fill="#000000">serial[10]</text>
<polygon fill="none" stroke="#000000" points="591,-169.2 591,-191.2 741,-191.2 741,-169.2 591,-169.2"/>
<image xlink:href="../../images/foreignKeys.png" width="11px" height="12px" preserveAspectRatio="xMinYMin meet" x="596" y="-186.2"/>
<text text-anchor="start" x="611" y="-176.3" font-family="Helvetica,sans-Serif" font-size="11.00" fill="#000000">message_id</text>
<polygon fill="none" stroke="#000000" points="741,-169.2 741,-191.2 833,-191.2 833,-169.2 741,-169.2"/>
<text text-anchor="start" x="744" y="-176.9" font-family="Helvetica,sans-Serif" font-size="11.00" fill="#000000">int4[10]</text>
<polygon fill="none" stroke="#000000" points="591,-147.2 591,-169.2 741,-169.2 741,-147.2 591,-147.2"/>
<image xlink:href="../../images/foreignKeys.png" width="11px" height="12px" preserveAspectRatio="xMinYMin meet" x="596" y="-164.2"/>
<text text-anchor="start" x="611" y="-154.3" font-family="Helvetica,sans-Serif" font-size="11.00" fill="#000000">recipient_patient_id</text>
<polygon fill="none" stroke="#000000" points="741,-147.2 741,-169.2 833,-169.2 833,-147.2 741,-147.2"/>
<text text-anchor="start" x="744" y="-154.9" font-family="Helvetica,sans-Serif" font-size="11.00" fill="#000000">int4[10]</text>
<polygon fill="none" stroke="#000000" points="591,-125.2 591,-147.2 741,-147.2 741,-125.2 591,-125.2"/>
<text text-anchor="start" x="611" y="-132.3" font-family="Helvetica,sans-Serif" font-size="11.00" fill="#000000">sent</text>
<polygon fill="none" stroke="#000000" points="741,-125.2 741,-147.2 833,-147.2 833,-125.2 741,-125.2"/>
<text text-anchor="start" x="744" y="-132.9" font-family="Helvetica,sans-Serif" font-size="11.00" fill="#000000">bool[1]</text>
<polygon fill="none" stroke="#000000" points="591,-103.2 591,-125.2 741,-125.2 741,-103.2 591,-103.2"/>
<text text-anchor="start" x="611" y="-110.3" font-family="Helvetica,sans-Serif" font-size="11.00" fill="#000000">sent_at</text>
<polygon fill="none" stroke="#000000" points="741,-103.2 741,-125.2 833,-125.2 833,-103.2 741,-103.2"/>
<text text-anchor="start" x="743.6023" y="-110.9" font-family="Helvetica,sans-Serif" font-size="11.00" fill="#000000">timestamptz[35,6]</text>
<polygon fill="none" stroke="#000000" points="591,-81.2 591,-103.2 741,-103.2 741,-81.2 591,-81.2"/>
<text text-anchor="start" x="611" y="-88.3" font-family="Helvetica,sans-Serif" font-size="11.00" fill="#000000">createdAt</text>
<polygon fill="none" stroke="#000000" points="741,-81.2 741,-103.2 833,-103.2 833,-81.2 741,-81.2"/>
<text text-anchor="start" x="743.6023" y="-88.9" font-family="Helvetica,sans-Serif" font-size="11.00" fill="#000000">timestamptz[35,6]</text>
<polygon fill="none" stroke="#000000" points="591,-59.2 591,-81.2 741,-81.2 741,-59.2 591,-59.2"/>
<text text-anchor="start" x="611" y="-66.3" font-family="Helvetica,sans-Serif" font-size="11.00" fill="#000000">updatedAt</text>
<polygon fill="none" stroke="#000000" points="741,-59.2 741,-81.2 833,-81.2 833,-59.2 741,-59.2"/>
<text text-anchor="start" x="743.6023" y="-66.9" font-family="Helvetica,sans-Serif" font-size="11.00" fill="#000000">timestamptz[35,6]</text>
<polygon fill="#ffffff" stroke="transparent" points="591,-40.2 591,-59.2 657,-59.2 657,-40.2 591,-40.2"/>
<polygon fill="none" stroke="#000000" points="591,-40.2 591,-59.2 657,-59.2 657,-40.2 591,-40.2"/>
<text text-anchor="start" x="594" y="-46.3" font-family="Helvetica,sans-Serif" font-size="11.00" fill="#000000">&lt; 2</text>
<polygon fill="#ffffff" stroke="transparent" points="657,-40.2 657,-59.2 741,-59.2 741,-40.2 657,-40.2"/>
<polygon fill="none" stroke="#000000" points="657,-40.2 657,-59.2 741,-59.2 741,-40.2 657,-40.2"/>
<text text-anchor="start" x="705.6105" y="-46.3" font-family="Helvetica,sans-Serif" font-size="11.00" fill="#000000">0 rows</text>
<polygon fill="#ffffff" stroke="transparent" points="741,-40.2 741,-59.2 833,-59.2 833,-40.2 741,-40.2"/>
<polygon fill="none" stroke="#000000" points="741,-40.2 741,-59.2 833,-59.2 833,-40.2 741,-40.2"/>
<text text-anchor="start" x="814.4053" y="-46.3" font-family="Helvetica,sans-Serif" font-size="11.00" fill="#000000">0 &gt;</text>
<polygon fill="none" stroke="#000000" stroke-width="2" points="590,-39.2 590,-237.2 834,-237.2 834,-39.2 590,-39.2"/>
</a>
</g>
</g>
<!-- message_notifications&#45;&gt;patients -->
<g id="edge4" class="edge">
<title>message_notifications:w&#45;&gt;patients:e</title>
<path fill="none" stroke="#000000" d="M576.5918,-156.3639C567.3179,-153.6655 561.4665,-148.4848 548,-144.2 482.3608,-123.3149 468.1013,-108.5394 400,-98.2 357.8167,-91.7956 345.0228,-86.4707 304,-98.2 290.8642,-101.9558 277.7839,-108.4424 266.0074,-115.5862"/>
<polygon fill="#000000" stroke="#000000" points="583.0642,-157.1886 590.5449,-161.7711 587.0321,-157.6943 591,-158.2 591,-158.2 591,-158.2 587.0321,-157.6943 591.4551,-154.6289 583.0642,-157.1886 583.0642,-157.1886"/>
<ellipse fill="none" stroke="#000000" cx="579.8899" cy="-156.7841" rx="3.2" ry="3.2"/>
</g>
<!-- messages -->
<g id="node5" class="node">
<title>messages</title>
<g id="a_node5"><a xlink:href="../../tables/messages.html" xlink:title="messages" target="_top">
<polygon fill="#ffffff" stroke="transparent" points="442,-265.7 442,-326.7 539,-326.7 539,-265.7 442,-265.7"/>
<polygon fill="#f5f5f5" stroke="transparent" points="442.5,-303.2 442.5,-326.2 539.5,-326.2 539.5,-303.2 442.5,-303.2"/>
<polygon fill="none" stroke="#000000" points="442.5,-303.2 442.5,-326.2 539.5,-326.2 539.5,-303.2 442.5,-303.2"/>
<text text-anchor="start" x="447.5" y="-311.8" font-family="Helvetica,sans-Serif" font-weight="bold" font-size="11.00" fill="#000000">messages</text>
<text text-anchor="start" x="505.0219" y="-311.3" font-family="Helvetica,sans-Serif" font-size="11.00" fill="#000000">[table]</text>
<polygon fill="none" stroke="#000000" points="442.5,-284.2 442.5,-303.2 539.5,-303.2 539.5,-284.2 442.5,-284.2"/>
<text text-anchor="start" x="445.5" y="-290.3" font-family="Helvetica,sans-Serif" font-size="11.00" fill="#000000">...</text>
<polygon fill="#ffffff" stroke="transparent" points="442.5,-265.2 442.5,-284.2 471.5,-284.2 471.5,-265.2 442.5,-265.2"/>
<polygon fill="none" stroke="#000000" points="442.5,-265.2 442.5,-284.2 471.5,-284.2 471.5,-265.2 442.5,-265.2"/>
<text text-anchor="start" x="445.5" y="-271.3" font-family="Helvetica,sans-Serif" font-size="11.00" fill="#000000">&lt; 3</text>
<polygon fill="#ffffff" stroke="transparent" points="471.5,-265.2 471.5,-284.2 513.5,-284.2 513.5,-265.2 471.5,-265.2"/>
<polygon fill="none" stroke="#000000" points="471.5,-265.2 471.5,-284.2 513.5,-284.2 513.5,-265.2 471.5,-265.2"/>
<text text-anchor="start" x="478.1105" y="-271.3" font-family="Helvetica,sans-Serif" font-size="11.00" fill="#000000">0 rows</text>
<polygon fill="#ffffff" stroke="transparent" points="513.5,-265.2 513.5,-284.2 539.5,-284.2 539.5,-265.2 513.5,-265.2"/>
<polygon fill="none" stroke="#000000" points="513.5,-265.2 513.5,-284.2 539.5,-284.2 539.5,-265.2 513.5,-265.2"/>
<text text-anchor="start" x="520.9053" y="-271.3" font-family="Helvetica,sans-Serif" font-size="11.00" fill="#000000">1 &gt;</text>
</a>
</g>
</g>
<!-- message_notifications&#45;&gt;messages -->
<g id="edge3" class="edge">
<title>message_notifications:w&#45;&gt;messages:e</title>
<path fill="none" stroke="#000000" d="M580.7084,-190.2834C566.3906,-205.9748 540.0984,-236.971 519.5786,-261.3962"/>
<polygon fill="#000000" stroke="#000000" points="585.2856,-185.7988 593.5195,-182.7715 588.1428,-182.9994 591,-180.2 591,-180.2 591,-180.2 588.1428,-182.9994 588.4805,-177.6285 585.2856,-185.7988 585.2856,-185.7988"/>
<ellipse fill="none" stroke="#000000" cx="582.9999" cy="-188.0383" rx="3.2" ry="3.2"/>
</g>
<!-- messages&#45;&gt;chats -->
<g id="edge5" class="edge">
<title>messages:w&#45;&gt;chats:e</title>
<path fill="none" stroke="#000000" d="M424.5542,-336.1752C414.0115,-339.834 402.9577,-342.2 392,-342.2"/>
<polygon fill="#000000" stroke="#000000" points="430.6514,-333.7099 439.4176,-334.0484 434.3597,-332.2104 438.0681,-330.7109 438.0681,-330.7109 438.0681,-330.7109 434.3597,-332.2104 436.7185,-327.3734 430.6514,-333.7099 430.6514,-333.7099"/>
<ellipse fill="none" stroke="#000000" cx="427.6848" cy="-334.9094" rx="3.2" ry="3.2"/>
</g>
<!-- messages&#45;&gt;patients -->
<g id="edge6" class="edge">
<title>messages:w&#45;&gt;patients:e</title>
<path fill="none" stroke="#000000" d="M535.4653,-250.3835C570.1864,-207.165 385.4974,-319.9605 304,-276.2 268.2793,-257.0196 245.2613,-215.0974 232.624,-184.8696"/>
<polygon fill="#000000" stroke="#000000" points="530.9206,-255.3164 522.8524,-258.7607 528.2103,-258.2582 525.5,-261.2 525.5,-261.2 525.5,-261.2 528.2103,-258.2582 528.1476,-263.6393 530.9206,-255.3164 530.9206,-255.3164"/>
<ellipse fill="none" stroke="#000000" cx="533.0889" cy="-252.9629" rx="3.2" ry="3.2"/>
</g>
<!-- users -->
<g id="node6" class="node">
<title>users</title>
<g id="a_node6"><a xlink:href="../../tables/users.html" xlink:title="users" target="_top">
<polygon fill="#ffffff" stroke="transparent" points="316.5,-204.7 316.5,-265.7 387.5,-265.7 387.5,-204.7 316.5,-204.7"/>
<polygon fill="#f5f5f5" stroke="transparent" points="317,-242.2 317,-265.2 388,-265.2 388,-242.2 317,-242.2"/>
<polygon fill="none" stroke="#000000" points="317,-242.2 317,-265.2 388,-265.2 388,-242.2 317,-242.2"/>
<text text-anchor="start" x="322" y="-250.8" font-family="Helvetica,sans-Serif" font-weight="bold" font-size="11.00" fill="#000000">users</text>
<text text-anchor="start" x="353.5219" y="-250.3" font-family="Helvetica,sans-Serif" font-size="11.00" fill="#000000">[table]</text>
<polygon fill="none" stroke="#000000" points="317,-223.2 317,-242.2 388,-242.2 388,-223.2 317,-223.2"/>
<text text-anchor="start" x="320" y="-229.3" font-family="Helvetica,sans-Serif" font-size="11.00" fill="#000000">...</text>
<polygon fill="#ffffff" stroke="transparent" points="317,-204.2 317,-223.2 329,-223.2 329,-204.2 317,-204.2"/>
<polygon fill="none" stroke="#000000" points="317,-204.2 317,-223.2 329,-223.2 329,-204.2 317,-204.2"/>
<text text-anchor="start" x="319.9431" y="-210.3" font-family="Helvetica,sans-Serif" font-size="11.00" fill="#000000"> &#160;</text>
<polygon fill="#ffffff" stroke="transparent" points="329,-204.2 329,-223.2 367,-223.2 367,-204.2 329,-204.2"/>
<polygon fill="none" stroke="#000000" points="329,-204.2 329,-223.2 367,-223.2 367,-204.2 329,-204.2"/>
<text text-anchor="start" x="331.8053" y="-210.3" font-family="Helvetica,sans-Serif" font-size="11.00" fill="#000000">0 rows</text>
<polygon fill="#ffffff" stroke="transparent" points="367,-204.2 367,-223.2 388,-223.2 388,-204.2 367,-204.2"/>
<polygon fill="none" stroke="#000000" points="367,-204.2 367,-223.2 388,-223.2 388,-204.2 367,-204.2"/>
<text text-anchor="start" x="369.7027" y="-210.3" font-family="Helvetica,sans-Serif" font-size="11.00" fill="#000000">4 &gt;</text>
</a>
</g>
</g>
<!-- messages&#45;&gt;users -->
<g id="edge7" class="edge">
<title>messages:w&#45;&gt;users:e</title>
<path fill="none" stroke="#000000" d="M534.131,-249.502C546.0341,-219.9608 444.1124,-232.2 388,-232.2"/>
<polygon fill="#000000" stroke="#000000" points="530.2497,-254.7625 522.6031,-259.0627 527.8748,-257.9813 525.5,-261.2 525.5,-261.2 525.5,-261.2 527.8748,-257.9813 528.3969,-263.3373 530.2497,-254.7625 530.2497,-254.7625"/>
<ellipse fill="none" stroke="#000000" cx="532.1495" cy="-252.1875" rx="3.2" ry="3.2"/>
</g>
<!-- responses -->
<g id="node9" class="node">
<title>responses</title>
<g id="a_node9"><a xlink:href="../../tables/responses.html" xlink:title="responses" target="_top">
<polygon fill="#ffffff" stroke="transparent" points="441,-154.7 441,-215.7 540,-215.7 540,-154.7 441,-154.7"/>
<polygon fill="#f5f5f5" stroke="transparent" points="441.5,-192.2 441.5,-215.2 540.5,-215.2 540.5,-192.2 441.5,-192.2"/>
<polygon fill="none" stroke="#000000" points="441.5,-192.2 441.5,-215.2 540.5,-215.2 540.5,-192.2 441.5,-192.2"/>
<text text-anchor="start" x="446.5" y="-200.8" font-family="Helvetica,sans-Serif" font-weight="bold" font-size="11.00" fill="#000000">responses</text>
<text text-anchor="start" x="506.0219" y="-200.3" font-family="Helvetica,sans-Serif" font-size="11.00" fill="#000000">[table]</text>
<polygon fill="none" stroke="#000000" points="441.5,-173.2 441.5,-192.2 540.5,-192.2 540.5,-173.2 441.5,-173.2"/>
<text text-anchor="start" x="444.5" y="-179.3" font-family="Helvetica,sans-Serif" font-size="11.00" fill="#000000">...</text>
<polygon fill="#ffffff" stroke="transparent" points="441.5,-154.2 441.5,-173.2 471.5,-173.2 471.5,-154.2 441.5,-154.2"/>
<polygon fill="none" stroke="#000000" points="441.5,-154.2 441.5,-173.2 471.5,-173.2 471.5,-154.2 441.5,-154.2"/>
<text text-anchor="start" x="444.5" y="-160.3" font-family="Helvetica,sans-Serif" font-size="11.00" fill="#000000">&lt; 3</text>
<polygon fill="#ffffff" stroke="transparent" points="471.5,-154.2 471.5,-173.2 514.5,-173.2 514.5,-154.2 471.5,-154.2"/>
<polygon fill="none" stroke="#000000" points="471.5,-154.2 471.5,-173.2 514.5,-173.2 514.5,-154.2 471.5,-154.2"/>
<text text-anchor="start" x="479.1105" y="-160.3" font-family="Helvetica,sans-Serif" font-size="11.00" fill="#000000">0 rows</text>
<polygon fill="#ffffff" stroke="transparent" points="514.5,-154.2 514.5,-173.2 540.5,-173.2 540.5,-154.2 514.5,-154.2"/>
<polygon fill="none" stroke="#000000" points="514.5,-154.2 514.5,-173.2 540.5,-173.2 540.5,-154.2 514.5,-154.2"/>
<text text-anchor="start" x="521.9053" y="-160.3" font-family="Helvetica,sans-Serif" font-size="11.00" fill="#000000">1 &gt;</text>
</a>
</g>
</g>
<!-- responses&#45;&gt;patients -->
<g id="edge11" class="edge">
<title>responses:w&#45;&gt;patients:e</title>
<path fill="none" stroke="#000000" d="M427.3393,-177.6543C412.8526,-164.5816 425.7792,-126.8857 400,-112.2 360.2824,-89.5739 308.6907,-104.2539 271.0168,-121.5257"/>
<polygon fill="#000000" stroke="#000000" points="433.8828,-179.7548 440.3997,-185.6277 437.6914,-180.9774 441.5,-182.2 441.5,-182.2 441.5,-182.2 437.6914,-180.9774 442.6003,-178.7723 433.8828,-179.7548 433.8828,-179.7548"/>
<ellipse fill="none" stroke="#000000" cx="430.836" cy="-178.7767" rx="3.2" ry="3.2"/>
</g>
<!-- responses&#45;&gt;users -->
<g id="edge10" class="edge">
<title>responses:w&#45;&gt;users:e</title>
<path fill="none" stroke="#000000" d="M427.719,-186.463C411.695,-198.5544 414.6975,-232.2 388,-232.2"/>
<polygon fill="#000000" stroke="#000000" points="433.8573,-184.5642 442.5639,-185.6392 437.6787,-183.3821 441.5,-182.2 441.5,-182.2 441.5,-182.2 437.6787,-183.3821 440.4361,-178.7608 433.8573,-184.5642 433.8573,-184.5642"/>
<ellipse fill="none" stroke="#000000" cx="430.8002" cy="-185.5099" rx="3.2" ry="3.2"/>
</g>
</g>
</svg>
