<?xml version="1.0" encoding="UTF-8" standalone="no"?>
<!DOCTYPE svg PUBLIC "-//W3C//DTD SVG 1.1//EN"
 "http://www.w3.org/Graphics/SVG/1.1/DTD/svg11.dtd">
<!-- Generated by graphviz version 2.40.1 (20161225.0304)
 -->
<!-- Title: twoDegreesRelationshipsDiagram Pages: 1 -->
<svg width="987pt" height="574pt"
 viewBox="0.00 0.00 987.00 574.20" xmlns="http://www.w3.org/2000/svg" xmlns:xlink="http://www.w3.org/1999/xlink">
<g id="graph0" class="graph" transform="scale(1 1) rotate(0) translate(4 570.2)">
<title>twoDegreesRelationshipsDiagram</title>
<polygon fill="#ffffff" stroke="transparent" points="-4,4 -4,-570.2 983,-570.2 983,4 -4,4"/>
<text text-anchor="middle" x="72.4936" y="-7.3" font-family="Helvetica,sans-Serif" font-size="11.00" fill="#000000">Generated by SchemaSpy</text>
<!-- chats -->
<g id="node1" class="node">
<title>chats</title>
<g id="a_node1"><a xlink:href="../../tables/chats.html" xlink:title="chats" target="_top">
<polygon fill="#ffffff" stroke="transparent" points="277,-375.2 277,-436.2 357,-436.2 357,-375.2 277,-375.2"/>
<polygon fill="#f5f5f5" stroke="transparent" points="277,-412.7 277,-435.7 357,-435.7 357,-412.7 277,-412.7"/>
<polygon fill="none" stroke="#000000" points="277,-412.7 277,-435.7 357,-435.7 357,-412.7 277,-412.7"/>
<text text-anchor="start" x="282" y="-421.3" font-family="Helvetica,sans-Serif" font-weight="bold" font-size="11.00" fill="#000000">chats</text>
<text text-anchor="start" x="322.0437" y="-420.8" font-family="Helvetica,sans-Serif" font-size="11.00" fill="#000000">[table]</text>
<polygon fill="none" stroke="#000000" points="277,-393.7 277,-412.7 357,-412.7 357,-393.7 277,-393.7"/>
<text text-anchor="start" x="280" y="-399.8" font-family="Helvetica,sans-Serif" font-size="11.00" fill="#000000">...</text>
<polygon fill="#ffffff" stroke="transparent" points="277,-374.7 277,-393.7 298,-393.7 298,-374.7 277,-374.7"/>
<polygon fill="none" stroke="#000000" points="277,-374.7 277,-393.7 298,-393.7 298,-374.7 277,-374.7"/>
<text text-anchor="start" x="279.7027" y="-380.8" font-family="Helvetica,sans-Serif" font-size="11.00" fill="#000000">&lt; 1</text>
<polygon fill="#ffffff" stroke="transparent" points="298,-374.7 298,-393.7 336,-393.7 336,-374.7 298,-374.7"/>
<polygon fill="none" stroke="#000000" points="298,-374.7 298,-393.7 336,-393.7 336,-374.7 298,-374.7"/>
<text text-anchor="start" x="300.8053" y="-380.8" font-family="Helvetica,sans-Serif" font-size="11.00" fill="#000000">0 rows</text>
<polygon fill="#ffffff" stroke="transparent" points="336,-374.7 336,-393.7 357,-393.7 357,-374.7 336,-374.7"/>
<polygon fill="none" stroke="#000000" points="336,-374.7 336,-393.7 357,-393.7 357,-374.7 336,-374.7"/>
<text text-anchor="start" x="338.7027" y="-380.8" font-family="Helvetica,sans-Serif" font-size="11.00" fill="#000000">1 &gt;</text>
</a>
</g>
</g>
<!-- patients -->
<g id="node2" class="node">
<title>patients</title>
<g id="a_node2"><a xlink:href="../../tables/patients.html" xlink:title="patients" target="_top">
<polygon fill="#ffffff" stroke="transparent" points="143,-375.2 143,-436.2 228,-436.2 228,-375.2 143,-375.2"/>
<polygon fill="#f5f5f5" stroke="transparent" points="143.5,-412.7 143.5,-435.7 228.5,-435.7 228.5,-412.7 143.5,-412.7"/>
<polygon fill="none" stroke="#000000" points="143.5,-412.7 143.5,-435.7 228.5,-435.7 228.5,-412.7 143.5,-412.7"/>
<text text-anchor="start" x="148.5" y="-421.3" font-family="Helvetica,sans-Serif" font-weight="bold" font-size="11.00" fill="#000000">patients</text>
<text text-anchor="start" x="194.0219" y="-420.8" font-family="Helvetica,sans-Serif" font-size="11.00" fill="#000000">[table]</text>
<polygon fill="none" stroke="#000000" points="143.5,-393.7 143.5,-412.7 228.5,-412.7 228.5,-393.7 143.5,-393.7"/>
<text text-anchor="start" x="146.5" y="-399.8" font-family="Helvetica,sans-Serif" font-size="11.00" fill="#000000">...</text>
<polygon fill="#ffffff" stroke="transparent" points="143.5,-374.7 143.5,-393.7 166.5,-393.7 166.5,-374.7 143.5,-374.7"/>
<polygon fill="none" stroke="#000000" points="143.5,-374.7 143.5,-393.7 166.5,-393.7 166.5,-374.7 143.5,-374.7"/>
<text text-anchor="start" x="146.5" y="-380.8" font-family="Helvetica,sans-Serif" font-size="11.00" fill="#000000">&lt; 1</text>
<polygon fill="#ffffff" stroke="transparent" points="166.5,-374.7 166.5,-393.7 205.5,-393.7 205.5,-374.7 166.5,-374.7"/>
<polygon fill="none" stroke="#000000" points="166.5,-374.7 166.5,-393.7 205.5,-393.7 205.5,-374.7 166.5,-374.7"/>
<text text-anchor="start" x="170.1105" y="-380.8" font-family="Helvetica,sans-Serif" font-size="11.00" fill="#000000">0 rows</text>
<polygon fill="#ffffff" stroke="transparent" points="205.5,-374.7 205.5,-393.7 228.5,-393.7 228.5,-374.7 205.5,-374.7"/>
<polygon fill="none" stroke="#000000" points="205.5,-374.7 205.5,-393.7 228.5,-393.7 228.5,-374.7 205.5,-374.7"/>
<text text-anchor="start" x="209.9053" y="-380.8" font-family="Helvetica,sans-Serif" font-size="11.00" fill="#000000">5 &gt;</text>
</a>
</g>
</g>
<!-- chats&#45;&gt;patients -->
<g id="edge1" class="edge">
<title>chats:w&#45;&gt;patients:e</title>
<path fill="none" stroke="#000000" d="M254.1435,-405.7C248.1836,-405.7 242.1919,-405.7 236.3649,-405.7"/>
<polygon fill="#000000" stroke="#000000" points="260.7809,-405.7001 268.781,-409.3 264.7809,-405.7 268.7809,-405.7 268.7809,-405.7 268.7809,-405.7 264.7809,-405.7 268.7809,-402.1 260.7809,-405.7001 260.7809,-405.7001"/>
<ellipse fill="none" stroke="#000000" cx="257.5809" cy="-405.7001" rx="3.2" ry="3.2"/>
</g>
<!-- cid -->
<g id="node8" class="node">
<title>cid</title>
<g id="a_node8"><a xlink:href="../../tables/cid.html" xlink:title="cid" target="_top">
<polygon fill="#ffffff" stroke="transparent" points="8,-378.2 8,-439.2 94,-439.2 94,-378.2 8,-378.2"/>
<polygon fill="#f5f5f5" stroke="transparent" points="8,-415.7 8,-438.7 94,-438.7 94,-415.7 8,-415.7"/>
<polygon fill="none" stroke="#000000" points="8,-415.7 8,-438.7 94,-438.7 94,-415.7 8,-415.7"/>
<text text-anchor="start" x="12.4721" y="-424.3" font-family="Helvetica,sans-Serif" font-weight="bold" font-size="11.00" fill="#000000">cid</text>
<text text-anchor="start" x="59.0437" y="-423.8" font-family="Helvetica,sans-Serif" font-size="11.00" fill="#000000">[table]</text>
<polygon fill="none" stroke="#000000" points="8,-396.7 8,-415.7 94,-415.7 94,-396.7 8,-396.7"/>
<text text-anchor="start" x="11" y="-402.8" font-family="Helvetica,sans-Serif" font-size="11.00" fill="#000000">...</text>
<polygon fill="#ffffff" stroke="transparent" points="8,-377.7 8,-396.7 29,-396.7 29,-377.7 8,-377.7"/>
<polygon fill="none" stroke="#000000" points="8,-377.7 8,-396.7 29,-396.7 29,-377.7 8,-377.7"/>
<text text-anchor="start" x="10.7027" y="-383.8" font-family="Helvetica,sans-Serif" font-size="11.00" fill="#000000">&lt; 1</text>
<polygon fill="#ffffff" stroke="transparent" points="29,-377.7 29,-396.7 73,-396.7 73,-377.7 29,-377.7"/>
<polygon fill="none" stroke="#000000" points="29,-377.7 29,-396.7 73,-396.7 73,-377.7 29,-377.7"/>
<text text-anchor="start" x="31.7478" y="-383.8" font-family="Helvetica,sans-Serif" font-size="11.00" fill="#000000">88 rows</text>
<polygon fill="#ffffff" stroke="transparent" points="73,-377.7 73,-396.7 94,-396.7 94,-377.7 73,-377.7"/>
<polygon fill="none" stroke="#000000" points="73,-377.7 73,-396.7 94,-396.7 94,-377.7 73,-377.7"/>
<text text-anchor="start" x="75.7027" y="-383.8" font-family="Helvetica,sans-Serif" font-size="11.00" fill="#000000">1 &gt;</text>
</a>
</g>
</g>
<!-- patients&#45;&gt;cid -->
<g id="edge10" class="edge">
<title>patients:w&#45;&gt;cid:e</title>
<path fill="none" stroke="#000000" d="M120.1089,-405.7C111.3317,-405.7 102.4466,-405.7 94,-405.7"/>
<polygon fill="#000000" stroke="#000000" points="126.6818,-405.7001 134.6819,-409.3 130.6818,-405.7 134.6818,-405.7 134.6818,-405.7 134.6818,-405.7 130.6818,-405.7 134.6818,-402.1 126.6818,-405.7001 126.6818,-405.7001"/>
<ellipse fill="none" stroke="#000000" cx="123.4818" cy="-405.7001" rx="3.2" ry="3.2"/>
</g>
<!-- device -->
<g id="node3" class="node">
<title>device</title>
<g id="a_node3"><a xlink:href="../../tables/device.html" xlink:title="device" target="_top">
<polygon fill="#ffffff" stroke="transparent" points="279,-501.2 279,-562.2 355,-562.2 355,-501.2 279,-501.2"/>
<polygon fill="#f5f5f5" stroke="transparent" points="279,-538.7 279,-561.7 355,-561.7 355,-538.7 279,-538.7"/>
<polygon fill="none" stroke="#000000" points="279,-538.7 279,-561.7 355,-561.7 355,-538.7 279,-538.7"/>
<text text-anchor="start" x="284" y="-547.3" font-family="Helvetica,sans-Serif" font-weight="bold" font-size="11.00" fill="#000000">device</text>
<text text-anchor="start" x="320.5219" y="-546.8" font-family="Helvetica,sans-Serif" font-size="11.00" fill="#000000">[table]</text>
<polygon fill="none" stroke="#000000" points="279,-519.7 279,-538.7 355,-538.7 355,-519.7 279,-519.7"/>
<text text-anchor="start" x="282" y="-525.8" font-family="Helvetica,sans-Serif" font-size="11.00" fill="#000000">...</text>
<polygon fill="#ffffff" stroke="transparent" points="279,-500.7 279,-519.7 302,-519.7 302,-500.7 279,-500.7"/>
<polygon fill="none" stroke="#000000" points="279,-500.7 279,-519.7 302,-519.7 302,-500.7 279,-500.7"/>
<text text-anchor="start" x="282" y="-506.8" font-family="Helvetica,sans-Serif" font-size="11.00" fill="#000000">&lt; 1</text>
<polygon fill="#ffffff" stroke="transparent" points="302,-500.7 302,-519.7 341,-519.7 341,-500.7 302,-500.7"/>
<polygon fill="none" stroke="#000000" points="302,-500.7 302,-519.7 341,-519.7 341,-500.7 302,-500.7"/>
<text text-anchor="start" x="305.6105" y="-506.8" font-family="Helvetica,sans-Serif" font-size="11.00" fill="#000000">0 rows</text>
<polygon fill="#ffffff" stroke="transparent" points="341,-500.7 341,-519.7 355,-519.7 355,-500.7 341,-500.7"/>
<polygon fill="none" stroke="#000000" points="341,-500.7 341,-519.7 355,-519.7 355,-500.7 341,-500.7"/>
<text text-anchor="start" x="345.8862" y="-506.8" font-family="Helvetica,sans-Serif" font-size="11.00" fill="#000000"> &#160;</text>
</a>
</g>
</g>
<!-- device&#45;&gt;patients -->
<g id="edge2" class="edge">
<title>device:w&#45;&gt;patients:e</title>
<path fill="none" stroke="#000000" d="M264.5285,-526.7953C228.5924,-517.1128 206.7705,-472.5488 195.4174,-440.2897"/>
<polygon fill="#000000" stroke="#000000" points="271.0684,-527.656 278.5302,-532.2692 275.0342,-528.178 279,-528.7 279,-528.7 279,-528.7 275.0342,-528.178 279.4698,-525.1308 271.0684,-527.656 271.0684,-527.656"/>
<ellipse fill="none" stroke="#000000" cx="267.8958" cy="-527.2385" rx="3.2" ry="3.2"/>
</g>
<!-- faqs -->
<g id="node4" class="node">
<title>faqs</title>
<g id="a_node4"><a xlink:href="../../tables/faqs.html" xlink:title="faqs" target="_top">
<polygon fill="#ffffff" stroke="transparent" points="544.5,-126.2 544.5,-187.2 615.5,-187.2 615.5,-126.2 544.5,-126.2"/>
<polygon fill="#f5f5f5" stroke="transparent" points="545,-163.7 545,-186.7 616,-186.7 616,-163.7 545,-163.7"/>
<polygon fill="none" stroke="#000000" points="545,-163.7 545,-186.7 616,-186.7 616,-163.7 545,-163.7"/>
<text text-anchor="start" x="549.6066" y="-172.3" font-family="Helvetica,sans-Serif" font-weight="bold" font-size="11.00" fill="#000000">faqs</text>
<text text-anchor="start" x="581.0437" y="-171.8" font-family="Helvetica,sans-Serif" font-size="11.00" fill="#000000">[table]</text>
<polygon fill="none" stroke="#000000" points="545,-144.7 545,-163.7 616,-163.7 616,-144.7 545,-144.7"/>
<text text-anchor="start" x="548" y="-150.8" font-family="Helvetica,sans-Serif" font-size="11.00" fill="#000000">...</text>
<polygon fill="#ffffff" stroke="transparent" points="545,-125.7 545,-144.7 566,-144.7 566,-125.7 545,-125.7"/>
<polygon fill="none" stroke="#000000" points="545,-125.7 545,-144.7 566,-144.7 566,-125.7 545,-125.7"/>
<text text-anchor="start" x="547.7026" y="-131.8" font-family="Helvetica,sans-Serif" font-size="11.00" fill="#000000">&lt; 2</text>
<polygon fill="#ffffff" stroke="transparent" points="566,-125.7 566,-144.7 604,-144.7 604,-125.7 566,-125.7"/>
<polygon fill="none" stroke="#000000" points="566,-125.7 566,-144.7 604,-144.7 604,-125.7 566,-125.7"/>
<text text-anchor="start" x="568.8053" y="-131.8" font-family="Helvetica,sans-Serif" font-size="11.00" fill="#000000">0 rows</text>
<polygon fill="#ffffff" stroke="transparent" points="604,-125.7 604,-144.7 616,-144.7 616,-125.7 604,-125.7"/>
<polygon fill="none" stroke="#000000" points="604,-125.7 604,-144.7 616,-144.7 616,-125.7 604,-125.7"/>
<text text-anchor="start" x="606.9431" y="-131.8" font-family="Helvetica,sans-Serif" font-size="11.00" fill="#000000"> &#160;</text>
</a>
</g>
</g>
<!-- users -->
<g id="node5" class="node">
<title>users</title>
<g id="a_node5"><a xlink:href="../../tables/users.html" xlink:title="users" target="_top">
<polygon fill="#ffffff" stroke="transparent" points="277,-87.2 277,-192.2 357,-192.2 357,-87.2 277,-87.2"/>
<polygon fill="#f5f5f5" stroke="transparent" points="277,-168.7 277,-191.7 357,-191.7 357,-168.7 277,-168.7"/>
<polygon fill="none" stroke="#000000" points="277,-168.7 277,-191.7 357,-191.7 357,-168.7 277,-168.7"/>
<text text-anchor="start" x="282" y="-177.3" font-family="Helvetica,sans-Serif" font-weight="bold" font-size="11.00" fill="#000000">users</text>
<text text-anchor="start" x="322.0437" y="-176.8" font-family="Helvetica,sans-Serif" font-size="11.00" fill="#000000">[table]</text>
<polygon fill="none" stroke="#000000" points="277,-146.7 277,-168.7 357,-168.7 357,-146.7 277,-146.7"/>
<image xlink:href="../../images/primaryKeys.png" width="11px" height="12px" preserveAspectRatio="xMinYMin meet" x="282" y="-163.7"/>
<text text-anchor="start" x="297" y="-153.8" font-family="Helvetica,sans-Serif" font-size="11.00" fill="#000000">id_user</text>
<polygon fill="#ffffff" stroke="transparent" points="277,-124.7 277,-146.7 357,-146.7 357,-124.7 277,-124.7"/>
<polygon fill="none" stroke="#000000" points="277,-124.7 277,-146.7 357,-146.7 357,-124.7 277,-124.7"/>
<text text-anchor="start" x="297" y="-131.8" font-family="Helvetica,sans-Serif" font-size="11.00" fill="#000000">username</text>
<polygon fill="none" stroke="#000000" points="277,-105.7 277,-124.7 357,-124.7 357,-105.7 277,-105.7"/>
<text text-anchor="start" x="280" y="-111.8" font-family="Helvetica,sans-Serif" font-size="11.00" fill="#000000">...</text>
<polygon fill="#ffffff" stroke="transparent" points="277,-86.7 277,-105.7 293,-105.7 293,-86.7 277,-86.7"/>
<polygon fill="none" stroke="#000000" points="277,-86.7 277,-105.7 293,-105.7 293,-86.7 277,-86.7"/>
<text text-anchor="start" x="280" y="-92.8" font-family="Helvetica,sans-Serif" font-size="11.00" fill="#000000"> &#160;</text>
<polygon fill="#ffffff" stroke="transparent" points="293,-86.7 293,-105.7 333,-105.7 333,-86.7 293,-86.7"/>
<polygon fill="none" stroke="#000000" points="293,-86.7 293,-105.7 333,-105.7 333,-86.7 293,-86.7"/>
<text text-anchor="start" x="297.6105" y="-92.8" font-family="Helvetica,sans-Serif" font-size="11.00" fill="#000000">0 rows</text>
<polygon fill="#ffffff" stroke="transparent" points="333,-86.7 333,-105.7 357,-105.7 357,-86.7 333,-86.7"/>
<polygon fill="none" stroke="#000000" points="333,-86.7 333,-105.7 357,-105.7 357,-86.7 333,-86.7"/>
<text text-anchor="start" x="338.4053" y="-92.8" font-family="Helvetica,sans-Serif" font-size="11.00" fill="#000000">4 &gt;</text>
</a>
</g>
</g>
<!-- faqs&#45;&gt;users -->
<g id="edge3" class="edge">
<title>faqs:w&#45;&gt;users:e</title>
<path fill="none" stroke="#000000" d="M530.4815,-152.7184C458.6707,-148.1917 435.5143,-152.0633 357,-157.7"/>
<polygon fill="#000000" stroke="#000000" points="537.0182,-153.1603 544.7571,-157.2918 541.0091,-153.4301 545,-153.7 545,-153.7 545,-153.7 541.0091,-153.4301 545.2429,-150.1082 537.0182,-153.1603 537.0182,-153.1603"/>
<ellipse fill="none" stroke="#000000" cx="533.8255" cy="-152.9444" rx="3.2" ry="3.2"/>
</g>
<!-- faqs&#45;&gt;users -->
<g id="edge4" class="edge">
<title>faqs:w&#45;&gt;users:e</title>
<path fill="none" stroke="#000000" d="M530.4815,-154.9367C458.6707,-161.144 435.5143,-164.2762 357,-157.7"/>
<polygon fill="#000000" stroke="#000000" points="537.0289,-154.379 545.3056,-157.287 541.0144,-154.0395 545,-153.7 545,-153.7 545,-153.7 541.0144,-154.0395 544.6944,-150.113 537.0289,-154.379 537.0289,-154.379"/>
<ellipse fill="none" stroke="#000000" cx="533.8404" cy="-154.6507" rx="3.2" ry="3.2"/>
</g>
<!-- message_notifications -->
<g id="node6" class="node">
<title>message_notifications</title>
<g id="a_node6"><a xlink:href="../../tables/message_notifications.html" xlink:title="message_notifications" target="_top">
<polygon fill="#ffffff" stroke="transparent" points="803,-416.2 803,-477.2 971,-477.2 971,-416.2 803,-416.2"/>
<polygon fill="#f5f5f5" stroke="transparent" points="803,-453.7 803,-476.7 971,-476.7 971,-453.7 803,-453.7"/>
<polygon fill="none" stroke="#000000" points="803,-453.7 803,-476.7 971,-476.7 971,-453.7 803,-453.7"/>
<text text-anchor="start" x="808" y="-462.3" font-family="Helvetica,sans-Serif" font-weight="bold" font-size="11.00" fill="#000000">message_notifications</text>
<text text-anchor="start" x="936.5219" y="-461.8" font-family="Helvetica,sans-Serif" font-size="11.00" fill="#000000">[table]</text>
<polygon fill="none" stroke="#000000" points="803,-434.7 803,-453.7 971,-453.7 971,-434.7 803,-434.7"/>
<text text-anchor="start" x="806" y="-440.8" font-family="Helvetica,sans-Serif" font-size="11.00" fill="#000000">...</text>
<polygon fill="#ffffff" stroke="transparent" points="803,-415.7 803,-434.7 872,-434.7 872,-415.7 803,-415.7"/>
<polygon fill="none" stroke="#000000" points="803,-415.7 803,-434.7 872,-434.7 872,-415.7 803,-415.7"/>
<text text-anchor="start" x="806" y="-421.8" font-family="Helvetica,sans-Serif" font-size="11.00" fill="#000000">&lt; 2</text>
<polygon fill="#ffffff" stroke="transparent" points="872,-415.7 872,-434.7 934,-434.7 934,-415.7 872,-415.7"/>
<polygon fill="none" stroke="#000000" points="872,-415.7 872,-434.7 934,-434.7 934,-415.7 872,-415.7"/>
<text text-anchor="start" x="898.6105" y="-421.8" font-family="Helvetica,sans-Serif" font-size="11.00" fill="#000000">0 rows</text>
<polygon fill="#ffffff" stroke="transparent" points="934,-415.7 934,-434.7 971,-434.7 971,-415.7 934,-415.7"/>
<polygon fill="none" stroke="#000000" points="934,-415.7 934,-434.7 971,-434.7 971,-415.7 934,-415.7"/>
<text text-anchor="start" x="961.8862" y="-421.8" font-family="Helvetica,sans-Serif" font-size="11.00" fill="#000000"> &#160;</text>
</a>
</g>
</g>
<!-- message_notifications&#45;&gt;patients -->
<g id="edge6" class="edge">
<title>message_notifications:w&#45;&gt;patients:e</title>
<path fill="none" stroke="#000000" d="M780.4219,-462.1774C774.1976,-462.7754 768.0227,-463.2923 762,-463.7 543.2592,-478.5062 478.8512,-510.1762 269,-446.7 258.0247,-443.3802 246.7145,-438.7481 236.0994,-433.7871"/>
<polygon fill="#000000" stroke="#000000" points="787.0309,-461.4837 795.363,-464.2287 791.009,-461.066 794.9871,-460.6484 794.9871,-460.6484 794.9871,-460.6484 791.009,-461.066 794.6113,-457.0681 787.0309,-461.4837 787.0309,-461.4837"/>
<ellipse fill="none" stroke="#000000" cx="783.8483" cy="-461.8178" rx="3.2" ry="3.2"/>
</g>
<!-- messages -->
<g id="node7" class="node">
<title>messages</title>
<g id="a_node7"><a xlink:href="../../tables/messages.html" xlink:title="messages" target="_top">
<polygon fill="#ffffff" stroke="transparent" points="406,-208.7 406,-452.7 754,-452.7 754,-208.7 406,-208.7"/>
<polygon fill="#f5f5f5" stroke="transparent" points="408,-427.7 408,-450.7 752,-450.7 752,-427.7 408,-427.7"/>
<polygon fill="none" stroke="#000000" points="408,-427.7 408,-450.7 752,-450.7 752,-427.7 408,-427.7"/>
<text text-anchor="start" x="413" y="-436.3" font-family="Helvetica,sans-Serif" font-weight="bold" font-size="11.00" fill="#000000">messages</text>
<text text-anchor="start" x="717.0437" y="-435.8" font-family="Helvetica,sans-Serif" font-size="11.00" fill="#000000">[table]</text>
<polygon fill="none" stroke="#000000" points="408,-405.7 408,-427.7 531,-427.7 531,-405.7 408,-405.7"/>
<image xlink:href="../../images/primaryKeys.png" width="11px" height="12px" preserveAspectRatio="xMinYMin meet" x="413" y="-422.7"/>
<text text-anchor="start" x="428" y="-412.8" font-family="Helvetica,sans-Serif" font-size="11.00" fill="#000000">id_message</text>
<polygon fill="none" stroke="#000000" points="531,-405.7 531,-427.7 752,-427.7 752,-405.7 531,-405.7"/>
<text text-anchor="start" x="534" y="-413.4" font-family="Helvetica,sans-Serif" font-size="11.00" fill="#000000">serial[10]</text>
<polygon fill="none" stroke="#000000" points="408,-383.7 408,-405.7 531,-405.7 531,-383.7 408,-383.7"/>
<image xlink:href="../../images/foreignKeys.png" width="11px" height="12px" preserveAspectRatio="xMinYMin meet" x="413" y="-400.7"/>
<text text-anchor="start" x="428" y="-390.8" font-family="Helvetica,sans-Serif" font-size="11.00" fill="#000000">chat_id</text>
<polygon fill="none" stroke="#000000" points="531,-383.7 531,-405.7 752,-405.7 752,-383.7 531,-383.7"/>
<text text-anchor="start" x="534" y="-391.4" font-family="Helvetica,sans-Serif" font-size="11.00" fill="#000000">int4[10]</text>
<polygon fill="none" stroke="#000000" points="408,-361.7 408,-383.7 531,-383.7 531,-361.7 408,-361.7"/>
<text text-anchor="start" x="428" y="-368.8" font-family="Helvetica,sans-Serif" font-size="11.00" fill="#000000">sender_role</text>
<polygon fill="none" stroke="#000000" points="531,-361.7 531,-383.7 752,-383.7 752,-361.7 531,-361.7"/>
<text text-anchor="start" x="533.9052" y="-369.4" font-family="Helvetica,sans-Serif" font-size="11.00" fill="#000000">enum_messages_sender_role[2147483647]</text>
<polygon fill="none" stroke="#000000" points="408,-339.7 408,-361.7 531,-361.7 531,-339.7 408,-339.7"/>
<image xlink:href="../../images/foreignKeys.png" width="11px" height="12px" preserveAspectRatio="xMinYMin meet" x="413" y="-356.7"/>
<text text-anchor="start" x="428" y="-346.8" font-family="Helvetica,sans-Serif" font-size="11.00" fill="#000000">sender_patient_id</text>
<polygon fill="none" stroke="#000000" points="531,-339.7 531,-361.7 752,-361.7 752,-339.7 531,-339.7"/>
<text text-anchor="start" x="534" y="-347.4" font-family="Helvetica,sans-Serif" font-size="11.00" fill="#000000">int4[10]</text>
<polygon fill="none" stroke="#000000" points="408,-317.7 408,-339.7 531,-339.7 531,-317.7 408,-317.7"/>
<image xlink:href="../../images/foreignKeys.png" width="11px" height="12px" preserveAspectRatio="xMinYMin meet" x="413" y="-334.7"/>
<text text-anchor="start" x="428" y="-324.8" font-family="Helvetica,sans-Serif" font-size="11.00" fill="#000000">sender_staff_id</text>
<polygon fill="none" stroke="#000000" points="531,-317.7 531,-339.7 752,-339.7 752,-317.7 531,-317.7"/>
<text text-anchor="start" x="534" y="-325.4" font-family="Helvetica,sans-Serif" font-size="11.00" fill="#000000">int4[10]</text>
<polygon fill="none" stroke="#000000" points="408,-295.7 408,-317.7 531,-317.7 531,-295.7 408,-295.7"/>
<text text-anchor="start" x="428" y="-302.8" font-family="Helvetica,sans-Serif" font-size="11.00" fill="#000000">content</text>
<polygon fill="none" stroke="#000000" points="531,-295.7 531,-317.7 752,-317.7 752,-295.7 531,-295.7"/>
<text text-anchor="start" x="534" y="-303.4" font-family="Helvetica,sans-Serif" font-size="11.00" fill="#000000">text[2147483647]</text>
<polygon fill="none" stroke="#000000" points="408,-273.7 408,-295.7 531,-295.7 531,-273.7 408,-273.7"/>
<text text-anchor="start" x="428" y="-280.8" font-family="Helvetica,sans-Serif" font-size="11.00" fill="#000000">status</text>
<polygon fill="none" stroke="#000000" points="531,-273.7 531,-295.7 752,-295.7 752,-273.7 531,-273.7"/>
<text text-anchor="start" x="534" y="-281.4" font-family="Helvetica,sans-Serif" font-size="11.00" fill="#000000">enum_messages_status[2147483647]</text>
<polygon fill="none" stroke="#000000" points="408,-251.7 408,-273.7 531,-273.7 531,-251.7 408,-251.7"/>
<text text-anchor="start" x="428" y="-258.8" font-family="Helvetica,sans-Serif" font-size="11.00" fill="#000000">createdAt</text>
<polygon fill="none" stroke="#000000" points="531,-251.7 531,-273.7 752,-273.7 752,-251.7 531,-251.7"/>
<text text-anchor="start" x="534" y="-259.4" font-family="Helvetica,sans-Serif" font-size="11.00" fill="#000000">timestamptz[35,6]</text>
<polygon fill="none" stroke="#000000" points="408,-229.7 408,-251.7 531,-251.7 531,-229.7 408,-229.7"/>
<text text-anchor="start" x="428" y="-236.8" font-family="Helvetica,sans-Serif" font-size="11.00" fill="#000000">updatedAt</text>
<polygon fill="none" stroke="#000000" points="531,-229.7 531,-251.7 752,-251.7 752,-229.7 531,-229.7"/>
<text text-anchor="start" x="534" y="-237.4" font-family="Helvetica,sans-Serif" font-size="11.00" fill="#000000">timestamptz[35,6]</text>
<polygon fill="#ffffff" stroke="transparent" points="408,-210.7 408,-229.7 461,-229.7 461,-210.7 408,-210.7"/>
<polygon fill="none" stroke="#000000" points="408,-210.7 408,-229.7 461,-229.7 461,-210.7 408,-210.7"/>
<text text-anchor="start" x="411" y="-216.8" font-family="Helvetica,sans-Serif" font-size="11.00" fill="#000000">&lt; 3</text>
<polygon fill="#ffffff" stroke="transparent" points="461,-210.7 461,-229.7 531,-229.7 531,-210.7 461,-210.7"/>
<polygon fill="none" stroke="#000000" points="461,-210.7 461,-229.7 531,-229.7 531,-210.7 461,-210.7"/>
<text text-anchor="start" x="495.6105" y="-216.8" font-family="Helvetica,sans-Serif" font-size="11.00" fill="#000000">0 rows</text>
<polygon fill="#ffffff" stroke="transparent" points="531,-210.7 531,-229.7 752,-229.7 752,-210.7 531,-210.7"/>
<polygon fill="none" stroke="#000000" points="531,-210.7 531,-229.7 752,-229.7 752,-210.7 531,-210.7"/>
<text text-anchor="start" x="733.4053" y="-216.8" font-family="Helvetica,sans-Serif" font-size="11.00" fill="#000000">1 &gt;</text>
<polygon fill="none" stroke="#000000" stroke-width="2" points="407,-209.7 407,-451.7 753,-451.7 753,-209.7 407,-209.7"/>
</a>
</g>
</g>
<!-- message_notifications&#45;&gt;messages -->
<g id="edge5" class="edge">
<title>message_notifications:w&#45;&gt;messages:e</title>
<path fill="none" stroke="#000000" d="M780.2702,-418.5329C770.7679,-417.3791 761.2473,-416.7 752,-416.7"/>
<polygon fill="#000000" stroke="#000000" points="786.7228,-419.4709 794.1216,-424.1845 790.6812,-420.0465 794.6396,-420.622 794.6396,-420.622 794.6396,-420.622 790.6812,-420.0465 795.1575,-417.0594 786.7228,-419.4709 786.7228,-419.4709"/>
<ellipse fill="none" stroke="#000000" cx="783.5561" cy="-419.0105" rx="3.2" ry="3.2"/>
</g>
<!-- messages&#45;&gt;chats -->
<g id="edge7" class="edge">
<title>messages:w&#45;&gt;chats:e</title>
<path fill="none" stroke="#000000" d="M393.5977,-395.1062C383.9782,-395.6191 374.2222,-396.5729 365.0408,-397.7058"/>
<polygon fill="#000000" stroke="#000000" points="400.0032,-394.9256 408.1015,-398.2986 404.0016,-394.8128 408,-394.7 408,-394.7 408,-394.7 404.0016,-394.8128 407.8985,-391.1014 400.0032,-394.9256 400.0032,-394.9256"/>
<ellipse fill="none" stroke="#000000" cx="396.8045" cy="-395.0158" rx="3.2" ry="3.2"/>
</g>
<!-- messages&#45;&gt;patients -->
<g id="edge8" class="edge">
<title>messages:w&#45;&gt;patients:e</title>
<path fill="none" stroke="#000000" d="M393.5777,-350.6509C342.8002,-350.3328 323.8023,-349.0358 269,-364.7 257.9752,-367.8513 246.6429,-372.4082 236.0217,-377.3488"/>
<polygon fill="#000000" stroke="#000000" points="400,-350.6727 407.9877,-354.3 404,-350.6864 408,-350.7 408,-350.7 408,-350.7 404,-350.6864 408.0123,-347.1 400,-350.6727 400,-350.6727"/>
<ellipse fill="none" stroke="#000000" cx="396.8001" cy="-350.6618" rx="3.2" ry="3.2"/>
</g>
<!-- messages&#45;&gt;users -->
<g id="edge9" class="edge">
<title>messages:w&#45;&gt;users:e</title>
<path fill="none" stroke="#000000" d="M393.5937,-326.15C343.2696,-304.8782 430.5769,-157.7 357,-157.7"/>
<polygon fill="#000000" stroke="#000000" points="400.1225,-327.3056 407.3725,-332.2449 404.0612,-328.0028 408,-328.7 408,-328.7 408,-328.7 404.0612,-328.0028 408.6275,-325.1551 400.1225,-327.3056 400.1225,-327.3056"/>
<ellipse fill="none" stroke="#000000" cx="396.9714" cy="-326.7478" rx="3.2" ry="3.2"/>
</g>
<!-- responses -->
<g id="node9" class="node">
<title>responses</title>
<g id="a_node9"><a xlink:href="../../tables/responses.html" xlink:title="responses" target="_top">
<polygon fill="#ffffff" stroke="transparent" points="530.5,-38.2 530.5,-99.2 629.5,-99.2 629.5,-38.2 530.5,-38.2"/>
<polygon fill="#f5f5f5" stroke="transparent" points="531,-75.7 531,-98.7 630,-98.7 630,-75.7 531,-75.7"/>
<polygon fill="none" stroke="#000000" points="531,-75.7 531,-98.7 630,-98.7 630,-75.7 531,-75.7"/>
<text text-anchor="start" x="536" y="-84.3" font-family="Helvetica,sans-Serif" font-weight="bold" font-size="11.00" fill="#000000">responses</text>
<text text-anchor="start" x="595.5219" y="-83.8" font-family="Helvetica,sans-Serif" font-size="11.00" fill="#000000">[table]</text>
<polygon fill="none" stroke="#000000" points="531,-56.7 531,-75.7 630,-75.7 630,-56.7 531,-56.7"/>
<text text-anchor="start" x="534" y="-62.8" font-family="Helvetica,sans-Serif" font-size="11.00" fill="#000000">...</text>
<polygon fill="#ffffff" stroke="transparent" points="531,-37.7 531,-56.7 561,-56.7 561,-37.7 531,-37.7"/>
<polygon fill="none" stroke="#000000" points="531,-37.7 531,-56.7 561,-56.7 561,-37.7 531,-37.7"/>
<text text-anchor="start" x="534" y="-43.8" font-family="Helvetica,sans-Serif" font-size="11.00" fill="#000000">&lt; 3</text>
<polygon fill="#ffffff" stroke="transparent" points="561,-37.7 561,-56.7 604,-56.7 604,-37.7 561,-37.7"/>
<polygon fill="none" stroke="#000000" points="561,-37.7 561,-56.7 604,-56.7 604,-37.7 561,-37.7"/>
<text text-anchor="start" x="568.6105" y="-43.8" font-family="Helvetica,sans-Serif" font-size="11.00" fill="#000000">0 rows</text>
<polygon fill="#ffffff" stroke="transparent" points="604,-37.7 604,-56.7 630,-56.7 630,-37.7 604,-37.7"/>
<polygon fill="none" stroke="#000000" points="604,-37.7 604,-56.7 630,-56.7 630,-37.7 604,-37.7"/>
<text text-anchor="start" x="611.4053" y="-43.8" font-family="Helvetica,sans-Serif" font-size="11.00" fill="#000000">1 &gt;</text>
</a>
</g>
</g>
<!-- responses&#45;&gt;patients -->
<g id="edge12" class="edge">
<title>responses:w&#45;&gt;patients:e</title>
<path fill="none" stroke="#000000" d="M516.3097,-65.3697C409.6623,-60.5821 355.5821,-6.3828 269,-76.7 223.1993,-113.8968 197.9598,-294.2089 189.1389,-370.9793"/>
<polygon fill="#000000" stroke="#000000" points="523.002,-65.5201 530.9191,-69.2991 527.001,-65.6101 531,-65.7 531,-65.7 531,-65.7 527.001,-65.6101 531.0809,-62.1009 523.002,-65.5201 523.002,-65.5201"/>
<ellipse fill="none" stroke="#000000" cx="519.8028" cy="-65.4482" rx="3.2" ry="3.2"/>
</g>
<!-- responses&#45;&gt;users -->
<g id="edge11" class="edge">
<title>responses:w&#45;&gt;users:e</title>
<path fill="none" stroke="#000000" d="M516.346,-66.0143C464.8231,-68.3664 446.5366,-84.0029 398,-115.7 376.1587,-129.9636 383.0863,-157.7 357,-157.7"/>
<polygon fill="#000000" stroke="#000000" points="523.0018,-65.8716 531.0772,-69.2992 527.0009,-65.7858 531,-65.7 531,-65.7 531,-65.7 527.0009,-65.7858 530.9228,-62.1008 523.0018,-65.8716 523.0018,-65.8716"/>
<ellipse fill="none" stroke="#000000" cx="519.8026" cy="-65.9402" rx="3.2" ry="3.2"/>
</g>
</g>
</svg>
