<?xml version="1.0" encoding="UTF-8" standalone="no"?>
<!DOCTYPE svg PUBLIC "-//W3C//DTD SVG 1.1//EN"
 "http://www.w3.org/Graphics/SVG/1.1/DTD/svg11.dtd">
<!-- Generated by graphviz version 2.40.1 (20161225.0304)
 -->
<!-- Title: twoDegreesRelationshipsDiagramImplied Pages: 1 -->
<svg width="1022pt" height="574pt"
 viewBox="0.00 0.00 1022.00 574.20" xmlns="http://www.w3.org/2000/svg" xmlns:xlink="http://www.w3.org/1999/xlink">
<g id="graph0" class="graph" transform="scale(1 1) rotate(0) translate(4 570.2)">
<title>twoDegreesRelationshipsDiagramImplied</title>
<polygon fill="#ffffff" stroke="transparent" points="-4,4 -4,-570.2 1018,-570.2 1018,4 -4,4"/>
<text text-anchor="middle" x="72.4936" y="-7.3" font-family="Helvetica,sans-Serif" font-size="11.00" fill="#000000">Generated by SchemaSpy</text>
<!-- chats -->
<g id="node1" class="node">
<title>chats</title>
<g id="a_node1"><a xlink:href="../../tables/chats.html" xlink:title="chats" target="_top">
<polygon fill="#ffffff" stroke="transparent" points="312,-375.2 312,-436.2 392,-436.2 392,-375.2 312,-375.2"/>
<polygon fill="#f5f5f5" stroke="transparent" points="312,-412.7 312,-435.7 392,-435.7 392,-412.7 312,-412.7"/>
<polygon fill="none" stroke="#000000" points="312,-412.7 312,-435.7 392,-435.7 392,-412.7 312,-412.7"/>
<text text-anchor="start" x="317" y="-421.3" font-family="Helvetica,sans-Serif" font-weight="bold" font-size="11.00" fill="#000000">chats</text>
<text text-anchor="start" x="357.0437" y="-420.8" font-family="Helvetica,sans-Serif" font-size="11.00" fill="#000000">[table]</text>
<polygon fill="none" stroke="#000000" points="312,-393.7 312,-412.7 392,-412.7 392,-393.7 312,-393.7"/>
<text text-anchor="start" x="315" y="-399.8" font-family="Helvetica,sans-Serif" font-size="11.00" fill="#000000">...</text>
<polygon fill="#ffffff" stroke="transparent" points="312,-374.7 312,-393.7 333,-393.7 333,-374.7 312,-374.7"/>
<polygon fill="none" stroke="#000000" points="312,-374.7 312,-393.7 333,-393.7 333,-374.7 312,-374.7"/>
<text text-anchor="start" x="314.7027" y="-380.8" font-family="Helvetica,sans-Serif" font-size="11.00" fill="#000000">&lt; 1</text>
<polygon fill="#ffffff" stroke="transparent" points="333,-374.7 333,-393.7 371,-393.7 371,-374.7 333,-374.7"/>
<polygon fill="none" stroke="#000000" points="333,-374.7 333,-393.7 371,-393.7 371,-374.7 333,-374.7"/>
<text text-anchor="start" x="335.8053" y="-380.8" font-family="Helvetica,sans-Serif" font-size="11.00" fill="#000000">0 rows</text>
<polygon fill="#ffffff" stroke="transparent" points="371,-374.7 371,-393.7 392,-393.7 392,-374.7 371,-374.7"/>
<polygon fill="none" stroke="#000000" points="371,-374.7 371,-393.7 392,-393.7 392,-374.7 371,-374.7"/>
<text text-anchor="start" x="373.7027" y="-380.8" font-family="Helvetica,sans-Serif" font-size="11.00" fill="#000000">1 &gt;</text>
</a>
</g>
</g>
<!-- patients -->
<g id="node2" class="node">
<title>patients</title>
<g id="a_node2"><a xlink:href="../../tables/patients.html" xlink:title="patients" target="_top">
<polygon fill="#ffffff" stroke="transparent" points="178,-375.2 178,-436.2 263,-436.2 263,-375.2 178,-375.2"/>
<polygon fill="#f5f5f5" stroke="transparent" points="178.5,-412.7 178.5,-435.7 263.5,-435.7 263.5,-412.7 178.5,-412.7"/>
<polygon fill="none" stroke="#000000" points="178.5,-412.7 178.5,-435.7 263.5,-435.7 263.5,-412.7 178.5,-412.7"/>
<text text-anchor="start" x="183.5" y="-421.3" font-family="Helvetica,sans-Serif" font-weight="bold" font-size="11.00" fill="#000000">patients</text>
<text text-anchor="start" x="229.0219" y="-420.8" font-family="Helvetica,sans-Serif" font-size="11.00" fill="#000000">[table]</text>
<polygon fill="none" stroke="#000000" points="178.5,-393.7 178.5,-412.7 263.5,-412.7 263.5,-393.7 178.5,-393.7"/>
<text text-anchor="start" x="181.5" y="-399.8" font-family="Helvetica,sans-Serif" font-size="11.00" fill="#000000">...</text>
<polygon fill="#ffffff" stroke="transparent" points="178.5,-374.7 178.5,-393.7 201.5,-393.7 201.5,-374.7 178.5,-374.7"/>
<polygon fill="none" stroke="#000000" points="178.5,-374.7 178.5,-393.7 201.5,-393.7 201.5,-374.7 178.5,-374.7"/>
<text text-anchor="start" x="181.5" y="-380.8" font-family="Helvetica,sans-Serif" font-size="11.00" fill="#000000">&lt; 2</text>
<polygon fill="#ffffff" stroke="transparent" points="201.5,-374.7 201.5,-393.7 240.5,-393.7 240.5,-374.7 201.5,-374.7"/>
<polygon fill="none" stroke="#000000" points="201.5,-374.7 201.5,-393.7 240.5,-393.7 240.5,-374.7 201.5,-374.7"/>
<text text-anchor="start" x="205.1105" y="-380.8" font-family="Helvetica,sans-Serif" font-size="11.00" fill="#000000">0 rows</text>
<polygon fill="#ffffff" stroke="transparent" points="240.5,-374.7 240.5,-393.7 263.5,-393.7 263.5,-374.7 240.5,-374.7"/>
<polygon fill="none" stroke="#000000" points="240.5,-374.7 240.5,-393.7 263.5,-393.7 263.5,-374.7 240.5,-374.7"/>
<text text-anchor="start" x="244.9053" y="-380.8" font-family="Helvetica,sans-Serif" font-size="11.00" fill="#000000">5 &gt;</text>
</a>
</g>
</g>
<!-- chats&#45;&gt;patients -->
<g id="edge1" class="edge">
<title>chats:w&#45;&gt;patients:e</title>
<path fill="none" stroke="#000000" d="M289.1435,-405.7C283.1836,-405.7 277.1919,-405.7 271.3649,-405.7"/>
<polygon fill="#000000" stroke="#000000" points="295.7809,-405.7001 303.781,-409.3 299.7809,-405.7 303.7809,-405.7 303.7809,-405.7 303.7809,-405.7 299.7809,-405.7 303.7809,-402.1 295.7809,-405.7001 295.7809,-405.7001"/>
<ellipse fill="none" stroke="#000000" cx="292.5809" cy="-405.7001" rx="3.2" ry="3.2"/>
</g>
<!-- cid -->
<g id="node8" class="node">
<title>cid</title>
<g id="a_node8"><a xlink:href="../../tables/cid.html" xlink:title="cid" target="_top">
<polygon fill="#ffffff" stroke="transparent" points="25.5,-419.2 25.5,-480.2 111.5,-480.2 111.5,-419.2 25.5,-419.2"/>
<polygon fill="#f5f5f5" stroke="transparent" points="25.5,-456.7 25.5,-479.7 111.5,-479.7 111.5,-456.7 25.5,-456.7"/>
<polygon fill="none" stroke="#000000" points="25.5,-456.7 25.5,-479.7 111.5,-479.7 111.5,-456.7 25.5,-456.7"/>
<text text-anchor="start" x="29.9721" y="-465.3" font-family="Helvetica,sans-Serif" font-weight="bold" font-size="11.00" fill="#000000">cid</text>
<text text-anchor="start" x="76.5437" y="-464.8" font-family="Helvetica,sans-Serif" font-size="11.00" fill="#000000">[table]</text>
<polygon fill="none" stroke="#000000" points="25.5,-437.7 25.5,-456.7 111.5,-456.7 111.5,-437.7 25.5,-437.7"/>
<text text-anchor="start" x="28.5" y="-443.8" font-family="Helvetica,sans-Serif" font-size="11.00" fill="#000000">...</text>
<polygon fill="#ffffff" stroke="transparent" points="25.5,-418.7 25.5,-437.7 46.5,-437.7 46.5,-418.7 25.5,-418.7"/>
<polygon fill="none" stroke="#000000" points="25.5,-418.7 25.5,-437.7 46.5,-437.7 46.5,-418.7 25.5,-418.7"/>
<text text-anchor="start" x="28.2027" y="-424.8" font-family="Helvetica,sans-Serif" font-size="11.00" fill="#000000">&lt; 1</text>
<polygon fill="#ffffff" stroke="transparent" points="46.5,-418.7 46.5,-437.7 90.5,-437.7 90.5,-418.7 46.5,-418.7"/>
<polygon fill="none" stroke="#000000" points="46.5,-418.7 46.5,-437.7 90.5,-437.7 90.5,-418.7 46.5,-418.7"/>
<text text-anchor="start" x="49.2478" y="-424.8" font-family="Helvetica,sans-Serif" font-size="11.00" fill="#000000">88 rows</text>
<polygon fill="#ffffff" stroke="transparent" points="90.5,-418.7 90.5,-437.7 111.5,-437.7 111.5,-418.7 90.5,-418.7"/>
<polygon fill="none" stroke="#000000" points="90.5,-418.7 90.5,-437.7 111.5,-437.7 111.5,-418.7 90.5,-418.7"/>
<text text-anchor="start" x="93.2027" y="-424.8" font-family="Helvetica,sans-Serif" font-size="11.00" fill="#000000">1 &gt;</text>
</a>
</g>
</g>
<!-- patients&#45;&gt;cid -->
<g id="edge10" class="edge">
<title>patients:w&#45;&gt;cid:e</title>
<path fill="none" stroke="#000000" d="M155.9524,-438.5016C141.6726,-443.3203 126.3603,-446.7 111.5,-446.7"/>
<polygon fill="#000000" stroke="#000000" points="162.3461,-436.0941 171.1016,-436.6442 166.0896,-434.6846 169.833,-433.2751 169.833,-433.2751 169.833,-433.2751 166.0896,-434.6846 168.5644,-429.906 162.3461,-436.0941 162.3461,-436.0941"/>
<ellipse fill="none" stroke="#000000" cx="159.3514" cy="-437.2218" rx="3.2" ry="3.2"/>
</g>
<!-- SequelizeMeta -->
<g id="node9" class="node">
<title>SequelizeMeta</title>
<g id="a_node9"><a xlink:href="../../tables/SequelizeMeta.html" xlink:title="SequelizeMeta" target="_top">
<polygon fill="#ffffff" stroke="transparent" points="8,-337.2 8,-398.2 129,-398.2 129,-337.2 8,-337.2"/>
<polygon fill="#f5f5f5" stroke="transparent" points="8.5,-374.7 8.5,-397.7 129.5,-397.7 129.5,-374.7 8.5,-374.7"/>
<polygon fill="none" stroke="#000000" points="8.5,-374.7 8.5,-397.7 129.5,-397.7 129.5,-374.7 8.5,-374.7"/>
<text text-anchor="start" x="13.5" y="-383.3" font-family="Helvetica,sans-Serif" font-weight="bold" font-size="11.00" fill="#000000">SequelizeMeta</text>
<text text-anchor="start" x="95.0219" y="-382.8" font-family="Helvetica,sans-Serif" font-size="11.00" fill="#000000">[table]</text>
<polygon fill="none" stroke="#000000" points="8.5,-355.7 8.5,-374.7 129.5,-374.7 129.5,-355.7 8.5,-355.7"/>
<text text-anchor="start" x="11.5" y="-361.8" font-family="Helvetica,sans-Serif" font-size="11.00" fill="#000000">...</text>
<polygon fill="#ffffff" stroke="transparent" points="8.5,-336.7 8.5,-355.7 42.5,-355.7 42.5,-336.7 8.5,-336.7"/>
<polygon fill="none" stroke="#000000" points="8.5,-336.7 8.5,-355.7 42.5,-355.7 42.5,-336.7 8.5,-336.7"/>
<text text-anchor="start" x="11.5" y="-342.8" font-family="Helvetica,sans-Serif" font-size="11.00" fill="#000000"> &#160;</text>
<polygon fill="#ffffff" stroke="transparent" points="42.5,-336.7 42.5,-355.7 97.5,-355.7 97.5,-336.7 42.5,-336.7"/>
<polygon fill="none" stroke="#000000" points="42.5,-336.7 42.5,-355.7 97.5,-355.7 97.5,-336.7 42.5,-336.7"/>
<text text-anchor="start" x="55.9956" y="-342.8" font-family="Helvetica,sans-Serif" font-size="11.00" fill="#000000">17 rows</text>
<polygon fill="#ffffff" stroke="transparent" points="97.5,-336.7 97.5,-355.7 129.5,-355.7 129.5,-336.7 97.5,-336.7"/>
<polygon fill="none" stroke="#000000" points="97.5,-336.7 97.5,-355.7 129.5,-355.7 129.5,-336.7 97.5,-336.7"/>
<text text-anchor="start" x="110.9053" y="-342.8" font-family="Helvetica,sans-Serif" font-size="11.00" fill="#000000">1 &gt;</text>
</a>
</g>
</g>
<!-- patients&#45;&gt;SequelizeMeta -->
<g id="edge11" class="edge">
<title>patients:w&#45;&gt;SequelizeMeta:e</title>
<path fill="none" stroke="#000000" stroke-dasharray="5,2" d="M156.0117,-368.9681C147.3445,-366.3417 138.3766,-364.7 129.5,-364.7"/>
<polygon fill="#000000" stroke="#000000" points="162.268,-371.2559 168.5449,-377.3846 166.0247,-372.6297 169.7814,-374.0035 169.7814,-374.0035 169.7814,-374.0035 166.0247,-372.6297 171.0178,-370.6225 162.268,-371.2559 162.268,-371.2559"/>
<ellipse fill="none" stroke="#000000" cx="159.2626" cy="-370.1569" rx="3.2" ry="3.2"/>
</g>
<!-- device -->
<g id="node3" class="node">
<title>device</title>
<g id="a_node3"><a xlink:href="../../tables/device.html" xlink:title="device" target="_top">
<polygon fill="#ffffff" stroke="transparent" points="314,-501.2 314,-562.2 390,-562.2 390,-501.2 314,-501.2"/>
<polygon fill="#f5f5f5" stroke="transparent" points="314,-538.7 314,-561.7 390,-561.7 390,-538.7 314,-538.7"/>
<polygon fill="none" stroke="#000000" points="314,-538.7 314,-561.7 390,-561.7 390,-538.7 314,-538.7"/>
<text text-anchor="start" x="319" y="-547.3" font-family="Helvetica,sans-Serif" font-weight="bold" font-size="11.00" fill="#000000">device</text>
<text text-anchor="start" x="355.5219" y="-546.8" font-family="Helvetica,sans-Serif" font-size="11.00" fill="#000000">[table]</text>
<polygon fill="none" stroke="#000000" points="314,-519.7 314,-538.7 390,-538.7 390,-519.7 314,-519.7"/>
<text text-anchor="start" x="317" y="-525.8" font-family="Helvetica,sans-Serif" font-size="11.00" fill="#000000">...</text>
<polygon fill="#ffffff" stroke="transparent" points="314,-500.7 314,-519.7 337,-519.7 337,-500.7 314,-500.7"/>
<polygon fill="none" stroke="#000000" points="314,-500.7 314,-519.7 337,-519.7 337,-500.7 314,-500.7"/>
<text text-anchor="start" x="317" y="-506.8" font-family="Helvetica,sans-Serif" font-size="11.00" fill="#000000">&lt; 1</text>
<polygon fill="#ffffff" stroke="transparent" points="337,-500.7 337,-519.7 376,-519.7 376,-500.7 337,-500.7"/>
<polygon fill="none" stroke="#000000" points="337,-500.7 337,-519.7 376,-519.7 376,-500.7 337,-500.7"/>
<text text-anchor="start" x="340.6105" y="-506.8" font-family="Helvetica,sans-Serif" font-size="11.00" fill="#000000">0 rows</text>
<polygon fill="#ffffff" stroke="transparent" points="376,-500.7 376,-519.7 390,-519.7 390,-500.7 376,-500.7"/>
<polygon fill="none" stroke="#000000" points="376,-500.7 376,-519.7 390,-519.7 390,-500.7 376,-500.7"/>
<text text-anchor="start" x="380.8862" y="-506.8" font-family="Helvetica,sans-Serif" font-size="11.00" fill="#000000"> &#160;</text>
</a>
</g>
</g>
<!-- device&#45;&gt;patients -->
<g id="edge2" class="edge">
<title>device:w&#45;&gt;patients:e</title>
<path fill="none" stroke="#000000" d="M299.5285,-526.7953C263.5924,-517.1128 241.7705,-472.5488 230.4174,-440.2897"/>
<polygon fill="#000000" stroke="#000000" points="306.0684,-527.656 313.5302,-532.2692 310.0342,-528.178 314,-528.7 314,-528.7 314,-528.7 310.0342,-528.178 314.4698,-525.1308 306.0684,-527.656 306.0684,-527.656"/>
<ellipse fill="none" stroke="#000000" cx="302.8958" cy="-527.2385" rx="3.2" ry="3.2"/>
</g>
<!-- faqs -->
<g id="node4" class="node">
<title>faqs</title>
<g id="a_node4"><a xlink:href="../../tables/faqs.html" xlink:title="faqs" target="_top">
<polygon fill="#ffffff" stroke="transparent" points="579.5,-126.2 579.5,-187.2 650.5,-187.2 650.5,-126.2 579.5,-126.2"/>
<polygon fill="#f5f5f5" stroke="transparent" points="580,-163.7 580,-186.7 651,-186.7 651,-163.7 580,-163.7"/>
<polygon fill="none" stroke="#000000" points="580,-163.7 580,-186.7 651,-186.7 651,-163.7 580,-163.7"/>
<text text-anchor="start" x="584.6066" y="-172.3" font-family="Helvetica,sans-Serif" font-weight="bold" font-size="11.00" fill="#000000">faqs</text>
<text text-anchor="start" x="616.0437" y="-171.8" font-family="Helvetica,sans-Serif" font-size="11.00" fill="#000000">[table]</text>
<polygon fill="none" stroke="#000000" points="580,-144.7 580,-163.7 651,-163.7 651,-144.7 580,-144.7"/>
<text text-anchor="start" x="583" y="-150.8" font-family="Helvetica,sans-Serif" font-size="11.00" fill="#000000">...</text>
<polygon fill="#ffffff" stroke="transparent" points="580,-125.7 580,-144.7 601,-144.7 601,-125.7 580,-125.7"/>
<polygon fill="none" stroke="#000000" points="580,-125.7 580,-144.7 601,-144.7 601,-125.7 580,-125.7"/>
<text text-anchor="start" x="582.7026" y="-131.8" font-family="Helvetica,sans-Serif" font-size="11.00" fill="#000000">&lt; 2</text>
<polygon fill="#ffffff" stroke="transparent" points="601,-125.7 601,-144.7 639,-144.7 639,-125.7 601,-125.7"/>
<polygon fill="none" stroke="#000000" points="601,-125.7 601,-144.7 639,-144.7 639,-125.7 601,-125.7"/>
<text text-anchor="start" x="603.8053" y="-131.8" font-family="Helvetica,sans-Serif" font-size="11.00" fill="#000000">0 rows</text>
<polygon fill="#ffffff" stroke="transparent" points="639,-125.7 639,-144.7 651,-144.7 651,-125.7 639,-125.7"/>
<polygon fill="none" stroke="#000000" points="639,-125.7 639,-144.7 651,-144.7 651,-125.7 639,-125.7"/>
<text text-anchor="start" x="641.9431" y="-131.8" font-family="Helvetica,sans-Serif" font-size="11.00" fill="#000000"> &#160;</text>
</a>
</g>
</g>
<!-- users -->
<g id="node5" class="node">
<title>users</title>
<g id="a_node5"><a xlink:href="../../tables/users.html" xlink:title="users" target="_top">
<polygon fill="#ffffff" stroke="transparent" points="312,-87.2 312,-192.2 392,-192.2 392,-87.2 312,-87.2"/>
<polygon fill="#f5f5f5" stroke="transparent" points="312,-168.7 312,-191.7 392,-191.7 392,-168.7 312,-168.7"/>
<polygon fill="none" stroke="#000000" points="312,-168.7 312,-191.7 392,-191.7 392,-168.7 312,-168.7"/>
<text text-anchor="start" x="317" y="-177.3" font-family="Helvetica,sans-Serif" font-weight="bold" font-size="11.00" fill="#000000">users</text>
<text text-anchor="start" x="357.0437" y="-176.8" font-family="Helvetica,sans-Serif" font-size="11.00" fill="#000000">[table]</text>
<polygon fill="none" stroke="#000000" points="312,-146.7 312,-168.7 392,-168.7 392,-146.7 312,-146.7"/>
<image xlink:href="../../images/primaryKeys.png" width="11px" height="12px" preserveAspectRatio="xMinYMin meet" x="317" y="-163.7"/>
<text text-anchor="start" x="332" y="-153.8" font-family="Helvetica,sans-Serif" font-size="11.00" fill="#000000">id_user</text>
<polygon fill="#ffffff" stroke="transparent" points="312,-124.7 312,-146.7 392,-146.7 392,-124.7 312,-124.7"/>
<polygon fill="none" stroke="#000000" points="312,-124.7 312,-146.7 392,-146.7 392,-124.7 312,-124.7"/>
<text text-anchor="start" x="332" y="-131.8" font-family="Helvetica,sans-Serif" font-size="11.00" fill="#000000">username</text>
<polygon fill="none" stroke="#000000" points="312,-105.7 312,-124.7 392,-124.7 392,-105.7 312,-105.7"/>
<text text-anchor="start" x="315" y="-111.8" font-family="Helvetica,sans-Serif" font-size="11.00" fill="#000000">...</text>
<polygon fill="#ffffff" stroke="transparent" points="312,-86.7 312,-105.7 328,-105.7 328,-86.7 312,-86.7"/>
<polygon fill="none" stroke="#000000" points="312,-86.7 312,-105.7 328,-105.7 328,-86.7 312,-86.7"/>
<text text-anchor="start" x="315" y="-92.8" font-family="Helvetica,sans-Serif" font-size="11.00" fill="#000000"> &#160;</text>
<polygon fill="#ffffff" stroke="transparent" points="328,-86.7 328,-105.7 368,-105.7 368,-86.7 328,-86.7"/>
<polygon fill="none" stroke="#000000" points="328,-86.7 328,-105.7 368,-105.7 368,-86.7 328,-86.7"/>
<text text-anchor="start" x="332.6105" y="-92.8" font-family="Helvetica,sans-Serif" font-size="11.00" fill="#000000">0 rows</text>
<polygon fill="#ffffff" stroke="transparent" points="368,-86.7 368,-105.7 392,-105.7 392,-86.7 368,-86.7"/>
<polygon fill="none" stroke="#000000" points="368,-86.7 368,-105.7 392,-105.7 392,-86.7 368,-86.7"/>
<text text-anchor="start" x="373.4053" y="-92.8" font-family="Helvetica,sans-Serif" font-size="11.00" fill="#000000">4 &gt;</text>
</a>
</g>
</g>
<!-- faqs&#45;&gt;users -->
<g id="edge3" class="edge">
<title>faqs:w&#45;&gt;users:e</title>
<path fill="none" stroke="#000000" d="M565.4815,-152.7184C493.6707,-148.1917 470.5143,-152.0633 392,-157.7"/>
<polygon fill="#000000" stroke="#000000" points="572.0182,-153.1603 579.7571,-157.2918 576.0091,-153.4301 580,-153.7 580,-153.7 580,-153.7 576.0091,-153.4301 580.2429,-150.1082 572.0182,-153.1603 572.0182,-153.1603"/>
<ellipse fill="none" stroke="#000000" cx="568.8255" cy="-152.9444" rx="3.2" ry="3.2"/>
</g>
<!-- faqs&#45;&gt;users -->
<g id="edge4" class="edge">
<title>faqs:w&#45;&gt;users:e</title>
<path fill="none" stroke="#000000" d="M565.4815,-154.9367C493.6707,-161.144 470.5143,-164.2762 392,-157.7"/>
<polygon fill="#000000" stroke="#000000" points="572.0289,-154.379 580.3056,-157.287 576.0144,-154.0395 580,-153.7 580,-153.7 580,-153.7 576.0144,-154.0395 579.6944,-150.113 572.0289,-154.379 572.0289,-154.379"/>
<ellipse fill="none" stroke="#000000" cx="568.8404" cy="-154.6507" rx="3.2" ry="3.2"/>
</g>
<!-- message_notifications -->
<g id="node6" class="node">
<title>message_notifications</title>
<g id="a_node6"><a xlink:href="../../tables/message_notifications.html" xlink:title="message_notifications" target="_top">
<polygon fill="#ffffff" stroke="transparent" points="838,-416.2 838,-477.2 1006,-477.2 1006,-416.2 838,-416.2"/>
<polygon fill="#f5f5f5" stroke="transparent" points="838,-453.7 838,-476.7 1006,-476.7 1006,-453.7 838,-453.7"/>
<polygon fill="none" stroke="#000000" points="838,-453.7 838,-476.7 1006,-476.7 1006,-453.7 838,-453.7"/>
<text text-anchor="start" x="843" y="-462.3" font-family="Helvetica,sans-Serif" font-weight="bold" font-size="11.00" fill="#000000">message_notifications</text>
<text text-anchor="start" x="971.5219" y="-461.8" font-family="Helvetica,sans-Serif" font-size="11.00" fill="#000000">[table]</text>
<polygon fill="none" stroke="#000000" points="838,-434.7 838,-453.7 1006,-453.7 1006,-434.7 838,-434.7"/>
<text text-anchor="start" x="841" y="-440.8" font-family="Helvetica,sans-Serif" font-size="11.00" fill="#000000">...</text>
<polygon fill="#ffffff" stroke="transparent" points="838,-415.7 838,-434.7 907,-434.7 907,-415.7 838,-415.7"/>
<polygon fill="none" stroke="#000000" points="838,-415.7 838,-434.7 907,-434.7 907,-415.7 838,-415.7"/>
<text text-anchor="start" x="841" y="-421.8" font-family="Helvetica,sans-Serif" font-size="11.00" fill="#000000">&lt; 2</text>
<polygon fill="#ffffff" stroke="transparent" points="907,-415.7 907,-434.7 969,-434.7 969,-415.7 907,-415.7"/>
<polygon fill="none" stroke="#000000" points="907,-415.7 907,-434.7 969,-434.7 969,-415.7 907,-415.7"/>
<text text-anchor="start" x="933.6105" y="-421.8" font-family="Helvetica,sans-Serif" font-size="11.00" fill="#000000">0 rows</text>
<polygon fill="#ffffff" stroke="transparent" points="969,-415.7 969,-434.7 1006,-434.7 1006,-415.7 969,-415.7"/>
<polygon fill="none" stroke="#000000" points="969,-415.7 969,-434.7 1006,-434.7 1006,-415.7 969,-415.7"/>
<text text-anchor="start" x="996.8862" y="-421.8" font-family="Helvetica,sans-Serif" font-size="11.00" fill="#000000"> &#160;</text>
</a>
</g>
</g>
<!-- message_notifications&#45;&gt;patients -->
<g id="edge6" class="edge">
<title>message_notifications:w&#45;&gt;patients:e</title>
<path fill="none" stroke="#000000" d="M815.4219,-462.1774C809.1976,-462.7754 803.0227,-463.2923 797,-463.7 578.2592,-478.5062 513.8512,-510.1762 304,-446.7 293.0247,-443.3802 281.7145,-438.7481 271.0994,-433.7871"/>
<polygon fill="#000000" stroke="#000000" points="822.0309,-461.4837 830.363,-464.2287 826.009,-461.066 829.9871,-460.6484 829.9871,-460.6484 829.9871,-460.6484 826.009,-461.066 829.6113,-457.0681 822.0309,-461.4837 822.0309,-461.4837"/>
<ellipse fill="none" stroke="#000000" cx="818.8483" cy="-461.8178" rx="3.2" ry="3.2"/>
</g>
<!-- messages -->
<g id="node7" class="node">
<title>messages</title>
<g id="a_node7"><a xlink:href="../../tables/messages.html" xlink:title="messages" target="_top">
<polygon fill="#ffffff" stroke="transparent" points="441,-208.7 441,-452.7 789,-452.7 789,-208.7 441,-208.7"/>
<polygon fill="#f5f5f5" stroke="transparent" points="443,-427.7 443,-450.7 787,-450.7 787,-427.7 443,-427.7"/>
<polygon fill="none" stroke="#000000" points="443,-427.7 443,-450.7 787,-450.7 787,-427.7 443,-427.7"/>
<text text-anchor="start" x="448" y="-436.3" font-family="Helvetica,sans-Serif" font-weight="bold" font-size="11.00" fill="#000000">messages</text>
<text text-anchor="start" x="752.0437" y="-435.8" font-family="Helvetica,sans-Serif" font-size="11.00" fill="#000000">[table]</text>
<polygon fill="none" stroke="#000000" points="443,-405.7 443,-427.7 566,-427.7 566,-405.7 443,-405.7"/>
<image xlink:href="../../images/primaryKeys.png" width="11px" height="12px" preserveAspectRatio="xMinYMin meet" x="448" y="-422.7"/>
<text text-anchor="start" x="463" y="-412.8" font-family="Helvetica,sans-Serif" font-size="11.00" fill="#000000">id_message</text>
<polygon fill="none" stroke="#000000" points="566,-405.7 566,-427.7 787,-427.7 787,-405.7 566,-405.7"/>
<text text-anchor="start" x="569" y="-413.4" font-family="Helvetica,sans-Serif" font-size="11.00" fill="#000000">serial[10]</text>
<polygon fill="none" stroke="#000000" points="443,-383.7 443,-405.7 566,-405.7 566,-383.7 443,-383.7"/>
<image xlink:href="../../images/foreignKeys.png" width="11px" height="12px" preserveAspectRatio="xMinYMin meet" x="448" y="-400.7"/>
<text text-anchor="start" x="463" y="-390.8" font-family="Helvetica,sans-Serif" font-size="11.00" fill="#000000">chat_id</text>
<polygon fill="none" stroke="#000000" points="566,-383.7 566,-405.7 787,-405.7 787,-383.7 566,-383.7"/>
<text text-anchor="start" x="569" y="-391.4" font-family="Helvetica,sans-Serif" font-size="11.00" fill="#000000">int4[10]</text>
<polygon fill="none" stroke="#000000" points="443,-361.7 443,-383.7 566,-383.7 566,-361.7 443,-361.7"/>
<text text-anchor="start" x="463" y="-368.8" font-family="Helvetica,sans-Serif" font-size="11.00" fill="#000000">sender_role</text>
<polygon fill="none" stroke="#000000" points="566,-361.7 566,-383.7 787,-383.7 787,-361.7 566,-361.7"/>
<text text-anchor="start" x="568.9052" y="-369.4" font-family="Helvetica,sans-Serif" font-size="11.00" fill="#000000">enum_messages_sender_role[2147483647]</text>
<polygon fill="none" stroke="#000000" points="443,-339.7 443,-361.7 566,-361.7 566,-339.7 443,-339.7"/>
<image xlink:href="../../images/foreignKeys.png" width="11px" height="12px" preserveAspectRatio="xMinYMin meet" x="448" y="-356.7"/>
<text text-anchor="start" x="463" y="-346.8" font-family="Helvetica,sans-Serif" font-size="11.00" fill="#000000">sender_patient_id</text>
<polygon fill="none" stroke="#000000" points="566,-339.7 566,-361.7 787,-361.7 787,-339.7 566,-339.7"/>
<text text-anchor="start" x="569" y="-347.4" font-family="Helvetica,sans-Serif" font-size="11.00" fill="#000000">int4[10]</text>
<polygon fill="none" stroke="#000000" points="443,-317.7 443,-339.7 566,-339.7 566,-317.7 443,-317.7"/>
<image xlink:href="../../images/foreignKeys.png" width="11px" height="12px" preserveAspectRatio="xMinYMin meet" x="448" y="-334.7"/>
<text text-anchor="start" x="463" y="-324.8" font-family="Helvetica,sans-Serif" font-size="11.00" fill="#000000">sender_staff_id</text>
<polygon fill="none" stroke="#000000" points="566,-317.7 566,-339.7 787,-339.7 787,-317.7 566,-317.7"/>
<text text-anchor="start" x="569" y="-325.4" font-family="Helvetica,sans-Serif" font-size="11.00" fill="#000000">int4[10]</text>
<polygon fill="none" stroke="#000000" points="443,-295.7 443,-317.7 566,-317.7 566,-295.7 443,-295.7"/>
<text text-anchor="start" x="463" y="-302.8" font-family="Helvetica,sans-Serif" font-size="11.00" fill="#000000">content</text>
<polygon fill="none" stroke="#000000" points="566,-295.7 566,-317.7 787,-317.7 787,-295.7 566,-295.7"/>
<text text-anchor="start" x="569" y="-303.4" font-family="Helvetica,sans-Serif" font-size="11.00" fill="#000000">text[2147483647]</text>
<polygon fill="none" stroke="#000000" points="443,-273.7 443,-295.7 566,-295.7 566,-273.7 443,-273.7"/>
<text text-anchor="start" x="463" y="-280.8" font-family="Helvetica,sans-Serif" font-size="11.00" fill="#000000">status</text>
<polygon fill="none" stroke="#000000" points="566,-273.7 566,-295.7 787,-295.7 787,-273.7 566,-273.7"/>
<text text-anchor="start" x="569" y="-281.4" font-family="Helvetica,sans-Serif" font-size="11.00" fill="#000000">enum_messages_status[2147483647]</text>
<polygon fill="none" stroke="#000000" points="443,-251.7 443,-273.7 566,-273.7 566,-251.7 443,-251.7"/>
<text text-anchor="start" x="463" y="-258.8" font-family="Helvetica,sans-Serif" font-size="11.00" fill="#000000">createdAt</text>
<polygon fill="none" stroke="#000000" points="566,-251.7 566,-273.7 787,-273.7 787,-251.7 566,-251.7"/>
<text text-anchor="start" x="569" y="-259.4" font-family="Helvetica,sans-Serif" font-size="11.00" fill="#000000">timestamptz[35,6]</text>
<polygon fill="none" stroke="#000000" points="443,-229.7 443,-251.7 566,-251.7 566,-229.7 443,-229.7"/>
<text text-anchor="start" x="463" y="-236.8" font-family="Helvetica,sans-Serif" font-size="11.00" fill="#000000">updatedAt</text>
<polygon fill="none" stroke="#000000" points="566,-229.7 566,-251.7 787,-251.7 787,-229.7 566,-229.7"/>
<text text-anchor="start" x="569" y="-237.4" font-family="Helvetica,sans-Serif" font-size="11.00" fill="#000000">timestamptz[35,6]</text>
<polygon fill="#ffffff" stroke="transparent" points="443,-210.7 443,-229.7 496,-229.7 496,-210.7 443,-210.7"/>
<polygon fill="none" stroke="#000000" points="443,-210.7 443,-229.7 496,-229.7 496,-210.7 443,-210.7"/>
<text text-anchor="start" x="446" y="-216.8" font-family="Helvetica,sans-Serif" font-size="11.00" fill="#000000">&lt; 3</text>
<polygon fill="#ffffff" stroke="transparent" points="496,-210.7 496,-229.7 566,-229.7 566,-210.7 496,-210.7"/>
<polygon fill="none" stroke="#000000" points="496,-210.7 496,-229.7 566,-229.7 566,-210.7 496,-210.7"/>
<text text-anchor="start" x="530.6105" y="-216.8" font-family="Helvetica,sans-Serif" font-size="11.00" fill="#000000">0 rows</text>
<polygon fill="#ffffff" stroke="transparent" points="566,-210.7 566,-229.7 787,-229.7 787,-210.7 566,-210.7"/>
<polygon fill="none" stroke="#000000" points="566,-210.7 566,-229.7 787,-229.7 787,-210.7 566,-210.7"/>
<text text-anchor="start" x="768.4053" y="-216.8" font-family="Helvetica,sans-Serif" font-size="11.00" fill="#000000">1 &gt;</text>
<polygon fill="none" stroke="#000000" stroke-width="2" points="442,-209.7 442,-451.7 788,-451.7 788,-209.7 442,-209.7"/>
</a>
</g>
</g>
<!-- message_notifications&#45;&gt;messages -->
<g id="edge5" class="edge">
<title>message_notifications:w&#45;&gt;messages:e</title>
<path fill="none" stroke="#000000" d="M815.2702,-418.5329C805.7679,-417.3791 796.2473,-416.7 787,-416.7"/>
<polygon fill="#000000" stroke="#000000" points="821.7228,-419.4709 829.1216,-424.1845 825.6812,-420.0465 829.6396,-420.622 829.6396,-420.622 829.6396,-420.622 825.6812,-420.0465 830.1575,-417.0594 821.7228,-419.4709 821.7228,-419.4709"/>
<ellipse fill="none" stroke="#000000" cx="818.5561" cy="-419.0105" rx="3.2" ry="3.2"/>
</g>
<!-- messages&#45;&gt;chats -->
<g id="edge7" class="edge">
<title>messages:w&#45;&gt;chats:e</title>
<path fill="none" stroke="#000000" d="M428.5977,-395.1062C418.9782,-395.6191 409.2222,-396.5729 400.0408,-397.7058"/>
<polygon fill="#000000" stroke="#000000" points="435.0032,-394.9256 443.1015,-398.2986 439.0016,-394.8128 443,-394.7 443,-394.7 443,-394.7 439.0016,-394.8128 442.8985,-391.1014 435.0032,-394.9256 435.0032,-394.9256"/>
<ellipse fill="none" stroke="#000000" cx="431.8045" cy="-395.0158" rx="3.2" ry="3.2"/>
</g>
<!-- messages&#45;&gt;patients -->
<g id="edge8" class="edge">
<title>messages:w&#45;&gt;patients:e</title>
<path fill="none" stroke="#000000" d="M428.5777,-350.6509C377.8002,-350.3328 358.8023,-349.0358 304,-364.7 292.9752,-367.8513 281.6429,-372.4082 271.0217,-377.3488"/>
<polygon fill="#000000" stroke="#000000" points="435,-350.6727 442.9877,-354.3 439,-350.6864 443,-350.7 443,-350.7 443,-350.7 439,-350.6864 443.0123,-347.1 435,-350.6727 435,-350.6727"/>
<ellipse fill="none" stroke="#000000" cx="431.8001" cy="-350.6618" rx="3.2" ry="3.2"/>
</g>
<!-- messages&#45;&gt;users -->
<g id="edge9" class="edge">
<title>messages:w&#45;&gt;users:e</title>
<path fill="none" stroke="#000000" d="M428.5937,-326.15C378.2696,-304.8782 465.5769,-157.7 392,-157.7"/>
<polygon fill="#000000" stroke="#000000" points="435.1225,-327.3056 442.3725,-332.2449 439.0612,-328.0028 443,-328.7 443,-328.7 443,-328.7 439.0612,-328.0028 443.6275,-325.1551 435.1225,-327.3056 435.1225,-327.3056"/>
<ellipse fill="none" stroke="#000000" cx="431.9714" cy="-326.7478" rx="3.2" ry="3.2"/>
</g>
<!-- responses -->
<g id="node10" class="node">
<title>responses</title>
<g id="a_node10"><a xlink:href="../../tables/responses.html" xlink:title="responses" target="_top">
<polygon fill="#ffffff" stroke="transparent" points="565.5,-38.2 565.5,-99.2 664.5,-99.2 664.5,-38.2 565.5,-38.2"/>
<polygon fill="#f5f5f5" stroke="transparent" points="566,-75.7 566,-98.7 665,-98.7 665,-75.7 566,-75.7"/>
<polygon fill="none" stroke="#000000" points="566,-75.7 566,-98.7 665,-98.7 665,-75.7 566,-75.7"/>
<text text-anchor="start" x="571" y="-84.3" font-family="Helvetica,sans-Serif" font-weight="bold" font-size="11.00" fill="#000000">responses</text>
<text text-anchor="start" x="630.5219" y="-83.8" font-family="Helvetica,sans-Serif" font-size="11.00" fill="#000000">[table]</text>
<polygon fill="none" stroke="#000000" points="566,-56.7 566,-75.7 665,-75.7 665,-56.7 566,-56.7"/>
<text text-anchor="start" x="569" y="-62.8" font-family="Helvetica,sans-Serif" font-size="11.00" fill="#000000">...</text>
<polygon fill="#ffffff" stroke="transparent" points="566,-37.7 566,-56.7 596,-56.7 596,-37.7 566,-37.7"/>
<polygon fill="none" stroke="#000000" points="566,-37.7 566,-56.7 596,-56.7 596,-37.7 566,-37.7"/>
<text text-anchor="start" x="569" y="-43.8" font-family="Helvetica,sans-Serif" font-size="11.00" fill="#000000">&lt; 3</text>
<polygon fill="#ffffff" stroke="transparent" points="596,-37.7 596,-56.7 639,-56.7 639,-37.7 596,-37.7"/>
<polygon fill="none" stroke="#000000" points="596,-37.7 596,-56.7 639,-56.7 639,-37.7 596,-37.7"/>
<text text-anchor="start" x="603.6105" y="-43.8" font-family="Helvetica,sans-Serif" font-size="11.00" fill="#000000">0 rows</text>
<polygon fill="#ffffff" stroke="transparent" points="639,-37.7 639,-56.7 665,-56.7 665,-37.7 639,-37.7"/>
<polygon fill="none" stroke="#000000" points="639,-37.7 639,-56.7 665,-56.7 665,-37.7 639,-37.7"/>
<text text-anchor="start" x="646.4053" y="-43.8" font-family="Helvetica,sans-Serif" font-size="11.00" fill="#000000">1 &gt;</text>
</a>
</g>
</g>
<!-- responses&#45;&gt;patients -->
<g id="edge13" class="edge">
<title>responses:w&#45;&gt;patients:e</title>
<path fill="none" stroke="#000000" d="M551.3097,-65.3697C444.6623,-60.5821 390.5821,-6.3828 304,-76.7 258.1993,-113.8968 232.9598,-294.2089 224.1389,-370.9793"/>
<polygon fill="#000000" stroke="#000000" points="558.002,-65.5201 565.9191,-69.2991 562.001,-65.6101 566,-65.7 566,-65.7 566,-65.7 562.001,-65.6101 566.0809,-62.1009 558.002,-65.5201 558.002,-65.5201"/>
<ellipse fill="none" stroke="#000000" cx="554.8028" cy="-65.4482" rx="3.2" ry="3.2"/>
</g>
<!-- responses&#45;&gt;users -->
<g id="edge12" class="edge">
<title>responses:w&#45;&gt;users:e</title>
<path fill="none" stroke="#000000" d="M551.346,-66.0143C499.8231,-68.3664 481.5366,-84.0029 433,-115.7 411.1587,-129.9636 418.0863,-157.7 392,-157.7"/>
<polygon fill="#000000" stroke="#000000" points="558.0018,-65.8716 566.0772,-69.2992 562.0009,-65.7858 566,-65.7 566,-65.7 566,-65.7 562.0009,-65.7858 565.9228,-62.1008 558.0018,-65.8716 558.0018,-65.8716"/>
<ellipse fill="none" stroke="#000000" cx="554.8026" cy="-65.9402" rx="3.2" ry="3.2"/>
</g>
</g>
</svg>
