<?xml version="1.0" encoding="UTF-8" standalone="no"?>
<!DOCTYPE svg PUBLIC "-//W3C//DTD SVG 1.1//EN"
 "http://www.w3.org/Graphics/SVG/1.1/DTD/svg11.dtd">
<!-- Generated by graphviz version 2.40.1 (20161225.0304)
 -->
<!-- Title: twoDegreesRelationshipsDiagram Pages: 1 -->
<svg width="466pt" height="333pt"
 viewBox="0.00 0.00 466.00 332.70" xmlns="http://www.w3.org/2000/svg" xmlns:xlink="http://www.w3.org/1999/xlink">
<g id="graph0" class="graph" transform="scale(1 1) rotate(0) translate(4 328.7)">
<title>twoDegreesRelationshipsDiagram</title>
<polygon fill="#ffffff" stroke="transparent" points="-4,4 -4,-328.7 462,-328.7 462,4 -4,4"/>
<text text-anchor="middle" x="72.4936" y="-7.3" font-family="Helvetica,sans-Serif" font-size="11.00" fill="#000000">Generated by SchemaSpy</text>
<!-- options -->
<g id="node1" class="node">
<title>options</title>
<g id="a_node1"><a xlink:href="../../tables/options.html" xlink:title="options" target="_top">
<polygon fill="#ffffff" stroke="transparent" points="273,-120.7 273,-320.7 450,-320.7 450,-120.7 273,-120.7"/>
<polygon fill="#f5f5f5" stroke="transparent" points="275.5,-295.7 275.5,-318.7 448.5,-318.7 448.5,-295.7 275.5,-295.7"/>
<polygon fill="none" stroke="#000000" points="275.5,-295.7 275.5,-318.7 448.5,-318.7 448.5,-295.7 275.5,-295.7"/>
<text text-anchor="start" x="280.5" y="-304.3" font-family="Helvetica,sans-Serif" font-weight="bold" font-size="11.00" fill="#000000">options</text>
<text text-anchor="start" x="413.5437" y="-303.8" font-family="Helvetica,sans-Serif" font-size="11.00" fill="#000000">[table]</text>
<polygon fill="none" stroke="#000000" points="275.5,-273.7 275.5,-295.7 356.5,-295.7 356.5,-273.7 275.5,-273.7"/>
<image xlink:href="../../images/primaryKeys.png" width="11px" height="12px" preserveAspectRatio="xMinYMin meet" x="280.5" y="-290.7"/>
<text text-anchor="start" x="295.5" y="-280.8" font-family="Helvetica,sans-Serif" font-size="11.00" fill="#000000">id_options</text>
<polygon fill="none" stroke="#000000" points="356.5,-273.7 356.5,-295.7 448.5,-295.7 448.5,-273.7 356.5,-273.7"/>
<text text-anchor="start" x="359.5" y="-281.4" font-family="Helvetica,sans-Serif" font-size="11.00" fill="#000000">serial[10]</text>
<polygon fill="none" stroke="#000000" points="275.5,-251.7 275.5,-273.7 356.5,-273.7 356.5,-251.7 275.5,-251.7"/>
<image xlink:href="../../images/foreignKeys.png" width="11px" height="12px" preserveAspectRatio="xMinYMin meet" x="280.5" y="-268.7"/>
<text text-anchor="start" x="295.5" y="-258.8" font-family="Helvetica,sans-Serif" font-size="11.00" fill="#000000">questionId</text>
<polygon fill="none" stroke="#000000" points="356.5,-251.7 356.5,-273.7 448.5,-273.7 448.5,-251.7 356.5,-251.7"/>
<text text-anchor="start" x="359.5" y="-259.4" font-family="Helvetica,sans-Serif" font-size="11.00" fill="#000000">int4[10]</text>
<polygon fill="none" stroke="#000000" points="275.5,-229.7 275.5,-251.7 356.5,-251.7 356.5,-229.7 275.5,-229.7"/>
<text text-anchor="start" x="295.5" y="-236.8" font-family="Helvetica,sans-Serif" font-size="11.00" fill="#000000">text</text>
<polygon fill="none" stroke="#000000" points="356.5,-229.7 356.5,-251.7 448.5,-251.7 448.5,-229.7 356.5,-229.7"/>
<text text-anchor="start" x="359.5" y="-237.4" font-family="Helvetica,sans-Serif" font-size="11.00" fill="#000000">varchar[255]</text>
<polygon fill="none" stroke="#000000" points="275.5,-207.7 275.5,-229.7 356.5,-229.7 356.5,-207.7 275.5,-207.7"/>
<text text-anchor="start" x="295.5" y="-214.8" font-family="Helvetica,sans-Serif" font-size="11.00" fill="#000000">value</text>
<polygon fill="none" stroke="#000000" points="356.5,-207.7 356.5,-229.7 448.5,-229.7 448.5,-207.7 356.5,-207.7"/>
<text text-anchor="start" x="359.5" y="-215.4" font-family="Helvetica,sans-Serif" font-size="11.00" fill="#000000">int4[10]</text>
<polygon fill="none" stroke="#000000" points="275.5,-185.7 275.5,-207.7 356.5,-207.7 356.5,-185.7 275.5,-185.7"/>
<text text-anchor="start" x="295.5" y="-192.8" font-family="Helvetica,sans-Serif" font-size="11.00" fill="#000000">order</text>
<polygon fill="none" stroke="#000000" points="356.5,-185.7 356.5,-207.7 448.5,-207.7 448.5,-185.7 356.5,-185.7"/>
<text text-anchor="start" x="359.5" y="-193.4" font-family="Helvetica,sans-Serif" font-size="11.00" fill="#000000">int4[10]</text>
<polygon fill="none" stroke="#000000" points="275.5,-163.7 275.5,-185.7 356.5,-185.7 356.5,-163.7 275.5,-163.7"/>
<text text-anchor="start" x="295.5" y="-170.8" font-family="Helvetica,sans-Serif" font-size="11.00" fill="#000000">createdAt</text>
<polygon fill="none" stroke="#000000" points="356.5,-163.7 356.5,-185.7 448.5,-185.7 448.5,-163.7 356.5,-163.7"/>
<text text-anchor="start" x="359.1023" y="-171.4" font-family="Helvetica,sans-Serif" font-size="11.00" fill="#000000">timestamptz[35,6]</text>
<polygon fill="none" stroke="#000000" points="275.5,-141.7 275.5,-163.7 356.5,-163.7 356.5,-141.7 275.5,-141.7"/>
<text text-anchor="start" x="295.5" y="-148.8" font-family="Helvetica,sans-Serif" font-size="11.00" fill="#000000">updatedAt</text>
<polygon fill="none" stroke="#000000" points="356.5,-141.7 356.5,-163.7 448.5,-163.7 448.5,-141.7 356.5,-141.7"/>
<text text-anchor="start" x="359.1023" y="-149.4" font-family="Helvetica,sans-Serif" font-size="11.00" fill="#000000">timestamptz[35,6]</text>
<polygon fill="#ffffff" stroke="transparent" points="275.5,-122.7 275.5,-141.7 307.5,-141.7 307.5,-122.7 275.5,-122.7"/>
<polygon fill="none" stroke="#000000" points="275.5,-122.7 275.5,-141.7 307.5,-141.7 307.5,-122.7 275.5,-122.7"/>
<text text-anchor="start" x="278.5" y="-128.8" font-family="Helvetica,sans-Serif" font-size="11.00" fill="#000000">&lt; 1</text>
<polygon fill="#ffffff" stroke="transparent" points="307.5,-122.7 307.5,-141.7 356.5,-141.7 356.5,-122.7 307.5,-122.7"/>
<polygon fill="none" stroke="#000000" points="307.5,-122.7 307.5,-141.7 356.5,-141.7 356.5,-122.7 307.5,-122.7"/>
<text text-anchor="start" x="321.1105" y="-128.8" font-family="Helvetica,sans-Serif" font-size="11.00" fill="#000000">0 rows</text>
<polygon fill="#ffffff" stroke="transparent" points="356.5,-122.7 356.5,-141.7 448.5,-141.7 448.5,-122.7 356.5,-122.7"/>
<polygon fill="none" stroke="#000000" points="356.5,-122.7 356.5,-141.7 448.5,-141.7 448.5,-122.7 356.5,-122.7"/>
<text text-anchor="start" x="429.9053" y="-128.8" font-family="Helvetica,sans-Serif" font-size="11.00" fill="#000000">0 &gt;</text>
<polygon fill="none" stroke="#000000" stroke-width="2" points="274,-121.7 274,-319.7 449,-319.7 449,-121.7 274,-121.7"/>
</a>
</g>
</g>
<!-- questions -->
<g id="node2" class="node">
<title>questions</title>
<g id="a_node2"><a xlink:href="../../tables/questions.html" xlink:title="questions" target="_top">
<polygon fill="#ffffff" stroke="transparent" points="129,-93.2 129,-198.2 224,-198.2 224,-93.2 129,-93.2"/>
<polygon fill="#f5f5f5" stroke="transparent" points="129.5,-174.7 129.5,-197.7 224.5,-197.7 224.5,-174.7 129.5,-174.7"/>
<polygon fill="none" stroke="#000000" points="129.5,-174.7 129.5,-197.7 224.5,-197.7 224.5,-174.7 129.5,-174.7"/>
<text text-anchor="start" x="134.5" y="-183.3" font-family="Helvetica,sans-Serif" font-weight="bold" font-size="11.00" fill="#000000">questions</text>
<text text-anchor="start" x="190.0219" y="-182.8" font-family="Helvetica,sans-Serif" font-size="11.00" fill="#000000">[table]</text>
<polygon fill="none" stroke="#000000" points="129.5,-152.7 129.5,-174.7 224.5,-174.7 224.5,-152.7 129.5,-152.7"/>
<image xlink:href="../../images/primaryKeys.png" width="11px" height="12px" preserveAspectRatio="xMinYMin meet" x="134.5" y="-169.7"/>
<text text-anchor="start" x="149.5" y="-159.8" font-family="Helvetica,sans-Serif" font-size="11.00" fill="#000000">id_questions</text>
<polygon fill="none" stroke="#000000" points="129.5,-130.7 129.5,-152.7 224.5,-152.7 224.5,-130.7 129.5,-130.7"/>
<image xlink:href="../../images/foreignKeys.png" width="11px" height="12px" preserveAspectRatio="xMinYMin meet" x="134.5" y="-147.7"/>
<text text-anchor="start" x="149.5" y="-137.8" font-family="Helvetica,sans-Serif" font-size="11.00" fill="#000000">formId</text>
<polygon fill="none" stroke="#000000" points="129.5,-111.7 129.5,-130.7 224.5,-130.7 224.5,-111.7 129.5,-111.7"/>
<text text-anchor="start" x="132.5" y="-117.8" font-family="Helvetica,sans-Serif" font-size="11.00" fill="#000000">...</text>
<polygon fill="#ffffff" stroke="transparent" points="129.5,-92.7 129.5,-111.7 157.5,-111.7 157.5,-92.7 129.5,-92.7"/>
<polygon fill="none" stroke="#000000" points="129.5,-92.7 129.5,-111.7 157.5,-111.7 157.5,-92.7 129.5,-92.7"/>
<text text-anchor="start" x="132.5" y="-98.8" font-family="Helvetica,sans-Serif" font-size="11.00" fill="#000000">&lt; 1</text>
<polygon fill="#ffffff" stroke="transparent" points="157.5,-92.7 157.5,-111.7 199.5,-111.7 199.5,-92.7 157.5,-92.7"/>
<polygon fill="none" stroke="#000000" points="157.5,-92.7 157.5,-111.7 199.5,-111.7 199.5,-92.7 157.5,-92.7"/>
<text text-anchor="start" x="164.1105" y="-98.8" font-family="Helvetica,sans-Serif" font-size="11.00" fill="#000000">0 rows</text>
<polygon fill="#ffffff" stroke="transparent" points="199.5,-92.7 199.5,-111.7 224.5,-111.7 224.5,-92.7 199.5,-92.7"/>
<polygon fill="none" stroke="#000000" points="199.5,-92.7 199.5,-111.7 224.5,-111.7 224.5,-92.7 199.5,-92.7"/>
<text text-anchor="start" x="205.9053" y="-98.8" font-family="Helvetica,sans-Serif" font-size="11.00" fill="#000000">2 &gt;</text>
</a>
</g>
</g>
<!-- options&#45;&gt;questions -->
<g id="edge1" class="edge">
<title>options:w&#45;&gt;questions:e</title>
<path fill="none" stroke="#000000" d="M261.4616,-258.6965C236.198,-240.1751 268.0017,-163.7 224.5,-163.7"/>
<polygon fill="#000000" stroke="#000000" points="267.8067,-260.506 274.5127,-266.162 271.6534,-261.603 275.5,-262.7 275.5,-262.7 275.5,-262.7 271.6534,-261.603 276.4873,-259.238 267.8067,-260.506 267.8067,-260.506"/>
<ellipse fill="none" stroke="#000000" cx="264.7294" cy="-259.6283" rx="3.2" ry="3.2"/>
</g>
<!-- forms -->
<g id="node4" class="node">
<title>forms</title>
<g id="a_node4"><a xlink:href="../../tables/forms.html" xlink:title="forms" target="_top">
<polygon fill="#ffffff" stroke="transparent" points="8,-114.2 8,-175.2 80,-175.2 80,-114.2 8,-114.2"/>
<polygon fill="#f5f5f5" stroke="transparent" points="8,-151.7 8,-174.7 80,-174.7 80,-151.7 8,-151.7"/>
<polygon fill="none" stroke="#000000" points="8,-151.7 8,-174.7 80,-174.7 80,-151.7 8,-151.7"/>
<text text-anchor="start" x="13" y="-160.3" font-family="Helvetica,sans-Serif" font-weight="bold" font-size="11.00" fill="#000000">forms</text>
<text text-anchor="start" x="45.5219" y="-159.8" font-family="Helvetica,sans-Serif" font-size="11.00" fill="#000000">[table]</text>
<polygon fill="none" stroke="#000000" points="8,-132.7 8,-151.7 80,-151.7 80,-132.7 8,-132.7"/>
<text text-anchor="start" x="11" y="-138.8" font-family="Helvetica,sans-Serif" font-size="11.00" fill="#000000">...</text>
<polygon fill="#ffffff" stroke="transparent" points="8,-113.7 8,-132.7 20,-132.7 20,-113.7 8,-113.7"/>
<polygon fill="none" stroke="#000000" points="8,-113.7 8,-132.7 20,-132.7 20,-113.7 8,-113.7"/>
<text text-anchor="start" x="10.9431" y="-119.8" font-family="Helvetica,sans-Serif" font-size="11.00" fill="#000000"> &#160;</text>
<polygon fill="#ffffff" stroke="transparent" points="20,-113.7 20,-132.7 58,-132.7 58,-113.7 20,-113.7"/>
<polygon fill="none" stroke="#000000" points="20,-113.7 20,-132.7 58,-132.7 58,-113.7 20,-113.7"/>
<text text-anchor="start" x="22.8053" y="-119.8" font-family="Helvetica,sans-Serif" font-size="11.00" fill="#000000">0 rows</text>
<polygon fill="#ffffff" stroke="transparent" points="58,-113.7 58,-132.7 80,-132.7 80,-113.7 58,-113.7"/>
<polygon fill="none" stroke="#000000" points="58,-113.7 58,-132.7 80,-132.7 80,-113.7 58,-113.7"/>
<text text-anchor="start" x="61.4053" y="-119.8" font-family="Helvetica,sans-Serif" font-size="11.00" fill="#000000">2 &gt;</text>
</a>
</g>
</g>
<!-- questions&#45;&gt;forms -->
<g id="edge3" class="edge">
<title>questions:w&#45;&gt;forms:e</title>
<path fill="none" stroke="#000000" d="M114.8428,-141.7C103.4139,-141.7 96.1563,-141.7 80,-141.7"/>
<polygon fill="#000000" stroke="#000000" points="121.5,-141.7001 129.5,-145.3 125.5,-141.7 129.5,-141.7 129.5,-141.7 129.5,-141.7 125.5,-141.7 129.5,-138.1 121.5,-141.7001 121.5,-141.7001"/>
<ellipse fill="none" stroke="#000000" cx="118.3" cy="-141.7001" rx="3.2" ry="3.2"/>
</g>
<!-- question_responses -->
<g id="node3" class="node">
<title>question_responses</title>
<g id="a_node3"><a xlink:href="../../tables/question_responses.html" xlink:title="question_responses" target="_top">
<polygon fill="#ffffff" stroke="transparent" points="284,-38.2 284,-99.2 439,-99.2 439,-38.2 284,-38.2"/>
<polygon fill="#f5f5f5" stroke="transparent" points="284.5,-75.7 284.5,-98.7 439.5,-98.7 439.5,-75.7 284.5,-75.7"/>
<polygon fill="none" stroke="#000000" points="284.5,-75.7 284.5,-98.7 439.5,-98.7 439.5,-75.7 284.5,-75.7"/>
<text text-anchor="start" x="289.5" y="-84.3" font-family="Helvetica,sans-Serif" font-weight="bold" font-size="11.00" fill="#000000">question_responses</text>
<text text-anchor="start" x="405.0219" y="-83.8" font-family="Helvetica,sans-Serif" font-size="11.00" fill="#000000">[table]</text>
<polygon fill="none" stroke="#000000" points="284.5,-56.7 284.5,-75.7 439.5,-75.7 439.5,-56.7 284.5,-56.7"/>
<text text-anchor="start" x="287.5" y="-62.8" font-family="Helvetica,sans-Serif" font-size="11.00" fill="#000000">...</text>
<polygon fill="#ffffff" stroke="transparent" points="284.5,-37.7 284.5,-56.7 347.5,-56.7 347.5,-37.7 284.5,-37.7"/>
<polygon fill="none" stroke="#000000" points="284.5,-37.7 284.5,-56.7 347.5,-56.7 347.5,-37.7 284.5,-37.7"/>
<text text-anchor="start" x="287.5" y="-43.8" font-family="Helvetica,sans-Serif" font-size="11.00" fill="#000000">&lt; 2</text>
<polygon fill="#ffffff" stroke="transparent" points="347.5,-37.7 347.5,-56.7 406.5,-56.7 406.5,-37.7 347.5,-37.7"/>
<polygon fill="none" stroke="#000000" points="347.5,-37.7 347.5,-56.7 406.5,-56.7 406.5,-37.7 347.5,-37.7"/>
<text text-anchor="start" x="371.1105" y="-43.8" font-family="Helvetica,sans-Serif" font-size="11.00" fill="#000000">0 rows</text>
<polygon fill="#ffffff" stroke="transparent" points="406.5,-37.7 406.5,-56.7 439.5,-56.7 439.5,-37.7 406.5,-37.7"/>
<polygon fill="none" stroke="#000000" points="406.5,-37.7 406.5,-56.7 439.5,-56.7 439.5,-37.7 406.5,-37.7"/>
<text text-anchor="start" x="430.3862" y="-43.8" font-family="Helvetica,sans-Serif" font-size="11.00" fill="#000000"> &#160;</text>
</a>
</g>
</g>
<!-- question_responses&#45;&gt;questions -->
<g id="edge2" class="edge">
<title>question_responses:w&#45;&gt;questions:e</title>
<path fill="none" stroke="#000000" d="M270.4615,-69.1879C241.7809,-86.6455 269.7852,-163.7 224.5,-163.7"/>
<polygon fill="#000000" stroke="#000000" points="276.736,-67.629 285.368,-69.1938 280.618,-66.6645 284.5,-65.7 284.5,-65.7 284.5,-65.7 280.618,-66.6645 283.632,-62.2062 276.736,-67.629 276.736,-67.629"/>
<ellipse fill="none" stroke="#000000" cx="273.6304" cy="-68.4006" rx="3.2" ry="3.2"/>
</g>
</g>
</svg>
