<?xml version="1.0" encoding="UTF-8" standalone="no"?>
<!DOCTYPE svg PUBLIC "-//W3C//DTD SVG 1.1//EN"
 "http://www.w3.org/Graphics/SVG/1.1/DTD/svg11.dtd">
<!-- Generated by graphviz version 2.40.1 (20161225.0304)
 -->
<!-- Title: oneDegreeRelationshipsDiagram Pages: 1 -->
<svg width="345pt" height="250pt"
 viewBox="0.00 0.00 345.00 250.20" xmlns="http://www.w3.org/2000/svg" xmlns:xlink="http://www.w3.org/1999/xlink">
<g id="graph0" class="graph" transform="scale(1 1) rotate(0) translate(4 246.2)">
<title>oneDegreeRelationshipsDiagram</title>
<polygon fill="#ffffff" stroke="transparent" points="-4,4 -4,-246.2 341,-246.2 341,4 -4,4"/>
<text text-anchor="middle" x="72.4936" y="-7.3" font-family="Helvetica,sans-Serif" font-size="11.00" fill="#000000">Generated by SchemaSpy</text>
<!-- options -->
<g id="node1" class="node">
<title>options</title>
<g id="a_node1"><a xlink:href="../../tables/options.html" xlink:title="options" target="_top">
<polygon fill="#ffffff" stroke="transparent" points="152,-38.2 152,-238.2 329,-238.2 329,-38.2 152,-38.2"/>
<polygon fill="#f5f5f5" stroke="transparent" points="154.5,-213.2 154.5,-236.2 327.5,-236.2 327.5,-213.2 154.5,-213.2"/>
<polygon fill="none" stroke="#000000" points="154.5,-213.2 154.5,-236.2 327.5,-236.2 327.5,-213.2 154.5,-213.2"/>
<text text-anchor="start" x="159.5" y="-221.8" font-family="Helvetica,sans-Serif" font-weight="bold" font-size="11.00" fill="#000000">options</text>
<text text-anchor="start" x="292.5437" y="-221.3" font-family="Helvetica,sans-Serif" font-size="11.00" fill="#000000">[table]</text>
<polygon fill="none" stroke="#000000" points="154.5,-191.2 154.5,-213.2 235.5,-213.2 235.5,-191.2 154.5,-191.2"/>
<image xlink:href="../../images/primaryKeys.png" width="11px" height="12px" preserveAspectRatio="xMinYMin meet" x="159.5" y="-208.2"/>
<text text-anchor="start" x="174.5" y="-198.3" font-family="Helvetica,sans-Serif" font-size="11.00" fill="#000000">id_options</text>
<polygon fill="none" stroke="#000000" points="235.5,-191.2 235.5,-213.2 327.5,-213.2 327.5,-191.2 235.5,-191.2"/>
<text text-anchor="start" x="238.5" y="-198.9" font-family="Helvetica,sans-Serif" font-size="11.00" fill="#000000">serial[10]</text>
<polygon fill="none" stroke="#000000" points="154.5,-169.2 154.5,-191.2 235.5,-191.2 235.5,-169.2 154.5,-169.2"/>
<image xlink:href="../../images/foreignKeys.png" width="11px" height="12px" preserveAspectRatio="xMinYMin meet" x="159.5" y="-186.2"/>
<text text-anchor="start" x="174.5" y="-176.3" font-family="Helvetica,sans-Serif" font-size="11.00" fill="#000000">questionId</text>
<polygon fill="none" stroke="#000000" points="235.5,-169.2 235.5,-191.2 327.5,-191.2 327.5,-169.2 235.5,-169.2"/>
<text text-anchor="start" x="238.5" y="-176.9" font-family="Helvetica,sans-Serif" font-size="11.00" fill="#000000">int4[10]</text>
<polygon fill="none" stroke="#000000" points="154.5,-147.2 154.5,-169.2 235.5,-169.2 235.5,-147.2 154.5,-147.2"/>
<text text-anchor="start" x="174.5" y="-154.3" font-family="Helvetica,sans-Serif" font-size="11.00" fill="#000000">text</text>
<polygon fill="none" stroke="#000000" points="235.5,-147.2 235.5,-169.2 327.5,-169.2 327.5,-147.2 235.5,-147.2"/>
<text text-anchor="start" x="238.5" y="-154.9" font-family="Helvetica,sans-Serif" font-size="11.00" fill="#000000">varchar[255]</text>
<polygon fill="none" stroke="#000000" points="154.5,-125.2 154.5,-147.2 235.5,-147.2 235.5,-125.2 154.5,-125.2"/>
<text text-anchor="start" x="174.5" y="-132.3" font-family="Helvetica,sans-Serif" font-size="11.00" fill="#000000">value</text>
<polygon fill="none" stroke="#000000" points="235.5,-125.2 235.5,-147.2 327.5,-147.2 327.5,-125.2 235.5,-125.2"/>
<text text-anchor="start" x="238.5" y="-132.9" font-family="Helvetica,sans-Serif" font-size="11.00" fill="#000000">int4[10]</text>
<polygon fill="none" stroke="#000000" points="154.5,-103.2 154.5,-125.2 235.5,-125.2 235.5,-103.2 154.5,-103.2"/>
<text text-anchor="start" x="174.5" y="-110.3" font-family="Helvetica,sans-Serif" font-size="11.00" fill="#000000">order</text>
<polygon fill="none" stroke="#000000" points="235.5,-103.2 235.5,-125.2 327.5,-125.2 327.5,-103.2 235.5,-103.2"/>
<text text-anchor="start" x="238.5" y="-110.9" font-family="Helvetica,sans-Serif" font-size="11.00" fill="#000000">int4[10]</text>
<polygon fill="none" stroke="#000000" points="154.5,-81.2 154.5,-103.2 235.5,-103.2 235.5,-81.2 154.5,-81.2"/>
<text text-anchor="start" x="174.5" y="-88.3" font-family="Helvetica,sans-Serif" font-size="11.00" fill="#000000">createdAt</text>
<polygon fill="none" stroke="#000000" points="235.5,-81.2 235.5,-103.2 327.5,-103.2 327.5,-81.2 235.5,-81.2"/>
<text text-anchor="start" x="238.1023" y="-88.9" font-family="Helvetica,sans-Serif" font-size="11.00" fill="#000000">timestamptz[35,6]</text>
<polygon fill="none" stroke="#000000" points="154.5,-59.2 154.5,-81.2 235.5,-81.2 235.5,-59.2 154.5,-59.2"/>
<text text-anchor="start" x="174.5" y="-66.3" font-family="Helvetica,sans-Serif" font-size="11.00" fill="#000000">updatedAt</text>
<polygon fill="none" stroke="#000000" points="235.5,-59.2 235.5,-81.2 327.5,-81.2 327.5,-59.2 235.5,-59.2"/>
<text text-anchor="start" x="238.1023" y="-66.9" font-family="Helvetica,sans-Serif" font-size="11.00" fill="#000000">timestamptz[35,6]</text>
<polygon fill="#ffffff" stroke="transparent" points="154.5,-40.2 154.5,-59.2 186.5,-59.2 186.5,-40.2 154.5,-40.2"/>
<polygon fill="none" stroke="#000000" points="154.5,-40.2 154.5,-59.2 186.5,-59.2 186.5,-40.2 154.5,-40.2"/>
<text text-anchor="start" x="157.5" y="-46.3" font-family="Helvetica,sans-Serif" font-size="11.00" fill="#000000">&lt; 1</text>
<polygon fill="#ffffff" stroke="transparent" points="186.5,-40.2 186.5,-59.2 235.5,-59.2 235.5,-40.2 186.5,-40.2"/>
<polygon fill="none" stroke="#000000" points="186.5,-40.2 186.5,-59.2 235.5,-59.2 235.5,-40.2 186.5,-40.2"/>
<text text-anchor="start" x="200.1105" y="-46.3" font-family="Helvetica,sans-Serif" font-size="11.00" fill="#000000">0 rows</text>
<polygon fill="#ffffff" stroke="transparent" points="235.5,-40.2 235.5,-59.2 327.5,-59.2 327.5,-40.2 235.5,-40.2"/>
<polygon fill="none" stroke="#000000" points="235.5,-40.2 235.5,-59.2 327.5,-59.2 327.5,-40.2 235.5,-40.2"/>
<text text-anchor="start" x="308.9053" y="-46.3" font-family="Helvetica,sans-Serif" font-size="11.00" fill="#000000">0 &gt;</text>
<polygon fill="none" stroke="#000000" stroke-width="2" points="153,-39.2 153,-237.2 328,-237.2 328,-39.2 153,-39.2"/>
</a>
</g>
</g>
<!-- questions -->
<g id="node2" class="node">
<title>questions</title>
<g id="a_node2"><a xlink:href="../../tables/questions.html" xlink:title="questions" target="_top">
<polygon fill="#ffffff" stroke="transparent" points="8,-109.7 8,-214.7 103,-214.7 103,-109.7 8,-109.7"/>
<polygon fill="#f5f5f5" stroke="transparent" points="8.5,-191.2 8.5,-214.2 103.5,-214.2 103.5,-191.2 8.5,-191.2"/>
<polygon fill="none" stroke="#000000" points="8.5,-191.2 8.5,-214.2 103.5,-214.2 103.5,-191.2 8.5,-191.2"/>
<text text-anchor="start" x="13.5" y="-199.8" font-family="Helvetica,sans-Serif" font-weight="bold" font-size="11.00" fill="#000000">questions</text>
<text text-anchor="start" x="69.0219" y="-199.3" font-family="Helvetica,sans-Serif" font-size="11.00" fill="#000000">[table]</text>
<polygon fill="none" stroke="#000000" points="8.5,-169.2 8.5,-191.2 103.5,-191.2 103.5,-169.2 8.5,-169.2"/>
<image xlink:href="../../images/primaryKeys.png" width="11px" height="12px" preserveAspectRatio="xMinYMin meet" x="13.5" y="-186.2"/>
<text text-anchor="start" x="28.5" y="-176.3" font-family="Helvetica,sans-Serif" font-size="11.00" fill="#000000">id_questions</text>
<polygon fill="none" stroke="#000000" points="8.5,-147.2 8.5,-169.2 103.5,-169.2 103.5,-147.2 8.5,-147.2"/>
<image xlink:href="../../images/foreignKeys.png" width="11px" height="12px" preserveAspectRatio="xMinYMin meet" x="13.5" y="-164.2"/>
<text text-anchor="start" x="28.5" y="-154.3" font-family="Helvetica,sans-Serif" font-size="11.00" fill="#000000">formId</text>
<polygon fill="none" stroke="#000000" points="8.5,-128.2 8.5,-147.2 103.5,-147.2 103.5,-128.2 8.5,-128.2"/>
<text text-anchor="start" x="11.5" y="-134.3" font-family="Helvetica,sans-Serif" font-size="11.00" fill="#000000">...</text>
<polygon fill="#ffffff" stroke="transparent" points="8.5,-109.2 8.5,-128.2 36.5,-128.2 36.5,-109.2 8.5,-109.2"/>
<polygon fill="none" stroke="#000000" points="8.5,-109.2 8.5,-128.2 36.5,-128.2 36.5,-109.2 8.5,-109.2"/>
<text text-anchor="start" x="11.5" y="-115.3" font-family="Helvetica,sans-Serif" font-size="11.00" fill="#000000">&lt; 1</text>
<polygon fill="#ffffff" stroke="transparent" points="36.5,-109.2 36.5,-128.2 78.5,-128.2 78.5,-109.2 36.5,-109.2"/>
<polygon fill="none" stroke="#000000" points="36.5,-109.2 36.5,-128.2 78.5,-128.2 78.5,-109.2 36.5,-109.2"/>
<text text-anchor="start" x="43.1105" y="-115.3" font-family="Helvetica,sans-Serif" font-size="11.00" fill="#000000">0 rows</text>
<polygon fill="#ffffff" stroke="transparent" points="78.5,-109.2 78.5,-128.2 103.5,-128.2 103.5,-109.2 78.5,-109.2"/>
<polygon fill="none" stroke="#000000" points="78.5,-109.2 78.5,-128.2 103.5,-128.2 103.5,-109.2 78.5,-109.2"/>
<text text-anchor="start" x="84.9053" y="-115.3" font-family="Helvetica,sans-Serif" font-size="11.00" fill="#000000">2 &gt;</text>
</a>
</g>
</g>
<!-- options&#45;&gt;questions -->
<g id="edge1" class="edge">
<title>options:w&#45;&gt;questions:e</title>
<path fill="none" stroke="#000000" d="M139.776,-180.2C127.7815,-180.2 120.3229,-180.2 103.5,-180.2"/>
<polygon fill="#000000" stroke="#000000" points="146.5,-180.2001 154.5,-183.8 150.5,-180.2 154.5,-180.2 154.5,-180.2 154.5,-180.2 150.5,-180.2 154.5,-176.6 146.5,-180.2001 146.5,-180.2001"/>
<ellipse fill="none" stroke="#000000" cx="143.3" cy="-180.2001" rx="3.2" ry="3.2"/>
</g>
</g>
</svg>
