<?xml version="1.0" encoding="UTF-8" standalone="no"?>
<!DOCTYPE svg PUBLIC "-//W3C//DTD SVG 1.1//EN"
 "http://www.w3.org/Graphics/SVG/1.1/DTD/svg11.dtd">
<!-- Generated by graphviz version 2.40.1 (20161225.0304)
 -->
<!-- Title: twoDegreesRelationshipsDiagram Pages: 1 -->
<svg width="1075pt" height="646pt"
 viewBox="0.00 0.00 1075.00 645.70" xmlns="http://www.w3.org/2000/svg" xmlns:xlink="http://www.w3.org/1999/xlink">
<g id="graph0" class="graph" transform="scale(1 1) rotate(0) translate(4 641.7)">
<title>twoDegreesRelationshipsDiagram</title>
<polygon fill="#ffffff" stroke="transparent" points="-4,4 -4,-641.7 1071,-641.7 1071,4 -4,4"/>
<text text-anchor="middle" x="72.4936" y="-7.3" font-family="Helvetica,sans-Serif" font-size="11.00" fill="#000000">Generated by SchemaSpy</text>
<!-- chats -->
<g id="node1" class="node">
<title>chats</title>
<g id="a_node1"><a xlink:href="../../tables/chats.html" xlink:title="chats" target="_top">
<polygon fill="#ffffff" stroke="transparent" points="597,-462.7 597,-523.7 677,-523.7 677,-462.7 597,-462.7"/>
<polygon fill="#f5f5f5" stroke="transparent" points="597,-500.2 597,-523.2 677,-523.2 677,-500.2 597,-500.2"/>
<polygon fill="none" stroke="#000000" points="597,-500.2 597,-523.2 677,-523.2 677,-500.2 597,-500.2"/>
<text text-anchor="start" x="602" y="-508.8" font-family="Helvetica,sans-Serif" font-weight="bold" font-size="11.00" fill="#000000">chats</text>
<text text-anchor="start" x="642.0437" y="-508.3" font-family="Helvetica,sans-Serif" font-size="11.00" fill="#000000">[table]</text>
<polygon fill="none" stroke="#000000" points="597,-481.2 597,-500.2 677,-500.2 677,-481.2 597,-481.2"/>
<text text-anchor="start" x="600" y="-487.3" font-family="Helvetica,sans-Serif" font-size="11.00" fill="#000000">...</text>
<polygon fill="#ffffff" stroke="transparent" points="597,-462.2 597,-481.2 618,-481.2 618,-462.2 597,-462.2"/>
<polygon fill="none" stroke="#000000" points="597,-462.2 597,-481.2 618,-481.2 618,-462.2 597,-462.2"/>
<text text-anchor="start" x="599.7026" y="-468.3" font-family="Helvetica,sans-Serif" font-size="11.00" fill="#000000">&lt; 1</text>
<polygon fill="#ffffff" stroke="transparent" points="618,-462.2 618,-481.2 656,-481.2 656,-462.2 618,-462.2"/>
<polygon fill="none" stroke="#000000" points="618,-462.2 618,-481.2 656,-481.2 656,-462.2 618,-462.2"/>
<text text-anchor="start" x="620.8053" y="-468.3" font-family="Helvetica,sans-Serif" font-size="11.00" fill="#000000">0 rows</text>
<polygon fill="#ffffff" stroke="transparent" points="656,-462.2 656,-481.2 677,-481.2 677,-462.2 656,-462.2"/>
<polygon fill="none" stroke="#000000" points="656,-462.2 656,-481.2 677,-481.2 677,-462.2 656,-462.2"/>
<text text-anchor="start" x="658.7026" y="-468.3" font-family="Helvetica,sans-Serif" font-size="11.00" fill="#000000">1 &gt;</text>
</a>
</g>
</g>
<!-- patients -->
<g id="node2" class="node">
<title>patients</title>
<g id="a_node2"><a xlink:href="../../tables/patients.html" xlink:title="patients" target="_top">
<polygon fill="#ffffff" stroke="transparent" points="311,-38.2 311,-392.2 531,-392.2 531,-38.2 311,-38.2"/>
<polygon fill="#f5f5f5" stroke="transparent" points="313,-367.2 313,-390.2 529,-390.2 529,-367.2 313,-367.2"/>
<polygon fill="none" stroke="#000000" points="313,-367.2 313,-390.2 529,-390.2 529,-367.2 313,-367.2"/>
<text text-anchor="start" x="318" y="-375.8" font-family="Helvetica,sans-Serif" font-weight="bold" font-size="11.00" fill="#000000">patients</text>
<text text-anchor="start" x="494.0437" y="-375.3" font-family="Helvetica,sans-Serif" font-size="11.00" fill="#000000">[table]</text>
<polygon fill="none" stroke="#000000" points="313,-345.2 313,-367.2 437,-367.2 437,-345.2 313,-345.2"/>
<image xlink:href="../../images/primaryKeys.png" width="11px" height="12px" preserveAspectRatio="xMinYMin meet" x="318" y="-362.2"/>
<text text-anchor="start" x="333" y="-352.3" font-family="Helvetica,sans-Serif" font-size="11.00" fill="#000000">id_patient</text>
<polygon fill="none" stroke="#000000" points="437,-345.2 437,-367.2 529,-367.2 529,-345.2 437,-345.2"/>
<text text-anchor="start" x="440" y="-352.9" font-family="Helvetica,sans-Serif" font-size="11.00" fill="#000000">serial[10]</text>
<polygon fill="#ffffff" stroke="transparent" points="313,-323.2 313,-345.2 437,-345.2 437,-323.2 313,-323.2"/>
<polygon fill="none" stroke="#000000" points="313,-323.2 313,-345.2 437,-345.2 437,-323.2 313,-323.2"/>
<text text-anchor="start" x="333" y="-330.3" font-family="Helvetica,sans-Serif" font-size="11.00" fill="#000000">service_id</text>
<polygon fill="none" stroke="#000000" points="437,-323.2 437,-345.2 529,-345.2 529,-323.2 437,-323.2"/>
<text text-anchor="start" x="440" y="-330.9" font-family="Helvetica,sans-Serif" font-size="11.00" fill="#000000">int4[10]</text>
<polygon fill="none" stroke="#000000" points="313,-301.2 313,-323.2 437,-323.2 437,-301.2 313,-301.2"/>
<text text-anchor="start" x="333" y="-308.3" font-family="Helvetica,sans-Serif" font-size="11.00" fill="#000000">cpf</text>
<polygon fill="none" stroke="#000000" points="437,-301.2 437,-323.2 529,-323.2 529,-301.2 437,-301.2"/>
<text text-anchor="start" x="440" y="-308.9" font-family="Helvetica,sans-Serif" font-size="11.00" fill="#000000">varchar[11]</text>
<polygon fill="none" stroke="#000000" points="313,-279.2 313,-301.2 437,-301.2 437,-279.2 313,-279.2"/>
<text text-anchor="start" x="333" y="-286.3" font-family="Helvetica,sans-Serif" font-size="11.00" fill="#000000">cdPhysicalPerson</text>
<polygon fill="none" stroke="#000000" points="437,-279.2 437,-301.2 529,-301.2 529,-279.2 437,-279.2"/>
<text text-anchor="start" x="440" y="-286.9" font-family="Helvetica,sans-Serif" font-size="11.00" fill="#000000">int4[10]</text>
<polygon fill="none" stroke="#000000" points="313,-257.2 313,-279.2 437,-279.2 437,-257.2 313,-257.2"/>
<image xlink:href="../../images/foreignKeys.png" width="11px" height="12px" preserveAspectRatio="xMinYMin meet" x="318" y="-274.2"/>
<text text-anchor="start" x="333" y="-264.3" font-family="Helvetica,sans-Serif" font-size="11.00" fill="#000000">name</text>
<polygon fill="none" stroke="#000000" points="437,-257.2 437,-279.2 529,-279.2 529,-257.2 437,-257.2"/>
<text text-anchor="start" x="440" y="-264.9" font-family="Helvetica,sans-Serif" font-size="11.00" fill="#000000">varchar[255]</text>
<polygon fill="none" stroke="#000000" points="313,-235.2 313,-257.2 437,-257.2 437,-235.2 313,-235.2"/>
<text text-anchor="start" x="333" y="-242.3" font-family="Helvetica,sans-Serif" font-size="11.00" fill="#000000">birth_date</text>
<polygon fill="none" stroke="#000000" points="437,-235.2 437,-257.2 529,-257.2 529,-235.2 437,-235.2"/>
<text text-anchor="start" x="439.6023" y="-242.9" font-family="Helvetica,sans-Serif" font-size="11.00" fill="#000000">timestamptz[35,6]</text>
<polygon fill="none" stroke="#000000" points="313,-213.2 313,-235.2 437,-235.2 437,-213.2 313,-213.2"/>
<text text-anchor="start" x="333" y="-220.3" font-family="Helvetica,sans-Serif" font-size="11.00" fill="#000000">entry_date</text>
<polygon fill="none" stroke="#000000" points="437,-213.2 437,-235.2 529,-235.2 529,-213.2 437,-213.2"/>
<text text-anchor="start" x="439.6023" y="-220.9" font-family="Helvetica,sans-Serif" font-size="11.00" fill="#000000">timestamptz[35,6]</text>
<polygon fill="none" stroke="#000000" points="313,-191.2 313,-213.2 437,-213.2 437,-191.2 313,-191.2"/>
<image xlink:href="../../images/foreignKeys.png" width="11px" height="12px" preserveAspectRatio="xMinYMin meet" x="318" y="-208.2"/>
<text text-anchor="start" x="333" y="-198.3" font-family="Helvetica,sans-Serif" font-size="11.00" fill="#000000">id_cid</text>
<polygon fill="none" stroke="#000000" points="437,-191.2 437,-213.2 529,-213.2 529,-191.2 437,-191.2"/>
<text text-anchor="start" x="440" y="-198.9" font-family="Helvetica,sans-Serif" font-size="11.00" fill="#000000">int4[10]</text>
<polygon fill="none" stroke="#000000" points="313,-169.2 313,-191.2 437,-191.2 437,-169.2 313,-169.2"/>
<text text-anchor="start" x="333" y="-176.3" font-family="Helvetica,sans-Serif" font-size="11.00" fill="#000000">department</text>
<polygon fill="none" stroke="#000000" points="437,-169.2 437,-191.2 529,-191.2 529,-169.2 437,-169.2"/>
<text text-anchor="start" x="440" y="-176.9" font-family="Helvetica,sans-Serif" font-size="11.00" fill="#000000">varchar[255]</text>
<polygon fill="none" stroke="#000000" points="313,-147.2 313,-169.2 437,-169.2 437,-147.2 313,-147.2"/>
<text text-anchor="start" x="333" y="-154.3" font-family="Helvetica,sans-Serif" font-size="11.00" fill="#000000">doctor</text>
<polygon fill="none" stroke="#000000" points="437,-147.2 437,-169.2 529,-169.2 529,-147.2 437,-147.2"/>
<text text-anchor="start" x="440" y="-154.9" font-family="Helvetica,sans-Serif" font-size="11.00" fill="#000000">varchar[255]</text>
<polygon fill="none" stroke="#000000" points="313,-125.2 313,-147.2 437,-147.2 437,-125.2 313,-125.2"/>
<text text-anchor="start" x="333" y="-132.3" font-family="Helvetica,sans-Serif" font-size="11.00" fill="#000000">gender</text>
<polygon fill="none" stroke="#000000" points="437,-125.2 437,-147.2 529,-147.2 529,-125.2 437,-125.2"/>
<text text-anchor="start" x="440" y="-132.9" font-family="Helvetica,sans-Serif" font-size="11.00" fill="#000000">bpchar[1]</text>
<polygon fill="none" stroke="#000000" points="313,-103.2 313,-125.2 437,-125.2 437,-103.2 313,-103.2"/>
<text text-anchor="start" x="333" y="-110.3" font-family="Helvetica,sans-Serif" font-size="11.00" fill="#000000">active</text>
<polygon fill="none" stroke="#000000" points="437,-103.2 437,-125.2 529,-125.2 529,-103.2 437,-103.2"/>
<text text-anchor="start" x="440" y="-110.9" font-family="Helvetica,sans-Serif" font-size="11.00" fill="#000000">bool[1]</text>
<polygon fill="none" stroke="#000000" points="313,-81.2 313,-103.2 437,-103.2 437,-81.2 313,-81.2"/>
<text text-anchor="start" x="333" y="-88.3" font-family="Helvetica,sans-Serif" font-size="11.00" fill="#000000">createdAt</text>
<polygon fill="none" stroke="#000000" points="437,-81.2 437,-103.2 529,-103.2 529,-81.2 437,-81.2"/>
<text text-anchor="start" x="439.6023" y="-88.9" font-family="Helvetica,sans-Serif" font-size="11.00" fill="#000000">timestamptz[35,6]</text>
<polygon fill="none" stroke="#000000" points="313,-59.2 313,-81.2 437,-81.2 437,-59.2 313,-59.2"/>
<text text-anchor="start" x="333" y="-66.3" font-family="Helvetica,sans-Serif" font-size="11.00" fill="#000000">updatedAt</text>
<polygon fill="none" stroke="#000000" points="437,-59.2 437,-81.2 529,-81.2 529,-59.2 437,-59.2"/>
<text text-anchor="start" x="439.6023" y="-66.9" font-family="Helvetica,sans-Serif" font-size="11.00" fill="#000000">timestamptz[35,6]</text>
<polygon fill="#ffffff" stroke="transparent" points="313,-40.2 313,-59.2 366,-59.2 366,-40.2 313,-40.2"/>
<polygon fill="none" stroke="#000000" points="313,-40.2 313,-59.2 366,-59.2 366,-40.2 313,-40.2"/>
<text text-anchor="start" x="316" y="-46.3" font-family="Helvetica,sans-Serif" font-size="11.00" fill="#000000">&lt; 1</text>
<polygon fill="#ffffff" stroke="transparent" points="366,-40.2 366,-59.2 437,-59.2 437,-40.2 366,-40.2"/>
<polygon fill="none" stroke="#000000" points="366,-40.2 366,-59.2 437,-59.2 437,-40.2 366,-40.2"/>
<text text-anchor="start" x="401.6105" y="-46.3" font-family="Helvetica,sans-Serif" font-size="11.00" fill="#000000">0 rows</text>
<polygon fill="#ffffff" stroke="transparent" points="437,-40.2 437,-59.2 529,-59.2 529,-40.2 437,-40.2"/>
<polygon fill="none" stroke="#000000" points="437,-40.2 437,-59.2 529,-59.2 529,-40.2 437,-40.2"/>
<text text-anchor="start" x="510.4053" y="-46.3" font-family="Helvetica,sans-Serif" font-size="11.00" fill="#000000">5 &gt;</text>
<polygon fill="none" stroke="#000000" stroke-width="2" points="312,-39.2 312,-391.2 530,-391.2 530,-39.2 312,-39.2"/>
</a>
</g>
</g>
<!-- chats&#45;&gt;patients -->
<g id="edge1" class="edge">
<title>chats:w&#45;&gt;patients:e</title>
<path fill="none" stroke="#000000" d="M577.6233,-458.0859C575.6442,-456.1909 573.7596,-454.2282 572,-452.2 541.3636,-416.8859 575.7512,-356.2 529,-356.2"/>
<polygon fill="#000000" stroke="#000000" points="582.8027,-462.4243 586.6238,-470.3212 585.8691,-464.9929 588.9354,-467.5614 588.9354,-467.5614 588.9354,-467.5614 585.8691,-464.9929 591.2471,-464.8017 582.8027,-462.4243 582.8027,-462.4243"/>
<ellipse fill="none" stroke="#000000" cx="580.3496" cy="-460.3695" rx="3.2" ry="3.2"/>
</g>
<!-- cid -->
<g id="node3" class="node">
<title>cid</title>
<g id="a_node3"><a xlink:href="../../tables/cid.html" xlink:title="cid" target="_top">
<polygon fill="#ffffff" stroke="transparent" points="176,-109.7 176,-236.7 262,-236.7 262,-109.7 176,-109.7"/>
<polygon fill="#f5f5f5" stroke="transparent" points="176,-213.2 176,-236.2 262,-236.2 262,-213.2 176,-213.2"/>
<polygon fill="none" stroke="#000000" points="176,-213.2 176,-236.2 262,-236.2 262,-213.2 176,-213.2"/>
<text text-anchor="start" x="180.4721" y="-221.8" font-family="Helvetica,sans-Serif" font-weight="bold" font-size="11.00" fill="#000000">cid</text>
<text text-anchor="start" x="227.0437" y="-221.3" font-family="Helvetica,sans-Serif" font-size="11.00" fill="#000000">[table]</text>
<polygon fill="none" stroke="#000000" points="176,-191.2 176,-213.2 262,-213.2 262,-191.2 176,-191.2"/>
<image xlink:href="../../images/primaryKeys.png" width="11px" height="12px" preserveAspectRatio="xMinYMin meet" x="181" y="-208.2"/>
<text text-anchor="start" x="197" y="-198.3" font-family="Helvetica,sans-Serif" font-size="11.00" fill="#000000">id_cid</text>
<polygon fill="#ffffff" stroke="transparent" points="176,-169.2 176,-191.2 262,-191.2 262,-169.2 176,-169.2"/>
<polygon fill="none" stroke="#000000" points="176,-169.2 176,-191.2 262,-191.2 262,-169.2 176,-169.2"/>
<text text-anchor="start" x="197" y="-176.3" font-family="Helvetica,sans-Serif" font-size="11.00" fill="#000000">cid_code</text>
<polygon fill="none" stroke="#000000" points="176,-147.2 176,-169.2 262,-169.2 262,-147.2 176,-147.2"/>
<image xlink:href="../../images/foreignKeys.png" width="11px" height="12px" preserveAspectRatio="xMinYMin meet" x="181" y="-164.2"/>
<text text-anchor="start" x="197" y="-154.3" font-family="Helvetica,sans-Serif" font-size="11.00" fill="#000000">id_label</text>
<polygon fill="none" stroke="#000000" points="176,-128.2 176,-147.2 262,-147.2 262,-128.2 176,-128.2"/>
<text text-anchor="start" x="179" y="-134.3" font-family="Helvetica,sans-Serif" font-size="11.00" fill="#000000">...</text>
<polygon fill="#ffffff" stroke="transparent" points="176,-109.2 176,-128.2 197,-128.2 197,-109.2 176,-109.2"/>
<polygon fill="none" stroke="#000000" points="176,-109.2 176,-128.2 197,-128.2 197,-109.2 176,-109.2"/>
<text text-anchor="start" x="178.7027" y="-115.3" font-family="Helvetica,sans-Serif" font-size="11.00" fill="#000000">&lt; 1</text>
<polygon fill="#ffffff" stroke="transparent" points="197,-109.2 197,-128.2 241,-128.2 241,-109.2 197,-109.2"/>
<polygon fill="none" stroke="#000000" points="197,-109.2 197,-128.2 241,-128.2 241,-109.2 197,-109.2"/>
<text text-anchor="start" x="199.7478" y="-115.3" font-family="Helvetica,sans-Serif" font-size="11.00" fill="#000000">88 rows</text>
<polygon fill="#ffffff" stroke="transparent" points="241,-109.2 241,-128.2 262,-128.2 262,-109.2 241,-109.2"/>
<polygon fill="none" stroke="#000000" points="241,-109.2 241,-128.2 262,-128.2 262,-109.2 241,-109.2"/>
<text text-anchor="start" x="243.7027" y="-115.3" font-family="Helvetica,sans-Serif" font-size="11.00" fill="#000000">1 &gt;</text>
</a>
</g>
</g>
<!-- patients&#45;&gt;cid -->
<g id="edge9" class="edge">
<title>patients:w&#45;&gt;cid:e</title>
<path fill="none" stroke="#000000" d="M298.276,-202.2C286.2815,-202.2 278.8229,-202.2 262,-202.2"/>
<polygon fill="#000000" stroke="#000000" points="305,-202.2001 313,-205.8 309,-202.2 313,-202.2 313,-202.2 313,-202.2 309,-202.2 313,-198.6 305,-202.2001 305,-202.2001"/>
<ellipse fill="none" stroke="#000000" cx="301.8" cy="-202.2001" rx="3.2" ry="3.2"/>
</g>
<!-- patient_labels -->
<g id="node4" class="node">
<title>patient_labels</title>
<g id="a_node4"><a xlink:href="../../tables/patient_labels.html" xlink:title="patient_labels" target="_top">
<polygon fill="#ffffff" stroke="transparent" points="8,-130.7 8,-191.7 127,-191.7 127,-130.7 8,-130.7"/>
<polygon fill="#f5f5f5" stroke="transparent" points="8.5,-168.2 8.5,-191.2 127.5,-191.2 127.5,-168.2 8.5,-168.2"/>
<polygon fill="none" stroke="#000000" points="8.5,-168.2 8.5,-191.2 127.5,-191.2 127.5,-168.2 8.5,-168.2"/>
<text text-anchor="start" x="13.5" y="-176.8" font-family="Helvetica,sans-Serif" font-weight="bold" font-size="11.00" fill="#000000">patient_labels</text>
<text text-anchor="start" x="93.0219" y="-176.3" font-family="Helvetica,sans-Serif" font-size="11.00" fill="#000000">[table]</text>
<polygon fill="none" stroke="#000000" points="8.5,-149.2 8.5,-168.2 127.5,-168.2 127.5,-149.2 8.5,-149.2"/>
<text text-anchor="start" x="11.5" y="-155.3" font-family="Helvetica,sans-Serif" font-size="11.00" fill="#000000">...</text>
<polygon fill="#ffffff" stroke="transparent" points="8.5,-130.2 8.5,-149.2 44.5,-149.2 44.5,-130.2 8.5,-130.2"/>
<polygon fill="none" stroke="#000000" points="8.5,-130.2 8.5,-149.2 44.5,-149.2 44.5,-130.2 8.5,-130.2"/>
<text text-anchor="start" x="11.5" y="-136.3" font-family="Helvetica,sans-Serif" font-size="11.00" fill="#000000"> &#160;</text>
<polygon fill="#ffffff" stroke="transparent" points="44.5,-130.2 44.5,-149.2 94.5,-149.2 94.5,-130.2 44.5,-130.2"/>
<polygon fill="none" stroke="#000000" points="44.5,-130.2 44.5,-149.2 94.5,-149.2 94.5,-130.2 44.5,-130.2"/>
<text text-anchor="start" x="59.1105" y="-136.3" font-family="Helvetica,sans-Serif" font-size="11.00" fill="#000000">0 rows</text>
<polygon fill="#ffffff" stroke="transparent" points="94.5,-130.2 94.5,-149.2 127.5,-149.2 127.5,-130.2 94.5,-130.2"/>
<polygon fill="none" stroke="#000000" points="94.5,-130.2 94.5,-149.2 127.5,-149.2 127.5,-130.2 94.5,-130.2"/>
<text text-anchor="start" x="108.9053" y="-136.3" font-family="Helvetica,sans-Serif" font-size="11.00" fill="#000000">1 &gt;</text>
</a>
</g>
</g>
<!-- cid&#45;&gt;patient_labels -->
<g id="edge2" class="edge">
<title>cid:w&#45;&gt;patient_labels:e</title>
<path fill="none" stroke="#000000" d="M161.2829,-158.2C150.2886,-158.2 143.1615,-158.2 127.5,-158.2"/>
<polygon fill="#000000" stroke="#000000" points="168,-158.2001 176,-161.8 172,-158.2 176,-158.2 176,-158.2 176,-158.2 172,-158.2 176,-154.6 168,-158.2001 168,-158.2001"/>
<ellipse fill="none" stroke="#000000" cx="164.8" cy="-158.2001" rx="3.2" ry="3.2"/>
</g>
<!-- device -->
<g id="node5" class="node">
<title>device</title>
<g id="a_node5"><a xlink:href="../../tables/device.html" xlink:title="device" target="_top">
<polygon fill="#ffffff" stroke="transparent" points="580,-177.7 580,-304.7 694,-304.7 694,-177.7 580,-177.7"/>
<polygon fill="#f5f5f5" stroke="transparent" points="580,-281.2 580,-304.2 694,-304.2 694,-281.2 580,-281.2"/>
<polygon fill="none" stroke="#000000" points="580,-281.2 580,-304.2 694,-304.2 694,-281.2 580,-281.2"/>
<text text-anchor="start" x="585" y="-289.8" font-family="Helvetica,sans-Serif" font-weight="bold" font-size="11.00" fill="#000000">device</text>
<text text-anchor="start" x="659.0437" y="-289.3" font-family="Helvetica,sans-Serif" font-size="11.00" fill="#000000">[table]</text>
<polygon fill="none" stroke="#000000" points="580,-259.2 580,-281.2 694,-281.2 694,-259.2 580,-259.2"/>
<image xlink:href="../../images/primaryKeys.png" width="11px" height="12px" preserveAspectRatio="xMinYMin meet" x="585" y="-276.2"/>
<text text-anchor="start" x="600" y="-266.3" font-family="Helvetica,sans-Serif" font-size="11.00" fill="#000000">id_device_token</text>
<polygon fill="none" stroke="#000000" points="580,-237.2 580,-259.2 694,-259.2 694,-237.2 580,-237.2"/>
<image xlink:href="../../images/foreignKeys.png" width="11px" height="12px" preserveAspectRatio="xMinYMin meet" x="585" y="-254.2"/>
<text text-anchor="start" x="600" y="-244.3" font-family="Helvetica,sans-Serif" font-size="11.00" fill="#000000">patient_id</text>
<polygon fill="#ffffff" stroke="transparent" points="580,-215.2 580,-237.2 694,-237.2 694,-215.2 580,-215.2"/>
<polygon fill="none" stroke="#000000" points="580,-215.2 580,-237.2 694,-237.2 694,-215.2 580,-215.2"/>
<text text-anchor="start" x="600" y="-222.3" font-family="Helvetica,sans-Serif" font-size="11.00" fill="#000000">token</text>
<polygon fill="none" stroke="#000000" points="580,-196.2 580,-215.2 694,-215.2 694,-196.2 580,-196.2"/>
<text text-anchor="start" x="583" y="-202.3" font-family="Helvetica,sans-Serif" font-size="11.00" fill="#000000">...</text>
<polygon fill="#ffffff" stroke="transparent" points="580,-177.2 580,-196.2 622,-196.2 622,-177.2 580,-177.2"/>
<polygon fill="none" stroke="#000000" points="580,-177.2 580,-196.2 622,-196.2 622,-177.2 580,-177.2"/>
<text text-anchor="start" x="583" y="-183.3" font-family="Helvetica,sans-Serif" font-size="11.00" fill="#000000">&lt; 1</text>
<polygon fill="#ffffff" stroke="transparent" points="622,-177.2 622,-196.2 671,-196.2 671,-177.2 622,-177.2"/>
<polygon fill="none" stroke="#000000" points="622,-177.2 622,-196.2 671,-196.2 671,-177.2 622,-177.2"/>
<text text-anchor="start" x="635.6105" y="-183.3" font-family="Helvetica,sans-Serif" font-size="11.00" fill="#000000">0 rows</text>
<polygon fill="#ffffff" stroke="transparent" points="671,-177.2 671,-196.2 694,-196.2 694,-177.2 671,-177.2"/>
<polygon fill="none" stroke="#000000" points="671,-177.2 671,-196.2 694,-196.2 694,-177.2 671,-177.2"/>
<text text-anchor="start" x="684.8862" y="-183.3" font-family="Helvetica,sans-Serif" font-size="11.00" fill="#000000"> &#160;</text>
</a>
</g>
</g>
<!-- device&#45;&gt;patients -->
<g id="edge3" class="edge">
<title>device:w&#45;&gt;patients:e</title>
<path fill="none" stroke="#000000" d="M565.8128,-252.0438C538.0266,-271.2828 576.0695,-356.2 529,-356.2"/>
<polygon fill="#000000" stroke="#000000" points="572.2784,-250.2921 580.9414,-251.6747 576.1392,-249.246 580,-248.2 580,-248.2 580,-248.2 576.1392,-249.246 579.0586,-244.7253 572.2784,-250.2921 572.2784,-250.2921"/>
<ellipse fill="none" stroke="#000000" cx="569.1897" cy="-251.1289" rx="3.2" ry="3.2"/>
</g>
<!-- message_notifications -->
<g id="node6" class="node">
<title>message_notifications</title>
<g id="a_node6"><a xlink:href="../../tables/message_notifications.html" xlink:title="message_notifications" target="_top">
<polygon fill="#ffffff" stroke="transparent" points="891,-346.7 891,-407.7 1059,-407.7 1059,-346.7 891,-346.7"/>
<polygon fill="#f5f5f5" stroke="transparent" points="891,-384.2 891,-407.2 1059,-407.2 1059,-384.2 891,-384.2"/>
<polygon fill="none" stroke="#000000" points="891,-384.2 891,-407.2 1059,-407.2 1059,-384.2 891,-384.2"/>
<text text-anchor="start" x="896" y="-392.8" font-family="Helvetica,sans-Serif" font-weight="bold" font-size="11.00" fill="#000000">message_notifications</text>
<text text-anchor="start" x="1024.5219" y="-392.3" font-family="Helvetica,sans-Serif" font-size="11.00" fill="#000000">[table]</text>
<polygon fill="none" stroke="#000000" points="891,-365.2 891,-384.2 1059,-384.2 1059,-365.2 891,-365.2"/>
<text text-anchor="start" x="894" y="-371.3" font-family="Helvetica,sans-Serif" font-size="11.00" fill="#000000">...</text>
<polygon fill="#ffffff" stroke="transparent" points="891,-346.2 891,-365.2 960,-365.2 960,-346.2 891,-346.2"/>
<polygon fill="none" stroke="#000000" points="891,-346.2 891,-365.2 960,-365.2 960,-346.2 891,-346.2"/>
<text text-anchor="start" x="894" y="-352.3" font-family="Helvetica,sans-Serif" font-size="11.00" fill="#000000">&lt; 2</text>
<polygon fill="#ffffff" stroke="transparent" points="960,-346.2 960,-365.2 1022,-365.2 1022,-346.2 960,-346.2"/>
<polygon fill="none" stroke="#000000" points="960,-346.2 960,-365.2 1022,-365.2 1022,-346.2 960,-346.2"/>
<text text-anchor="start" x="986.6105" y="-352.3" font-family="Helvetica,sans-Serif" font-size="11.00" fill="#000000">0 rows</text>
<polygon fill="#ffffff" stroke="transparent" points="1022,-346.2 1022,-365.2 1059,-365.2 1059,-346.2 1022,-346.2"/>
<polygon fill="none" stroke="#000000" points="1022,-346.2 1022,-365.2 1059,-365.2 1059,-346.2 1022,-346.2"/>
<text text-anchor="start" x="1049.8862" y="-352.3" font-family="Helvetica,sans-Serif" font-size="11.00" fill="#000000"> &#160;</text>
</a>
</g>
</g>
<!-- message_notifications&#45;&gt;patients -->
<g id="edge5" class="edge">
<title>message_notifications:w&#45;&gt;patients:e</title>
<path fill="none" stroke="#000000" d="M868.4311,-356.8999C787.0331,-344.2578 672.1799,-332.5893 572,-345.2 552.4279,-347.6637 548.7265,-356.2 529,-356.2"/>
<polygon fill="#000000" stroke="#000000" points="874.8207,-357.9205 882.1527,-362.7374 878.7706,-358.5515 882.7206,-359.1825 882.7206,-359.1825 882.7206,-359.1825 878.7706,-358.5515 883.2885,-355.6276 874.8207,-357.9205 874.8207,-357.9205"/>
<ellipse fill="none" stroke="#000000" cx="871.6608" cy="-357.4157" rx="3.2" ry="3.2"/>
</g>
<!-- messages -->
<g id="node7" class="node">
<title>messages</title>
<g id="a_node7"><a xlink:href="../../tables/messages.html" xlink:title="messages" target="_top">
<polygon fill="#ffffff" stroke="transparent" points="744,-377.7 744,-438.7 841,-438.7 841,-377.7 744,-377.7"/>
<polygon fill="#f5f5f5" stroke="transparent" points="744.5,-415.2 744.5,-438.2 841.5,-438.2 841.5,-415.2 744.5,-415.2"/>
<polygon fill="none" stroke="#000000" points="744.5,-415.2 744.5,-438.2 841.5,-438.2 841.5,-415.2 744.5,-415.2"/>
<text text-anchor="start" x="749.5" y="-423.8" font-family="Helvetica,sans-Serif" font-weight="bold" font-size="11.00" fill="#000000">messages</text>
<text text-anchor="start" x="807.0219" y="-423.3" font-family="Helvetica,sans-Serif" font-size="11.00" fill="#000000">[table]</text>
<polygon fill="none" stroke="#000000" points="744.5,-396.2 744.5,-415.2 841.5,-415.2 841.5,-396.2 744.5,-396.2"/>
<text text-anchor="start" x="747.5" y="-402.3" font-family="Helvetica,sans-Serif" font-size="11.00" fill="#000000">...</text>
<polygon fill="#ffffff" stroke="transparent" points="744.5,-377.2 744.5,-396.2 773.5,-396.2 773.5,-377.2 744.5,-377.2"/>
<polygon fill="none" stroke="#000000" points="744.5,-377.2 744.5,-396.2 773.5,-396.2 773.5,-377.2 744.5,-377.2"/>
<text text-anchor="start" x="747.5" y="-383.3" font-family="Helvetica,sans-Serif" font-size="11.00" fill="#000000">&lt; 3</text>
<polygon fill="#ffffff" stroke="transparent" points="773.5,-377.2 773.5,-396.2 815.5,-396.2 815.5,-377.2 773.5,-377.2"/>
<polygon fill="none" stroke="#000000" points="773.5,-377.2 773.5,-396.2 815.5,-396.2 815.5,-377.2 773.5,-377.2"/>
<text text-anchor="start" x="780.1105" y="-383.3" font-family="Helvetica,sans-Serif" font-size="11.00" fill="#000000">0 rows</text>
<polygon fill="#ffffff" stroke="transparent" points="815.5,-377.2 815.5,-396.2 841.5,-396.2 841.5,-377.2 815.5,-377.2"/>
<polygon fill="none" stroke="#000000" points="815.5,-377.2 815.5,-396.2 841.5,-396.2 841.5,-377.2 815.5,-377.2"/>
<text text-anchor="start" x="822.9053" y="-383.3" font-family="Helvetica,sans-Serif" font-size="11.00" fill="#000000">1 &gt;</text>
</a>
</g>
</g>
<!-- message_notifications&#45;&gt;messages -->
<g id="edge4" class="edge">
<title>message_notifications:w&#45;&gt;messages:e</title>
<path fill="none" stroke="#000000" d="M868.7036,-395.2558C862.0378,-396.3881 855.4822,-397.5017 849.1843,-398.5714"/>
<polygon fill="#000000" stroke="#000000" points="875.061,-394.176 883.5509,-396.3854 879.0045,-393.5061 882.948,-392.8362 882.948,-392.8362 882.948,-392.8362 879.0045,-393.5061 882.3451,-389.2871 875.061,-394.176 875.061,-394.176"/>
<ellipse fill="none" stroke="#000000" cx="871.9062" cy="-394.7119" rx="3.2" ry="3.2"/>
</g>
<!-- messages&#45;&gt;chats -->
<g id="edge6" class="edge">
<title>messages:w&#45;&gt;chats:e</title>
<path fill="none" stroke="#000000" d="M723.2058,-446.0779C710.3331,-453.1144 697.1476,-460.3219 685.0832,-466.9166"/>
<polygon fill="#000000" stroke="#000000" points="728.9013,-442.9646 737.6478,-442.2863 732.4112,-441.046 735.921,-439.1274 735.921,-439.1274 735.921,-439.1274 732.4112,-441.046 734.1943,-435.9685 728.9013,-442.9646 728.9013,-442.9646"/>
<ellipse fill="none" stroke="#000000" cx="726.0934" cy="-444.4994" rx="3.2" ry="3.2"/>
</g>
<!-- messages&#45;&gt;patients -->
<g id="edge7" class="edge">
<title>messages:w&#45;&gt;patients:e</title>
<path fill="none" stroke="#000000" d="M830.8876,-358.9809C808.0426,-333.246 587.1357,-356.2 529,-356.2"/>
<polygon fill="#000000" stroke="#000000" points="829.3541,-365.4178 823.998,-372.3657 828.427,-369.3089 827.5,-373.2 827.5,-373.2 827.5,-373.2 828.427,-369.3089 831.002,-374.0343 829.3541,-365.4178 829.3541,-365.4178"/>
<ellipse fill="none" stroke="#000000" cx="830.0957" cy="-362.3049" rx="3.2" ry="3.2"/>
</g>
<!-- users -->
<g id="node8" class="node">
<title>users</title>
<g id="a_node8"><a xlink:href="../../tables/users.html" xlink:title="users" target="_top">
<polygon fill="#ffffff" stroke="transparent" points="601.5,-380.7 601.5,-441.7 672.5,-441.7 672.5,-380.7 601.5,-380.7"/>
<polygon fill="#f5f5f5" stroke="transparent" points="602,-418.2 602,-441.2 673,-441.2 673,-418.2 602,-418.2"/>
<polygon fill="none" stroke="#000000" points="602,-418.2 602,-441.2 673,-441.2 673,-418.2 602,-418.2"/>
<text text-anchor="start" x="607" y="-426.8" font-family="Helvetica,sans-Serif" font-weight="bold" font-size="11.00" fill="#000000">users</text>
<text text-anchor="start" x="638.5219" y="-426.3" font-family="Helvetica,sans-Serif" font-size="11.00" fill="#000000">[table]</text>
<polygon fill="none" stroke="#000000" points="602,-399.2 602,-418.2 673,-418.2 673,-399.2 602,-399.2"/>
<text text-anchor="start" x="605" y="-405.3" font-family="Helvetica,sans-Serif" font-size="11.00" fill="#000000">...</text>
<polygon fill="#ffffff" stroke="transparent" points="602,-380.2 602,-399.2 614,-399.2 614,-380.2 602,-380.2"/>
<polygon fill="none" stroke="#000000" points="602,-380.2 602,-399.2 614,-399.2 614,-380.2 602,-380.2"/>
<text text-anchor="start" x="604.9431" y="-386.3" font-family="Helvetica,sans-Serif" font-size="11.00" fill="#000000"> &#160;</text>
<polygon fill="#ffffff" stroke="transparent" points="614,-380.2 614,-399.2 652,-399.2 652,-380.2 614,-380.2"/>
<polygon fill="none" stroke="#000000" points="614,-380.2 614,-399.2 652,-399.2 652,-380.2 614,-380.2"/>
<text text-anchor="start" x="616.8053" y="-386.3" font-family="Helvetica,sans-Serif" font-size="11.00" fill="#000000">0 rows</text>
<polygon fill="#ffffff" stroke="transparent" points="652,-380.2 652,-399.2 673,-399.2 673,-380.2 652,-380.2"/>
<polygon fill="none" stroke="#000000" points="652,-380.2 652,-399.2 673,-399.2 673,-380.2 652,-380.2"/>
<text text-anchor="start" x="654.7026" y="-386.3" font-family="Helvetica,sans-Serif" font-size="11.00" fill="#000000">4 &gt;</text>
</a>
</g>
</g>
<!-- messages&#45;&gt;users -->
<g id="edge8" class="edge">
<title>messages:w&#45;&gt;users:e</title>
<path fill="none" stroke="#000000" d="M837.061,-362.2603C851.7422,-339.166 736.5309,-408.2 673,-408.2"/>
<polygon fill="#000000" stroke="#000000" points="832.7645,-367.1763 824.7893,-370.831 830.1323,-370.1882 827.5,-373.2 827.5,-373.2 827.5,-373.2 830.1323,-370.1882 830.2107,-375.569 832.7645,-367.1763 832.7645,-367.1763"/>
<ellipse fill="none" stroke="#000000" cx="834.8704" cy="-364.7668" rx="3.2" ry="3.2"/>
</g>
<!-- question_responses -->
<g id="node9" class="node">
<title>question_responses</title>
<g id="a_node9"><a xlink:href="../../tables/question_responses.html" xlink:title="question_responses" target="_top">
<polygon fill="#ffffff" stroke="transparent" points="897.5,-564.7 897.5,-625.7 1052.5,-625.7 1052.5,-564.7 897.5,-564.7"/>
<polygon fill="#f5f5f5" stroke="transparent" points="898,-602.2 898,-625.2 1053,-625.2 1053,-602.2 898,-602.2"/>
<polygon fill="none" stroke="#000000" points="898,-602.2 898,-625.2 1053,-625.2 1053,-602.2 898,-602.2"/>
<text text-anchor="start" x="903" y="-610.8" font-family="Helvetica,sans-Serif" font-weight="bold" font-size="11.00" fill="#000000">question_responses</text>
<text text-anchor="start" x="1018.5219" y="-610.3" font-family="Helvetica,sans-Serif" font-size="11.00" fill="#000000">[table]</text>
<polygon fill="none" stroke="#000000" points="898,-583.2 898,-602.2 1053,-602.2 1053,-583.2 898,-583.2"/>
<text text-anchor="start" x="901" y="-589.3" font-family="Helvetica,sans-Serif" font-size="11.00" fill="#000000">...</text>
<polygon fill="#ffffff" stroke="transparent" points="898,-564.2 898,-583.2 961,-583.2 961,-564.2 898,-564.2"/>
<polygon fill="none" stroke="#000000" points="898,-564.2 898,-583.2 961,-583.2 961,-564.2 898,-564.2"/>
<text text-anchor="start" x="901" y="-570.3" font-family="Helvetica,sans-Serif" font-size="11.00" fill="#000000">&lt; 2</text>
<polygon fill="#ffffff" stroke="transparent" points="961,-564.2 961,-583.2 1020,-583.2 1020,-564.2 961,-564.2"/>
<polygon fill="none" stroke="#000000" points="961,-564.2 961,-583.2 1020,-583.2 1020,-564.2 961,-564.2"/>
<text text-anchor="start" x="984.6105" y="-570.3" font-family="Helvetica,sans-Serif" font-size="11.00" fill="#000000">0 rows</text>
<polygon fill="#ffffff" stroke="transparent" points="1020,-564.2 1020,-583.2 1053,-583.2 1053,-564.2 1020,-564.2"/>
<polygon fill="none" stroke="#000000" points="1020,-564.2 1020,-583.2 1053,-583.2 1053,-564.2 1020,-564.2"/>
<text text-anchor="start" x="1043.8862" y="-570.3" font-family="Helvetica,sans-Serif" font-size="11.00" fill="#000000"> &#160;</text>
</a>
</g>
</g>
<!-- responses -->
<g id="node10" class="node">
<title>responses</title>
<g id="a_node10"><a xlink:href="../../tables/responses.html" xlink:title="responses" target="_top">
<polygon fill="#ffffff" stroke="transparent" points="743,-477.7 743,-626.7 842,-626.7 842,-477.7 743,-477.7"/>
<polygon fill="#f5f5f5" stroke="transparent" points="743.5,-603.2 743.5,-626.2 842.5,-626.2 842.5,-603.2 743.5,-603.2"/>
<polygon fill="none" stroke="#000000" points="743.5,-603.2 743.5,-626.2 842.5,-626.2 842.5,-603.2 743.5,-603.2"/>
<text text-anchor="start" x="748.5" y="-611.8" font-family="Helvetica,sans-Serif" font-weight="bold" font-size="11.00" fill="#000000">responses</text>
<text text-anchor="start" x="808.0219" y="-611.3" font-family="Helvetica,sans-Serif" font-size="11.00" fill="#000000">[table]</text>
<polygon fill="none" stroke="#000000" points="743.5,-581.2 743.5,-603.2 842.5,-603.2 842.5,-581.2 743.5,-581.2"/>
<image xlink:href="../../images/primaryKeys.png" width="11px" height="12px" preserveAspectRatio="xMinYMin meet" x="748.5" y="-598.2"/>
<text text-anchor="start" x="764.5" y="-588.3" font-family="Helvetica,sans-Serif" font-size="11.00" fill="#000000">id_responses</text>
<polygon fill="none" stroke="#000000" points="743.5,-559.2 743.5,-581.2 842.5,-581.2 842.5,-559.2 743.5,-559.2"/>
<image xlink:href="../../images/foreignKeys.png" width="11px" height="12px" preserveAspectRatio="xMinYMin meet" x="748.5" y="-576.2"/>
<text text-anchor="start" x="764.5" y="-566.3" font-family="Helvetica,sans-Serif" font-size="11.00" fill="#000000">formId</text>
<polygon fill="none" stroke="#000000" points="743.5,-537.2 743.5,-559.2 842.5,-559.2 842.5,-537.2 743.5,-537.2"/>
<image xlink:href="../../images/foreignKeys.png" width="11px" height="12px" preserveAspectRatio="xMinYMin meet" x="748.5" y="-554.2"/>
<text text-anchor="start" x="764.5" y="-544.3" font-family="Helvetica,sans-Serif" font-size="11.00" fill="#000000">submittedBy</text>
<polygon fill="none" stroke="#000000" points="743.5,-515.2 743.5,-537.2 842.5,-537.2 842.5,-515.2 743.5,-515.2"/>
<image xlink:href="../../images/foreignKeys.png" width="11px" height="12px" preserveAspectRatio="xMinYMin meet" x="748.5" y="-532.2"/>
<text text-anchor="start" x="764.5" y="-522.3" font-family="Helvetica,sans-Serif" font-size="11.00" fill="#000000">assignedBy</text>
<polygon fill="none" stroke="#000000" points="743.5,-496.2 743.5,-515.2 842.5,-515.2 842.5,-496.2 743.5,-496.2"/>
<text text-anchor="start" x="746.5" y="-502.3" font-family="Helvetica,sans-Serif" font-size="11.00" fill="#000000">...</text>
<polygon fill="#ffffff" stroke="transparent" points="743.5,-477.2 743.5,-496.2 773.5,-496.2 773.5,-477.2 743.5,-477.2"/>
<polygon fill="none" stroke="#000000" points="743.5,-477.2 743.5,-496.2 773.5,-496.2 773.5,-477.2 743.5,-477.2"/>
<text text-anchor="start" x="746.5" y="-483.3" font-family="Helvetica,sans-Serif" font-size="11.00" fill="#000000">&lt; 3</text>
<polygon fill="#ffffff" stroke="transparent" points="773.5,-477.2 773.5,-496.2 816.5,-496.2 816.5,-477.2 773.5,-477.2"/>
<polygon fill="none" stroke="#000000" points="773.5,-477.2 773.5,-496.2 816.5,-496.2 816.5,-477.2 773.5,-477.2"/>
<text text-anchor="start" x="781.1105" y="-483.3" font-family="Helvetica,sans-Serif" font-size="11.00" fill="#000000">0 rows</text>
<polygon fill="#ffffff" stroke="transparent" points="816.5,-477.2 816.5,-496.2 842.5,-496.2 842.5,-477.2 816.5,-477.2"/>
<polygon fill="none" stroke="#000000" points="816.5,-477.2 816.5,-496.2 842.5,-496.2 842.5,-477.2 816.5,-477.2"/>
<text text-anchor="start" x="823.9053" y="-483.3" font-family="Helvetica,sans-Serif" font-size="11.00" fill="#000000">1 &gt;</text>
</a>
</g>
</g>
<!-- question_responses&#45;&gt;responses -->
<g id="edge10" class="edge">
<title>question_responses:w&#45;&gt;responses:e</title>
<path fill="none" stroke="#000000" d="M883.2286,-592.2C869.4265,-592.2 861.3854,-592.2 842.5,-592.2"/>
<polygon fill="#000000" stroke="#000000" points="890,-592.2001 898,-595.8 894,-592.2 898,-592.2 898,-592.2 898,-592.2 894,-592.2 898,-588.6 890,-592.2001 890,-592.2001"/>
<ellipse fill="none" stroke="#000000" cx="886.8" cy="-592.2001" rx="3.2" ry="3.2"/>
</g>
<!-- responses&#45;&gt;patients -->
<g id="edge13" class="edge">
<title>responses:w&#45;&gt;patients:e</title>
<path fill="none" stroke="#000000" d="M728.7702,-548.637C662.0288,-552.5661 626.2561,-580.6095 572,-534.2 510.1527,-481.2971 610.3867,-356.2 529,-356.2"/>
<polygon fill="#000000" stroke="#000000" points="735.5035,-548.4373 743.6068,-551.7984 739.5018,-548.3186 743.5,-548.2 743.5,-548.2 743.5,-548.2 739.5018,-548.3186 743.3932,-544.6016 735.5035,-548.4373 735.5035,-548.4373"/>
<ellipse fill="none" stroke="#000000" cx="732.3049" cy="-548.5322" rx="3.2" ry="3.2"/>
</g>
<!-- responses&#45;&gt;users -->
<g id="edge11" class="edge">
<title>responses:w&#45;&gt;users:e</title>
<path fill="none" stroke="#000000" d="M729.3524,-523.3995C690.9467,-505.5303 728.4837,-408.2 673,-408.2"/>
<polygon fill="#000000" stroke="#000000" points="735.6523,-524.6465 742.8009,-529.7315 739.5761,-525.4233 743.5,-526.2 743.5,-526.2 743.5,-526.2 739.5761,-525.4233 744.1991,-522.6685 735.6523,-524.6465 735.6523,-524.6465"/>
<ellipse fill="none" stroke="#000000" cx="732.5132" cy="-524.0251" rx="3.2" ry="3.2"/>
</g>
<!-- forms -->
<g id="node11" class="node">
<title>forms</title>
<g id="a_node11"><a xlink:href="../../tables/forms.html" xlink:title="forms" target="_top">
<polygon fill="#ffffff" stroke="transparent" points="601,-572.7 601,-633.7 673,-633.7 673,-572.7 601,-572.7"/>
<polygon fill="#f5f5f5" stroke="transparent" points="601,-610.2 601,-633.2 673,-633.2 673,-610.2 601,-610.2"/>
<polygon fill="none" stroke="#000000" points="601,-610.2 601,-633.2 673,-633.2 673,-610.2 601,-610.2"/>
<text text-anchor="start" x="606" y="-618.8" font-family="Helvetica,sans-Serif" font-weight="bold" font-size="11.00" fill="#000000">forms</text>
<text text-anchor="start" x="638.5219" y="-618.3" font-family="Helvetica,sans-Serif" font-size="11.00" fill="#000000">[table]</text>
<polygon fill="none" stroke="#000000" points="601,-591.2 601,-610.2 673,-610.2 673,-591.2 601,-591.2"/>
<text text-anchor="start" x="604" y="-597.3" font-family="Helvetica,sans-Serif" font-size="11.00" fill="#000000">...</text>
<polygon fill="#ffffff" stroke="transparent" points="601,-572.2 601,-591.2 613,-591.2 613,-572.2 601,-572.2"/>
<polygon fill="none" stroke="#000000" points="601,-572.2 601,-591.2 613,-591.2 613,-572.2 601,-572.2"/>
<text text-anchor="start" x="603.9431" y="-578.3" font-family="Helvetica,sans-Serif" font-size="11.00" fill="#000000"> &#160;</text>
<polygon fill="#ffffff" stroke="transparent" points="613,-572.2 613,-591.2 651,-591.2 651,-572.2 613,-572.2"/>
<polygon fill="none" stroke="#000000" points="613,-572.2 613,-591.2 651,-591.2 651,-572.2 613,-572.2"/>
<text text-anchor="start" x="615.8053" y="-578.3" font-family="Helvetica,sans-Serif" font-size="11.00" fill="#000000">0 rows</text>
<polygon fill="#ffffff" stroke="transparent" points="651,-572.2 651,-591.2 673,-591.2 673,-572.2 651,-572.2"/>
<polygon fill="none" stroke="#000000" points="651,-572.2 651,-591.2 673,-591.2 673,-572.2 651,-572.2"/>
<text text-anchor="start" x="654.4053" y="-578.3" font-family="Helvetica,sans-Serif" font-size="11.00" fill="#000000">2 &gt;</text>
</a>
</g>
</g>
<!-- responses&#45;&gt;forms -->
<g id="edge12" class="edge">
<title>responses:w&#45;&gt;forms:e</title>
<path fill="none" stroke="#000000" d="M729.0166,-572.3575C707.8096,-579.2363 701.4656,-600.2 673,-600.2"/>
<polygon fill="#000000" stroke="#000000" points="735.5873,-571.3788 744.0304,-573.7607 739.5437,-570.7894 743.5,-570.2 743.5,-570.2 743.5,-570.2 739.5437,-570.7894 742.9696,-566.6393 735.5873,-571.3788 735.5873,-571.3788"/>
<ellipse fill="none" stroke="#000000" cx="732.4222" cy="-571.8503" rx="3.2" ry="3.2"/>
</g>
</g>
</svg>
