<?xml version="1.0" encoding="UTF-8" standalone="no"?>
<!DOCTYPE svg PUBLIC "-//W3C//DTD SVG 1.1//EN"
 "http://www.w3.org/Graphics/SVG/1.1/DTD/svg11.dtd">
<!-- Generated by graphviz version 2.40.1 (20161225.0304)
 -->
<!-- Title: oneDegreeRelationshipsDiagramImplied Pages: 1 -->
<svg width="966pt" height="646pt"
 viewBox="0.00 0.00 966.00 645.70" xmlns="http://www.w3.org/2000/svg" xmlns:xlink="http://www.w3.org/1999/xlink">
<g id="graph0" class="graph" transform="scale(1 1) rotate(0) translate(4 641.7)">
<title>oneDegreeRelationshipsDiagramImplied</title>
<polygon fill="#ffffff" stroke="transparent" points="-4,4 -4,-641.7 962,-641.7 962,4 -4,4"/>
<text text-anchor="middle" x="72.4936" y="-7.3" font-family="Helvetica,sans-Serif" font-size="11.00" fill="#000000">Generated by SchemaSpy</text>
<!-- chats -->
<g id="node1" class="node">
<title>chats</title>
<g id="a_node1"><a xlink:href="../../tables/chats.html" xlink:title="chats" target="_top">
<polygon fill="#ffffff" stroke="transparent" points="464,-380.7 464,-485.7 544,-485.7 544,-380.7 464,-380.7"/>
<polygon fill="#f5f5f5" stroke="transparent" points="464,-462.2 464,-485.2 544,-485.2 544,-462.2 464,-462.2"/>
<polygon fill="none" stroke="#000000" points="464,-462.2 464,-485.2 544,-485.2 544,-462.2 464,-462.2"/>
<text text-anchor="start" x="469" y="-470.8" font-family="Helvetica,sans-Serif" font-weight="bold" font-size="11.00" fill="#000000">chats</text>
<text text-anchor="start" x="509.0437" y="-470.3" font-family="Helvetica,sans-Serif" font-size="11.00" fill="#000000">[table]</text>
<polygon fill="none" stroke="#000000" points="464,-440.2 464,-462.2 544,-462.2 544,-440.2 464,-440.2"/>
<image xlink:href="../../images/primaryKeys.png" width="11px" height="12px" preserveAspectRatio="xMinYMin meet" x="469" y="-457.2"/>
<text text-anchor="start" x="484" y="-447.3" font-family="Helvetica,sans-Serif" font-size="11.00" fill="#000000">id_chat</text>
<polygon fill="none" stroke="#000000" points="464,-418.2 464,-440.2 544,-440.2 544,-418.2 464,-418.2"/>
<image xlink:href="../../images/foreignKeys.png" width="11px" height="12px" preserveAspectRatio="xMinYMin meet" x="469" y="-435.2"/>
<text text-anchor="start" x="484" y="-425.3" font-family="Helvetica,sans-Serif" font-size="11.00" fill="#000000">patient_id</text>
<polygon fill="none" stroke="#000000" points="464,-399.2 464,-418.2 544,-418.2 544,-399.2 464,-399.2"/>
<text text-anchor="start" x="467" y="-405.3" font-family="Helvetica,sans-Serif" font-size="11.00" fill="#000000">...</text>
<polygon fill="#ffffff" stroke="transparent" points="464,-380.2 464,-399.2 485,-399.2 485,-380.2 464,-380.2"/>
<polygon fill="none" stroke="#000000" points="464,-380.2 464,-399.2 485,-399.2 485,-380.2 464,-380.2"/>
<text text-anchor="start" x="466.7027" y="-386.3" font-family="Helvetica,sans-Serif" font-size="11.00" fill="#000000">&lt; 1</text>
<polygon fill="#ffffff" stroke="transparent" points="485,-380.2 485,-399.2 523,-399.2 523,-380.2 485,-380.2"/>
<polygon fill="none" stroke="#000000" points="485,-380.2 485,-399.2 523,-399.2 523,-380.2 485,-380.2"/>
<text text-anchor="start" x="487.8053" y="-386.3" font-family="Helvetica,sans-Serif" font-size="11.00" fill="#000000">0 rows</text>
<polygon fill="#ffffff" stroke="transparent" points="523,-380.2 523,-399.2 544,-399.2 544,-380.2 523,-380.2"/>
<polygon fill="none" stroke="#000000" points="523,-380.2 523,-399.2 544,-399.2 544,-380.2 523,-380.2"/>
<text text-anchor="start" x="525.7026" y="-386.3" font-family="Helvetica,sans-Serif" font-size="11.00" fill="#000000">1 &gt;</text>
</a>
</g>
</g>
<!-- patients -->
<g id="node2" class="node">
<title>patients</title>
<g id="a_node2"><a xlink:href="../../tables/patients.html" xlink:title="patients" target="_top">
<polygon fill="#ffffff" stroke="transparent" points="178,-38.2 178,-392.2 398,-392.2 398,-38.2 178,-38.2"/>
<polygon fill="#f5f5f5" stroke="transparent" points="180,-367.2 180,-390.2 396,-390.2 396,-367.2 180,-367.2"/>
<polygon fill="none" stroke="#000000" points="180,-367.2 180,-390.2 396,-390.2 396,-367.2 180,-367.2"/>
<text text-anchor="start" x="185" y="-375.8" font-family="Helvetica,sans-Serif" font-weight="bold" font-size="11.00" fill="#000000">patients</text>
<text text-anchor="start" x="361.0437" y="-375.3" font-family="Helvetica,sans-Serif" font-size="11.00" fill="#000000">[table]</text>
<polygon fill="none" stroke="#000000" points="180,-345.2 180,-367.2 304,-367.2 304,-345.2 180,-345.2"/>
<image xlink:href="../../images/primaryKeys.png" width="11px" height="12px" preserveAspectRatio="xMinYMin meet" x="185" y="-362.2"/>
<text text-anchor="start" x="200" y="-352.3" font-family="Helvetica,sans-Serif" font-size="11.00" fill="#000000">id_patient</text>
<polygon fill="none" stroke="#000000" points="304,-345.2 304,-367.2 396,-367.2 396,-345.2 304,-345.2"/>
<text text-anchor="start" x="307" y="-352.9" font-family="Helvetica,sans-Serif" font-size="11.00" fill="#000000">serial[10]</text>
<polygon fill="#ffffff" stroke="transparent" points="180,-323.2 180,-345.2 304,-345.2 304,-323.2 180,-323.2"/>
<polygon fill="none" stroke="#000000" points="180,-323.2 180,-345.2 304,-345.2 304,-323.2 180,-323.2"/>
<text text-anchor="start" x="200" y="-330.3" font-family="Helvetica,sans-Serif" font-size="11.00" fill="#000000">service_id</text>
<polygon fill="none" stroke="#000000" points="304,-323.2 304,-345.2 396,-345.2 396,-323.2 304,-323.2"/>
<text text-anchor="start" x="307" y="-330.9" font-family="Helvetica,sans-Serif" font-size="11.00" fill="#000000">int4[10]</text>
<polygon fill="none" stroke="#000000" points="180,-301.2 180,-323.2 304,-323.2 304,-301.2 180,-301.2"/>
<text text-anchor="start" x="200" y="-308.3" font-family="Helvetica,sans-Serif" font-size="11.00" fill="#000000">cpf</text>
<polygon fill="none" stroke="#000000" points="304,-301.2 304,-323.2 396,-323.2 396,-301.2 304,-301.2"/>
<text text-anchor="start" x="307" y="-308.9" font-family="Helvetica,sans-Serif" font-size="11.00" fill="#000000">varchar[11]</text>
<polygon fill="none" stroke="#000000" points="180,-279.2 180,-301.2 304,-301.2 304,-279.2 180,-279.2"/>
<text text-anchor="start" x="200" y="-286.3" font-family="Helvetica,sans-Serif" font-size="11.00" fill="#000000">cdPhysicalPerson</text>
<polygon fill="none" stroke="#000000" points="304,-279.2 304,-301.2 396,-301.2 396,-279.2 304,-279.2"/>
<text text-anchor="start" x="307" y="-286.9" font-family="Helvetica,sans-Serif" font-size="11.00" fill="#000000">int4[10]</text>
<polygon fill="none" stroke="#000000" points="180,-257.2 180,-279.2 304,-279.2 304,-257.2 180,-257.2"/>
<image xlink:href="../../images/foreignKeys.png" width="11px" height="12px" preserveAspectRatio="xMinYMin meet" x="185" y="-274.2"/>
<text text-anchor="start" x="200" y="-264.3" font-family="Helvetica,sans-Serif" font-size="11.00" fill="#000000">name</text>
<polygon fill="none" stroke="#000000" points="304,-257.2 304,-279.2 396,-279.2 396,-257.2 304,-257.2"/>
<text text-anchor="start" x="307" y="-264.9" font-family="Helvetica,sans-Serif" font-size="11.00" fill="#000000">varchar[255]</text>
<polygon fill="none" stroke="#000000" points="180,-235.2 180,-257.2 304,-257.2 304,-235.2 180,-235.2"/>
<text text-anchor="start" x="200" y="-242.3" font-family="Helvetica,sans-Serif" font-size="11.00" fill="#000000">birth_date</text>
<polygon fill="none" stroke="#000000" points="304,-235.2 304,-257.2 396,-257.2 396,-235.2 304,-235.2"/>
<text text-anchor="start" x="306.6023" y="-242.9" font-family="Helvetica,sans-Serif" font-size="11.00" fill="#000000">timestamptz[35,6]</text>
<polygon fill="none" stroke="#000000" points="180,-213.2 180,-235.2 304,-235.2 304,-213.2 180,-213.2"/>
<text text-anchor="start" x="200" y="-220.3" font-family="Helvetica,sans-Serif" font-size="11.00" fill="#000000">entry_date</text>
<polygon fill="none" stroke="#000000" points="304,-213.2 304,-235.2 396,-235.2 396,-213.2 304,-213.2"/>
<text text-anchor="start" x="306.6023" y="-220.9" font-family="Helvetica,sans-Serif" font-size="11.00" fill="#000000">timestamptz[35,6]</text>
<polygon fill="none" stroke="#000000" points="180,-191.2 180,-213.2 304,-213.2 304,-191.2 180,-191.2"/>
<image xlink:href="../../images/foreignKeys.png" width="11px" height="12px" preserveAspectRatio="xMinYMin meet" x="185" y="-208.2"/>
<text text-anchor="start" x="200" y="-198.3" font-family="Helvetica,sans-Serif" font-size="11.00" fill="#000000">id_cid</text>
<polygon fill="none" stroke="#000000" points="304,-191.2 304,-213.2 396,-213.2 396,-191.2 304,-191.2"/>
<text text-anchor="start" x="307" y="-198.9" font-family="Helvetica,sans-Serif" font-size="11.00" fill="#000000">int4[10]</text>
<polygon fill="none" stroke="#000000" points="180,-169.2 180,-191.2 304,-191.2 304,-169.2 180,-169.2"/>
<text text-anchor="start" x="200" y="-176.3" font-family="Helvetica,sans-Serif" font-size="11.00" fill="#000000">department</text>
<polygon fill="none" stroke="#000000" points="304,-169.2 304,-191.2 396,-191.2 396,-169.2 304,-169.2"/>
<text text-anchor="start" x="307" y="-176.9" font-family="Helvetica,sans-Serif" font-size="11.00" fill="#000000">varchar[255]</text>
<polygon fill="none" stroke="#000000" points="180,-147.2 180,-169.2 304,-169.2 304,-147.2 180,-147.2"/>
<text text-anchor="start" x="200" y="-154.3" font-family="Helvetica,sans-Serif" font-size="11.00" fill="#000000">doctor</text>
<polygon fill="none" stroke="#000000" points="304,-147.2 304,-169.2 396,-169.2 396,-147.2 304,-147.2"/>
<text text-anchor="start" x="307" y="-154.9" font-family="Helvetica,sans-Serif" font-size="11.00" fill="#000000">varchar[255]</text>
<polygon fill="none" stroke="#000000" points="180,-125.2 180,-147.2 304,-147.2 304,-125.2 180,-125.2"/>
<text text-anchor="start" x="200" y="-132.3" font-family="Helvetica,sans-Serif" font-size="11.00" fill="#000000">gender</text>
<polygon fill="none" stroke="#000000" points="304,-125.2 304,-147.2 396,-147.2 396,-125.2 304,-125.2"/>
<text text-anchor="start" x="307" y="-132.9" font-family="Helvetica,sans-Serif" font-size="11.00" fill="#000000">bpchar[1]</text>
<polygon fill="none" stroke="#000000" points="180,-103.2 180,-125.2 304,-125.2 304,-103.2 180,-103.2"/>
<text text-anchor="start" x="200" y="-110.3" font-family="Helvetica,sans-Serif" font-size="11.00" fill="#000000">active</text>
<polygon fill="none" stroke="#000000" points="304,-103.2 304,-125.2 396,-125.2 396,-103.2 304,-103.2"/>
<text text-anchor="start" x="307" y="-110.9" font-family="Helvetica,sans-Serif" font-size="11.00" fill="#000000">bool[1]</text>
<polygon fill="none" stroke="#000000" points="180,-81.2 180,-103.2 304,-103.2 304,-81.2 180,-81.2"/>
<text text-anchor="start" x="200" y="-88.3" font-family="Helvetica,sans-Serif" font-size="11.00" fill="#000000">createdAt</text>
<polygon fill="none" stroke="#000000" points="304,-81.2 304,-103.2 396,-103.2 396,-81.2 304,-81.2"/>
<text text-anchor="start" x="306.6023" y="-88.9" font-family="Helvetica,sans-Serif" font-size="11.00" fill="#000000">timestamptz[35,6]</text>
<polygon fill="none" stroke="#000000" points="180,-59.2 180,-81.2 304,-81.2 304,-59.2 180,-59.2"/>
<text text-anchor="start" x="200" y="-66.3" font-family="Helvetica,sans-Serif" font-size="11.00" fill="#000000">updatedAt</text>
<polygon fill="none" stroke="#000000" points="304,-59.2 304,-81.2 396,-81.2 396,-59.2 304,-59.2"/>
<text text-anchor="start" x="306.6023" y="-66.9" font-family="Helvetica,sans-Serif" font-size="11.00" fill="#000000">timestamptz[35,6]</text>
<polygon fill="#ffffff" stroke="transparent" points="180,-40.2 180,-59.2 233,-59.2 233,-40.2 180,-40.2"/>
<polygon fill="none" stroke="#000000" points="180,-40.2 180,-59.2 233,-59.2 233,-40.2 180,-40.2"/>
<text text-anchor="start" x="183" y="-46.3" font-family="Helvetica,sans-Serif" font-size="11.00" fill="#000000">&lt; 2</text>
<polygon fill="#ffffff" stroke="transparent" points="233,-40.2 233,-59.2 304,-59.2 304,-40.2 233,-40.2"/>
<polygon fill="none" stroke="#000000" points="233,-40.2 233,-59.2 304,-59.2 304,-40.2 233,-40.2"/>
<text text-anchor="start" x="268.6105" y="-46.3" font-family="Helvetica,sans-Serif" font-size="11.00" fill="#000000">0 rows</text>
<polygon fill="#ffffff" stroke="transparent" points="304,-40.2 304,-59.2 396,-59.2 396,-40.2 304,-40.2"/>
<polygon fill="none" stroke="#000000" points="304,-40.2 304,-59.2 396,-59.2 396,-40.2 304,-40.2"/>
<text text-anchor="start" x="377.4053" y="-46.3" font-family="Helvetica,sans-Serif" font-size="11.00" fill="#000000">5 &gt;</text>
<polygon fill="none" stroke="#000000" stroke-width="2" points="179,-39.2 179,-391.2 397,-391.2 397,-39.2 179,-39.2"/>
</a>
</g>
</g>
<!-- chats&#45;&gt;patients -->
<g id="edge1" class="edge">
<title>chats:w&#45;&gt;patients:e</title>
<path fill="none" stroke="#000000" d="M449.8157,-425.8736C423.9112,-411.5927 434.6242,-356.2 396,-356.2"/>
<polygon fill="#000000" stroke="#000000" points="456.2113,-427.3734 463.178,-432.7049 460.1056,-428.2867 464,-429.2 464,-429.2 464,-429.2 460.1056,-428.2867 464.822,-425.6951 456.2113,-427.3734 456.2113,-427.3734"/>
<ellipse fill="none" stroke="#000000" cx="453.0958" cy="-426.6428" rx="3.2" ry="3.2"/>
</g>
<!-- cid -->
<g id="node6" class="node">
<title>cid</title>
<g id="a_node6"><a xlink:href="../../tables/cid.html" xlink:title="cid" target="_top">
<polygon fill="#ffffff" stroke="transparent" points="25.5,-99.7 25.5,-226.7 111.5,-226.7 111.5,-99.7 25.5,-99.7"/>
<polygon fill="#f5f5f5" stroke="transparent" points="25.5,-203.2 25.5,-226.2 111.5,-226.2 111.5,-203.2 25.5,-203.2"/>
<polygon fill="none" stroke="#000000" points="25.5,-203.2 25.5,-226.2 111.5,-226.2 111.5,-203.2 25.5,-203.2"/>
<text text-anchor="start" x="29.9721" y="-211.8" font-family="Helvetica,sans-Serif" font-weight="bold" font-size="11.00" fill="#000000">cid</text>
<text text-anchor="start" x="76.5437" y="-211.3" font-family="Helvetica,sans-Serif" font-size="11.00" fill="#000000">[table]</text>
<polygon fill="none" stroke="#000000" points="25.5,-181.2 25.5,-203.2 111.5,-203.2 111.5,-181.2 25.5,-181.2"/>
<image xlink:href="../../images/primaryKeys.png" width="11px" height="12px" preserveAspectRatio="xMinYMin meet" x="30.5" y="-198.2"/>
<text text-anchor="start" x="46.5" y="-188.3" font-family="Helvetica,sans-Serif" font-size="11.00" fill="#000000">id_cid</text>
<polygon fill="#ffffff" stroke="transparent" points="25.5,-159.2 25.5,-181.2 111.5,-181.2 111.5,-159.2 25.5,-159.2"/>
<polygon fill="none" stroke="#000000" points="25.5,-159.2 25.5,-181.2 111.5,-181.2 111.5,-159.2 25.5,-159.2"/>
<text text-anchor="start" x="46.5" y="-166.3" font-family="Helvetica,sans-Serif" font-size="11.00" fill="#000000">cid_code</text>
<polygon fill="none" stroke="#000000" points="25.5,-137.2 25.5,-159.2 111.5,-159.2 111.5,-137.2 25.5,-137.2"/>
<image xlink:href="../../images/foreignKeys.png" width="11px" height="12px" preserveAspectRatio="xMinYMin meet" x="30.5" y="-154.2"/>
<text text-anchor="start" x="46.5" y="-144.3" font-family="Helvetica,sans-Serif" font-size="11.00" fill="#000000">id_label</text>
<polygon fill="none" stroke="#000000" points="25.5,-118.2 25.5,-137.2 111.5,-137.2 111.5,-118.2 25.5,-118.2"/>
<text text-anchor="start" x="28.5" y="-124.3" font-family="Helvetica,sans-Serif" font-size="11.00" fill="#000000">...</text>
<polygon fill="#ffffff" stroke="transparent" points="25.5,-99.2 25.5,-118.2 46.5,-118.2 46.5,-99.2 25.5,-99.2"/>
<polygon fill="none" stroke="#000000" points="25.5,-99.2 25.5,-118.2 46.5,-118.2 46.5,-99.2 25.5,-99.2"/>
<text text-anchor="start" x="28.2027" y="-105.3" font-family="Helvetica,sans-Serif" font-size="11.00" fill="#000000">&lt; 1</text>
<polygon fill="#ffffff" stroke="transparent" points="46.5,-99.2 46.5,-118.2 90.5,-118.2 90.5,-99.2 46.5,-99.2"/>
<polygon fill="none" stroke="#000000" points="46.5,-99.2 46.5,-118.2 90.5,-118.2 90.5,-99.2 46.5,-99.2"/>
<text text-anchor="start" x="49.2478" y="-105.3" font-family="Helvetica,sans-Serif" font-size="11.00" fill="#000000">88 rows</text>
<polygon fill="#ffffff" stroke="transparent" points="90.5,-99.2 90.5,-118.2 111.5,-118.2 111.5,-99.2 90.5,-99.2"/>
<polygon fill="none" stroke="#000000" points="90.5,-99.2 90.5,-118.2 111.5,-118.2 111.5,-99.2 90.5,-99.2"/>
<text text-anchor="start" x="93.2027" y="-105.3" font-family="Helvetica,sans-Serif" font-size="11.00" fill="#000000">1 &gt;</text>
</a>
</g>
</g>
<!-- patients&#45;&gt;cid -->
<g id="edge7" class="edge">
<title>patients:w&#45;&gt;cid:e</title>
<path fill="none" stroke="#000000" d="M165.4439,-201.3474C145.9611,-198.9291 136.7387,-192.2 111.5,-192.2"/>
<polygon fill="#000000" stroke="#000000" points="172.0137,-201.7322 179.7895,-205.7938 176.0068,-201.9661 180,-202.2 180,-202.2 180,-202.2 176.0068,-201.9661 180.2105,-198.6062 172.0137,-201.7322 172.0137,-201.7322"/>
<ellipse fill="none" stroke="#000000" cx="168.8192" cy="-201.545" rx="3.2" ry="3.2"/>
</g>
<!-- SequelizeMeta -->
<g id="node7" class="node">
<title>SequelizeMeta</title>
<g id="a_node7"><a xlink:href="../../tables/SequelizeMeta.html" xlink:title="SequelizeMeta" target="_top">
<polygon fill="#ffffff" stroke="transparent" points="8,-248.2 8,-312.2 129,-312.2 129,-248.2 8,-248.2"/>
<polygon fill="#f5f5f5" stroke="transparent" points="8.5,-289.2 8.5,-312.2 129.5,-312.2 129.5,-289.2 8.5,-289.2"/>
<polygon fill="none" stroke="#000000" points="8.5,-289.2 8.5,-312.2 129.5,-312.2 129.5,-289.2 8.5,-289.2"/>
<text text-anchor="start" x="13.5" y="-297.8" font-family="Helvetica,sans-Serif" font-weight="bold" font-size="11.00" fill="#000000">SequelizeMeta</text>
<text text-anchor="start" x="95.0219" y="-297.3" font-family="Helvetica,sans-Serif" font-size="11.00" fill="#000000">[table]</text>
<polygon fill="none" stroke="#000000" points="8.5,-267.2 8.5,-289.2 129.5,-289.2 129.5,-267.2 8.5,-267.2"/>
<image xlink:href="../../images/primaryKeys.png" width="11px" height="12px" preserveAspectRatio="xMinYMin meet" x="13.5" y="-284.2"/>
<text text-anchor="start" x="37.5" y="-274.3" font-family="Helvetica,sans-Serif" font-size="11.00" fill="#000000">name</text>
<polygon fill="#ffffff" stroke="transparent" points="8.5,-248.2 8.5,-267.2 42.5,-267.2 42.5,-248.2 8.5,-248.2"/>
<polygon fill="none" stroke="#000000" points="8.5,-248.2 8.5,-267.2 42.5,-267.2 42.5,-248.2 8.5,-248.2"/>
<text text-anchor="start" x="11.5" y="-254.3" font-family="Helvetica,sans-Serif" font-size="11.00" fill="#000000"> &#160;</text>
<polygon fill="#ffffff" stroke="transparent" points="42.5,-248.2 42.5,-267.2 97.5,-267.2 97.5,-248.2 42.5,-248.2"/>
<polygon fill="none" stroke="#000000" points="42.5,-248.2 42.5,-267.2 97.5,-267.2 97.5,-248.2 42.5,-248.2"/>
<text text-anchor="start" x="55.9956" y="-254.3" font-family="Helvetica,sans-Serif" font-size="11.00" fill="#000000">17 rows</text>
<polygon fill="#ffffff" stroke="transparent" points="97.5,-248.2 97.5,-267.2 129.5,-267.2 129.5,-248.2 97.5,-248.2"/>
<polygon fill="none" stroke="#000000" points="97.5,-248.2 97.5,-267.2 129.5,-267.2 129.5,-248.2 97.5,-248.2"/>
<text text-anchor="start" x="110.9053" y="-254.3" font-family="Helvetica,sans-Serif" font-size="11.00" fill="#000000">1 &gt;</text>
</a>
</g>
</g>
<!-- patients&#45;&gt;SequelizeMeta -->
<g id="edge8" class="edge">
<title>patients:w&#45;&gt;SequelizeMeta:e</title>
<path fill="none" stroke="#000000" stroke-dasharray="5,2" d="M165.6743,-269.7625C153.6162,-272.575 146.6602,-278.2 129.5,-278.2"/>
<polygon fill="#000000" stroke="#000000" points="172.0472,-269.0675 180.3904,-271.7788 176.0236,-268.6337 180,-268.2 180,-268.2 180,-268.2 176.0236,-268.6337 179.6096,-264.6212 172.0472,-269.0675 172.0472,-269.0675"/>
<ellipse fill="none" stroke="#000000" cx="168.866" cy="-269.4144" rx="3.2" ry="3.2"/>
</g>
<!-- device -->
<g id="node3" class="node">
<title>device</title>
<g id="a_node3"><a xlink:href="../../tables/device.html" xlink:title="device" target="_top">
<polygon fill="#ffffff" stroke="transparent" points="447,-506.7 447,-633.7 561,-633.7 561,-506.7 447,-506.7"/>
<polygon fill="#f5f5f5" stroke="transparent" points="447,-610.2 447,-633.2 561,-633.2 561,-610.2 447,-610.2"/>
<polygon fill="none" stroke="#000000" points="447,-610.2 447,-633.2 561,-633.2 561,-610.2 447,-610.2"/>
<text text-anchor="start" x="452" y="-618.8" font-family="Helvetica,sans-Serif" font-weight="bold" font-size="11.00" fill="#000000">device</text>
<text text-anchor="start" x="526.0437" y="-618.3" font-family="Helvetica,sans-Serif" font-size="11.00" fill="#000000">[table]</text>
<polygon fill="none" stroke="#000000" points="447,-588.2 447,-610.2 561,-610.2 561,-588.2 447,-588.2"/>
<image xlink:href="../../images/primaryKeys.png" width="11px" height="12px" preserveAspectRatio="xMinYMin meet" x="452" y="-605.2"/>
<text text-anchor="start" x="467" y="-595.3" font-family="Helvetica,sans-Serif" font-size="11.00" fill="#000000">id_device_token</text>
<polygon fill="none" stroke="#000000" points="447,-566.2 447,-588.2 561,-588.2 561,-566.2 447,-566.2"/>
<image xlink:href="../../images/foreignKeys.png" width="11px" height="12px" preserveAspectRatio="xMinYMin meet" x="452" y="-583.2"/>
<text text-anchor="start" x="467" y="-573.3" font-family="Helvetica,sans-Serif" font-size="11.00" fill="#000000">patient_id</text>
<polygon fill="#ffffff" stroke="transparent" points="447,-544.2 447,-566.2 561,-566.2 561,-544.2 447,-544.2"/>
<polygon fill="none" stroke="#000000" points="447,-544.2 447,-566.2 561,-566.2 561,-544.2 447,-544.2"/>
<text text-anchor="start" x="467" y="-551.3" font-family="Helvetica,sans-Serif" font-size="11.00" fill="#000000">token</text>
<polygon fill="none" stroke="#000000" points="447,-525.2 447,-544.2 561,-544.2 561,-525.2 447,-525.2"/>
<text text-anchor="start" x="450" y="-531.3" font-family="Helvetica,sans-Serif" font-size="11.00" fill="#000000">...</text>
<polygon fill="#ffffff" stroke="transparent" points="447,-506.2 447,-525.2 489,-525.2 489,-506.2 447,-506.2"/>
<polygon fill="none" stroke="#000000" points="447,-506.2 447,-525.2 489,-525.2 489,-506.2 447,-506.2"/>
<text text-anchor="start" x="450" y="-512.3" font-family="Helvetica,sans-Serif" font-size="11.00" fill="#000000">&lt; 1</text>
<polygon fill="#ffffff" stroke="transparent" points="489,-506.2 489,-525.2 538,-525.2 538,-506.2 489,-506.2"/>
<polygon fill="none" stroke="#000000" points="489,-506.2 489,-525.2 538,-525.2 538,-506.2 489,-506.2"/>
<text text-anchor="start" x="502.6105" y="-512.3" font-family="Helvetica,sans-Serif" font-size="11.00" fill="#000000">0 rows</text>
<polygon fill="#ffffff" stroke="transparent" points="538,-506.2 538,-525.2 561,-525.2 561,-506.2 538,-506.2"/>
<polygon fill="none" stroke="#000000" points="538,-506.2 538,-525.2 561,-525.2 561,-506.2 538,-506.2"/>
<text text-anchor="start" x="551.8862" y="-512.3" font-family="Helvetica,sans-Serif" font-size="11.00" fill="#000000"> &#160;</text>
</a>
</g>
</g>
<!-- device&#45;&gt;patients -->
<g id="edge2" class="edge">
<title>device:w&#45;&gt;patients:e</title>
<path fill="none" stroke="#000000" d="M432.6354,-575.2894C361.9171,-553.6891 491.291,-356.2 396,-356.2"/>
<polygon fill="#000000" stroke="#000000" points="439.0698,-576.1452 446.5253,-580.7686 443.0349,-576.6726 447,-577.2 447,-577.2 447,-577.2 443.0349,-576.6726 447.4747,-573.6314 439.0698,-576.1452 439.0698,-576.1452"/>
<ellipse fill="none" stroke="#000000" cx="435.8978" cy="-575.7233" rx="3.2" ry="3.2"/>
</g>
<!-- message_notifications -->
<g id="node4" class="node">
<title>message_notifications</title>
<g id="a_node4"><a xlink:href="../../tables/message_notifications.html" xlink:title="message_notifications" target="_top">
<polygon fill="#ffffff" stroke="transparent" points="782,-338.7 782,-465.7 950,-465.7 950,-338.7 782,-338.7"/>
<polygon fill="#f5f5f5" stroke="transparent" points="782,-442.2 782,-465.2 950,-465.2 950,-442.2 782,-442.2"/>
<polygon fill="none" stroke="#000000" points="782,-442.2 782,-465.2 950,-465.2 950,-442.2 782,-442.2"/>
<text text-anchor="start" x="787" y="-450.8" font-family="Helvetica,sans-Serif" font-weight="bold" font-size="11.00" fill="#000000">message_notifications</text>
<text text-anchor="start" x="915.5219" y="-450.3" font-family="Helvetica,sans-Serif" font-size="11.00" fill="#000000">[table]</text>
<polygon fill="none" stroke="#000000" points="782,-420.2 782,-442.2 950,-442.2 950,-420.2 782,-420.2"/>
<image xlink:href="../../images/primaryKeys.png" width="11px" height="12px" preserveAspectRatio="xMinYMin meet" x="787" y="-437.2"/>
<text text-anchor="start" x="811" y="-427.3" font-family="Helvetica,sans-Serif" font-size="11.00" fill="#000000">id_notification</text>
<polygon fill="none" stroke="#000000" points="782,-398.2 782,-420.2 950,-420.2 950,-398.2 782,-398.2"/>
<image xlink:href="../../images/foreignKeys.png" width="11px" height="12px" preserveAspectRatio="xMinYMin meet" x="787" y="-415.2"/>
<text text-anchor="start" x="811" y="-405.3" font-family="Helvetica,sans-Serif" font-size="11.00" fill="#000000">message_id</text>
<polygon fill="none" stroke="#000000" points="782,-376.2 782,-398.2 950,-398.2 950,-376.2 782,-376.2"/>
<image xlink:href="../../images/foreignKeys.png" width="11px" height="12px" preserveAspectRatio="xMinYMin meet" x="787" y="-393.2"/>
<text text-anchor="start" x="811" y="-383.3" font-family="Helvetica,sans-Serif" font-size="11.00" fill="#000000">recipient_patient_id</text>
<polygon fill="none" stroke="#000000" points="782,-357.2 782,-376.2 950,-376.2 950,-357.2 782,-357.2"/>
<text text-anchor="start" x="785" y="-363.3" font-family="Helvetica,sans-Serif" font-size="11.00" fill="#000000">...</text>
<polygon fill="#ffffff" stroke="transparent" points="782,-338.2 782,-357.2 851,-357.2 851,-338.2 782,-338.2"/>
<polygon fill="none" stroke="#000000" points="782,-338.2 782,-357.2 851,-357.2 851,-338.2 782,-338.2"/>
<text text-anchor="start" x="785" y="-344.3" font-family="Helvetica,sans-Serif" font-size="11.00" fill="#000000">&lt; 2</text>
<polygon fill="#ffffff" stroke="transparent" points="851,-338.2 851,-357.2 913,-357.2 913,-338.2 851,-338.2"/>
<polygon fill="none" stroke="#000000" points="851,-338.2 851,-357.2 913,-357.2 913,-338.2 851,-338.2"/>
<text text-anchor="start" x="877.6105" y="-344.3" font-family="Helvetica,sans-Serif" font-size="11.00" fill="#000000">0 rows</text>
<polygon fill="#ffffff" stroke="transparent" points="913,-338.2 913,-357.2 950,-357.2 950,-338.2 913,-338.2"/>
<polygon fill="none" stroke="#000000" points="913,-338.2 913,-357.2 950,-357.2 950,-338.2 913,-338.2"/>
<text text-anchor="start" x="940.8862" y="-344.3" font-family="Helvetica,sans-Serif" font-size="11.00" fill="#000000"> &#160;</text>
</a>
</g>
</g>
<!-- message_notifications&#45;&gt;patients -->
<g id="edge4" class="edge">
<title>message_notifications:w&#45;&gt;patients:e</title>
<path fill="none" stroke="#000000" d="M768.3748,-382.4273C758.1616,-372.8188 759.7659,-351.3638 741,-343.2 731.2411,-338.9545 450.7641,-343.6458 439,-345.2 419.4434,-347.7838 415.7265,-356.2 396,-356.2"/>
<polygon fill="#000000" stroke="#000000" points="774.4498,-384.5553 780.8099,-390.5976 778.2249,-385.8776 782,-387.2 782,-387.2 782,-387.2 778.2249,-385.8776 783.1901,-383.8024 774.4498,-384.5553 774.4498,-384.5553"/>
<ellipse fill="none" stroke="#000000" cx="771.4297" cy="-383.4974" rx="3.2" ry="3.2"/>
</g>
<!-- messages -->
<g id="node5" class="node">
<title>messages</title>
<g id="a_node5"><a xlink:href="../../tables/messages.html" xlink:title="messages" target="_top">
<polygon fill="#ffffff" stroke="transparent" points="610,-353.7 610,-502.7 733,-502.7 733,-353.7 610,-353.7"/>
<polygon fill="#f5f5f5" stroke="transparent" points="610.5,-479.2 610.5,-502.2 733.5,-502.2 733.5,-479.2 610.5,-479.2"/>
<polygon fill="none" stroke="#000000" points="610.5,-479.2 610.5,-502.2 733.5,-502.2 733.5,-479.2 610.5,-479.2"/>
<text text-anchor="start" x="615.5" y="-487.8" font-family="Helvetica,sans-Serif" font-weight="bold" font-size="11.00" fill="#000000">messages</text>
<text text-anchor="start" x="698.5437" y="-487.3" font-family="Helvetica,sans-Serif" font-size="11.00" fill="#000000">[table]</text>
<polygon fill="none" stroke="#000000" points="610.5,-457.2 610.5,-479.2 733.5,-479.2 733.5,-457.2 610.5,-457.2"/>
<image xlink:href="../../images/primaryKeys.png" width="11px" height="12px" preserveAspectRatio="xMinYMin meet" x="615.5" y="-474.2"/>
<text text-anchor="start" x="630.5" y="-464.3" font-family="Helvetica,sans-Serif" font-size="11.00" fill="#000000">id_message</text>
<polygon fill="none" stroke="#000000" points="610.5,-435.2 610.5,-457.2 733.5,-457.2 733.5,-435.2 610.5,-435.2"/>
<image xlink:href="../../images/foreignKeys.png" width="11px" height="12px" preserveAspectRatio="xMinYMin meet" x="615.5" y="-452.2"/>
<text text-anchor="start" x="630.5" y="-442.3" font-family="Helvetica,sans-Serif" font-size="11.00" fill="#000000">chat_id</text>
<polygon fill="none" stroke="#000000" points="610.5,-413.2 610.5,-435.2 733.5,-435.2 733.5,-413.2 610.5,-413.2"/>
<image xlink:href="../../images/foreignKeys.png" width="11px" height="12px" preserveAspectRatio="xMinYMin meet" x="615.5" y="-430.2"/>
<text text-anchor="start" x="630.5" y="-420.3" font-family="Helvetica,sans-Serif" font-size="11.00" fill="#000000">sender_patient_id</text>
<polygon fill="none" stroke="#000000" points="610.5,-391.2 610.5,-413.2 733.5,-413.2 733.5,-391.2 610.5,-391.2"/>
<image xlink:href="../../images/foreignKeys.png" width="11px" height="12px" preserveAspectRatio="xMinYMin meet" x="615.5" y="-408.2"/>
<text text-anchor="start" x="630.5" y="-398.3" font-family="Helvetica,sans-Serif" font-size="11.00" fill="#000000">sender_staff_id</text>
<polygon fill="none" stroke="#000000" points="610.5,-372.2 610.5,-391.2 733.5,-391.2 733.5,-372.2 610.5,-372.2"/>
<text text-anchor="start" x="613.5" y="-378.3" font-family="Helvetica,sans-Serif" font-size="11.00" fill="#000000">...</text>
<polygon fill="#ffffff" stroke="transparent" points="610.5,-353.2 610.5,-372.2 652.5,-372.2 652.5,-353.2 610.5,-353.2"/>
<polygon fill="none" stroke="#000000" points="610.5,-353.2 610.5,-372.2 652.5,-372.2 652.5,-353.2 610.5,-353.2"/>
<text text-anchor="start" x="613.5" y="-359.3" font-family="Helvetica,sans-Serif" font-size="11.00" fill="#000000">&lt; 3</text>
<polygon fill="#ffffff" stroke="transparent" points="652.5,-353.2 652.5,-372.2 701.5,-372.2 701.5,-353.2 652.5,-353.2"/>
<polygon fill="none" stroke="#000000" points="652.5,-353.2 652.5,-372.2 701.5,-372.2 701.5,-353.2 652.5,-353.2"/>
<text text-anchor="start" x="666.1105" y="-359.3" font-family="Helvetica,sans-Serif" font-size="11.00" fill="#000000">0 rows</text>
<polygon fill="#ffffff" stroke="transparent" points="701.5,-353.2 701.5,-372.2 733.5,-372.2 733.5,-353.2 701.5,-353.2"/>
<polygon fill="none" stroke="#000000" points="701.5,-353.2 701.5,-372.2 733.5,-372.2 733.5,-353.2 701.5,-353.2"/>
<text text-anchor="start" x="714.9053" y="-359.3" font-family="Helvetica,sans-Serif" font-size="11.00" fill="#000000">1 &gt;</text>
</a>
</g>
</g>
<!-- message_notifications&#45;&gt;messages -->
<g id="edge3" class="edge">
<title>message_notifications:w&#45;&gt;messages:e</title>
<path fill="none" stroke="#000000" d="M768.2489,-414.2303C753.3013,-428.4982 761.3453,-468.2 733.5,-468.2"/>
<polygon fill="#000000" stroke="#000000" points="774.4869,-411.9484 783.2368,-412.5809 778.2435,-410.5742 782,-409.2 782,-409.2 782,-409.2 778.2435,-410.5742 780.7632,-405.8191 774.4869,-411.9484 774.4869,-411.9484"/>
<ellipse fill="none" stroke="#000000" cx="771.4817" cy="-413.0478" rx="3.2" ry="3.2"/>
</g>
<!-- messages&#45;&gt;chats -->
<g id="edge5" class="edge">
<title>messages:w&#45;&gt;chats:e</title>
<path fill="none" stroke="#000000" d="M595.8968,-446.6614C577.3647,-447.8992 568.0817,-451.2 544,-451.2"/>
<polygon fill="#000000" stroke="#000000" points="602.504,-446.4527 610.6137,-449.7982 606.502,-446.3264 610.5,-446.2 610.5,-446.2 610.5,-446.2 606.502,-446.3264 610.3863,-442.6018 602.504,-446.4527 602.504,-446.4527"/>
<ellipse fill="none" stroke="#000000" cx="599.3056" cy="-446.5538" rx="3.2" ry="3.2"/>
</g>
<!-- messages&#45;&gt;patients -->
<g id="edge6" class="edge">
<title>messages:w&#45;&gt;patients:e</title>
<path fill="none" stroke="#000000" d="M596.6142,-419.5288C584.8443,-408.6358 589.9813,-381.6117 569,-370.2 501.2347,-333.3424 473.1402,-356.2 396,-356.2"/>
<polygon fill="#000000" stroke="#000000" points="602.9175,-421.6492 609.3521,-427.6121 606.7088,-422.9246 610.5,-424.2 610.5,-424.2 610.5,-424.2 606.7088,-422.9246 611.6479,-420.7879 602.9175,-421.6492 602.9175,-421.6492"/>
<ellipse fill="none" stroke="#000000" cx="599.8846" cy="-420.6289" rx="3.2" ry="3.2"/>
</g>
<!-- responses -->
<g id="node8" class="node">
<title>responses</title>
<g id="a_node8"><a xlink:href="../../tables/responses.html" xlink:title="responses" target="_top">
<polygon fill="#ffffff" stroke="transparent" points="454.5,-155.7 454.5,-304.7 553.5,-304.7 553.5,-155.7 454.5,-155.7"/>
<polygon fill="#f5f5f5" stroke="transparent" points="455,-281.2 455,-304.2 554,-304.2 554,-281.2 455,-281.2"/>
<polygon fill="none" stroke="#000000" points="455,-281.2 455,-304.2 554,-304.2 554,-281.2 455,-281.2"/>
<text text-anchor="start" x="460" y="-289.8" font-family="Helvetica,sans-Serif" font-weight="bold" font-size="11.00" fill="#000000">responses</text>
<text text-anchor="start" x="519.5219" y="-289.3" font-family="Helvetica,sans-Serif" font-size="11.00" fill="#000000">[table]</text>
<polygon fill="none" stroke="#000000" points="455,-259.2 455,-281.2 554,-281.2 554,-259.2 455,-259.2"/>
<image xlink:href="../../images/primaryKeys.png" width="11px" height="12px" preserveAspectRatio="xMinYMin meet" x="460" y="-276.2"/>
<text text-anchor="start" x="476" y="-266.3" font-family="Helvetica,sans-Serif" font-size="11.00" fill="#000000">id_responses</text>
<polygon fill="none" stroke="#000000" points="455,-237.2 455,-259.2 554,-259.2 554,-237.2 455,-237.2"/>
<image xlink:href="../../images/foreignKeys.png" width="11px" height="12px" preserveAspectRatio="xMinYMin meet" x="460" y="-254.2"/>
<text text-anchor="start" x="476" y="-244.3" font-family="Helvetica,sans-Serif" font-size="11.00" fill="#000000">formId</text>
<polygon fill="none" stroke="#000000" points="455,-215.2 455,-237.2 554,-237.2 554,-215.2 455,-215.2"/>
<image xlink:href="../../images/foreignKeys.png" width="11px" height="12px" preserveAspectRatio="xMinYMin meet" x="460" y="-232.2"/>
<text text-anchor="start" x="476" y="-222.3" font-family="Helvetica,sans-Serif" font-size="11.00" fill="#000000">submittedBy</text>
<polygon fill="none" stroke="#000000" points="455,-193.2 455,-215.2 554,-215.2 554,-193.2 455,-193.2"/>
<image xlink:href="../../images/foreignKeys.png" width="11px" height="12px" preserveAspectRatio="xMinYMin meet" x="460" y="-210.2"/>
<text text-anchor="start" x="476" y="-200.3" font-family="Helvetica,sans-Serif" font-size="11.00" fill="#000000">assignedBy</text>
<polygon fill="none" stroke="#000000" points="455,-174.2 455,-193.2 554,-193.2 554,-174.2 455,-174.2"/>
<text text-anchor="start" x="458" y="-180.3" font-family="Helvetica,sans-Serif" font-size="11.00" fill="#000000">...</text>
<polygon fill="#ffffff" stroke="transparent" points="455,-155.2 455,-174.2 485,-174.2 485,-155.2 455,-155.2"/>
<polygon fill="none" stroke="#000000" points="455,-155.2 455,-174.2 485,-174.2 485,-155.2 455,-155.2"/>
<text text-anchor="start" x="458" y="-161.3" font-family="Helvetica,sans-Serif" font-size="11.00" fill="#000000">&lt; 3</text>
<polygon fill="#ffffff" stroke="transparent" points="485,-155.2 485,-174.2 528,-174.2 528,-155.2 485,-155.2"/>
<polygon fill="none" stroke="#000000" points="485,-155.2 485,-174.2 528,-174.2 528,-155.2 485,-155.2"/>
<text text-anchor="start" x="492.6105" y="-161.3" font-family="Helvetica,sans-Serif" font-size="11.00" fill="#000000">0 rows</text>
<polygon fill="#ffffff" stroke="transparent" points="528,-155.2 528,-174.2 554,-174.2 554,-155.2 528,-155.2"/>
<polygon fill="none" stroke="#000000" points="528,-155.2 528,-174.2 554,-174.2 554,-155.2 528,-155.2"/>
<text text-anchor="start" x="535.4053" y="-161.3" font-family="Helvetica,sans-Serif" font-size="11.00" fill="#000000">1 &gt;</text>
</a>
</g>
</g>
<!-- responses&#45;&gt;patients -->
<g id="edge9" class="edge">
<title>responses:w&#45;&gt;patients:e</title>
<path fill="none" stroke="#000000" d="M440.8885,-229.1595C402.6907,-248.51 453.7492,-356.2 396,-356.2"/>
<polygon fill="#000000" stroke="#000000" points="447.1703,-227.8421 455.7389,-229.7234 451.0852,-227.021 455,-226.2 455,-226.2 455,-226.2 451.0852,-227.021 454.2611,-222.6766 447.1703,-227.8421 447.1703,-227.8421"/>
<ellipse fill="none" stroke="#000000" cx="444.0385" cy="-228.4989" rx="3.2" ry="3.2"/>
</g>
</g>
</svg>
