<?xml version="1.0" encoding="UTF-8" standalone="no"?>
<!DOCTYPE svg PUBLIC "-//W3C//DTD SVG 1.1//EN"
 "http://www.w3.org/Graphics/SVG/1.1/DTD/svg11.dtd">
<!-- Generated by graphviz version 2.40.1 (20161225.0304)
 -->
<!-- Title: twoDegreesRelationshipsDiagram Pages: 1 -->
<svg width="500pt" height="227pt"
 viewBox="0.00 0.00 500.00 226.70" xmlns="http://www.w3.org/2000/svg" xmlns:xlink="http://www.w3.org/1999/xlink">
<g id="graph0" class="graph" transform="scale(1 1) rotate(0) translate(4 222.7)">
<title>twoDegreesRelationshipsDiagram</title>
<polygon fill="#ffffff" stroke="transparent" points="-4,4 -4,-222.7 496,-222.7 496,4 -4,4"/>
<text text-anchor="middle" x="72.4936" y="-7.3" font-family="Helvetica,sans-Serif" font-size="11.00" fill="#000000">Generated by SchemaSpy</text>
<!-- cid -->
<g id="node1" class="node">
<title>cid</title>
<g id="a_node1"><a xlink:href="../../tables/cid.html" xlink:title="cid" target="_top">
<polygon fill="#ffffff" stroke="transparent" points="264,-87.7 264,-214.7 350,-214.7 350,-87.7 264,-87.7"/>
<polygon fill="#f5f5f5" stroke="transparent" points="264,-191.2 264,-214.2 350,-214.2 350,-191.2 264,-191.2"/>
<polygon fill="none" stroke="#000000" points="264,-191.2 264,-214.2 350,-214.2 350,-191.2 264,-191.2"/>
<text text-anchor="start" x="268.4721" y="-199.8" font-family="Helvetica,sans-Serif" font-weight="bold" font-size="11.00" fill="#000000">cid</text>
<text text-anchor="start" x="315.0437" y="-199.3" font-family="Helvetica,sans-Serif" font-size="11.00" fill="#000000">[table]</text>
<polygon fill="none" stroke="#000000" points="264,-169.2 264,-191.2 350,-191.2 350,-169.2 264,-169.2"/>
<image xlink:href="../../images/primaryKeys.png" width="11px" height="12px" preserveAspectRatio="xMinYMin meet" x="269" y="-186.2"/>
<text text-anchor="start" x="285" y="-176.3" font-family="Helvetica,sans-Serif" font-size="11.00" fill="#000000">id_cid</text>
<polygon fill="#ffffff" stroke="transparent" points="264,-147.2 264,-169.2 350,-169.2 350,-147.2 264,-147.2"/>
<polygon fill="none" stroke="#000000" points="264,-147.2 264,-169.2 350,-169.2 350,-147.2 264,-147.2"/>
<text text-anchor="start" x="285" y="-154.3" font-family="Helvetica,sans-Serif" font-size="11.00" fill="#000000">cid_code</text>
<polygon fill="none" stroke="#000000" points="264,-125.2 264,-147.2 350,-147.2 350,-125.2 264,-125.2"/>
<image xlink:href="../../images/foreignKeys.png" width="11px" height="12px" preserveAspectRatio="xMinYMin meet" x="269" y="-142.2"/>
<text text-anchor="start" x="285" y="-132.3" font-family="Helvetica,sans-Serif" font-size="11.00" fill="#000000">id_label</text>
<polygon fill="none" stroke="#000000" points="264,-106.2 264,-125.2 350,-125.2 350,-106.2 264,-106.2"/>
<text text-anchor="start" x="267" y="-112.3" font-family="Helvetica,sans-Serif" font-size="11.00" fill="#000000">...</text>
<polygon fill="#ffffff" stroke="transparent" points="264,-87.2 264,-106.2 285,-106.2 285,-87.2 264,-87.2"/>
<polygon fill="none" stroke="#000000" points="264,-87.2 264,-106.2 285,-106.2 285,-87.2 264,-87.2"/>
<text text-anchor="start" x="266.7027" y="-93.3" font-family="Helvetica,sans-Serif" font-size="11.00" fill="#000000">&lt; 1</text>
<polygon fill="#ffffff" stroke="transparent" points="285,-87.2 285,-106.2 329,-106.2 329,-87.2 285,-87.2"/>
<polygon fill="none" stroke="#000000" points="285,-87.2 285,-106.2 329,-106.2 329,-87.2 285,-87.2"/>
<text text-anchor="start" x="287.7478" y="-93.3" font-family="Helvetica,sans-Serif" font-size="11.00" fill="#000000">88 rows</text>
<polygon fill="#ffffff" stroke="transparent" points="329,-87.2 329,-106.2 350,-106.2 350,-87.2 329,-87.2"/>
<polygon fill="none" stroke="#000000" points="329,-87.2 329,-106.2 350,-106.2 350,-87.2 329,-87.2"/>
<text text-anchor="start" x="331.7027" y="-93.3" font-family="Helvetica,sans-Serif" font-size="11.00" fill="#000000">1 &gt;</text>
</a>
</g>
</g>
<!-- patient_labels -->
<g id="node2" class="node">
<title>patient_labels</title>
<g id="a_node2"><a xlink:href="../../tables/patient_labels.html" xlink:title="patient_labels" target="_top">
<polygon fill="#ffffff" stroke="transparent" points="8,-38.2 8,-172.2 215,-172.2 215,-38.2 8,-38.2"/>
<polygon fill="#f5f5f5" stroke="transparent" points="10.5,-147.2 10.5,-170.2 213.5,-170.2 213.5,-147.2 10.5,-147.2"/>
<polygon fill="none" stroke="#000000" points="10.5,-147.2 10.5,-170.2 213.5,-170.2 213.5,-147.2 10.5,-147.2"/>
<text text-anchor="start" x="15.5" y="-155.8" font-family="Helvetica,sans-Serif" font-weight="bold" font-size="11.00" fill="#000000">patient_labels</text>
<text text-anchor="start" x="178.5437" y="-155.3" font-family="Helvetica,sans-Serif" font-size="11.00" fill="#000000">[table]</text>
<polygon fill="none" stroke="#000000" points="10.5,-125.2 10.5,-147.2 121.5,-147.2 121.5,-125.2 10.5,-125.2"/>
<image xlink:href="../../images/primaryKeys.png" width="11px" height="12px" preserveAspectRatio="xMinYMin meet" x="15.5" y="-142.2"/>
<text text-anchor="start" x="30.5" y="-132.3" font-family="Helvetica,sans-Serif" font-size="11.00" fill="#000000">id_patient_label</text>
<polygon fill="none" stroke="#000000" points="121.5,-125.2 121.5,-147.2 213.5,-147.2 213.5,-125.2 121.5,-125.2"/>
<text text-anchor="start" x="124.5" y="-132.9" font-family="Helvetica,sans-Serif" font-size="11.00" fill="#000000">serial[10]</text>
<polygon fill="none" stroke="#000000" points="10.5,-103.2 10.5,-125.2 121.5,-125.2 121.5,-103.2 10.5,-103.2"/>
<text text-anchor="start" x="30.5" y="-110.3" font-family="Helvetica,sans-Serif" font-size="11.00" fill="#000000">label</text>
<polygon fill="none" stroke="#000000" points="121.5,-103.2 121.5,-125.2 213.5,-125.2 213.5,-103.2 121.5,-103.2"/>
<text text-anchor="start" x="124.5" y="-110.9" font-family="Helvetica,sans-Serif" font-size="11.00" fill="#000000">varchar[255]</text>
<polygon fill="none" stroke="#000000" points="10.5,-81.2 10.5,-103.2 121.5,-103.2 121.5,-81.2 10.5,-81.2"/>
<text text-anchor="start" x="30.5" y="-88.3" font-family="Helvetica,sans-Serif" font-size="11.00" fill="#000000">createdAt</text>
<polygon fill="none" stroke="#000000" points="121.5,-81.2 121.5,-103.2 213.5,-103.2 213.5,-81.2 121.5,-81.2"/>
<text text-anchor="start" x="124.1023" y="-88.9" font-family="Helvetica,sans-Serif" font-size="11.00" fill="#000000">timestamptz[35,6]</text>
<polygon fill="none" stroke="#000000" points="10.5,-59.2 10.5,-81.2 121.5,-81.2 121.5,-59.2 10.5,-59.2"/>
<text text-anchor="start" x="30.5" y="-66.3" font-family="Helvetica,sans-Serif" font-size="11.00" fill="#000000">updatedAt</text>
<polygon fill="none" stroke="#000000" points="121.5,-59.2 121.5,-81.2 213.5,-81.2 213.5,-59.2 121.5,-59.2"/>
<text text-anchor="start" x="124.1023" y="-66.9" font-family="Helvetica,sans-Serif" font-size="11.00" fill="#000000">timestamptz[35,6]</text>
<polygon fill="#ffffff" stroke="transparent" points="10.5,-40.2 10.5,-59.2 57.5,-59.2 57.5,-40.2 10.5,-40.2"/>
<polygon fill="none" stroke="#000000" points="10.5,-40.2 10.5,-59.2 57.5,-59.2 57.5,-40.2 10.5,-40.2"/>
<text text-anchor="start" x="13.5" y="-46.3" font-family="Helvetica,sans-Serif" font-size="11.00" fill="#000000">&lt; 0</text>
<polygon fill="#ffffff" stroke="transparent" points="57.5,-40.2 57.5,-59.2 121.5,-59.2 121.5,-40.2 57.5,-40.2"/>
<polygon fill="none" stroke="#000000" points="57.5,-40.2 57.5,-59.2 121.5,-59.2 121.5,-40.2 57.5,-40.2"/>
<text text-anchor="start" x="86.1105" y="-46.3" font-family="Helvetica,sans-Serif" font-size="11.00" fill="#000000">0 rows</text>
<polygon fill="#ffffff" stroke="transparent" points="121.5,-40.2 121.5,-59.2 213.5,-59.2 213.5,-40.2 121.5,-40.2"/>
<polygon fill="none" stroke="#000000" points="121.5,-40.2 121.5,-59.2 213.5,-59.2 213.5,-40.2 121.5,-40.2"/>
<text text-anchor="start" x="194.9053" y="-46.3" font-family="Helvetica,sans-Serif" font-size="11.00" fill="#000000">1 &gt;</text>
<polygon fill="none" stroke="#000000" stroke-width="2" points="9,-39.2 9,-171.2 214,-171.2 214,-39.2 9,-39.2"/>
</a>
</g>
</g>
<!-- cid&#45;&gt;patient_labels -->
<g id="edge1" class="edge">
<title>cid:w&#45;&gt;patient_labels:e</title>
<path fill="none" stroke="#000000" d="M249.4203,-136.2C237.5435,-136.2 230.158,-136.2 213.5,-136.2"/>
<polygon fill="#000000" stroke="#000000" points="256,-136.2001 264,-139.8 260,-136.2 264,-136.2 264,-136.2 264,-136.2 260,-136.2 264,-132.6 256,-136.2001 256,-136.2001"/>
<ellipse fill="none" stroke="#000000" cx="252.8" cy="-136.2001" rx="3.2" ry="3.2"/>
</g>
<!-- patients -->
<g id="node3" class="node">
<title>patients</title>
<g id="a_node3"><a xlink:href="../../tables/patients.html" xlink:title="patients" target="_top">
<polygon fill="#ffffff" stroke="transparent" points="399,-152.7 399,-213.7 484,-213.7 484,-152.7 399,-152.7"/>
<polygon fill="#f5f5f5" stroke="transparent" points="399.5,-190.2 399.5,-213.2 484.5,-213.2 484.5,-190.2 399.5,-190.2"/>
<polygon fill="none" stroke="#000000" points="399.5,-190.2 399.5,-213.2 484.5,-213.2 484.5,-190.2 399.5,-190.2"/>
<text text-anchor="start" x="404.5" y="-198.8" font-family="Helvetica,sans-Serif" font-weight="bold" font-size="11.00" fill="#000000">patients</text>
<text text-anchor="start" x="450.0219" y="-198.3" font-family="Helvetica,sans-Serif" font-size="11.00" fill="#000000">[table]</text>
<polygon fill="none" stroke="#000000" points="399.5,-171.2 399.5,-190.2 484.5,-190.2 484.5,-171.2 399.5,-171.2"/>
<text text-anchor="start" x="402.5" y="-177.3" font-family="Helvetica,sans-Serif" font-size="11.00" fill="#000000">...</text>
<polygon fill="#ffffff" stroke="transparent" points="399.5,-152.2 399.5,-171.2 422.5,-171.2 422.5,-152.2 399.5,-152.2"/>
<polygon fill="none" stroke="#000000" points="399.5,-152.2 399.5,-171.2 422.5,-171.2 422.5,-152.2 399.5,-152.2"/>
<text text-anchor="start" x="402.5" y="-158.3" font-family="Helvetica,sans-Serif" font-size="11.00" fill="#000000">&lt; 1</text>
<polygon fill="#ffffff" stroke="transparent" points="422.5,-152.2 422.5,-171.2 461.5,-171.2 461.5,-152.2 422.5,-152.2"/>
<polygon fill="none" stroke="#000000" points="422.5,-152.2 422.5,-171.2 461.5,-171.2 461.5,-152.2 422.5,-152.2"/>
<text text-anchor="start" x="426.1105" y="-158.3" font-family="Helvetica,sans-Serif" font-size="11.00" fill="#000000">0 rows</text>
<polygon fill="#ffffff" stroke="transparent" points="461.5,-152.2 461.5,-171.2 484.5,-171.2 484.5,-152.2 461.5,-152.2"/>
<polygon fill="none" stroke="#000000" points="461.5,-152.2 461.5,-171.2 484.5,-171.2 484.5,-152.2 461.5,-152.2"/>
<text text-anchor="start" x="465.9053" y="-158.3" font-family="Helvetica,sans-Serif" font-size="11.00" fill="#000000">5 &gt;</text>
</a>
</g>
</g>
<!-- patients&#45;&gt;cid -->
<g id="edge2" class="edge">
<title>patients:w&#45;&gt;cid:e</title>
<path fill="none" stroke="#000000" d="M384.8428,-180.2C373.4139,-180.2 366.1563,-180.2 350,-180.2"/>
<polygon fill="#000000" stroke="#000000" points="391.5,-180.2001 399.5,-183.8 395.5,-180.2 399.5,-180.2 399.5,-180.2 399.5,-180.2 395.5,-180.2 399.5,-176.6 391.5,-180.2001 391.5,-180.2001"/>
<ellipse fill="none" stroke="#000000" cx="388.3" cy="-180.2001" rx="3.2" ry="3.2"/>
</g>
</g>
</svg>
