<?xml version="1.0" encoding="UTF-8" standalone="no"?>
<!DOCTYPE svg PUBLIC "-//W3C//DTD SVG 1.1//EN"
 "http://www.w3.org/Graphics/SVG/1.1/DTD/svg11.dtd">
<!-- Generated by graphviz version 2.40.1 (20161225.0304)
 -->
<!-- Title: twoDegreesRelationshipsDiagramImplied Pages: 1 -->
<svg width="1110pt" height="646pt"
 viewBox="0.00 0.00 1110.00 645.70" xmlns="http://www.w3.org/2000/svg" xmlns:xlink="http://www.w3.org/1999/xlink">
<g id="graph0" class="graph" transform="scale(1 1) rotate(0) translate(4 641.7)">
<title>twoDegreesRelationshipsDiagramImplied</title>
<polygon fill="#ffffff" stroke="transparent" points="-4,4 -4,-641.7 1106,-641.7 1106,4 -4,4"/>
<text text-anchor="middle" x="72.4936" y="-7.3" font-family="Helvetica,sans-Serif" font-size="11.00" fill="#000000">Generated by SchemaSpy</text>
<!-- chats -->
<g id="node1" class="node">
<title>chats</title>
<g id="a_node1"><a xlink:href="../../tables/chats.html" xlink:title="chats" target="_top">
<polygon fill="#ffffff" stroke="transparent" points="632,-462.7 632,-523.7 712,-523.7 712,-462.7 632,-462.7"/>
<polygon fill="#f5f5f5" stroke="transparent" points="632,-500.2 632,-523.2 712,-523.2 712,-500.2 632,-500.2"/>
<polygon fill="none" stroke="#000000" points="632,-500.2 632,-523.2 712,-523.2 712,-500.2 632,-500.2"/>
<text text-anchor="start" x="637" y="-508.8" font-family="Helvetica,sans-Serif" font-weight="bold" font-size="11.00" fill="#000000">chats</text>
<text text-anchor="start" x="677.0437" y="-508.3" font-family="Helvetica,sans-Serif" font-size="11.00" fill="#000000">[table]</text>
<polygon fill="none" stroke="#000000" points="632,-481.2 632,-500.2 712,-500.2 712,-481.2 632,-481.2"/>
<text text-anchor="start" x="635" y="-487.3" font-family="Helvetica,sans-Serif" font-size="11.00" fill="#000000">...</text>
<polygon fill="#ffffff" stroke="transparent" points="632,-462.2 632,-481.2 653,-481.2 653,-462.2 632,-462.2"/>
<polygon fill="none" stroke="#000000" points="632,-462.2 632,-481.2 653,-481.2 653,-462.2 632,-462.2"/>
<text text-anchor="start" x="634.7026" y="-468.3" font-family="Helvetica,sans-Serif" font-size="11.00" fill="#000000">&lt; 1</text>
<polygon fill="#ffffff" stroke="transparent" points="653,-462.2 653,-481.2 691,-481.2 691,-462.2 653,-462.2"/>
<polygon fill="none" stroke="#000000" points="653,-462.2 653,-481.2 691,-481.2 691,-462.2 653,-462.2"/>
<text text-anchor="start" x="655.8053" y="-468.3" font-family="Helvetica,sans-Serif" font-size="11.00" fill="#000000">0 rows</text>
<polygon fill="#ffffff" stroke="transparent" points="691,-462.2 691,-481.2 712,-481.2 712,-462.2 691,-462.2"/>
<polygon fill="none" stroke="#000000" points="691,-462.2 691,-481.2 712,-481.2 712,-462.2 691,-462.2"/>
<text text-anchor="start" x="693.7026" y="-468.3" font-family="Helvetica,sans-Serif" font-size="11.00" fill="#000000">1 &gt;</text>
</a>
</g>
</g>
<!-- patients -->
<g id="node2" class="node">
<title>patients</title>
<g id="a_node2"><a xlink:href="../../tables/patients.html" xlink:title="patients" target="_top">
<polygon fill="#ffffff" stroke="transparent" points="346,-38.2 346,-392.2 566,-392.2 566,-38.2 346,-38.2"/>
<polygon fill="#f5f5f5" stroke="transparent" points="348,-367.2 348,-390.2 564,-390.2 564,-367.2 348,-367.2"/>
<polygon fill="none" stroke="#000000" points="348,-367.2 348,-390.2 564,-390.2 564,-367.2 348,-367.2"/>
<text text-anchor="start" x="353" y="-375.8" font-family="Helvetica,sans-Serif" font-weight="bold" font-size="11.00" fill="#000000">patients</text>
<text text-anchor="start" x="529.0437" y="-375.3" font-family="Helvetica,sans-Serif" font-size="11.00" fill="#000000">[table]</text>
<polygon fill="none" stroke="#000000" points="348,-345.2 348,-367.2 472,-367.2 472,-345.2 348,-345.2"/>
<image xlink:href="../../images/primaryKeys.png" width="11px" height="12px" preserveAspectRatio="xMinYMin meet" x="353" y="-362.2"/>
<text text-anchor="start" x="368" y="-352.3" font-family="Helvetica,sans-Serif" font-size="11.00" fill="#000000">id_patient</text>
<polygon fill="none" stroke="#000000" points="472,-345.2 472,-367.2 564,-367.2 564,-345.2 472,-345.2"/>
<text text-anchor="start" x="475" y="-352.9" font-family="Helvetica,sans-Serif" font-size="11.00" fill="#000000">serial[10]</text>
<polygon fill="#ffffff" stroke="transparent" points="348,-323.2 348,-345.2 472,-345.2 472,-323.2 348,-323.2"/>
<polygon fill="none" stroke="#000000" points="348,-323.2 348,-345.2 472,-345.2 472,-323.2 348,-323.2"/>
<text text-anchor="start" x="368" y="-330.3" font-family="Helvetica,sans-Serif" font-size="11.00" fill="#000000">service_id</text>
<polygon fill="none" stroke="#000000" points="472,-323.2 472,-345.2 564,-345.2 564,-323.2 472,-323.2"/>
<text text-anchor="start" x="475" y="-330.9" font-family="Helvetica,sans-Serif" font-size="11.00" fill="#000000">int4[10]</text>
<polygon fill="none" stroke="#000000" points="348,-301.2 348,-323.2 472,-323.2 472,-301.2 348,-301.2"/>
<text text-anchor="start" x="368" y="-308.3" font-family="Helvetica,sans-Serif" font-size="11.00" fill="#000000">cpf</text>
<polygon fill="none" stroke="#000000" points="472,-301.2 472,-323.2 564,-323.2 564,-301.2 472,-301.2"/>
<text text-anchor="start" x="475" y="-308.9" font-family="Helvetica,sans-Serif" font-size="11.00" fill="#000000">varchar[11]</text>
<polygon fill="none" stroke="#000000" points="348,-279.2 348,-301.2 472,-301.2 472,-279.2 348,-279.2"/>
<text text-anchor="start" x="368" y="-286.3" font-family="Helvetica,sans-Serif" font-size="11.00" fill="#000000">cdPhysicalPerson</text>
<polygon fill="none" stroke="#000000" points="472,-279.2 472,-301.2 564,-301.2 564,-279.2 472,-279.2"/>
<text text-anchor="start" x="475" y="-286.9" font-family="Helvetica,sans-Serif" font-size="11.00" fill="#000000">int4[10]</text>
<polygon fill="none" stroke="#000000" points="348,-257.2 348,-279.2 472,-279.2 472,-257.2 348,-257.2"/>
<image xlink:href="../../images/foreignKeys.png" width="11px" height="12px" preserveAspectRatio="xMinYMin meet" x="353" y="-274.2"/>
<text text-anchor="start" x="368" y="-264.3" font-family="Helvetica,sans-Serif" font-size="11.00" fill="#000000">name</text>
<polygon fill="none" stroke="#000000" points="472,-257.2 472,-279.2 564,-279.2 564,-257.2 472,-257.2"/>
<text text-anchor="start" x="475" y="-264.9" font-family="Helvetica,sans-Serif" font-size="11.00" fill="#000000">varchar[255]</text>
<polygon fill="none" stroke="#000000" points="348,-235.2 348,-257.2 472,-257.2 472,-235.2 348,-235.2"/>
<text text-anchor="start" x="368" y="-242.3" font-family="Helvetica,sans-Serif" font-size="11.00" fill="#000000">birth_date</text>
<polygon fill="none" stroke="#000000" points="472,-235.2 472,-257.2 564,-257.2 564,-235.2 472,-235.2"/>
<text text-anchor="start" x="474.6023" y="-242.9" font-family="Helvetica,sans-Serif" font-size="11.00" fill="#000000">timestamptz[35,6]</text>
<polygon fill="none" stroke="#000000" points="348,-213.2 348,-235.2 472,-235.2 472,-213.2 348,-213.2"/>
<text text-anchor="start" x="368" y="-220.3" font-family="Helvetica,sans-Serif" font-size="11.00" fill="#000000">entry_date</text>
<polygon fill="none" stroke="#000000" points="472,-213.2 472,-235.2 564,-235.2 564,-213.2 472,-213.2"/>
<text text-anchor="start" x="474.6023" y="-220.9" font-family="Helvetica,sans-Serif" font-size="11.00" fill="#000000">timestamptz[35,6]</text>
<polygon fill="none" stroke="#000000" points="348,-191.2 348,-213.2 472,-213.2 472,-191.2 348,-191.2"/>
<image xlink:href="../../images/foreignKeys.png" width="11px" height="12px" preserveAspectRatio="xMinYMin meet" x="353" y="-208.2"/>
<text text-anchor="start" x="368" y="-198.3" font-family="Helvetica,sans-Serif" font-size="11.00" fill="#000000">id_cid</text>
<polygon fill="none" stroke="#000000" points="472,-191.2 472,-213.2 564,-213.2 564,-191.2 472,-191.2"/>
<text text-anchor="start" x="475" y="-198.9" font-family="Helvetica,sans-Serif" font-size="11.00" fill="#000000">int4[10]</text>
<polygon fill="none" stroke="#000000" points="348,-169.2 348,-191.2 472,-191.2 472,-169.2 348,-169.2"/>
<text text-anchor="start" x="368" y="-176.3" font-family="Helvetica,sans-Serif" font-size="11.00" fill="#000000">department</text>
<polygon fill="none" stroke="#000000" points="472,-169.2 472,-191.2 564,-191.2 564,-169.2 472,-169.2"/>
<text text-anchor="start" x="475" y="-176.9" font-family="Helvetica,sans-Serif" font-size="11.00" fill="#000000">varchar[255]</text>
<polygon fill="none" stroke="#000000" points="348,-147.2 348,-169.2 472,-169.2 472,-147.2 348,-147.2"/>
<text text-anchor="start" x="368" y="-154.3" font-family="Helvetica,sans-Serif" font-size="11.00" fill="#000000">doctor</text>
<polygon fill="none" stroke="#000000" points="472,-147.2 472,-169.2 564,-169.2 564,-147.2 472,-147.2"/>
<text text-anchor="start" x="475" y="-154.9" font-family="Helvetica,sans-Serif" font-size="11.00" fill="#000000">varchar[255]</text>
<polygon fill="none" stroke="#000000" points="348,-125.2 348,-147.2 472,-147.2 472,-125.2 348,-125.2"/>
<text text-anchor="start" x="368" y="-132.3" font-family="Helvetica,sans-Serif" font-size="11.00" fill="#000000">gender</text>
<polygon fill="none" stroke="#000000" points="472,-125.2 472,-147.2 564,-147.2 564,-125.2 472,-125.2"/>
<text text-anchor="start" x="475" y="-132.9" font-family="Helvetica,sans-Serif" font-size="11.00" fill="#000000">bpchar[1]</text>
<polygon fill="none" stroke="#000000" points="348,-103.2 348,-125.2 472,-125.2 472,-103.2 348,-103.2"/>
<text text-anchor="start" x="368" y="-110.3" font-family="Helvetica,sans-Serif" font-size="11.00" fill="#000000">active</text>
<polygon fill="none" stroke="#000000" points="472,-103.2 472,-125.2 564,-125.2 564,-103.2 472,-103.2"/>
<text text-anchor="start" x="475" y="-110.9" font-family="Helvetica,sans-Serif" font-size="11.00" fill="#000000">bool[1]</text>
<polygon fill="none" stroke="#000000" points="348,-81.2 348,-103.2 472,-103.2 472,-81.2 348,-81.2"/>
<text text-anchor="start" x="368" y="-88.3" font-family="Helvetica,sans-Serif" font-size="11.00" fill="#000000">createdAt</text>
<polygon fill="none" stroke="#000000" points="472,-81.2 472,-103.2 564,-103.2 564,-81.2 472,-81.2"/>
<text text-anchor="start" x="474.6023" y="-88.9" font-family="Helvetica,sans-Serif" font-size="11.00" fill="#000000">timestamptz[35,6]</text>
<polygon fill="none" stroke="#000000" points="348,-59.2 348,-81.2 472,-81.2 472,-59.2 348,-59.2"/>
<text text-anchor="start" x="368" y="-66.3" font-family="Helvetica,sans-Serif" font-size="11.00" fill="#000000">updatedAt</text>
<polygon fill="none" stroke="#000000" points="472,-59.2 472,-81.2 564,-81.2 564,-59.2 472,-59.2"/>
<text text-anchor="start" x="474.6023" y="-66.9" font-family="Helvetica,sans-Serif" font-size="11.00" fill="#000000">timestamptz[35,6]</text>
<polygon fill="#ffffff" stroke="transparent" points="348,-40.2 348,-59.2 401,-59.2 401,-40.2 348,-40.2"/>
<polygon fill="none" stroke="#000000" points="348,-40.2 348,-59.2 401,-59.2 401,-40.2 348,-40.2"/>
<text text-anchor="start" x="351" y="-46.3" font-family="Helvetica,sans-Serif" font-size="11.00" fill="#000000">&lt; 2</text>
<polygon fill="#ffffff" stroke="transparent" points="401,-40.2 401,-59.2 472,-59.2 472,-40.2 401,-40.2"/>
<polygon fill="none" stroke="#000000" points="401,-40.2 401,-59.2 472,-59.2 472,-40.2 401,-40.2"/>
<text text-anchor="start" x="436.6105" y="-46.3" font-family="Helvetica,sans-Serif" font-size="11.00" fill="#000000">0 rows</text>
<polygon fill="#ffffff" stroke="transparent" points="472,-40.2 472,-59.2 564,-59.2 564,-40.2 472,-40.2"/>
<polygon fill="none" stroke="#000000" points="472,-40.2 472,-59.2 564,-59.2 564,-40.2 472,-40.2"/>
<text text-anchor="start" x="545.4053" y="-46.3" font-family="Helvetica,sans-Serif" font-size="11.00" fill="#000000">5 &gt;</text>
<polygon fill="none" stroke="#000000" stroke-width="2" points="347,-39.2 347,-391.2 565,-391.2 565,-39.2 347,-39.2"/>
</a>
</g>
</g>
<!-- chats&#45;&gt;patients -->
<g id="edge1" class="edge">
<title>chats:w&#45;&gt;patients:e</title>
<path fill="none" stroke="#000000" d="M612.6233,-458.0859C610.6442,-456.1909 608.7596,-454.2282 607,-452.2 576.3636,-416.8859 610.7512,-356.2 564,-356.2"/>
<polygon fill="#000000" stroke="#000000" points="617.8027,-462.4243 621.6238,-470.3212 620.8691,-464.9929 623.9354,-467.5614 623.9354,-467.5614 623.9354,-467.5614 620.8691,-464.9929 626.2471,-464.8017 617.8027,-462.4243 617.8027,-462.4243"/>
<ellipse fill="none" stroke="#000000" cx="615.3496" cy="-460.3695" rx="3.2" ry="3.2"/>
</g>
<!-- cid -->
<g id="node3" class="node">
<title>cid</title>
<g id="a_node3"><a xlink:href="../../tables/cid.html" xlink:title="cid" target="_top">
<polygon fill="#ffffff" stroke="transparent" points="193.5,-99.7 193.5,-226.7 279.5,-226.7 279.5,-99.7 193.5,-99.7"/>
<polygon fill="#f5f5f5" stroke="transparent" points="193.5,-203.2 193.5,-226.2 279.5,-226.2 279.5,-203.2 193.5,-203.2"/>
<polygon fill="none" stroke="#000000" points="193.5,-203.2 193.5,-226.2 279.5,-226.2 279.5,-203.2 193.5,-203.2"/>
<text text-anchor="start" x="197.9721" y="-211.8" font-family="Helvetica,sans-Serif" font-weight="bold" font-size="11.00" fill="#000000">cid</text>
<text text-anchor="start" x="244.5437" y="-211.3" font-family="Helvetica,sans-Serif" font-size="11.00" fill="#000000">[table]</text>
<polygon fill="none" stroke="#000000" points="193.5,-181.2 193.5,-203.2 279.5,-203.2 279.5,-181.2 193.5,-181.2"/>
<image xlink:href="../../images/primaryKeys.png" width="11px" height="12px" preserveAspectRatio="xMinYMin meet" x="198.5" y="-198.2"/>
<text text-anchor="start" x="214.5" y="-188.3" font-family="Helvetica,sans-Serif" font-size="11.00" fill="#000000">id_cid</text>
<polygon fill="#ffffff" stroke="transparent" points="193.5,-159.2 193.5,-181.2 279.5,-181.2 279.5,-159.2 193.5,-159.2"/>
<polygon fill="none" stroke="#000000" points="193.5,-159.2 193.5,-181.2 279.5,-181.2 279.5,-159.2 193.5,-159.2"/>
<text text-anchor="start" x="214.5" y="-166.3" font-family="Helvetica,sans-Serif" font-size="11.00" fill="#000000">cid_code</text>
<polygon fill="none" stroke="#000000" points="193.5,-137.2 193.5,-159.2 279.5,-159.2 279.5,-137.2 193.5,-137.2"/>
<image xlink:href="../../images/foreignKeys.png" width="11px" height="12px" preserveAspectRatio="xMinYMin meet" x="198.5" y="-154.2"/>
<text text-anchor="start" x="214.5" y="-144.3" font-family="Helvetica,sans-Serif" font-size="11.00" fill="#000000">id_label</text>
<polygon fill="none" stroke="#000000" points="193.5,-118.2 193.5,-137.2 279.5,-137.2 279.5,-118.2 193.5,-118.2"/>
<text text-anchor="start" x="196.5" y="-124.3" font-family="Helvetica,sans-Serif" font-size="11.00" fill="#000000">...</text>
<polygon fill="#ffffff" stroke="transparent" points="193.5,-99.2 193.5,-118.2 214.5,-118.2 214.5,-99.2 193.5,-99.2"/>
<polygon fill="none" stroke="#000000" points="193.5,-99.2 193.5,-118.2 214.5,-118.2 214.5,-99.2 193.5,-99.2"/>
<text text-anchor="start" x="196.2027" y="-105.3" font-family="Helvetica,sans-Serif" font-size="11.00" fill="#000000">&lt; 1</text>
<polygon fill="#ffffff" stroke="transparent" points="214.5,-99.2 214.5,-118.2 258.5,-118.2 258.5,-99.2 214.5,-99.2"/>
<polygon fill="none" stroke="#000000" points="214.5,-99.2 214.5,-118.2 258.5,-118.2 258.5,-99.2 214.5,-99.2"/>
<text text-anchor="start" x="217.2478" y="-105.3" font-family="Helvetica,sans-Serif" font-size="11.00" fill="#000000">88 rows</text>
<polygon fill="#ffffff" stroke="transparent" points="258.5,-99.2 258.5,-118.2 279.5,-118.2 279.5,-99.2 258.5,-99.2"/>
<polygon fill="none" stroke="#000000" points="258.5,-99.2 258.5,-118.2 279.5,-118.2 279.5,-99.2 258.5,-99.2"/>
<text text-anchor="start" x="261.2027" y="-105.3" font-family="Helvetica,sans-Serif" font-size="11.00" fill="#000000">1 &gt;</text>
</a>
</g>
</g>
<!-- patients&#45;&gt;cid -->
<g id="edge9" class="edge">
<title>patients:w&#45;&gt;cid:e</title>
<path fill="none" stroke="#000000" d="M333.4439,-201.3474C313.9611,-198.9291 304.7387,-192.2 279.5,-192.2"/>
<polygon fill="#000000" stroke="#000000" points="340.0137,-201.7322 347.7895,-205.7938 344.0068,-201.9661 348,-202.2 348,-202.2 348,-202.2 344.0068,-201.9661 348.2105,-198.6062 340.0137,-201.7322 340.0137,-201.7322"/>
<ellipse fill="none" stroke="#000000" cx="336.8192" cy="-201.545" rx="3.2" ry="3.2"/>
</g>
<!-- SequelizeMeta -->
<g id="node9" class="node">
<title>SequelizeMeta</title>
<g id="a_node9"><a xlink:href="../../tables/SequelizeMeta.html" xlink:title="SequelizeMeta" target="_top">
<polygon fill="#ffffff" stroke="transparent" points="176,-248.2 176,-312.2 297,-312.2 297,-248.2 176,-248.2"/>
<polygon fill="#f5f5f5" stroke="transparent" points="176.5,-289.2 176.5,-312.2 297.5,-312.2 297.5,-289.2 176.5,-289.2"/>
<polygon fill="none" stroke="#000000" points="176.5,-289.2 176.5,-312.2 297.5,-312.2 297.5,-289.2 176.5,-289.2"/>
<text text-anchor="start" x="181.5" y="-297.8" font-family="Helvetica,sans-Serif" font-weight="bold" font-size="11.00" fill="#000000">SequelizeMeta</text>
<text text-anchor="start" x="263.0219" y="-297.3" font-family="Helvetica,sans-Serif" font-size="11.00" fill="#000000">[table]</text>
<polygon fill="none" stroke="#000000" points="176.5,-267.2 176.5,-289.2 297.5,-289.2 297.5,-267.2 176.5,-267.2"/>
<image xlink:href="../../images/primaryKeys.png" width="11px" height="12px" preserveAspectRatio="xMinYMin meet" x="181.5" y="-284.2"/>
<text text-anchor="start" x="205.5" y="-274.3" font-family="Helvetica,sans-Serif" font-size="11.00" fill="#000000">name</text>
<polygon fill="#ffffff" stroke="transparent" points="176.5,-248.2 176.5,-267.2 210.5,-267.2 210.5,-248.2 176.5,-248.2"/>
<polygon fill="none" stroke="#000000" points="176.5,-248.2 176.5,-267.2 210.5,-267.2 210.5,-248.2 176.5,-248.2"/>
<text text-anchor="start" x="179.5" y="-254.3" font-family="Helvetica,sans-Serif" font-size="11.00" fill="#000000"> &#160;</text>
<polygon fill="#ffffff" stroke="transparent" points="210.5,-248.2 210.5,-267.2 265.5,-267.2 265.5,-248.2 210.5,-248.2"/>
<polygon fill="none" stroke="#000000" points="210.5,-248.2 210.5,-267.2 265.5,-267.2 265.5,-248.2 210.5,-248.2"/>
<text text-anchor="start" x="223.9956" y="-254.3" font-family="Helvetica,sans-Serif" font-size="11.00" fill="#000000">17 rows</text>
<polygon fill="#ffffff" stroke="transparent" points="265.5,-248.2 265.5,-267.2 297.5,-267.2 297.5,-248.2 265.5,-248.2"/>
<polygon fill="none" stroke="#000000" points="265.5,-248.2 265.5,-267.2 297.5,-267.2 297.5,-248.2 265.5,-248.2"/>
<text text-anchor="start" x="278.9053" y="-254.3" font-family="Helvetica,sans-Serif" font-size="11.00" fill="#000000">1 &gt;</text>
</a>
</g>
</g>
<!-- patients&#45;&gt;SequelizeMeta -->
<g id="edge10" class="edge">
<title>patients:w&#45;&gt;SequelizeMeta:e</title>
<path fill="none" stroke="#000000" stroke-dasharray="5,2" d="M333.6743,-269.7625C321.6162,-272.575 314.6602,-278.2 297.5,-278.2"/>
<polygon fill="#000000" stroke="#000000" points="340.0472,-269.0675 348.3904,-271.7788 344.0236,-268.6337 348,-268.2 348,-268.2 348,-268.2 344.0236,-268.6337 347.6096,-264.6212 340.0472,-269.0675 340.0472,-269.0675"/>
<ellipse fill="none" stroke="#000000" cx="336.866" cy="-269.4144" rx="3.2" ry="3.2"/>
</g>
<!-- patient_labels -->
<g id="node4" class="node">
<title>patient_labels</title>
<g id="a_node4"><a xlink:href="../../tables/patient_labels.html" xlink:title="patient_labels" target="_top">
<polygon fill="#ffffff" stroke="transparent" points="8,-120.7 8,-181.7 127,-181.7 127,-120.7 8,-120.7"/>
<polygon fill="#f5f5f5" stroke="transparent" points="8.5,-158.2 8.5,-181.2 127.5,-181.2 127.5,-158.2 8.5,-158.2"/>
<polygon fill="none" stroke="#000000" points="8.5,-158.2 8.5,-181.2 127.5,-181.2 127.5,-158.2 8.5,-158.2"/>
<text text-anchor="start" x="13.5" y="-166.8" font-family="Helvetica,sans-Serif" font-weight="bold" font-size="11.00" fill="#000000">patient_labels</text>
<text text-anchor="start" x="93.0219" y="-166.3" font-family="Helvetica,sans-Serif" font-size="11.00" fill="#000000">[table]</text>
<polygon fill="none" stroke="#000000" points="8.5,-139.2 8.5,-158.2 127.5,-158.2 127.5,-139.2 8.5,-139.2"/>
<text text-anchor="start" x="11.5" y="-145.3" font-family="Helvetica,sans-Serif" font-size="11.00" fill="#000000">...</text>
<polygon fill="#ffffff" stroke="transparent" points="8.5,-120.2 8.5,-139.2 44.5,-139.2 44.5,-120.2 8.5,-120.2"/>
<polygon fill="none" stroke="#000000" points="8.5,-120.2 8.5,-139.2 44.5,-139.2 44.5,-120.2 8.5,-120.2"/>
<text text-anchor="start" x="11.5" y="-126.3" font-family="Helvetica,sans-Serif" font-size="11.00" fill="#000000"> &#160;</text>
<polygon fill="#ffffff" stroke="transparent" points="44.5,-120.2 44.5,-139.2 94.5,-139.2 94.5,-120.2 44.5,-120.2"/>
<polygon fill="none" stroke="#000000" points="44.5,-120.2 44.5,-139.2 94.5,-139.2 94.5,-120.2 44.5,-120.2"/>
<text text-anchor="start" x="59.1105" y="-126.3" font-family="Helvetica,sans-Serif" font-size="11.00" fill="#000000">0 rows</text>
<polygon fill="#ffffff" stroke="transparent" points="94.5,-120.2 94.5,-139.2 127.5,-139.2 127.5,-120.2 94.5,-120.2"/>
<polygon fill="none" stroke="#000000" points="94.5,-120.2 94.5,-139.2 127.5,-139.2 127.5,-120.2 94.5,-120.2"/>
<text text-anchor="start" x="108.9053" y="-126.3" font-family="Helvetica,sans-Serif" font-size="11.00" fill="#000000">1 &gt;</text>
</a>
</g>
</g>
<!-- cid&#45;&gt;patient_labels -->
<g id="edge2" class="edge">
<title>cid:w&#45;&gt;patient_labels:e</title>
<path fill="none" stroke="#000000" d="M179.0303,-148.2C160.6432,-148.2 151.3333,-148.2 127.5,-148.2"/>
<polygon fill="#000000" stroke="#000000" points="185.5,-148.2001 193.5,-151.8 189.5,-148.2 193.5,-148.2 193.5,-148.2 193.5,-148.2 189.5,-148.2 193.5,-144.6 185.5,-148.2001 185.5,-148.2001"/>
<ellipse fill="none" stroke="#000000" cx="182.3" cy="-148.2001" rx="3.2" ry="3.2"/>
</g>
<!-- device -->
<g id="node5" class="node">
<title>device</title>
<g id="a_node5"><a xlink:href="../../tables/device.html" xlink:title="device" target="_top">
<polygon fill="#ffffff" stroke="transparent" points="615,-177.7 615,-304.7 729,-304.7 729,-177.7 615,-177.7"/>
<polygon fill="#f5f5f5" stroke="transparent" points="615,-281.2 615,-304.2 729,-304.2 729,-281.2 615,-281.2"/>
<polygon fill="none" stroke="#000000" points="615,-281.2 615,-304.2 729,-304.2 729,-281.2 615,-281.2"/>
<text text-anchor="start" x="620" y="-289.8" font-family="Helvetica,sans-Serif" font-weight="bold" font-size="11.00" fill="#000000">device</text>
<text text-anchor="start" x="694.0437" y="-289.3" font-family="Helvetica,sans-Serif" font-size="11.00" fill="#000000">[table]</text>
<polygon fill="none" stroke="#000000" points="615,-259.2 615,-281.2 729,-281.2 729,-259.2 615,-259.2"/>
<image xlink:href="../../images/primaryKeys.png" width="11px" height="12px" preserveAspectRatio="xMinYMin meet" x="620" y="-276.2"/>
<text text-anchor="start" x="635" y="-266.3" font-family="Helvetica,sans-Serif" font-size="11.00" fill="#000000">id_device_token</text>
<polygon fill="none" stroke="#000000" points="615,-237.2 615,-259.2 729,-259.2 729,-237.2 615,-237.2"/>
<image xlink:href="../../images/foreignKeys.png" width="11px" height="12px" preserveAspectRatio="xMinYMin meet" x="620" y="-254.2"/>
<text text-anchor="start" x="635" y="-244.3" font-family="Helvetica,sans-Serif" font-size="11.00" fill="#000000">patient_id</text>
<polygon fill="#ffffff" stroke="transparent" points="615,-215.2 615,-237.2 729,-237.2 729,-215.2 615,-215.2"/>
<polygon fill="none" stroke="#000000" points="615,-215.2 615,-237.2 729,-237.2 729,-215.2 615,-215.2"/>
<text text-anchor="start" x="635" y="-222.3" font-family="Helvetica,sans-Serif" font-size="11.00" fill="#000000">token</text>
<polygon fill="none" stroke="#000000" points="615,-196.2 615,-215.2 729,-215.2 729,-196.2 615,-196.2"/>
<text text-anchor="start" x="618" y="-202.3" font-family="Helvetica,sans-Serif" font-size="11.00" fill="#000000">...</text>
<polygon fill="#ffffff" stroke="transparent" points="615,-177.2 615,-196.2 657,-196.2 657,-177.2 615,-177.2"/>
<polygon fill="none" stroke="#000000" points="615,-177.2 615,-196.2 657,-196.2 657,-177.2 615,-177.2"/>
<text text-anchor="start" x="618" y="-183.3" font-family="Helvetica,sans-Serif" font-size="11.00" fill="#000000">&lt; 1</text>
<polygon fill="#ffffff" stroke="transparent" points="657,-177.2 657,-196.2 706,-196.2 706,-177.2 657,-177.2"/>
<polygon fill="none" stroke="#000000" points="657,-177.2 657,-196.2 706,-196.2 706,-177.2 657,-177.2"/>
<text text-anchor="start" x="670.6105" y="-183.3" font-family="Helvetica,sans-Serif" font-size="11.00" fill="#000000">0 rows</text>
<polygon fill="#ffffff" stroke="transparent" points="706,-177.2 706,-196.2 729,-196.2 729,-177.2 706,-177.2"/>
<polygon fill="none" stroke="#000000" points="706,-177.2 706,-196.2 729,-196.2 729,-177.2 706,-177.2"/>
<text text-anchor="start" x="719.8862" y="-183.3" font-family="Helvetica,sans-Serif" font-size="11.00" fill="#000000"> &#160;</text>
</a>
</g>
</g>
<!-- device&#45;&gt;patients -->
<g id="edge3" class="edge">
<title>device:w&#45;&gt;patients:e</title>
<path fill="none" stroke="#000000" d="M600.8128,-252.0438C573.0266,-271.2828 611.0695,-356.2 564,-356.2"/>
<polygon fill="#000000" stroke="#000000" points="607.2784,-250.2921 615.9414,-251.6747 611.1392,-249.246 615,-248.2 615,-248.2 615,-248.2 611.1392,-249.246 614.0586,-244.7253 607.2784,-250.2921 607.2784,-250.2921"/>
<ellipse fill="none" stroke="#000000" cx="604.1897" cy="-251.1289" rx="3.2" ry="3.2"/>
</g>
<!-- message_notifications -->
<g id="node6" class="node">
<title>message_notifications</title>
<g id="a_node6"><a xlink:href="../../tables/message_notifications.html" xlink:title="message_notifications" target="_top">
<polygon fill="#ffffff" stroke="transparent" points="926,-346.7 926,-407.7 1094,-407.7 1094,-346.7 926,-346.7"/>
<polygon fill="#f5f5f5" stroke="transparent" points="926,-384.2 926,-407.2 1094,-407.2 1094,-384.2 926,-384.2"/>
<polygon fill="none" stroke="#000000" points="926,-384.2 926,-407.2 1094,-407.2 1094,-384.2 926,-384.2"/>
<text text-anchor="start" x="931" y="-392.8" font-family="Helvetica,sans-Serif" font-weight="bold" font-size="11.00" fill="#000000">message_notifications</text>
<text text-anchor="start" x="1059.5219" y="-392.3" font-family="Helvetica,sans-Serif" font-size="11.00" fill="#000000">[table]</text>
<polygon fill="none" stroke="#000000" points="926,-365.2 926,-384.2 1094,-384.2 1094,-365.2 926,-365.2"/>
<text text-anchor="start" x="929" y="-371.3" font-family="Helvetica,sans-Serif" font-size="11.00" fill="#000000">...</text>
<polygon fill="#ffffff" stroke="transparent" points="926,-346.2 926,-365.2 995,-365.2 995,-346.2 926,-346.2"/>
<polygon fill="none" stroke="#000000" points="926,-346.2 926,-365.2 995,-365.2 995,-346.2 926,-346.2"/>
<text text-anchor="start" x="929" y="-352.3" font-family="Helvetica,sans-Serif" font-size="11.00" fill="#000000">&lt; 2</text>
<polygon fill="#ffffff" stroke="transparent" points="995,-346.2 995,-365.2 1057,-365.2 1057,-346.2 995,-346.2"/>
<polygon fill="none" stroke="#000000" points="995,-346.2 995,-365.2 1057,-365.2 1057,-346.2 995,-346.2"/>
<text text-anchor="start" x="1021.6105" y="-352.3" font-family="Helvetica,sans-Serif" font-size="11.00" fill="#000000">0 rows</text>
<polygon fill="#ffffff" stroke="transparent" points="1057,-346.2 1057,-365.2 1094,-365.2 1094,-346.2 1057,-346.2"/>
<polygon fill="none" stroke="#000000" points="1057,-346.2 1057,-365.2 1094,-365.2 1094,-346.2 1057,-346.2"/>
<text text-anchor="start" x="1084.8862" y="-352.3" font-family="Helvetica,sans-Serif" font-size="11.00" fill="#000000"> &#160;</text>
</a>
</g>
</g>
<!-- message_notifications&#45;&gt;patients -->
<g id="edge5" class="edge">
<title>message_notifications:w&#45;&gt;patients:e</title>
<path fill="none" stroke="#000000" d="M903.4311,-356.8999C822.0331,-344.2578 707.1799,-332.5893 607,-345.2 587.4279,-347.6637 583.7265,-356.2 564,-356.2"/>
<polygon fill="#000000" stroke="#000000" points="909.8207,-357.9205 917.1527,-362.7374 913.7706,-358.5515 917.7206,-359.1825 917.7206,-359.1825 917.7206,-359.1825 913.7706,-358.5515 918.2885,-355.6276 909.8207,-357.9205 909.8207,-357.9205"/>
<ellipse fill="none" stroke="#000000" cx="906.6608" cy="-357.4157" rx="3.2" ry="3.2"/>
</g>
<!-- messages -->
<g id="node7" class="node">
<title>messages</title>
<g id="a_node7"><a xlink:href="../../tables/messages.html" xlink:title="messages" target="_top">
<polygon fill="#ffffff" stroke="transparent" points="779,-377.7 779,-438.7 876,-438.7 876,-377.7 779,-377.7"/>
<polygon fill="#f5f5f5" stroke="transparent" points="779.5,-415.2 779.5,-438.2 876.5,-438.2 876.5,-415.2 779.5,-415.2"/>
<polygon fill="none" stroke="#000000" points="779.5,-415.2 779.5,-438.2 876.5,-438.2 876.5,-415.2 779.5,-415.2"/>
<text text-anchor="start" x="784.5" y="-423.8" font-family="Helvetica,sans-Serif" font-weight="bold" font-size="11.00" fill="#000000">messages</text>
<text text-anchor="start" x="842.0219" y="-423.3" font-family="Helvetica,sans-Serif" font-size="11.00" fill="#000000">[table]</text>
<polygon fill="none" stroke="#000000" points="779.5,-396.2 779.5,-415.2 876.5,-415.2 876.5,-396.2 779.5,-396.2"/>
<text text-anchor="start" x="782.5" y="-402.3" font-family="Helvetica,sans-Serif" font-size="11.00" fill="#000000">...</text>
<polygon fill="#ffffff" stroke="transparent" points="779.5,-377.2 779.5,-396.2 808.5,-396.2 808.5,-377.2 779.5,-377.2"/>
<polygon fill="none" stroke="#000000" points="779.5,-377.2 779.5,-396.2 808.5,-396.2 808.5,-377.2 779.5,-377.2"/>
<text text-anchor="start" x="782.5" y="-383.3" font-family="Helvetica,sans-Serif" font-size="11.00" fill="#000000">&lt; 3</text>
<polygon fill="#ffffff" stroke="transparent" points="808.5,-377.2 808.5,-396.2 850.5,-396.2 850.5,-377.2 808.5,-377.2"/>
<polygon fill="none" stroke="#000000" points="808.5,-377.2 808.5,-396.2 850.5,-396.2 850.5,-377.2 808.5,-377.2"/>
<text text-anchor="start" x="815.1105" y="-383.3" font-family="Helvetica,sans-Serif" font-size="11.00" fill="#000000">0 rows</text>
<polygon fill="#ffffff" stroke="transparent" points="850.5,-377.2 850.5,-396.2 876.5,-396.2 876.5,-377.2 850.5,-377.2"/>
<polygon fill="none" stroke="#000000" points="850.5,-377.2 850.5,-396.2 876.5,-396.2 876.5,-377.2 850.5,-377.2"/>
<text text-anchor="start" x="857.9053" y="-383.3" font-family="Helvetica,sans-Serif" font-size="11.00" fill="#000000">1 &gt;</text>
</a>
</g>
</g>
<!-- message_notifications&#45;&gt;messages -->
<g id="edge4" class="edge">
<title>message_notifications:w&#45;&gt;messages:e</title>
<path fill="none" stroke="#000000" d="M903.7036,-395.2558C897.0378,-396.3881 890.4822,-397.5017 884.1843,-398.5714"/>
<polygon fill="#000000" stroke="#000000" points="910.061,-394.176 918.5509,-396.3854 914.0045,-393.5061 917.948,-392.8362 917.948,-392.8362 917.948,-392.8362 914.0045,-393.5061 917.3451,-389.2871 910.061,-394.176 910.061,-394.176"/>
<ellipse fill="none" stroke="#000000" cx="906.9062" cy="-394.7119" rx="3.2" ry="3.2"/>
</g>
<!-- messages&#45;&gt;chats -->
<g id="edge6" class="edge">
<title>messages:w&#45;&gt;chats:e</title>
<path fill="none" stroke="#000000" d="M758.2058,-446.0779C745.3331,-453.1144 732.1476,-460.3219 720.0832,-466.9166"/>
<polygon fill="#000000" stroke="#000000" points="763.9013,-442.9646 772.6478,-442.2863 767.4112,-441.046 770.921,-439.1274 770.921,-439.1274 770.921,-439.1274 767.4112,-441.046 769.1943,-435.9685 763.9013,-442.9646 763.9013,-442.9646"/>
<ellipse fill="none" stroke="#000000" cx="761.0934" cy="-444.4994" rx="3.2" ry="3.2"/>
</g>
<!-- messages&#45;&gt;patients -->
<g id="edge7" class="edge">
<title>messages:w&#45;&gt;patients:e</title>
<path fill="none" stroke="#000000" d="M865.8876,-358.9809C843.0426,-333.246 622.1357,-356.2 564,-356.2"/>
<polygon fill="#000000" stroke="#000000" points="864.3541,-365.4178 858.998,-372.3657 863.427,-369.3089 862.5,-373.2 862.5,-373.2 862.5,-373.2 863.427,-369.3089 866.002,-374.0343 864.3541,-365.4178 864.3541,-365.4178"/>
<ellipse fill="none" stroke="#000000" cx="865.0957" cy="-362.3049" rx="3.2" ry="3.2"/>
</g>
<!-- users -->
<g id="node8" class="node">
<title>users</title>
<g id="a_node8"><a xlink:href="../../tables/users.html" xlink:title="users" target="_top">
<polygon fill="#ffffff" stroke="transparent" points="636.5,-380.7 636.5,-441.7 707.5,-441.7 707.5,-380.7 636.5,-380.7"/>
<polygon fill="#f5f5f5" stroke="transparent" points="637,-418.2 637,-441.2 708,-441.2 708,-418.2 637,-418.2"/>
<polygon fill="none" stroke="#000000" points="637,-418.2 637,-441.2 708,-441.2 708,-418.2 637,-418.2"/>
<text text-anchor="start" x="642" y="-426.8" font-family="Helvetica,sans-Serif" font-weight="bold" font-size="11.00" fill="#000000">users</text>
<text text-anchor="start" x="673.5219" y="-426.3" font-family="Helvetica,sans-Serif" font-size="11.00" fill="#000000">[table]</text>
<polygon fill="none" stroke="#000000" points="637,-399.2 637,-418.2 708,-418.2 708,-399.2 637,-399.2"/>
<text text-anchor="start" x="640" y="-405.3" font-family="Helvetica,sans-Serif" font-size="11.00" fill="#000000">...</text>
<polygon fill="#ffffff" stroke="transparent" points="637,-380.2 637,-399.2 649,-399.2 649,-380.2 637,-380.2"/>
<polygon fill="none" stroke="#000000" points="637,-380.2 637,-399.2 649,-399.2 649,-380.2 637,-380.2"/>
<text text-anchor="start" x="639.9431" y="-386.3" font-family="Helvetica,sans-Serif" font-size="11.00" fill="#000000"> &#160;</text>
<polygon fill="#ffffff" stroke="transparent" points="649,-380.2 649,-399.2 687,-399.2 687,-380.2 649,-380.2"/>
<polygon fill="none" stroke="#000000" points="649,-380.2 649,-399.2 687,-399.2 687,-380.2 649,-380.2"/>
<text text-anchor="start" x="651.8053" y="-386.3" font-family="Helvetica,sans-Serif" font-size="11.00" fill="#000000">0 rows</text>
<polygon fill="#ffffff" stroke="transparent" points="687,-380.2 687,-399.2 708,-399.2 708,-380.2 687,-380.2"/>
<polygon fill="none" stroke="#000000" points="687,-380.2 687,-399.2 708,-399.2 708,-380.2 687,-380.2"/>
<text text-anchor="start" x="689.7026" y="-386.3" font-family="Helvetica,sans-Serif" font-size="11.00" fill="#000000">4 &gt;</text>
</a>
</g>
</g>
<!-- messages&#45;&gt;users -->
<g id="edge8" class="edge">
<title>messages:w&#45;&gt;users:e</title>
<path fill="none" stroke="#000000" d="M872.061,-362.2603C886.7422,-339.166 771.5309,-408.2 708,-408.2"/>
<polygon fill="#000000" stroke="#000000" points="867.7645,-367.1763 859.7893,-370.831 865.1323,-370.1882 862.5,-373.2 862.5,-373.2 862.5,-373.2 865.1323,-370.1882 865.2107,-375.569 867.7645,-367.1763 867.7645,-367.1763"/>
<ellipse fill="none" stroke="#000000" cx="869.8704" cy="-364.7668" rx="3.2" ry="3.2"/>
</g>
<!-- question_responses -->
<g id="node10" class="node">
<title>question_responses</title>
<g id="a_node10"><a xlink:href="../../tables/question_responses.html" xlink:title="question_responses" target="_top">
<polygon fill="#ffffff" stroke="transparent" points="932.5,-564.7 932.5,-625.7 1087.5,-625.7 1087.5,-564.7 932.5,-564.7"/>
<polygon fill="#f5f5f5" stroke="transparent" points="933,-602.2 933,-625.2 1088,-625.2 1088,-602.2 933,-602.2"/>
<polygon fill="none" stroke="#000000" points="933,-602.2 933,-625.2 1088,-625.2 1088,-602.2 933,-602.2"/>
<text text-anchor="start" x="938" y="-610.8" font-family="Helvetica,sans-Serif" font-weight="bold" font-size="11.00" fill="#000000">question_responses</text>
<text text-anchor="start" x="1053.5219" y="-610.3" font-family="Helvetica,sans-Serif" font-size="11.00" fill="#000000">[table]</text>
<polygon fill="none" stroke="#000000" points="933,-583.2 933,-602.2 1088,-602.2 1088,-583.2 933,-583.2"/>
<text text-anchor="start" x="936" y="-589.3" font-family="Helvetica,sans-Serif" font-size="11.00" fill="#000000">...</text>
<polygon fill="#ffffff" stroke="transparent" points="933,-564.2 933,-583.2 996,-583.2 996,-564.2 933,-564.2"/>
<polygon fill="none" stroke="#000000" points="933,-564.2 933,-583.2 996,-583.2 996,-564.2 933,-564.2"/>
<text text-anchor="start" x="936" y="-570.3" font-family="Helvetica,sans-Serif" font-size="11.00" fill="#000000">&lt; 2</text>
<polygon fill="#ffffff" stroke="transparent" points="996,-564.2 996,-583.2 1055,-583.2 1055,-564.2 996,-564.2"/>
<polygon fill="none" stroke="#000000" points="996,-564.2 996,-583.2 1055,-583.2 1055,-564.2 996,-564.2"/>
<text text-anchor="start" x="1019.6105" y="-570.3" font-family="Helvetica,sans-Serif" font-size="11.00" fill="#000000">0 rows</text>
<polygon fill="#ffffff" stroke="transparent" points="1055,-564.2 1055,-583.2 1088,-583.2 1088,-564.2 1055,-564.2"/>
<polygon fill="none" stroke="#000000" points="1055,-564.2 1055,-583.2 1088,-583.2 1088,-564.2 1055,-564.2"/>
<text text-anchor="start" x="1078.8862" y="-570.3" font-family="Helvetica,sans-Serif" font-size="11.00" fill="#000000"> &#160;</text>
</a>
</g>
</g>
<!-- responses -->
<g id="node11" class="node">
<title>responses</title>
<g id="a_node11"><a xlink:href="../../tables/responses.html" xlink:title="responses" target="_top">
<polygon fill="#ffffff" stroke="transparent" points="778,-477.7 778,-626.7 877,-626.7 877,-477.7 778,-477.7"/>
<polygon fill="#f5f5f5" stroke="transparent" points="778.5,-603.2 778.5,-626.2 877.5,-626.2 877.5,-603.2 778.5,-603.2"/>
<polygon fill="none" stroke="#000000" points="778.5,-603.2 778.5,-626.2 877.5,-626.2 877.5,-603.2 778.5,-603.2"/>
<text text-anchor="start" x="783.5" y="-611.8" font-family="Helvetica,sans-Serif" font-weight="bold" font-size="11.00" fill="#000000">responses</text>
<text text-anchor="start" x="843.0219" y="-611.3" font-family="Helvetica,sans-Serif" font-size="11.00" fill="#000000">[table]</text>
<polygon fill="none" stroke="#000000" points="778.5,-581.2 778.5,-603.2 877.5,-603.2 877.5,-581.2 778.5,-581.2"/>
<image xlink:href="../../images/primaryKeys.png" width="11px" height="12px" preserveAspectRatio="xMinYMin meet" x="783.5" y="-598.2"/>
<text text-anchor="start" x="799.5" y="-588.3" font-family="Helvetica,sans-Serif" font-size="11.00" fill="#000000">id_responses</text>
<polygon fill="none" stroke="#000000" points="778.5,-559.2 778.5,-581.2 877.5,-581.2 877.5,-559.2 778.5,-559.2"/>
<image xlink:href="../../images/foreignKeys.png" width="11px" height="12px" preserveAspectRatio="xMinYMin meet" x="783.5" y="-576.2"/>
<text text-anchor="start" x="799.5" y="-566.3" font-family="Helvetica,sans-Serif" font-size="11.00" fill="#000000">formId</text>
<polygon fill="none" stroke="#000000" points="778.5,-537.2 778.5,-559.2 877.5,-559.2 877.5,-537.2 778.5,-537.2"/>
<image xlink:href="../../images/foreignKeys.png" width="11px" height="12px" preserveAspectRatio="xMinYMin meet" x="783.5" y="-554.2"/>
<text text-anchor="start" x="799.5" y="-544.3" font-family="Helvetica,sans-Serif" font-size="11.00" fill="#000000">submittedBy</text>
<polygon fill="none" stroke="#000000" points="778.5,-515.2 778.5,-537.2 877.5,-537.2 877.5,-515.2 778.5,-515.2"/>
<image xlink:href="../../images/foreignKeys.png" width="11px" height="12px" preserveAspectRatio="xMinYMin meet" x="783.5" y="-532.2"/>
<text text-anchor="start" x="799.5" y="-522.3" font-family="Helvetica,sans-Serif" font-size="11.00" fill="#000000">assignedBy</text>
<polygon fill="none" stroke="#000000" points="778.5,-496.2 778.5,-515.2 877.5,-515.2 877.5,-496.2 778.5,-496.2"/>
<text text-anchor="start" x="781.5" y="-502.3" font-family="Helvetica,sans-Serif" font-size="11.00" fill="#000000">...</text>
<polygon fill="#ffffff" stroke="transparent" points="778.5,-477.2 778.5,-496.2 808.5,-496.2 808.5,-477.2 778.5,-477.2"/>
<polygon fill="none" stroke="#000000" points="778.5,-477.2 778.5,-496.2 808.5,-496.2 808.5,-477.2 778.5,-477.2"/>
<text text-anchor="start" x="781.5" y="-483.3" font-family="Helvetica,sans-Serif" font-size="11.00" fill="#000000">&lt; 3</text>
<polygon fill="#ffffff" stroke="transparent" points="808.5,-477.2 808.5,-496.2 851.5,-496.2 851.5,-477.2 808.5,-477.2"/>
<polygon fill="none" stroke="#000000" points="808.5,-477.2 808.5,-496.2 851.5,-496.2 851.5,-477.2 808.5,-477.2"/>
<text text-anchor="start" x="816.1105" y="-483.3" font-family="Helvetica,sans-Serif" font-size="11.00" fill="#000000">0 rows</text>
<polygon fill="#ffffff" stroke="transparent" points="851.5,-477.2 851.5,-496.2 877.5,-496.2 877.5,-477.2 851.5,-477.2"/>
<polygon fill="none" stroke="#000000" points="851.5,-477.2 851.5,-496.2 877.5,-496.2 877.5,-477.2 851.5,-477.2"/>
<text text-anchor="start" x="858.9053" y="-483.3" font-family="Helvetica,sans-Serif" font-size="11.00" fill="#000000">1 &gt;</text>
</a>
</g>
</g>
<!-- question_responses&#45;&gt;responses -->
<g id="edge11" class="edge">
<title>question_responses:w&#45;&gt;responses:e</title>
<path fill="none" stroke="#000000" d="M918.2286,-592.2C904.4265,-592.2 896.3854,-592.2 877.5,-592.2"/>
<polygon fill="#000000" stroke="#000000" points="925,-592.2001 933,-595.8 929,-592.2 933,-592.2 933,-592.2 933,-592.2 929,-592.2 933,-588.6 925,-592.2001 925,-592.2001"/>
<ellipse fill="none" stroke="#000000" cx="921.8" cy="-592.2001" rx="3.2" ry="3.2"/>
</g>
<!-- responses&#45;&gt;patients -->
<g id="edge14" class="edge">
<title>responses:w&#45;&gt;patients:e</title>
<path fill="none" stroke="#000000" d="M763.7702,-548.637C697.0288,-552.5661 661.2561,-580.6095 607,-534.2 545.1527,-481.2971 645.3867,-356.2 564,-356.2"/>
<polygon fill="#000000" stroke="#000000" points="770.5035,-548.4373 778.6068,-551.7984 774.5018,-548.3186 778.5,-548.2 778.5,-548.2 778.5,-548.2 774.5018,-548.3186 778.3932,-544.6016 770.5035,-548.4373 770.5035,-548.4373"/>
<ellipse fill="none" stroke="#000000" cx="767.3049" cy="-548.5322" rx="3.2" ry="3.2"/>
</g>
<!-- responses&#45;&gt;users -->
<g id="edge12" class="edge">
<title>responses:w&#45;&gt;users:e</title>
<path fill="none" stroke="#000000" d="M764.3524,-523.3995C725.9467,-505.5303 763.4837,-408.2 708,-408.2"/>
<polygon fill="#000000" stroke="#000000" points="770.6523,-524.6465 777.8009,-529.7315 774.5761,-525.4233 778.5,-526.2 778.5,-526.2 778.5,-526.2 774.5761,-525.4233 779.1991,-522.6685 770.6523,-524.6465 770.6523,-524.6465"/>
<ellipse fill="none" stroke="#000000" cx="767.5132" cy="-524.0251" rx="3.2" ry="3.2"/>
</g>
<!-- forms -->
<g id="node12" class="node">
<title>forms</title>
<g id="a_node12"><a xlink:href="../../tables/forms.html" xlink:title="forms" target="_top">
<polygon fill="#ffffff" stroke="transparent" points="636,-572.7 636,-633.7 708,-633.7 708,-572.7 636,-572.7"/>
<polygon fill="#f5f5f5" stroke="transparent" points="636,-610.2 636,-633.2 708,-633.2 708,-610.2 636,-610.2"/>
<polygon fill="none" stroke="#000000" points="636,-610.2 636,-633.2 708,-633.2 708,-610.2 636,-610.2"/>
<text text-anchor="start" x="641" y="-618.8" font-family="Helvetica,sans-Serif" font-weight="bold" font-size="11.00" fill="#000000">forms</text>
<text text-anchor="start" x="673.5219" y="-618.3" font-family="Helvetica,sans-Serif" font-size="11.00" fill="#000000">[table]</text>
<polygon fill="none" stroke="#000000" points="636,-591.2 636,-610.2 708,-610.2 708,-591.2 636,-591.2"/>
<text text-anchor="start" x="639" y="-597.3" font-family="Helvetica,sans-Serif" font-size="11.00" fill="#000000">...</text>
<polygon fill="#ffffff" stroke="transparent" points="636,-572.2 636,-591.2 648,-591.2 648,-572.2 636,-572.2"/>
<polygon fill="none" stroke="#000000" points="636,-572.2 636,-591.2 648,-591.2 648,-572.2 636,-572.2"/>
<text text-anchor="start" x="638.9431" y="-578.3" font-family="Helvetica,sans-Serif" font-size="11.00" fill="#000000"> &#160;</text>
<polygon fill="#ffffff" stroke="transparent" points="648,-572.2 648,-591.2 686,-591.2 686,-572.2 648,-572.2"/>
<polygon fill="none" stroke="#000000" points="648,-572.2 648,-591.2 686,-591.2 686,-572.2 648,-572.2"/>
<text text-anchor="start" x="650.8053" y="-578.3" font-family="Helvetica,sans-Serif" font-size="11.00" fill="#000000">0 rows</text>
<polygon fill="#ffffff" stroke="transparent" points="686,-572.2 686,-591.2 708,-591.2 708,-572.2 686,-572.2"/>
<polygon fill="none" stroke="#000000" points="686,-572.2 686,-591.2 708,-591.2 708,-572.2 686,-572.2"/>
<text text-anchor="start" x="689.4053" y="-578.3" font-family="Helvetica,sans-Serif" font-size="11.00" fill="#000000">2 &gt;</text>
</a>
</g>
</g>
<!-- responses&#45;&gt;forms -->
<g id="edge13" class="edge">
<title>responses:w&#45;&gt;forms:e</title>
<path fill="none" stroke="#000000" d="M764.0166,-572.3575C742.8096,-579.2363 736.4656,-600.2 708,-600.2"/>
<polygon fill="#000000" stroke="#000000" points="770.5873,-571.3788 779.0304,-573.7607 774.5437,-570.7894 778.5,-570.2 778.5,-570.2 778.5,-570.2 774.5437,-570.7894 777.9696,-566.6393 770.5873,-571.3788 770.5873,-571.3788"/>
<ellipse fill="none" stroke="#000000" cx="767.4222" cy="-571.8503" rx="3.2" ry="3.2"/>
</g>
</g>
</svg>
