<?xml version="1.0" encoding="UTF-8" standalone="no"?>
<!DOCTYPE svg PUBLIC "-//W3C//DTD SVG 1.1//EN"
 "http://www.w3.org/Graphics/SVG/1.1/DTD/svg11.dtd">
<!-- Generated by graphviz version 2.40.1 (20161225.0304)
 -->
<!-- Title: oneDegreeRelationshipsDiagram Pages: 1 -->
<svg width="641pt" height="367pt"
 viewBox="0.00 0.00 641.00 366.70" xmlns="http://www.w3.org/2000/svg" xmlns:xlink="http://www.w3.org/1999/xlink">
<g id="graph0" class="graph" transform="scale(1 1) rotate(0) translate(4 362.7)">
<title>oneDegreeRelationshipsDiagram</title>
<polygon fill="#ffffff" stroke="transparent" points="-4,4 -4,-362.7 637,-362.7 637,4 -4,4"/>
<text text-anchor="middle" x="72.4936" y="-7.3" font-family="Helvetica,sans-Serif" font-size="11.00" fill="#000000">Generated by SchemaSpy</text>
<!-- options -->
<g id="node1" class="node">
<title>options</title>
<g id="a_node1"><a xlink:href="../../tables/options.html" xlink:title="options" target="_top">
<polygon fill="#ffffff" stroke="transparent" points="506.5,-249.7 506.5,-354.7 588.5,-354.7 588.5,-249.7 506.5,-249.7"/>
<polygon fill="#f5f5f5" stroke="transparent" points="506.5,-331.2 506.5,-354.2 588.5,-354.2 588.5,-331.2 506.5,-331.2"/>
<polygon fill="none" stroke="#000000" points="506.5,-331.2 506.5,-354.2 588.5,-354.2 588.5,-331.2 506.5,-331.2"/>
<text text-anchor="start" x="511.5" y="-339.8" font-family="Helvetica,sans-Serif" font-weight="bold" font-size="11.00" fill="#000000">options</text>
<text text-anchor="start" x="554.0219" y="-339.3" font-family="Helvetica,sans-Serif" font-size="11.00" fill="#000000">[table]</text>
<polygon fill="none" stroke="#000000" points="506.5,-309.2 506.5,-331.2 588.5,-331.2 588.5,-309.2 506.5,-309.2"/>
<image xlink:href="../../images/primaryKeys.png" width="11px" height="12px" preserveAspectRatio="xMinYMin meet" x="511.5" y="-326.2"/>
<text text-anchor="start" x="527.5" y="-316.3" font-family="Helvetica,sans-Serif" font-size="11.00" fill="#000000">id_options</text>
<polygon fill="none" stroke="#000000" points="506.5,-287.2 506.5,-309.2 588.5,-309.2 588.5,-287.2 506.5,-287.2"/>
<image xlink:href="../../images/foreignKeys.png" width="11px" height="12px" preserveAspectRatio="xMinYMin meet" x="511.5" y="-304.2"/>
<text text-anchor="start" x="527.5" y="-294.3" font-family="Helvetica,sans-Serif" font-size="11.00" fill="#000000">questionId</text>
<polygon fill="none" stroke="#000000" points="506.5,-268.2 506.5,-287.2 588.5,-287.2 588.5,-268.2 506.5,-268.2"/>
<text text-anchor="start" x="509.5" y="-274.3" font-family="Helvetica,sans-Serif" font-size="11.00" fill="#000000">...</text>
<polygon fill="#ffffff" stroke="transparent" points="506.5,-249.2 506.5,-268.2 532.5,-268.2 532.5,-249.2 506.5,-249.2"/>
<polygon fill="none" stroke="#000000" points="506.5,-249.2 506.5,-268.2 532.5,-268.2 532.5,-249.2 506.5,-249.2"/>
<text text-anchor="start" x="509.5" y="-255.3" font-family="Helvetica,sans-Serif" font-size="11.00" fill="#000000">&lt; 1</text>
<polygon fill="#ffffff" stroke="transparent" points="532.5,-249.2 532.5,-268.2 573.5,-268.2 573.5,-249.2 532.5,-249.2"/>
<polygon fill="none" stroke="#000000" points="532.5,-249.2 532.5,-268.2 573.5,-268.2 573.5,-249.2 532.5,-249.2"/>
<text text-anchor="start" x="538.1105" y="-255.3" font-family="Helvetica,sans-Serif" font-size="11.00" fill="#000000">0 rows</text>
<polygon fill="#ffffff" stroke="transparent" points="573.5,-249.2 573.5,-268.2 588.5,-268.2 588.5,-249.2 573.5,-249.2"/>
<polygon fill="none" stroke="#000000" points="573.5,-249.2 573.5,-268.2 588.5,-268.2 588.5,-249.2 573.5,-249.2"/>
<text text-anchor="start" x="579.3862" y="-255.3" font-family="Helvetica,sans-Serif" font-size="11.00" fill="#000000"> &#160;</text>
</a>
</g>
</g>
<!-- questions -->
<g id="node2" class="node">
<title>questions</title>
<g id="a_node2"><a xlink:href="../../tables/questions.html" xlink:title="questions" target="_top">
<polygon fill="#ffffff" stroke="transparent" points="142,-38.2 142,-260.2 421,-260.2 421,-38.2 142,-38.2"/>
<polygon fill="#f5f5f5" stroke="transparent" points="144.5,-235.2 144.5,-258.2 419.5,-258.2 419.5,-235.2 144.5,-235.2"/>
<polygon fill="none" stroke="#000000" points="144.5,-235.2 144.5,-258.2 419.5,-258.2 419.5,-235.2 144.5,-235.2"/>
<text text-anchor="start" x="149.5" y="-243.8" font-family="Helvetica,sans-Serif" font-weight="bold" font-size="11.00" fill="#000000">questions</text>
<text text-anchor="start" x="384.5437" y="-243.3" font-family="Helvetica,sans-Serif" font-size="11.00" fill="#000000">[table]</text>
<polygon fill="none" stroke="#000000" points="144.5,-213.2 144.5,-235.2 239.5,-235.2 239.5,-213.2 144.5,-213.2"/>
<image xlink:href="../../images/primaryKeys.png" width="11px" height="12px" preserveAspectRatio="xMinYMin meet" x="149.5" y="-230.2"/>
<text text-anchor="start" x="164.5" y="-220.3" font-family="Helvetica,sans-Serif" font-size="11.00" fill="#000000">id_questions</text>
<polygon fill="none" stroke="#000000" points="239.5,-213.2 239.5,-235.2 419.5,-235.2 419.5,-213.2 239.5,-213.2"/>
<text text-anchor="start" x="242.5" y="-220.9" font-family="Helvetica,sans-Serif" font-size="11.00" fill="#000000">serial[10]</text>
<polygon fill="none" stroke="#000000" points="144.5,-191.2 144.5,-213.2 239.5,-213.2 239.5,-191.2 144.5,-191.2"/>
<image xlink:href="../../images/foreignKeys.png" width="11px" height="12px" preserveAspectRatio="xMinYMin meet" x="149.5" y="-208.2"/>
<text text-anchor="start" x="164.5" y="-198.3" font-family="Helvetica,sans-Serif" font-size="11.00" fill="#000000">formId</text>
<polygon fill="none" stroke="#000000" points="239.5,-191.2 239.5,-213.2 419.5,-213.2 419.5,-191.2 239.5,-191.2"/>
<text text-anchor="start" x="242.5" y="-198.9" font-family="Helvetica,sans-Serif" font-size="11.00" fill="#000000">int4[10]</text>
<polygon fill="none" stroke="#000000" points="144.5,-169.2 144.5,-191.2 239.5,-191.2 239.5,-169.2 144.5,-169.2"/>
<text text-anchor="start" x="164.5" y="-176.3" font-family="Helvetica,sans-Serif" font-size="11.00" fill="#000000">title</text>
<polygon fill="none" stroke="#000000" points="239.5,-169.2 239.5,-191.2 419.5,-191.2 419.5,-169.2 239.5,-169.2"/>
<text text-anchor="start" x="242.5" y="-176.9" font-family="Helvetica,sans-Serif" font-size="11.00" fill="#000000">varchar[255]</text>
<polygon fill="none" stroke="#000000" points="144.5,-147.2 144.5,-169.2 239.5,-169.2 239.5,-147.2 144.5,-147.2"/>
<text text-anchor="start" x="164.5" y="-154.3" font-family="Helvetica,sans-Serif" font-size="11.00" fill="#000000">type</text>
<polygon fill="none" stroke="#000000" points="239.5,-147.2 239.5,-169.2 419.5,-169.2 419.5,-147.2 239.5,-147.2"/>
<text text-anchor="start" x="242.0709" y="-154.9" font-family="Helvetica,sans-Serif" font-size="11.00" fill="#000000">enum_questions_type[2147483647]</text>
<polygon fill="none" stroke="#000000" points="144.5,-125.2 144.5,-147.2 239.5,-147.2 239.5,-125.2 144.5,-125.2"/>
<text text-anchor="start" x="164.5" y="-132.3" font-family="Helvetica,sans-Serif" font-size="11.00" fill="#000000">required</text>
<polygon fill="none" stroke="#000000" points="239.5,-125.2 239.5,-147.2 419.5,-147.2 419.5,-125.2 239.5,-125.2"/>
<text text-anchor="start" x="242.5" y="-132.9" font-family="Helvetica,sans-Serif" font-size="11.00" fill="#000000">bool[1]</text>
<polygon fill="none" stroke="#000000" points="144.5,-103.2 144.5,-125.2 239.5,-125.2 239.5,-103.2 144.5,-103.2"/>
<text text-anchor="start" x="164.5" y="-110.3" font-family="Helvetica,sans-Serif" font-size="11.00" fill="#000000">order</text>
<polygon fill="none" stroke="#000000" points="239.5,-103.2 239.5,-125.2 419.5,-125.2 419.5,-103.2 239.5,-103.2"/>
<text text-anchor="start" x="242.5" y="-110.9" font-family="Helvetica,sans-Serif" font-size="11.00" fill="#000000">int4[10]</text>
<polygon fill="none" stroke="#000000" points="144.5,-81.2 144.5,-103.2 239.5,-103.2 239.5,-81.2 144.5,-81.2"/>
<text text-anchor="start" x="164.5" y="-88.3" font-family="Helvetica,sans-Serif" font-size="11.00" fill="#000000">createdAt</text>
<polygon fill="none" stroke="#000000" points="239.5,-81.2 239.5,-103.2 419.5,-103.2 419.5,-81.2 239.5,-81.2"/>
<text text-anchor="start" x="242.5" y="-88.9" font-family="Helvetica,sans-Serif" font-size="11.00" fill="#000000">timestamptz[35,6]</text>
<polygon fill="none" stroke="#000000" points="144.5,-59.2 144.5,-81.2 239.5,-81.2 239.5,-59.2 144.5,-59.2"/>
<text text-anchor="start" x="164.5" y="-66.3" font-family="Helvetica,sans-Serif" font-size="11.00" fill="#000000">updatedAt</text>
<polygon fill="none" stroke="#000000" points="239.5,-59.2 239.5,-81.2 419.5,-81.2 419.5,-59.2 239.5,-59.2"/>
<text text-anchor="start" x="242.5" y="-66.9" font-family="Helvetica,sans-Serif" font-size="11.00" fill="#000000">timestamptz[35,6]</text>
<polygon fill="#ffffff" stroke="transparent" points="144.5,-40.2 144.5,-59.2 183.5,-59.2 183.5,-40.2 144.5,-40.2"/>
<polygon fill="none" stroke="#000000" points="144.5,-40.2 144.5,-59.2 183.5,-59.2 183.5,-40.2 144.5,-40.2"/>
<text text-anchor="start" x="147.5" y="-46.3" font-family="Helvetica,sans-Serif" font-size="11.00" fill="#000000">&lt; 1</text>
<polygon fill="#ffffff" stroke="transparent" points="183.5,-40.2 183.5,-59.2 239.5,-59.2 239.5,-40.2 183.5,-40.2"/>
<polygon fill="none" stroke="#000000" points="183.5,-40.2 183.5,-59.2 239.5,-59.2 239.5,-40.2 183.5,-40.2"/>
<text text-anchor="start" x="204.1105" y="-46.3" font-family="Helvetica,sans-Serif" font-size="11.00" fill="#000000">0 rows</text>
<polygon fill="#ffffff" stroke="transparent" points="239.5,-40.2 239.5,-59.2 419.5,-59.2 419.5,-40.2 239.5,-40.2"/>
<polygon fill="none" stroke="#000000" points="239.5,-40.2 239.5,-59.2 419.5,-59.2 419.5,-40.2 239.5,-40.2"/>
<text text-anchor="start" x="400.9053" y="-46.3" font-family="Helvetica,sans-Serif" font-size="11.00" fill="#000000">2 &gt;</text>
<polygon fill="none" stroke="#000000" stroke-width="2" points="143,-39.2 143,-259.2 420,-259.2 420,-39.2 143,-39.2"/>
</a>
</g>
</g>
<!-- options&#45;&gt;questions -->
<g id="edge1" class="edge">
<title>options:w&#45;&gt;questions:e</title>
<path fill="none" stroke="#000000" d="M492.0159,-295.7379C458.1341,-282.8978 464.71,-224.2 419.5,-224.2"/>
<polygon fill="#000000" stroke="#000000" points="498.6131,-296.8593 505.8967,-301.7491 502.5566,-297.5296 506.5,-298.2 506.5,-298.2 506.5,-298.2 502.5566,-297.5296 507.1033,-294.6509 498.6131,-296.8593 498.6131,-296.8593"/>
<ellipse fill="none" stroke="#000000" cx="495.4584" cy="-296.323" rx="3.2" ry="3.2"/>
</g>
<!-- forms -->
<g id="node4" class="node">
<title>forms</title>
<g id="a_node4"><a xlink:href="../../tables/forms.html" xlink:title="forms" target="_top">
<polygon fill="#ffffff" stroke="transparent" points="8,-153.7 8,-236.7 93,-236.7 93,-153.7 8,-153.7"/>
<polygon fill="#f5f5f5" stroke="transparent" points="8.5,-213.2 8.5,-236.2 93.5,-236.2 93.5,-213.2 8.5,-213.2"/>
<polygon fill="none" stroke="#000000" points="8.5,-213.2 8.5,-236.2 93.5,-236.2 93.5,-213.2 8.5,-213.2"/>
<text text-anchor="start" x="13.5" y="-221.8" font-family="Helvetica,sans-Serif" font-weight="bold" font-size="11.00" fill="#000000">forms</text>
<text text-anchor="start" x="58.5437" y="-221.3" font-family="Helvetica,sans-Serif" font-size="11.00" fill="#000000">[table]</text>
<polygon fill="none" stroke="#000000" points="8.5,-191.2 8.5,-213.2 93.5,-213.2 93.5,-191.2 8.5,-191.2"/>
<image xlink:href="../../images/primaryKeys.png" width="11px" height="12px" preserveAspectRatio="xMinYMin meet" x="13.5" y="-208.2"/>
<text text-anchor="start" x="28.5" y="-198.3" font-family="Helvetica,sans-Serif" font-size="11.00" fill="#000000">id_forms</text>
<polygon fill="none" stroke="#000000" points="8.5,-172.2 8.5,-191.2 93.5,-191.2 93.5,-172.2 8.5,-172.2"/>
<text text-anchor="start" x="11.5" y="-178.3" font-family="Helvetica,sans-Serif" font-size="11.00" fill="#000000">...</text>
<polygon fill="#ffffff" stroke="transparent" points="8.5,-153.2 8.5,-172.2 27.5,-172.2 27.5,-153.2 8.5,-153.2"/>
<polygon fill="none" stroke="#000000" points="8.5,-153.2 8.5,-172.2 27.5,-172.2 27.5,-153.2 8.5,-153.2"/>
<text text-anchor="start" x="11.5" y="-159.3" font-family="Helvetica,sans-Serif" font-size="11.00" fill="#000000"> &#160;</text>
<polygon fill="#ffffff" stroke="transparent" points="27.5,-153.2 27.5,-172.2 68.5,-172.2 68.5,-153.2 27.5,-153.2"/>
<polygon fill="none" stroke="#000000" points="27.5,-153.2 27.5,-172.2 68.5,-172.2 68.5,-153.2 27.5,-153.2"/>
<text text-anchor="start" x="33.1105" y="-159.3" font-family="Helvetica,sans-Serif" font-size="11.00" fill="#000000">0 rows</text>
<polygon fill="#ffffff" stroke="transparent" points="68.5,-153.2 68.5,-172.2 93.5,-172.2 93.5,-153.2 68.5,-153.2"/>
<polygon fill="none" stroke="#000000" points="68.5,-153.2 68.5,-172.2 93.5,-172.2 93.5,-153.2 68.5,-153.2"/>
<text text-anchor="start" x="74.9053" y="-159.3" font-family="Helvetica,sans-Serif" font-size="11.00" fill="#000000">2 &gt;</text>
</a>
</g>
</g>
<!-- questions&#45;&gt;forms -->
<g id="edge3" class="edge">
<title>questions:w&#45;&gt;forms:e</title>
<path fill="none" stroke="#000000" d="M129.776,-202.2C117.7815,-202.2 110.3229,-202.2 93.5,-202.2"/>
<polygon fill="#000000" stroke="#000000" points="136.5,-202.2001 144.5,-205.8 140.5,-202.2 144.5,-202.2 144.5,-202.2 144.5,-202.2 140.5,-202.2 144.5,-198.6 136.5,-202.2001 136.5,-202.2001"/>
<ellipse fill="none" stroke="#000000" cx="133.3" cy="-202.2001" rx="3.2" ry="3.2"/>
</g>
<!-- question_responses -->
<g id="node3" class="node">
<title>question_responses</title>
<g id="a_node3"><a xlink:href="../../tables/question_responses.html" xlink:title="question_responses" target="_top">
<polygon fill="#ffffff" stroke="transparent" points="470,-101.7 470,-228.7 625,-228.7 625,-101.7 470,-101.7"/>
<polygon fill="#f5f5f5" stroke="transparent" points="470.5,-205.2 470.5,-228.2 625.5,-228.2 625.5,-205.2 470.5,-205.2"/>
<polygon fill="none" stroke="#000000" points="470.5,-205.2 470.5,-228.2 625.5,-228.2 625.5,-205.2 470.5,-205.2"/>
<text text-anchor="start" x="475.5" y="-213.8" font-family="Helvetica,sans-Serif" font-weight="bold" font-size="11.00" fill="#000000">question_responses</text>
<text text-anchor="start" x="591.0219" y="-213.3" font-family="Helvetica,sans-Serif" font-size="11.00" fill="#000000">[table]</text>
<polygon fill="none" stroke="#000000" points="470.5,-183.2 470.5,-205.2 625.5,-205.2 625.5,-183.2 470.5,-183.2"/>
<image xlink:href="../../images/primaryKeys.png" width="11px" height="12px" preserveAspectRatio="xMinYMin meet" x="475.5" y="-200.2"/>
<text text-anchor="start" x="499.5" y="-190.3" font-family="Helvetica,sans-Serif" font-size="11.00" fill="#000000">id_qresponse</text>
<polygon fill="none" stroke="#000000" points="470.5,-161.2 470.5,-183.2 625.5,-183.2 625.5,-161.2 470.5,-161.2"/>
<image xlink:href="../../images/foreignKeys.png" width="11px" height="12px" preserveAspectRatio="xMinYMin meet" x="475.5" y="-178.2"/>
<text text-anchor="start" x="499.5" y="-168.3" font-family="Helvetica,sans-Serif" font-size="11.00" fill="#000000">id_responses</text>
<polygon fill="none" stroke="#000000" points="470.5,-139.2 470.5,-161.2 625.5,-161.2 625.5,-139.2 470.5,-139.2"/>
<image xlink:href="../../images/foreignKeys.png" width="11px" height="12px" preserveAspectRatio="xMinYMin meet" x="475.5" y="-156.2"/>
<text text-anchor="start" x="499.5" y="-146.3" font-family="Helvetica,sans-Serif" font-size="11.00" fill="#000000">questionId</text>
<polygon fill="none" stroke="#000000" points="470.5,-120.2 470.5,-139.2 625.5,-139.2 625.5,-120.2 470.5,-120.2"/>
<text text-anchor="start" x="473.5" y="-126.3" font-family="Helvetica,sans-Serif" font-size="11.00" fill="#000000">...</text>
<polygon fill="#ffffff" stroke="transparent" points="470.5,-101.2 470.5,-120.2 533.5,-120.2 533.5,-101.2 470.5,-101.2"/>
<polygon fill="none" stroke="#000000" points="470.5,-101.2 470.5,-120.2 533.5,-120.2 533.5,-101.2 470.5,-101.2"/>
<text text-anchor="start" x="473.5" y="-107.3" font-family="Helvetica,sans-Serif" font-size="11.00" fill="#000000">&lt; 2</text>
<polygon fill="#ffffff" stroke="transparent" points="533.5,-101.2 533.5,-120.2 592.5,-120.2 592.5,-101.2 533.5,-101.2"/>
<polygon fill="none" stroke="#000000" points="533.5,-101.2 533.5,-120.2 592.5,-120.2 592.5,-101.2 533.5,-101.2"/>
<text text-anchor="start" x="557.1105" y="-107.3" font-family="Helvetica,sans-Serif" font-size="11.00" fill="#000000">0 rows</text>
<polygon fill="#ffffff" stroke="transparent" points="592.5,-101.2 592.5,-120.2 625.5,-120.2 625.5,-101.2 592.5,-101.2"/>
<polygon fill="none" stroke="#000000" points="592.5,-101.2 592.5,-120.2 625.5,-120.2 625.5,-101.2 592.5,-101.2"/>
<text text-anchor="start" x="616.3862" y="-107.3" font-family="Helvetica,sans-Serif" font-size="11.00" fill="#000000"> &#160;</text>
</a>
</g>
</g>
<!-- question_responses&#45;&gt;questions -->
<g id="edge2" class="edge">
<title>question_responses:w&#45;&gt;questions:e</title>
<path fill="none" stroke="#000000" d="M456.5503,-154.829C437.7607,-171.0294 453.3581,-224.2 419.5,-224.2"/>
<polygon fill="#000000" stroke="#000000" points="462.9071,-152.7196 471.6338,-153.6168 466.7036,-151.4598 470.5,-150.2 470.5,-150.2 470.5,-150.2 466.7036,-151.4598 469.3662,-146.7832 462.9071,-152.7196 462.9071,-152.7196"/>
<ellipse fill="none" stroke="#000000" cx="459.87" cy="-153.7275" rx="3.2" ry="3.2"/>
</g>
</g>
</svg>
