<?xml version="1.0" encoding="UTF-8" standalone="no"?>
<!DOCTYPE svg PUBLIC "-//W3C//DTD SVG 1.1//EN"
 "http://www.w3.org/Graphics/SVG/1.1/DTD/svg11.dtd">
<!-- Generated by graphviz version 2.40.1 (20161225.0304)
 -->
<!-- Title: oneDegreeRelationshipsDiagram Pages: 1 -->
<svg width="595pt" height="429pt"
 viewBox="0.00 0.00 595.00 429.20" xmlns="http://www.w3.org/2000/svg" xmlns:xlink="http://www.w3.org/1999/xlink">
<g id="graph0" class="graph" transform="scale(1 1) rotate(0) translate(4 425.2)">
<title>oneDegreeRelationshipsDiagram</title>
<polygon fill="#ffffff" stroke="transparent" points="-4,4 -4,-425.2 591,-425.2 591,4 -4,4"/>
<text text-anchor="middle" x="72.4936" y="-7.3" font-family="Helvetica,sans-Serif" font-size="11.00" fill="#000000">Generated by SchemaSpy</text>
<!-- question_responses -->
<g id="node1" class="node">
<title>question_responses</title>
<g id="a_node1"><a xlink:href="../../tables/question_responses.html" xlink:title="question_responses" target="_top">
<polygon fill="#ffffff" stroke="transparent" points="424,-274.2 424,-401.2 579,-401.2 579,-274.2 424,-274.2"/>
<polygon fill="#f5f5f5" stroke="transparent" points="424.5,-377.7 424.5,-400.7 579.5,-400.7 579.5,-377.7 424.5,-377.7"/>
<polygon fill="none" stroke="#000000" points="424.5,-377.7 424.5,-400.7 579.5,-400.7 579.5,-377.7 424.5,-377.7"/>
<text text-anchor="start" x="429.5" y="-386.3" font-family="Helvetica,sans-Serif" font-weight="bold" font-size="11.00" fill="#000000">question_responses</text>
<text text-anchor="start" x="545.0219" y="-385.8" font-family="Helvetica,sans-Serif" font-size="11.00" fill="#000000">[table]</text>
<polygon fill="none" stroke="#000000" points="424.5,-355.7 424.5,-377.7 579.5,-377.7 579.5,-355.7 424.5,-355.7"/>
<image xlink:href="../../images/primaryKeys.png" width="11px" height="12px" preserveAspectRatio="xMinYMin meet" x="429.5" y="-372.7"/>
<text text-anchor="start" x="453.5" y="-362.8" font-family="Helvetica,sans-Serif" font-size="11.00" fill="#000000">id_qresponse</text>
<polygon fill="none" stroke="#000000" points="424.5,-333.7 424.5,-355.7 579.5,-355.7 579.5,-333.7 424.5,-333.7"/>
<image xlink:href="../../images/foreignKeys.png" width="11px" height="12px" preserveAspectRatio="xMinYMin meet" x="429.5" y="-350.7"/>
<text text-anchor="start" x="453.5" y="-340.8" font-family="Helvetica,sans-Serif" font-size="11.00" fill="#000000">id_responses</text>
<polygon fill="none" stroke="#000000" points="424.5,-311.7 424.5,-333.7 579.5,-333.7 579.5,-311.7 424.5,-311.7"/>
<image xlink:href="../../images/foreignKeys.png" width="11px" height="12px" preserveAspectRatio="xMinYMin meet" x="429.5" y="-328.7"/>
<text text-anchor="start" x="453.5" y="-318.8" font-family="Helvetica,sans-Serif" font-size="11.00" fill="#000000">questionId</text>
<polygon fill="none" stroke="#000000" points="424.5,-292.7 424.5,-311.7 579.5,-311.7 579.5,-292.7 424.5,-292.7"/>
<text text-anchor="start" x="427.5" y="-298.8" font-family="Helvetica,sans-Serif" font-size="11.00" fill="#000000">...</text>
<polygon fill="#ffffff" stroke="transparent" points="424.5,-273.7 424.5,-292.7 487.5,-292.7 487.5,-273.7 424.5,-273.7"/>
<polygon fill="none" stroke="#000000" points="424.5,-273.7 424.5,-292.7 487.5,-292.7 487.5,-273.7 424.5,-273.7"/>
<text text-anchor="start" x="427.5" y="-279.8" font-family="Helvetica,sans-Serif" font-size="11.00" fill="#000000">&lt; 2</text>
<polygon fill="#ffffff" stroke="transparent" points="487.5,-273.7 487.5,-292.7 546.5,-292.7 546.5,-273.7 487.5,-273.7"/>
<polygon fill="none" stroke="#000000" points="487.5,-273.7 487.5,-292.7 546.5,-292.7 546.5,-273.7 487.5,-273.7"/>
<text text-anchor="start" x="511.1105" y="-279.8" font-family="Helvetica,sans-Serif" font-size="11.00" fill="#000000">0 rows</text>
<polygon fill="#ffffff" stroke="transparent" points="546.5,-273.7 546.5,-292.7 579.5,-292.7 579.5,-273.7 546.5,-273.7"/>
<polygon fill="none" stroke="#000000" points="546.5,-273.7 546.5,-292.7 579.5,-292.7 579.5,-273.7 546.5,-273.7"/>
<text text-anchor="start" x="570.3862" y="-279.8" font-family="Helvetica,sans-Serif" font-size="11.00" fill="#000000"> &#160;</text>
</a>
</g>
</g>
<!-- responses -->
<g id="node2" class="node">
<title>responses</title>
<g id="a_node2"><a xlink:href="../../tables/responses.html" xlink:title="responses" target="_top">
<polygon fill="#ffffff" stroke="transparent" points="181,-158.7 181,-380.7 375,-380.7 375,-158.7 181,-158.7"/>
<polygon fill="#f5f5f5" stroke="transparent" points="183,-355.7 183,-378.7 373,-378.7 373,-355.7 183,-355.7"/>
<polygon fill="none" stroke="#000000" points="183,-355.7 183,-378.7 373,-378.7 373,-355.7 183,-355.7"/>
<text text-anchor="start" x="188" y="-364.3" font-family="Helvetica,sans-Serif" font-weight="bold" font-size="11.00" fill="#000000">responses</text>
<text text-anchor="start" x="338.0437" y="-363.8" font-family="Helvetica,sans-Serif" font-size="11.00" fill="#000000">[table]</text>
<polygon fill="none" stroke="#000000" points="183,-333.7 183,-355.7 281,-355.7 281,-333.7 183,-333.7"/>
<image xlink:href="../../images/primaryKeys.png" width="11px" height="12px" preserveAspectRatio="xMinYMin meet" x="188" y="-350.7"/>
<text text-anchor="start" x="203" y="-340.8" font-family="Helvetica,sans-Serif" font-size="11.00" fill="#000000">id_responses</text>
<polygon fill="none" stroke="#000000" points="281,-333.7 281,-355.7 373,-355.7 373,-333.7 281,-333.7"/>
<text text-anchor="start" x="284" y="-341.4" font-family="Helvetica,sans-Serif" font-size="11.00" fill="#000000">serial[10]</text>
<polygon fill="none" stroke="#000000" points="183,-311.7 183,-333.7 281,-333.7 281,-311.7 183,-311.7"/>
<image xlink:href="../../images/foreignKeys.png" width="11px" height="12px" preserveAspectRatio="xMinYMin meet" x="188" y="-328.7"/>
<text text-anchor="start" x="203" y="-318.8" font-family="Helvetica,sans-Serif" font-size="11.00" fill="#000000">formId</text>
<polygon fill="none" stroke="#000000" points="281,-311.7 281,-333.7 373,-333.7 373,-311.7 281,-311.7"/>
<text text-anchor="start" x="284" y="-319.4" font-family="Helvetica,sans-Serif" font-size="11.00" fill="#000000">int4[10]</text>
<polygon fill="none" stroke="#000000" points="183,-289.7 183,-311.7 281,-311.7 281,-289.7 183,-289.7"/>
<text text-anchor="start" x="203" y="-296.8" font-family="Helvetica,sans-Serif" font-size="11.00" fill="#000000">submittedAt</text>
<polygon fill="none" stroke="#000000" points="281,-289.7 281,-311.7 373,-311.7 373,-289.7 281,-289.7"/>
<text text-anchor="start" x="283.6023" y="-297.4" font-family="Helvetica,sans-Serif" font-size="11.00" fill="#000000">timestamptz[35,6]</text>
<polygon fill="none" stroke="#000000" points="183,-267.7 183,-289.7 281,-289.7 281,-267.7 183,-267.7"/>
<image xlink:href="../../images/foreignKeys.png" width="11px" height="12px" preserveAspectRatio="xMinYMin meet" x="188" y="-284.7"/>
<text text-anchor="start" x="203" y="-274.8" font-family="Helvetica,sans-Serif" font-size="11.00" fill="#000000">submittedBy</text>
<polygon fill="none" stroke="#000000" points="281,-267.7 281,-289.7 373,-289.7 373,-267.7 281,-267.7"/>
<text text-anchor="start" x="284" y="-275.4" font-family="Helvetica,sans-Serif" font-size="11.00" fill="#000000">int4[10]</text>
<polygon fill="none" stroke="#000000" points="183,-245.7 183,-267.7 281,-267.7 281,-245.7 183,-245.7"/>
<image xlink:href="../../images/foreignKeys.png" width="11px" height="12px" preserveAspectRatio="xMinYMin meet" x="188" y="-262.7"/>
<text text-anchor="start" x="203" y="-252.8" font-family="Helvetica,sans-Serif" font-size="11.00" fill="#000000">assignedBy</text>
<polygon fill="none" stroke="#000000" points="281,-245.7 281,-267.7 373,-267.7 373,-245.7 281,-245.7"/>
<text text-anchor="start" x="284" y="-253.4" font-family="Helvetica,sans-Serif" font-size="11.00" fill="#000000">int4[10]</text>
<polygon fill="none" stroke="#000000" points="183,-223.7 183,-245.7 281,-245.7 281,-223.7 183,-223.7"/>
<text text-anchor="start" x="203" y="-230.8" font-family="Helvetica,sans-Serif" font-size="11.00" fill="#000000">score</text>
<polygon fill="none" stroke="#000000" points="281,-223.7 281,-245.7 373,-245.7 373,-223.7 281,-223.7"/>
<text text-anchor="start" x="284" y="-231.4" font-family="Helvetica,sans-Serif" font-size="11.00" fill="#000000">numeric[10,2]</text>
<polygon fill="none" stroke="#000000" points="183,-201.7 183,-223.7 281,-223.7 281,-201.7 183,-201.7"/>
<text text-anchor="start" x="203" y="-208.8" font-family="Helvetica,sans-Serif" font-size="11.00" fill="#000000">createdAt</text>
<polygon fill="none" stroke="#000000" points="281,-201.7 281,-223.7 373,-223.7 373,-201.7 281,-201.7"/>
<text text-anchor="start" x="283.6023" y="-209.4" font-family="Helvetica,sans-Serif" font-size="11.00" fill="#000000">timestamptz[35,6]</text>
<polygon fill="none" stroke="#000000" points="183,-179.7 183,-201.7 281,-201.7 281,-179.7 183,-179.7"/>
<text text-anchor="start" x="203" y="-186.8" font-family="Helvetica,sans-Serif" font-size="11.00" fill="#000000">updatedAt</text>
<polygon fill="none" stroke="#000000" points="281,-179.7 281,-201.7 373,-201.7 373,-179.7 281,-179.7"/>
<text text-anchor="start" x="283.6023" y="-187.4" font-family="Helvetica,sans-Serif" font-size="11.00" fill="#000000">timestamptz[35,6]</text>
<polygon fill="#ffffff" stroke="transparent" points="183,-160.7 183,-179.7 223,-179.7 223,-160.7 183,-160.7"/>
<polygon fill="none" stroke="#000000" points="183,-160.7 183,-179.7 223,-179.7 223,-160.7 183,-160.7"/>
<text text-anchor="start" x="186" y="-166.8" font-family="Helvetica,sans-Serif" font-size="11.00" fill="#000000">&lt; 3</text>
<polygon fill="#ffffff" stroke="transparent" points="223,-160.7 223,-179.7 281,-179.7 281,-160.7 223,-160.7"/>
<polygon fill="none" stroke="#000000" points="223,-160.7 223,-179.7 281,-179.7 281,-160.7 223,-160.7"/>
<text text-anchor="start" x="245.6105" y="-166.8" font-family="Helvetica,sans-Serif" font-size="11.00" fill="#000000">0 rows</text>
<polygon fill="#ffffff" stroke="transparent" points="281,-160.7 281,-179.7 373,-179.7 373,-160.7 281,-160.7"/>
<polygon fill="none" stroke="#000000" points="281,-160.7 281,-179.7 373,-179.7 373,-160.7 281,-160.7"/>
<text text-anchor="start" x="354.4053" y="-166.8" font-family="Helvetica,sans-Serif" font-size="11.00" fill="#000000">1 &gt;</text>
<polygon fill="none" stroke="#000000" stroke-width="2" points="182,-159.7 182,-379.7 374,-379.7 374,-159.7 182,-159.7"/>
</a>
</g>
</g>
<!-- question_responses&#45;&gt;responses -->
<g id="edge1" class="edge">
<title>question_responses:w&#45;&gt;responses:e</title>
<path fill="none" stroke="#000000" d="M410.0156,-344.7C397.6771,-344.7 390.1667,-344.7 373,-344.7"/>
<polygon fill="#000000" stroke="#000000" points="416.5,-344.7001 424.5,-348.3 420.5,-344.7 424.5,-344.7 424.5,-344.7 424.5,-344.7 420.5,-344.7 424.5,-341.1 416.5,-344.7001 416.5,-344.7001"/>
<ellipse fill="none" stroke="#000000" cx="413.3" cy="-344.7001" rx="3.2" ry="3.2"/>
</g>
<!-- users -->
<g id="node3" class="node">
<title>users</title>
<g id="a_node3"><a xlink:href="../../tables/users.html" xlink:title="users" target="_top">
<polygon fill="#ffffff" stroke="transparent" points="30,-38.2 30,-143.2 110,-143.2 110,-38.2 30,-38.2"/>
<polygon fill="#f5f5f5" stroke="transparent" points="30,-119.7 30,-142.7 110,-142.7 110,-119.7 30,-119.7"/>
<polygon fill="none" stroke="#000000" points="30,-119.7 30,-142.7 110,-142.7 110,-119.7 30,-119.7"/>
<text text-anchor="start" x="35" y="-128.3" font-family="Helvetica,sans-Serif" font-weight="bold" font-size="11.00" fill="#000000">users</text>
<text text-anchor="start" x="75.0437" y="-127.8" font-family="Helvetica,sans-Serif" font-size="11.00" fill="#000000">[table]</text>
<polygon fill="none" stroke="#000000" points="30,-97.7 30,-119.7 110,-119.7 110,-97.7 30,-97.7"/>
<image xlink:href="../../images/primaryKeys.png" width="11px" height="12px" preserveAspectRatio="xMinYMin meet" x="35" y="-114.7"/>
<text text-anchor="start" x="50" y="-104.8" font-family="Helvetica,sans-Serif" font-size="11.00" fill="#000000">id_user</text>
<polygon fill="#ffffff" stroke="transparent" points="30,-75.7 30,-97.7 110,-97.7 110,-75.7 30,-75.7"/>
<polygon fill="none" stroke="#000000" points="30,-75.7 30,-97.7 110,-97.7 110,-75.7 30,-75.7"/>
<text text-anchor="start" x="50" y="-82.8" font-family="Helvetica,sans-Serif" font-size="11.00" fill="#000000">username</text>
<polygon fill="none" stroke="#000000" points="30,-56.7 30,-75.7 110,-75.7 110,-56.7 30,-56.7"/>
<text text-anchor="start" x="33" y="-62.8" font-family="Helvetica,sans-Serif" font-size="11.00" fill="#000000">...</text>
<polygon fill="#ffffff" stroke="transparent" points="30,-37.7 30,-56.7 46,-56.7 46,-37.7 30,-37.7"/>
<polygon fill="none" stroke="#000000" points="30,-37.7 30,-56.7 46,-56.7 46,-37.7 30,-37.7"/>
<text text-anchor="start" x="33" y="-43.8" font-family="Helvetica,sans-Serif" font-size="11.00" fill="#000000"> &#160;</text>
<polygon fill="#ffffff" stroke="transparent" points="46,-37.7 46,-56.7 86,-56.7 86,-37.7 46,-37.7"/>
<polygon fill="none" stroke="#000000" points="46,-37.7 46,-56.7 86,-56.7 86,-37.7 46,-37.7"/>
<text text-anchor="start" x="50.6105" y="-43.8" font-family="Helvetica,sans-Serif" font-size="11.00" fill="#000000">0 rows</text>
<polygon fill="#ffffff" stroke="transparent" points="86,-37.7 86,-56.7 110,-56.7 110,-37.7 86,-37.7"/>
<polygon fill="none" stroke="#000000" points="86,-37.7 86,-56.7 110,-56.7 110,-37.7 86,-37.7"/>
<text text-anchor="start" x="91.4053" y="-43.8" font-family="Helvetica,sans-Serif" font-size="11.00" fill="#000000">4 &gt;</text>
</a>
</g>
</g>
<!-- responses&#45;&gt;users -->
<g id="edge2" class="edge">
<title>responses:w&#45;&gt;users:e</title>
<path fill="none" stroke="#000000" d="M168.6691,-254.2547C120.0287,-235.0118 177.7573,-108.7 110,-108.7"/>
<polygon fill="#000000" stroke="#000000" points="175.114,-255.3543 182.3945,-260.2487 179.057,-256.0272 183,-256.7 183,-256.7 183,-256.7 179.057,-256.0272 183.6055,-253.1513 175.114,-255.3543 175.114,-255.3543"/>
<ellipse fill="none" stroke="#000000" cx="171.9596" cy="-254.8161" rx="3.2" ry="3.2"/>
</g>
<!-- forms -->
<g id="node4" class="node">
<title>forms</title>
<g id="a_node4"><a xlink:href="../../tables/forms.html" xlink:title="forms" target="_top">
<polygon fill="#ffffff" stroke="transparent" points="27.5,-334.2 27.5,-417.2 112.5,-417.2 112.5,-334.2 27.5,-334.2"/>
<polygon fill="#f5f5f5" stroke="transparent" points="28,-393.7 28,-416.7 113,-416.7 113,-393.7 28,-393.7"/>
<polygon fill="none" stroke="#000000" points="28,-393.7 28,-416.7 113,-416.7 113,-393.7 28,-393.7"/>
<text text-anchor="start" x="33" y="-402.3" font-family="Helvetica,sans-Serif" font-weight="bold" font-size="11.00" fill="#000000">forms</text>
<text text-anchor="start" x="78.0437" y="-401.8" font-family="Helvetica,sans-Serif" font-size="11.00" fill="#000000">[table]</text>
<polygon fill="none" stroke="#000000" points="28,-371.7 28,-393.7 113,-393.7 113,-371.7 28,-371.7"/>
<image xlink:href="../../images/primaryKeys.png" width="11px" height="12px" preserveAspectRatio="xMinYMin meet" x="33" y="-388.7"/>
<text text-anchor="start" x="48" y="-378.8" font-family="Helvetica,sans-Serif" font-size="11.00" fill="#000000">id_forms</text>
<polygon fill="none" stroke="#000000" points="28,-352.7 28,-371.7 113,-371.7 113,-352.7 28,-352.7"/>
<text text-anchor="start" x="31" y="-358.8" font-family="Helvetica,sans-Serif" font-size="11.00" fill="#000000">...</text>
<polygon fill="#ffffff" stroke="transparent" points="28,-333.7 28,-352.7 47,-352.7 47,-333.7 28,-333.7"/>
<polygon fill="none" stroke="#000000" points="28,-333.7 28,-352.7 47,-352.7 47,-333.7 28,-333.7"/>
<text text-anchor="start" x="31" y="-339.8" font-family="Helvetica,sans-Serif" font-size="11.00" fill="#000000"> &#160;</text>
<polygon fill="#ffffff" stroke="transparent" points="47,-333.7 47,-352.7 88,-352.7 88,-333.7 47,-333.7"/>
<polygon fill="none" stroke="#000000" points="47,-333.7 47,-352.7 88,-352.7 88,-333.7 47,-333.7"/>
<text text-anchor="start" x="52.6105" y="-339.8" font-family="Helvetica,sans-Serif" font-size="11.00" fill="#000000">0 rows</text>
<polygon fill="#ffffff" stroke="transparent" points="88,-333.7 88,-352.7 113,-352.7 113,-333.7 88,-333.7"/>
<polygon fill="none" stroke="#000000" points="88,-333.7 88,-352.7 113,-352.7 113,-333.7 88,-333.7"/>
<text text-anchor="start" x="94.4053" y="-339.8" font-family="Helvetica,sans-Serif" font-size="11.00" fill="#000000">2 &gt;</text>
</a>
</g>
</g>
<!-- responses&#45;&gt;forms -->
<g id="edge3" class="edge">
<title>responses:w&#45;&gt;forms:e</title>
<path fill="none" stroke="#000000" d="M168.891,-325.7579C144.3029,-337.9847 148.3736,-382.7 113,-382.7"/>
<polygon fill="#000000" stroke="#000000" points="175.1815,-324.3946 183.7626,-326.2183 179.0908,-323.5473 183,-322.7 183,-322.7 183,-322.7 179.0908,-323.5473 182.2374,-319.1817 175.1815,-324.3946 175.1815,-324.3946"/>
<ellipse fill="none" stroke="#000000" cx="172.0541" cy="-325.0724" rx="3.2" ry="3.2"/>
</g>
<!-- patients -->
<g id="node5" class="node">
<title>patients</title>
<g id="a_node5"><a xlink:href="../../tables/patients.html" xlink:title="patients" target="_top">
<polygon fill="#ffffff" stroke="transparent" points="8,-164.2 8,-313.2 132,-313.2 132,-164.2 8,-164.2"/>
<polygon fill="#f5f5f5" stroke="transparent" points="8,-289.7 8,-312.7 132,-312.7 132,-289.7 8,-289.7"/>
<polygon fill="none" stroke="#000000" points="8,-289.7 8,-312.7 132,-312.7 132,-289.7 8,-289.7"/>
<text text-anchor="start" x="13" y="-298.3" font-family="Helvetica,sans-Serif" font-weight="bold" font-size="11.00" fill="#000000">patients</text>
<text text-anchor="start" x="97.0437" y="-297.8" font-family="Helvetica,sans-Serif" font-size="11.00" fill="#000000">[table]</text>
<polygon fill="none" stroke="#000000" points="8,-267.7 8,-289.7 132,-289.7 132,-267.7 8,-267.7"/>
<image xlink:href="../../images/primaryKeys.png" width="11px" height="12px" preserveAspectRatio="xMinYMin meet" x="13" y="-284.7"/>
<text text-anchor="start" x="28" y="-274.8" font-family="Helvetica,sans-Serif" font-size="11.00" fill="#000000">id_patient</text>
<polygon fill="#ffffff" stroke="transparent" points="8,-245.7 8,-267.7 132,-267.7 132,-245.7 8,-245.7"/>
<polygon fill="none" stroke="#000000" points="8,-245.7 8,-267.7 132,-267.7 132,-245.7 8,-245.7"/>
<text text-anchor="start" x="28" y="-252.8" font-family="Helvetica,sans-Serif" font-size="11.00" fill="#000000">service_id</text>
<polygon fill="none" stroke="#000000" points="8,-223.7 8,-245.7 132,-245.7 132,-223.7 8,-223.7"/>
<image xlink:href="../../images/foreignKeys.png" width="11px" height="12px" preserveAspectRatio="xMinYMin meet" x="13" y="-240.7"/>
<text text-anchor="start" x="28" y="-230.8" font-family="Helvetica,sans-Serif" font-size="11.00" fill="#000000">name</text>
<polygon fill="none" stroke="#000000" points="8,-201.7 8,-223.7 132,-223.7 132,-201.7 8,-201.7"/>
<image xlink:href="../../images/foreignKeys.png" width="11px" height="12px" preserveAspectRatio="xMinYMin meet" x="13" y="-218.7"/>
<text text-anchor="start" x="28" y="-208.8" font-family="Helvetica,sans-Serif" font-size="11.00" fill="#000000">id_cid</text>
<polygon fill="none" stroke="#000000" points="8,-182.7 8,-201.7 132,-201.7 132,-182.7 8,-182.7"/>
<text text-anchor="start" x="11" y="-188.8" font-family="Helvetica,sans-Serif" font-size="11.00" fill="#000000">...</text>
<polygon fill="#ffffff" stroke="transparent" points="8,-163.7 8,-182.7 51,-182.7 51,-163.7 8,-163.7"/>
<polygon fill="none" stroke="#000000" points="8,-163.7 8,-182.7 51,-182.7 51,-163.7 8,-163.7"/>
<text text-anchor="start" x="11" y="-169.8" font-family="Helvetica,sans-Serif" font-size="11.00" fill="#000000">&lt; 1</text>
<polygon fill="#ffffff" stroke="transparent" points="51,-163.7 51,-182.7 100,-182.7 100,-163.7 51,-163.7"/>
<polygon fill="none" stroke="#000000" points="51,-163.7 51,-182.7 100,-182.7 100,-163.7 51,-163.7"/>
<text text-anchor="start" x="64.6105" y="-169.8" font-family="Helvetica,sans-Serif" font-size="11.00" fill="#000000">0 rows</text>
<polygon fill="#ffffff" stroke="transparent" points="100,-163.7 100,-182.7 132,-182.7 132,-163.7 100,-163.7"/>
<polygon fill="none" stroke="#000000" points="100,-163.7 100,-182.7 132,-182.7 132,-163.7 100,-163.7"/>
<text text-anchor="start" x="113.4053" y="-169.8" font-family="Helvetica,sans-Serif" font-size="11.00" fill="#000000">5 &gt;</text>
</a>
</g>
</g>
<!-- responses&#45;&gt;patients -->
<g id="edge4" class="edge">
<title>responses:w&#45;&gt;patients:e</title>
<path fill="none" stroke="#000000" d="M168.276,-278.7C156.2815,-278.7 148.8229,-278.7 132,-278.7"/>
<polygon fill="#000000" stroke="#000000" points="175,-278.7001 183,-282.3 179,-278.7 183,-278.7 183,-278.7 183,-278.7 179,-278.7 183,-275.1 175,-278.7001 175,-278.7001"/>
<ellipse fill="none" stroke="#000000" cx="171.8" cy="-278.7001" rx="3.2" ry="3.2"/>
</g>
</g>
</svg>
