<?xml version="1.0" encoding="UTF-8" standalone="no"?>
<!DOCTYPE svg PUBLIC "-//W3C//DTD SVG 1.1//EN"
 "http://www.w3.org/Graphics/SVG/1.1/DTD/svg11.dtd">
<!-- Generated by graphviz version 2.40.1 (20161225.0304)
 -->
<!-- Title: twoDegreesRelationshipsDiagram Pages: 1 -->
<svg width="877pt" height="663pt"
 viewBox="0.00 0.00 877.00 663.19" xmlns="http://www.w3.org/2000/svg" xmlns:xlink="http://www.w3.org/1999/xlink">
<g id="graph0" class="graph" transform="scale(1 1) rotate(0) translate(4 659.1893)">
<title>twoDegreesRelationshipsDiagram</title>
<polygon fill="#ffffff" stroke="transparent" points="-4,4 -4,-659.1893 873,-659.1893 873,4 -4,4"/>
<text text-anchor="middle" x="72.4936" y="-7.3" font-family="Helvetica,sans-Serif" font-size="11.00" fill="#000000">Generated by SchemaSpy</text>
<!-- chats -->
<g id="node1" class="node">
<title>chats</title>
<g id="a_node1"><a xlink:href="../../tables/chats.html" xlink:title="chats" target="_top">
<polygon fill="#ffffff" stroke="transparent" points="318.5,-456.2 318.5,-517.2 398.5,-517.2 398.5,-456.2 318.5,-456.2"/>
<polygon fill="#f5f5f5" stroke="transparent" points="318.5,-493.7 318.5,-516.7 398.5,-516.7 398.5,-493.7 318.5,-493.7"/>
<polygon fill="none" stroke="#000000" points="318.5,-493.7 318.5,-516.7 398.5,-516.7 398.5,-493.7 318.5,-493.7"/>
<text text-anchor="start" x="323.5" y="-502.3" font-family="Helvetica,sans-Serif" font-weight="bold" font-size="11.00" fill="#000000">chats</text>
<text text-anchor="start" x="363.5437" y="-501.8" font-family="Helvetica,sans-Serif" font-size="11.00" fill="#000000">[table]</text>
<polygon fill="none" stroke="#000000" points="318.5,-474.7 318.5,-493.7 398.5,-493.7 398.5,-474.7 318.5,-474.7"/>
<text text-anchor="start" x="321.5" y="-480.8" font-family="Helvetica,sans-Serif" font-size="11.00" fill="#000000">...</text>
<polygon fill="#ffffff" stroke="transparent" points="318.5,-455.7 318.5,-474.7 339.5,-474.7 339.5,-455.7 318.5,-455.7"/>
<polygon fill="none" stroke="#000000" points="318.5,-455.7 318.5,-474.7 339.5,-474.7 339.5,-455.7 318.5,-455.7"/>
<text text-anchor="start" x="321.2027" y="-461.8" font-family="Helvetica,sans-Serif" font-size="11.00" fill="#000000">&lt; 1</text>
<polygon fill="#ffffff" stroke="transparent" points="339.5,-455.7 339.5,-474.7 377.5,-474.7 377.5,-455.7 339.5,-455.7"/>
<polygon fill="none" stroke="#000000" points="339.5,-455.7 339.5,-474.7 377.5,-474.7 377.5,-455.7 339.5,-455.7"/>
<text text-anchor="start" x="342.3053" y="-461.8" font-family="Helvetica,sans-Serif" font-size="11.00" fill="#000000">0 rows</text>
<polygon fill="#ffffff" stroke="transparent" points="377.5,-455.7 377.5,-474.7 398.5,-474.7 398.5,-455.7 377.5,-455.7"/>
<polygon fill="none" stroke="#000000" points="377.5,-455.7 377.5,-474.7 398.5,-474.7 398.5,-455.7 377.5,-455.7"/>
<text text-anchor="start" x="380.2027" y="-461.8" font-family="Helvetica,sans-Serif" font-size="11.00" fill="#000000">1 &gt;</text>
</a>
</g>
</g>
<!-- patients -->
<g id="node2" class="node">
<title>patients</title>
<g id="a_node2"><a xlink:href="../../tables/patients.html" xlink:title="patients" target="_top">
<polygon fill="#ffffff" stroke="transparent" points="143,-451.2 143,-600.2 267,-600.2 267,-451.2 143,-451.2"/>
<polygon fill="#f5f5f5" stroke="transparent" points="143,-576.7 143,-599.7 267,-599.7 267,-576.7 143,-576.7"/>
<polygon fill="none" stroke="#000000" points="143,-576.7 143,-599.7 267,-599.7 267,-576.7 143,-576.7"/>
<text text-anchor="start" x="148" y="-585.3" font-family="Helvetica,sans-Serif" font-weight="bold" font-size="11.00" fill="#000000">patients</text>
<text text-anchor="start" x="232.0437" y="-584.8" font-family="Helvetica,sans-Serif" font-size="11.00" fill="#000000">[table]</text>
<polygon fill="none" stroke="#000000" points="143,-554.7 143,-576.7 267,-576.7 267,-554.7 143,-554.7"/>
<image xlink:href="../../images/primaryKeys.png" width="11px" height="12px" preserveAspectRatio="xMinYMin meet" x="148" y="-571.7"/>
<text text-anchor="start" x="163" y="-561.8" font-family="Helvetica,sans-Serif" font-size="11.00" fill="#000000">id_patient</text>
<polygon fill="#ffffff" stroke="transparent" points="143,-532.7 143,-554.7 267,-554.7 267,-532.7 143,-532.7"/>
<polygon fill="none" stroke="#000000" points="143,-532.7 143,-554.7 267,-554.7 267,-532.7 143,-532.7"/>
<text text-anchor="start" x="163" y="-539.8" font-family="Helvetica,sans-Serif" font-size="11.00" fill="#000000">service_id</text>
<polygon fill="none" stroke="#000000" points="143,-510.7 143,-532.7 267,-532.7 267,-510.7 143,-510.7"/>
<image xlink:href="../../images/foreignKeys.png" width="11px" height="12px" preserveAspectRatio="xMinYMin meet" x="148" y="-527.7"/>
<text text-anchor="start" x="163" y="-517.8" font-family="Helvetica,sans-Serif" font-size="11.00" fill="#000000">name</text>
<polygon fill="none" stroke="#000000" points="143,-488.7 143,-510.7 267,-510.7 267,-488.7 143,-488.7"/>
<image xlink:href="../../images/foreignKeys.png" width="11px" height="12px" preserveAspectRatio="xMinYMin meet" x="148" y="-505.7"/>
<text text-anchor="start" x="163" y="-495.8" font-family="Helvetica,sans-Serif" font-size="11.00" fill="#000000">id_cid</text>
<polygon fill="none" stroke="#000000" points="143,-469.7 143,-488.7 267,-488.7 267,-469.7 143,-469.7"/>
<text text-anchor="start" x="146" y="-475.8" font-family="Helvetica,sans-Serif" font-size="11.00" fill="#000000">...</text>
<polygon fill="#ffffff" stroke="transparent" points="143,-450.7 143,-469.7 186,-469.7 186,-450.7 143,-450.7"/>
<polygon fill="none" stroke="#000000" points="143,-450.7 143,-469.7 186,-469.7 186,-450.7 143,-450.7"/>
<text text-anchor="start" x="146" y="-456.8" font-family="Helvetica,sans-Serif" font-size="11.00" fill="#000000">&lt; 1</text>
<polygon fill="#ffffff" stroke="transparent" points="186,-450.7 186,-469.7 235,-469.7 235,-450.7 186,-450.7"/>
<polygon fill="none" stroke="#000000" points="186,-450.7 186,-469.7 235,-469.7 235,-450.7 186,-450.7"/>
<text text-anchor="start" x="199.6105" y="-456.8" font-family="Helvetica,sans-Serif" font-size="11.00" fill="#000000">0 rows</text>
<polygon fill="#ffffff" stroke="transparent" points="235,-450.7 235,-469.7 267,-469.7 267,-450.7 235,-450.7"/>
<polygon fill="none" stroke="#000000" points="235,-450.7 235,-469.7 267,-469.7 267,-450.7 235,-450.7"/>
<text text-anchor="start" x="248.4053" y="-456.8" font-family="Helvetica,sans-Serif" font-size="11.00" fill="#000000">5 &gt;</text>
</a>
</g>
</g>
<!-- chats&#45;&gt;patients -->
<g id="edge1" class="edge">
<title>chats:w&#45;&gt;patients:e</title>
<path fill="none" stroke="#000000" d="M304.5167,-488.1087C283.6526,-505.1409 303.9841,-565.7 267,-565.7"/>
<polygon fill="#000000" stroke="#000000" points="310.8702,-486.1056 319.5825,-487.1334 314.6851,-484.9028 318.5,-483.7 318.5,-483.7 318.5,-483.7 314.6851,-484.9028 317.4175,-480.2666 310.8702,-486.1056 310.8702,-486.1056"/>
<ellipse fill="none" stroke="#000000" cx="307.8183" cy="-487.0678" rx="3.2" ry="3.2"/>
</g>
<!-- cid -->
<g id="node8" class="node">
<title>cid</title>
<g id="a_node8"><a xlink:href="../../tables/cid.html" xlink:title="cid" target="_top">
<polygon fill="#ffffff" stroke="transparent" points="8,-472.2 8,-533.2 94,-533.2 94,-472.2 8,-472.2"/>
<polygon fill="#f5f5f5" stroke="transparent" points="8,-509.7 8,-532.7 94,-532.7 94,-509.7 8,-509.7"/>
<polygon fill="none" stroke="#000000" points="8,-509.7 8,-532.7 94,-532.7 94,-509.7 8,-509.7"/>
<text text-anchor="start" x="12.4721" y="-518.3" font-family="Helvetica,sans-Serif" font-weight="bold" font-size="11.00" fill="#000000">cid</text>
<text text-anchor="start" x="59.0437" y="-517.8" font-family="Helvetica,sans-Serif" font-size="11.00" fill="#000000">[table]</text>
<polygon fill="none" stroke="#000000" points="8,-490.7 8,-509.7 94,-509.7 94,-490.7 8,-490.7"/>
<text text-anchor="start" x="11" y="-496.8" font-family="Helvetica,sans-Serif" font-size="11.00" fill="#000000">...</text>
<polygon fill="#ffffff" stroke="transparent" points="8,-471.7 8,-490.7 29,-490.7 29,-471.7 8,-471.7"/>
<polygon fill="none" stroke="#000000" points="8,-471.7 8,-490.7 29,-490.7 29,-471.7 8,-471.7"/>
<text text-anchor="start" x="10.7027" y="-477.8" font-family="Helvetica,sans-Serif" font-size="11.00" fill="#000000">&lt; 1</text>
<polygon fill="#ffffff" stroke="transparent" points="29,-471.7 29,-490.7 73,-490.7 73,-471.7 29,-471.7"/>
<polygon fill="none" stroke="#000000" points="29,-471.7 29,-490.7 73,-490.7 73,-471.7 29,-471.7"/>
<text text-anchor="start" x="31.7478" y="-477.8" font-family="Helvetica,sans-Serif" font-size="11.00" fill="#000000">88 rows</text>
<polygon fill="#ffffff" stroke="transparent" points="73,-471.7 73,-490.7 94,-490.7 94,-471.7 73,-471.7"/>
<polygon fill="none" stroke="#000000" points="73,-471.7 73,-490.7 94,-490.7 94,-471.7 73,-471.7"/>
<text text-anchor="start" x="75.7027" y="-477.8" font-family="Helvetica,sans-Serif" font-size="11.00" fill="#000000">1 &gt;</text>
</a>
</g>
</g>
<!-- patients&#45;&gt;cid -->
<g id="edge10" class="edge">
<title>patients:w&#45;&gt;cid:e</title>
<path fill="none" stroke="#000000" d="M128.4909,-499.7C117.1774,-499.7 109.9931,-499.7 94,-499.7"/>
<polygon fill="#000000" stroke="#000000" points="135,-499.7001 143,-503.3 139,-499.7 143,-499.7 143,-499.7 143,-499.7 139,-499.7 143,-496.1 135,-499.7001 135,-499.7001"/>
<ellipse fill="none" stroke="#000000" cx="131.8" cy="-499.7001" rx="3.2" ry="3.2"/>
</g>
<!-- device -->
<g id="node3" class="node">
<title>device</title>
<g id="a_node3"><a xlink:href="../../tables/device.html" xlink:title="device" target="_top">
<polygon fill="#ffffff" stroke="transparent" points="320.5,-538.2 320.5,-599.2 396.5,-599.2 396.5,-538.2 320.5,-538.2"/>
<polygon fill="#f5f5f5" stroke="transparent" points="320.5,-575.7 320.5,-598.7 396.5,-598.7 396.5,-575.7 320.5,-575.7"/>
<polygon fill="none" stroke="#000000" points="320.5,-575.7 320.5,-598.7 396.5,-598.7 396.5,-575.7 320.5,-575.7"/>
<text text-anchor="start" x="325.5" y="-584.3" font-family="Helvetica,sans-Serif" font-weight="bold" font-size="11.00" fill="#000000">device</text>
<text text-anchor="start" x="362.0219" y="-583.8" font-family="Helvetica,sans-Serif" font-size="11.00" fill="#000000">[table]</text>
<polygon fill="none" stroke="#000000" points="320.5,-556.7 320.5,-575.7 396.5,-575.7 396.5,-556.7 320.5,-556.7"/>
<text text-anchor="start" x="323.5" y="-562.8" font-family="Helvetica,sans-Serif" font-size="11.00" fill="#000000">...</text>
<polygon fill="#ffffff" stroke="transparent" points="320.5,-537.7 320.5,-556.7 343.5,-556.7 343.5,-537.7 320.5,-537.7"/>
<polygon fill="none" stroke="#000000" points="320.5,-537.7 320.5,-556.7 343.5,-556.7 343.5,-537.7 320.5,-537.7"/>
<text text-anchor="start" x="323.5" y="-543.8" font-family="Helvetica,sans-Serif" font-size="11.00" fill="#000000">&lt; 1</text>
<polygon fill="#ffffff" stroke="transparent" points="343.5,-537.7 343.5,-556.7 382.5,-556.7 382.5,-537.7 343.5,-537.7"/>
<polygon fill="none" stroke="#000000" points="343.5,-537.7 343.5,-556.7 382.5,-556.7 382.5,-537.7 343.5,-537.7"/>
<text text-anchor="start" x="347.1105" y="-543.8" font-family="Helvetica,sans-Serif" font-size="11.00" fill="#000000">0 rows</text>
<polygon fill="#ffffff" stroke="transparent" points="382.5,-537.7 382.5,-556.7 396.5,-556.7 396.5,-537.7 382.5,-537.7"/>
<polygon fill="none" stroke="#000000" points="382.5,-537.7 382.5,-556.7 396.5,-556.7 396.5,-537.7 382.5,-537.7"/>
<text text-anchor="start" x="387.3862" y="-543.8" font-family="Helvetica,sans-Serif" font-size="11.00" fill="#000000"> &#160;</text>
</a>
</g>
</g>
<!-- device&#45;&gt;patients -->
<g id="edge2" class="edge">
<title>device:w&#45;&gt;patients:e</title>
<path fill="none" stroke="#000000" d="M305.8553,-565.7C292.7969,-565.7 285.0191,-565.7 267,-565.7"/>
<polygon fill="#000000" stroke="#000000" points="312.5,-565.7001 320.5,-569.3 316.5,-565.7 320.5,-565.7 320.5,-565.7 320.5,-565.7 316.5,-565.7 320.5,-562.1 312.5,-565.7001 312.5,-565.7001"/>
<ellipse fill="none" stroke="#000000" cx="309.3" cy="-565.7001" rx="3.2" ry="3.2"/>
</g>
<!-- faqs -->
<g id="node4" class="node">
<title>faqs</title>
<g id="a_node4"><a xlink:href="../../tables/faqs.html" xlink:title="faqs" target="_top">
<polygon fill="#ffffff" stroke="transparent" points="511.5,-373.2 511.5,-434.2 582.5,-434.2 582.5,-373.2 511.5,-373.2"/>
<polygon fill="#f5f5f5" stroke="transparent" points="512,-410.7 512,-433.7 583,-433.7 583,-410.7 512,-410.7"/>
<polygon fill="none" stroke="#000000" points="512,-410.7 512,-433.7 583,-433.7 583,-410.7 512,-410.7"/>
<text text-anchor="start" x="516.6066" y="-419.3" font-family="Helvetica,sans-Serif" font-weight="bold" font-size="11.00" fill="#000000">faqs</text>
<text text-anchor="start" x="548.0437" y="-418.8" font-family="Helvetica,sans-Serif" font-size="11.00" fill="#000000">[table]</text>
<polygon fill="none" stroke="#000000" points="512,-391.7 512,-410.7 583,-410.7 583,-391.7 512,-391.7"/>
<text text-anchor="start" x="515" y="-397.8" font-family="Helvetica,sans-Serif" font-size="11.00" fill="#000000">...</text>
<polygon fill="#ffffff" stroke="transparent" points="512,-372.7 512,-391.7 533,-391.7 533,-372.7 512,-372.7"/>
<polygon fill="none" stroke="#000000" points="512,-372.7 512,-391.7 533,-391.7 533,-372.7 512,-372.7"/>
<text text-anchor="start" x="514.7026" y="-378.8" font-family="Helvetica,sans-Serif" font-size="11.00" fill="#000000">&lt; 2</text>
<polygon fill="#ffffff" stroke="transparent" points="533,-372.7 533,-391.7 571,-391.7 571,-372.7 533,-372.7"/>
<polygon fill="none" stroke="#000000" points="533,-372.7 533,-391.7 571,-391.7 571,-372.7 533,-372.7"/>
<text text-anchor="start" x="535.8053" y="-378.8" font-family="Helvetica,sans-Serif" font-size="11.00" fill="#000000">0 rows</text>
<polygon fill="#ffffff" stroke="transparent" points="571,-372.7 571,-391.7 583,-391.7 583,-372.7 571,-372.7"/>
<polygon fill="none" stroke="#000000" points="571,-372.7 571,-391.7 583,-391.7 583,-372.7 571,-372.7"/>
<text text-anchor="start" x="573.9431" y="-378.8" font-family="Helvetica,sans-Serif" font-size="11.00" fill="#000000"> &#160;</text>
</a>
</g>
</g>
<!-- users -->
<g id="node5" class="node">
<title>users</title>
<g id="a_node5"><a xlink:href="../../tables/users.html" xlink:title="users" target="_top">
<polygon fill="#ffffff" stroke="transparent" points="318.5,-330.2 318.5,-435.2 398.5,-435.2 398.5,-330.2 318.5,-330.2"/>
<polygon fill="#f5f5f5" stroke="transparent" points="318.5,-411.7 318.5,-434.7 398.5,-434.7 398.5,-411.7 318.5,-411.7"/>
<polygon fill="none" stroke="#000000" points="318.5,-411.7 318.5,-434.7 398.5,-434.7 398.5,-411.7 318.5,-411.7"/>
<text text-anchor="start" x="323.5" y="-420.3" font-family="Helvetica,sans-Serif" font-weight="bold" font-size="11.00" fill="#000000">users</text>
<text text-anchor="start" x="363.5437" y="-419.8" font-family="Helvetica,sans-Serif" font-size="11.00" fill="#000000">[table]</text>
<polygon fill="none" stroke="#000000" points="318.5,-389.7 318.5,-411.7 398.5,-411.7 398.5,-389.7 318.5,-389.7"/>
<image xlink:href="../../images/primaryKeys.png" width="11px" height="12px" preserveAspectRatio="xMinYMin meet" x="323.5" y="-406.7"/>
<text text-anchor="start" x="338.5" y="-396.8" font-family="Helvetica,sans-Serif" font-size="11.00" fill="#000000">id_user</text>
<polygon fill="#ffffff" stroke="transparent" points="318.5,-367.7 318.5,-389.7 398.5,-389.7 398.5,-367.7 318.5,-367.7"/>
<polygon fill="none" stroke="#000000" points="318.5,-367.7 318.5,-389.7 398.5,-389.7 398.5,-367.7 318.5,-367.7"/>
<text text-anchor="start" x="338.5" y="-374.8" font-family="Helvetica,sans-Serif" font-size="11.00" fill="#000000">username</text>
<polygon fill="none" stroke="#000000" points="318.5,-348.7 318.5,-367.7 398.5,-367.7 398.5,-348.7 318.5,-348.7"/>
<text text-anchor="start" x="321.5" y="-354.8" font-family="Helvetica,sans-Serif" font-size="11.00" fill="#000000">...</text>
<polygon fill="#ffffff" stroke="transparent" points="318.5,-329.7 318.5,-348.7 334.5,-348.7 334.5,-329.7 318.5,-329.7"/>
<polygon fill="none" stroke="#000000" points="318.5,-329.7 318.5,-348.7 334.5,-348.7 334.5,-329.7 318.5,-329.7"/>
<text text-anchor="start" x="321.5" y="-335.8" font-family="Helvetica,sans-Serif" font-size="11.00" fill="#000000"> &#160;</text>
<polygon fill="#ffffff" stroke="transparent" points="334.5,-329.7 334.5,-348.7 374.5,-348.7 374.5,-329.7 334.5,-329.7"/>
<polygon fill="none" stroke="#000000" points="334.5,-329.7 334.5,-348.7 374.5,-348.7 374.5,-329.7 334.5,-329.7"/>
<text text-anchor="start" x="339.1105" y="-335.8" font-family="Helvetica,sans-Serif" font-size="11.00" fill="#000000">0 rows</text>
<polygon fill="#ffffff" stroke="transparent" points="374.5,-329.7 374.5,-348.7 398.5,-348.7 398.5,-329.7 374.5,-329.7"/>
<polygon fill="none" stroke="#000000" points="374.5,-329.7 374.5,-348.7 398.5,-348.7 398.5,-329.7 374.5,-329.7"/>
<text text-anchor="start" x="379.9053" y="-335.8" font-family="Helvetica,sans-Serif" font-size="11.00" fill="#000000">4 &gt;</text>
</a>
</g>
</g>
<!-- faqs&#45;&gt;users -->
<g id="edge3" class="edge">
<title>faqs:w&#45;&gt;users:e</title>
<path fill="none" stroke="#000000" d="M497.4669,-399.0296C458.5393,-394.7643 443.7227,-395.3211 398.5,-400.7"/>
<polygon fill="#000000" stroke="#000000" points="504.0523,-399.7865 511.5889,-404.2765 508.0262,-400.2432 512,-400.7 512,-400.7 512,-400.7 508.0262,-400.2432 512.4111,-397.1235 504.0523,-399.7865 504.0523,-399.7865"/>
<ellipse fill="none" stroke="#000000" cx="500.8733" cy="-399.421" rx="3.2" ry="3.2"/>
</g>
<!-- faqs&#45;&gt;users -->
<g id="edge4" class="edge">
<title>faqs:w&#45;&gt;users:e</title>
<path fill="none" stroke="#000000" d="M497.7217,-402.6162C458.6037,-407.6278 443.8212,-406.9891 398.5,-400.7"/>
<polygon fill="#000000" stroke="#000000" points="504.0711,-401.7641 512.4789,-404.268 508.0355,-401.2321 512,-400.7 512,-400.7 512,-400.7 508.0355,-401.2321 511.5211,-397.132 504.0711,-401.7641 504.0711,-401.7641"/>
<ellipse fill="none" stroke="#000000" cx="500.8995" cy="-402.1898" rx="3.2" ry="3.2"/>
</g>
<!-- message_notifications -->
<g id="node6" class="node">
<title>message_notifications</title>
<g id="a_node6"><a xlink:href="../../tables/message_notifications.html" xlink:title="message_notifications" target="_top">
<polygon fill="#ffffff" stroke="transparent" points="693,-567.2 693,-628.2 861,-628.2 861,-567.2 693,-567.2"/>
<polygon fill="#f5f5f5" stroke="transparent" points="693,-604.7 693,-627.7 861,-627.7 861,-604.7 693,-604.7"/>
<polygon fill="none" stroke="#000000" points="693,-604.7 693,-627.7 861,-627.7 861,-604.7 693,-604.7"/>
<text text-anchor="start" x="698" y="-613.3" font-family="Helvetica,sans-Serif" font-weight="bold" font-size="11.00" fill="#000000">message_notifications</text>
<text text-anchor="start" x="826.5219" y="-612.8" font-family="Helvetica,sans-Serif" font-size="11.00" fill="#000000">[table]</text>
<polygon fill="none" stroke="#000000" points="693,-585.7 693,-604.7 861,-604.7 861,-585.7 693,-585.7"/>
<text text-anchor="start" x="696" y="-591.8" font-family="Helvetica,sans-Serif" font-size="11.00" fill="#000000">...</text>
<polygon fill="#ffffff" stroke="transparent" points="693,-566.7 693,-585.7 762,-585.7 762,-566.7 693,-566.7"/>
<polygon fill="none" stroke="#000000" points="693,-566.7 693,-585.7 762,-585.7 762,-566.7 693,-566.7"/>
<text text-anchor="start" x="696" y="-572.8" font-family="Helvetica,sans-Serif" font-size="11.00" fill="#000000">&lt; 2</text>
<polygon fill="#ffffff" stroke="transparent" points="762,-566.7 762,-585.7 824,-585.7 824,-566.7 762,-566.7"/>
<polygon fill="none" stroke="#000000" points="762,-566.7 762,-585.7 824,-585.7 824,-566.7 762,-566.7"/>
<text text-anchor="start" x="788.6105" y="-572.8" font-family="Helvetica,sans-Serif" font-size="11.00" fill="#000000">0 rows</text>
<polygon fill="#ffffff" stroke="transparent" points="824,-566.7 824,-585.7 861,-585.7 861,-566.7 824,-566.7"/>
<polygon fill="none" stroke="#000000" points="824,-566.7 824,-585.7 861,-585.7 861,-566.7 824,-566.7"/>
<text text-anchor="start" x="851.8862" y="-572.8" font-family="Helvetica,sans-Serif" font-size="11.00" fill="#000000"> &#160;</text>
</a>
</g>
</g>
<!-- message_notifications&#45;&gt;patients -->
<g id="edge6" class="edge">
<title>message_notifications:w&#45;&gt;patients:e</title>
<path fill="none" stroke="#000000" d="M678.1908,-594.9786C517.6528,-601.0476 455.3662,-703.486 308,-625.7 279.4369,-610.6232 299.298,-565.7 267,-565.7"/>
<polygon fill="#000000" stroke="#000000" points="685.0014,-594.8505 693.0677,-598.2994 689.0007,-594.7753 693,-594.7 693,-594.7 693,-594.7 689.0007,-594.7753 692.9323,-591.1006 685.0014,-594.8505 685.0014,-594.8505"/>
<ellipse fill="none" stroke="#000000" cx="681.802" cy="-594.9107" rx="3.2" ry="3.2"/>
</g>
<!-- messages -->
<g id="node7" class="node">
<title>messages</title>
<g id="a_node7"><a xlink:href="../../tables/messages.html" xlink:title="messages" target="_top">
<polygon fill="#ffffff" stroke="transparent" points="498.5,-511.2 498.5,-572.2 595.5,-572.2 595.5,-511.2 498.5,-511.2"/>
<polygon fill="#f5f5f5" stroke="transparent" points="499,-548.7 499,-571.7 596,-571.7 596,-548.7 499,-548.7"/>
<polygon fill="none" stroke="#000000" points="499,-548.7 499,-571.7 596,-571.7 596,-548.7 499,-548.7"/>
<text text-anchor="start" x="504" y="-557.3" font-family="Helvetica,sans-Serif" font-weight="bold" font-size="11.00" fill="#000000">messages</text>
<text text-anchor="start" x="561.5219" y="-556.8" font-family="Helvetica,sans-Serif" font-size="11.00" fill="#000000">[table]</text>
<polygon fill="none" stroke="#000000" points="499,-529.7 499,-548.7 596,-548.7 596,-529.7 499,-529.7"/>
<text text-anchor="start" x="502" y="-535.8" font-family="Helvetica,sans-Serif" font-size="11.00" fill="#000000">...</text>
<polygon fill="#ffffff" stroke="transparent" points="499,-510.7 499,-529.7 528,-529.7 528,-510.7 499,-510.7"/>
<polygon fill="none" stroke="#000000" points="499,-510.7 499,-529.7 528,-529.7 528,-510.7 499,-510.7"/>
<text text-anchor="start" x="502" y="-516.8" font-family="Helvetica,sans-Serif" font-size="11.00" fill="#000000">&lt; 3</text>
<polygon fill="#ffffff" stroke="transparent" points="528,-510.7 528,-529.7 570,-529.7 570,-510.7 528,-510.7"/>
<polygon fill="none" stroke="#000000" points="528,-510.7 528,-529.7 570,-529.7 570,-510.7 528,-510.7"/>
<text text-anchor="start" x="534.6105" y="-516.8" font-family="Helvetica,sans-Serif" font-size="11.00" fill="#000000">0 rows</text>
<polygon fill="#ffffff" stroke="transparent" points="570,-510.7 570,-529.7 596,-529.7 596,-510.7 570,-510.7"/>
<polygon fill="none" stroke="#000000" points="570,-510.7 570,-529.7 596,-529.7 596,-510.7 570,-510.7"/>
<text text-anchor="start" x="577.4053" y="-516.8" font-family="Helvetica,sans-Serif" font-size="11.00" fill="#000000">1 &gt;</text>
</a>
</g>
</g>
<!-- message_notifications&#45;&gt;messages -->
<g id="edge5" class="edge">
<title>message_notifications:w&#45;&gt;messages:e</title>
<path fill="none" stroke="#000000" d="M678.4074,-592.8368C643.154,-583.1199 640.3351,-538.7 596,-538.7"/>
<polygon fill="#000000" stroke="#000000" points="685.0644,-593.6867 692.544,-598.271 689.0322,-594.1934 693,-594.7 693,-594.7 693,-594.7 689.0322,-594.1934 693.456,-591.129 685.0644,-593.6867 685.0644,-593.6867"/>
<ellipse fill="none" stroke="#000000" cx="681.8902" cy="-593.2814" rx="3.2" ry="3.2"/>
</g>
<!-- messages&#45;&gt;chats -->
<g id="edge7" class="edge">
<title>messages:w&#45;&gt;chats:e</title>
<path fill="none" stroke="#000000" d="M484.5104,-536.9936C447.7826,-527.7102 444.0477,-483.7 398.5,-483.7"/>
<polygon fill="#000000" stroke="#000000" points="491.0549,-537.7643 498.5789,-542.2753 495.0275,-538.2322 499,-538.7 499,-538.7 499,-538.7 495.0275,-538.2322 499.4211,-535.1247 491.0549,-537.7643 491.0549,-537.7643"/>
<ellipse fill="none" stroke="#000000" cx="487.8769" cy="-537.39" rx="3.2" ry="3.2"/>
</g>
<!-- messages&#45;&gt;patients -->
<g id="edge8" class="edge">
<title>messages:w&#45;&gt;patients:e</title>
<path fill="none" stroke="#000000" d="M484.2835,-540.5285C449.3537,-550.1282 451.869,-594.8261 409,-609.7 366.5912,-624.4142 349.1625,-627.6071 308,-609.7 283.4894,-599.037 293.7296,-565.7 267,-565.7"/>
<polygon fill="#000000" stroke="#000000" points="491.061,-539.6864 499.4439,-542.2725 495.0305,-539.1932 499,-538.7 499,-538.7 499,-538.7 495.0305,-539.1932 498.5561,-535.1275 491.061,-539.6864 491.061,-539.6864"/>
<ellipse fill="none" stroke="#000000" cx="487.8855" cy="-540.081" rx="3.2" ry="3.2"/>
</g>
<!-- messages&#45;&gt;users -->
<g id="edge9" class="edge">
<title>messages:w&#45;&gt;users:e</title>
<path fill="none" stroke="#000000" d="M485.3456,-532.7703C454.6985,-506.3563 431.6949,-400.7 398.5,-400.7"/>
<polygon fill="#000000" stroke="#000000" points="491.6621,-535.5133 497.566,-542.0021 495.331,-537.1067 499,-538.7 499,-538.7 499,-538.7 495.331,-537.1067 500.434,-535.3979 491.6621,-535.5133 491.6621,-535.5133"/>
<ellipse fill="none" stroke="#000000" cx="488.7269" cy="-534.2387" rx="3.2" ry="3.2"/>
</g>
<!-- question_responses -->
<g id="node9" class="node">
<title>question_responses</title>
<g id="a_node9"><a xlink:href="../../tables/question_responses.html" xlink:title="question_responses" target="_top">
<polygon fill="#ffffff" stroke="transparent" points="699.5,-126.2 699.5,-253.2 854.5,-253.2 854.5,-126.2 699.5,-126.2"/>
<polygon fill="#f5f5f5" stroke="transparent" points="700,-229.7 700,-252.7 855,-252.7 855,-229.7 700,-229.7"/>
<polygon fill="none" stroke="#000000" points="700,-229.7 700,-252.7 855,-252.7 855,-229.7 700,-229.7"/>
<text text-anchor="start" x="705" y="-238.3" font-family="Helvetica,sans-Serif" font-weight="bold" font-size="11.00" fill="#000000">question_responses</text>
<text text-anchor="start" x="820.5219" y="-237.8" font-family="Helvetica,sans-Serif" font-size="11.00" fill="#000000">[table]</text>
<polygon fill="none" stroke="#000000" points="700,-207.7 700,-229.7 855,-229.7 855,-207.7 700,-207.7"/>
<image xlink:href="../../images/primaryKeys.png" width="11px" height="12px" preserveAspectRatio="xMinYMin meet" x="705" y="-224.7"/>
<text text-anchor="start" x="729" y="-214.8" font-family="Helvetica,sans-Serif" font-size="11.00" fill="#000000">id_qresponse</text>
<polygon fill="none" stroke="#000000" points="700,-185.7 700,-207.7 855,-207.7 855,-185.7 700,-185.7"/>
<image xlink:href="../../images/foreignKeys.png" width="11px" height="12px" preserveAspectRatio="xMinYMin meet" x="705" y="-202.7"/>
<text text-anchor="start" x="729" y="-192.8" font-family="Helvetica,sans-Serif" font-size="11.00" fill="#000000">id_responses</text>
<polygon fill="none" stroke="#000000" points="700,-163.7 700,-185.7 855,-185.7 855,-163.7 700,-163.7"/>
<image xlink:href="../../images/foreignKeys.png" width="11px" height="12px" preserveAspectRatio="xMinYMin meet" x="705" y="-180.7"/>
<text text-anchor="start" x="729" y="-170.8" font-family="Helvetica,sans-Serif" font-size="11.00" fill="#000000">questionId</text>
<polygon fill="none" stroke="#000000" points="700,-144.7 700,-163.7 855,-163.7 855,-144.7 700,-144.7"/>
<text text-anchor="start" x="703" y="-150.8" font-family="Helvetica,sans-Serif" font-size="11.00" fill="#000000">...</text>
<polygon fill="#ffffff" stroke="transparent" points="700,-125.7 700,-144.7 763,-144.7 763,-125.7 700,-125.7"/>
<polygon fill="none" stroke="#000000" points="700,-125.7 700,-144.7 763,-144.7 763,-125.7 700,-125.7"/>
<text text-anchor="start" x="703" y="-131.8" font-family="Helvetica,sans-Serif" font-size="11.00" fill="#000000">&lt; 2</text>
<polygon fill="#ffffff" stroke="transparent" points="763,-125.7 763,-144.7 822,-144.7 822,-125.7 763,-125.7"/>
<polygon fill="none" stroke="#000000" points="763,-125.7 763,-144.7 822,-144.7 822,-125.7 763,-125.7"/>
<text text-anchor="start" x="786.6105" y="-131.8" font-family="Helvetica,sans-Serif" font-size="11.00" fill="#000000">0 rows</text>
<polygon fill="#ffffff" stroke="transparent" points="822,-125.7 822,-144.7 855,-144.7 855,-125.7 822,-125.7"/>
<polygon fill="none" stroke="#000000" points="822,-125.7 822,-144.7 855,-144.7 855,-125.7 822,-125.7"/>
<text text-anchor="start" x="845.8862" y="-131.8" font-family="Helvetica,sans-Serif" font-size="11.00" fill="#000000"> &#160;</text>
</a>
</g>
</g>
<!-- responses -->
<g id="node10" class="node">
<title>responses</title>
<g id="a_node10"><a xlink:href="../../tables/responses.html" xlink:title="responses" target="_top">
<polygon fill="#ffffff" stroke="transparent" points="450,-120.7 450,-342.7 644,-342.7 644,-120.7 450,-120.7"/>
<polygon fill="#f5f5f5" stroke="transparent" points="452,-317.7 452,-340.7 642,-340.7 642,-317.7 452,-317.7"/>
<polygon fill="none" stroke="#000000" points="452,-317.7 452,-340.7 642,-340.7 642,-317.7 452,-317.7"/>
<text text-anchor="start" x="457" y="-326.3" font-family="Helvetica,sans-Serif" font-weight="bold" font-size="11.00" fill="#000000">responses</text>
<text text-anchor="start" x="607.0437" y="-325.8" font-family="Helvetica,sans-Serif" font-size="11.00" fill="#000000">[table]</text>
<polygon fill="none" stroke="#000000" points="452,-295.7 452,-317.7 550,-317.7 550,-295.7 452,-295.7"/>
<image xlink:href="../../images/primaryKeys.png" width="11px" height="12px" preserveAspectRatio="xMinYMin meet" x="457" y="-312.7"/>
<text text-anchor="start" x="472" y="-302.8" font-family="Helvetica,sans-Serif" font-size="11.00" fill="#000000">id_responses</text>
<polygon fill="none" stroke="#000000" points="550,-295.7 550,-317.7 642,-317.7 642,-295.7 550,-295.7"/>
<text text-anchor="start" x="553" y="-303.4" font-family="Helvetica,sans-Serif" font-size="11.00" fill="#000000">serial[10]</text>
<polygon fill="none" stroke="#000000" points="452,-273.7 452,-295.7 550,-295.7 550,-273.7 452,-273.7"/>
<image xlink:href="../../images/foreignKeys.png" width="11px" height="12px" preserveAspectRatio="xMinYMin meet" x="457" y="-290.7"/>
<text text-anchor="start" x="472" y="-280.8" font-family="Helvetica,sans-Serif" font-size="11.00" fill="#000000">formId</text>
<polygon fill="none" stroke="#000000" points="550,-273.7 550,-295.7 642,-295.7 642,-273.7 550,-273.7"/>
<text text-anchor="start" x="553" y="-281.4" font-family="Helvetica,sans-Serif" font-size="11.00" fill="#000000">int4[10]</text>
<polygon fill="none" stroke="#000000" points="452,-251.7 452,-273.7 550,-273.7 550,-251.7 452,-251.7"/>
<text text-anchor="start" x="472" y="-258.8" font-family="Helvetica,sans-Serif" font-size="11.00" fill="#000000">submittedAt</text>
<polygon fill="none" stroke="#000000" points="550,-251.7 550,-273.7 642,-273.7 642,-251.7 550,-251.7"/>
<text text-anchor="start" x="552.6023" y="-259.4" font-family="Helvetica,sans-Serif" font-size="11.00" fill="#000000">timestamptz[35,6]</text>
<polygon fill="none" stroke="#000000" points="452,-229.7 452,-251.7 550,-251.7 550,-229.7 452,-229.7"/>
<image xlink:href="../../images/foreignKeys.png" width="11px" height="12px" preserveAspectRatio="xMinYMin meet" x="457" y="-246.7"/>
<text text-anchor="start" x="472" y="-236.8" font-family="Helvetica,sans-Serif" font-size="11.00" fill="#000000">submittedBy</text>
<polygon fill="none" stroke="#000000" points="550,-229.7 550,-251.7 642,-251.7 642,-229.7 550,-229.7"/>
<text text-anchor="start" x="553" y="-237.4" font-family="Helvetica,sans-Serif" font-size="11.00" fill="#000000">int4[10]</text>
<polygon fill="none" stroke="#000000" points="452,-207.7 452,-229.7 550,-229.7 550,-207.7 452,-207.7"/>
<image xlink:href="../../images/foreignKeys.png" width="11px" height="12px" preserveAspectRatio="xMinYMin meet" x="457" y="-224.7"/>
<text text-anchor="start" x="472" y="-214.8" font-family="Helvetica,sans-Serif" font-size="11.00" fill="#000000">assignedBy</text>
<polygon fill="none" stroke="#000000" points="550,-207.7 550,-229.7 642,-229.7 642,-207.7 550,-207.7"/>
<text text-anchor="start" x="553" y="-215.4" font-family="Helvetica,sans-Serif" font-size="11.00" fill="#000000">int4[10]</text>
<polygon fill="none" stroke="#000000" points="452,-185.7 452,-207.7 550,-207.7 550,-185.7 452,-185.7"/>
<text text-anchor="start" x="472" y="-192.8" font-family="Helvetica,sans-Serif" font-size="11.00" fill="#000000">score</text>
<polygon fill="none" stroke="#000000" points="550,-185.7 550,-207.7 642,-207.7 642,-185.7 550,-185.7"/>
<text text-anchor="start" x="553" y="-193.4" font-family="Helvetica,sans-Serif" font-size="11.00" fill="#000000">numeric[10,2]</text>
<polygon fill="none" stroke="#000000" points="452,-163.7 452,-185.7 550,-185.7 550,-163.7 452,-163.7"/>
<text text-anchor="start" x="472" y="-170.8" font-family="Helvetica,sans-Serif" font-size="11.00" fill="#000000">createdAt</text>
<polygon fill="none" stroke="#000000" points="550,-163.7 550,-185.7 642,-185.7 642,-163.7 550,-163.7"/>
<text text-anchor="start" x="552.6023" y="-171.4" font-family="Helvetica,sans-Serif" font-size="11.00" fill="#000000">timestamptz[35,6]</text>
<polygon fill="none" stroke="#000000" points="452,-141.7 452,-163.7 550,-163.7 550,-141.7 452,-141.7"/>
<text text-anchor="start" x="472" y="-148.8" font-family="Helvetica,sans-Serif" font-size="11.00" fill="#000000">updatedAt</text>
<polygon fill="none" stroke="#000000" points="550,-141.7 550,-163.7 642,-163.7 642,-141.7 550,-141.7"/>
<text text-anchor="start" x="552.6023" y="-149.4" font-family="Helvetica,sans-Serif" font-size="11.00" fill="#000000">timestamptz[35,6]</text>
<polygon fill="#ffffff" stroke="transparent" points="452,-122.7 452,-141.7 492,-141.7 492,-122.7 452,-122.7"/>
<polygon fill="none" stroke="#000000" points="452,-122.7 452,-141.7 492,-141.7 492,-122.7 452,-122.7"/>
<text text-anchor="start" x="455" y="-128.8" font-family="Helvetica,sans-Serif" font-size="11.00" fill="#000000">&lt; 3</text>
<polygon fill="#ffffff" stroke="transparent" points="492,-122.7 492,-141.7 550,-141.7 550,-122.7 492,-122.7"/>
<polygon fill="none" stroke="#000000" points="492,-122.7 492,-141.7 550,-141.7 550,-122.7 492,-122.7"/>
<text text-anchor="start" x="514.6105" y="-128.8" font-family="Helvetica,sans-Serif" font-size="11.00" fill="#000000">0 rows</text>
<polygon fill="#ffffff" stroke="transparent" points="550,-122.7 550,-141.7 642,-141.7 642,-122.7 550,-122.7"/>
<polygon fill="none" stroke="#000000" points="550,-122.7 550,-141.7 642,-141.7 642,-122.7 550,-122.7"/>
<text text-anchor="start" x="623.4053" y="-128.8" font-family="Helvetica,sans-Serif" font-size="11.00" fill="#000000">1 &gt;</text>
<polygon fill="none" stroke="#000000" stroke-width="2" points="451,-121.7 451,-341.7 643,-341.7 643,-121.7 451,-121.7"/>
</a>
</g>
</g>
<!-- question_responses&#45;&gt;responses -->
<g id="edge11" class="edge">
<title>question_responses:w&#45;&gt;responses:e</title>
<path fill="none" stroke="#000000" d="M685.8573,-200.1127C654.6143,-218.6795 691.4395,-306.7 642,-306.7"/>
<polygon fill="#000000" stroke="#000000" points="692.2232,-198.5766 700.8445,-200.1996 696.1116,-197.6383 700,-196.7 700,-196.7 700,-196.7 696.1116,-197.6383 699.1555,-193.2004 692.2232,-198.5766 692.2232,-198.5766"/>
<ellipse fill="none" stroke="#000000" cx="689.1125" cy="-199.3273" rx="3.2" ry="3.2"/>
</g>
<!-- questions -->
<g id="node11" class="node">
<title>questions</title>
<g id="a_node11"><a xlink:href="../../tables/questions.html" xlink:title="questions" target="_top">
<polygon fill="#ffffff" stroke="transparent" points="499.5,-38.2 499.5,-99.2 594.5,-99.2 594.5,-38.2 499.5,-38.2"/>
<polygon fill="#f5f5f5" stroke="transparent" points="500,-75.7 500,-98.7 595,-98.7 595,-75.7 500,-75.7"/>
<polygon fill="none" stroke="#000000" points="500,-75.7 500,-98.7 595,-98.7 595,-75.7 500,-75.7"/>
<text text-anchor="start" x="505" y="-84.3" font-family="Helvetica,sans-Serif" font-weight="bold" font-size="11.00" fill="#000000">questions</text>
<text text-anchor="start" x="560.5219" y="-83.8" font-family="Helvetica,sans-Serif" font-size="11.00" fill="#000000">[table]</text>
<polygon fill="none" stroke="#000000" points="500,-56.7 500,-75.7 595,-75.7 595,-56.7 500,-56.7"/>
<text text-anchor="start" x="503" y="-62.8" font-family="Helvetica,sans-Serif" font-size="11.00" fill="#000000">...</text>
<polygon fill="#ffffff" stroke="transparent" points="500,-37.7 500,-56.7 528,-56.7 528,-37.7 500,-37.7"/>
<polygon fill="none" stroke="#000000" points="500,-37.7 500,-56.7 528,-56.7 528,-37.7 500,-37.7"/>
<text text-anchor="start" x="503" y="-43.8" font-family="Helvetica,sans-Serif" font-size="11.00" fill="#000000">&lt; 1</text>
<polygon fill="#ffffff" stroke="transparent" points="528,-37.7 528,-56.7 570,-56.7 570,-37.7 528,-37.7"/>
<polygon fill="none" stroke="#000000" points="528,-37.7 528,-56.7 570,-56.7 570,-37.7 528,-37.7"/>
<text text-anchor="start" x="534.6105" y="-43.8" font-family="Helvetica,sans-Serif" font-size="11.00" fill="#000000">0 rows</text>
<polygon fill="#ffffff" stroke="transparent" points="570,-37.7 570,-56.7 595,-56.7 595,-37.7 570,-37.7"/>
<polygon fill="none" stroke="#000000" points="570,-37.7 570,-56.7 595,-56.7 595,-37.7 570,-37.7"/>
<text text-anchor="start" x="576.4053" y="-43.8" font-family="Helvetica,sans-Serif" font-size="11.00" fill="#000000">2 &gt;</text>
</a>
</g>
</g>
<!-- question_responses&#45;&gt;questions -->
<g id="edge12" class="edge">
<title>question_responses:w&#45;&gt;questions:e</title>
<path fill="none" stroke="#000000" d="M685.7374,-171.682C667.5547,-162.1196 672.6577,-131.8762 652,-110.7 629.4616,-87.5959 627.2766,-65.7 595,-65.7"/>
<polygon fill="#000000" stroke="#000000" points="692.1733,-173.0438 699.2547,-178.222 696.0867,-173.8719 700,-174.7 700,-174.7 700,-174.7 696.0867,-173.8719 700.7453,-171.178 692.1733,-173.0438 692.1733,-173.0438"/>
<ellipse fill="none" stroke="#000000" cx="689.0426" cy="-172.3813" rx="3.2" ry="3.2"/>
</g>
<!-- responses&#45;&gt;patients -->
<g id="edge16" class="edge">
<title>responses:w&#45;&gt;patients:e</title>
<path fill="none" stroke="#000000" d="M438.0188,-237.0523C428.5106,-231.1836 424.5081,-219.8806 409,-215.7 365.6583,-204.0163 341.5369,-185.8623 308,-215.7 249.4941,-267.7524 345.3096,-565.7 267,-565.7"/>
<polygon fill="#000000" stroke="#000000" points="444.2591,-238.6804 451.0912,-244.1834 448.1296,-239.6902 452,-240.7 452,-240.7 452,-240.7 448.1296,-239.6902 452.9088,-237.2166 444.2591,-238.6804 444.2591,-238.6804"/>
<ellipse fill="none" stroke="#000000" cx="441.1628" cy="-237.8725" rx="3.2" ry="3.2"/>
</g>
<!-- responses&#45;&gt;users -->
<g id="edge14" class="edge">
<title>responses:w&#45;&gt;users:e</title>
<path fill="none" stroke="#000000" d="M437.7252,-221.0012C382.099,-242.0693 477.2125,-400.7 398.5,-400.7"/>
<polygon fill="#000000" stroke="#000000" points="444.102,-219.9732 452.573,-222.2541 448.051,-219.3366 452,-218.7 452,-218.7 452,-218.7 448.051,-219.3366 451.427,-215.1459 444.102,-219.9732 444.102,-219.9732"/>
<ellipse fill="none" stroke="#000000" cx="440.9427" cy="-220.4825" rx="3.2" ry="3.2"/>
</g>
<!-- forms -->
<g id="node12" class="node">
<title>forms</title>
<g id="a_node12"><a xlink:href="../../tables/forms.html" xlink:title="forms" target="_top">
<polygon fill="#ffffff" stroke="transparent" points="316,-226.2 316,-309.2 401,-309.2 401,-226.2 316,-226.2"/>
<polygon fill="#f5f5f5" stroke="transparent" points="316.5,-285.7 316.5,-308.7 401.5,-308.7 401.5,-285.7 316.5,-285.7"/>
<polygon fill="none" stroke="#000000" points="316.5,-285.7 316.5,-308.7 401.5,-308.7 401.5,-285.7 316.5,-285.7"/>
<text text-anchor="start" x="321.5" y="-294.3" font-family="Helvetica,sans-Serif" font-weight="bold" font-size="11.00" fill="#000000">forms</text>
<text text-anchor="start" x="366.5437" y="-293.8" font-family="Helvetica,sans-Serif" font-size="11.00" fill="#000000">[table]</text>
<polygon fill="none" stroke="#000000" points="316.5,-263.7 316.5,-285.7 401.5,-285.7 401.5,-263.7 316.5,-263.7"/>
<image xlink:href="../../images/primaryKeys.png" width="11px" height="12px" preserveAspectRatio="xMinYMin meet" x="321.5" y="-280.7"/>
<text text-anchor="start" x="336.5" y="-270.8" font-family="Helvetica,sans-Serif" font-size="11.00" fill="#000000">id_forms</text>
<polygon fill="none" stroke="#000000" points="316.5,-244.7 316.5,-263.7 401.5,-263.7 401.5,-244.7 316.5,-244.7"/>
<text text-anchor="start" x="319.5" y="-250.8" font-family="Helvetica,sans-Serif" font-size="11.00" fill="#000000">...</text>
<polygon fill="#ffffff" stroke="transparent" points="316.5,-225.7 316.5,-244.7 335.5,-244.7 335.5,-225.7 316.5,-225.7"/>
<polygon fill="none" stroke="#000000" points="316.5,-225.7 316.5,-244.7 335.5,-244.7 335.5,-225.7 316.5,-225.7"/>
<text text-anchor="start" x="319.5" y="-231.8" font-family="Helvetica,sans-Serif" font-size="11.00" fill="#000000"> &#160;</text>
<polygon fill="#ffffff" stroke="transparent" points="335.5,-225.7 335.5,-244.7 376.5,-244.7 376.5,-225.7 335.5,-225.7"/>
<polygon fill="none" stroke="#000000" points="335.5,-225.7 335.5,-244.7 376.5,-244.7 376.5,-225.7 335.5,-225.7"/>
<text text-anchor="start" x="341.1105" y="-231.8" font-family="Helvetica,sans-Serif" font-size="11.00" fill="#000000">0 rows</text>
<polygon fill="#ffffff" stroke="transparent" points="376.5,-225.7 376.5,-244.7 401.5,-244.7 401.5,-225.7 376.5,-225.7"/>
<polygon fill="none" stroke="#000000" points="376.5,-225.7 376.5,-244.7 401.5,-244.7 401.5,-225.7 376.5,-225.7"/>
<text text-anchor="start" x="382.9053" y="-231.8" font-family="Helvetica,sans-Serif" font-size="11.00" fill="#000000">2 &gt;</text>
</a>
</g>
</g>
<!-- responses&#45;&gt;forms -->
<g id="edge15" class="edge">
<title>responses:w&#45;&gt;forms:e</title>
<path fill="none" stroke="#000000" d="M437.6743,-283.1375C425.6162,-280.325 418.6602,-274.7 401.5,-274.7"/>
<polygon fill="#000000" stroke="#000000" points="444.0472,-283.8325 451.6096,-288.2788 448.0236,-284.2663 452,-284.7 452,-284.7 452,-284.7 448.0236,-284.2663 452.3904,-281.1212 444.0472,-283.8325 444.0472,-283.8325"/>
<ellipse fill="none" stroke="#000000" cx="440.866" cy="-283.4856" rx="3.2" ry="3.2"/>
</g>
<!-- questions&#45;&gt;forms -->
<g id="edge13" class="edge">
<title>questions:w&#45;&gt;forms:e</title>
<path fill="none" stroke="#000000" d="M485.5115,-67.156C464.5366,-71.9022 456.7979,-87.9416 442,-110.7 401.0735,-173.6429 476.5786,-274.7 401.5,-274.7"/>
<polygon fill="#000000" stroke="#000000" points="492.0401,-66.5 500.36,-69.282 496.02,-66.1 500,-65.7 500,-65.7 500,-65.7 496.02,-66.1 499.64,-62.118 492.0401,-66.5 492.0401,-66.5"/>
<ellipse fill="none" stroke="#000000" cx="488.8561" cy="-66.82" rx="3.2" ry="3.2"/>
</g>
</g>
</svg>
