<?xml version="1.0" encoding="UTF-8" standalone="no"?>
<!DOCTYPE svg PUBLIC "-//W3C//DTD SVG 1.1//EN"
 "http://www.w3.org/Graphics/SVG/1.1/DTD/svg11.dtd">
<!-- Generated by graphviz version 2.40.1 (20161225.0304)
 -->
<!-- Title: twoDegreesRelationshipsDiagramImplied Pages: 1 -->
<svg width="912pt" height="663pt"
 viewBox="0.00 0.00 912.00 663.19" xmlns="http://www.w3.org/2000/svg" xmlns:xlink="http://www.w3.org/1999/xlink">
<g id="graph0" class="graph" transform="scale(1 1) rotate(0) translate(4 659.1893)">
<title>twoDegreesRelationshipsDiagramImplied</title>
<polygon fill="#ffffff" stroke="transparent" points="-4,4 -4,-659.1893 908,-659.1893 908,4 -4,4"/>
<text text-anchor="middle" x="72.4936" y="-7.3" font-family="Helvetica,sans-Serif" font-size="11.00" fill="#000000">Generated by SchemaSpy</text>
<!-- chats -->
<g id="node1" class="node">
<title>chats</title>
<g id="a_node1"><a xlink:href="../../tables/chats.html" xlink:title="chats" target="_top">
<polygon fill="#ffffff" stroke="transparent" points="353.5,-456.2 353.5,-517.2 433.5,-517.2 433.5,-456.2 353.5,-456.2"/>
<polygon fill="#f5f5f5" stroke="transparent" points="353.5,-493.7 353.5,-516.7 433.5,-516.7 433.5,-493.7 353.5,-493.7"/>
<polygon fill="none" stroke="#000000" points="353.5,-493.7 353.5,-516.7 433.5,-516.7 433.5,-493.7 353.5,-493.7"/>
<text text-anchor="start" x="358.5" y="-502.3" font-family="Helvetica,sans-Serif" font-weight="bold" font-size="11.00" fill="#000000">chats</text>
<text text-anchor="start" x="398.5437" y="-501.8" font-family="Helvetica,sans-Serif" font-size="11.00" fill="#000000">[table]</text>
<polygon fill="none" stroke="#000000" points="353.5,-474.7 353.5,-493.7 433.5,-493.7 433.5,-474.7 353.5,-474.7"/>
<text text-anchor="start" x="356.5" y="-480.8" font-family="Helvetica,sans-Serif" font-size="11.00" fill="#000000">...</text>
<polygon fill="#ffffff" stroke="transparent" points="353.5,-455.7 353.5,-474.7 374.5,-474.7 374.5,-455.7 353.5,-455.7"/>
<polygon fill="none" stroke="#000000" points="353.5,-455.7 353.5,-474.7 374.5,-474.7 374.5,-455.7 353.5,-455.7"/>
<text text-anchor="start" x="356.2027" y="-461.8" font-family="Helvetica,sans-Serif" font-size="11.00" fill="#000000">&lt; 1</text>
<polygon fill="#ffffff" stroke="transparent" points="374.5,-455.7 374.5,-474.7 412.5,-474.7 412.5,-455.7 374.5,-455.7"/>
<polygon fill="none" stroke="#000000" points="374.5,-455.7 374.5,-474.7 412.5,-474.7 412.5,-455.7 374.5,-455.7"/>
<text text-anchor="start" x="377.3053" y="-461.8" font-family="Helvetica,sans-Serif" font-size="11.00" fill="#000000">0 rows</text>
<polygon fill="#ffffff" stroke="transparent" points="412.5,-455.7 412.5,-474.7 433.5,-474.7 433.5,-455.7 412.5,-455.7"/>
<polygon fill="none" stroke="#000000" points="412.5,-455.7 412.5,-474.7 433.5,-474.7 433.5,-455.7 412.5,-455.7"/>
<text text-anchor="start" x="415.2027" y="-461.8" font-family="Helvetica,sans-Serif" font-size="11.00" fill="#000000">1 &gt;</text>
</a>
</g>
</g>
<!-- patients -->
<g id="node2" class="node">
<title>patients</title>
<g id="a_node2"><a xlink:href="../../tables/patients.html" xlink:title="patients" target="_top">
<polygon fill="#ffffff" stroke="transparent" points="178,-451.2 178,-600.2 302,-600.2 302,-451.2 178,-451.2"/>
<polygon fill="#f5f5f5" stroke="transparent" points="178,-576.7 178,-599.7 302,-599.7 302,-576.7 178,-576.7"/>
<polygon fill="none" stroke="#000000" points="178,-576.7 178,-599.7 302,-599.7 302,-576.7 178,-576.7"/>
<text text-anchor="start" x="183" y="-585.3" font-family="Helvetica,sans-Serif" font-weight="bold" font-size="11.00" fill="#000000">patients</text>
<text text-anchor="start" x="267.0437" y="-584.8" font-family="Helvetica,sans-Serif" font-size="11.00" fill="#000000">[table]</text>
<polygon fill="none" stroke="#000000" points="178,-554.7 178,-576.7 302,-576.7 302,-554.7 178,-554.7"/>
<image xlink:href="../../images/primaryKeys.png" width="11px" height="12px" preserveAspectRatio="xMinYMin meet" x="183" y="-571.7"/>
<text text-anchor="start" x="198" y="-561.8" font-family="Helvetica,sans-Serif" font-size="11.00" fill="#000000">id_patient</text>
<polygon fill="#ffffff" stroke="transparent" points="178,-532.7 178,-554.7 302,-554.7 302,-532.7 178,-532.7"/>
<polygon fill="none" stroke="#000000" points="178,-532.7 178,-554.7 302,-554.7 302,-532.7 178,-532.7"/>
<text text-anchor="start" x="198" y="-539.8" font-family="Helvetica,sans-Serif" font-size="11.00" fill="#000000">service_id</text>
<polygon fill="none" stroke="#000000" points="178,-510.7 178,-532.7 302,-532.7 302,-510.7 178,-510.7"/>
<image xlink:href="../../images/foreignKeys.png" width="11px" height="12px" preserveAspectRatio="xMinYMin meet" x="183" y="-527.7"/>
<text text-anchor="start" x="198" y="-517.8" font-family="Helvetica,sans-Serif" font-size="11.00" fill="#000000">name</text>
<polygon fill="none" stroke="#000000" points="178,-488.7 178,-510.7 302,-510.7 302,-488.7 178,-488.7"/>
<image xlink:href="../../images/foreignKeys.png" width="11px" height="12px" preserveAspectRatio="xMinYMin meet" x="183" y="-505.7"/>
<text text-anchor="start" x="198" y="-495.8" font-family="Helvetica,sans-Serif" font-size="11.00" fill="#000000">id_cid</text>
<polygon fill="none" stroke="#000000" points="178,-469.7 178,-488.7 302,-488.7 302,-469.7 178,-469.7"/>
<text text-anchor="start" x="181" y="-475.8" font-family="Helvetica,sans-Serif" font-size="11.00" fill="#000000">...</text>
<polygon fill="#ffffff" stroke="transparent" points="178,-450.7 178,-469.7 221,-469.7 221,-450.7 178,-450.7"/>
<polygon fill="none" stroke="#000000" points="178,-450.7 178,-469.7 221,-469.7 221,-450.7 178,-450.7"/>
<text text-anchor="start" x="181" y="-456.8" font-family="Helvetica,sans-Serif" font-size="11.00" fill="#000000">&lt; 2</text>
<polygon fill="#ffffff" stroke="transparent" points="221,-450.7 221,-469.7 270,-469.7 270,-450.7 221,-450.7"/>
<polygon fill="none" stroke="#000000" points="221,-450.7 221,-469.7 270,-469.7 270,-450.7 221,-450.7"/>
<text text-anchor="start" x="234.6105" y="-456.8" font-family="Helvetica,sans-Serif" font-size="11.00" fill="#000000">0 rows</text>
<polygon fill="#ffffff" stroke="transparent" points="270,-450.7 270,-469.7 302,-469.7 302,-450.7 270,-450.7"/>
<polygon fill="none" stroke="#000000" points="270,-450.7 270,-469.7 302,-469.7 302,-450.7 270,-450.7"/>
<text text-anchor="start" x="283.4053" y="-456.8" font-family="Helvetica,sans-Serif" font-size="11.00" fill="#000000">5 &gt;</text>
</a>
</g>
</g>
<!-- chats&#45;&gt;patients -->
<g id="edge1" class="edge">
<title>chats:w&#45;&gt;patients:e</title>
<path fill="none" stroke="#000000" d="M339.5167,-488.1087C318.6526,-505.1409 338.9841,-565.7 302,-565.7"/>
<polygon fill="#000000" stroke="#000000" points="345.8702,-486.1056 354.5825,-487.1334 349.6851,-484.9028 353.5,-483.7 353.5,-483.7 353.5,-483.7 349.6851,-484.9028 352.4175,-480.2666 345.8702,-486.1056 345.8702,-486.1056"/>
<ellipse fill="none" stroke="#000000" cx="342.8183" cy="-487.0678" rx="3.2" ry="3.2"/>
</g>
<!-- cid -->
<g id="node8" class="node">
<title>cid</title>
<g id="a_node8"><a xlink:href="../../tables/cid.html" xlink:title="cid" target="_top">
<polygon fill="#ffffff" stroke="transparent" points="25.5,-442.2 25.5,-503.2 111.5,-503.2 111.5,-442.2 25.5,-442.2"/>
<polygon fill="#f5f5f5" stroke="transparent" points="25.5,-479.7 25.5,-502.7 111.5,-502.7 111.5,-479.7 25.5,-479.7"/>
<polygon fill="none" stroke="#000000" points="25.5,-479.7 25.5,-502.7 111.5,-502.7 111.5,-479.7 25.5,-479.7"/>
<text text-anchor="start" x="29.9721" y="-488.3" font-family="Helvetica,sans-Serif" font-weight="bold" font-size="11.00" fill="#000000">cid</text>
<text text-anchor="start" x="76.5437" y="-487.8" font-family="Helvetica,sans-Serif" font-size="11.00" fill="#000000">[table]</text>
<polygon fill="none" stroke="#000000" points="25.5,-460.7 25.5,-479.7 111.5,-479.7 111.5,-460.7 25.5,-460.7"/>
<text text-anchor="start" x="28.5" y="-466.8" font-family="Helvetica,sans-Serif" font-size="11.00" fill="#000000">...</text>
<polygon fill="#ffffff" stroke="transparent" points="25.5,-441.7 25.5,-460.7 46.5,-460.7 46.5,-441.7 25.5,-441.7"/>
<polygon fill="none" stroke="#000000" points="25.5,-441.7 25.5,-460.7 46.5,-460.7 46.5,-441.7 25.5,-441.7"/>
<text text-anchor="start" x="28.2027" y="-447.8" font-family="Helvetica,sans-Serif" font-size="11.00" fill="#000000">&lt; 1</text>
<polygon fill="#ffffff" stroke="transparent" points="46.5,-441.7 46.5,-460.7 90.5,-460.7 90.5,-441.7 46.5,-441.7"/>
<polygon fill="none" stroke="#000000" points="46.5,-441.7 46.5,-460.7 90.5,-460.7 90.5,-441.7 46.5,-441.7"/>
<text text-anchor="start" x="49.2478" y="-447.8" font-family="Helvetica,sans-Serif" font-size="11.00" fill="#000000">88 rows</text>
<polygon fill="#ffffff" stroke="transparent" points="90.5,-441.7 90.5,-460.7 111.5,-460.7 111.5,-441.7 90.5,-441.7"/>
<polygon fill="none" stroke="#000000" points="90.5,-441.7 90.5,-460.7 111.5,-460.7 111.5,-441.7 90.5,-441.7"/>
<text text-anchor="start" x="93.2027" y="-447.8" font-family="Helvetica,sans-Serif" font-size="11.00" fill="#000000">1 &gt;</text>
</a>
</g>
</g>
<!-- patients&#45;&gt;cid -->
<g id="edge10" class="edge">
<title>patients:w&#45;&gt;cid:e</title>
<path fill="none" stroke="#000000" d="M163.696,-497.346C144.0991,-490.2737 138.351,-469.7 111.5,-469.7"/>
<polygon fill="#000000" stroke="#000000" points="170.1062,-498.4008 177.4154,-503.2522 174.0531,-499.0504 178,-499.7 178,-499.7 178,-499.7 174.0531,-499.0504 178.5846,-496.1478 170.1062,-498.4008 170.1062,-498.4008"/>
<ellipse fill="none" stroke="#000000" cx="166.9487" cy="-497.8812" rx="3.2" ry="3.2"/>
</g>
<!-- SequelizeMeta -->
<g id="node9" class="node">
<title>SequelizeMeta</title>
<g id="a_node9"><a xlink:href="../../tables/SequelizeMeta.html" xlink:title="SequelizeMeta" target="_top">
<polygon fill="#ffffff" stroke="transparent" points="8,-524.2 8,-585.2 129,-585.2 129,-524.2 8,-524.2"/>
<polygon fill="#f5f5f5" stroke="transparent" points="8.5,-561.7 8.5,-584.7 129.5,-584.7 129.5,-561.7 8.5,-561.7"/>
<polygon fill="none" stroke="#000000" points="8.5,-561.7 8.5,-584.7 129.5,-584.7 129.5,-561.7 8.5,-561.7"/>
<text text-anchor="start" x="13.5" y="-570.3" font-family="Helvetica,sans-Serif" font-weight="bold" font-size="11.00" fill="#000000">SequelizeMeta</text>
<text text-anchor="start" x="95.0219" y="-569.8" font-family="Helvetica,sans-Serif" font-size="11.00" fill="#000000">[table]</text>
<polygon fill="none" stroke="#000000" points="8.5,-542.7 8.5,-561.7 129.5,-561.7 129.5,-542.7 8.5,-542.7"/>
<text text-anchor="start" x="11.5" y="-548.8" font-family="Helvetica,sans-Serif" font-size="11.00" fill="#000000">...</text>
<polygon fill="#ffffff" stroke="transparent" points="8.5,-523.7 8.5,-542.7 42.5,-542.7 42.5,-523.7 8.5,-523.7"/>
<polygon fill="none" stroke="#000000" points="8.5,-523.7 8.5,-542.7 42.5,-542.7 42.5,-523.7 8.5,-523.7"/>
<text text-anchor="start" x="11.5" y="-529.8" font-family="Helvetica,sans-Serif" font-size="11.00" fill="#000000"> &#160;</text>
<polygon fill="#ffffff" stroke="transparent" points="42.5,-523.7 42.5,-542.7 97.5,-542.7 97.5,-523.7 42.5,-523.7"/>
<polygon fill="none" stroke="#000000" points="42.5,-523.7 42.5,-542.7 97.5,-542.7 97.5,-523.7 42.5,-523.7"/>
<text text-anchor="start" x="55.9956" y="-529.8" font-family="Helvetica,sans-Serif" font-size="11.00" fill="#000000">17 rows</text>
<polygon fill="#ffffff" stroke="transparent" points="97.5,-523.7 97.5,-542.7 129.5,-542.7 129.5,-523.7 97.5,-523.7"/>
<polygon fill="none" stroke="#000000" points="97.5,-523.7 97.5,-542.7 129.5,-542.7 129.5,-523.7 97.5,-523.7"/>
<text text-anchor="start" x="110.9053" y="-529.8" font-family="Helvetica,sans-Serif" font-size="11.00" fill="#000000">1 &gt;</text>
</a>
</g>
</g>
<!-- patients&#45;&gt;SequelizeMeta -->
<g id="edge11" class="edge">
<title>patients:w&#45;&gt;SequelizeMeta:e</title>
<path fill="none" stroke="#000000" stroke-dasharray="5,2" d="M164.0076,-525.8714C152.1688,-534.1146 148.9055,-551.7 129.5,-551.7"/>
<polygon fill="#000000" stroke="#000000" points="170.3334,-523.9856 179.0285,-525.15 174.1667,-522.8428 178,-521.7 178,-521.7 178,-521.7 174.1667,-522.8428 176.9715,-518.25 170.3334,-523.9856 170.3334,-523.9856"/>
<ellipse fill="none" stroke="#000000" cx="167.2668" cy="-524.8998" rx="3.2" ry="3.2"/>
</g>
<!-- device -->
<g id="node3" class="node">
<title>device</title>
<g id="a_node3"><a xlink:href="../../tables/device.html" xlink:title="device" target="_top">
<polygon fill="#ffffff" stroke="transparent" points="355.5,-538.2 355.5,-599.2 431.5,-599.2 431.5,-538.2 355.5,-538.2"/>
<polygon fill="#f5f5f5" stroke="transparent" points="355.5,-575.7 355.5,-598.7 431.5,-598.7 431.5,-575.7 355.5,-575.7"/>
<polygon fill="none" stroke="#000000" points="355.5,-575.7 355.5,-598.7 431.5,-598.7 431.5,-575.7 355.5,-575.7"/>
<text text-anchor="start" x="360.5" y="-584.3" font-family="Helvetica,sans-Serif" font-weight="bold" font-size="11.00" fill="#000000">device</text>
<text text-anchor="start" x="397.0219" y="-583.8" font-family="Helvetica,sans-Serif" font-size="11.00" fill="#000000">[table]</text>
<polygon fill="none" stroke="#000000" points="355.5,-556.7 355.5,-575.7 431.5,-575.7 431.5,-556.7 355.5,-556.7"/>
<text text-anchor="start" x="358.5" y="-562.8" font-family="Helvetica,sans-Serif" font-size="11.00" fill="#000000">...</text>
<polygon fill="#ffffff" stroke="transparent" points="355.5,-537.7 355.5,-556.7 378.5,-556.7 378.5,-537.7 355.5,-537.7"/>
<polygon fill="none" stroke="#000000" points="355.5,-537.7 355.5,-556.7 378.5,-556.7 378.5,-537.7 355.5,-537.7"/>
<text text-anchor="start" x="358.5" y="-543.8" font-family="Helvetica,sans-Serif" font-size="11.00" fill="#000000">&lt; 1</text>
<polygon fill="#ffffff" stroke="transparent" points="378.5,-537.7 378.5,-556.7 417.5,-556.7 417.5,-537.7 378.5,-537.7"/>
<polygon fill="none" stroke="#000000" points="378.5,-537.7 378.5,-556.7 417.5,-556.7 417.5,-537.7 378.5,-537.7"/>
<text text-anchor="start" x="382.1105" y="-543.8" font-family="Helvetica,sans-Serif" font-size="11.00" fill="#000000">0 rows</text>
<polygon fill="#ffffff" stroke="transparent" points="417.5,-537.7 417.5,-556.7 431.5,-556.7 431.5,-537.7 417.5,-537.7"/>
<polygon fill="none" stroke="#000000" points="417.5,-537.7 417.5,-556.7 431.5,-556.7 431.5,-537.7 417.5,-537.7"/>
<text text-anchor="start" x="422.3862" y="-543.8" font-family="Helvetica,sans-Serif" font-size="11.00" fill="#000000"> &#160;</text>
</a>
</g>
</g>
<!-- device&#45;&gt;patients -->
<g id="edge2" class="edge">
<title>device:w&#45;&gt;patients:e</title>
<path fill="none" stroke="#000000" d="M340.8553,-565.7C327.7969,-565.7 320.0191,-565.7 302,-565.7"/>
<polygon fill="#000000" stroke="#000000" points="347.5,-565.7001 355.5,-569.3 351.5,-565.7 355.5,-565.7 355.5,-565.7 355.5,-565.7 351.5,-565.7 355.5,-562.1 347.5,-565.7001 347.5,-565.7001"/>
<ellipse fill="none" stroke="#000000" cx="344.3" cy="-565.7001" rx="3.2" ry="3.2"/>
</g>
<!-- faqs -->
<g id="node4" class="node">
<title>faqs</title>
<g id="a_node4"><a xlink:href="../../tables/faqs.html" xlink:title="faqs" target="_top">
<polygon fill="#ffffff" stroke="transparent" points="546.5,-373.2 546.5,-434.2 617.5,-434.2 617.5,-373.2 546.5,-373.2"/>
<polygon fill="#f5f5f5" stroke="transparent" points="547,-410.7 547,-433.7 618,-433.7 618,-410.7 547,-410.7"/>
<polygon fill="none" stroke="#000000" points="547,-410.7 547,-433.7 618,-433.7 618,-410.7 547,-410.7"/>
<text text-anchor="start" x="551.6066" y="-419.3" font-family="Helvetica,sans-Serif" font-weight="bold" font-size="11.00" fill="#000000">faqs</text>
<text text-anchor="start" x="583.0437" y="-418.8" font-family="Helvetica,sans-Serif" font-size="11.00" fill="#000000">[table]</text>
<polygon fill="none" stroke="#000000" points="547,-391.7 547,-410.7 618,-410.7 618,-391.7 547,-391.7"/>
<text text-anchor="start" x="550" y="-397.8" font-family="Helvetica,sans-Serif" font-size="11.00" fill="#000000">...</text>
<polygon fill="#ffffff" stroke="transparent" points="547,-372.7 547,-391.7 568,-391.7 568,-372.7 547,-372.7"/>
<polygon fill="none" stroke="#000000" points="547,-372.7 547,-391.7 568,-391.7 568,-372.7 547,-372.7"/>
<text text-anchor="start" x="549.7026" y="-378.8" font-family="Helvetica,sans-Serif" font-size="11.00" fill="#000000">&lt; 2</text>
<polygon fill="#ffffff" stroke="transparent" points="568,-372.7 568,-391.7 606,-391.7 606,-372.7 568,-372.7"/>
<polygon fill="none" stroke="#000000" points="568,-372.7 568,-391.7 606,-391.7 606,-372.7 568,-372.7"/>
<text text-anchor="start" x="570.8053" y="-378.8" font-family="Helvetica,sans-Serif" font-size="11.00" fill="#000000">0 rows</text>
<polygon fill="#ffffff" stroke="transparent" points="606,-372.7 606,-391.7 618,-391.7 618,-372.7 606,-372.7"/>
<polygon fill="none" stroke="#000000" points="606,-372.7 606,-391.7 618,-391.7 618,-372.7 606,-372.7"/>
<text text-anchor="start" x="608.9431" y="-378.8" font-family="Helvetica,sans-Serif" font-size="11.00" fill="#000000"> &#160;</text>
</a>
</g>
</g>
<!-- users -->
<g id="node5" class="node">
<title>users</title>
<g id="a_node5"><a xlink:href="../../tables/users.html" xlink:title="users" target="_top">
<polygon fill="#ffffff" stroke="transparent" points="353.5,-330.2 353.5,-435.2 433.5,-435.2 433.5,-330.2 353.5,-330.2"/>
<polygon fill="#f5f5f5" stroke="transparent" points="353.5,-411.7 353.5,-434.7 433.5,-434.7 433.5,-411.7 353.5,-411.7"/>
<polygon fill="none" stroke="#000000" points="353.5,-411.7 353.5,-434.7 433.5,-434.7 433.5,-411.7 353.5,-411.7"/>
<text text-anchor="start" x="358.5" y="-420.3" font-family="Helvetica,sans-Serif" font-weight="bold" font-size="11.00" fill="#000000">users</text>
<text text-anchor="start" x="398.5437" y="-419.8" font-family="Helvetica,sans-Serif" font-size="11.00" fill="#000000">[table]</text>
<polygon fill="none" stroke="#000000" points="353.5,-389.7 353.5,-411.7 433.5,-411.7 433.5,-389.7 353.5,-389.7"/>
<image xlink:href="../../images/primaryKeys.png" width="11px" height="12px" preserveAspectRatio="xMinYMin meet" x="358.5" y="-406.7"/>
<text text-anchor="start" x="373.5" y="-396.8" font-family="Helvetica,sans-Serif" font-size="11.00" fill="#000000">id_user</text>
<polygon fill="#ffffff" stroke="transparent" points="353.5,-367.7 353.5,-389.7 433.5,-389.7 433.5,-367.7 353.5,-367.7"/>
<polygon fill="none" stroke="#000000" points="353.5,-367.7 353.5,-389.7 433.5,-389.7 433.5,-367.7 353.5,-367.7"/>
<text text-anchor="start" x="373.5" y="-374.8" font-family="Helvetica,sans-Serif" font-size="11.00" fill="#000000">username</text>
<polygon fill="none" stroke="#000000" points="353.5,-348.7 353.5,-367.7 433.5,-367.7 433.5,-348.7 353.5,-348.7"/>
<text text-anchor="start" x="356.5" y="-354.8" font-family="Helvetica,sans-Serif" font-size="11.00" fill="#000000">...</text>
<polygon fill="#ffffff" stroke="transparent" points="353.5,-329.7 353.5,-348.7 369.5,-348.7 369.5,-329.7 353.5,-329.7"/>
<polygon fill="none" stroke="#000000" points="353.5,-329.7 353.5,-348.7 369.5,-348.7 369.5,-329.7 353.5,-329.7"/>
<text text-anchor="start" x="356.5" y="-335.8" font-family="Helvetica,sans-Serif" font-size="11.00" fill="#000000"> &#160;</text>
<polygon fill="#ffffff" stroke="transparent" points="369.5,-329.7 369.5,-348.7 409.5,-348.7 409.5,-329.7 369.5,-329.7"/>
<polygon fill="none" stroke="#000000" points="369.5,-329.7 369.5,-348.7 409.5,-348.7 409.5,-329.7 369.5,-329.7"/>
<text text-anchor="start" x="374.1105" y="-335.8" font-family="Helvetica,sans-Serif" font-size="11.00" fill="#000000">0 rows</text>
<polygon fill="#ffffff" stroke="transparent" points="409.5,-329.7 409.5,-348.7 433.5,-348.7 433.5,-329.7 409.5,-329.7"/>
<polygon fill="none" stroke="#000000" points="409.5,-329.7 409.5,-348.7 433.5,-348.7 433.5,-329.7 409.5,-329.7"/>
<text text-anchor="start" x="414.9053" y="-335.8" font-family="Helvetica,sans-Serif" font-size="11.00" fill="#000000">4 &gt;</text>
</a>
</g>
</g>
<!-- faqs&#45;&gt;users -->
<g id="edge3" class="edge">
<title>faqs:w&#45;&gt;users:e</title>
<path fill="none" stroke="#000000" d="M532.4669,-399.0296C493.5393,-394.7643 478.7227,-395.3211 433.5,-400.7"/>
<polygon fill="#000000" stroke="#000000" points="539.0523,-399.7865 546.5889,-404.2765 543.0262,-400.2432 547,-400.7 547,-400.7 547,-400.7 543.0262,-400.2432 547.4111,-397.1235 539.0523,-399.7865 539.0523,-399.7865"/>
<ellipse fill="none" stroke="#000000" cx="535.8733" cy="-399.421" rx="3.2" ry="3.2"/>
</g>
<!-- faqs&#45;&gt;users -->
<g id="edge4" class="edge">
<title>faqs:w&#45;&gt;users:e</title>
<path fill="none" stroke="#000000" d="M532.7217,-402.6162C493.6037,-407.6278 478.8212,-406.9891 433.5,-400.7"/>
<polygon fill="#000000" stroke="#000000" points="539.0711,-401.7641 547.4789,-404.268 543.0355,-401.2321 547,-400.7 547,-400.7 547,-400.7 543.0355,-401.2321 546.5211,-397.132 539.0711,-401.7641 539.0711,-401.7641"/>
<ellipse fill="none" stroke="#000000" cx="535.8995" cy="-402.1898" rx="3.2" ry="3.2"/>
</g>
<!-- message_notifications -->
<g id="node6" class="node">
<title>message_notifications</title>
<g id="a_node6"><a xlink:href="../../tables/message_notifications.html" xlink:title="message_notifications" target="_top">
<polygon fill="#ffffff" stroke="transparent" points="728,-567.2 728,-628.2 896,-628.2 896,-567.2 728,-567.2"/>
<polygon fill="#f5f5f5" stroke="transparent" points="728,-604.7 728,-627.7 896,-627.7 896,-604.7 728,-604.7"/>
<polygon fill="none" stroke="#000000" points="728,-604.7 728,-627.7 896,-627.7 896,-604.7 728,-604.7"/>
<text text-anchor="start" x="733" y="-613.3" font-family="Helvetica,sans-Serif" font-weight="bold" font-size="11.00" fill="#000000">message_notifications</text>
<text text-anchor="start" x="861.5219" y="-612.8" font-family="Helvetica,sans-Serif" font-size="11.00" fill="#000000">[table]</text>
<polygon fill="none" stroke="#000000" points="728,-585.7 728,-604.7 896,-604.7 896,-585.7 728,-585.7"/>
<text text-anchor="start" x="731" y="-591.8" font-family="Helvetica,sans-Serif" font-size="11.00" fill="#000000">...</text>
<polygon fill="#ffffff" stroke="transparent" points="728,-566.7 728,-585.7 797,-585.7 797,-566.7 728,-566.7"/>
<polygon fill="none" stroke="#000000" points="728,-566.7 728,-585.7 797,-585.7 797,-566.7 728,-566.7"/>
<text text-anchor="start" x="731" y="-572.8" font-family="Helvetica,sans-Serif" font-size="11.00" fill="#000000">&lt; 2</text>
<polygon fill="#ffffff" stroke="transparent" points="797,-566.7 797,-585.7 859,-585.7 859,-566.7 797,-566.7"/>
<polygon fill="none" stroke="#000000" points="797,-566.7 797,-585.7 859,-585.7 859,-566.7 797,-566.7"/>
<text text-anchor="start" x="823.6105" y="-572.8" font-family="Helvetica,sans-Serif" font-size="11.00" fill="#000000">0 rows</text>
<polygon fill="#ffffff" stroke="transparent" points="859,-566.7 859,-585.7 896,-585.7 896,-566.7 859,-566.7"/>
<polygon fill="none" stroke="#000000" points="859,-566.7 859,-585.7 896,-585.7 896,-566.7 859,-566.7"/>
<text text-anchor="start" x="886.8862" y="-572.8" font-family="Helvetica,sans-Serif" font-size="11.00" fill="#000000"> &#160;</text>
</a>
</g>
</g>
<!-- message_notifications&#45;&gt;patients -->
<g id="edge6" class="edge">
<title>message_notifications:w&#45;&gt;patients:e</title>
<path fill="none" stroke="#000000" d="M713.1908,-594.9786C552.6528,-601.0476 490.3662,-703.486 343,-625.7 314.4369,-610.6232 334.298,-565.7 302,-565.7"/>
<polygon fill="#000000" stroke="#000000" points="720.0014,-594.8505 728.0677,-598.2994 724.0007,-594.7753 728,-594.7 728,-594.7 728,-594.7 724.0007,-594.7753 727.9323,-591.1006 720.0014,-594.8505 720.0014,-594.8505"/>
<ellipse fill="none" stroke="#000000" cx="716.802" cy="-594.9107" rx="3.2" ry="3.2"/>
</g>
<!-- messages -->
<g id="node7" class="node">
<title>messages</title>
<g id="a_node7"><a xlink:href="../../tables/messages.html" xlink:title="messages" target="_top">
<polygon fill="#ffffff" stroke="transparent" points="533.5,-511.2 533.5,-572.2 630.5,-572.2 630.5,-511.2 533.5,-511.2"/>
<polygon fill="#f5f5f5" stroke="transparent" points="534,-548.7 534,-571.7 631,-571.7 631,-548.7 534,-548.7"/>
<polygon fill="none" stroke="#000000" points="534,-548.7 534,-571.7 631,-571.7 631,-548.7 534,-548.7"/>
<text text-anchor="start" x="539" y="-557.3" font-family="Helvetica,sans-Serif" font-weight="bold" font-size="11.00" fill="#000000">messages</text>
<text text-anchor="start" x="596.5219" y="-556.8" font-family="Helvetica,sans-Serif" font-size="11.00" fill="#000000">[table]</text>
<polygon fill="none" stroke="#000000" points="534,-529.7 534,-548.7 631,-548.7 631,-529.7 534,-529.7"/>
<text text-anchor="start" x="537" y="-535.8" font-family="Helvetica,sans-Serif" font-size="11.00" fill="#000000">...</text>
<polygon fill="#ffffff" stroke="transparent" points="534,-510.7 534,-529.7 563,-529.7 563,-510.7 534,-510.7"/>
<polygon fill="none" stroke="#000000" points="534,-510.7 534,-529.7 563,-529.7 563,-510.7 534,-510.7"/>
<text text-anchor="start" x="537" y="-516.8" font-family="Helvetica,sans-Serif" font-size="11.00" fill="#000000">&lt; 3</text>
<polygon fill="#ffffff" stroke="transparent" points="563,-510.7 563,-529.7 605,-529.7 605,-510.7 563,-510.7"/>
<polygon fill="none" stroke="#000000" points="563,-510.7 563,-529.7 605,-529.7 605,-510.7 563,-510.7"/>
<text text-anchor="start" x="569.6105" y="-516.8" font-family="Helvetica,sans-Serif" font-size="11.00" fill="#000000">0 rows</text>
<polygon fill="#ffffff" stroke="transparent" points="605,-510.7 605,-529.7 631,-529.7 631,-510.7 605,-510.7"/>
<polygon fill="none" stroke="#000000" points="605,-510.7 605,-529.7 631,-529.7 631,-510.7 605,-510.7"/>
<text text-anchor="start" x="612.4053" y="-516.8" font-family="Helvetica,sans-Serif" font-size="11.00" fill="#000000">1 &gt;</text>
</a>
</g>
</g>
<!-- message_notifications&#45;&gt;messages -->
<g id="edge5" class="edge">
<title>message_notifications:w&#45;&gt;messages:e</title>
<path fill="none" stroke="#000000" d="M713.4074,-592.8368C678.154,-583.1199 675.3351,-538.7 631,-538.7"/>
<polygon fill="#000000" stroke="#000000" points="720.0644,-593.6867 727.544,-598.271 724.0322,-594.1934 728,-594.7 728,-594.7 728,-594.7 724.0322,-594.1934 728.456,-591.129 720.0644,-593.6867 720.0644,-593.6867"/>
<ellipse fill="none" stroke="#000000" cx="716.8902" cy="-593.2814" rx="3.2" ry="3.2"/>
</g>
<!-- messages&#45;&gt;chats -->
<g id="edge7" class="edge">
<title>messages:w&#45;&gt;chats:e</title>
<path fill="none" stroke="#000000" d="M519.5104,-536.9936C482.7826,-527.7102 479.0477,-483.7 433.5,-483.7"/>
<polygon fill="#000000" stroke="#000000" points="526.0549,-537.7643 533.5789,-542.2753 530.0275,-538.2322 534,-538.7 534,-538.7 534,-538.7 530.0275,-538.2322 534.4211,-535.1247 526.0549,-537.7643 526.0549,-537.7643"/>
<ellipse fill="none" stroke="#000000" cx="522.8769" cy="-537.39" rx="3.2" ry="3.2"/>
</g>
<!-- messages&#45;&gt;patients -->
<g id="edge8" class="edge">
<title>messages:w&#45;&gt;patients:e</title>
<path fill="none" stroke="#000000" d="M519.2835,-540.5285C484.3537,-550.1282 486.869,-594.8261 444,-609.7 401.5912,-624.4142 384.1625,-627.6071 343,-609.7 318.4894,-599.037 328.7296,-565.7 302,-565.7"/>
<polygon fill="#000000" stroke="#000000" points="526.061,-539.6864 534.4439,-542.2725 530.0305,-539.1932 534,-538.7 534,-538.7 534,-538.7 530.0305,-539.1932 533.5561,-535.1275 526.061,-539.6864 526.061,-539.6864"/>
<ellipse fill="none" stroke="#000000" cx="522.8855" cy="-540.081" rx="3.2" ry="3.2"/>
</g>
<!-- messages&#45;&gt;users -->
<g id="edge9" class="edge">
<title>messages:w&#45;&gt;users:e</title>
<path fill="none" stroke="#000000" d="M520.3456,-532.7703C489.6985,-506.3563 466.6949,-400.7 433.5,-400.7"/>
<polygon fill="#000000" stroke="#000000" points="526.6621,-535.5133 532.566,-542.0021 530.331,-537.1067 534,-538.7 534,-538.7 534,-538.7 530.331,-537.1067 535.434,-535.3979 526.6621,-535.5133 526.6621,-535.5133"/>
<ellipse fill="none" stroke="#000000" cx="523.7269" cy="-534.2387" rx="3.2" ry="3.2"/>
</g>
<!-- question_responses -->
<g id="node10" class="node">
<title>question_responses</title>
<g id="a_node10"><a xlink:href="../../tables/question_responses.html" xlink:title="question_responses" target="_top">
<polygon fill="#ffffff" stroke="transparent" points="734.5,-126.2 734.5,-253.2 889.5,-253.2 889.5,-126.2 734.5,-126.2"/>
<polygon fill="#f5f5f5" stroke="transparent" points="735,-229.7 735,-252.7 890,-252.7 890,-229.7 735,-229.7"/>
<polygon fill="none" stroke="#000000" points="735,-229.7 735,-252.7 890,-252.7 890,-229.7 735,-229.7"/>
<text text-anchor="start" x="740" y="-238.3" font-family="Helvetica,sans-Serif" font-weight="bold" font-size="11.00" fill="#000000">question_responses</text>
<text text-anchor="start" x="855.5219" y="-237.8" font-family="Helvetica,sans-Serif" font-size="11.00" fill="#000000">[table]</text>
<polygon fill="none" stroke="#000000" points="735,-207.7 735,-229.7 890,-229.7 890,-207.7 735,-207.7"/>
<image xlink:href="../../images/primaryKeys.png" width="11px" height="12px" preserveAspectRatio="xMinYMin meet" x="740" y="-224.7"/>
<text text-anchor="start" x="764" y="-214.8" font-family="Helvetica,sans-Serif" font-size="11.00" fill="#000000">id_qresponse</text>
<polygon fill="none" stroke="#000000" points="735,-185.7 735,-207.7 890,-207.7 890,-185.7 735,-185.7"/>
<image xlink:href="../../images/foreignKeys.png" width="11px" height="12px" preserveAspectRatio="xMinYMin meet" x="740" y="-202.7"/>
<text text-anchor="start" x="764" y="-192.8" font-family="Helvetica,sans-Serif" font-size="11.00" fill="#000000">id_responses</text>
<polygon fill="none" stroke="#000000" points="735,-163.7 735,-185.7 890,-185.7 890,-163.7 735,-163.7"/>
<image xlink:href="../../images/foreignKeys.png" width="11px" height="12px" preserveAspectRatio="xMinYMin meet" x="740" y="-180.7"/>
<text text-anchor="start" x="764" y="-170.8" font-family="Helvetica,sans-Serif" font-size="11.00" fill="#000000">questionId</text>
<polygon fill="none" stroke="#000000" points="735,-144.7 735,-163.7 890,-163.7 890,-144.7 735,-144.7"/>
<text text-anchor="start" x="738" y="-150.8" font-family="Helvetica,sans-Serif" font-size="11.00" fill="#000000">...</text>
<polygon fill="#ffffff" stroke="transparent" points="735,-125.7 735,-144.7 798,-144.7 798,-125.7 735,-125.7"/>
<polygon fill="none" stroke="#000000" points="735,-125.7 735,-144.7 798,-144.7 798,-125.7 735,-125.7"/>
<text text-anchor="start" x="738" y="-131.8" font-family="Helvetica,sans-Serif" font-size="11.00" fill="#000000">&lt; 2</text>
<polygon fill="#ffffff" stroke="transparent" points="798,-125.7 798,-144.7 857,-144.7 857,-125.7 798,-125.7"/>
<polygon fill="none" stroke="#000000" points="798,-125.7 798,-144.7 857,-144.7 857,-125.7 798,-125.7"/>
<text text-anchor="start" x="821.6105" y="-131.8" font-family="Helvetica,sans-Serif" font-size="11.00" fill="#000000">0 rows</text>
<polygon fill="#ffffff" stroke="transparent" points="857,-125.7 857,-144.7 890,-144.7 890,-125.7 857,-125.7"/>
<polygon fill="none" stroke="#000000" points="857,-125.7 857,-144.7 890,-144.7 890,-125.7 857,-125.7"/>
<text text-anchor="start" x="880.8862" y="-131.8" font-family="Helvetica,sans-Serif" font-size="11.00" fill="#000000"> &#160;</text>
</a>
</g>
</g>
<!-- responses -->
<g id="node11" class="node">
<title>responses</title>
<g id="a_node11"><a xlink:href="../../tables/responses.html" xlink:title="responses" target="_top">
<polygon fill="#ffffff" stroke="transparent" points="485,-120.7 485,-342.7 679,-342.7 679,-120.7 485,-120.7"/>
<polygon fill="#f5f5f5" stroke="transparent" points="487,-317.7 487,-340.7 677,-340.7 677,-317.7 487,-317.7"/>
<polygon fill="none" stroke="#000000" points="487,-317.7 487,-340.7 677,-340.7 677,-317.7 487,-317.7"/>
<text text-anchor="start" x="492" y="-326.3" font-family="Helvetica,sans-Serif" font-weight="bold" font-size="11.00" fill="#000000">responses</text>
<text text-anchor="start" x="642.0437" y="-325.8" font-family="Helvetica,sans-Serif" font-size="11.00" fill="#000000">[table]</text>
<polygon fill="none" stroke="#000000" points="487,-295.7 487,-317.7 585,-317.7 585,-295.7 487,-295.7"/>
<image xlink:href="../../images/primaryKeys.png" width="11px" height="12px" preserveAspectRatio="xMinYMin meet" x="492" y="-312.7"/>
<text text-anchor="start" x="507" y="-302.8" font-family="Helvetica,sans-Serif" font-size="11.00" fill="#000000">id_responses</text>
<polygon fill="none" stroke="#000000" points="585,-295.7 585,-317.7 677,-317.7 677,-295.7 585,-295.7"/>
<text text-anchor="start" x="588" y="-303.4" font-family="Helvetica,sans-Serif" font-size="11.00" fill="#000000">serial[10]</text>
<polygon fill="none" stroke="#000000" points="487,-273.7 487,-295.7 585,-295.7 585,-273.7 487,-273.7"/>
<image xlink:href="../../images/foreignKeys.png" width="11px" height="12px" preserveAspectRatio="xMinYMin meet" x="492" y="-290.7"/>
<text text-anchor="start" x="507" y="-280.8" font-family="Helvetica,sans-Serif" font-size="11.00" fill="#000000">formId</text>
<polygon fill="none" stroke="#000000" points="585,-273.7 585,-295.7 677,-295.7 677,-273.7 585,-273.7"/>
<text text-anchor="start" x="588" y="-281.4" font-family="Helvetica,sans-Serif" font-size="11.00" fill="#000000">int4[10]</text>
<polygon fill="none" stroke="#000000" points="487,-251.7 487,-273.7 585,-273.7 585,-251.7 487,-251.7"/>
<text text-anchor="start" x="507" y="-258.8" font-family="Helvetica,sans-Serif" font-size="11.00" fill="#000000">submittedAt</text>
<polygon fill="none" stroke="#000000" points="585,-251.7 585,-273.7 677,-273.7 677,-251.7 585,-251.7"/>
<text text-anchor="start" x="587.6023" y="-259.4" font-family="Helvetica,sans-Serif" font-size="11.00" fill="#000000">timestamptz[35,6]</text>
<polygon fill="none" stroke="#000000" points="487,-229.7 487,-251.7 585,-251.7 585,-229.7 487,-229.7"/>
<image xlink:href="../../images/foreignKeys.png" width="11px" height="12px" preserveAspectRatio="xMinYMin meet" x="492" y="-246.7"/>
<text text-anchor="start" x="507" y="-236.8" font-family="Helvetica,sans-Serif" font-size="11.00" fill="#000000">submittedBy</text>
<polygon fill="none" stroke="#000000" points="585,-229.7 585,-251.7 677,-251.7 677,-229.7 585,-229.7"/>
<text text-anchor="start" x="588" y="-237.4" font-family="Helvetica,sans-Serif" font-size="11.00" fill="#000000">int4[10]</text>
<polygon fill="none" stroke="#000000" points="487,-207.7 487,-229.7 585,-229.7 585,-207.7 487,-207.7"/>
<image xlink:href="../../images/foreignKeys.png" width="11px" height="12px" preserveAspectRatio="xMinYMin meet" x="492" y="-224.7"/>
<text text-anchor="start" x="507" y="-214.8" font-family="Helvetica,sans-Serif" font-size="11.00" fill="#000000">assignedBy</text>
<polygon fill="none" stroke="#000000" points="585,-207.7 585,-229.7 677,-229.7 677,-207.7 585,-207.7"/>
<text text-anchor="start" x="588" y="-215.4" font-family="Helvetica,sans-Serif" font-size="11.00" fill="#000000">int4[10]</text>
<polygon fill="none" stroke="#000000" points="487,-185.7 487,-207.7 585,-207.7 585,-185.7 487,-185.7"/>
<text text-anchor="start" x="507" y="-192.8" font-family="Helvetica,sans-Serif" font-size="11.00" fill="#000000">score</text>
<polygon fill="none" stroke="#000000" points="585,-185.7 585,-207.7 677,-207.7 677,-185.7 585,-185.7"/>
<text text-anchor="start" x="588" y="-193.4" font-family="Helvetica,sans-Serif" font-size="11.00" fill="#000000">numeric[10,2]</text>
<polygon fill="none" stroke="#000000" points="487,-163.7 487,-185.7 585,-185.7 585,-163.7 487,-163.7"/>
<text text-anchor="start" x="507" y="-170.8" font-family="Helvetica,sans-Serif" font-size="11.00" fill="#000000">createdAt</text>
<polygon fill="none" stroke="#000000" points="585,-163.7 585,-185.7 677,-185.7 677,-163.7 585,-163.7"/>
<text text-anchor="start" x="587.6023" y="-171.4" font-family="Helvetica,sans-Serif" font-size="11.00" fill="#000000">timestamptz[35,6]</text>
<polygon fill="none" stroke="#000000" points="487,-141.7 487,-163.7 585,-163.7 585,-141.7 487,-141.7"/>
<text text-anchor="start" x="507" y="-148.8" font-family="Helvetica,sans-Serif" font-size="11.00" fill="#000000">updatedAt</text>
<polygon fill="none" stroke="#000000" points="585,-141.7 585,-163.7 677,-163.7 677,-141.7 585,-141.7"/>
<text text-anchor="start" x="587.6023" y="-149.4" font-family="Helvetica,sans-Serif" font-size="11.00" fill="#000000">timestamptz[35,6]</text>
<polygon fill="#ffffff" stroke="transparent" points="487,-122.7 487,-141.7 527,-141.7 527,-122.7 487,-122.7"/>
<polygon fill="none" stroke="#000000" points="487,-122.7 487,-141.7 527,-141.7 527,-122.7 487,-122.7"/>
<text text-anchor="start" x="490" y="-128.8" font-family="Helvetica,sans-Serif" font-size="11.00" fill="#000000">&lt; 3</text>
<polygon fill="#ffffff" stroke="transparent" points="527,-122.7 527,-141.7 585,-141.7 585,-122.7 527,-122.7"/>
<polygon fill="none" stroke="#000000" points="527,-122.7 527,-141.7 585,-141.7 585,-122.7 527,-122.7"/>
<text text-anchor="start" x="549.6105" y="-128.8" font-family="Helvetica,sans-Serif" font-size="11.00" fill="#000000">0 rows</text>
<polygon fill="#ffffff" stroke="transparent" points="585,-122.7 585,-141.7 677,-141.7 677,-122.7 585,-122.7"/>
<polygon fill="none" stroke="#000000" points="585,-122.7 585,-141.7 677,-141.7 677,-122.7 585,-122.7"/>
<text text-anchor="start" x="658.4053" y="-128.8" font-family="Helvetica,sans-Serif" font-size="11.00" fill="#000000">1 &gt;</text>
<polygon fill="none" stroke="#000000" stroke-width="2" points="486,-121.7 486,-341.7 678,-341.7 678,-121.7 486,-121.7"/>
</a>
</g>
</g>
<!-- question_responses&#45;&gt;responses -->
<g id="edge12" class="edge">
<title>question_responses:w&#45;&gt;responses:e</title>
<path fill="none" stroke="#000000" d="M720.8573,-200.1127C689.6143,-218.6795 726.4395,-306.7 677,-306.7"/>
<polygon fill="#000000" stroke="#000000" points="727.2232,-198.5766 735.8445,-200.1996 731.1116,-197.6383 735,-196.7 735,-196.7 735,-196.7 731.1116,-197.6383 734.1555,-193.2004 727.2232,-198.5766 727.2232,-198.5766"/>
<ellipse fill="none" stroke="#000000" cx="724.1125" cy="-199.3273" rx="3.2" ry="3.2"/>
</g>
<!-- questions -->
<g id="node12" class="node">
<title>questions</title>
<g id="a_node12"><a xlink:href="../../tables/questions.html" xlink:title="questions" target="_top">
<polygon fill="#ffffff" stroke="transparent" points="534.5,-38.2 534.5,-99.2 629.5,-99.2 629.5,-38.2 534.5,-38.2"/>
<polygon fill="#f5f5f5" stroke="transparent" points="535,-75.7 535,-98.7 630,-98.7 630,-75.7 535,-75.7"/>
<polygon fill="none" stroke="#000000" points="535,-75.7 535,-98.7 630,-98.7 630,-75.7 535,-75.7"/>
<text text-anchor="start" x="540" y="-84.3" font-family="Helvetica,sans-Serif" font-weight="bold" font-size="11.00" fill="#000000">questions</text>
<text text-anchor="start" x="595.5219" y="-83.8" font-family="Helvetica,sans-Serif" font-size="11.00" fill="#000000">[table]</text>
<polygon fill="none" stroke="#000000" points="535,-56.7 535,-75.7 630,-75.7 630,-56.7 535,-56.7"/>
<text text-anchor="start" x="538" y="-62.8" font-family="Helvetica,sans-Serif" font-size="11.00" fill="#000000">...</text>
<polygon fill="#ffffff" stroke="transparent" points="535,-37.7 535,-56.7 563,-56.7 563,-37.7 535,-37.7"/>
<polygon fill="none" stroke="#000000" points="535,-37.7 535,-56.7 563,-56.7 563,-37.7 535,-37.7"/>
<text text-anchor="start" x="538" y="-43.8" font-family="Helvetica,sans-Serif" font-size="11.00" fill="#000000">&lt; 1</text>
<polygon fill="#ffffff" stroke="transparent" points="563,-37.7 563,-56.7 605,-56.7 605,-37.7 563,-37.7"/>
<polygon fill="none" stroke="#000000" points="563,-37.7 563,-56.7 605,-56.7 605,-37.7 563,-37.7"/>
<text text-anchor="start" x="569.6105" y="-43.8" font-family="Helvetica,sans-Serif" font-size="11.00" fill="#000000">0 rows</text>
<polygon fill="#ffffff" stroke="transparent" points="605,-37.7 605,-56.7 630,-56.7 630,-37.7 605,-37.7"/>
<polygon fill="none" stroke="#000000" points="605,-37.7 605,-56.7 630,-56.7 630,-37.7 605,-37.7"/>
<text text-anchor="start" x="611.4053" y="-43.8" font-family="Helvetica,sans-Serif" font-size="11.00" fill="#000000">2 &gt;</text>
</a>
</g>
</g>
<!-- question_responses&#45;&gt;questions -->
<g id="edge13" class="edge">
<title>question_responses:w&#45;&gt;questions:e</title>
<path fill="none" stroke="#000000" d="M720.7374,-171.682C702.5547,-162.1196 707.6577,-131.8762 687,-110.7 664.4616,-87.5959 662.2766,-65.7 630,-65.7"/>
<polygon fill="#000000" stroke="#000000" points="727.1733,-173.0438 734.2547,-178.222 731.0867,-173.8719 735,-174.7 735,-174.7 735,-174.7 731.0867,-173.8719 735.7453,-171.178 727.1733,-173.0438 727.1733,-173.0438"/>
<ellipse fill="none" stroke="#000000" cx="724.0426" cy="-172.3813" rx="3.2" ry="3.2"/>
</g>
<!-- responses&#45;&gt;patients -->
<g id="edge17" class="edge">
<title>responses:w&#45;&gt;patients:e</title>
<path fill="none" stroke="#000000" d="M473.0188,-237.0523C463.5106,-231.1836 459.5081,-219.8806 444,-215.7 400.6583,-204.0163 376.5369,-185.8623 343,-215.7 284.4941,-267.7524 380.3096,-565.7 302,-565.7"/>
<polygon fill="#000000" stroke="#000000" points="479.2591,-238.6804 486.0912,-244.1834 483.1296,-239.6902 487,-240.7 487,-240.7 487,-240.7 483.1296,-239.6902 487.9088,-237.2166 479.2591,-238.6804 479.2591,-238.6804"/>
<ellipse fill="none" stroke="#000000" cx="476.1628" cy="-237.8725" rx="3.2" ry="3.2"/>
</g>
<!-- responses&#45;&gt;users -->
<g id="edge15" class="edge">
<title>responses:w&#45;&gt;users:e</title>
<path fill="none" stroke="#000000" d="M472.7252,-221.0012C417.099,-242.0693 512.2125,-400.7 433.5,-400.7"/>
<polygon fill="#000000" stroke="#000000" points="479.102,-219.9732 487.573,-222.2541 483.051,-219.3366 487,-218.7 487,-218.7 487,-218.7 483.051,-219.3366 486.427,-215.1459 479.102,-219.9732 479.102,-219.9732"/>
<ellipse fill="none" stroke="#000000" cx="475.9427" cy="-220.4825" rx="3.2" ry="3.2"/>
</g>
<!-- forms -->
<g id="node13" class="node">
<title>forms</title>
<g id="a_node13"><a xlink:href="../../tables/forms.html" xlink:title="forms" target="_top">
<polygon fill="#ffffff" stroke="transparent" points="351,-226.2 351,-309.2 436,-309.2 436,-226.2 351,-226.2"/>
<polygon fill="#f5f5f5" stroke="transparent" points="351.5,-285.7 351.5,-308.7 436.5,-308.7 436.5,-285.7 351.5,-285.7"/>
<polygon fill="none" stroke="#000000" points="351.5,-285.7 351.5,-308.7 436.5,-308.7 436.5,-285.7 351.5,-285.7"/>
<text text-anchor="start" x="356.5" y="-294.3" font-family="Helvetica,sans-Serif" font-weight="bold" font-size="11.00" fill="#000000">forms</text>
<text text-anchor="start" x="401.5437" y="-293.8" font-family="Helvetica,sans-Serif" font-size="11.00" fill="#000000">[table]</text>
<polygon fill="none" stroke="#000000" points="351.5,-263.7 351.5,-285.7 436.5,-285.7 436.5,-263.7 351.5,-263.7"/>
<image xlink:href="../../images/primaryKeys.png" width="11px" height="12px" preserveAspectRatio="xMinYMin meet" x="356.5" y="-280.7"/>
<text text-anchor="start" x="371.5" y="-270.8" font-family="Helvetica,sans-Serif" font-size="11.00" fill="#000000">id_forms</text>
<polygon fill="none" stroke="#000000" points="351.5,-244.7 351.5,-263.7 436.5,-263.7 436.5,-244.7 351.5,-244.7"/>
<text text-anchor="start" x="354.5" y="-250.8" font-family="Helvetica,sans-Serif" font-size="11.00" fill="#000000">...</text>
<polygon fill="#ffffff" stroke="transparent" points="351.5,-225.7 351.5,-244.7 370.5,-244.7 370.5,-225.7 351.5,-225.7"/>
<polygon fill="none" stroke="#000000" points="351.5,-225.7 351.5,-244.7 370.5,-244.7 370.5,-225.7 351.5,-225.7"/>
<text text-anchor="start" x="354.5" y="-231.8" font-family="Helvetica,sans-Serif" font-size="11.00" fill="#000000"> &#160;</text>
<polygon fill="#ffffff" stroke="transparent" points="370.5,-225.7 370.5,-244.7 411.5,-244.7 411.5,-225.7 370.5,-225.7"/>
<polygon fill="none" stroke="#000000" points="370.5,-225.7 370.5,-244.7 411.5,-244.7 411.5,-225.7 370.5,-225.7"/>
<text text-anchor="start" x="376.1105" y="-231.8" font-family="Helvetica,sans-Serif" font-size="11.00" fill="#000000">0 rows</text>
<polygon fill="#ffffff" stroke="transparent" points="411.5,-225.7 411.5,-244.7 436.5,-244.7 436.5,-225.7 411.5,-225.7"/>
<polygon fill="none" stroke="#000000" points="411.5,-225.7 411.5,-244.7 436.5,-244.7 436.5,-225.7 411.5,-225.7"/>
<text text-anchor="start" x="417.9053" y="-231.8" font-family="Helvetica,sans-Serif" font-size="11.00" fill="#000000">2 &gt;</text>
</a>
</g>
</g>
<!-- responses&#45;&gt;forms -->
<g id="edge16" class="edge">
<title>responses:w&#45;&gt;forms:e</title>
<path fill="none" stroke="#000000" d="M472.6743,-283.1375C460.6162,-280.325 453.6602,-274.7 436.5,-274.7"/>
<polygon fill="#000000" stroke="#000000" points="479.0472,-283.8325 486.6096,-288.2788 483.0236,-284.2663 487,-284.7 487,-284.7 487,-284.7 483.0236,-284.2663 487.3904,-281.1212 479.0472,-283.8325 479.0472,-283.8325"/>
<ellipse fill="none" stroke="#000000" cx="475.866" cy="-283.4856" rx="3.2" ry="3.2"/>
</g>
<!-- questions&#45;&gt;forms -->
<g id="edge14" class="edge">
<title>questions:w&#45;&gt;forms:e</title>
<path fill="none" stroke="#000000" d="M520.5115,-67.156C499.5366,-71.9022 491.7979,-87.9416 477,-110.7 436.0735,-173.6429 511.5786,-274.7 436.5,-274.7"/>
<polygon fill="#000000" stroke="#000000" points="527.0401,-66.5 535.36,-69.282 531.02,-66.1 535,-65.7 535,-65.7 535,-65.7 531.02,-66.1 534.64,-62.118 527.0401,-66.5 527.0401,-66.5"/>
<ellipse fill="none" stroke="#000000" cx="523.8561" cy="-66.82" rx="3.2" ry="3.2"/>
</g>
</g>
</svg>
