<?xml version="1.0" encoding="UTF-8" standalone="no"?>
<!DOCTYPE svg PUBLIC "-//W3C//DTD SVG 1.1//EN"
 "http://www.w3.org/Graphics/SVG/1.1/DTD/svg11.dtd">
<!-- Generated by graphviz version 2.40.1 (20161225.0304)
 -->
<!-- Title: twoDegreesRelationshipsDiagramImplied Pages: 1 -->
<svg width="882pt" height="331pt"
 viewBox="0.00 0.00 882.00 331.20" xmlns="http://www.w3.org/2000/svg" xmlns:xlink="http://www.w3.org/1999/xlink">
<g id="graph0" class="graph" transform="scale(1 1) rotate(0) translate(4 327.2)">
<title>twoDegreesRelationshipsDiagramImplied</title>
<polygon fill="#ffffff" stroke="transparent" points="-4,4 -4,-327.2 878,-327.2 878,4 -4,4"/>
<text text-anchor="middle" x="72.4936" y="-7.3" font-family="Helvetica,sans-Serif" font-size="11.00" fill="#000000">Generated by SchemaSpy</text>
<!-- chats -->
<g id="node1" class="node">
<title>chats</title>
<g id="a_node1"><a xlink:href="../../tables/chats.html" xlink:title="chats" target="_top">
<polygon fill="#ffffff" stroke="transparent" points="413.5,-148.2 413.5,-209.2 493.5,-209.2 493.5,-148.2 413.5,-148.2"/>
<polygon fill="#f5f5f5" stroke="transparent" points="413.5,-185.7 413.5,-208.7 493.5,-208.7 493.5,-185.7 413.5,-185.7"/>
<polygon fill="none" stroke="#000000" points="413.5,-185.7 413.5,-208.7 493.5,-208.7 493.5,-185.7 413.5,-185.7"/>
<text text-anchor="start" x="418.5" y="-194.3" font-family="Helvetica,sans-Serif" font-weight="bold" font-size="11.00" fill="#000000">chats</text>
<text text-anchor="start" x="458.5437" y="-193.8" font-family="Helvetica,sans-Serif" font-size="11.00" fill="#000000">[table]</text>
<polygon fill="none" stroke="#000000" points="413.5,-166.7 413.5,-185.7 493.5,-185.7 493.5,-166.7 413.5,-166.7"/>
<text text-anchor="start" x="416.5" y="-172.8" font-family="Helvetica,sans-Serif" font-size="11.00" fill="#000000">...</text>
<polygon fill="#ffffff" stroke="transparent" points="413.5,-147.7 413.5,-166.7 434.5,-166.7 434.5,-147.7 413.5,-147.7"/>
<polygon fill="none" stroke="#000000" points="413.5,-147.7 413.5,-166.7 434.5,-166.7 434.5,-147.7 413.5,-147.7"/>
<text text-anchor="start" x="416.2027" y="-153.8" font-family="Helvetica,sans-Serif" font-size="11.00" fill="#000000">&lt; 1</text>
<polygon fill="#ffffff" stroke="transparent" points="434.5,-147.7 434.5,-166.7 472.5,-166.7 472.5,-147.7 434.5,-147.7"/>
<polygon fill="none" stroke="#000000" points="434.5,-147.7 434.5,-166.7 472.5,-166.7 472.5,-147.7 434.5,-147.7"/>
<text text-anchor="start" x="437.3053" y="-153.8" font-family="Helvetica,sans-Serif" font-size="11.00" fill="#000000">0 rows</text>
<polygon fill="#ffffff" stroke="transparent" points="472.5,-147.7 472.5,-166.7 493.5,-166.7 493.5,-147.7 472.5,-147.7"/>
<polygon fill="none" stroke="#000000" points="472.5,-147.7 472.5,-166.7 493.5,-166.7 493.5,-147.7 472.5,-147.7"/>
<text text-anchor="start" x="475.2027" y="-153.8" font-family="Helvetica,sans-Serif" font-size="11.00" fill="#000000">1 &gt;</text>
</a>
</g>
</g>
<!-- patients -->
<g id="node2" class="node">
<title>patients</title>
<g id="a_node2"><a xlink:href="../../tables/patients.html" xlink:title="patients" target="_top">
<polygon fill="#ffffff" stroke="transparent" points="231,-61.2 231,-210.2 355,-210.2 355,-61.2 231,-61.2"/>
<polygon fill="#f5f5f5" stroke="transparent" points="231,-186.7 231,-209.7 355,-209.7 355,-186.7 231,-186.7"/>
<polygon fill="none" stroke="#000000" points="231,-186.7 231,-209.7 355,-209.7 355,-186.7 231,-186.7"/>
<text text-anchor="start" x="236" y="-195.3" font-family="Helvetica,sans-Serif" font-weight="bold" font-size="11.00" fill="#000000">patients</text>
<text text-anchor="start" x="320.0437" y="-194.8" font-family="Helvetica,sans-Serif" font-size="11.00" fill="#000000">[table]</text>
<polygon fill="none" stroke="#000000" points="231,-164.7 231,-186.7 355,-186.7 355,-164.7 231,-164.7"/>
<image xlink:href="../../images/primaryKeys.png" width="11px" height="12px" preserveAspectRatio="xMinYMin meet" x="236" y="-181.7"/>
<text text-anchor="start" x="251" y="-171.8" font-family="Helvetica,sans-Serif" font-size="11.00" fill="#000000">id_patient</text>
<polygon fill="#ffffff" stroke="transparent" points="231,-142.7 231,-164.7 355,-164.7 355,-142.7 231,-142.7"/>
<polygon fill="none" stroke="#000000" points="231,-142.7 231,-164.7 355,-164.7 355,-142.7 231,-142.7"/>
<text text-anchor="start" x="251" y="-149.8" font-family="Helvetica,sans-Serif" font-size="11.00" fill="#000000">service_id</text>
<polygon fill="none" stroke="#000000" points="231,-120.7 231,-142.7 355,-142.7 355,-120.7 231,-120.7"/>
<image xlink:href="../../images/foreignKeys.png" width="11px" height="12px" preserveAspectRatio="xMinYMin meet" x="236" y="-137.7"/>
<text text-anchor="start" x="251" y="-127.8" font-family="Helvetica,sans-Serif" font-size="11.00" fill="#000000">name</text>
<polygon fill="none" stroke="#000000" points="231,-98.7 231,-120.7 355,-120.7 355,-98.7 231,-98.7"/>
<image xlink:href="../../images/foreignKeys.png" width="11px" height="12px" preserveAspectRatio="xMinYMin meet" x="236" y="-115.7"/>
<text text-anchor="start" x="251" y="-105.8" font-family="Helvetica,sans-Serif" font-size="11.00" fill="#000000">id_cid</text>
<polygon fill="none" stroke="#000000" points="231,-79.7 231,-98.7 355,-98.7 355,-79.7 231,-79.7"/>
<text text-anchor="start" x="234" y="-85.8" font-family="Helvetica,sans-Serif" font-size="11.00" fill="#000000">...</text>
<polygon fill="#ffffff" stroke="transparent" points="231,-60.7 231,-79.7 274,-79.7 274,-60.7 231,-60.7"/>
<polygon fill="none" stroke="#000000" points="231,-60.7 231,-79.7 274,-79.7 274,-60.7 231,-60.7"/>
<text text-anchor="start" x="234" y="-66.8" font-family="Helvetica,sans-Serif" font-size="11.00" fill="#000000">&lt; 2</text>
<polygon fill="#ffffff" stroke="transparent" points="274,-60.7 274,-79.7 323,-79.7 323,-60.7 274,-60.7"/>
<polygon fill="none" stroke="#000000" points="274,-60.7 274,-79.7 323,-79.7 323,-60.7 274,-60.7"/>
<text text-anchor="start" x="287.6105" y="-66.8" font-family="Helvetica,sans-Serif" font-size="11.00" fill="#000000">0 rows</text>
<polygon fill="#ffffff" stroke="transparent" points="323,-60.7 323,-79.7 355,-79.7 355,-60.7 323,-60.7"/>
<polygon fill="none" stroke="#000000" points="323,-60.7 323,-79.7 355,-79.7 355,-60.7 323,-60.7"/>
<text text-anchor="start" x="336.4053" y="-66.8" font-family="Helvetica,sans-Serif" font-size="11.00" fill="#000000">5 &gt;</text>
</a>
</g>
</g>
<!-- chats&#45;&gt;patients -->
<g id="edge1" class="edge">
<title>chats:w&#45;&gt;patients:e</title>
<path fill="none" stroke="#000000" d="M398.8286,-175.7C383.7231,-175.7 375.3125,-175.7 355,-175.7"/>
<polygon fill="#000000" stroke="#000000" points="405.5,-175.7001 413.5,-179.3 409.5,-175.7 413.5,-175.7 413.5,-175.7 413.5,-175.7 409.5,-175.7 413.5,-172.1 405.5,-175.7001 405.5,-175.7001"/>
<ellipse fill="none" stroke="#000000" cx="402.3" cy="-175.7001" rx="3.2" ry="3.2"/>
</g>
<!-- cid -->
<g id="node6" class="node">
<title>cid</title>
<g id="a_node6"><a xlink:href="../../tables/cid.html" xlink:title="cid" target="_top">
<polygon fill="#ffffff" stroke="transparent" points="52,-50.2 52,-111.2 138,-111.2 138,-50.2 52,-50.2"/>
<polygon fill="#f5f5f5" stroke="transparent" points="52,-87.7 52,-110.7 138,-110.7 138,-87.7 52,-87.7"/>
<polygon fill="none" stroke="#000000" points="52,-87.7 52,-110.7 138,-110.7 138,-87.7 52,-87.7"/>
<text text-anchor="start" x="56.4721" y="-96.3" font-family="Helvetica,sans-Serif" font-weight="bold" font-size="11.00" fill="#000000">cid</text>
<text text-anchor="start" x="103.0437" y="-95.8" font-family="Helvetica,sans-Serif" font-size="11.00" fill="#000000">[table]</text>
<polygon fill="none" stroke="#000000" points="52,-68.7 52,-87.7 138,-87.7 138,-68.7 52,-68.7"/>
<text text-anchor="start" x="55" y="-74.8" font-family="Helvetica,sans-Serif" font-size="11.00" fill="#000000">...</text>
<polygon fill="#ffffff" stroke="transparent" points="52,-49.7 52,-68.7 73,-68.7 73,-49.7 52,-49.7"/>
<polygon fill="none" stroke="#000000" points="52,-49.7 52,-68.7 73,-68.7 73,-49.7 52,-49.7"/>
<text text-anchor="start" x="54.7027" y="-55.8" font-family="Helvetica,sans-Serif" font-size="11.00" fill="#000000">&lt; 1</text>
<polygon fill="#ffffff" stroke="transparent" points="73,-49.7 73,-68.7 117,-68.7 117,-49.7 73,-49.7"/>
<polygon fill="none" stroke="#000000" points="73,-49.7 73,-68.7 117,-68.7 117,-49.7 73,-49.7"/>
<text text-anchor="start" x="75.7478" y="-55.8" font-family="Helvetica,sans-Serif" font-size="11.00" fill="#000000">88 rows</text>
<polygon fill="#ffffff" stroke="transparent" points="117,-49.7 117,-68.7 138,-68.7 138,-49.7 117,-49.7"/>
<polygon fill="none" stroke="#000000" points="117,-49.7 117,-68.7 138,-68.7 138,-49.7 117,-49.7"/>
<text text-anchor="start" x="119.7027" y="-55.8" font-family="Helvetica,sans-Serif" font-size="11.00" fill="#000000">1 &gt;</text>
</a>
</g>
</g>
<!-- patients&#45;&gt;cid -->
<g id="edge7" class="edge">
<title>patients:w&#45;&gt;cid:e</title>
<path fill="none" stroke="#000000" d="M216.2467,-108.325C185.2983,-102.2 176.2478,-77.7 138,-77.7"/>
<polygon fill="#000000" stroke="#000000" points="223.0345,-108.9576 230.6659,-113.2845 227.0173,-109.3288 231,-109.7 231,-109.7 231,-109.7 227.0173,-109.3288 231.3341,-106.1155 223.0345,-108.9576 223.0345,-108.9576"/>
<ellipse fill="none" stroke="#000000" cx="219.8483" cy="-108.6606" rx="3.2" ry="3.2"/>
</g>
<!-- SequelizeMeta -->
<g id="node7" class="node">
<title>SequelizeMeta</title>
<g id="a_node7"><a xlink:href="../../tables/SequelizeMeta.html" xlink:title="SequelizeMeta" target="_top">
<polygon fill="#ffffff" stroke="transparent" points="8,-132.7 8,-200.7 182,-200.7 182,-132.7 8,-132.7"/>
<polygon fill="#f5f5f5" stroke="transparent" points="10,-175.7 10,-198.7 180,-198.7 180,-175.7 10,-175.7"/>
<polygon fill="none" stroke="#000000" points="10,-175.7 10,-198.7 180,-198.7 180,-175.7 10,-175.7"/>
<text text-anchor="start" x="15" y="-184.3" font-family="Helvetica,sans-Serif" font-weight="bold" font-size="11.00" fill="#000000">SequelizeMeta</text>
<text text-anchor="start" x="145.0437" y="-183.8" font-family="Helvetica,sans-Serif" font-size="11.00" fill="#000000">[table]</text>
<polygon fill="none" stroke="#000000" points="10,-153.7 10,-175.7 113,-175.7 113,-153.7 10,-153.7"/>
<image xlink:href="../../images/primaryKeys.png" width="11px" height="12px" preserveAspectRatio="xMinYMin meet" x="15" y="-170.7"/>
<text text-anchor="start" x="30" y="-160.8" font-family="Helvetica,sans-Serif" font-size="11.00" fill="#000000">name</text>
<polygon fill="none" stroke="#000000" points="113,-153.7 113,-175.7 180,-175.7 180,-153.7 113,-153.7"/>
<text text-anchor="start" x="115.9365" y="-161.4" font-family="Helvetica,sans-Serif" font-size="11.00" fill="#000000">varchar[255]</text>
<polygon fill="#ffffff" stroke="transparent" points="10,-134.7 10,-153.7 50,-153.7 50,-134.7 10,-134.7"/>
<polygon fill="none" stroke="#000000" points="10,-134.7 10,-153.7 50,-153.7 50,-134.7 10,-134.7"/>
<text text-anchor="start" x="13" y="-140.8" font-family="Helvetica,sans-Serif" font-size="11.00" fill="#000000">&lt; 0</text>
<polygon fill="#ffffff" stroke="transparent" points="50,-134.7 50,-153.7 113,-153.7 113,-134.7 50,-134.7"/>
<polygon fill="none" stroke="#000000" points="50,-134.7 50,-153.7 113,-153.7 113,-134.7 50,-134.7"/>
<text text-anchor="start" x="71.4956" y="-140.8" font-family="Helvetica,sans-Serif" font-size="11.00" fill="#000000">17 rows</text>
<polygon fill="#ffffff" stroke="transparent" points="113,-134.7 113,-153.7 180,-153.7 180,-134.7 113,-134.7"/>
<polygon fill="none" stroke="#000000" points="113,-134.7 113,-153.7 180,-153.7 180,-134.7 113,-134.7"/>
<text text-anchor="start" x="161.4053" y="-140.8" font-family="Helvetica,sans-Serif" font-size="11.00" fill="#000000">1 &gt;</text>
<polygon fill="none" stroke="#000000" stroke-width="2" points="9,-133.7 9,-199.7 181,-199.7 181,-133.7 9,-133.7"/>
</a>
</g>
</g>
<!-- patients&#45;&gt;SequelizeMeta -->
<g id="edge8" class="edge">
<title>patients:w&#45;&gt;SequelizeMeta:e</title>
<path fill="none" stroke="#000000" stroke-dasharray="5,2" d="M216.9604,-135.7464C203.8775,-144.5584 201.0921,-164.7 180,-164.7"/>
<polygon fill="#000000" stroke="#000000" points="223.3129,-133.9156 231.997,-135.1592 227.1565,-132.8078 231,-131.7 231,-131.7 231,-131.7 227.1565,-132.8078 230.003,-128.2408 223.3129,-133.9156 223.3129,-133.9156"/>
<ellipse fill="none" stroke="#000000" cx="220.2381" cy="-134.8018" rx="3.2" ry="3.2"/>
</g>
<!-- device -->
<g id="node3" class="node">
<title>device</title>
<g id="a_node3"><a xlink:href="../../tables/device.html" xlink:title="device" target="_top">
<polygon fill="#ffffff" stroke="transparent" points="415.5,-258.2 415.5,-319.2 491.5,-319.2 491.5,-258.2 415.5,-258.2"/>
<polygon fill="#f5f5f5" stroke="transparent" points="415.5,-295.7 415.5,-318.7 491.5,-318.7 491.5,-295.7 415.5,-295.7"/>
<polygon fill="none" stroke="#000000" points="415.5,-295.7 415.5,-318.7 491.5,-318.7 491.5,-295.7 415.5,-295.7"/>
<text text-anchor="start" x="420.5" y="-304.3" font-family="Helvetica,sans-Serif" font-weight="bold" font-size="11.00" fill="#000000">device</text>
<text text-anchor="start" x="457.0219" y="-303.8" font-family="Helvetica,sans-Serif" font-size="11.00" fill="#000000">[table]</text>
<polygon fill="none" stroke="#000000" points="415.5,-276.7 415.5,-295.7 491.5,-295.7 491.5,-276.7 415.5,-276.7"/>
<text text-anchor="start" x="418.5" y="-282.8" font-family="Helvetica,sans-Serif" font-size="11.00" fill="#000000">...</text>
<polygon fill="#ffffff" stroke="transparent" points="415.5,-257.7 415.5,-276.7 438.5,-276.7 438.5,-257.7 415.5,-257.7"/>
<polygon fill="none" stroke="#000000" points="415.5,-257.7 415.5,-276.7 438.5,-276.7 438.5,-257.7 415.5,-257.7"/>
<text text-anchor="start" x="418.5" y="-263.8" font-family="Helvetica,sans-Serif" font-size="11.00" fill="#000000">&lt; 1</text>
<polygon fill="#ffffff" stroke="transparent" points="438.5,-257.7 438.5,-276.7 477.5,-276.7 477.5,-257.7 438.5,-257.7"/>
<polygon fill="none" stroke="#000000" points="438.5,-257.7 438.5,-276.7 477.5,-276.7 477.5,-257.7 438.5,-257.7"/>
<text text-anchor="start" x="442.1105" y="-263.8" font-family="Helvetica,sans-Serif" font-size="11.00" fill="#000000">0 rows</text>
<polygon fill="#ffffff" stroke="transparent" points="477.5,-257.7 477.5,-276.7 491.5,-276.7 491.5,-257.7 477.5,-257.7"/>
<polygon fill="none" stroke="#000000" points="477.5,-257.7 477.5,-276.7 491.5,-276.7 491.5,-257.7 477.5,-257.7"/>
<text text-anchor="start" x="482.3862" y="-263.8" font-family="Helvetica,sans-Serif" font-size="11.00" fill="#000000"> &#160;</text>
</a>
</g>
</g>
<!-- device&#45;&gt;patients -->
<g id="edge2" class="edge">
<title>device:w&#45;&gt;patients:e</title>
<path fill="none" stroke="#000000" d="M401.1621,-282.2873C369.2926,-263.7205 404.9108,-175.7 355,-175.7"/>
<polygon fill="#000000" stroke="#000000" points="407.7174,-283.8476 414.6664,-289.2022 411.6087,-284.7738 415.5,-285.7 415.5,-285.7 415.5,-285.7 411.6087,-284.7738 416.3336,-282.1978 407.7174,-283.8476 407.7174,-283.8476"/>
<ellipse fill="none" stroke="#000000" cx="404.6044" cy="-283.1066" rx="3.2" ry="3.2"/>
</g>
<!-- message_notifications -->
<g id="node4" class="node">
<title>message_notifications</title>
<g id="a_node4"><a xlink:href="../../tables/message_notifications.html" xlink:title="message_notifications" target="_top">
<polygon fill="#ffffff" stroke="transparent" points="698,-177.2 698,-238.2 866,-238.2 866,-177.2 698,-177.2"/>
<polygon fill="#f5f5f5" stroke="transparent" points="698,-214.7 698,-237.7 866,-237.7 866,-214.7 698,-214.7"/>
<polygon fill="none" stroke="#000000" points="698,-214.7 698,-237.7 866,-237.7 866,-214.7 698,-214.7"/>
<text text-anchor="start" x="703" y="-223.3" font-family="Helvetica,sans-Serif" font-weight="bold" font-size="11.00" fill="#000000">message_notifications</text>
<text text-anchor="start" x="831.5219" y="-222.8" font-family="Helvetica,sans-Serif" font-size="11.00" fill="#000000">[table]</text>
<polygon fill="none" stroke="#000000" points="698,-195.7 698,-214.7 866,-214.7 866,-195.7 698,-195.7"/>
<text text-anchor="start" x="701" y="-201.8" font-family="Helvetica,sans-Serif" font-size="11.00" fill="#000000">...</text>
<polygon fill="#ffffff" stroke="transparent" points="698,-176.7 698,-195.7 767,-195.7 767,-176.7 698,-176.7"/>
<polygon fill="none" stroke="#000000" points="698,-176.7 698,-195.7 767,-195.7 767,-176.7 698,-176.7"/>
<text text-anchor="start" x="701" y="-182.8" font-family="Helvetica,sans-Serif" font-size="11.00" fill="#000000">&lt; 2</text>
<polygon fill="#ffffff" stroke="transparent" points="767,-176.7 767,-195.7 829,-195.7 829,-176.7 767,-176.7"/>
<polygon fill="none" stroke="#000000" points="767,-176.7 767,-195.7 829,-195.7 829,-176.7 767,-176.7"/>
<text text-anchor="start" x="793.6105" y="-182.8" font-family="Helvetica,sans-Serif" font-size="11.00" fill="#000000">0 rows</text>
<polygon fill="#ffffff" stroke="transparent" points="829,-176.7 829,-195.7 866,-195.7 866,-176.7 829,-176.7"/>
<polygon fill="none" stroke="#000000" points="829,-176.7 829,-195.7 866,-195.7 866,-176.7 829,-176.7"/>
<text text-anchor="start" x="856.8862" y="-182.8" font-family="Helvetica,sans-Serif" font-size="11.00" fill="#000000"> &#160;</text>
</a>
</g>
</g>
<!-- message_notifications&#45;&gt;patients -->
<g id="edge4" class="edge">
<title>message_notifications:w&#45;&gt;patients:e</title>
<path fill="none" stroke="#000000" d="M683.741,-207.4972C675.4173,-211.1556 670.1353,-217.3726 657,-219.7 542.7791,-239.9381 502.3703,-265.9747 396,-219.7 371.4894,-209.037 381.7296,-175.7 355,-175.7"/>
<polygon fill="#000000" stroke="#000000" points="690.1496,-206.24 698.693,-208.2327 694.0748,-205.47 698,-204.7 698,-204.7 698,-204.7 694.0748,-205.47 697.307,-201.1673 690.1496,-206.24 690.1496,-206.24"/>
<ellipse fill="none" stroke="#000000" cx="687.0095" cy="-206.8561" rx="3.2" ry="3.2"/>
</g>
<!-- messages -->
<g id="node5" class="node">
<title>messages</title>
<g id="a_node5"><a xlink:href="../../tables/messages.html" xlink:title="messages" target="_top">
<polygon fill="#ffffff" stroke="transparent" points="552,-148.2 552,-209.2 649,-209.2 649,-148.2 552,-148.2"/>
<polygon fill="#f5f5f5" stroke="transparent" points="552.5,-185.7 552.5,-208.7 649.5,-208.7 649.5,-185.7 552.5,-185.7"/>
<polygon fill="none" stroke="#000000" points="552.5,-185.7 552.5,-208.7 649.5,-208.7 649.5,-185.7 552.5,-185.7"/>
<text text-anchor="start" x="557.5" y="-194.3" font-family="Helvetica,sans-Serif" font-weight="bold" font-size="11.00" fill="#000000">messages</text>
<text text-anchor="start" x="615.0219" y="-193.8" font-family="Helvetica,sans-Serif" font-size="11.00" fill="#000000">[table]</text>
<polygon fill="none" stroke="#000000" points="552.5,-166.7 552.5,-185.7 649.5,-185.7 649.5,-166.7 552.5,-166.7"/>
<text text-anchor="start" x="555.5" y="-172.8" font-family="Helvetica,sans-Serif" font-size="11.00" fill="#000000">...</text>
<polygon fill="#ffffff" stroke="transparent" points="552.5,-147.7 552.5,-166.7 581.5,-166.7 581.5,-147.7 552.5,-147.7"/>
<polygon fill="none" stroke="#000000" points="552.5,-147.7 552.5,-166.7 581.5,-166.7 581.5,-147.7 552.5,-147.7"/>
<text text-anchor="start" x="555.5" y="-153.8" font-family="Helvetica,sans-Serif" font-size="11.00" fill="#000000">&lt; 3</text>
<polygon fill="#ffffff" stroke="transparent" points="581.5,-147.7 581.5,-166.7 623.5,-166.7 623.5,-147.7 581.5,-147.7"/>
<polygon fill="none" stroke="#000000" points="581.5,-147.7 581.5,-166.7 623.5,-166.7 623.5,-147.7 581.5,-147.7"/>
<text text-anchor="start" x="588.1105" y="-153.8" font-family="Helvetica,sans-Serif" font-size="11.00" fill="#000000">0 rows</text>
<polygon fill="#ffffff" stroke="transparent" points="623.5,-147.7 623.5,-166.7 649.5,-166.7 649.5,-147.7 623.5,-147.7"/>
<polygon fill="none" stroke="#000000" points="623.5,-147.7 623.5,-166.7 649.5,-166.7 649.5,-147.7 623.5,-147.7"/>
<text text-anchor="start" x="630.9053" y="-153.8" font-family="Helvetica,sans-Serif" font-size="11.00" fill="#000000">1 &gt;</text>
</a>
</g>
</g>
<!-- message_notifications&#45;&gt;messages -->
<g id="edge3" class="edge">
<title>message_notifications:w&#45;&gt;messages:e</title>
<path fill="none" stroke="#000000" d="M684.0737,-200.6677C672.2213,-192.6993 668.7287,-175.7 649.5,-175.7"/>
<polygon fill="#000000" stroke="#000000" points="690.3156,-202.475 696.9987,-208.158 694.1578,-203.5875 698,-204.7 698,-204.7 698,-204.7 694.1578,-203.5875 699.0013,-201.242 690.3156,-202.475 690.3156,-202.475"/>
<ellipse fill="none" stroke="#000000" cx="687.2419" cy="-201.585" rx="3.2" ry="3.2"/>
</g>
<!-- messages&#45;&gt;chats -->
<g id="edge5" class="edge">
<title>messages:w&#45;&gt;chats:e</title>
<path fill="none" stroke="#000000" d="M537.7032,-175.7C522.4686,-175.7 513.9861,-175.7 493.5,-175.7"/>
<polygon fill="#000000" stroke="#000000" points="544.5,-175.7001 552.5,-179.3 548.5,-175.7 552.5,-175.7 552.5,-175.7 552.5,-175.7 548.5,-175.7 552.5,-172.1 544.5,-175.7001 544.5,-175.7001"/>
<ellipse fill="none" stroke="#000000" cx="541.3" cy="-175.7001" rx="3.2" ry="3.2"/>
</g>
<!-- messages&#45;&gt;patients -->
<g id="edge6" class="edge">
<title>messages:w&#45;&gt;patients:e</title>
<path fill="none" stroke="#000000" d="M538.7431,-171.0365C529.0176,-162.4724 528.4824,-144.4949 511,-137.7 463.3607,-119.184 443.5832,-119.0403 396,-137.7 372.8697,-146.7705 379.8452,-175.7 355,-175.7"/>
<polygon fill="#000000" stroke="#000000" points="544.9235,-173.1316 551.3442,-179.1094 548.7117,-174.4158 552.5,-175.7 552.5,-175.7 552.5,-175.7 548.7117,-174.4158 553.6558,-172.2906 544.9235,-173.1316 544.9235,-173.1316"/>
<ellipse fill="none" stroke="#000000" cx="541.8929" cy="-172.1042" rx="3.2" ry="3.2"/>
</g>
<!-- responses -->
<g id="node8" class="node">
<title>responses</title>
<g id="a_node8"><a xlink:href="../../tables/responses.html" xlink:title="responses" target="_top">
<polygon fill="#ffffff" stroke="transparent" points="404,-38.2 404,-99.2 503,-99.2 503,-38.2 404,-38.2"/>
<polygon fill="#f5f5f5" stroke="transparent" points="404.5,-75.7 404.5,-98.7 503.5,-98.7 503.5,-75.7 404.5,-75.7"/>
<polygon fill="none" stroke="#000000" points="404.5,-75.7 404.5,-98.7 503.5,-98.7 503.5,-75.7 404.5,-75.7"/>
<text text-anchor="start" x="409.5" y="-84.3" font-family="Helvetica,sans-Serif" font-weight="bold" font-size="11.00" fill="#000000">responses</text>
<text text-anchor="start" x="469.0219" y="-83.8" font-family="Helvetica,sans-Serif" font-size="11.00" fill="#000000">[table]</text>
<polygon fill="none" stroke="#000000" points="404.5,-56.7 404.5,-75.7 503.5,-75.7 503.5,-56.7 404.5,-56.7"/>
<text text-anchor="start" x="407.5" y="-62.8" font-family="Helvetica,sans-Serif" font-size="11.00" fill="#000000">...</text>
<polygon fill="#ffffff" stroke="transparent" points="404.5,-37.7 404.5,-56.7 434.5,-56.7 434.5,-37.7 404.5,-37.7"/>
<polygon fill="none" stroke="#000000" points="404.5,-37.7 404.5,-56.7 434.5,-56.7 434.5,-37.7 404.5,-37.7"/>
<text text-anchor="start" x="407.5" y="-43.8" font-family="Helvetica,sans-Serif" font-size="11.00" fill="#000000">&lt; 3</text>
<polygon fill="#ffffff" stroke="transparent" points="434.5,-37.7 434.5,-56.7 477.5,-56.7 477.5,-37.7 434.5,-37.7"/>
<polygon fill="none" stroke="#000000" points="434.5,-37.7 434.5,-56.7 477.5,-56.7 477.5,-37.7 434.5,-37.7"/>
<text text-anchor="start" x="442.1105" y="-43.8" font-family="Helvetica,sans-Serif" font-size="11.00" fill="#000000">0 rows</text>
<polygon fill="#ffffff" stroke="transparent" points="477.5,-37.7 477.5,-56.7 503.5,-56.7 503.5,-37.7 477.5,-37.7"/>
<polygon fill="none" stroke="#000000" points="477.5,-37.7 477.5,-56.7 503.5,-56.7 503.5,-37.7 477.5,-37.7"/>
<text text-anchor="start" x="484.9053" y="-43.8" font-family="Helvetica,sans-Serif" font-size="11.00" fill="#000000">1 &gt;</text>
</a>
</g>
</g>
<!-- responses&#45;&gt;patients -->
<g id="edge9" class="edge">
<title>responses:w&#45;&gt;patients:e</title>
<path fill="none" stroke="#000000" d="M390.2431,-69.615C362.538,-89.2103 402.5377,-175.7 355,-175.7"/>
<polygon fill="#000000" stroke="#000000" points="396.7856,-67.8184 405.4533,-69.1715 400.6428,-66.7592 404.5,-65.7 404.5,-65.7 404.5,-65.7 400.6428,-66.7592 403.5467,-62.2285 396.7856,-67.8184 396.7856,-67.8184"/>
<ellipse fill="none" stroke="#000000" cx="393.6998" cy="-68.6658" rx="3.2" ry="3.2"/>
</g>
</g>
</svg>
