<?xml version="1.0" encoding="UTF-8" standalone="no"?>
<!DOCTYPE svg PUBLIC "-//W3C//DTD SVG 1.1//EN"
 "http://www.w3.org/Graphics/SVG/1.1/DTD/svg11.dtd">
<!-- Generated by graphviz version 2.40.1 (20161225.0304)
 -->
<!-- Title: oneDegreeRelationshipsDiagramImplied Pages: 1 -->
<svg width="371pt" height="199pt"
 viewBox="0.00 0.00 371.00 199.20" xmlns="http://www.w3.org/2000/svg" xmlns:xlink="http://www.w3.org/1999/xlink">
<g id="graph0" class="graph" transform="scale(1 1) rotate(0) translate(4 195.2)">
<title>oneDegreeRelationshipsDiagramImplied</title>
<polygon fill="#ffffff" stroke="transparent" points="-4,4 -4,-195.2 367,-195.2 367,4 -4,4"/>
<text text-anchor="middle" x="72.4936" y="-7.3" font-family="Helvetica,sans-Serif" font-size="11.00" fill="#000000">Generated by SchemaSpy</text>
<!-- patients -->
<g id="node1" class="node">
<title>patients</title>
<g id="a_node1"><a xlink:href="../../tables/patients.html" xlink:title="patients" target="_top">
<polygon fill="#ffffff" stroke="transparent" points="231,-38.2 231,-187.2 355,-187.2 355,-38.2 231,-38.2"/>
<polygon fill="#f5f5f5" stroke="transparent" points="231,-163.7 231,-186.7 355,-186.7 355,-163.7 231,-163.7"/>
<polygon fill="none" stroke="#000000" points="231,-163.7 231,-186.7 355,-186.7 355,-163.7 231,-163.7"/>
<text text-anchor="start" x="236" y="-172.3" font-family="Helvetica,sans-Serif" font-weight="bold" font-size="11.00" fill="#000000">patients</text>
<text text-anchor="start" x="320.0437" y="-171.8" font-family="Helvetica,sans-Serif" font-size="11.00" fill="#000000">[table]</text>
<polygon fill="none" stroke="#000000" points="231,-141.7 231,-163.7 355,-163.7 355,-141.7 231,-141.7"/>
<image xlink:href="../../images/primaryKeys.png" width="11px" height="12px" preserveAspectRatio="xMinYMin meet" x="236" y="-158.7"/>
<text text-anchor="start" x="251" y="-148.8" font-family="Helvetica,sans-Serif" font-size="11.00" fill="#000000">id_patient</text>
<polygon fill="#ffffff" stroke="transparent" points="231,-119.7 231,-141.7 355,-141.7 355,-119.7 231,-119.7"/>
<polygon fill="none" stroke="#000000" points="231,-119.7 231,-141.7 355,-141.7 355,-119.7 231,-119.7"/>
<text text-anchor="start" x="251" y="-126.8" font-family="Helvetica,sans-Serif" font-size="11.00" fill="#000000">service_id</text>
<polygon fill="none" stroke="#000000" points="231,-97.7 231,-119.7 355,-119.7 355,-97.7 231,-97.7"/>
<image xlink:href="../../images/foreignKeys.png" width="11px" height="12px" preserveAspectRatio="xMinYMin meet" x="236" y="-114.7"/>
<text text-anchor="start" x="251" y="-104.8" font-family="Helvetica,sans-Serif" font-size="11.00" fill="#000000">name</text>
<polygon fill="none" stroke="#000000" points="231,-75.7 231,-97.7 355,-97.7 355,-75.7 231,-75.7"/>
<image xlink:href="../../images/foreignKeys.png" width="11px" height="12px" preserveAspectRatio="xMinYMin meet" x="236" y="-92.7"/>
<text text-anchor="start" x="251" y="-82.8" font-family="Helvetica,sans-Serif" font-size="11.00" fill="#000000">id_cid</text>
<polygon fill="none" stroke="#000000" points="231,-56.7 231,-75.7 355,-75.7 355,-56.7 231,-56.7"/>
<text text-anchor="start" x="234" y="-62.8" font-family="Helvetica,sans-Serif" font-size="11.00" fill="#000000">...</text>
<polygon fill="#ffffff" stroke="transparent" points="231,-37.7 231,-56.7 274,-56.7 274,-37.7 231,-37.7"/>
<polygon fill="none" stroke="#000000" points="231,-37.7 231,-56.7 274,-56.7 274,-37.7 231,-37.7"/>
<text text-anchor="start" x="234" y="-43.8" font-family="Helvetica,sans-Serif" font-size="11.00" fill="#000000">&lt; 2</text>
<polygon fill="#ffffff" stroke="transparent" points="274,-37.7 274,-56.7 323,-56.7 323,-37.7 274,-37.7"/>
<polygon fill="none" stroke="#000000" points="274,-37.7 274,-56.7 323,-56.7 323,-37.7 274,-37.7"/>
<text text-anchor="start" x="287.6105" y="-43.8" font-family="Helvetica,sans-Serif" font-size="11.00" fill="#000000">0 rows</text>
<polygon fill="#ffffff" stroke="transparent" points="323,-37.7 323,-56.7 355,-56.7 355,-37.7 323,-37.7"/>
<polygon fill="none" stroke="#000000" points="323,-37.7 323,-56.7 355,-56.7 355,-37.7 323,-37.7"/>
<text text-anchor="start" x="336.4053" y="-43.8" font-family="Helvetica,sans-Serif" font-size="11.00" fill="#000000">5 &gt;</text>
</a>
</g>
</g>
<!-- SequelizeMeta -->
<g id="node2" class="node">
<title>SequelizeMeta</title>
<g id="a_node2"><a xlink:href="../../tables/SequelizeMeta.html" xlink:title="SequelizeMeta" target="_top">
<polygon fill="#ffffff" stroke="transparent" points="8,-76.7 8,-144.7 182,-144.7 182,-76.7 8,-76.7"/>
<polygon fill="#f5f5f5" stroke="transparent" points="10,-119.7 10,-142.7 180,-142.7 180,-119.7 10,-119.7"/>
<polygon fill="none" stroke="#000000" points="10,-119.7 10,-142.7 180,-142.7 180,-119.7 10,-119.7"/>
<text text-anchor="start" x="15" y="-128.3" font-family="Helvetica,sans-Serif" font-weight="bold" font-size="11.00" fill="#000000">SequelizeMeta</text>
<text text-anchor="start" x="145.0437" y="-127.8" font-family="Helvetica,sans-Serif" font-size="11.00" fill="#000000">[table]</text>
<polygon fill="none" stroke="#000000" points="10,-97.7 10,-119.7 113,-119.7 113,-97.7 10,-97.7"/>
<image xlink:href="../../images/primaryKeys.png" width="11px" height="12px" preserveAspectRatio="xMinYMin meet" x="15" y="-114.7"/>
<text text-anchor="start" x="30" y="-104.8" font-family="Helvetica,sans-Serif" font-size="11.00" fill="#000000">name</text>
<polygon fill="none" stroke="#000000" points="113,-97.7 113,-119.7 180,-119.7 180,-97.7 113,-97.7"/>
<text text-anchor="start" x="115.9365" y="-105.4" font-family="Helvetica,sans-Serif" font-size="11.00" fill="#000000">varchar[255]</text>
<polygon fill="#ffffff" stroke="transparent" points="10,-78.7 10,-97.7 50,-97.7 50,-78.7 10,-78.7"/>
<polygon fill="none" stroke="#000000" points="10,-78.7 10,-97.7 50,-97.7 50,-78.7 10,-78.7"/>
<text text-anchor="start" x="13" y="-84.8" font-family="Helvetica,sans-Serif" font-size="11.00" fill="#000000">&lt; 0</text>
<polygon fill="#ffffff" stroke="transparent" points="50,-78.7 50,-97.7 113,-97.7 113,-78.7 50,-78.7"/>
<polygon fill="none" stroke="#000000" points="50,-78.7 50,-97.7 113,-97.7 113,-78.7 50,-78.7"/>
<text text-anchor="start" x="71.4956" y="-84.8" font-family="Helvetica,sans-Serif" font-size="11.00" fill="#000000">17 rows</text>
<polygon fill="#ffffff" stroke="transparent" points="113,-78.7 113,-97.7 180,-97.7 180,-78.7 113,-78.7"/>
<polygon fill="none" stroke="#000000" points="113,-78.7 113,-97.7 180,-97.7 180,-78.7 113,-78.7"/>
<text text-anchor="start" x="161.4053" y="-84.8" font-family="Helvetica,sans-Serif" font-size="11.00" fill="#000000">1 &gt;</text>
<polygon fill="none" stroke="#000000" stroke-width="2" points="9,-77.7 9,-143.7 181,-143.7 181,-77.7 9,-77.7"/>
</a>
</g>
</g>
<!-- patients&#45;&gt;SequelizeMeta -->
<g id="edge1" class="edge">
<title>patients:w&#45;&gt;SequelizeMeta:e</title>
<path fill="none" stroke="#000000" stroke-dasharray="5,2" d="M216.276,-108.7C204.2815,-108.7 196.8229,-108.7 180,-108.7"/>
<polygon fill="#000000" stroke="#000000" points="223,-108.7001 231,-112.3 227,-108.7 231,-108.7 231,-108.7 231,-108.7 227,-108.7 231,-105.1 223,-108.7001 223,-108.7001"/>
<ellipse fill="none" stroke="#000000" cx="219.8" cy="-108.7001" rx="3.2" ry="3.2"/>
</g>
</g>
</svg>
